<svg xmlns="http://www.w3.org/2000/svg" viewBox="0 0 640 420">
  <defs>
    <style>
      .cls-1 {
        fill: #fff3ff;
      }

      .cls-2 {
        fill: #10162f;
      }

      .cls-3 {
        fill: #fff4ff;
      }

      .cls-4 {
        fill: #3a10e3;
      }

      .cls-5 {
        fill: #fff;
      }
    </style>
  </defs>
  <g id="bg">
    <g>
      <rect class="cls-1" x="0.75" y="0.11" width="639" height="419"/>
      <path class="cls-2" d="M639.25.61v418H1.25V.61h638m1-1H.25v420h640V-.39Z"/>
    </g>
  </g>
  <g id="Layer_4" data-name="Layer 4">
    <g>
      <g>
        <rect class="cls-3" x="270.82" y="64.21" width="85.76" height="52.71" rx="0.74"/>
        <path class="cls-2" d="M355.84,64.71a.24.24,0,0,1,.24.24v51.22a.24.24,0,0,1-.24.24H271.56a.23.23,0,0,1-.24-.24V65a.23.23,0,0,1,.24-.24h84.28m0-1H271.56A1.23,1.23,0,0,0,270.32,65v51.22a1.23,1.23,0,0,0,1.24,1.24h84.28a1.24,1.24,0,0,0,1.24-1.24V65a1.24,1.24,0,0,0-1.24-1.24Z"/>
      </g>
      <g>
        <path class="cls-2" d="M377.29,139.62h-80a8.84,8.84,0,0,1-5.75-2.12L271.87,120c-.63-.54-2.07-1-1-3.1l86.25,1.55,21.31,18.2A1.69,1.69,0,0,1,377.29,139.62Z"/>
        <path class="cls-2" d="M377.29,140.12h-80a9.41,9.41,0,0,1-6.08-2.24l-19.73-17.51a2.94,2.94,0,0,0-.3-.22c-.66-.48-1.91-1.35-.84-3.48l.14-.28h.31L357.27,118l.13.12,21.31,18.2a2.19,2.19,0,0,1-1.42,3.85ZM271.15,117.4c-.47,1.13,0,1.49.66,1.93a4.18,4.18,0,0,1,.38.29l19.73,17.5a8.32,8.32,0,0,0,5.42,2h80a1.18,1.18,0,0,0,.77-2.09l-21.17-18.09Z"/>
      </g>
      <g>
        <path class="cls-3" d="M298.37,137.05a8.34,8.34,0,0,1-5.42-2l-21.28-18.17h85.22L378.06,135a1.18,1.18,0,0,1-.77,2.09Z"/>
        <path class="cls-2" d="M356.71,117.38l21,18a.68.68,0,0,1-.45,1.21H298.37a7.82,7.82,0,0,1-5.1-1.88L273,117.38h83.68m.37-1H270.32l22.3,19.05a8.84,8.84,0,0,0,5.75,2.12h78.92a1.69,1.69,0,0,0,1.1-3l-21.31-18.2Z"/>
      </g>
      <g>
        <rect class="cls-3" x="275.54" y="68.06" width="76.32" height="45"/>
        <path class="cls-2" d="M351.36,68.56v44H276v-44h75.32m1-1H275v46h77.32v-46Z"/>
      </g>
      <g>
        <path class="cls-3" d="M290.75,124.87a7.38,7.38,0,0,1-3.09-.94l-.06,0-5.51-4h72.23l5,4.65-.37,0Z"/>
        <path class="cls-2" d="M354.12,120.36l4,3.69-67.36.32a6.87,6.87,0,0,1-2.87-.89h0l-4.24-3.11h70.5m.08-1H281.92c-.74,0-1,.53-.36.73l5.78,4.25a9.31,9.31,0,0,0,3.41,1L359,125c1.16,0,1.69-.52.81-.79l-5.24-4.84a1.36,1.36,0,0,0-.36,0Z"/>
      </g>
      <g>
        <path class="cls-3" d="M323,133.86a3.69,3.69,0,0,1-2.5-1l-3.23-3a1.45,1.45,0,0,1-.45-1.54,1.12,1.12,0,0,1,1.14-.62h21.87a1.89,1.89,0,0,1,1.28.51l3.38,3.12a1.48,1.48,0,0,1,.36,1.65,1.25,1.25,0,0,1-1.17.85Z"/>
        <path class="cls-2" d="M339.82,128.23a1.38,1.38,0,0,1,.94.38l3.39,3.11a1,1,0,0,1,.22,1.11.76.76,0,0,1-.7.53H323a3.16,3.16,0,0,1-2.16-.86l-3.2-2.95a1,1,0,0,1-.36-1c.11-.27.48-.31.68-.31h21.87m0-1H318c-1.79,0-2.27,1.79-1,3l3.23,3a4.18,4.18,0,0,0,2.84,1.13h20.68a1.94,1.94,0,0,0,1.15-3.37l-3.38-3.12a2.42,2.42,0,0,0-1.62-.64Z"/>
      </g>
    </g>
    <g>
      <path class="cls-2" d="M465.22,125.72l-.14,0-80-22.66a.51.51,0,0,1-.35-.62.5.5,0,0,1,.62-.34l80,22.66a.5.5,0,0,1,.35.61A.51.51,0,0,1,465.22,125.72Z"/>
      <path class="cls-2" d="M453,133.5a.5.5,0,0,1-.26-.93l12.3-7.39-7.38-12.3a.49.49,0,0,1,.17-.68.5.5,0,0,1,.69.17l7.64,12.73a.48.48,0,0,1-.17.68l-12.73,7.65A.48.48,0,0,1,453,133.5Z"/>
      <path class="cls-2" d="M391.29,116.17a.49.49,0,0,1-.45-.28l-6.62-13.29a.49.49,0,0,1,.22-.67l13.29-6.62a.49.49,0,0,1,.67.22.5.5,0,0,1-.22.67l-12.85,6.4,6.41,12.85a.51.51,0,0,1-.23.67A.59.59,0,0,1,391.29,116.17Z"/>
    </g>
    <g>
      <path class="cls-2" d="M300.39,50.05a3.59,3.59,0,0,1-.92-2.67V41.74h1.7v5.67c0,1.32.56,2,1.7,2s1.7-.65,1.7-2V41.74h1.69v5.64a3.55,3.55,0,0,1-.92,2.67,3.89,3.89,0,0,1-4.95,0Z"/>
      <path class="cls-2" d="M308.54,50.42a2.47,2.47,0,0,1-.9-1.24l1.29-.69a1.81,1.81,0,0,0,.51.79,1.17,1.17,0,0,0,.79.29.88.88,0,0,0,.53-.17.54.54,0,0,0,.22-.47.6.6,0,0,0-.34-.51,5.07,5.07,0,0,0-1-.48,3,3,0,0,1-1.15-.75,1.67,1.67,0,0,1-.41-1.17,1.76,1.76,0,0,1,.26-.93,2.06,2.06,0,0,1,.74-.66,2.3,2.3,0,0,1,1.06-.25,2.66,2.66,0,0,1,1.21.28,2,2,0,0,1,.85.79l-1,.88a1.22,1.22,0,0,0-1.06-.57.77.77,0,0,0-.45.14.43.43,0,0,0-.18.36.55.55,0,0,0,.27.43,4.41,4.41,0,0,0,1.07.49,3,3,0,0,1,1.18.71,1.6,1.6,0,0,1,.41,1.14,2,2,0,0,1-.62,1.54,2.3,2.3,0,0,1-1.61.57A2.71,2.71,0,0,1,308.54,50.42Z"/>
      <path class="cls-2" d="M319.49,48.08H315a1.81,1.81,0,0,0,.51,1.11,1.52,1.52,0,0,0,1,.38,1.68,1.68,0,0,0,.92-.25,2.35,2.35,0,0,0,.67-.77l1.3.48a3.24,3.24,0,0,1-1.13,1.42,3.2,3.2,0,0,1-1.85.49,2.93,2.93,0,0,1-2.82-1.77,4.07,4.07,0,0,1-.33-1.61,4,4,0,0,1,.33-1.6,2.92,2.92,0,0,1,2.82-1.78,3,3,0,0,1,1.72.49,3.08,3.08,0,0,1,1,1.23,3.67,3.67,0,0,1,.32,1.52Zm-1.65-1.27a1.76,1.76,0,0,0-.46-.9,1.27,1.27,0,0,0-.94-.35,1.36,1.36,0,0,0-.9.32,1.7,1.7,0,0,0-.53.93Z"/>
      <path class="cls-2" d="M322.56,44.29v1.06a2.62,2.62,0,0,1,.86-.86,2.11,2.11,0,0,1,1.08-.31,3,3,0,0,1,.79.13l-.3,1.5a1.27,1.27,0,0,0-.67-.18,1.49,1.49,0,0,0-1.26.69,3.85,3.85,0,0,0-.5,2.19v2.33H321V44.29Z"/>
    </g>
    <g>
      <path class="cls-2" d="M332.12,168.05a.54.54,0,0,1-.35-.14l-10.15-10.15-10.14,10.15a.5.5,0,1,1-.71-.71l10.5-10.5a.5.5,0,0,1,.71,0l10.5,10.5a.51.51,0,0,1,0,.71A.54.54,0,0,1,332.12,168.05Z"/>
      <path class="cls-2" d="M321.62,260.05a.54.54,0,0,1-.35-.14l-10.5-10.5a.51.51,0,0,1,0-.71.5.5,0,0,1,.71,0l10.14,10.14,10.15-10.14a.5.5,0,0,1,.71,0,.51.51,0,0,1,0,.71L322,259.91A.54.54,0,0,1,321.62,260.05Z"/>
      <path class="cls-2" d="M321.5,259a.5.5,0,0,1-.5-.5v-101a.5.5,0,0,1,1,0v101A.5.5,0,0,1,321.5,259Z"/>
    </g>
    <g>
      <path class="cls-2" d="M393.94,166.18h-.07a.5.5,0,0,1-.42-.56l2-14.71a.51.51,0,0,1,.57-.43l14.7,2.05a.5.5,0,1,1-.14,1l-14.21-2-2,14.21A.51.51,0,0,1,393.94,166.18Z"/>
      <path class="cls-2" d="M451.26,217.14h-.07l-14.71-2a.5.5,0,0,1,.14-1l14.21,2,2-14.21a.52.52,0,0,1,.57-.43.5.5,0,0,1,.42.57l-2,14.71a.5.5,0,0,1-.2.33A.54.54,0,0,1,451.26,217.14Z"/>
      <path class="cls-2" d="M451.13,217.17a.49.49,0,0,1-.38-.18l-55-65.27a.49.49,0,0,1,.06-.7.49.49,0,0,1,.7.06l55,65.27a.49.49,0,0,1-.06.7A.47.47,0,0,1,451.13,217.17Z"/>
    </g>
    <g>
      <path class="cls-2" d="M205,217.17a.51.51,0,0,1-.5-.43l-2-14.71a.5.5,0,0,1,1-.14l2,14.22,14.21-2a.51.51,0,0,1,.57.43.5.5,0,0,1-.43.56l-14.7,2Z"/>
      <path class="cls-2" d="M262.31,166.21a.51.51,0,0,1-.5-.43l-2-14.22-14.21,2a.5.5,0,0,1-.14-1l14.71-2a.51.51,0,0,1,.57.42l2,14.71a.49.49,0,0,1-.42.56Z"/>
      <path class="cls-2" d="M205.16,216.74a.47.47,0,0,1-.32-.12.49.49,0,0,1-.06-.7l55-65.27a.5.5,0,0,1,.7-.07.51.51,0,0,1,.06.71l-55,65.27A.49.49,0,0,1,205.16,216.74Z"/>
    </g>
    <g>
      <g>
        <path class="cls-2" d="M27.39,102.28H150.53a1.9,1.9,0,0,1,1.9,1.9v78.59a1.9,1.9,0,0,1-1.9,1.9H27.4a1.9,1.9,0,0,1-1.9-1.9V104.17A1.89,1.89,0,0,1,27.39,102.28Z"/>
        <path class="cls-2" d="M150.53,102.78a1.4,1.4,0,0,1,1.4,1.39v78.59a1.4,1.4,0,0,1-1.4,1.4H27.39a1.4,1.4,0,0,1-1.39-1.4V104.17a1.39,1.39,0,0,1,1.39-1.39H150.53m0-1H27.39A2.39,2.39,0,0,0,25,104.17v78.59a2.39,2.39,0,0,0,2.39,2.4H150.53a2.4,2.4,0,0,0,2.4-2.4V104.17a2.4,2.4,0,0,0-2.4-2.39Z"/>
      </g>
      <g>
        <path class="cls-1" d="M33.47,94.58H156.6a1.9,1.9,0,0,1,1.9,1.9v78.59a1.89,1.89,0,0,1-1.89,1.89H33.47a1.89,1.89,0,0,1-1.89-1.89V96.48A1.9,1.9,0,0,1,33.47,94.58Z"/>
        <path class="cls-2" d="M156.61,95.08a1.4,1.4,0,0,1,1.39,1.4v78.59a1.39,1.39,0,0,1-1.39,1.39H33.47a1.4,1.4,0,0,1-1.4-1.39V96.48a1.4,1.4,0,0,1,1.4-1.4H156.61m0-1H33.47a2.4,2.4,0,0,0-2.4,2.4v78.59a2.4,2.4,0,0,0,2.4,2.39H156.61a2.39,2.39,0,0,0,2.39-2.39V96.48a2.39,2.39,0,0,0-2.39-2.4Z"/>
      </g>
      <g>
        <rect class="cls-4" x="50.5" y="105.27" width="89" height="39"/>
        <path class="cls-2" d="M139,105.77v38H51v-38h88m1-1H50v40h90v-40Z"/>
      </g>
      <g>
        <path class="cls-5" d="M68.63,123.07H69.8v5.8h2.67v1.2H68.63Z"/>
        <path class="cls-5" d="M74.08,129.81a2.06,2.06,0,0,1-.79-.93,3,3,0,0,1-.28-1.33,3,3,0,0,1,.28-1.33,2.17,2.17,0,0,1,.79-.93,2.41,2.41,0,0,1,2.47,0,2.24,2.24,0,0,1,.79.93,3,3,0,0,1,.28,1.33,3,3,0,0,1-.28,1.33,2.13,2.13,0,0,1-.79.93,2.41,2.41,0,0,1-2.47,0Zm2.06-1.16a2.09,2.09,0,0,0,0-2.19,1,1,0,0,0-1.65,0,2.09,2.09,0,0,0,0,2.19,1,1,0,0,0,1.65,0Z"/>
        <path class="cls-5" d="M78.74,131.76a1.43,1.43,0,0,1-.57-1.23,1.37,1.37,0,0,1,.37-1,1.21,1.21,0,0,1-.24-.78,1.26,1.26,0,0,1,.15-.62,1.33,1.33,0,0,1,.41-.44,1.69,1.69,0,0,1-.32-1,1.73,1.73,0,0,1,.23-.89,1.45,1.45,0,0,1,.6-.6,1.69,1.69,0,0,1,.84-.21,1.81,1.81,0,0,1,.84.22l.85-.5.44.82-.64.36a1.88,1.88,0,0,1,.18.8,1.77,1.77,0,0,1-.23.9,1.35,1.35,0,0,1-.6.58,1.68,1.68,0,0,1-.84.2,1.83,1.83,0,0,1-.66-.11.44.44,0,0,0-.21.38.33.33,0,0,0,.11.28.46.46,0,0,0,.31.09h.93a1.68,1.68,0,0,1,1.16.39,1.38,1.38,0,0,1,.43,1.09,1.61,1.61,0,0,1-.29,1,1.74,1.74,0,0,1-.76.58,2.79,2.79,0,0,1-1,.18A2.36,2.36,0,0,1,78.74,131.76Zm2.17-.76a.5.5,0,0,0,.25-.47.43.43,0,0,0-.19-.4,1,1,0,0,0-.53-.12h-.62a2.68,2.68,0,0,1-.52,0,.9.9,0,0,0-.1.46.59.59,0,0,0,.28.54,1.64,1.64,0,0,0,1.43,0Zm-.25-3.86a.71.71,0,0,0,.17-.49.76.76,0,0,0-.17-.5.61.61,0,0,0-.9,0,.76.76,0,0,0-.17.5.71.71,0,0,0,.17.49.63.63,0,0,0,.9,0Z"/>
        <path class="cls-5" d="M83.14,124.15a.84.84,0,0,1-.2-.57.88.88,0,0,1,.2-.57.69.69,0,0,1,1,0,.84.84,0,0,1,.21.57.8.8,0,0,1-.21.57.69.69,0,0,1-1,0Zm0,.88h1.11v5H83.1Z"/>
        <path class="cls-5" d="M86.55,125v.81a2.3,2.3,0,0,1,.63-.65A1.38,1.38,0,0,1,88,125a1.34,1.34,0,0,1,1,.39,1.53,1.53,0,0,1,.38,1.13v3.6H88.24v-3.23a1,1,0,0,0-.18-.63.59.59,0,0,0-.47-.2.68.68,0,0,0-.51.24,1.64,1.64,0,0,0-.38.71,3.61,3.61,0,0,0-.15,1.1v2H85.44v-5Z"/>
        <path class="cls-5" d="M93.66,129.89a2.33,2.33,0,0,1-.76-.71,2.68,2.68,0,0,1-.4-1l1-.66a2.51,2.51,0,0,0,.45,1,1,1,0,0,0,.8.39.81.81,0,0,0,.59-.2.82.82,0,0,0,.23-.63.77.77,0,0,0-.15-.46,1.65,1.65,0,0,0-.39-.35c-.15-.1-.37-.22-.65-.38l-.26-.14a2.53,2.53,0,0,1-.86-.75,1.93,1.93,0,0,1-.33-1.17,2.18,2.18,0,0,1,.22-1,1.69,1.69,0,0,1,1.54-.92,1.78,1.78,0,0,1,1.78,1.27l-1,.67c-.15-.49-.43-.74-.83-.74a.62.62,0,0,0-.45.19.58.58,0,0,0-.19.45.75.75,0,0,0,.16.48,1.73,1.73,0,0,0,.41.35c.16.1.39.22.69.37a5.3,5.3,0,0,1,.74.47,1.86,1.86,0,0,1,.5.63,2.2,2.2,0,0,1,.19.93,2.33,2.33,0,0,1-.26,1.11,1.78,1.78,0,0,1-.71.73,2.14,2.14,0,0,1-1,.25A1.93,1.93,0,0,1,93.66,129.89Z"/>
        <path class="cls-5" d="M101.67,128H98.53a1.42,1.42,0,0,0,.36.85.94.94,0,0,0,.72.29,1,1,0,0,0,.64-.19,1.62,1.62,0,0,0,.46-.59l.9.37a2.31,2.31,0,0,1-.78,1.09,2,2,0,0,1-1.28.38,1.92,1.92,0,0,1-1.23-.38,2.37,2.37,0,0,1-.72-1,3.43,3.43,0,0,1,0-2.47,2.37,2.37,0,0,1,.72-1,1.93,1.93,0,0,1,1.23-.39,1.88,1.88,0,0,1,1.19.38,2.18,2.18,0,0,1,.7.94,3.17,3.17,0,0,1,.23,1.17Zm-1.15-1a1.38,1.38,0,0,0-.32-.69.82.82,0,0,0-.65-.27.89.89,0,0,0-.62.25,1.37,1.37,0,0,0-.37.71Z"/>
        <path class="cls-5" d="M103.79,125v.82a2,2,0,0,1,.59-.66,1.33,1.33,0,0,1,.75-.24,2,2,0,0,1,.55.1l-.21,1.15a.84.84,0,0,0-.47-.14,1,1,0,0,0-.87.54,3.2,3.2,0,0,0-.34,1.68v1.79h-1.12v-5Z"/>
        <path class="cls-5" d="M106.08,125h1.12l.92,3.51L109,125h1.12l-1.54,5h-1Z"/>
        <path class="cls-5" d="M111,124.15a.84.84,0,0,1-.2-.57.88.88,0,0,1,.2-.57.69.69,0,0,1,1,0,.84.84,0,0,1,.21.57.8.8,0,0,1-.21.57.69.69,0,0,1-1,0Zm0,.88H112v5h-1.11Z"/>
        <path class="cls-5" d="M114,129.81a2,2,0,0,1-.75-.94,3.27,3.27,0,0,1-.26-1.32,3.34,3.34,0,0,1,.26-1.32,2,2,0,0,1,.75-.93,2.06,2.06,0,0,1,1.21-.35,2.22,2.22,0,0,1,1.28.37,2.13,2.13,0,0,1,.78,1.07l-1,.45a1.57,1.57,0,0,0-.44-.62,1,1,0,0,0-.62-.21.88.88,0,0,0-.78.43,2,2,0,0,0-.27,1.11,2.06,2.06,0,0,0,.27,1.12.87.87,0,0,0,.78.42,1,1,0,0,0,.62-.21,1.5,1.5,0,0,0,.44-.62l1,.45a2.11,2.11,0,0,1-.78,1.08,2.22,2.22,0,0,1-1.28.36A2.05,2.05,0,0,1,114,129.81Z"/>
        <path class="cls-5" d="M122.28,128h-3.13a1.42,1.42,0,0,0,.36.85.94.94,0,0,0,.72.29,1,1,0,0,0,.64-.19,1.62,1.62,0,0,0,.46-.59l.9.37a2.38,2.38,0,0,1-.78,1.09,2,2,0,0,1-1.28.38,1.92,1.92,0,0,1-1.23-.38,2.21,2.21,0,0,1-.72-1,3.43,3.43,0,0,1,0-2.47,2.21,2.21,0,0,1,.72-1,1.93,1.93,0,0,1,1.23-.39,1.88,1.88,0,0,1,1.19.38,2.18,2.18,0,0,1,.7.94,3.15,3.15,0,0,1,.22,1.17Zm-1.14-1a1.38,1.38,0,0,0-.32-.69.82.82,0,0,0-.65-.27.89.89,0,0,0-.62.25,1.3,1.3,0,0,0-.37.71Z"/>
      </g>
      <g>
        <g>
          <circle class="cls-2" cx="124.22" cy="158.55" r="4.43"/>
          <path class="cls-2" d="M124.22,163.48a4.93,4.93,0,1,1,4.93-4.93A4.93,4.93,0,0,1,124.22,163.48Zm0-8.86a3.93,3.93,0,1,0,3.93,3.93A3.94,3.94,0,0,0,124.22,154.62Z"/>
        </g>
        <path class="cls-2" d="M107.5,156.77h-49a1.5,1.5,0,0,1,0-3h49a1.5,1.5,0,0,1,0,3Z"/>
        <path class="cls-2" d="M107.5,163.77h-49a1.5,1.5,0,0,1,0-3h49a1.5,1.5,0,0,1,0,3Z"/>
      </g>
    </g>
    <g>
      <g>
        <path class="cls-2" d="M483.39,102.28H606.53a1.9,1.9,0,0,1,1.9,1.9v78.59a1.9,1.9,0,0,1-1.9,1.9H483.4a1.9,1.9,0,0,1-1.9-1.9V104.17A1.89,1.89,0,0,1,483.39,102.28Z"/>
        <path class="cls-2" d="M606.53,102.78a1.4,1.4,0,0,1,1.4,1.39v78.59a1.4,1.4,0,0,1-1.4,1.4H483.39a1.4,1.4,0,0,1-1.39-1.4V104.17a1.39,1.39,0,0,1,1.39-1.39H606.53m0-1H483.39a2.39,2.39,0,0,0-2.39,2.39v78.59a2.39,2.39,0,0,0,2.39,2.4H606.53a2.4,2.4,0,0,0,2.4-2.4V104.17a2.4,2.4,0,0,0-2.4-2.39Z"/>
      </g>
      <g>
        <path class="cls-1" d="M489.47,94.58H612.6a1.9,1.9,0,0,1,1.9,1.9v78.59a1.89,1.89,0,0,1-1.89,1.89H489.47a1.89,1.89,0,0,1-1.89-1.89V96.48A1.9,1.9,0,0,1,489.47,94.58Z"/>
        <path class="cls-2" d="M612.61,95.08a1.4,1.4,0,0,1,1.39,1.4v78.59a1.39,1.39,0,0,1-1.39,1.39H489.47a1.4,1.4,0,0,1-1.4-1.39V96.48a1.4,1.4,0,0,1,1.4-1.4H612.61m0-1H489.47a2.4,2.4,0,0,0-2.4,2.4v78.59a2.4,2.4,0,0,0,2.4,2.39H612.61a2.39,2.39,0,0,0,2.39-2.39V96.48a2.39,2.39,0,0,0-2.39-2.4Z"/>
      </g>
      <g>
        <rect class="cls-4" x="506.5" y="105.27" width="89" height="39"/>
        <path class="cls-2" d="M595,105.77v38H507v-38h88m1-1H506v40h90v-40Z"/>
      </g>
      <g>
        <path class="cls-5" d="M520,122.07a1.85,1.85,0,0,1,1.47.59,2.3,2.3,0,0,1,.5,1.54,2.33,2.33,0,0,1-.5,1.55,1.84,1.84,0,0,1-1.47.58H518.8v2.74h-1.17v-7Zm.57,2.83a1,1,0,0,0,.21-.7,1,1,0,0,0-.21-.7.83.83,0,0,0-.62-.23H518.8v1.86H520A.79.79,0,0,0,520.58,124.9Z"/>
        <path class="cls-5" d="M522.83,128.75a1.74,1.74,0,0,1,.12-2.33,2,2,0,0,1,1.39-.45h.79v-.22a.67.67,0,0,0-.22-.55.89.89,0,0,0-.57-.19.77.77,0,0,0-.78.58l-.95-.24a1.62,1.62,0,0,1,.58-1,1.76,1.76,0,0,1,1.15-.39,1.82,1.82,0,0,1,1.41.54,2.24,2.24,0,0,1,.5,1.57v3h-.92l-.12-.64a1.65,1.65,0,0,1-1.39.72A1.31,1.31,0,0,1,522.83,128.75Zm2-.94a1,1,0,0,0,.3-.76V127h-.75a1,1,0,0,0-.57.16.6.6,0,0,0-.2.49.49.49,0,0,0,.14.36.48.48,0,0,0,.36.13A1,1,0,0,0,524.83,127.81Z"/>
        <path class="cls-5" d="M529.9,124H531l-2.34,7.08H527.6l.77-2.38-1.64-4.7h1.13l1,3.1Z"/>
        <path class="cls-5" d="M532.81,124v.81a2.09,2.09,0,0,1,.57-.66,1.22,1.22,0,0,1,.73-.23,1.29,1.29,0,0,1,.79.26,1.47,1.47,0,0,1,.48.78,2.13,2.13,0,0,1,.61-.76,1.29,1.29,0,0,1,.78-.28,1.26,1.26,0,0,1,1,.41,1.69,1.69,0,0,1,.36,1.14v3.57H537v-3.36c0-.46-.18-.7-.56-.7a.81.81,0,0,0-.7.54,3.42,3.42,0,0,0-.28,1.56v2h-1.11v-3.36c0-.46-.19-.7-.56-.7s-.52.19-.71.57a3.92,3.92,0,0,0-.27,1.64v1.85h-1.12v-5Z"/>
        <path class="cls-5" d="M543.42,127h-3.13a1.42,1.42,0,0,0,.35.85,1,1,0,0,0,.73.29,1,1,0,0,0,.63-.19,1.52,1.52,0,0,0,.46-.59l.91.37a2.46,2.46,0,0,1-.78,1.09,2,2,0,0,1-1.29.38,1.87,1.87,0,0,1-1.22-.38,2.21,2.21,0,0,1-.72-1,3.43,3.43,0,0,1,0-2.47,2.21,2.21,0,0,1,.72-1,2.08,2.08,0,0,1,2.41,0,2.18,2.18,0,0,1,.7.94,3.17,3.17,0,0,1,.23,1.17Zm-1.14-1a1.47,1.47,0,0,0-.32-.69.84.84,0,0,0-.66-.27.9.9,0,0,0-.62.25,1.45,1.45,0,0,0-.37.71Z"/>
        <path class="cls-5" d="M545.54,124v.81a2.27,2.27,0,0,1,.62-.65A1.41,1.41,0,0,1,547,124a1.34,1.34,0,0,1,1,.39,1.57,1.57,0,0,1,.38,1.13v3.6h-1.11v-3.23a1,1,0,0,0-.18-.63.6.6,0,0,0-.47-.2.68.68,0,0,0-.51.24,1.64,1.64,0,0,0-.38.71,3.61,3.61,0,0,0-.15,1.1v2h-1.11v-5Z"/>
        <path class="cls-5" d="M550.12,128.68a1.92,1.92,0,0,1-.45-1.39v-2.2H549V124h.7v-1.26l1.12-.78v2H552v1.06h-1.2v2.18a1,1,0,0,0,.15.64.54.54,0,0,0,.44.18.88.88,0,0,0,.44-.12l.26,1a1.62,1.62,0,0,1-.74.18A1.56,1.56,0,0,1,550.12,128.68Z"/>
        <path class="cls-5" d="M555.9,128.89a2.15,2.15,0,0,1-.76-.71,2.68,2.68,0,0,1-.4-1l1-.66a2.39,2.39,0,0,0,.45,1,1,1,0,0,0,.8.39.75.75,0,0,0,.82-.83.72.72,0,0,0-.16-.46,1.6,1.6,0,0,0-.38-.35c-.15-.1-.37-.22-.65-.38l-.26-.14a2.66,2.66,0,0,1-.87-.75,2,2,0,0,1-.32-1.17,2.05,2.05,0,0,1,.22-1,1.67,1.67,0,0,1,.62-.67,1.75,1.75,0,0,1,.91-.25,1.79,1.79,0,0,1,1.79,1.27l-.95.67c-.16-.49-.43-.74-.84-.74a.65.65,0,0,0-.45.19.61.61,0,0,0-.18.45.75.75,0,0,0,.16.48,1.55,1.55,0,0,0,.41.35,7.45,7.45,0,0,0,.69.37,5.3,5.3,0,0,1,.74.47,1.84,1.84,0,0,1,.49.63,2.06,2.06,0,0,1,.2.93,2.33,2.33,0,0,1-.26,1.11,1.75,1.75,0,0,1-.72.73,2.08,2.08,0,0,1-1,.25A1.93,1.93,0,0,1,555.9,128.89Z"/>
        <path class="cls-5" d="M563.9,127h-3.13a1.42,1.42,0,0,0,.36.85.94.94,0,0,0,.72.29,1.05,1.05,0,0,0,.64-.19,1.62,1.62,0,0,0,.46-.59l.9.37a2.46,2.46,0,0,1-.78,1.09,2,2,0,0,1-1.28.38,1.92,1.92,0,0,1-1.23-.38,2.21,2.21,0,0,1-.72-1,3.43,3.43,0,0,1,0-2.47,2.21,2.21,0,0,1,.72-1,1.93,1.93,0,0,1,1.23-.39,1.88,1.88,0,0,1,1.19.38,2.26,2.26,0,0,1,.7.94,3.15,3.15,0,0,1,.22,1.17Zm-1.14-1a1.38,1.38,0,0,0-.32-.69.83.83,0,0,0-.65-.27.89.89,0,0,0-.62.25,1.3,1.3,0,0,0-.37.71Z"/>
        <path class="cls-5" d="M566,124v.82a2,2,0,0,1,.59-.66,1.31,1.31,0,0,1,.75-.24,2,2,0,0,1,.55.1l-.21,1.15a.84.84,0,0,0-.47-.14,1,1,0,0,0-.87.54,3.2,3.2,0,0,0-.34,1.68v1.79h-1.12v-5Z"/>
        <path class="cls-5" d="M568.31,124h1.13l.92,3.51.91-3.51h1.13l-1.54,5h-1Z"/>
        <path class="cls-5" d="M573.19,123.15a.8.8,0,0,1-.21-.57.84.84,0,0,1,.21-.57.69.69,0,0,1,1,0,.88.88,0,0,1,.2.57.84.84,0,0,1-.2.57.69.69,0,0,1-1,0Zm0,.88h1.11v5h-1.11Z"/>
        <path class="cls-5" d="M576.25,128.81a2.13,2.13,0,0,1-.75-.94,3.45,3.45,0,0,1-.25-1.32,3.53,3.53,0,0,1,.25-1.32,2.16,2.16,0,0,1,.75-.93,2.1,2.1,0,0,1,1.21-.35,2.23,2.23,0,0,1,1.29.37,2.13,2.13,0,0,1,.78,1.07l-1,.45a1.67,1.67,0,0,0-.44-.62,1,1,0,0,0-.63-.21.85.85,0,0,0-.77.43,2,2,0,0,0-.27,1.11,2.06,2.06,0,0,0,.27,1.12.84.84,0,0,0,.77.42,1,1,0,0,0,.63-.21,1.59,1.59,0,0,0,.44-.62l1,.45a2.11,2.11,0,0,1-.78,1.08,2.23,2.23,0,0,1-1.29.36A2.1,2.1,0,0,1,576.25,128.81Z"/>
        <path class="cls-5" d="M584.52,127h-3.13a1.42,1.42,0,0,0,.36.85.93.93,0,0,0,.72.29,1,1,0,0,0,.63-.19,1.53,1.53,0,0,0,.47-.59l.9.37a2.46,2.46,0,0,1-.78,1.09,2,2,0,0,1-1.28.38,1.88,1.88,0,0,1-1.23-.38,2.21,2.21,0,0,1-.72-1,3.43,3.43,0,0,1,0-2.47,2.21,2.21,0,0,1,.72-1,1.89,1.89,0,0,1,1.23-.39,1.84,1.84,0,0,1,1.18.38,2.2,2.2,0,0,1,.71.94,3.15,3.15,0,0,1,.22,1.17Zm-1.14-1a1.47,1.47,0,0,0-.32-.69.83.83,0,0,0-.65-.27.89.89,0,0,0-.62.25,1.3,1.3,0,0,0-.37.71Z"/>
      </g>
      <g>
        <g>
          <circle class="cls-2" cx="580.22" cy="158.55" r="4.43"/>
          <path class="cls-2" d="M580.22,163.48a4.93,4.93,0,1,1,4.93-4.93A4.93,4.93,0,0,1,580.22,163.48Zm0-8.86a3.93,3.93,0,1,0,3.93,3.93A3.94,3.94,0,0,0,580.22,154.62Z"/>
        </g>
        <path class="cls-2" d="M563.5,156.77h-49a1.5,1.5,0,0,1,0-3h49a1.5,1.5,0,0,1,0,3Z"/>
        <path class="cls-2" d="M563.5,163.77h-49a1.5,1.5,0,0,1,0-3h49a1.5,1.5,0,0,1,0,3Z"/>
      </g>
    </g>
    <g>
      <g>
        <rect class="cls-2" x="442" y="236.66" width="126.93" height="82.38" rx="1.89"/>
        <path class="cls-2" d="M567,237.16a1.4,1.4,0,0,1,1.4,1.39v78.59a1.4,1.4,0,0,1-1.4,1.4H443.89a1.4,1.4,0,0,1-1.39-1.4V238.55a1.39,1.39,0,0,1,1.39-1.39H567m0-1H443.89a2.39,2.39,0,0,0-2.39,2.39v78.59a2.39,2.39,0,0,0,2.39,2.4H567a2.4,2.4,0,0,0,2.4-2.4V238.55a2.4,2.4,0,0,0-2.4-2.39Z"/>
      </g>
      <g>
        <path class="cls-1" d="M450,229H573.1a1.9,1.9,0,0,1,1.9,1.9v78.59a1.89,1.89,0,0,1-1.89,1.89H450a1.89,1.89,0,0,1-1.89-1.89V230.86A1.9,1.9,0,0,1,450,229Z"/>
        <path class="cls-2" d="M573.11,229.46a1.4,1.4,0,0,1,1.39,1.4v78.59a1.39,1.39,0,0,1-1.39,1.39H450a1.4,1.4,0,0,1-1.4-1.39V230.86a1.4,1.4,0,0,1,1.4-1.4H573.11m0-1H450a2.4,2.4,0,0,0-2.4,2.4v78.59a2.4,2.4,0,0,0,2.4,2.39H573.11a2.39,2.39,0,0,0,2.39-2.39V230.86a2.39,2.39,0,0,0-2.39-2.4Z"/>
      </g>
      <g>
        <rect class="cls-4" x="467" y="239.65" width="89" height="39"/>
        <path class="cls-2" d="M555.5,240.15v38h-88v-38h88m1-1h-90v40h90v-40Z"/>
      </g>
      <g>
        <path class="cls-5" d="M490.91,249.45a2.93,2.93,0,0,1,1.45.38,2.84,2.84,0,0,1,1.07,1.17,4.08,4.08,0,0,1,.41,1.95,4.12,4.12,0,0,1-.41,2,2.75,2.75,0,0,1-1.07,1.16,2.83,2.83,0,0,1-1.45.38h-2v-7Zm1.14,5.29a3,3,0,0,0,0-3.57,2.29,2.29,0,0,0-1.51-.52h-.43v4.6h.43A2.28,2.28,0,0,0,492.05,254.74Z"/>
        <path class="cls-5" d="M498.93,254.33H495.8a1.36,1.36,0,0,0,.35.85,1,1,0,0,0,.73.29,1,1,0,0,0,.63-.19,1.52,1.52,0,0,0,.46-.59l.9.37a2.37,2.37,0,0,1-.77,1.09,2.06,2.06,0,0,1-1.29.38,1.92,1.92,0,0,1-1.23-.38,2.37,2.37,0,0,1-.72-1,3.43,3.43,0,0,1,0-2.47,2.37,2.37,0,0,1,.72-1,1.93,1.93,0,0,1,1.23-.39,1.86,1.86,0,0,1,1.19.38,2.18,2.18,0,0,1,.7.94,3.17,3.17,0,0,1,.23,1.17Zm-1.14-1a1.48,1.48,0,0,0-.33-.69.8.8,0,0,0-.65-.27.9.9,0,0,0-.62.25,1.37,1.37,0,0,0-.37.71Z"/>
        <path class="cls-5" d="M499.94,249.37h1.11v7.08h-1.11Z"/>
        <path class="cls-5" d="M506.35,254.33h-3.13a1.42,1.42,0,0,0,.36.85.94.94,0,0,0,.72.29,1.05,1.05,0,0,0,.64-.19,1.62,1.62,0,0,0,.46-.59l.9.37a2.46,2.46,0,0,1-.78,1.09,2,2,0,0,1-1.28.38,1.92,1.92,0,0,1-1.23-.38,2.21,2.21,0,0,1-.72-1,3.43,3.43,0,0,1,0-2.47,2.21,2.21,0,0,1,.72-1,1.93,1.93,0,0,1,1.23-.39,1.88,1.88,0,0,1,1.19.38,2.26,2.26,0,0,1,.7.94,3.15,3.15,0,0,1,.22,1.17Zm-1.14-1a1.38,1.38,0,0,0-.32-.69.83.83,0,0,0-.65-.27.89.89,0,0,0-.62.25,1.3,1.3,0,0,0-.37.71Z"/>
        <path class="cls-5" d="M508,256.06a1.92,1.92,0,0,1-.45-1.39v-2.2h-.7v-1.06h.7v-1.26l1.12-.78v2h1.2v1.06h-1.2v2.18a1,1,0,0,0,.15.64.54.54,0,0,0,.44.18.88.88,0,0,0,.44-.12l.26,1a1.62,1.62,0,0,1-.74.18A1.56,1.56,0,0,1,508,256.06Z"/>
        <path class="cls-5" d="M514.52,254.33h-3.14a1.42,1.42,0,0,0,.36.85.94.94,0,0,0,.72.29,1,1,0,0,0,.64-.19,1.62,1.62,0,0,0,.46-.59l.9.37a2.31,2.31,0,0,1-.78,1.09,2,2,0,0,1-1.28.38,1.92,1.92,0,0,1-1.23-.38,2.37,2.37,0,0,1-.72-1,3.43,3.43,0,0,1,0-2.47,2.37,2.37,0,0,1,.72-1,1.93,1.93,0,0,1,1.23-.39,1.86,1.86,0,0,1,1.19.38,2.18,2.18,0,0,1,.7.94,3.17,3.17,0,0,1,.23,1.17Zm-1.15-1a1.38,1.38,0,0,0-.32-.69.82.82,0,0,0-.65-.27.89.89,0,0,0-.62.25,1.37,1.37,0,0,0-.37.71Z"/>
        <path class="cls-5" d="M517.85,249.45H519v7h-1.17Z"/>
        <path class="cls-5" d="M521,256.06a2,2,0,0,1-.44-1.39v-2.2h-.7v-1.06h.7v-1.26l1.11-.78v2h1.2v1.06h-1.2v2.18a1,1,0,0,0,.15.64.55.55,0,0,0,.45.18.85.85,0,0,0,.43-.12l.26,1a1.59,1.59,0,0,1-.74.18A1.56,1.56,0,0,1,521,256.06Z"/>
        <path class="cls-5" d="M527.52,254.33h-3.13a1.42,1.42,0,0,0,.35.85,1,1,0,0,0,.73.29,1,1,0,0,0,.63-.19,1.63,1.63,0,0,0,.47-.59l.9.37a2.46,2.46,0,0,1-.78,1.09,2,2,0,0,1-1.28.38,1.88,1.88,0,0,1-1.23-.38,2.21,2.21,0,0,1-.72-1,3.43,3.43,0,0,1,0-2.47,2.21,2.21,0,0,1,.72-1,1.89,1.89,0,0,1,1.23-.39,1.84,1.84,0,0,1,1.18.38,2.18,2.18,0,0,1,.7.94,3,3,0,0,1,.23,1.17Zm-1.14-1a1.47,1.47,0,0,0-.32-.69.83.83,0,0,0-.65-.27.93.93,0,0,0-.63.25,1.37,1.37,0,0,0-.36.71Z"/>
        <path class="cls-5" d="M529.64,251.41v.81a2.25,2.25,0,0,1,.58-.66,1.2,1.2,0,0,1,.73-.23,1.28,1.28,0,0,1,.78.26,1.48,1.48,0,0,1,.49.78,2,2,0,0,1,.61-.76,1.28,1.28,0,0,1,.77-.28,1.26,1.26,0,0,1,1,.41,1.7,1.7,0,0,1,.37,1.14v3.57h-1.12v-3.36c0-.46-.19-.7-.56-.7s-.52.18-.71.54a3.58,3.58,0,0,0-.27,1.56v2h-1.12v-3.36c0-.46-.18-.7-.56-.7s-.52.19-.7.57a3.9,3.9,0,0,0-.28,1.64v1.85h-1.11v-5Z"/>
        <path class="cls-5" d="M498.12,268.27a2.21,2.21,0,0,1-.75-.71,2.52,2.52,0,0,1-.4-1l.94-.66a2.52,2.52,0,0,0,.46,1,1,1,0,0,0,.79.39.84.84,0,0,0,.6-.2.82.82,0,0,0,.22-.63.77.77,0,0,0-.15-.46,1.6,1.6,0,0,0-.38-.35l-.66-.38-.26-.14a2.53,2.53,0,0,1-.86-.75,1.93,1.93,0,0,1-.33-1.17,2.18,2.18,0,0,1,.22-1,1.69,1.69,0,0,1,.63-.67,1.72,1.72,0,0,1,.91-.25,1.78,1.78,0,0,1,1.78,1.27l-.94.67c-.16-.49-.44-.74-.84-.74a.64.64,0,0,0-.45.19.58.58,0,0,0-.19.45.76.76,0,0,0,.17.48,1.51,1.51,0,0,0,.4.35c.16.1.39.22.69.37a5.3,5.3,0,0,1,.74.47,1.86,1.86,0,0,1,.5.63,2.06,2.06,0,0,1,.19.93,2.22,2.22,0,0,1-.26,1.11,1.78,1.78,0,0,1-.71.73,2.12,2.12,0,0,1-1.05.25A2,2,0,0,1,498.12,268.27Z"/>
        <path class="cls-5" d="M506.13,266.33H503a1.36,1.36,0,0,0,.35.85,1,1,0,0,0,.73.29,1,1,0,0,0,.63-.19,1.52,1.52,0,0,0,.46-.59l.9.37a2.31,2.31,0,0,1-.78,1.09,2,2,0,0,1-1.28.38,1.92,1.92,0,0,1-1.23-.38,2.37,2.37,0,0,1-.72-1,3.43,3.43,0,0,1,0-2.47,2.37,2.37,0,0,1,.72-1,1.93,1.93,0,0,1,1.23-.39,1.86,1.86,0,0,1,1.19.38,2.18,2.18,0,0,1,.7.94,3.17,3.17,0,0,1,.23,1.17Zm-1.15-1a1.46,1.46,0,0,0-.31-.69.84.84,0,0,0-.66-.27.9.9,0,0,0-.62.25,1.37,1.37,0,0,0-.37.71Z"/>
        <path class="cls-5" d="M508.25,263.41v.82a1.92,1.92,0,0,1,.6-.66,1.28,1.28,0,0,1,.74-.24,2,2,0,0,1,.55.1l-.21,1.15a.81.81,0,0,0-.46-.14,1,1,0,0,0-.88.54,3.3,3.3,0,0,0-.34,1.68v1.79h-1.12v-5Z"/>
        <path class="cls-5" d="M510.54,263.41h1.12l.92,3.51.92-3.51h1.12l-1.54,5h-1Z"/>
        <path class="cls-5" d="M515.42,262.53a.8.8,0,0,1-.21-.57.84.84,0,0,1,.21-.57.65.65,0,0,1,.51-.23.68.68,0,0,1,.51.23.84.84,0,0,1,.21.57.8.8,0,0,1-.21.57.64.64,0,0,1-.51.23A.62.62,0,0,1,515.42,262.53Zm0,.88h1.12v5h-1.12Z"/>
        <path class="cls-5" d="M518.48,268.19a2.13,2.13,0,0,1-.75-.94,3.27,3.27,0,0,1-.25-1.32,3.34,3.34,0,0,1,.25-1.32,2.16,2.16,0,0,1,.75-.93,2.08,2.08,0,0,1,1.21-.35,2.22,2.22,0,0,1,1.28.37,2.13,2.13,0,0,1,.78,1.07l-1,.45a1.66,1.66,0,0,0-.43-.62,1,1,0,0,0-.63-.21.88.88,0,0,0-.78.43,2,2,0,0,0-.26,1.11,2.07,2.07,0,0,0,.26,1.12.87.87,0,0,0,.78.42,1,1,0,0,0,.63-.21,1.58,1.58,0,0,0,.43-.62l1,.45a2.11,2.11,0,0,1-.78,1.08,2.22,2.22,0,0,1-1.28.36A2.08,2.08,0,0,1,518.48,268.19Z"/>
        <path class="cls-5" d="M526.75,266.33h-3.14a1.42,1.42,0,0,0,.36.85.94.94,0,0,0,.72.29,1,1,0,0,0,.64-.19,1.62,1.62,0,0,0,.46-.59l.9.37a2.31,2.31,0,0,1-.78,1.09,2,2,0,0,1-1.28.38,1.92,1.92,0,0,1-1.23-.38,2.37,2.37,0,0,1-.72-1,3.43,3.43,0,0,1,0-2.47,2.37,2.37,0,0,1,.72-1,1.93,1.93,0,0,1,1.23-.39,1.86,1.86,0,0,1,1.19.38,2.18,2.18,0,0,1,.7.94,3.17,3.17,0,0,1,.23,1.17Zm-1.15-1a1.38,1.38,0,0,0-.32-.69.82.82,0,0,0-.65-.27.89.89,0,0,0-.62.25,1.37,1.37,0,0,0-.37.71Z"/>
      </g>
      <g>
        <g>
          <circle class="cls-2" cx="540.72" cy="292.93" r="4.43"/>
          <path class="cls-2" d="M540.72,297.86a4.93,4.93,0,1,1,4.93-4.93A4.93,4.93,0,0,1,540.72,297.86Zm0-8.86a3.93,3.93,0,1,0,3.93,3.93A3.94,3.94,0,0,0,540.72,289Z"/>
        </g>
        <path class="cls-2" d="M524,291.15H475a1.5,1.5,0,0,1,0-3h49a1.5,1.5,0,0,1,0,3Z"/>
        <path class="cls-2" d="M524,298.15H475a1.5,1.5,0,0,1,0-3h49a1.5,1.5,0,0,1,0,3Z"/>
      </g>
    </g>
    <g>
      <g>
        <path class="cls-2" d="M256.11,289.51H379.25a1.9,1.9,0,0,1,1.9,1.9V370a1.89,1.89,0,0,1-1.89,1.89H256.11a1.89,1.89,0,0,1-1.89-1.89V291.41A1.9,1.9,0,0,1,256.11,289.51Z"/>
        <path class="cls-2" d="M379.25,290a1.4,1.4,0,0,1,1.39,1.4V370a1.39,1.39,0,0,1-1.39,1.39H256.11a1.39,1.39,0,0,1-1.39-1.39V291.41a1.4,1.4,0,0,1,1.39-1.4H379.25m0-1H256.11a2.39,2.39,0,0,0-2.39,2.4V370a2.39,2.39,0,0,0,2.39,2.39H379.25a2.39,2.39,0,0,0,2.39-2.39V291.41a2.39,2.39,0,0,0-2.39-2.4Z"/>
      </g>
      <g>
        <path class="cls-1" d="M262.19,281.81H385.32a1.9,1.9,0,0,1,1.9,1.9V362.3a1.89,1.89,0,0,1-1.89,1.89H262.19a1.9,1.9,0,0,1-1.9-1.9V283.71A1.89,1.89,0,0,1,262.19,281.81Z"/>
        <path class="cls-2" d="M385.32,282.31a1.4,1.4,0,0,1,1.4,1.4V362.3a1.4,1.4,0,0,1-1.4,1.4H262.19a1.4,1.4,0,0,1-1.4-1.4V283.71a1.4,1.4,0,0,1,1.4-1.4H385.32m0-1H262.19a2.4,2.4,0,0,0-2.4,2.4V362.3a2.4,2.4,0,0,0,2.4,2.4H385.32a2.4,2.4,0,0,0,2.4-2.4V283.71a2.4,2.4,0,0,0-2.4-2.4Z"/>
      </g>
      <g>
        <rect class="cls-4" x="279.22" y="292.5" width="89" height="39"/>
        <path class="cls-2" d="M367.72,293v38h-88V293h88m1-1h-90v40h90V292Z"/>
      </g>
      <g>
        <path class="cls-5" d="M307.92,302.31h1.17l2.14,7H310l-.46-1.65h-2l-.46,1.65h-1.26Zm1.25,4.15-.66-2.43-.67,2.43Z"/>
        <path class="cls-5" d="M312.16,308.68a3.71,3.71,0,0,1,0-3.79,1.69,1.69,0,0,1,1.46-.7,1.67,1.67,0,0,1,.71.15,1.27,1.27,0,0,1,.48.39v-2.5h1.11v7.08h-1.11v-.52a1,1,0,0,1-.43.41,1.43,1.43,0,0,1-.76.19A1.7,1.7,0,0,1,312.16,308.68Zm2.46-.76a2.37,2.37,0,0,0,0-2.27.91.91,0,0,0-1.51,0,2.3,2.3,0,0,0,0,2.27.9.9,0,0,0,1.51,0Z"/>
        <path class="cls-5" d="M317.45,308.68a3.71,3.71,0,0,1,0-3.79,1.69,1.69,0,0,1,1.46-.7,1.64,1.64,0,0,1,.71.15,1.27,1.27,0,0,1,.48.39v-2.5h1.12v7.08H320.1v-.52a1,1,0,0,1-.43.41,1.41,1.41,0,0,1-.76.19A1.7,1.7,0,0,1,317.45,308.68Zm2.46-.76a2.37,2.37,0,0,0,0-2.27.91.91,0,0,0-1.51,0,2.3,2.3,0,0,0,0,2.27.9.9,0,0,0,1.51,0Z"/>
        <path class="cls-5" d="M324.8,302.31H326v7H324.8Z"/>
        <path class="cls-5" d="M327.91,308.92a2,2,0,0,1-.44-1.39v-2.2h-.7v-1.06h.7V303l1.12-.78v2h1.19v1.06h-1.19v2.18a1,1,0,0,0,.15.63.5.5,0,0,0,.44.19.82.82,0,0,0,.43-.12l.26,1a1.58,1.58,0,0,1-.73.18A1.62,1.62,0,0,1,327.91,308.92Z"/>
        <path class="cls-5" d="M334.47,307.19h-3.13a1.48,1.48,0,0,0,.36.85,1,1,0,0,0,.72.29,1.12,1.12,0,0,0,.64-.19,1.81,1.81,0,0,0,.46-.59l.9.37a2.57,2.57,0,0,1-.78,1.09,2.07,2.07,0,0,1-1.28.38,1.93,1.93,0,0,1-1.23-.39,2.15,2.15,0,0,1-.72-1,3.44,3.44,0,0,1-.23-1.23,3.49,3.49,0,0,1,.23-1.24,2.26,2.26,0,0,1,.72-1,2,2,0,0,1,1.23-.38,1.88,1.88,0,0,1,1.19.37,2.29,2.29,0,0,1,.7.95,3.15,3.15,0,0,1,.22,1.17Zm-1.14-1a1.38,1.38,0,0,0-.32-.69.83.83,0,0,0-.65-.27.88.88,0,0,0-.62.24,1.34,1.34,0,0,0-.37.72Z"/>
        <path class="cls-5" d="M336.6,304.27v.81a2,2,0,0,1,.57-.67,1.21,1.21,0,0,1,.73-.22,1.23,1.23,0,0,1,.79.26,1.4,1.4,0,0,1,.48.78,2.17,2.17,0,0,1,.61-.77,1.27,1.27,0,0,1,.78-.27,1.23,1.23,0,0,1,1,.41,1.66,1.66,0,0,1,.36,1.14v3.57h-1.12V306c0-.47-.18-.7-.56-.7a.81.81,0,0,0-.7.54,3.42,3.42,0,0,0-.28,1.56v2h-1.11V306c0-.47-.19-.7-.56-.7s-.53.19-.71.56a4,4,0,0,0-.27,1.65v1.85h-1.12v-5Z"/>
        <path class="cls-5" d="M310.34,321.13a2.45,2.45,0,0,1-.76-.71,2.68,2.68,0,0,1-.4-1l.95-.66a2.57,2.57,0,0,0,.45,1,1,1,0,0,0,.8.39A.82.82,0,0,0,312,320a.79.79,0,0,0,.23-.62.73.73,0,0,0-.15-.46,1.46,1.46,0,0,0-.39-.35c-.15-.1-.37-.23-.65-.38l-.26-.14a2.45,2.45,0,0,1-.86-.76,1.92,1.92,0,0,1-.33-1.16,2,2,0,0,1,.22-1,1.77,1.77,0,0,1,.62-.68,1.88,1.88,0,0,1,2.7,1l-1,.67c-.15-.5-.43-.74-.83-.74a.61.61,0,0,0-.45.18.62.62,0,0,0-.19.46.71.71,0,0,0,.16.47,1.53,1.53,0,0,0,.41.35c.16.1.39.22.69.38a4.51,4.51,0,0,1,.74.47,1.78,1.78,0,0,1,.49.62,2.07,2.07,0,0,1,.2.94,2.26,2.26,0,0,1-.26,1.1,1.78,1.78,0,0,1-.71.73,2.15,2.15,0,0,1-1,.26A2,2,0,0,1,310.34,321.13Z"/>
        <path class="cls-5" d="M318.35,319.19h-3.14a1.48,1.48,0,0,0,.36.85,1,1,0,0,0,.72.29,1.08,1.08,0,0,0,.64-.19,1.81,1.81,0,0,0,.46-.59l.9.37a2.42,2.42,0,0,1-.78,1.09,2.07,2.07,0,0,1-1.28.38A1.93,1.93,0,0,1,315,321a2.22,2.22,0,0,1-.72-1,3.44,3.44,0,0,1-.23-1.23,3.49,3.49,0,0,1,.23-1.24,2.34,2.34,0,0,1,.72-1,2,2,0,0,1,1.23-.38,1.88,1.88,0,0,1,1.19.37,2.21,2.21,0,0,1,.7.95,3.17,3.17,0,0,1,.23,1.17Zm-1.15-1a1.38,1.38,0,0,0-.32-.69.82.82,0,0,0-.65-.27.88.88,0,0,0-.62.24,1.41,1.41,0,0,0-.37.72Z"/>
        <path class="cls-5" d="M320.47,316.27v.82a1.94,1.94,0,0,1,.59-.67,1.4,1.4,0,0,1,.75-.23,1.65,1.65,0,0,1,.55.1l-.21,1.15a.77.77,0,0,0-.47-.14,1,1,0,0,0-.87.53,3.22,3.22,0,0,0-.34,1.69v1.79h-1.12v-5Z"/>
        <path class="cls-5" d="M322.76,316.27h1.12l.92,3.51.92-3.51h1.12l-1.54,5h-1Z"/>
        <path class="cls-5" d="M327.63,315.39a.88.88,0,0,1-.2-.57.84.84,0,0,1,.2-.57.69.69,0,0,1,1,0,.8.8,0,0,1,.21.57.84.84,0,0,1-.21.57.69.69,0,0,1-1,0Zm0,.88h1.11v5h-1.11Z"/>
        <path class="cls-5" d="M330.7,321a2,2,0,0,1-.75-.93,3.34,3.34,0,0,1-.26-1.32,3.27,3.27,0,0,1,.26-1.32,2,2,0,0,1,.75-.94,2.05,2.05,0,0,1,1.21-.34,2.22,2.22,0,0,1,1.28.36,2.16,2.16,0,0,1,.78,1.08l-1,.45a1.5,1.5,0,0,0-.44-.62,1,1,0,0,0-.62-.21.87.87,0,0,0-.78.42,2.09,2.09,0,0,0-.27,1.12,2,2,0,0,0,.27,1.11.86.86,0,0,0,.78.43,1,1,0,0,0,.62-.21,1.57,1.57,0,0,0,.44-.62l1,.45a2.05,2.05,0,0,1-2.06,1.44A2.06,2.06,0,0,1,330.7,321Z"/>
        <path class="cls-5" d="M339,319.19h-3.13a1.48,1.48,0,0,0,.36.85,1,1,0,0,0,.72.29,1.1,1.1,0,0,0,.64-.19,1.81,1.81,0,0,0,.46-.59l.9.37a2.57,2.57,0,0,1-.78,1.09,2.07,2.07,0,0,1-1.28.38,1.93,1.93,0,0,1-1.23-.39,2.15,2.15,0,0,1-.72-1,3.44,3.44,0,0,1-.23-1.23,3.49,3.49,0,0,1,.23-1.24,2.26,2.26,0,0,1,.72-1,2,2,0,0,1,1.23-.38,1.88,1.88,0,0,1,1.19.37,2.21,2.21,0,0,1,.7.95,3.15,3.15,0,0,1,.22,1.17Zm-1.14-1a1.38,1.38,0,0,0-.32-.69.83.83,0,0,0-.65-.27.88.88,0,0,0-.62.24,1.34,1.34,0,0,0-.37.72Z"/>
      </g>
      <g>
        <g>
          <circle class="cls-2" cx="352.94" cy="345.79" r="4.43"/>
          <path class="cls-2" d="M352.94,350.72a4.93,4.93,0,1,1,4.93-4.93A4.94,4.94,0,0,1,352.94,350.72Zm0-8.86a3.93,3.93,0,1,0,3.93,3.93A3.93,3.93,0,0,0,352.94,341.86Z"/>
        </g>
        <path class="cls-2" d="M336.22,344h-49a1.5,1.5,0,0,1,0-3h49a1.5,1.5,0,0,1,0,3Z"/>
        <path class="cls-2" d="M336.22,351h-49a1.5,1.5,0,0,1,0-3h49a1.5,1.5,0,0,1,0,3Z"/>
      </g>
    </g>
    <g>
      <g>
        <path class="cls-2" d="M75.39,236.66H198.53a1.89,1.89,0,0,1,1.89,1.89v78.59a1.9,1.9,0,0,1-1.9,1.9H75.39a1.89,1.89,0,0,1-1.89-1.89V238.55A1.89,1.89,0,0,1,75.39,236.66Z"/>
        <path class="cls-2" d="M198.53,237.16a1.4,1.4,0,0,1,1.4,1.39v78.59a1.4,1.4,0,0,1-1.4,1.4H75.39a1.4,1.4,0,0,1-1.39-1.4V238.55a1.39,1.39,0,0,1,1.39-1.39H198.53m0-1H75.39A2.39,2.39,0,0,0,73,238.55v78.59a2.39,2.39,0,0,0,2.39,2.4H198.53a2.4,2.4,0,0,0,2.4-2.4V238.55a2.4,2.4,0,0,0-2.4-2.39Z"/>
      </g>
      <g>
        <path class="cls-1" d="M81.47,229H204.6a1.9,1.9,0,0,1,1.9,1.9v78.59a1.89,1.89,0,0,1-1.89,1.89H81.47a1.89,1.89,0,0,1-1.89-1.89V230.86A1.9,1.9,0,0,1,81.47,229Z"/>
        <path class="cls-2" d="M204.61,229.46a1.4,1.4,0,0,1,1.39,1.4v78.59a1.39,1.39,0,0,1-1.39,1.39H81.47a1.4,1.4,0,0,1-1.4-1.39V230.86a1.4,1.4,0,0,1,1.4-1.4H204.61m0-1H81.47a2.4,2.4,0,0,0-2.4,2.4v78.59a2.4,2.4,0,0,0,2.4,2.39H204.61a2.39,2.39,0,0,0,2.39-2.39V230.86a2.39,2.39,0,0,0-2.39-2.4Z"/>
      </g>
      <g>
        <rect class="cls-4" x="98.5" y="239.65" width="89" height="39"/>
        <path class="cls-2" d="M187,240.15v38H99v-38h88m1-1H98v40h90v-40Z"/>
      </g>
      <g>
        <path class="cls-5" d="M114.41,263.27a2.24,2.24,0,0,1-.76-.71,2.68,2.68,0,0,1-.4-1l1-.66a2.39,2.39,0,0,0,.45,1,1,1,0,0,0,.8.39.75.75,0,0,0,.82-.83.78.78,0,0,0-.16-.46,1.6,1.6,0,0,0-.38-.35c-.15-.1-.37-.22-.65-.38l-.26-.14a2.66,2.66,0,0,1-.87-.75,2,2,0,0,1-.32-1.17,2.05,2.05,0,0,1,.22-1,1.67,1.67,0,0,1,.62-.67,1.75,1.75,0,0,1,.91-.25,1.79,1.79,0,0,1,1.79,1.27l-1,.67c-.15-.49-.43-.74-.84-.74a.65.65,0,0,0-.45.19.61.61,0,0,0-.18.45.75.75,0,0,0,.16.48,1.55,1.55,0,0,0,.41.35c.16.1.39.22.69.37a5.3,5.3,0,0,1,.74.47,1.84,1.84,0,0,1,.49.63,2.06,2.06,0,0,1,.2.93,2.33,2.33,0,0,1-.26,1.11,1.75,1.75,0,0,1-.72.73,2.08,2.08,0,0,1-1,.25A1.93,1.93,0,0,1,114.41,263.27Z"/>
        <path class="cls-5" d="M122.41,261.33h-3.13a1.42,1.42,0,0,0,.36.85.94.94,0,0,0,.72.29,1.05,1.05,0,0,0,.64-.19,1.62,1.62,0,0,0,.46-.59l.9.37a2.46,2.46,0,0,1-.78,1.09,2,2,0,0,1-1.28.38,1.92,1.92,0,0,1-1.23-.38,2.21,2.21,0,0,1-.72-1,3.43,3.43,0,0,1,0-2.47,2.21,2.21,0,0,1,.72-1,1.93,1.93,0,0,1,1.23-.39,1.88,1.88,0,0,1,1.19.38,2.26,2.26,0,0,1,.7.94,3.15,3.15,0,0,1,.22,1.17Zm-1.14-1a1.38,1.38,0,0,0-.32-.69.83.83,0,0,0-.65-.27.89.89,0,0,0-.62.25,1.3,1.3,0,0,0-.37.71Z"/>
        <path class="cls-5" d="M123.54,263.13a1.74,1.74,0,0,1,.12-2.33,2.06,2.06,0,0,1,1.39-.45h.79v-.22a.67.67,0,0,0-.22-.55.89.89,0,0,0-.57-.19.77.77,0,0,0-.78.58l-1-.24a1.62,1.62,0,0,1,.58-1,1.76,1.76,0,0,1,1.15-.39,1.82,1.82,0,0,1,1.41.54,2.24,2.24,0,0,1,.5,1.57v3H126l-.12-.64a1.65,1.65,0,0,1-1.39.72A1.31,1.31,0,0,1,123.54,263.13Zm2-.94a1,1,0,0,0,.3-.76v-.1h-.74a1,1,0,0,0-.58.16.6.6,0,0,0-.2.49.49.49,0,0,0,.14.36.51.51,0,0,0,.37.13A1,1,0,0,0,125.54,262.19Z"/>
        <path class="cls-5" d="M129.21,258.41v.82a2,2,0,0,1,.59-.66,1.33,1.33,0,0,1,.75-.24,2,2,0,0,1,.55.1l-.21,1.15a.84.84,0,0,0-.47-.14,1,1,0,0,0-.87.54,3.2,3.2,0,0,0-.34,1.68v1.79h-1.12v-5Z"/>
        <path class="cls-5" d="M132.39,263.19a2.13,2.13,0,0,1-.75-.94,3.27,3.27,0,0,1-.25-1.32,3.34,3.34,0,0,1,.25-1.32,2.16,2.16,0,0,1,.75-.93,2.08,2.08,0,0,1,1.21-.35,2.22,2.22,0,0,1,1.28.37,2.13,2.13,0,0,1,.78,1.07l-1,.45a1.66,1.66,0,0,0-.43-.62,1,1,0,0,0-.63-.21.88.88,0,0,0-.78.43,2,2,0,0,0-.26,1.11,2.07,2.07,0,0,0,.26,1.12.87.87,0,0,0,.78.42,1,1,0,0,0,.63-.21,1.58,1.58,0,0,0,.43-.62l1,.45a2.11,2.11,0,0,1-.78,1.08,2.22,2.22,0,0,1-1.28.36A2.08,2.08,0,0,1,132.39,263.19Z"/>
        <path class="cls-5" d="M137.68,256.37v2.85a1.84,1.84,0,0,1,.6-.64,1.49,1.49,0,0,1,.84-.25,1.37,1.37,0,0,1,1,.39,1.56,1.56,0,0,1,.38,1.13v3.6h-1.12v-3.16a1.16,1.16,0,0,0-.16-.68.61.61,0,0,0-.51-.22.76.76,0,0,0-.51.21,1.44,1.44,0,0,0-.4.64,3.35,3.35,0,0,0-.15,1.08v2.13h-1.12v-7.08Z"/>
        <path class="cls-5" d="M144.84,263.27a2.15,2.15,0,0,1-.76-.71,2.68,2.68,0,0,1-.4-1l.94-.66a2.52,2.52,0,0,0,.46,1,1,1,0,0,0,.8.39.75.75,0,0,0,.82-.83.78.78,0,0,0-.16-.46,1.6,1.6,0,0,0-.38-.35c-.15-.1-.37-.22-.65-.38l-.26-.14a2.66,2.66,0,0,1-.87-.75,2,2,0,0,1-.32-1.17,2.05,2.05,0,0,1,.22-1,1.67,1.67,0,0,1,.62-.67,1.75,1.75,0,0,1,.91-.25,1.79,1.79,0,0,1,1.79,1.27l-.95.67c-.16-.49-.44-.74-.84-.74a.65.65,0,0,0-.45.19.62.62,0,0,0-.19.45.76.76,0,0,0,.17.48,1.55,1.55,0,0,0,.41.35,7,7,0,0,0,.68.37,4.9,4.9,0,0,1,.75.47,1.84,1.84,0,0,1,.49.63,2.06,2.06,0,0,1,.2.93,2.33,2.33,0,0,1-.26,1.11,1.75,1.75,0,0,1-.72.73,2.08,2.08,0,0,1-1,.25A1.93,1.93,0,0,1,144.84,263.27Z"/>
        <path class="cls-5" d="M152.84,261.33h-3.13a1.42,1.42,0,0,0,.36.85.93.93,0,0,0,.72.29,1,1,0,0,0,.63-.19,1.53,1.53,0,0,0,.47-.59l.9.37a2.46,2.46,0,0,1-.78,1.09,2,2,0,0,1-1.28.38,1.9,1.9,0,0,1-1.23-.38,2.21,2.21,0,0,1-.72-1,3.43,3.43,0,0,1,0-2.47,2.21,2.21,0,0,1,.72-1,1.91,1.91,0,0,1,1.23-.39,1.88,1.88,0,0,1,1.19.38,2.26,2.26,0,0,1,.7.94,3.15,3.15,0,0,1,.22,1.17Zm-1.14-1a1.47,1.47,0,0,0-.32-.69.83.83,0,0,0-.65-.27.89.89,0,0,0-.62.25,1.3,1.3,0,0,0-.37.71Z"/>
        <path class="cls-5" d="M155,258.41v.82a2,2,0,0,1,.59-.66,1.29,1.29,0,0,1,.75-.24,2,2,0,0,1,.55.1l-.21,1.15a.86.86,0,0,0-.47-.14,1,1,0,0,0-.87.54,3.2,3.2,0,0,0-.34,1.68v1.79h-1.12v-5Z"/>
        <path class="cls-5" d="M157.25,258.41h1.13l.91,3.51.92-3.51h1.13l-1.54,5h-1Z"/>
        <path class="cls-5" d="M162.13,257.53a.8.8,0,0,1-.21-.57.84.84,0,0,1,.21-.57.69.69,0,0,1,1,0,.88.88,0,0,1,.2.57.84.84,0,0,1-.2.57.69.69,0,0,1-1,0Zm0,.88h1.12v5h-1.12Z"/>
        <path class="cls-5" d="M165.19,263.19a2.13,2.13,0,0,1-.75-.94,3.27,3.27,0,0,1-.25-1.32,3.34,3.34,0,0,1,.25-1.32,2.16,2.16,0,0,1,.75-.93,2.1,2.1,0,0,1,1.21-.35,2.23,2.23,0,0,1,1.29.37,2.06,2.06,0,0,1,.77,1.07l-1,.45a1.67,1.67,0,0,0-.44-.62,1,1,0,0,0-.63-.21.85.85,0,0,0-.77.43,2,2,0,0,0-.27,1.11,2.06,2.06,0,0,0,.27,1.12.84.84,0,0,0,.77.42,1,1,0,0,0,.63-.21,1.59,1.59,0,0,0,.44-.62l1,.45a2,2,0,0,1-.77,1.08,2.23,2.23,0,0,1-1.29.36A2.1,2.1,0,0,1,165.19,263.19Z"/>
        <path class="cls-5" d="M173.46,261.33h-3.13a1.48,1.48,0,0,0,.35.85,1,1,0,0,0,.73.29,1,1,0,0,0,.63-.19,1.63,1.63,0,0,0,.47-.59l.9.37a2.46,2.46,0,0,1-.78,1.09,2,2,0,0,1-1.28.38,1.88,1.88,0,0,1-1.23-.38,2.21,2.21,0,0,1-.72-1,3.43,3.43,0,0,1,0-2.47,2.21,2.21,0,0,1,.72-1,1.89,1.89,0,0,1,1.23-.39,1.85,1.85,0,0,1,1.18.38,2.2,2.2,0,0,1,.71.94,3.37,3.37,0,0,1,.22,1.17Zm-1.14-1a1.47,1.47,0,0,0-.32-.69.83.83,0,0,0-.65-.27.93.93,0,0,0-.63.25,1.37,1.37,0,0,0-.36.71Z"/>
      </g>
      <g>
        <g>
          <circle class="cls-2" cx="172.22" cy="292.93" r="4.43"/>
          <path class="cls-2" d="M172.22,297.86a4.93,4.93,0,1,1,4.93-4.93A4.93,4.93,0,0,1,172.22,297.86Zm0-8.86a3.93,3.93,0,1,0,3.93,3.93A3.94,3.94,0,0,0,172.22,289Z"/>
        </g>
        <path class="cls-2" d="M155.5,291.15h-49a1.5,1.5,0,0,1,0-3h49a1.5,1.5,0,0,1,0,3Z"/>
        <path class="cls-2" d="M155.5,298.15h-49a1.5,1.5,0,0,1,0-3h49a1.5,1.5,0,0,1,0,3Z"/>
      </g>
    </g>
    <g>
      <path class="cls-2" d="M174.62,125.72a.5.5,0,0,1-.14-1l80-22.66a.49.49,0,0,1,.61.34.49.49,0,0,1-.34.62l-80,22.66Z"/>
      <path class="cls-2" d="M186.88,133.5a.48.48,0,0,1-.26-.07l-12.73-7.65a.44.44,0,0,1-.23-.3.5.5,0,0,1,.06-.38l7.64-12.73a.5.5,0,0,1,.86.51l-7.39,12.3,12.3,7.39a.49.49,0,0,1,.17.69A.5.5,0,0,1,186.88,133.5Z"/>
      <path class="cls-2" d="M248.55,116.17a.54.54,0,0,1-.22,0,.51.51,0,0,1-.23-.67l6.4-12.85-12.84-6.4a.5.5,0,0,1-.23-.67.49.49,0,0,1,.67-.22l13.29,6.62a.5.5,0,0,1,.23.67L249,115.89A.5.5,0,0,1,248.55,116.17Z"/>
    </g>
  </g>
</svg>
