<svg xmlns="http://www.w3.org/2000/svg" viewBox="0 0 640 835">
  <defs>
    <style>
      .cls-1 {
        fill: #fff3ff;
      }

      .cls-2 {
        fill: #10162f;
      }

      .cls-3 {
        fill: #3a10e3;
      }

      .cls-4 {
        fill: #fff;
      }

      .cls-5 {
        fill: #1557ff;
      }

      .cls-6 {
        fill: #66c2ff;
      }

      .cls-7 {
        fill: #fff5ff;
      }
    </style>
  </defs>
  <g id="BGs">
    <g>
      <rect class="cls-1" x="0.5" y="0.5" width="639" height="834"/>
      <path class="cls-2" d="M639,1V834H1V1H639m1-1H0V835H640V0Z"/>
    </g>
  </g>
  <g id="Layer_1" data-name="Layer 1">
    <g>
      <g>
        <path class="cls-2" d="M302.85,287.5a1.5,1.5,0,0,1-1.5-1.5V240.48a1.5,1.5,0,0,1,3,0V286A1.5,1.5,0,0,1,302.85,287.5Z"/>
        <path class="cls-2" d="M313.44,252.48a1.48,1.48,0,0,1-1.05-.43l-9.54-9.46-9.54,9.46a1.5,1.5,0,1,1-2.12-2.13l10.6-10.5a1.48,1.48,0,0,1,2.11,0l10.6,10.5a1.51,1.51,0,0,1,0,2.12A1.53,1.53,0,0,1,313.44,252.48Z"/>
      </g>
      <g>
        <path class="cls-2" d="M337.15,287.5a1.5,1.5,0,0,1-1.5-1.5V240.48a1.5,1.5,0,0,1,3,0V286A1.5,1.5,0,0,1,337.15,287.5Z"/>
        <path class="cls-2" d="M337.15,287.5a1.48,1.48,0,0,1-1-.43l-10.6-10.5a1.51,1.51,0,1,1,2.12-2.14l9.53,9.46,9.54-9.46a1.51,1.51,0,0,1,2.12,2.14l-10.6,10.5A1.48,1.48,0,0,1,337.15,287.5Z"/>
      </g>
    </g>
    <g>
      <path class="cls-2" d="M301.35,206.13a6,6,0,0,1-1.55-4.51v-9.55h2.86v9.6c0,2.22,1,3.34,2.89,3.34s2.88-1.12,2.88-3.34v-9.6h2.86v9.55a6,6,0,0,1-1.55,4.51,6.55,6.55,0,0,1-8.39,0Z"/>
      <path class="cls-2" d="M315.15,206.77a4.17,4.17,0,0,1-1.53-2.11l2.18-1.17a3,3,0,0,0,.87,1.34,1.92,1.92,0,0,0,1.33.49,1.44,1.44,0,0,0,.9-.28.92.92,0,0,0,.37-.8,1,1,0,0,0-.57-.87,10.07,10.07,0,0,0-1.71-.8,5.21,5.21,0,0,1-1.95-1.28,3.07,3.07,0,0,1-.24-3.54,3.21,3.21,0,0,1,1.24-1.12,3.79,3.79,0,0,1,1.8-.42,4.51,4.51,0,0,1,2.05.47,3.47,3.47,0,0,1,1.43,1.33l-1.63,1.5a2,2,0,0,0-1.78-1,1.29,1.29,0,0,0-.76.23.74.74,0,0,0-.32.61.94.94,0,0,0,.46.73,7.71,7.71,0,0,0,1.81.83,5,5,0,0,1,2,1.21,2.68,2.68,0,0,1,.7,1.91,3.39,3.39,0,0,1-1.05,2.61,3.89,3.89,0,0,1-2.73,1A4.58,4.58,0,0,1,315.15,206.77Z"/>
      <path class="cls-2" d="M333.68,202.81H326a3,3,0,0,0,.87,1.87,2.49,2.49,0,0,0,1.77.64,2.74,2.74,0,0,0,1.55-.42,3.78,3.78,0,0,0,1.13-1.3l2.2.82a5,5,0,0,1-5,3.23,5,5,0,0,1-3-.85,5,5,0,0,1-1.76-2.15,6.89,6.89,0,0,1,0-5.44,5,5,0,0,1,1.76-2.15,5,5,0,0,1,3-.85,4.92,4.92,0,0,1,2.91.82,5,5,0,0,1,1.71,2.08,6.33,6.33,0,0,1,.55,2.58Zm-2.79-2.16a3,3,0,0,0-.78-1.52,2.16,2.16,0,0,0-1.6-.59,2.26,2.26,0,0,0-1.51.54,2.93,2.93,0,0,0-.91,1.57Z"/>
      <path class="cls-2" d="M338.88,196.38v1.81a4.22,4.22,0,0,1,1.45-1.46,3.42,3.42,0,0,1,1.82-.52,4.62,4.62,0,0,1,1.35.22L343,199a2.13,2.13,0,0,0-1.15-.31,2.52,2.52,0,0,0-2.13,1.18,6.46,6.46,0,0,0-.83,3.71v3.93h-2.73V196.38Z"/>
    </g>
    <g>
      <path class="cls-2" d="M203.74,771.07H207l3.63,9.62,3.63-9.62h3.21v15.4h-2.86V777l-2.95,8.09h-2.07L206.6,777v9.5h-2.86Z"/>
      <path class="cls-2" d="M222.72,785.9a5,5,0,0,1-1.94-2,6.65,6.65,0,0,1,0-5.86,5,5,0,0,1,1.94-2,6.44,6.44,0,0,1,6,0,5,5,0,0,1,1.95,2,6.74,6.74,0,0,1,0,5.86,5,5,0,0,1-1.95,2,6.44,6.44,0,0,1-6,0Zm5-2.56a4.25,4.25,0,0,0,0-4.82,2.58,2.58,0,0,0-4,0,4.25,4.25,0,0,0,0,4.82,2.58,2.58,0,0,0,4,0Z"/>
      <path class="cls-2" d="M236.56,775.38v1.79a5,5,0,0,1,1.52-1.43,3.87,3.87,0,0,1,4.39.33,3.21,3.21,0,0,1,.93,2.48v7.92h-2.73v-7.1a2,2,0,0,0-.42-1.39,1.58,1.58,0,0,0-1.16-.44,1.82,1.82,0,0,0-1.25.53,3.68,3.68,0,0,0-.93,1.55,7.6,7.6,0,0,0-.35,2.43v4.42h-2.73V775.38Z"/>
      <path class="cls-2" d="M248.48,785.9a5,5,0,0,1-1.94-2,6.74,6.74,0,0,1,0-5.86,5,5,0,0,1,1.94-2,6.44,6.44,0,0,1,6,0,5,5,0,0,1,1.95,2,6.74,6.74,0,0,1,0,5.86,5,5,0,0,1-1.95,2,6.44,6.44,0,0,1-6,0Zm5-2.56a4.25,4.25,0,0,0,0-4.82,2.58,2.58,0,0,0-4.05,0,4.29,4.29,0,0,0,0,4.82,2.58,2.58,0,0,0,4.05,0Z"/>
      <path class="cls-2" d="M259.59,770.9h2.73v15.57h-2.73Z"/>
      <path class="cls-2" d="M265.51,773.45a1.8,1.8,0,1,1,1.26.51A1.7,1.7,0,0,1,265.51,773.45Zm-.11,1.93h2.73v11.09H265.4Z"/>
      <path class="cls-2" d="M272.66,785.62a4,4,0,0,1-1.08-3.06v-4.84h-1.71v-2.34h1.71v-2.77l2.73-1.71v4.48h2.93v2.34h-2.93v4.79a2.12,2.12,0,0,0,.36,1.4,1.41,1.41,0,0,0,1.09.41,2.23,2.23,0,0,0,1.06-.27l.64,2.2a4.64,4.64,0,0,1-4.8-.63Z"/>
      <path class="cls-2" d="M281.84,770.9v6.27a4.14,4.14,0,0,1,1.46-1.42,4,4,0,0,1,2.06-.54,3.59,3.59,0,0,1,2.53.85,3.22,3.22,0,0,1,.92,2.49v7.92h-2.73v-7a2.23,2.23,0,0,0-.41-1.49,1.5,1.5,0,0,0-1.24-.49,2,2,0,0,0-1.25.46,3.24,3.24,0,0,0-1,1.41,6.5,6.5,0,0,0-.37,2.38v4.68h-2.73V770.9Z"/>
      <path class="cls-2" d="M291.91,773.45a1.8,1.8,0,1,1,1.26.51A1.7,1.7,0,0,1,291.91,773.45Zm-.11,1.93h2.73v11.09H291.8Z"/>
      <path class="cls-2" d="M299.4,785.89a4.8,4.8,0,0,1-1.83-2.06,7.09,7.09,0,0,1,0-5.8A4.75,4.75,0,0,1,299.4,776a5.48,5.48,0,0,1,3-.76,5.88,5.88,0,0,1,3.14.8,4.81,4.81,0,0,1,1.9,2.37l-2.44,1a3.72,3.72,0,0,0-1.07-1.37,2.57,2.57,0,0,0-1.53-.46,2.16,2.16,0,0,0-1.9.94,4.94,4.94,0,0,0,0,4.9,2.16,2.16,0,0,0,1.9.94,2.57,2.57,0,0,0,1.53-.46,3.72,3.72,0,0,0,1.07-1.37l2.44,1a4.81,4.81,0,0,1-1.9,2.37,5.88,5.88,0,0,1-3.14.8A5.48,5.48,0,0,1,299.4,785.89Z"/>
      <path class="cls-2" d="M319.08,771.07h2.86l5.21,15.4h-3.07L323,782.84h-4.88L317,786.47h-3.08Zm3.06,9.13-1.63-5.34-1.63,5.34Z"/>
      <path class="cls-2" d="M331.64,775.38v1.15a2.56,2.56,0,0,1,1-.9,3.36,3.36,0,0,1,1.69-.42,4.67,4.67,0,0,1,3.75,1.55,7.29,7.29,0,0,1,0,8.34,4.67,4.67,0,0,1-3.75,1.55,3.71,3.71,0,0,1-1.57-.35,3.16,3.16,0,0,1-1.12-.84V791h-2.73V775.38Zm4.16,8a4.63,4.63,0,0,0,0-5,2.29,2.29,0,0,0-1.85-.89,2.24,2.24,0,0,0-1.83.89,4.7,4.7,0,0,0,0,5,2.24,2.24,0,0,0,1.83.89A2.27,2.27,0,0,0,335.8,783.42Z"/>
      <path class="cls-2" d="M344.58,775.38v1.15a2.49,2.49,0,0,1,1-.9,3.33,3.33,0,0,1,1.68-.42,4.64,4.64,0,0,1,3.75,1.55,7.29,7.29,0,0,1,0,8.34,4.64,4.64,0,0,1-3.75,1.55,3.7,3.7,0,0,1-1.56-.35,3.07,3.07,0,0,1-1.12-.84V791h-2.73V775.38Zm4.16,8a4.68,4.68,0,0,0,0-5,2.3,2.3,0,0,0-1.85-.89,2.27,2.27,0,0,0-1.84.89,4.76,4.76,0,0,0,0,5,2.35,2.35,0,0,0,3.69,0Z"/>
      <path class="cls-2" d="M354.79,770.9h2.72v15.57h-2.72Z"/>
      <path class="cls-2" d="M360.7,773.45a1.83,1.83,0,0,1,0-2.51,1.7,1.7,0,0,1,1.26-.5,1.68,1.68,0,0,1,1.25.5,1.8,1.8,0,0,1,0,2.51A1.69,1.69,0,0,1,362,774,1.71,1.71,0,0,1,360.7,773.45Zm-.11,1.93h2.73v11.09h-2.73Z"/>
      <path class="cls-2" d="M368.19,785.89a4.8,4.8,0,0,1-1.83-2.06,7.09,7.09,0,0,1,0-5.8,4.75,4.75,0,0,1,1.83-2.06,5.48,5.48,0,0,1,3-.76,5.86,5.86,0,0,1,3.14.8,4.75,4.75,0,0,1,1.9,2.37l-2.44,1a3.62,3.62,0,0,0-1.07-1.37,2.57,2.57,0,0,0-1.53-.46,2.16,2.16,0,0,0-1.9.94,4.94,4.94,0,0,0,0,4.9,2.16,2.16,0,0,0,1.9.94,2.57,2.57,0,0,0,1.53-.46,3.62,3.62,0,0,0,1.07-1.37l2.44,1a4.75,4.75,0,0,1-1.9,2.37,5.86,5.86,0,0,1-3.14.8A5.48,5.48,0,0,1,368.19,785.89Z"/>
      <path class="cls-2" d="M378.68,785.77a3.25,3.25,0,0,1-.95-2.49,3.19,3.19,0,0,1,1.26-2.64,5.29,5.29,0,0,1,3.38-1h1.94v-.48a1.41,1.41,0,0,0-.55-1.22,2.29,2.29,0,0,0-1.39-.41,1.87,1.87,0,0,0-1.91,1.28l-2.31-.53a3.5,3.5,0,0,1,1.42-2.23,4.56,4.56,0,0,1,2.8-.85,4.77,4.77,0,0,1,3.45,1.18,4.6,4.6,0,0,1,1.22,3.46v6.62h-2.25l-.28-1.41a4.19,4.19,0,0,1-3.41,1.59A3.4,3.4,0,0,1,378.68,785.77Zm4.88-2.08a2.06,2.06,0,0,0,.75-1.66v-.22h-1.83a2.4,2.4,0,0,0-1.39.35,1.25,1.25,0,0,0-.5,1.08,1,1,0,0,0,.34.78,1.31,1.31,0,0,0,.89.3A2.62,2.62,0,0,0,383.56,783.69Z"/>
      <path class="cls-2" d="M391.35,785.62a4,4,0,0,1-1.08-3.06v-4.84h-1.71v-2.34h1.71v-2.77L393,770.9v4.48h2.93v2.34H393v4.79a2.12,2.12,0,0,0,.36,1.4,1.4,1.4,0,0,0,1.09.41,2.23,2.23,0,0,0,1.06-.27l.64,2.2a4.64,4.64,0,0,1-4.8-.63Z"/>
      <path class="cls-2" d="M398.15,773.45a1.8,1.8,0,0,1,0-2.51,1.67,1.67,0,0,1,1.25-.5,1.7,1.7,0,0,1,1.26.5,1.83,1.83,0,0,1,0,2.51,1.71,1.71,0,0,1-1.26.51A1.67,1.67,0,0,1,398.15,773.45Zm-.11,1.93h2.72v11.09H398Z"/>
      <path class="cls-2" d="M405.8,785.9a5,5,0,0,1-1.94-2,6.74,6.74,0,0,1,0-5.86,5,5,0,0,1,1.94-2,6.44,6.44,0,0,1,6,0,5,5,0,0,1,1.95,2,6.74,6.74,0,0,1,0,5.86,5,5,0,0,1-1.95,2,6.44,6.44,0,0,1-6,0Zm5-2.56a4.25,4.25,0,0,0,0-4.82,2.58,2.58,0,0,0-4,0,4.29,4.29,0,0,0,0,4.82,2.58,2.58,0,0,0,4,0Z"/>
      <path class="cls-2" d="M419.64,775.38v1.79a5,5,0,0,1,1.52-1.43,3.87,3.87,0,0,1,4.39.33,3.21,3.21,0,0,1,.93,2.48v7.92h-2.73v-7.1a2,2,0,0,0-.42-1.39,1.56,1.56,0,0,0-1.16-.44,1.82,1.82,0,0,0-1.25.53,3.78,3.78,0,0,0-.93,1.55,7.6,7.6,0,0,0-.35,2.43v4.42h-2.73V775.38Z"/>
    </g>
    <g>
      <path class="cls-2" d="M154.32,332.52h328a1.9,1.9,0,0,1,1.9,1.9v397a1.89,1.89,0,0,1-1.89,1.89h-328a1.89,1.89,0,0,1-1.89-1.89v-397A1.9,1.9,0,0,1,154.32,332.52Z"/>
      <path class="cls-2" d="M482.36,333a1.4,1.4,0,0,1,1.4,1.4v397a1.4,1.4,0,0,1-1.4,1.4h-328a1.4,1.4,0,0,1-1.4-1.4v-397a1.4,1.4,0,0,1,1.4-1.4h328m0-1h-328a2.4,2.4,0,0,0-2.4,2.4v397a2.41,2.41,0,0,0,2.4,2.4h328a2.4,2.4,0,0,0,2.4-2.4v-397a2.39,2.39,0,0,0-2.4-2.4Z"/>
    </g>
    <g>
      <path class="cls-1" d="M164,322H492a1.89,1.89,0,0,1,1.89,1.89v397a1.89,1.89,0,0,1-1.89,1.89H164a1.89,1.89,0,0,1-1.89-1.89v-397A1.9,1.9,0,0,1,164,322Z"/>
      <path class="cls-2" d="M492,322.5a1.4,1.4,0,0,1,1.4,1.39v397a1.4,1.4,0,0,1-1.4,1.39H164a1.4,1.4,0,0,1-1.4-1.39v-397a1.4,1.4,0,0,1,1.4-1.39H492m0-1H164a2.39,2.39,0,0,0-2.4,2.39v397a2.39,2.39,0,0,0,2.4,2.39H492a2.39,2.39,0,0,0,2.4-2.39v-397a2.39,2.39,0,0,0-2.4-2.39Z"/>
    </g>
    <g>
      <g>
        <rect class="cls-3" x="193.5" y="342" width="269" height="79"/>
        <path class="cls-2" d="M462,342.5v78H194v-78H462m1-1H193v80H463v-80Z"/>
      </g>
      <g>
        <path class="cls-4" d="M280.18,374.41a4,4,0,0,1,3.23,1.28,5.76,5.76,0,0,1,0,6.8,4,4,0,0,1-3.23,1.29h-2.65v6H275v-15.4Zm1.25,6.22a2.71,2.71,0,0,0,0-3.08,1.78,1.78,0,0,0-1.35-.5h-2.55v4.09h2.55A1.75,1.75,0,0,0,281.43,380.63Z"/>
        <path class="cls-4" d="M288.68,378.72v1.8a4.22,4.22,0,0,1,1.3-1.46,3,3,0,0,1,1.65-.52,4,4,0,0,1,1.21.22l-.46,2.53a1.83,1.83,0,0,0-1-.3,2.22,2.22,0,0,0-1.92,1.17,7.1,7.1,0,0,0-.75,3.71v3.94h-2.46V378.72Z"/>
        <path class="cls-4" d="M302.91,385.14H296a3.17,3.17,0,0,0,.79,1.87,2.09,2.09,0,0,0,1.59.64,2.3,2.3,0,0,0,1.4-.42,3.65,3.65,0,0,0,1-1.29l2,.81a5.38,5.38,0,0,1-1.71,2.4,4.5,4.5,0,0,1-2.82.83,4.27,4.27,0,0,1-2.7-.84A5,5,0,0,1,294,387a7.62,7.62,0,0,1,0-5.43,5,5,0,0,1,1.59-2.16,4.27,4.27,0,0,1,2.7-.85,4.1,4.1,0,0,1,2.61.83,4.86,4.86,0,0,1,1.55,2.08,6.9,6.9,0,0,1,.49,2.57ZM300.4,383a3.15,3.15,0,0,0-.7-1.52,1.81,1.81,0,0,0-1.44-.59,1.94,1.94,0,0,0-1.37.54,3,3,0,0,0-.81,1.57Z"/>
        <path class="cls-4" d="M305.58,389.1A4.14,4.14,0,0,1,304.2,387l2-1.16a3.35,3.35,0,0,0,.78,1.34,1.69,1.69,0,0,0,1.2.48,1.24,1.24,0,0,0,.81-.27,1,1,0,0,0,.34-.81,1,1,0,0,0-.52-.86,8.35,8.35,0,0,0-1.54-.81,4.67,4.67,0,0,1-1.75-1.27,3.05,3.05,0,0,1-.63-2,3.09,3.09,0,0,1,.41-1.57,3,3,0,0,1,1.12-1.12,3.13,3.13,0,0,1,1.62-.42,3.58,3.58,0,0,1,1.84.48,3.18,3.18,0,0,1,1.29,1.33l-1.46,1.49a1.82,1.82,0,0,0-1.61-1,1,1,0,0,0-.68.23.73.73,0,0,0-.29.6,1,1,0,0,0,.42.74,6.63,6.63,0,0,0,1.62.82,4.52,4.52,0,0,1,1.8,1.21,2.84,2.84,0,0,1,.64,1.92,3.59,3.59,0,0,1-.95,2.6,3.27,3.27,0,0,1-2.46,1A3.83,3.83,0,0,1,305.58,389.1Z"/>
        <path class="cls-4" d="M322.26,385.14h-6.89a3.11,3.11,0,0,0,.78,1.87,2.13,2.13,0,0,0,1.59.64,2.28,2.28,0,0,0,1.4-.42,3.56,3.56,0,0,0,1-1.29l2,.81a5.46,5.46,0,0,1-1.71,2.4,4.54,4.54,0,0,1-2.82.83,4.27,4.27,0,0,1-2.71-.84,5,5,0,0,1-1.58-2.16,7.48,7.48,0,0,1,0-5.43,5,5,0,0,1,1.58-2.16,4.28,4.28,0,0,1,2.71-.85,4.1,4.1,0,0,1,2.61.83,4.84,4.84,0,0,1,1.54,2.08,6.91,6.91,0,0,1,.5,2.57ZM319.74,383a3.15,3.15,0,0,0-.7-1.52,1.8,1.8,0,0,0-1.43-.59,1.93,1.93,0,0,0-1.37.54,3,3,0,0,0-.81,1.57Z"/>
        <path class="cls-4" d="M326.93,378.72v1.78a4.7,4.7,0,0,1,1.37-1.43,3.06,3.06,0,0,1,1.72-.53,3,3,0,0,1,2.23.86,3.41,3.41,0,0,1,.84,2.49v7.92h-2.46V382.7a2.09,2.09,0,0,0-.38-1.38,1.3,1.3,0,0,0-1-.44,1.55,1.55,0,0,0-1.13.52,3.87,3.87,0,0,0-.83,1.56,8.27,8.27,0,0,0-.32,2.43v4.42h-2.45V378.72Z"/>
        <path class="cls-4" d="M337,389a4.31,4.31,0,0,1-1-3.06v-4.84h-1.55v-2.33H336V376l2.45-1.72v4.49h2.64v2.33h-2.64v4.8a2.23,2.23,0,0,0,.33,1.39,1.17,1.17,0,0,0,1,.41,1.91,1.91,0,0,0,1-.26l.58,2.2a3.59,3.59,0,0,1-1.63.39A3.5,3.5,0,0,1,337,389Z"/>
        <path class="cls-4" d="M343.17,389.1a3.39,3.39,0,0,1-.85-2.48,3.34,3.34,0,0,1,1.12-2.64,4.48,4.48,0,0,1,3.05-1h1.75v-.49a1.49,1.49,0,0,0-.5-1.22,1.89,1.89,0,0,0-1.25-.4,1.68,1.68,0,0,0-1.72,1.27l-2.08-.53a3.59,3.59,0,0,1,1.28-2.23,3.88,3.88,0,0,1,2.52-.85,4,4,0,0,1,3.1,1.18,4.93,4.93,0,0,1,1.1,3.47v6.62h-2l-.26-1.41a3.62,3.62,0,0,1-3.07,1.58A2.86,2.86,0,0,1,343.17,389.1Zm4.39-2.08a2.15,2.15,0,0,0,.68-1.66v-.22h-1.65a2,2,0,0,0-1.26.36,1.29,1.29,0,0,0-.44,1.07,1,1,0,0,0,.31.78,1.09,1.09,0,0,0,.8.3A2.22,2.22,0,0,0,347.56,387Z"/>
        <path class="cls-4" d="M354.57,389a4.31,4.31,0,0,1-1-3.06v-4.84h-1.54v-2.33h1.54V376l2.46-1.72v4.49h2.63v2.33h-2.63v4.8a2.31,2.31,0,0,0,.32,1.39,1.17,1.17,0,0,0,1,.41,1.91,1.91,0,0,0,.95-.26l.58,2.2a3.59,3.59,0,0,1-1.63.39A3.52,3.52,0,0,1,354.57,389Z"/>
        <path class="cls-4" d="M360.69,376.78a1.93,1.93,0,0,1,0-2.5,1.45,1.45,0,0,1,1.13-.51,1.46,1.46,0,0,1,1.13.51,2,2,0,0,1,0,2.5,1.46,1.46,0,0,1-1.13.51A1.45,1.45,0,0,1,360.69,376.78Zm-.1,1.94h2.46v11.09h-2.46Z"/>
        <path class="cls-4" d="M367.58,389.24a4.74,4.74,0,0,1-1.75-2.05,7.32,7.32,0,0,1,0-5.85,4.74,4.74,0,0,1,1.75-2,5.29,5.29,0,0,1,5.43,0,4.81,4.81,0,0,1,1.75,2,7.43,7.43,0,0,1,0,5.85,4.81,4.81,0,0,1-1.75,2.05,5.35,5.35,0,0,1-5.43,0Zm4.53-2.57a4.13,4.13,0,0,0,.68-2.41,4.17,4.17,0,0,0-.68-2.41,2.08,2.08,0,0,0-1.82-1,2.11,2.11,0,0,0-1.82,1,4.17,4.17,0,0,0-.67,2.41,4.12,4.12,0,0,0,.67,2.41,2.09,2.09,0,0,0,1.82,1A2.07,2.07,0,0,0,372.11,386.67Z"/>
        <path class="cls-4" d="M380,378.72v1.78a4.82,4.82,0,0,1,1.37-1.43,3.06,3.06,0,0,1,1.72-.53,3,3,0,0,1,2.23.86,3.41,3.41,0,0,1,.84,2.49v7.92h-2.45V382.7a2,2,0,0,0-.39-1.38,1.29,1.29,0,0,0-1-.44,1.56,1.56,0,0,0-1.13.52,3.87,3.87,0,0,0-.83,1.56,8.27,8.27,0,0,0-.32,2.43v4.42h-2.45V378.72Z"/>
      </g>
    </g>
    <g>
      <g>
        <rect class="cls-5" x="193.5" y="438" width="269" height="79"/>
        <path class="cls-2" d="M462,438.5v78H194v-78H462m1-1H193v80H463v-80Z"/>
      </g>
      <g>
        <path class="cls-4" d="M305.5,470.41h2.57v12.76H314v2.64H305.5Z"/>
        <path class="cls-4" d="M317.5,485.24a4.83,4.83,0,0,1-1.76-2.05,7.43,7.43,0,0,1,0-5.85,5.06,5.06,0,0,1,7.18-2,4.74,4.74,0,0,1,1.75,2,7.32,7.32,0,0,1,0,5.85,4.74,4.74,0,0,1-1.75,2.05,5.33,5.33,0,0,1-5.42,0Zm4.53-2.57a4.12,4.12,0,0,0,.67-2.41,4.17,4.17,0,0,0-.67-2.41,2.19,2.19,0,0,0-3.64,0,4.17,4.17,0,0,0-.68,2.41,4.13,4.13,0,0,0,.68,2.41,2.18,2.18,0,0,0,3.64,0Z"/>
        <path class="cls-4" d="M327.74,489.53a3.2,3.2,0,0,1-1.25-2.71,3,3,0,0,1,.81-2.2,2.73,2.73,0,0,1-.52-1.72,2.77,2.77,0,0,1,.33-1.36,2.7,2.7,0,0,1,.9-1,3.77,3.77,0,0,1-.69-2.29,4,4,0,0,1,.48-2,3.33,3.33,0,0,1,1.33-1.3,3.79,3.79,0,0,1,3.69,0l1.88-1.1,1,1.8-1.42.79a3.86,3.86,0,0,1,.39,1.76,3.91,3.91,0,0,1-.48,2,3.24,3.24,0,0,1-1.33,1.29A4,4,0,0,1,331,482a4.35,4.35,0,0,1-1.44-.24.94.94,0,0,0-.48.83.76.76,0,0,0,.24.61,1,1,0,0,0,.69.21h2a3.7,3.7,0,0,1,2.55.84,3,3,0,0,1,.95,2.41,3.48,3.48,0,0,1-.64,2.16,3.81,3.81,0,0,1-1.67,1.26,5.84,5.84,0,0,1-2.22.41A5.3,5.3,0,0,1,327.74,489.53Zm4.77-1.68a1.1,1.1,0,0,0,.57-1,1,1,0,0,0-.42-.89,2.27,2.27,0,0,0-1.19-.25h-1.34a6.31,6.31,0,0,1-1.15-.09,1.94,1.94,0,0,0-.22,1,1.35,1.35,0,0,0,.62,1.18,2.9,2.9,0,0,0,1.62.4A3,3,0,0,0,332.51,487.85Zm-.55-8.49a1.52,1.52,0,0,0,.39-1.08,1.6,1.6,0,0,0-.39-1.11,1.33,1.33,0,0,0-2,0,1.6,1.6,0,0,0-.39,1.11,1.52,1.52,0,0,0,.39,1.08,1.35,1.35,0,0,0,2,0Z"/>
        <path class="cls-4" d="M337.43,472.78a2,2,0,0,1,0-2.5,1.46,1.46,0,0,1,1.13-.51,1.45,1.45,0,0,1,1.13.51,1.93,1.93,0,0,1,0,2.5,1.45,1.45,0,0,1-1.13.51A1.46,1.46,0,0,1,337.43,472.78Zm-.09,1.94h2.45v11.09h-2.45Z"/>
        <path class="cls-4" d="M344.18,485.22a4.61,4.61,0,0,1-1.66-2.05,7.95,7.95,0,0,1,0-5.81,4.48,4.48,0,0,1,4.32-2.82,4.79,4.79,0,0,1,2.82.81,4.65,4.65,0,0,1,1.71,2.36l-2.19,1a3.73,3.73,0,0,0-1-1.36,2.11,2.11,0,0,0-1.38-.46,1.9,1.9,0,0,0-1.71.93,5.4,5.4,0,0,0,0,4.91,1.9,1.9,0,0,0,1.71.93,2.11,2.11,0,0,0,1.38-.46,3.73,3.73,0,0,0,1-1.36l2.19,1a4.65,4.65,0,0,1-1.71,2.36,4.78,4.78,0,0,1-2.82.8A4.53,4.53,0,0,1,344.18,485.22Z"/>
      </g>
    </g>
    <g>
      <g>
        <rect class="cls-6" x="193.5" y="534" width="269" height="79"/>
        <path class="cls-2" d="M462,534.5v78H194v-78H462m1-1H193v80H463v-80Z"/>
      </g>
      <g>
        <path class="cls-2" d="M313.93,566.41a7.75,7.75,0,0,1,3.54.83,6.49,6.49,0,0,1,2.63,2.57,9.74,9.74,0,0,1,0,8.6,6.46,6.46,0,0,1-2.63,2.56,7.63,7.63,0,0,1-3.54.84h-4.82v-15.4ZM316.71,578c1-.75,1.49-2.06,1.49-3.92s-.5-3.17-1.49-3.93a5.94,5.94,0,0,0-3.69-1.13h-1v10.12h1A5.88,5.88,0,0,0,316.71,578Z"/>
        <path class="cls-2" d="M324,581.1a3.56,3.56,0,0,1,.31-5.12,5.34,5.34,0,0,1,3.39-1h1.94v-.49a1.44,1.44,0,0,0-.55-1.22,2.29,2.29,0,0,0-1.39-.4,1.86,1.86,0,0,0-1.91,1.27l-2.31-.53a3.49,3.49,0,0,1,1.42-2.23,4.63,4.63,0,0,1,2.8-.85,4.77,4.77,0,0,1,3.44,1.18,4.59,4.59,0,0,1,1.22,3.47v6.62h-2.24l-.29-1.41a4.17,4.17,0,0,1-3.41,1.58A3.42,3.42,0,0,1,324,581.1Zm4.89-2.08a2,2,0,0,0,.75-1.66v-.22h-1.83a2.36,2.36,0,0,0-1.4.36,1.21,1.21,0,0,0-.49,1.07,1,1,0,0,0,.34.78,1.3,1.3,0,0,0,.89.3A2.62,2.62,0,0,0,328.91,579Z"/>
        <path class="cls-2" d="M336.7,581a4,4,0,0,1-1.08-3.06v-4.84H333.9v-2.33h1.72V568l2.73-1.72v4.49h2.92v2.33h-2.92v4.8a2.09,2.09,0,0,0,.36,1.39,1.35,1.35,0,0,0,1.09.41,2.27,2.27,0,0,0,1.05-.26l.64,2.2a4.29,4.29,0,0,1-1.8.39A4.13,4.13,0,0,1,336.7,581Z"/>
        <path class="cls-2" d="M343.56,581.1a3.54,3.54,0,0,1,.31-5.12,5.32,5.32,0,0,1,3.39-1h1.93v-.49a1.41,1.41,0,0,0-.55-1.22,2.26,2.26,0,0,0-1.38-.4,1.87,1.87,0,0,0-1.92,1.27l-2.31-.53a3.53,3.53,0,0,1,1.42-2.23,4.66,4.66,0,0,1,2.81-.85,4.77,4.77,0,0,1,3.44,1.18,4.62,4.62,0,0,1,1.22,3.47v6.62h-2.24l-.29-1.41A4.17,4.17,0,0,1,346,582,3.4,3.4,0,0,1,343.56,581.1Zm4.88-2.08a2,2,0,0,0,.75-1.66v-.22h-1.82a2.36,2.36,0,0,0-1.4.36,1.22,1.22,0,0,0-.5,1.07,1,1,0,0,0,.35.78,1.28,1.28,0,0,0,.89.3A2.58,2.58,0,0,0,348.44,579Z"/>
      </g>
    </g>
    <g>
      <g>
        <rect class="cls-7" x="225.37" y="43" width="146.05" height="90.03" rx="0.74"/>
        <path class="cls-2" d="M370.67,43.5a.25.25,0,0,1,.25.24v88.55a.25.25,0,0,1-.25.24H226.11a.24.24,0,0,1-.24-.24V43.74a.24.24,0,0,1,.24-.24H370.67m0-1H226.11a1.24,1.24,0,0,0-1.24,1.24v88.55a1.24,1.24,0,0,0,1.24,1.24H370.67a1.25,1.25,0,0,0,1.25-1.24V43.74a1.25,1.25,0,0,0-1.25-1.24Z"/>
      </g>
      <g>
        <path class="cls-2" d="M406.18,171.17H270.67a15,15,0,0,1-9.75-3.6L227.49,137.9c-1.05-.91-3.5-1.75-1.75-5.25l146.18,2.63L408,166.13A2.86,2.86,0,0,1,406.18,171.17Z"/>
        <path class="cls-2" d="M406.18,171.67H270.67A15.54,15.54,0,0,1,260.6,168l-33.44-29.67c-.15-.13-.34-.26-.54-.4-1.12-.8-3-2.12-1.32-5.45l.14-.28h.31l146.35,2.63.14.12,36.12,30.85a3.36,3.36,0,0,1-2.18,5.92ZM226.06,133.16c-1.06,2.34.06,3.13,1.14,3.9a6.68,6.68,0,0,1,.62.47l33.43,29.66a14.52,14.52,0,0,0,9.42,3.48H406.18a2.37,2.37,0,0,0,1.53-4.16l-36-30.73Z"/>
      </g>
      <g>
        <path class="cls-7" d="M272.42,167.16a14.51,14.51,0,0,1-9.42-3.47l-36.78-31.41H371.73l36,30.73a2.36,2.36,0,0,1-1.53,4.15Z"/>
        <path class="cls-2" d="M371.55,132.78l35.83,30.61a1.85,1.85,0,0,1-1.2,3.27H272.42a14.06,14.06,0,0,1-9.1-3.35l-35.74-30.53h144m.37-1h-147l37.8,32.29a15,15,0,0,0,9.75,3.59H406.18a2.86,2.86,0,0,0,1.85-5l-36.11-30.85Z"/>
      </g>
      <g>
        <rect class="cls-7" x="233.37" y="49.53" width="130.05" height="76.96"/>
        <path class="cls-2" d="M362.92,50v76h-129V50H362.92m1-1h-131v78H363.92V49Z"/>
      </g>
      <g>
        <path class="cls-7" d="M259.5,146.51a13.34,13.34,0,0,1-5.39-1.62l-.12-.06-9.84-7.23-.08,0a1,1,0,0,1-.22-.09,1.22,1.22,0,0,1,.68-.16H367a1.5,1.5,0,0,1,.37,0l8.87,8.18.11,0,.27.11a3.4,3.4,0,0,1-1.5.27Z"/>
        <path class="cls-2" d="M367,137.83h.14l8.25,7.62h-.27L259.5,146a12.5,12.5,0,0,1-5.18-1.57l-.08,0-9-6.57H367m0-1H244.53c-1.25,0-1.7.89-.61,1.23l9.81,7.2c.34.15,3.38,1.75,5.77,1.75l115.66-.55c2,0,2.87-.89,1.38-1.35l-8.88-8.19a2.06,2.06,0,0,0-.62-.09Z"/>
      </g>
      <g>
        <path class="cls-7" d="M314.14,161.75a6.59,6.59,0,0,1-4.47-1.78l-5.48-5.05a2.84,2.84,0,0,1-.85-3,2.27,2.27,0,0,1,2.27-1.27h37.05a3.55,3.55,0,0,1,2.41,1l5.74,5.28a2.9,2.9,0,0,1,.69,3.19,2.45,2.45,0,0,1-2.31,1.66Z"/>
        <path class="cls-2" d="M342.66,151.16a3,3,0,0,1,2.07.83l5.74,5.28a2.4,2.4,0,0,1,.56,2.64,2,2,0,0,1-1.84,1.34H314.14a6.1,6.1,0,0,1-4.13-1.64l-5.45-5a2.37,2.37,0,0,1-.76-2.46,1.79,1.79,0,0,1,1.81-1h37.05m0-1H305.61c-3,0-3.85,3-1.76,5.13l5.48,5.05a7.1,7.1,0,0,0,4.81,1.91h35.05c2.8,0,4.08-3.75,2-5.71l-5.74-5.29a4.07,4.07,0,0,0-2.75-1.09Z"/>
      </g>
    </g>
    <g>
      <g>
        <rect class="cls-1" x="234.5" y="637" width="185" height="31"/>
        <path class="cls-2" d="M419,637.5v30H235v-30H419m1-1H234v32H420v-32Z"/>
      </g>
      <g>
        <circle class="cls-2" cx="365.2" cy="653" r="6"/>
        <path class="cls-2" d="M365.2,659.5a6.5,6.5,0,1,1,6.5-6.5A6.51,6.51,0,0,1,365.2,659.5Zm0-12a5.5,5.5,0,1,0,5.5,5.5A5.51,5.51,0,0,0,365.2,647.5Z"/>
      </g>
      <g>
        <circle class="cls-2" cx="392.8" cy="653" r="6"/>
        <path class="cls-2" d="M392.8,659.5a6.5,6.5,0,1,1,6.5-6.5A6.51,6.51,0,0,1,392.8,659.5Zm0-12a5.5,5.5,0,1,0,5.5,5.5A5.51,5.51,0,0,0,392.8,647.5Z"/>
      </g>
      <path class="cls-2" d="M322,654.5H252.5a1.5,1.5,0,0,1,0-3H322a1.5,1.5,0,0,1,0,3Z"/>
    </g>
    <g>
      <g>
        <rect class="cls-1" x="234.5" y="668" width="185" height="31"/>
        <path class="cls-2" d="M419,668.5v30H235v-30H419m1-1H234v32H420v-32Z"/>
      </g>
      <g>
        <circle class="cls-2" cx="365.2" cy="684" r="6"/>
        <path class="cls-2" d="M365.2,690.5a6.5,6.5,0,1,1,6.5-6.5A6.51,6.51,0,0,1,365.2,690.5Zm0-12a5.5,5.5,0,1,0,5.5,5.5A5.51,5.51,0,0,0,365.2,678.5Z"/>
      </g>
      <g>
        <circle class="cls-2" cx="392.8" cy="684" r="6"/>
        <path class="cls-2" d="M392.8,690.5a6.5,6.5,0,1,1,6.5-6.5A6.51,6.51,0,0,1,392.8,690.5Zm0-12a5.5,5.5,0,1,0,5.5,5.5A5.51,5.51,0,0,0,392.8,678.5Z"/>
      </g>
      <path class="cls-2" d="M322,685.5H252.5a1.5,1.5,0,0,1,0-3H322a1.5,1.5,0,0,1,0,3Z"/>
    </g>
  </g>
</svg>
