<svg xmlns="http://www.w3.org/2000/svg" viewBox="0 0 640 1080">
  <defs>
    <style>
      .cls-1 {
        fill: #fff3ff;
      }

      .cls-2 {
        fill: #10162f;
      }

      .cls-3 {
        fill: #f666ff;
      }

      .cls-4 {
        fill: #3a10e3;
      }

      .cls-5 {
        fill: #fff;
      }

      .cls-6 {
        fill: #fff5ff;
      }

      .cls-7 {
        fill: #1557ff;
      }

      .cls-8 {
        fill: #66c2ff;
      }
    </style>
  </defs>
  <g id="BGs">
    <g>
      <rect class="cls-1" x="0.2" y="0.5" width="639.59" height="1079"/>
      <path class="cls-2" d="M639.3,1V1079H.7V1H639.3m1-1H-.3V1080H640.3V0Z"/>
    </g>
  </g>
  <g id="Layer_1" data-name="Layer 1">
    <g>
      <path class="cls-2" d="M336.5,479a1.5,1.5,0,0,1-1.5-1.5v-25a1.5,1.5,0,0,1,3,0v25A1.5,1.5,0,0,1,336.5,479Z"/>
      <path class="cls-2" d="M336.5,479a1.51,1.51,0,0,1-1.06-.44l-10.5-10.5a1.5,1.5,0,0,1,2.12-2.12l9.44,9.44,9.44-9.44a1.5,1.5,0,0,1,2.12,2.12l-10.5,10.5A1.51,1.51,0,0,1,336.5,479Z"/>
    </g>
    <g>
      <path class="cls-2" d="M302.5,479a1.5,1.5,0,0,1-1.5-1.5v-25a1.5,1.5,0,0,1,3,0v25A1.5,1.5,0,0,1,302.5,479Z"/>
      <path class="cls-2" d="M313,464.5a1.51,1.51,0,0,1-1.06-.44l-9.44-9.44-9.44,9.44a1.5,1.5,0,0,1-2.12-2.12l10.5-10.5a1.49,1.49,0,0,1,2.12,0l10.5,10.5a1.49,1.49,0,0,1,0,2.12A1.51,1.51,0,0,1,313,464.5Z"/>
    </g>
    <g>
      <path class="cls-2" d="M336.5,249a1.5,1.5,0,0,1-1.5-1.5v-25a1.5,1.5,0,0,1,3,0v25A1.5,1.5,0,0,1,336.5,249Z"/>
      <path class="cls-2" d="M336.5,249a1.51,1.51,0,0,1-1.06-.44l-10.5-10.5a1.5,1.5,0,0,1,2.12-2.12l9.44,9.44,9.44-9.44a1.5,1.5,0,0,1,2.12,2.12l-10.5,10.5A1.51,1.51,0,0,1,336.5,249Z"/>
    </g>
    <g>
      <path class="cls-2" d="M302.5,249a1.5,1.5,0,0,1-1.5-1.5v-25a1.5,1.5,0,0,1,3,0v25A1.5,1.5,0,0,1,302.5,249Z"/>
      <path class="cls-2" d="M313,234.5a1.51,1.51,0,0,1-1.06-.44l-9.44-9.44-9.44,9.44a1.5,1.5,0,0,1-2.12-2.12l10.5-10.5a1.49,1.49,0,0,1,2.12,0l10.5,10.5a1.49,1.49,0,0,1,0,2.12A1.51,1.51,0,0,1,313,234.5Z"/>
    </g>
    <g>
      <g>
        <path class="cls-2" d="M336.5,700a1.5,1.5,0,0,1-1.5-1.5v-25a1.5,1.5,0,0,1,3,0v25A1.5,1.5,0,0,1,336.5,700Z"/>
        <path class="cls-2" d="M336.5,700a1.51,1.51,0,0,1-1.06-.44l-10.5-10.5a1.5,1.5,0,0,1,2.12-2.12l9.44,9.44,9.44-9.44a1.5,1.5,0,0,1,2.12,2.12l-10.5,10.5A1.51,1.51,0,0,1,336.5,700Z"/>
      </g>
      <g>
        <path class="cls-2" d="M302.5,700a1.5,1.5,0,0,1-1.5-1.5v-25a1.5,1.5,0,0,1,3,0v25A1.5,1.5,0,0,1,302.5,700Z"/>
        <path class="cls-2" d="M313,685.5a1.51,1.51,0,0,1-1.06-.44l-9.44-9.44-9.44,9.44a1.5,1.5,0,0,1-2.12-2.12l10.5-10.5a1.49,1.49,0,0,1,2.12,0l10.5,10.5a1.49,1.49,0,0,1,0,2.12A1.51,1.51,0,0,1,313,685.5Z"/>
      </g>
    </g>
    <g>
      <g>
        <path class="cls-2" d="M336.5,921a1.5,1.5,0,0,1-1.5-1.5v-25a1.5,1.5,0,0,1,3,0v25A1.5,1.5,0,0,1,336.5,921Z"/>
        <path class="cls-2" d="M336.5,921a1.51,1.51,0,0,1-1.06-.44l-10.5-10.5a1.5,1.5,0,0,1,2.12-2.12l9.44,9.44,9.44-9.44a1.5,1.5,0,0,1,2.12,2.12l-10.5,10.5A1.51,1.51,0,0,1,336.5,921Z"/>
      </g>
      <g>
        <path class="cls-2" d="M302.5,921a1.5,1.5,0,0,1-1.5-1.5v-25a1.5,1.5,0,0,1,3,0v25A1.5,1.5,0,0,1,302.5,921Z"/>
        <path class="cls-2" d="M313,906.5a1.51,1.51,0,0,1-1.06-.44l-9.44-9.44-9.44,9.44a1.5,1.5,0,0,1-2.12-2.12l10.5-10.5a1.49,1.49,0,0,1,2.12,0l10.5,10.5a1.49,1.49,0,0,1,0,2.12A1.51,1.51,0,0,1,313,906.5Z"/>
      </g>
    </g>
    <g>
      <path class="cls-2" d="M299.35,199.63a6,6,0,0,1-1.55-4.51v-9.55h2.86v9.6q0,3.35,2.89,3.34t2.88-3.34v-9.6h2.86v9.55a6,6,0,0,1-1.55,4.51,6.55,6.55,0,0,1-8.39,0Z"/>
      <path class="cls-2" d="M313.15,200.27a4.17,4.17,0,0,1-1.53-2.11L313.8,197a3,3,0,0,0,.87,1.34,1.92,1.92,0,0,0,1.33.49,1.44,1.44,0,0,0,.9-.28.92.92,0,0,0,.37-.8,1,1,0,0,0-.57-.87,10.07,10.07,0,0,0-1.71-.8,5.09,5.09,0,0,1-1.95-1.28,3.07,3.07,0,0,1-.24-3.54,3.21,3.21,0,0,1,1.24-1.12,3.79,3.79,0,0,1,1.8-.42,4.51,4.51,0,0,1,2.05.47,3.53,3.53,0,0,1,1.43,1.33l-1.63,1.5a2,2,0,0,0-1.78-1,1.29,1.29,0,0,0-.76.23.74.74,0,0,0-.32.61.94.94,0,0,0,.46.73,7.71,7.71,0,0,0,1.81.83,5,5,0,0,1,2,1.21,2.68,2.68,0,0,1,.7,1.91,3.39,3.39,0,0,1-1.05,2.61,3.89,3.89,0,0,1-2.73,1A4.58,4.58,0,0,1,313.15,200.27Z"/>
      <path class="cls-2" d="M331.68,196.31H324a3,3,0,0,0,.87,1.87,2.49,2.49,0,0,0,1.77.64,2.74,2.74,0,0,0,1.55-.42,3.78,3.78,0,0,0,1.13-1.3l2.2.82a5,5,0,0,1-5,3.23,5,5,0,0,1-3-.85,5,5,0,0,1-1.76-2.15,6.89,6.89,0,0,1,0-5.44,5,5,0,0,1,1.76-2.15,5,5,0,0,1,3-.85,4.92,4.92,0,0,1,2.91.82,5,5,0,0,1,1.71,2.08,6.33,6.33,0,0,1,.55,2.58Zm-2.79-2.16a3,3,0,0,0-.78-1.51,2.13,2.13,0,0,0-1.6-.6,2.26,2.26,0,0,0-1.51.54,2.93,2.93,0,0,0-.91,1.57Z"/>
      <path class="cls-2" d="M336.88,189.89v1.8a4.22,4.22,0,0,1,1.45-1.46,3.42,3.42,0,0,1,1.82-.52,4.62,4.62,0,0,1,1.35.22l-.51,2.53a2.13,2.13,0,0,0-1.15-.31,2.52,2.52,0,0,0-2.13,1.18,6.46,6.46,0,0,0-.83,3.71V201h-2.73V189.89Z"/>
    </g>
    <g>
      <g>
        <g>
          <path class="cls-3" d="M319,1005.85c-15.68,0-30.21-1.52-37-3.88-3.76-.66-3.76-1.92-3.76-2.33v-.14a.86.86,0,0,1,.07-.38l0-.06.11-.65h-.21V982h81.54V998.4h-.26l.16.63a1.06,1.06,0,0,1,.1.41v.12c0,.48,0,1.72-3.62,2.37C349.29,1004.32,334.74,1005.85,319,1005.85Z"/>
          <path class="cls-2" d="M359.27,982.45V997.9h-.49l.41,1.26h0v.05l0,0,0,.05a.44.44,0,0,1,0,.08h0l1,.11-1,0v.21c0,.8-1.11,1.39-3.21,1.77l-.08,0-.07,0c-6.74,2.35-21.22,3.87-36.91,3.87s-30.09-1.51-36.85-3.85l-.07,0-.08,0c-2.14-.38-3.24-1-3.27-1.79v-.23a.35.35,0,0,1,0-.12l0-.05,0,0v0l.43-1.28h-.51V982.45h80.54m1-1H277.73V998.9h.12v0a1.35,1.35,0,0,0-.11.52v.2c0,1.49,1.47,2.34,4.09,2.81,6.68,2.31,20.82,3.9,37.18,3.9s30.58-1.6,37.24-3.92c2.58-.47,4-1.32,4-2.79v-.2a1.35,1.35,0,0,0-.11-.52v0h.12V981.45Z"/>
        </g>
        <g>
          <path class="cls-3" d="M319,987.82c-24,0-40.77-3.38-40.77-6.41S295,975,319,975s40.77,3.39,40.77,6.42S343,987.82,319,987.82Z"/>
          <path class="cls-2" d="M319,975.49a184.52,184.52,0,0,1,29,2c9.23,1.54,11.25,3.34,11.25,3.9s-2,2.36-11.25,3.9a184.64,184.64,0,0,1-29,2,184.64,184.64,0,0,1-29-2c-9.23-1.54-11.25-3.34-11.25-3.9s2-2.36,11.25-3.9a184.52,184.52,0,0,1,29-2m0-1c-22.79,0-41.27,3.1-41.27,6.92s18.48,6.91,41.27,6.91,41.27-3.09,41.27-6.91-18.48-6.92-41.27-6.92Z"/>
        </g>
      </g>
      <g>
        <g>
          <path class="cls-3" d="M319,987.85c-15.68,0-30.21-1.53-37-3.88-3.76-.67-3.76-1.93-3.76-2.34v-.14a.86.86,0,0,1,.07-.38l0-.06.11-.65h-.21V963.94h81.54V980.4h-.26l.16.62a1.06,1.06,0,0,1,.1.41v.12c0,.49,0,1.72-3.62,2.38C349.29,986.32,334.74,987.85,319,987.85Z"/>
          <path class="cls-2" d="M359.27,964.44V979.9h-.49l.41,1.26h0v.05l0,.06,0,.05,0,.07h0l1,.12-1-.06v.21c0,.8-1.11,1.39-3.21,1.77l-.08,0-.07,0c-6.74,2.36-21.22,3.88-36.91,3.88s-30.09-1.52-36.85-3.86l-.07,0-.08,0c-2.14-.37-3.24-1-3.27-1.79v-.23a.26.26,0,0,1,0-.11l0-.05,0,0v-.05l.43-1.27h-.51V964.44h80.54m1-1H277.73V980.9h.11a1.39,1.39,0,0,0-.11.52v.2c0,1.49,1.47,2.35,4.09,2.81,6.68,2.31,20.82,3.91,37.18,3.91s30.58-1.61,37.24-3.93c2.58-.47,4-1.32,4-2.79v-.2a1.39,1.39,0,0,0-.11-.52h.11V963.44Z"/>
        </g>
        <g>
          <path class="cls-3" d="M319,969.82c-24,0-40.77-3.38-40.77-6.42S295,957,319,957s40.77,3.38,40.77,6.41S343,969.82,319,969.82Z"/>
          <path class="cls-2" d="M319,957.49a184.64,184.64,0,0,1,29,2c9.23,1.54,11.25,3.34,11.25,3.9s-2,2.36-11.25,3.9a184.52,184.52,0,0,1-29,2,184.52,184.52,0,0,1-29-2c-9.23-1.54-11.25-3.34-11.25-3.9s2-2.36,11.25-3.9a184.64,184.64,0,0,1,29-2m0-1c-22.79,0-41.27,3.09-41.27,6.91s18.48,6.92,41.27,6.92,41.27-3.1,41.27-6.92-18.48-6.91-41.27-6.91Z"/>
        </g>
      </g>
      <g>
        <g>
          <path class="cls-3" d="M319,969.84c-15.68,0-30.21-1.52-37-3.88-3.76-.67-3.76-1.93-3.76-2.34v-.14a.89.89,0,0,1,.07-.38l0-.05.11-.66h-.21V945.93h81.54v16.46h-.26l.16.62a1.1,1.1,0,0,1,.1.41v.12c0,.49,0,1.72-3.62,2.38C349.29,968.31,334.74,969.84,319,969.84Z"/>
          <path class="cls-2" d="M359.27,946.43v15.46h-.49l.41,1.26h0v.06l0,0,0,0a.44.44,0,0,1,0,.08h0l1,.11-1-.06v.21c0,.8-1.11,1.4-3.21,1.78H356l-.07,0c-6.74,2.35-21.22,3.87-36.91,3.87s-30.09-1.51-36.85-3.85l-.07,0H282c-2.14-.38-3.24-1-3.27-1.8v-.23a.26.26,0,0,1,0-.11l0,0v0l0-.06h0l.41-1.26h-.49V946.43h80.54m1-1H277.73v17.46h.11a1.39,1.39,0,0,0-.11.52v.2c0,1.49,1.47,2.35,4.09,2.81,6.68,2.31,20.82,3.91,37.18,3.91s30.58-1.61,37.24-3.93c2.58-.47,4-1.32,4-2.79v-.2a1.39,1.39,0,0,0-.11-.52h.11V945.43Z"/>
        </g>
        <g>
          <ellipse class="cls-3" cx="319" cy="945.39" rx="40.77" ry="6.41"/>
          <path class="cls-2" d="M319,939.48a184.64,184.64,0,0,1,29,2c9.23,1.55,11.25,3.34,11.25,3.9s-2,2.36-11.25,3.91a185.85,185.85,0,0,1-29,2,185.85,185.85,0,0,1-29-2c-9.23-1.55-11.25-3.35-11.25-3.91s2-2.35,11.25-3.9a184.64,184.64,0,0,1,29-2m0-1c-22.79,0-41.27,3.09-41.27,6.91s18.48,6.92,41.27,6.92,41.27-3.1,41.27-6.92-18.48-6.91-41.27-6.91Z"/>
        </g>
      </g>
    </g>
    <g>
      <path class="cls-2" d="M279.68,1027.6a7.75,7.75,0,0,1,3.54.83,6.46,6.46,0,0,1,2.63,2.56,9.77,9.77,0,0,1,0,8.61,6.46,6.46,0,0,1-2.63,2.56,7.63,7.63,0,0,1-3.54.84h-4.82v-15.4Zm2.78,11.62c1-.75,1.48-2.06,1.48-3.93s-.49-3.17-1.48-3.92a5.88,5.88,0,0,0-3.69-1.13h-1v10.12h1A5.88,5.88,0,0,0,282.46,1039.22Z"/>
      <path class="cls-2" d="M289.77,1042.29a3.56,3.56,0,0,1,.31-5.12,5.34,5.34,0,0,1,3.39-1h1.94v-.49a1.44,1.44,0,0,0-.55-1.22,2.29,2.29,0,0,0-1.39-.41,1.89,1.89,0,0,0-1.92,1.28l-2.3-.53a3.45,3.45,0,0,1,1.41-2.23,4.59,4.59,0,0,1,2.81-.85,4.73,4.73,0,0,1,3.44,1.18,4.56,4.56,0,0,1,1.22,3.46V1043h-2.24l-.29-1.41a4.2,4.2,0,0,1-3.41,1.58A3.4,3.4,0,0,1,289.77,1042.29Zm4.89-2.08a2.06,2.06,0,0,0,.75-1.66v-.22h-1.83a2.43,2.43,0,0,0-1.4.35,1.25,1.25,0,0,0-.49,1.08,1,1,0,0,0,.34.78,1.28,1.28,0,0,0,.89.3A2.62,2.62,0,0,0,294.66,1040.21Z"/>
      <path class="cls-2" d="M302.45,1042.14a4,4,0,0,1-1.08-3.06v-4.84h-1.72v-2.33h1.72v-2.78l2.72-1.71v4.49H307v2.33h-2.93v4.8a2.09,2.09,0,0,0,.37,1.39,1.35,1.35,0,0,0,1.09.41,2.3,2.3,0,0,0,1.05-.26l.64,2.2a4.29,4.29,0,0,1-1.8.39A4.11,4.11,0,0,1,302.45,1042.14Z"/>
      <path class="cls-2" d="M309.31,1042.29a3.22,3.22,0,0,1-.95-2.49,3.18,3.18,0,0,1,1.26-2.63,5.29,5.29,0,0,1,3.38-1h1.94v-.49a1.41,1.41,0,0,0-.55-1.22,2.29,2.29,0,0,0-1.39-.41,1.87,1.87,0,0,0-1.91,1.28l-2.31-.53a3.5,3.5,0,0,1,1.42-2.23,4.59,4.59,0,0,1,2.8-.85,4.75,4.75,0,0,1,3.45,1.18,4.6,4.6,0,0,1,1.22,3.46V1043h-2.25l-.28-1.41a4.21,4.21,0,0,1-3.41,1.58A3.4,3.4,0,0,1,309.31,1042.29Zm4.88-2.08a2.06,2.06,0,0,0,.75-1.66v-.22h-1.82a2.41,2.41,0,0,0-1.4.35,1.25,1.25,0,0,0-.5,1.08,1,1,0,0,0,.34.78,1.32,1.32,0,0,0,.9.3A2.6,2.6,0,0,0,314.19,1040.21Z"/>
      <path class="cls-2" d="M324.26,1042.75a2.49,2.49,0,0,1-1-.9V1043h-2.73v-15.58h2.73v5.5a3.07,3.07,0,0,1,1.12-.84,3.7,3.7,0,0,1,1.56-.35,4.64,4.64,0,0,1,3.75,1.55,7.29,7.29,0,0,1,0,8.34,4.64,4.64,0,0,1-3.75,1.55A3.33,3.33,0,0,1,324.26,1042.75Zm3.16-2.81a4.67,4.67,0,0,0,0-5,2.28,2.28,0,0,0-1.85-.9,2.25,2.25,0,0,0-1.84.9,4.68,4.68,0,0,0,0,5,2.35,2.35,0,0,0,3.69,0Z"/>
      <path class="cls-2" d="M333.71,1042.29a3.22,3.22,0,0,1-.95-2.49,3.18,3.18,0,0,1,1.26-2.63,5.29,5.29,0,0,1,3.38-1h1.94v-.49a1.41,1.41,0,0,0-.55-1.22,2.29,2.29,0,0,0-1.39-.41,1.87,1.87,0,0,0-1.91,1.28l-2.31-.53a3.5,3.5,0,0,1,1.42-2.23,4.56,4.56,0,0,1,2.8-.85,4.77,4.77,0,0,1,3.45,1.18,4.6,4.6,0,0,1,1.22,3.46V1043h-2.25l-.28-1.41a4.21,4.21,0,0,1-3.41,1.58A3.38,3.38,0,0,1,333.71,1042.29Zm4.88-2.08a2.06,2.06,0,0,0,.75-1.66v-.22h-1.83a2.4,2.4,0,0,0-1.39.35,1.25,1.25,0,0,0-.5,1.08,1,1,0,0,0,.34.78,1.31,1.31,0,0,0,.89.3A2.62,2.62,0,0,0,338.59,1040.21Z"/>
      <path class="cls-2" d="M345.44,1042.29a4.06,4.06,0,0,1-1.52-2.11l2.17-1.17a3.23,3.23,0,0,0,.87,1.35,2,2,0,0,0,1.33.48,1.45,1.45,0,0,0,.91-.28,1,1,0,0,0,.37-.8,1,1,0,0,0-.57-.87,10.24,10.24,0,0,0-1.72-.8,5.25,5.25,0,0,1-1.95-1.28,3.07,3.07,0,0,1-.24-3.54,3.28,3.28,0,0,1,1.24-1.12,3.81,3.81,0,0,1,1.81-.42,4.39,4.39,0,0,1,2.05.48,3.4,3.4,0,0,1,1.43,1.33L350,1035a2.07,2.07,0,0,0-1.78-1,1.27,1.27,0,0,0-.76.23.71.71,0,0,0-.32.61,1,1,0,0,0,.46.74,8.35,8.35,0,0,0,1.8.82,5,5,0,0,1,2,1.21,2.73,2.73,0,0,1,.7,1.92,3.36,3.36,0,0,1-1.06,2.6,3.8,3.8,0,0,1-2.72,1A4.59,4.59,0,0,1,345.44,1042.29Z"/>
      <path class="cls-2" d="M364,1038.33h-7.66a3,3,0,0,0,.87,1.87,2.49,2.49,0,0,0,1.77.64,2.7,2.7,0,0,0,1.55-.42,3.79,3.79,0,0,0,1.14-1.3l2.2.82a5,5,0,0,1-5,3.23,5,5,0,0,1-3-.85,5,5,0,0,1-1.76-2.15,6.77,6.77,0,0,1,0-5.44,5,5,0,0,1,1.76-2.15,5,5,0,0,1,3-.85,4.87,4.87,0,0,1,2.9.83,5,5,0,0,1,1.72,2.07,6.5,6.5,0,0,1,.55,2.58Zm-2.8-2.15a3,3,0,0,0-.78-1.52,2.12,2.12,0,0,0-1.59-.6,2.28,2.28,0,0,0-1.52.54,3,3,0,0,0-.9,1.58Z"/>
    </g>
    <g>
      <path class="cls-2" d="M198.32,282h232a1.9,1.9,0,0,1,1.9,1.9v142a1.89,1.89,0,0,1-1.89,1.89h-232a1.89,1.89,0,0,1-1.89-1.89v-142A1.89,1.89,0,0,1,198.32,282Z"/>
      <path class="cls-2" d="M430.36,282.52a1.4,1.4,0,0,1,1.4,1.4v142a1.4,1.4,0,0,1-1.4,1.4h-232a1.4,1.4,0,0,1-1.4-1.4v-142a1.4,1.4,0,0,1,1.4-1.4h232m0-1h-232a2.4,2.4,0,0,0-2.4,2.4v142a2.41,2.41,0,0,0,2.4,2.4h232a2.4,2.4,0,0,0,2.4-2.4v-142a2.39,2.39,0,0,0-2.4-2.4Z"/>
    </g>
    <g>
      <rect class="cls-1" x="206.08" y="271.5" width="235.83" height="145.81" rx="1.89"/>
      <path class="cls-2" d="M440,272a1.4,1.4,0,0,1,1.4,1.39v142a1.4,1.4,0,0,1-1.4,1.39H208a1.4,1.4,0,0,1-1.4-1.39v-142A1.4,1.4,0,0,1,208,272H440m0-1H208a2.39,2.39,0,0,0-2.4,2.39v142a2.39,2.39,0,0,0,2.4,2.39H440a2.39,2.39,0,0,0,2.4-2.39v-142A2.39,2.39,0,0,0,440,271Z"/>
    </g>
    <g>
      <g>
        <rect class="cls-4" x="224.5" y="290.5" width="199" height="47"/>
        <path class="cls-2" d="M423,291v46H225V291H423m1-1H224v48H424V290Z"/>
      </g>
      <g>
        <path class="cls-5" d="M276.7,310.21a2.35,2.35,0,0,1,1.9.76,3.39,3.39,0,0,1,0,4,2.38,2.38,0,0,1-1.9.76h-1.57v3.56h-1.52v-9.1Zm.73,3.68a1.29,1.29,0,0,0,.28-.91,1.27,1.27,0,0,0-.28-.91,1,1,0,0,0-.79-.3h-1.51v2.42h1.51A1,1,0,0,0,277.43,313.89Z"/>
        <path class="cls-5" d="M281.72,312.76v1.06a2.4,2.4,0,0,1,.77-.86,1.67,1.67,0,0,1,1-.31,2.38,2.38,0,0,1,.71.13l-.27,1.5a1.07,1.07,0,0,0-.6-.19,1.34,1.34,0,0,0-1.14.7,4.23,4.23,0,0,0-.44,2.19v2.33h-1.45v-6.55Z"/>
        <path class="cls-5" d="M290.13,316.55h-4.07a1.84,1.84,0,0,0,.46,1.11,1.25,1.25,0,0,0,.94.37,1.4,1.4,0,0,0,.83-.24,2.24,2.24,0,0,0,.6-.77l1.17.48a3.19,3.19,0,0,1-1,1.42,2.69,2.69,0,0,1-1.67.49,2.49,2.49,0,0,1-1.6-.5,2.88,2.88,0,0,1-.93-1.27,4.42,4.42,0,0,1-.3-1.61,4.37,4.37,0,0,1,.3-1.6,2.91,2.91,0,0,1,.93-1.28,2.55,2.55,0,0,1,1.6-.5,2.37,2.37,0,0,1,1.54.49,2.82,2.82,0,0,1,.92,1.23,4.19,4.19,0,0,1,.29,1.52Zm-1.49-1.27a1.88,1.88,0,0,0-.41-.9,1.09,1.09,0,0,0-.85-.35,1.17,1.17,0,0,0-.81.32,1.86,1.86,0,0,0-.48.93Z"/>
        <path class="cls-5" d="M291.7,318.89a2.43,2.43,0,0,1-.81-1.25l1.16-.68a1.9,1.9,0,0,0,.46.79,1,1,0,0,0,.71.28.75.75,0,0,0,.48-.16.59.59,0,0,0,.2-.47.65.65,0,0,0-.31-.52,5.28,5.28,0,0,0-.91-.47,2.7,2.7,0,0,1-1-.76,2,2,0,0,1-.12-2.09,1.61,1.61,0,0,1,.66-.66,1.8,1.8,0,0,1,.95-.25,2.21,2.21,0,0,1,1.09.28,1.93,1.93,0,0,1,.76.79l-.86.88a1.08,1.08,0,0,0-.95-.57.61.61,0,0,0-.4.14.41.41,0,0,0-.17.35.57.57,0,0,0,.24.44,4.49,4.49,0,0,0,1,.49,2.67,2.67,0,0,1,1.07.71,1.69,1.69,0,0,1,.37,1.13,2.13,2.13,0,0,1-.56,1.54,1.93,1.93,0,0,1-1.45.58A2.27,2.27,0,0,1,291.7,318.89Z"/>
        <path class="cls-5" d="M301.56,316.55h-4.07a1.9,1.9,0,0,0,.46,1.11,1.27,1.27,0,0,0,.94.37,1.4,1.4,0,0,0,.83-.24,2.24,2.24,0,0,0,.6-.77l1.17.48a3.19,3.19,0,0,1-1,1.42,2.69,2.69,0,0,1-1.67.49,2.49,2.49,0,0,1-1.6-.5,3,3,0,0,1-.93-1.27A4.42,4.42,0,0,1,296,316a4.37,4.37,0,0,1,.3-1.6,3,3,0,0,1,.93-1.28,2.55,2.55,0,0,1,1.6-.5,2.37,2.37,0,0,1,1.54.49,2.82,2.82,0,0,1,.92,1.23,4.19,4.19,0,0,1,.29,1.52Zm-1.49-1.27a1.79,1.79,0,0,0-.41-.9,1.09,1.09,0,0,0-.85-.35,1.17,1.17,0,0,0-.81.32,1.86,1.86,0,0,0-.48.93Z"/>
        <path class="cls-5" d="M304.32,312.76v1.05a2.87,2.87,0,0,1,.81-.85,1.85,1.85,0,0,1,1-.31,1.75,1.75,0,0,1,1.31.51,2,2,0,0,1,.5,1.47v4.68h-1.45v-4.2a1.24,1.24,0,0,0-.23-.82.79.79,0,0,0-.61-.26.9.9,0,0,0-.67.31,2.28,2.28,0,0,0-.49.92,4.67,4.67,0,0,0-.19,1.43v2.62h-1.45v-6.55Z"/>
        <path class="cls-5" d="M310.26,318.8a2.57,2.57,0,0,1-.57-1.81v-2.86h-.91v-1.37h.91v-1.64l1.45-1v2.66h1.56v1.37h-1.56V317a1.39,1.39,0,0,0,.19.82.71.71,0,0,0,.58.24,1.16,1.16,0,0,0,.57-.15l.33,1.3a2.28,2.28,0,0,1-2.55-.38Z"/>
        <path class="cls-5" d="M313.92,318.89a2,2,0,0,1-.51-1.47,2,2,0,0,1,.67-1.56,2.62,2.62,0,0,1,1.8-.58h1V315a.89.89,0,0,0-.29-.72,1.13,1.13,0,0,0-.74-.24,1,1,0,0,0-1,.75l-1.23-.31a2.17,2.17,0,0,1,.76-1.32,2.29,2.29,0,0,1,1.49-.5,2.35,2.35,0,0,1,1.83.7,2.89,2.89,0,0,1,.65,2v3.92h-1.19l-.15-.83a2.18,2.18,0,0,1-1.82.93A1.68,1.68,0,0,1,313.92,318.89Zm2.59-1.23a1.25,1.25,0,0,0,.4-1v-.13h-1a1.14,1.14,0,0,0-.74.21.76.76,0,0,0-.27.64.62.62,0,0,0,.18.46.64.64,0,0,0,.48.17A1.28,1.28,0,0,0,316.51,317.66Z"/>
        <path class="cls-5" d="M320.65,318.8a2.57,2.57,0,0,1-.57-1.81v-2.86h-.91v-1.37h.91v-1.64l1.45-1v2.66h1.56v1.37h-1.56V317a1.39,1.39,0,0,0,.19.82.71.71,0,0,0,.58.24,1.16,1.16,0,0,0,.57-.15l.33,1.3a2.28,2.28,0,0,1-2.55-.38Z"/>
        <path class="cls-5" d="M324.27,311.61a1.05,1.05,0,0,1-.27-.74,1.07,1.07,0,0,1,.27-.74.89.89,0,0,1,1.33,0,1.07,1.07,0,0,1,.27.74,1.05,1.05,0,0,1-.27.74.89.89,0,0,1-1.33,0Zm-.06,1.15h1.45v6.55h-1.45Z"/>
        <path class="cls-5" d="M328.34,319a2.92,2.92,0,0,1-1-1.21,4.45,4.45,0,0,1,0-3.46,2.9,2.9,0,0,1,5.28,0,4.34,4.34,0,0,1,0,3.46,2.9,2.9,0,0,1-1,1.21,2.94,2.94,0,0,1-1.61.44A2.91,2.91,0,0,1,328.34,319Zm2.68-1.51a2.46,2.46,0,0,0,.4-1.43,2.4,2.4,0,0,0-.4-1.42,1.24,1.24,0,0,0-1.08-.58,1.22,1.22,0,0,0-1.07.58,2.4,2.4,0,0,0-.4,1.42,2.46,2.46,0,0,0,.4,1.43,1.23,1.23,0,0,0,1.07.57A1.25,1.25,0,0,0,331,317.46Z"/>
        <path class="cls-5" d="M335.7,312.76v1.05a2.75,2.75,0,0,1,.81-.85,1.85,1.85,0,0,1,1-.31,1.76,1.76,0,0,1,1.32.51,2,2,0,0,1,.5,1.47v4.68h-1.45v-4.2a1.24,1.24,0,0,0-.23-.82A.79.79,0,0,0,337,314a.89.89,0,0,0-.66.31,2.16,2.16,0,0,0-.49.92,4.67,4.67,0,0,0-.19,1.43v2.62h-1.45v-6.55Z"/>
        <path class="cls-5" d="M344,310.21h1.53v7.54H349v1.56h-5Z"/>
        <path class="cls-5" d="M350.36,318.89a2,2,0,0,1-.5-1.47,2,2,0,0,1,.66-1.56,2.66,2.66,0,0,1,1.81-.58h1V315a.86.86,0,0,0-.29-.72,1.11,1.11,0,0,0-.73-.24,1,1,0,0,0-1,.75l-1.23-.31a2.11,2.11,0,0,1,.75-1.32,2.32,2.32,0,0,1,1.5-.5,2.38,2.38,0,0,1,1.83.7,2.89,2.89,0,0,1,.65,2v3.92h-1.2l-.15-.83a2.15,2.15,0,0,1-1.81.93A1.7,1.7,0,0,1,350.36,318.89Zm2.6-1.23a1.27,1.27,0,0,0,.39-1v-.13h-1a1.16,1.16,0,0,0-.74.21.78.78,0,0,0-.26.64.62.62,0,0,0,.18.46.63.63,0,0,0,.47.17A1.32,1.32,0,0,0,353,317.66Z"/>
        <path class="cls-5" d="M359.56,312.76H361L358,322h-1.4l1-3.09-2.13-6.11h1.46l1.35,4Z"/>
        <path class="cls-5" d="M367,316.55h-4.07a1.9,1.9,0,0,0,.46,1.11,1.27,1.27,0,0,0,.94.37,1.38,1.38,0,0,0,.83-.24,2.24,2.24,0,0,0,.6-.77l1.17.48a3.19,3.19,0,0,1-1,1.42,2.67,2.67,0,0,1-1.67.49,2.44,2.44,0,0,1-1.59-.5,2.91,2.91,0,0,1-.94-1.27,4.42,4.42,0,0,1-.3-1.61,4.37,4.37,0,0,1,.3-1.6,2.93,2.93,0,0,1,.94-1.28,2.5,2.5,0,0,1,1.59-.5,2.42,2.42,0,0,1,1.55.49,2.88,2.88,0,0,1,.91,1.23,4.19,4.19,0,0,1,.29,1.52Zm-1.48-1.27a1.8,1.8,0,0,0-.42-.9,1.09,1.09,0,0,0-.85-.35,1.13,1.13,0,0,0-.8.32,1.72,1.72,0,0,0-.48.93Z"/>
        <path class="cls-5" d="M369.72,312.76v1.06a2.42,2.42,0,0,1,.78-.86,1.65,1.65,0,0,1,1-.31,2.49,2.49,0,0,1,.71.13l-.27,1.5a1.08,1.08,0,0,0-.61-.19,1.31,1.31,0,0,0-1.13.7,4.12,4.12,0,0,0-.45,2.19v2.33h-1.45v-6.55Z"/>
      </g>
    </g>
    <g>
      <g>
        <rect class="cls-6" x="224.37" y="40" width="146.05" height="90.03" rx="0.74"/>
        <path class="cls-2" d="M369.67,40.5a.25.25,0,0,1,.25.24v88.55a.25.25,0,0,1-.25.24H225.11a.24.24,0,0,1-.24-.24V40.74a.24.24,0,0,1,.24-.24H369.67m0-1H225.11a1.24,1.24,0,0,0-1.24,1.24v88.55a1.24,1.24,0,0,0,1.24,1.24H369.67a1.25,1.25,0,0,0,1.25-1.24V40.74a1.25,1.25,0,0,0-1.25-1.24Z"/>
      </g>
      <g>
        <path class="cls-2" d="M405.18,168.17H269.67a15,15,0,0,1-9.75-3.6L226.49,134.9c-1.05-.91-3.5-1.75-1.75-5.25l146.18,2.63L407,163.13A2.86,2.86,0,0,1,405.18,168.17Z"/>
        <path class="cls-2" d="M405.18,168.67H269.67A15.54,15.54,0,0,1,259.6,165l-33.44-29.67c-.15-.13-.34-.26-.54-.4-1.12-.8-3-2.12-1.32-5.45l.14-.28h.31l146.35,2.63.14.12,36.12,30.85a3.36,3.36,0,0,1-2.18,5.92ZM225.06,130.16c-1.06,2.34.06,3.13,1.14,3.9a6.68,6.68,0,0,1,.62.47l33.43,29.66a14.52,14.52,0,0,0,9.42,3.48H405.18a2.37,2.37,0,0,0,1.53-4.16l-36-30.73Z"/>
      </g>
      <g>
        <path class="cls-6" d="M271.42,164.16a14.51,14.51,0,0,1-9.42-3.47l-36.78-31.41H370.73l36,30.73a2.36,2.36,0,0,1-1.53,4.15Z"/>
        <path class="cls-2" d="M370.55,129.78l35.83,30.61a1.85,1.85,0,0,1-1.2,3.27H271.42a14.06,14.06,0,0,1-9.1-3.35l-35.74-30.53h144m.37-1h-147l37.8,32.29a15,15,0,0,0,9.75,3.59H405.18a2.86,2.86,0,0,0,1.85-5l-36.11-30.85Z"/>
      </g>
      <g>
        <rect class="cls-6" x="232.37" y="46.53" width="130.05" height="76.96"/>
        <path class="cls-2" d="M361.92,47v76h-129V47H361.92m1-1h-131v78H362.92V46Z"/>
      </g>
      <g>
        <path class="cls-6" d="M258.5,143.51a13.34,13.34,0,0,1-5.39-1.62l-.12-.06-9.84-7.23-.08,0a1,1,0,0,1-.22-.09,1.22,1.22,0,0,1,.68-.16H366a1.5,1.5,0,0,1,.37,0l8.87,8.18.11,0,.27.11a3.4,3.4,0,0,1-1.5.27Z"/>
        <path class="cls-2" d="M366,134.83h.14l8.25,7.62h-.27L258.5,143a12.5,12.5,0,0,1-5.18-1.57l-.08,0-9-6.57H366m0-1H243.53c-1.25,0-1.7.89-.61,1.23l9.81,7.2c.34.15,3.38,1.75,5.77,1.75l115.66-.55c2,0,2.87-.89,1.38-1.35l-8.88-8.19a2.06,2.06,0,0,0-.62-.09Z"/>
      </g>
      <g>
        <path class="cls-6" d="M313.13,158.75a6.58,6.58,0,0,1-4.46-1.78l-5.48-5.05a2.84,2.84,0,0,1-.85-3,2.27,2.27,0,0,1,2.27-1.27h37.05a3.55,3.55,0,0,1,2.41,1l5.74,5.28a2.9,2.9,0,0,1,.69,3.19,2.45,2.45,0,0,1-2.31,1.66Z"/>
        <path class="cls-2" d="M341.66,148.16a3,3,0,0,1,2.07.83l5.74,5.28a2.4,2.4,0,0,1,.56,2.64,2,2,0,0,1-1.84,1.34H313.14a6.1,6.1,0,0,1-4.13-1.64l-5.45-5a2.37,2.37,0,0,1-.76-2.46,1.79,1.79,0,0,1,1.81-1h37.05m0-1H304.61c-3,0-3.85,3-1.76,5.13l5.48,5.05a7.1,7.1,0,0,0,4.81,1.91h35.05c2.8,0,4.08-3.75,2-5.71l-5.74-5.29a4.07,4.07,0,0,0-2.75-1.09Z"/>
      </g>
    </g>
    <g>
      <g>
        <rect class="cls-1" x="256.17" y="353.92" width="136.33" height="22.63"/>
        <path class="cls-2" d="M392,354.42V376H256.67V354.42H392m1-1H255.67V377H393V353.42Z"/>
      </g>
      <g>
        <circle class="cls-2" cx="352.54" cy="365.6" r="4.43"/>
        <path class="cls-2" d="M352.54,370.53a4.93,4.93,0,1,1,4.93-4.93A4.93,4.93,0,0,1,352.54,370.53Zm0-8.86a3.93,3.93,0,1,0,3.93,3.93A3.93,3.93,0,0,0,352.54,361.67Z"/>
      </g>
      <g>
        <circle class="cls-2" cx="372.92" cy="365.6" r="4.43"/>
        <path class="cls-2" d="M372.92,370.53a4.93,4.93,0,1,1,4.93-4.93A4.93,4.93,0,0,1,372.92,370.53Zm0-8.86a3.93,3.93,0,1,0,3.93,3.93A3.93,3.93,0,0,0,372.92,361.67Z"/>
      </g>
      <path class="cls-2" d="M320.64,367.1H269.33a1.5,1.5,0,0,1,0-3h51.31a1.5,1.5,0,0,1,0,3Z"/>
    </g>
    <g>
      <g>
        <rect class="cls-1" x="256.17" y="376.81" width="136.33" height="22.63"/>
        <path class="cls-2" d="M392,377.31v21.62H256.67V377.31H392m1-1H255.67v23.62H393V376.31Z"/>
      </g>
      <g>
        <circle class="cls-2" cx="352.54" cy="388.49" r="4.43"/>
        <path class="cls-2" d="M352.54,393.42a4.93,4.93,0,1,1,4.93-4.93A4.93,4.93,0,0,1,352.54,393.42Zm0-8.86a3.93,3.93,0,1,0,3.93,3.93A3.93,3.93,0,0,0,352.54,384.56Z"/>
      </g>
      <g>
        <circle class="cls-2" cx="372.92" cy="388.49" r="4.43"/>
        <path class="cls-2" d="M372.92,393.42a4.93,4.93,0,1,1,4.93-4.93A4.93,4.93,0,0,1,372.92,393.42Zm0-8.86a3.93,3.93,0,1,0,3.93,3.93A3.93,3.93,0,0,0,372.92,384.56Z"/>
      </g>
      <path class="cls-2" d="M320.64,390H269.33a1.5,1.5,0,1,1,0-3h51.31a1.5,1.5,0,0,1,0,3Z"/>
    </g>
    <g>
      <path class="cls-2" d="M198.32,506h232a1.9,1.9,0,0,1,1.9,1.9v142a1.89,1.89,0,0,1-1.89,1.89h-232a1.89,1.89,0,0,1-1.89-1.89v-142A1.89,1.89,0,0,1,198.32,506Z"/>
      <path class="cls-2" d="M430.36,506.52a1.4,1.4,0,0,1,1.4,1.4v142a1.4,1.4,0,0,1-1.4,1.4h-232a1.4,1.4,0,0,1-1.4-1.4v-142a1.4,1.4,0,0,1,1.4-1.4h232m0-1h-232a2.4,2.4,0,0,0-2.4,2.4v142a2.41,2.41,0,0,0,2.4,2.4h232a2.4,2.4,0,0,0,2.4-2.4v-142a2.39,2.39,0,0,0-2.4-2.4Z"/>
    </g>
    <g>
      <rect class="cls-1" x="206.08" y="495.5" width="235.83" height="145.81" rx="1.89"/>
      <path class="cls-2" d="M440,496a1.4,1.4,0,0,1,1.4,1.39v142a1.4,1.4,0,0,1-1.4,1.39H208a1.4,1.4,0,0,1-1.4-1.39v-142A1.4,1.4,0,0,1,208,496H440m0-1H208a2.39,2.39,0,0,0-2.4,2.39v142a2.39,2.39,0,0,0,2.4,2.39H440a2.39,2.39,0,0,0,2.4-2.39v-142A2.39,2.39,0,0,0,440,495Z"/>
    </g>
    <g>
      <g>
        <rect class="cls-7" x="224.5" y="514.5" width="199" height="47"/>
        <path class="cls-2" d="M423,515v46H225V515H423m1-1H224v48H424V514Z"/>
      </g>
      <g>
        <path class="cls-5" d="M294.62,534.21h1.52v7.54h3.47v1.56h-5Z"/>
        <path class="cls-5" d="M301.71,543a2.85,2.85,0,0,1-1-1.21,4.34,4.34,0,0,1,0-3.46,2.85,2.85,0,0,1,1-1.21,3.13,3.13,0,0,1,3.2,0,2.85,2.85,0,0,1,1,1.21,4.45,4.45,0,0,1,0,3.46,2.85,2.85,0,0,1-1,1.21,3.13,3.13,0,0,1-3.2,0Zm2.68-1.51a2.53,2.53,0,0,0,.39-1.43,2.47,2.47,0,0,0-.39-1.42,1.3,1.3,0,0,0-2.16,0,2.48,2.48,0,0,0-.4,1.42,2.53,2.53,0,0,0,.4,1.43,1.31,1.31,0,0,0,2.16,0Z"/>
        <path class="cls-5" d="M307.76,545.5a1.88,1.88,0,0,1-.74-1.59,1.78,1.78,0,0,1,.48-1.3,1.77,1.77,0,0,1-.11-1.82,1.55,1.55,0,0,1,.53-.58,2.23,2.23,0,0,1-.41-1.35,2.29,2.29,0,0,1,.29-1.16,2,2,0,0,1,.78-.78,2.26,2.26,0,0,1,1.09-.27,2.2,2.2,0,0,1,1.09.29l1.11-.65.58,1.06-.85.47a2.19,2.19,0,0,1,.24,1,2.36,2.36,0,0,1-.29,1.17,2,2,0,0,1-.78.76,2.38,2.38,0,0,1-1.1.26,2.45,2.45,0,0,1-.85-.15.56.56,0,0,0-.28.5.45.45,0,0,0,.14.35.56.56,0,0,0,.41.13h1.2a2.14,2.14,0,0,1,1.51.5,1.79,1.79,0,0,1,.57,1.42,2.05,2.05,0,0,1-.39,1.28,2.27,2.27,0,0,1-1,.74,3.58,3.58,0,0,1-1.31.24A3.09,3.09,0,0,1,307.76,545.5Zm2.82-1a.66.66,0,0,0,.33-.61.57.57,0,0,0-.24-.53,1.37,1.37,0,0,0-.7-.15h-.8a4.4,4.4,0,0,1-.68-.05,1.24,1.24,0,0,0-.13.6.77.77,0,0,0,.37.69,1.71,1.71,0,0,0,1,.24A1.76,1.76,0,0,0,310.58,544.52Zm-.33-5a1,1,0,0,0,0-1.29.74.74,0,0,0-.58-.26.77.77,0,0,0-.58.26,1.06,1.06,0,0,0,0,1.29.79.79,0,0,0,.58.25A.76.76,0,0,0,310.25,539.5Z"/>
        <path class="cls-5" d="M313.49,535.61a1.05,1.05,0,0,1-.27-.74,1.07,1.07,0,0,1,.27-.74.89.89,0,0,1,1.33,0,1.07,1.07,0,0,1,.27.74,1.05,1.05,0,0,1-.27.74.89.89,0,0,1-1.33,0Zm-.06,1.15h1.45v6.55h-1.45Z"/>
        <path class="cls-5" d="M317.47,543a2.79,2.79,0,0,1-1-1.21,4.5,4.5,0,0,1-.32-1.72,4.45,4.45,0,0,1,.32-1.71,2.76,2.76,0,0,1,1-1.22,2.69,2.69,0,0,1,1.57-.45,2.82,2.82,0,0,1,1.67.48,2.67,2.67,0,0,1,1,1.39l-1.29.59a2.16,2.16,0,0,0-.57-.81A1.25,1.25,0,0,0,319,538a1.12,1.12,0,0,0-1,.55,3.26,3.26,0,0,0,0,2.9,1.12,1.12,0,0,0,1,.55,1.25,1.25,0,0,0,.82-.27,2.19,2.19,0,0,0,.57-.8l1.29.58a2.69,2.69,0,0,1-1,1.4,2.88,2.88,0,0,1-1.67.47A2.69,2.69,0,0,1,317.47,543Z"/>
        <path class="cls-5" d="M326,534.21h1.52v7.54H331v1.56h-5Z"/>
        <path class="cls-5" d="M332.35,542.89a2.25,2.25,0,0,1,.16-3,2.65,2.65,0,0,1,1.8-.58h1V539a.86.86,0,0,0-.29-.72,1.12,1.12,0,0,0-.74-.24,1,1,0,0,0-1,.75l-1.23-.31a2.11,2.11,0,0,1,.75-1.32,2.31,2.31,0,0,1,1.49-.5,2.35,2.35,0,0,1,1.83.7,2.84,2.84,0,0,1,.65,2v3.92H335.6l-.15-.83a2.16,2.16,0,0,1-1.82.93A1.68,1.68,0,0,1,332.35,542.89Zm2.6-1.23a1.27,1.27,0,0,0,.39-1v-.13h-1a1.14,1.14,0,0,0-.74.21.75.75,0,0,0-.26.64.62.62,0,0,0,.18.46.63.63,0,0,0,.47.17A1.32,1.32,0,0,0,335,541.66Z"/>
        <path class="cls-5" d="M341.54,536.76H343l-3,9.2h-1.4l1-3.09-2.12-6.11h1.46l1.34,4Z"/>
        <path class="cls-5" d="M349,540.55h-4.07a1.9,1.9,0,0,0,.46,1.11,1.27,1.27,0,0,0,.94.37,1.4,1.4,0,0,0,.83-.24,2.24,2.24,0,0,0,.6-.77l1.17.48a3.19,3.19,0,0,1-1,1.42,2.67,2.67,0,0,1-1.67.49,2.49,2.49,0,0,1-1.6-.5,3,3,0,0,1-.93-1.27,4.42,4.42,0,0,1-.3-1.61,4.37,4.37,0,0,1,.3-1.6,3,3,0,0,1,.93-1.28,2.55,2.55,0,0,1,1.6-.5,2.42,2.42,0,0,1,1.55.49,2.88,2.88,0,0,1,.91,1.23,4.19,4.19,0,0,1,.29,1.52Zm-1.49-1.27a1.79,1.79,0,0,0-.41-.9,1.09,1.09,0,0,0-.85-.35,1.17,1.17,0,0,0-.81.32,1.86,1.86,0,0,0-.48.93Z"/>
        <path class="cls-5" d="M351.71,536.76v1.06a2.49,2.49,0,0,1,.77-.86,1.69,1.69,0,0,1,1-.31,2.5,2.5,0,0,1,.72.13l-.27,1.5a1.08,1.08,0,0,0-.61-.19,1.31,1.31,0,0,0-1.13.7,4.12,4.12,0,0,0-.45,2.19v2.33h-1.45v-6.55Z"/>
      </g>
    </g>
    <g>
      <g>
        <rect class="cls-1" x="256.17" y="577.92" width="136.33" height="22.63"/>
        <path class="cls-2" d="M392,578.42V600H256.67V578.42H392m1-1H255.67V601H393V577.42Z"/>
      </g>
      <g>
        <circle class="cls-2" cx="352.54" cy="589.6" r="4.43"/>
        <path class="cls-2" d="M352.54,594.53a4.93,4.93,0,1,1,4.93-4.93A4.93,4.93,0,0,1,352.54,594.53Zm0-8.86a3.93,3.93,0,1,0,3.93,3.93A3.93,3.93,0,0,0,352.54,585.67Z"/>
      </g>
      <g>
        <circle class="cls-2" cx="372.92" cy="589.6" r="4.43"/>
        <path class="cls-2" d="M372.92,594.53a4.93,4.93,0,1,1,4.93-4.93A4.93,4.93,0,0,1,372.92,594.53Zm0-8.86a3.93,3.93,0,1,0,3.93,3.93A3.93,3.93,0,0,0,372.92,585.67Z"/>
      </g>
      <path class="cls-2" d="M320.64,591.1H269.33a1.5,1.5,0,0,1,0-3h51.31a1.5,1.5,0,0,1,0,3Z"/>
    </g>
    <g>
      <g>
        <rect class="cls-1" x="256.17" y="600.81" width="136.33" height="22.63"/>
        <path class="cls-2" d="M392,601.31v21.62H256.67V601.31H392m1-1H255.67v23.62H393V600.31Z"/>
      </g>
      <g>
        <circle class="cls-2" cx="352.54" cy="612.49" r="4.43"/>
        <path class="cls-2" d="M352.54,617.42a4.93,4.93,0,1,1,4.93-4.93A4.93,4.93,0,0,1,352.54,617.42Zm0-8.86a3.93,3.93,0,1,0,3.93,3.93A3.93,3.93,0,0,0,352.54,608.56Z"/>
      </g>
      <g>
        <circle class="cls-2" cx="372.92" cy="612.49" r="4.43"/>
        <path class="cls-2" d="M372.92,617.42a4.93,4.93,0,1,1,4.93-4.93A4.93,4.93,0,0,1,372.92,617.42Zm0-8.86a3.93,3.93,0,1,0,3.93,3.93A3.93,3.93,0,0,0,372.92,608.56Z"/>
      </g>
      <path class="cls-2" d="M320.64,614H269.33a1.5,1.5,0,1,1,0-3h51.31a1.5,1.5,0,0,1,0,3Z"/>
    </g>
    <g>
      <path class="cls-2" d="M198.32,727h232a1.9,1.9,0,0,1,1.9,1.9v142a1.89,1.89,0,0,1-1.89,1.89h-232a1.89,1.89,0,0,1-1.89-1.89v-142A1.89,1.89,0,0,1,198.32,727Z"/>
      <path class="cls-2" d="M430.36,727.52a1.4,1.4,0,0,1,1.4,1.4v142a1.4,1.4,0,0,1-1.4,1.4h-232a1.4,1.4,0,0,1-1.4-1.4v-142a1.4,1.4,0,0,1,1.4-1.4h232m0-1h-232a2.4,2.4,0,0,0-2.4,2.4v142a2.41,2.41,0,0,0,2.4,2.4h232a2.4,2.4,0,0,0,2.4-2.4v-142a2.39,2.39,0,0,0-2.4-2.4Z"/>
    </g>
    <g>
      <rect class="cls-1" x="206.08" y="716.5" width="235.83" height="145.81" rx="1.89"/>
      <path class="cls-2" d="M440,717a1.4,1.4,0,0,1,1.4,1.39v142a1.4,1.4,0,0,1-1.4,1.39H208a1.4,1.4,0,0,1-1.4-1.39v-142A1.4,1.4,0,0,1,208,717H440m0-1H208a2.39,2.39,0,0,0-2.4,2.39v142a2.39,2.39,0,0,0,2.4,2.39H440a2.39,2.39,0,0,0,2.4-2.39v-142A2.39,2.39,0,0,0,440,716Z"/>
    </g>
    <g>
      <g>
        <rect class="cls-8" x="224.5" y="735.5" width="199" height="47"/>
        <path class="cls-2" d="M423,736v46H225V736H423m1-1H224v48H424V735Z"/>
      </g>
      <g>
        <path class="cls-2" d="M301.18,755.21a3.72,3.72,0,0,1,1.88.49,3.58,3.58,0,0,1,1.4,1.52,6.35,6.35,0,0,1,0,5.08,3.55,3.55,0,0,1-1.4,1.51,3.73,3.73,0,0,1-1.88.5h-2.56v-9.1Zm1.48,6.87a3,3,0,0,0-2-5.31h-.56v6h.56A3,3,0,0,0,302.66,762.08Z"/>
        <path class="cls-2" d="M306.55,763.89a2.25,2.25,0,0,1,.16-3,2.65,2.65,0,0,1,1.8-.58h1V760a.86.86,0,0,0-.29-.72,1.12,1.12,0,0,0-.74-.24,1,1,0,0,0-1,.75l-1.23-.31a2.11,2.11,0,0,1,.75-1.32,2.31,2.31,0,0,1,1.49-.5,2.39,2.39,0,0,1,1.84.7,2.89,2.89,0,0,1,.64,2v3.92H309.8l-.15-.83a2.16,2.16,0,0,1-1.81.93A1.69,1.69,0,0,1,306.55,763.89Zm2.6-1.23a1.27,1.27,0,0,0,.39-1v-.13h-1a1.16,1.16,0,0,0-.74.21.75.75,0,0,0-.26.64.62.62,0,0,0,.18.46.63.63,0,0,0,.47.17A1.32,1.32,0,0,0,309.15,762.66Z"/>
        <path class="cls-2" d="M313.29,763.8a2.57,2.57,0,0,1-.58-1.81v-2.86h-.91v-1.37h.91v-1.64l1.46-1v2.66h1.55v1.37h-1.55V762a1.32,1.32,0,0,0,.19.82.7.7,0,0,0,.58.24,1.15,1.15,0,0,0,.56-.15l.34,1.3a2.19,2.19,0,0,1-1,.23A2.06,2.06,0,0,1,313.29,763.8Z"/>
        <path class="cls-2" d="M316.94,763.89a2,2,0,0,1-.5-1.47,2,2,0,0,1,.66-1.56,2.65,2.65,0,0,1,1.8-.58h1V760a.86.86,0,0,0-.29-.72,1.12,1.12,0,0,0-.74-.24,1,1,0,0,0-1,.75l-1.23-.31a2.11,2.11,0,0,1,.75-1.32,2.31,2.31,0,0,1,1.49-.5,2.35,2.35,0,0,1,1.83.7,2.84,2.84,0,0,1,.65,2v3.92h-1.19l-.15-.83a2.16,2.16,0,0,1-1.82.93A1.68,1.68,0,0,1,316.94,763.89Zm2.6-1.23a1.27,1.27,0,0,0,.39-1v-.13h-1a1.14,1.14,0,0,0-.74.21.75.75,0,0,0-.26.64.62.62,0,0,0,.18.46.63.63,0,0,0,.47.17A1.32,1.32,0,0,0,319.54,762.66Z"/>
        <path class="cls-2" d="M325.92,755.21h1.53v7.54h3.47v1.56h-5Z"/>
        <path class="cls-2" d="M332.29,763.89a2,2,0,0,1-.5-1.47,2,2,0,0,1,.66-1.56,2.65,2.65,0,0,1,1.8-.58h1V760a.86.86,0,0,0-.29-.72,1.12,1.12,0,0,0-.74-.24,1,1,0,0,0-1,.75l-1.23-.31a2.11,2.11,0,0,1,.75-1.32,2.31,2.31,0,0,1,1.49-.5,2.35,2.35,0,0,1,1.83.7,2.84,2.84,0,0,1,.65,2v3.92h-1.19l-.15-.83a2.16,2.16,0,0,1-1.81.93A1.69,1.69,0,0,1,332.29,763.89Zm2.6-1.23a1.27,1.27,0,0,0,.39-1v-.13h-1a1.16,1.16,0,0,0-.74.21.75.75,0,0,0-.26.64.62.62,0,0,0,.18.46.63.63,0,0,0,.47.17A1.32,1.32,0,0,0,334.89,762.66Z"/>
        <path class="cls-2" d="M341.48,757.76h1.46l-3.05,9.2h-1.4l1-3.09-2.13-6.11h1.46l1.34,4Z"/>
        <path class="cls-2" d="M348.89,761.55h-4.07a1.9,1.9,0,0,0,.46,1.11,1.27,1.27,0,0,0,.94.37,1.38,1.38,0,0,0,.83-.24,2.24,2.24,0,0,0,.6-.77l1.17.48a3.19,3.19,0,0,1-1,1.42,2.67,2.67,0,0,1-1.67.49,2.49,2.49,0,0,1-1.6-.5,3,3,0,0,1-.93-1.27,4.42,4.42,0,0,1-.3-1.61,4.37,4.37,0,0,1,.3-1.6,3,3,0,0,1,.93-1.28,2.55,2.55,0,0,1,1.6-.5,2.42,2.42,0,0,1,1.55.49,2.88,2.88,0,0,1,.91,1.23,4.19,4.19,0,0,1,.29,1.52Zm-1.49-1.27a1.79,1.79,0,0,0-.41-.9,1.09,1.09,0,0,0-.85-.35,1.17,1.17,0,0,0-.81.32,1.86,1.86,0,0,0-.48.93Z"/>
        <path class="cls-2" d="M351.65,757.76v1.06a2.49,2.49,0,0,1,.77-.86,1.69,1.69,0,0,1,1-.31,2.5,2.5,0,0,1,.72.13l-.27,1.5a1.08,1.08,0,0,0-.61-.19,1.31,1.31,0,0,0-1.13.7,4.12,4.12,0,0,0-.45,2.19v2.33H350.2v-6.55Z"/>
      </g>
    </g>
    <g>
      <g>
        <rect class="cls-1" x="256.17" y="798.92" width="136.33" height="22.63"/>
        <path class="cls-2" d="M392,799.42V821H256.67V799.42H392m1-1H255.67V822H393V798.42Z"/>
      </g>
      <g>
        <circle class="cls-2" cx="352.54" cy="810.6" r="4.43"/>
        <path class="cls-2" d="M352.54,815.53a4.93,4.93,0,1,1,4.93-4.93A4.93,4.93,0,0,1,352.54,815.53Zm0-8.86a3.93,3.93,0,1,0,3.93,3.93A3.93,3.93,0,0,0,352.54,806.67Z"/>
      </g>
      <g>
        <circle class="cls-2" cx="372.92" cy="810.6" r="4.43"/>
        <path class="cls-2" d="M372.92,815.53a4.93,4.93,0,1,1,4.93-4.93A4.93,4.93,0,0,1,372.92,815.53Zm0-8.86a3.93,3.93,0,1,0,3.93,3.93A3.93,3.93,0,0,0,372.92,806.67Z"/>
      </g>
      <path class="cls-2" d="M320.64,812.1H269.33a1.5,1.5,0,0,1,0-3h51.31a1.5,1.5,0,0,1,0,3Z"/>
    </g>
    <g>
      <g>
        <rect class="cls-1" x="256.17" y="821.81" width="136.33" height="22.63"/>
        <path class="cls-2" d="M392,822.31v21.62H256.67V822.31H392m1-1H255.67v23.62H393V821.31Z"/>
      </g>
      <g>
        <circle class="cls-2" cx="352.54" cy="833.49" r="4.43"/>
        <path class="cls-2" d="M352.54,838.42a4.93,4.93,0,1,1,4.93-4.93A4.93,4.93,0,0,1,352.54,838.42Zm0-8.86a3.93,3.93,0,1,0,3.93,3.93A3.93,3.93,0,0,0,352.54,829.56Z"/>
      </g>
      <g>
        <circle class="cls-2" cx="372.92" cy="833.49" r="4.43"/>
        <path class="cls-2" d="M372.92,838.42a4.93,4.93,0,1,1,4.93-4.93A4.93,4.93,0,0,1,372.92,838.42Zm0-8.86a3.93,3.93,0,1,0,3.93,3.93A3.93,3.93,0,0,0,372.92,829.56Z"/>
      </g>
      <path class="cls-2" d="M320.64,835H269.33a1.5,1.5,0,1,1,0-3h51.31a1.5,1.5,0,1,1,0,3Z"/>
    </g>
  </g>
</svg>
