<svg xmlns="http://www.w3.org/2000/svg" viewBox="0 0 640 420">
  <defs>
    <style>
      .cls-1 {
        fill: #fff4ff;
      }

      .cls-2 {
        fill: #10162f;
      }

      .cls-3 {
        fill: #fff5ff;
      }

      .cls-4 {
        fill: #008a27;
      }

      .cls-5 {
        fill: #e91c11;
      }

      .cls-6 {
        fill: #aee938;
      }

      .cls-7 {
        fill: #a7e537;
      }

      .cls-8 {
        fill: #a0e137;
      }

      .cls-9 {
        fill: #99de36;
      }

      .cls-10 {
        fill: #92da35;
      }

      .cls-11 {
        fill: #8bd635;
      }

      .cls-12 {
        fill: #84d234;
      }

      .cls-13 {
        fill: #7dce33;
      }

      .cls-14 {
        fill: #76cb33;
      }

      .cls-15 {
        fill: #68c331;
      }

      .cls-16 {
        fill: #61bf31;
      }

      .cls-17 {
        fill: #5abb30;
      }

      .cls-18 {
        fill: #54b82f;
      }

      .cls-19 {
        fill: #4db42e;
      }

      .cls-20 {
        fill: #46b02e;
      }

      .cls-21 {
        fill: #3fac2d;
      }

      .cls-22 {
        fill: #38a82c;
      }

      .cls-23 {
        fill: #31a52c;
      }

      .cls-24 {
        fill: #2aa12b;
      }

      .cls-25 {
        fill: #239d2a;
      }

      .cls-26 {
        fill: #1c992a;
      }

      .cls-27 {
        fill: #159529;
      }

      .cls-28 {
        fill: #0e9228;
      }

      .cls-29 {
        fill: #078e28;
      }

      .cls-30 {
        fill: #6fc732;
      }

      .cls-31 {
        fill: #fff;
      }

      .cls-32 {
        fill: #fffae5;
      }
    </style>
  </defs>
  <g id="BG">
    <g>
      <rect class="cls-1" x="0.5" y="0.5" width="639" height="419"/>
      <path class="cls-2" d="M639,1V419H1V1H639m1-1H0V420H640V0Z"/>
    </g>
    <g>
      <rect class="cls-1" x="0.5" y="0.5" width="639" height="419"/>
      <path class="cls-2" d="M639,1V419H1V1H639m1-1H0V420H640V0Z"/>
    </g>
    <g>
      <rect class="cls-3" x="0.5" y="0.5" width="639" height="419"/>
      <path class="cls-2" d="M639,1V419H1V1H639m1-1H0V420H640V0Z"/>
    </g>
  </g>
  <g id="Layer_3" data-name="Layer 3">
    <g>
      <rect class="cls-2" x="63" y="32" width="212" height="131.21"/>
      <path class="cls-2" d="M274.5,32.5V162.71H63.5V32.5h211m1-1H62.5V163.71h213V31.5Z"/>
    </g>
    <g>
      <rect class="cls-2" x="33" y="193.5" width="171.5" height="163"/>
      <path class="cls-2" d="M204,194V356H33.5V194H204m1-1H32.5V357H205V193Z"/>
    </g>
    <g>
      <rect class="cls-2" x="422.07" y="256.41" width="175.43" height="130.28"/>
      <path class="cls-2" d="M597,256.91V386.19H422.57V256.91H597m1-1H421.57V387.19H598V255.91Z"/>
    </g>
    <g>
      <rect class="cls-2" x="342" y="59" width="212" height="113.21"/>
      <path class="cls-2" d="M553.5,59.5V171.71h-211V59.5h211m1-1h-213V172.71h213V58.5Z"/>
    </g>
    <g>
      <rect class="cls-3" x="66.5" y="28.5" width="212" height="131.21"/>
      <path class="cls-2" d="M278,29V159.21H67V29H278m1-1H66V160.21H279V28Z"/>
    </g>
    <g>
      <g>
        <rect class="cls-3" x="425.34" y="251.5" width="178.03" height="132"/>
        <path class="cls-2" d="M602.86,252V383h-177V252h177m1-1h-179V384h179V251Z"/>
      </g>
      <path class="cls-2" d="M589.88,312.07H451.68a.51.51,0,0,1-.5-.5.5.5,0,0,1,.5-.5h138.2a.5.5,0,0,1,.5.5A.51.51,0,0,1,589.88,312.07Z"/>
      <g>
        <g>
          <path class="cls-4" d="M589.67,265.33H451.81a.5.5,0,0,1-.5-.5.5.5,0,0,1,.5-.5H589.67a.5.5,0,0,1,.5.5A.51.51,0,0,1,589.67,265.33Z"/>
          <path class="cls-4" d="M589.67,274.55H451.81a.5.5,0,0,1-.5-.5.5.5,0,0,1,.5-.5H589.67a.5.5,0,0,1,.5.5A.51.51,0,0,1,589.67,274.55Z"/>
          <path class="cls-4" d="M589.67,283.76H451.81a.5.5,0,0,1-.5-.5.5.5,0,0,1,.5-.5H589.67a.51.51,0,0,1,.5.5A.5.5,0,0,1,589.67,283.76Z"/>
          <path class="cls-4" d="M589.67,293H451.81a.5.5,0,0,1-.5-.5.5.5,0,0,1,.5-.5H589.67a.51.51,0,0,1,.5.5A.5.5,0,0,1,589.67,293Z"/>
          <path class="cls-4" d="M589.67,302.2H451.81a.5.5,0,0,1,0-1H589.67a.5.5,0,0,1,0,1Z"/>
        </g>
        <path class="cls-5" d="M589.67,320.64H451.81a.5.5,0,0,1-.5-.5.5.5,0,0,1,.5-.5H589.67a.5.5,0,0,1,.5.5A.51.51,0,0,1,589.67,320.64Z"/>
        <path class="cls-5" d="M589.67,329.85H451.81a.5.5,0,0,1-.5-.5.5.5,0,0,1,.5-.5H589.67a.51.51,0,0,1,.5.5A.5.5,0,0,1,589.67,329.85Z"/>
        <path class="cls-5" d="M589.67,339.07H451.81a.5.5,0,0,1-.5-.5.5.5,0,0,1,.5-.5H589.67a.51.51,0,0,1,.5.5A.5.5,0,0,1,589.67,339.07Z"/>
        <path class="cls-5" d="M589.67,348.29H451.81a.5.5,0,0,1,0-1H589.67a.5.5,0,0,1,0,1Z"/>
        <path class="cls-5" d="M589.67,357.51H451.81a.5.5,0,1,1,0-1H589.67a.5.5,0,0,1,0,1Z"/>
      </g>
      <g>
        <path class="cls-2" d="M439.53,265.34a1.21,1.21,0,0,0-1.24-1.33,1.14,1.14,0,0,0-1.05.61l-.77,0,.38-3.14h3.21v.62h-2.59l-.21,1.73a1.73,1.73,0,0,1,1.2-.43,1.85,1.85,0,0,1,1.86,2,2,2,0,0,1-2,2,1.88,1.88,0,0,1-2-1.83h.74a1.2,1.2,0,0,0,1.26,1.19A1.24,1.24,0,0,0,439.53,265.34Z"/>
        <path class="cls-2" d="M440.52,275h-1v1.43h-.74V275h-2.73v-.69l2.72-3.67h.75v3.67h1Zm-3.67-.69h2v-2.68Z"/>
        <path class="cls-2" d="M439.53,284.06c0-.81-.69-1.11-1.58-1.11h-.11v-.65h.08c1,0,1.47-.31,1.47-1a1,1,0,0,0-1.07-.91,1.12,1.12,0,0,0-1.19,1.12h-.76a1.85,1.85,0,0,1,2-1.75c.94,0,1.83.41,1.83,1.47a1.41,1.41,0,0,1-.9,1.34,1.43,1.43,0,0,1,1.05,1.46,1.84,1.84,0,0,1-2,1.74,1.9,1.9,0,0,1-2-1.83H437a1.2,1.2,0,0,0,1.25,1.2A1.1,1.1,0,0,0,439.53,284.06Z"/>
        <path class="cls-2" d="M440.18,290.56c0,1.35-1.3,2.53-2.77,3.71h2.87v.63h-3.91v-.63c1.95-1.51,3-2.6,3-3.61a.94.94,0,0,0-1-1c-.6,0-1.15.37-1.17,1.32h-.75a1.84,1.84,0,0,1,1.93-1.95A1.58,1.58,0,0,1,440.18,290.56Z"/>
        <path class="cls-2" d="M438.83,298.33v5.16H440v.63h-3.43v-.63h1.48v-3.9h-1.48v-.5c1,0,1.44-.13,1.74-.76Z"/>
        <path class="cls-2" d="M436.29,310.42c0-1.8.56-3,2-3s2,1.18,2,3-.57,3-2,3S436.29,312.22,436.29,310.42Zm.75.29,2.5-1.14c-.13-1-.54-1.5-1.23-1.5-.87,0-1.28.76-1.28,2.35A2.71,2.71,0,0,0,437,310.71Zm2.56-.29a2.26,2.26,0,0,0,0-.26l-2.5,1.16c.13,1,.53,1.5,1.22,1.5C439.18,312.82,439.6,312,439.6,310.42Z"/>
        <path class="cls-2" d="M434.46,320.72V320H437v.69Z"/>
        <path class="cls-2" d="M441.41,316.77v5.16h1.22v.64H439.2v-.64h1.48V318H439.2v-.5c1,0,1.44-.13,1.73-.76Z"/>
        <path class="cls-2" d="M434.46,329.94v-.69H437v.69Z"/>
        <path class="cls-2" d="M442.76,327.44c0,1.35-1.29,2.53-2.77,3.71h2.88v.64H439v-.64c1.94-1.51,3-2.59,3-3.61a.94.94,0,0,0-1-1c-.6,0-1.15.37-1.17,1.32h-.75a1.84,1.84,0,0,1,1.93-1.94A1.58,1.58,0,0,1,442.76,327.44Z"/>
        <path class="cls-2" d="M434.46,339.16v-.69H437v.69Z"/>
        <path class="cls-2" d="M442.12,339.38c0-.81-.7-1.11-1.59-1.11h-.11v-.65h.09c.95,0,1.46-.31,1.46-1a1,1,0,0,0-1.07-.91,1.13,1.13,0,0,0-1.19,1.12H439a1.84,1.84,0,0,1,2-1.74c.94,0,1.84.4,1.84,1.46a1.41,1.41,0,0,1-.91,1.34,1.43,1.43,0,0,1,1,1.47,1.83,1.83,0,0,1-2,1.73,1.88,1.88,0,0,1-2-1.83h.74a1.21,1.21,0,0,0,1.26,1.2A1.1,1.1,0,0,0,442.12,339.38Z"/>
        <path class="cls-2" d="M434.46,348.38v-.69H437v.69Z"/>
        <path class="cls-2" d="M443.1,348.8h-1v1.43h-.73V348.8h-2.74v-.69l2.73-3.68h.74v3.68h1Zm-3.67-.69h2v-2.69Z"/>
        <path class="cls-2" d="M434.46,357.6v-.69H437v.69Z"/>
        <path class="cls-2" d="M442.12,357.54a1.21,1.21,0,0,0-1.24-1.32,1.15,1.15,0,0,0-1.06.6l-.77,0,.38-3.14h3.21v.62h-2.59l-.2,1.74a1.65,1.65,0,0,1,1.19-.43,1.84,1.84,0,0,1,1.86,2,1.94,1.94,0,0,1-2,2,1.9,1.9,0,0,1-2-1.83h.75a1.2,1.2,0,0,0,1.25,1.2A1.25,1.25,0,0,0,442.12,357.54Z"/>
      </g>
      <g>
        <circle class="cls-4" cx="472.76" cy="283.68" r="3.67"/>
        <path d="M472.75,287.85a4.17,4.17,0,1,1,4.18-4.17A4.17,4.17,0,0,1,472.75,287.85Zm0-7.34a3.17,3.17,0,1,0,3.18,3.17A3.17,3.17,0,0,0,472.75,280.51Z"/>
      </g>
      <g>
        <circle class="cls-4" cx="497.46" cy="274.05" r="3.67"/>
        <path d="M497.46,278.22a4.18,4.18,0,1,1,4.18-4.17A4.17,4.17,0,0,1,497.46,278.22Zm0-7.35a3.18,3.18,0,1,0,3.18,3.18A3.18,3.18,0,0,0,497.46,270.87Z"/>
      </g>
      <g>
        <circle class="cls-5" cx="472.76" cy="338.93" r="3.67"/>
        <path d="M472.75,343.11a4.18,4.18,0,1,1,4.18-4.18A4.18,4.18,0,0,1,472.75,343.11Zm0-7.35a3.18,3.18,0,1,0,3.18,3.17A3.17,3.17,0,0,0,472.75,335.76Z"/>
      </g>
      <g>
        <circle class="cls-5" cx="492.9" cy="329.3" r="3.67"/>
        <path d="M492.9,333.47a4.18,4.18,0,1,1,4.18-4.17A4.17,4.17,0,0,1,492.9,333.47Zm0-7.35a3.18,3.18,0,1,0,3.18,3.18A3.18,3.18,0,0,0,492.9,326.12Z"/>
      </g>
      <g>
        <circle class="cls-5" cx="553.17" cy="347.82" r="3.67"/>
        <path d="M553.17,352a4.17,4.17,0,1,1,4.17-4.17A4.18,4.18,0,0,1,553.17,352Zm0-7.34a3.17,3.17,0,1,0,3.17,3.17A3.18,3.18,0,0,0,553.17,344.65Z"/>
      </g>
      <g>
        <circle class="cls-5" cx="573.82" cy="319.57" r="3.67"/>
        <path d="M573.82,323.75a4.18,4.18,0,1,1,4.18-4.18A4.18,4.18,0,0,1,573.82,323.75Zm0-7.35a3.18,3.18,0,1,0,3.18,3.17A3.17,3.17,0,0,0,573.82,316.4Z"/>
      </g>
      <g>
        <circle class="cls-4" cx="510.17" cy="292.94" r="3.67"/>
        <path d="M510.17,297.11a4.18,4.18,0,1,1,4.17-4.17A4.18,4.18,0,0,1,510.17,297.11Zm0-7.35a3.18,3.18,0,1,0,3.17,3.18A3.19,3.19,0,0,0,510.17,289.76Z"/>
      </g>
      <g>
        <circle class="cls-4" cx="531.24" cy="301.7" r="3.67"/>
        <path d="M531.24,305.87a4.17,4.17,0,1,1,4.18-4.17A4.17,4.17,0,0,1,531.24,305.87Zm0-7.34a3.17,3.17,0,1,0,3.18,3.17A3.17,3.17,0,0,0,531.24,298.53Z"/>
      </g>
      <g>
        <circle class="cls-4" cx="547.77" cy="301.7" r="3.67"/>
        <path d="M547.77,305.87a4.17,4.17,0,1,1,4.17-4.17A4.17,4.17,0,0,1,547.77,305.87Zm0-7.34a3.17,3.17,0,1,0,3.17,3.17A3.17,3.17,0,0,0,547.77,298.53Z"/>
      </g>
      <g>
        <circle class="cls-4" cx="573.82" cy="264.83" r="3.67"/>
        <path d="M573.82,269a4.18,4.18,0,1,1,4.18-4.17A4.17,4.17,0,0,1,573.82,269Zm0-7.35a3.18,3.18,0,1,0,3.18,3.18A3.18,3.18,0,0,0,573.82,261.65Z"/>
      </g>
    </g>
    <g>
      <g>
        <rect class="cls-3" x="345.71" y="46.98" width="237.22" height="122.17"/>
        <path class="cls-2" d="M582.43,47.48V168.65H346.21V47.48H582.43m1-1H345.21V169.65H583.43V46.48Z"/>
      </g>
      <g>
        <polygon class="cls-4" points="345.71 169.15 345.75 85.56 371.22 100.05 390.68 83.86 411.95 127.31 421.37 102.57 439.09 109.57 452.22 90.01 472.03 99.52 483.78 133.12 500.37 99.2 514.66 89.78 525.95 109.4 537.82 105.69 547.67 83.87 562.61 96.26 582.93 86.99 582.76 169.15 345.71 169.15"/>
        <path class="cls-2" d="M390.51,84.65,411,126.5l1,2.07.82-2.15,8.83-23.2,16.87,6.66.75.3.45-.67,12.66-18.86,19.24,9.24,11.29,32.27.79,2.26,1.05-2.15,16-32.73,13.73-9.05,10.83,18.81.4.7.76-.24,11.27-3.52.43-.14.19-.41,9.49-21,14.19,11.76.49.4.57-.26,19.32-8.81-.17,80.88h-236l0-82.23,24.42,13.9.6.34.54-.44,18.7-15.57m157-1.58-10,22.21-11.28,3.53L514.83,89.07,500,98.86l-16.12,33L472.43,99.16l-20.38-9.79L438.9,109l-17.82-7-9.19,24.14-21-43L371.17,99.45,345.25,84.7l0,85H583.26l.17-83.44-20.74,9.46-15.2-12.6Z"/>
      </g>
    </g>
    <g>
      <path class="cls-4" d="M121.69,123.63A39.74,39.74,0,0,1,82,83.94c0-15.45,9.51-38.8,35.7-39.8l.56,14.67c-7.7.29-13.3,3.4-17.11,9.5a31.73,31.73,0,0,0-4.48,15.63,25,25,0,0,0,50,0h14.68A39.74,39.74,0,0,1,121.69,123.63Z"/>
      <path d="M121.69,124.13A40.24,40.24,0,0,1,81.5,83.94c0-15.64,9.63-39.28,36.18-40.3l.5,0,.59,15.67-.49,0c-7.52.28-13,3.31-16.71,9.26a31.23,31.23,0,0,0-4.4,15.37,24.52,24.52,0,0,0,49,0v-.5h15.68v.5A40.24,40.24,0,0,1,121.69,124.13Zm-4.47-79.47C91.76,45.93,82.5,68.78,82.5,83.94a39.19,39.19,0,0,0,78.38.5H147.21a25.52,25.52,0,0,1-51-.5A32.25,32.25,0,0,1,100.73,68c3.82-6.12,9.39-9.29,17-9.71Z"/>
    </g>
    <g>
      <path class="cls-5" d="M209.81,81.75h14.67s-2.34,25,25,25v14.67C207.91,121.44,209.81,81.75,209.81,81.75Z"/>
      <path d="M250,121.94h-.5c-12.74,0-22.72-3.69-29.67-11-11.22-11.77-10.53-29-10.52-29.22l0-.48H225l-.05.55c0,.1-.88,10.36,5.63,17.5,4.21,4.62,10.57,7,18.89,7h.5ZM210.3,82.25c0,2.83.36,17.65,10.26,28,6.66,7,16.23,10.58,28.44,10.67V107.27c-8.38-.1-14.81-2.55-19.14-7.3-6-6.59-6-15.43-5.91-17.72Z"/>
    </g>
    <g>
      <rect class="cls-3" x="36.5" y="190.5" width="172" height="163"/>
      <path class="cls-2" d="M208,191V353H37V191H208m1-1H36V354H209V190Z"/>
    </g>
    <g>
      <path class="cls-6" d="M51,263a1,1,0,0,1-1-1V233.48a1,1,0,0,1,2,0V262A1,1,0,0,1,51,263Z"/>
      <path class="cls-7" d="M56.67,263a1,1,0,0,1-1-1V233.48a1,1,0,0,1,2,0V262A1,1,0,0,1,56.67,263Z"/>
      <path class="cls-8" d="M62.36,263a1,1,0,0,1-1-1V233.48a1,1,0,0,1,2,0V262A1,1,0,0,1,62.36,263Z"/>
      <path class="cls-9" d="M68.06,263a1,1,0,0,1-1-1V233.48a1,1,0,1,1,2,0V262A1,1,0,0,1,68.06,263Z"/>
      <path class="cls-10" d="M73.75,263a1,1,0,0,1-1-1V233.48a1,1,0,0,1,2,0V262A1,1,0,0,1,73.75,263Z"/>
      <path class="cls-11" d="M79.44,263a1,1,0,0,1-1-1V233.48a1,1,0,1,1,2,0V262A1,1,0,0,1,79.44,263Z"/>
      <path class="cls-12" d="M85.14,263a1,1,0,0,1-1-1V233.48a1,1,0,0,1,2,0V262A1,1,0,0,1,85.14,263Z"/>
      <path class="cls-13" d="M90.83,263a1,1,0,0,1-1-1V233.48a1,1,0,0,1,2,0V262A1,1,0,0,1,90.83,263Z"/>
      <path class="cls-14" d="M96.52,263a1,1,0,0,1-1-1V233.48a1,1,0,0,1,2,0V262A1,1,0,0,1,96.52,263Z"/>
      <path class="cls-5" d="M102.22,263a1,1,0,0,1-1-1V233.48a1,1,0,0,1,2,0V262A1,1,0,0,1,102.22,263Z"/>
      <path class="cls-15" d="M107.91,263a1,1,0,0,1-1-1V233.48a1,1,0,0,1,2,0V262A1,1,0,0,1,107.91,263Z"/>
      <path class="cls-16" d="M113.61,263a1,1,0,0,1-1-1V233.48a1,1,0,0,1,2,0V262A1,1,0,0,1,113.61,263Z"/>
      <path class="cls-17" d="M119.3,263a1,1,0,0,1-1-1V233.48a1,1,0,0,1,2,0V262A1,1,0,0,1,119.3,263Z"/>
      <path class="cls-18" d="M125,263a1,1,0,0,1-1-1V233.48a1,1,0,0,1,2,0V262A1,1,0,0,1,125,263Z"/>
      <path class="cls-19" d="M130.69,263a1,1,0,0,1-1-1V233.48a1,1,0,1,1,2,0V262A1,1,0,0,1,130.69,263Z"/>
      <path class="cls-20" d="M136.38,263a1,1,0,0,1-1-1V233.48a1,1,0,0,1,2,0V262A1,1,0,0,1,136.38,263Z"/>
      <path class="cls-21" d="M142.07,263a1,1,0,0,1-1-1V233.48a1,1,0,1,1,2,0V262A1,1,0,0,1,142.07,263Z"/>
      <path class="cls-22" d="M147.77,263a1,1,0,0,1-1-1V233.48a1,1,0,0,1,2,0V262A1,1,0,0,1,147.77,263Z"/>
      <path class="cls-23" d="M153.46,263a1,1,0,0,1-1-1V233.48a1,1,0,0,1,2,0V262A1,1,0,0,1,153.46,263Z"/>
      <path class="cls-24" d="M159.16,263a1,1,0,0,1-1-1V233.48a1,1,0,0,1,2,0V262A1,1,0,0,1,159.16,263Z"/>
      <path class="cls-25" d="M164.85,263a1,1,0,0,1-1-1V233.48a1,1,0,0,1,2,0V262A1,1,0,0,1,164.85,263Z"/>
      <path class="cls-26" d="M170.54,263a1,1,0,0,1-1-1V233.48a1,1,0,0,1,2,0V262A1,1,0,0,1,170.54,263Z"/>
      <path class="cls-27" d="M176.24,263a1,1,0,0,1-1-1V233.48a1,1,0,0,1,2,0V262A1,1,0,0,1,176.24,263Z"/>
      <path class="cls-28" d="M181.93,263a1,1,0,0,1-1-1V233.48a1,1,0,1,1,2,0V262A1,1,0,0,1,181.93,263Z"/>
      <path class="cls-29" d="M187.62,263a1,1,0,0,1-1-1V233.48a1,1,0,0,1,2,0V262A1,1,0,0,1,187.62,263Z"/>
      <path class="cls-4" d="M193.32,263a1,1,0,0,1-1-1V233.48a1,1,0,1,1,2,0V262A1,1,0,0,1,193.32,263Z"/>
    </g>
    <g>
      <path class="cls-6" d="M51,324.21a1,1,0,0,1-1-1V294.74a1,1,0,0,1,2,0v28.47A1,1,0,0,1,51,324.21Z"/>
      <path class="cls-7" d="M56.67,324.21a1,1,0,0,1-1-1V294.74a1,1,0,0,1,2,0v28.47A1,1,0,0,1,56.67,324.21Z"/>
      <path class="cls-8" d="M62.36,324.21a1,1,0,0,1-1-1V294.74a1,1,0,0,1,2,0v28.47A1,1,0,0,1,62.36,324.21Z"/>
      <path class="cls-9" d="M68.06,324.21a1,1,0,0,1-1-1V294.74a1,1,0,0,1,2,0v28.47A1,1,0,0,1,68.06,324.21Z"/>
      <path class="cls-10" d="M73.75,324.21a1,1,0,0,1-1-1V294.74a1,1,0,0,1,2,0v28.47A1,1,0,0,1,73.75,324.21Z"/>
      <path class="cls-5" d="M79.44,324.21a1,1,0,0,1-1-1V294.74a1,1,0,0,1,2,0v28.47A1,1,0,0,1,79.44,324.21Z"/>
      <path class="cls-12" d="M85.14,324.21a1,1,0,0,1-1-1V294.74a1,1,0,0,1,2,0v28.47A1,1,0,0,1,85.14,324.21Z"/>
      <path class="cls-13" d="M90.83,324.21a1,1,0,0,1-1-1V294.74a1,1,0,0,1,2,0v28.47A1,1,0,0,1,90.83,324.21Z"/>
      <path class="cls-14" d="M96.52,324.21a1,1,0,0,1-1-1V294.74a1,1,0,0,1,2,0v28.47A1,1,0,0,1,96.52,324.21Z"/>
      <path class="cls-30" d="M102.22,324.21a1,1,0,0,1-1-1V294.74a1,1,0,0,1,2,0v28.47A1,1,0,0,1,102.22,324.21Z"/>
      <path class="cls-15" d="M107.91,324.21a1,1,0,0,1-1-1V294.74a1,1,0,0,1,2,0v28.47A1,1,0,0,1,107.91,324.21Z"/>
      <path class="cls-16" d="M113.61,324.21a1,1,0,0,1-1-1V294.74a1,1,0,0,1,2,0v28.47A1,1,0,0,1,113.61,324.21Z"/>
      <path class="cls-17" d="M119.3,324.21a1,1,0,0,1-1-1V294.74a1,1,0,0,1,2,0v28.47A1,1,0,0,1,119.3,324.21Z"/>
      <path class="cls-18" d="M125,324.21a1,1,0,0,1-1-1V294.74a1,1,0,0,1,2,0v28.47A1,1,0,0,1,125,324.21Z"/>
      <path class="cls-19" d="M130.69,324.21a1,1,0,0,1-1-1V294.74a1,1,0,0,1,2,0v28.47A1,1,0,0,1,130.69,324.21Z"/>
      <path class="cls-20" d="M136.38,324.21a1,1,0,0,1-1-1V294.74a1,1,0,0,1,2,0v28.47A1,1,0,0,1,136.38,324.21Z"/>
      <path class="cls-21" d="M142.07,324.21a1,1,0,0,1-1-1V294.74a1,1,0,0,1,2,0v28.47A1,1,0,0,1,142.07,324.21Z"/>
      <path class="cls-22" d="M147.77,324.21a1,1,0,0,1-1-1V294.74a1,1,0,0,1,2,0v28.47A1,1,0,0,1,147.77,324.21Z"/>
      <path class="cls-5" d="M153.46,324.21a1,1,0,0,1-1-1V294.74a1,1,0,0,1,2,0v28.47A1,1,0,0,1,153.46,324.21Z"/>
      <path class="cls-24" d="M159.16,324.21a1,1,0,0,1-1-1V294.74a1,1,0,0,1,2,0v28.47A1,1,0,0,1,159.16,324.21Z"/>
      <path class="cls-25" d="M164.85,324.21a1,1,0,0,1-1-1V294.74a1,1,0,0,1,2,0v28.47A1,1,0,0,1,164.85,324.21Z"/>
      <path class="cls-26" d="M170.54,324.21a1,1,0,0,1-1-1V294.74a1,1,0,0,1,2,0v28.47A1,1,0,0,1,170.54,324.21Z"/>
      <path class="cls-27" d="M176.24,324.21a1,1,0,0,1-1-1V294.74a1,1,0,0,1,2,0v28.47A1,1,0,0,1,176.24,324.21Z"/>
      <path class="cls-28" d="M181.93,324.21a1,1,0,0,1-1-1V294.74a1,1,0,0,1,2,0v28.47A1,1,0,0,1,181.93,324.21Z"/>
      <path class="cls-29" d="M187.62,324.21a1,1,0,0,1-1-1V294.74a1,1,0,0,1,2,0v28.47A1,1,0,0,1,187.62,324.21Z"/>
      <path class="cls-4" d="M193.32,324.21a1,1,0,0,1-1-1V294.74a1,1,0,0,1,2,0v28.47A1,1,0,0,1,193.32,324.21Z"/>
    </g>
    <g>
      <rect class="cls-2" x="245.5" y="263.63" width="122.5" height="108.88"/>
      <path class="cls-2" d="M367.5,264.13V372H246V264.13H367.5m1-1H245V373H368.5V263.13Z"/>
    </g>
    <g>
      <rect class="cls-3" x="248" y="260.75" width="122.5" height="108.88"/>
      <path class="cls-2" d="M370,261.25V369.14H248.5V261.25H370m1-1H247.5V370.14H371V260.25Z"/>
    </g>
    <g>
      <path class="cls-3" d="M447.83,155.89c-.18,1.69-1,2.65-2.62,2.65-1.89,0-2.8-1.41-2.8-3.76s1-3.75,2.85-3.75c1.6,0,2.37,1.05,2.51,2.64H446.3c-.08-1-.38-1.46-1.1-1.46s-1.2.76-1.2,2.57.38,2.58,1.2,2.58c.65,0,1.07-.39,1.14-1.47Z"/>
      <path class="cls-3" d="M451.54,151.16c1.66,0,2.81.54,2.81,2.23s-1.15,2.2-2.81,2.2h-.74v2.82h-1.5v-7.25Zm-.74,1.22v2h.7c.69,0,1.25-.23,1.25-1s-.56-1-1.25-1Z"/>
      <path class="cls-3" d="M457,151.16v4.51c0,1.05.22,1.64,1.06,1.64s1-.68,1-1.75v-4.4h1.5v4.09c0,2.23-.53,3.29-2.52,3.29s-2.56-.84-2.56-3.23v-4.15Z"/>
      <path class="cls-3" d="M469.93,151.16v4.51c0,1.05.22,1.64,1.06,1.64s1-.68,1-1.75v-4.4h1.5v4.09c0,2.23-.53,3.29-2.52,3.29s-2.56-.84-2.56-3.23v-4.15Z"/>
      <path class="cls-3" d="M477.44,151a2.37,2.37,0,0,1,2.51,2.29h-1.44a1.14,1.14,0,0,0-1.15-1.14.84.84,0,0,0-.94.81c0,.46.26.8.91,1l.63.16c1,.24,2.14.71,2.14,2.18a2.25,2.25,0,0,1-2.47,2.25A2.66,2.66,0,0,1,474.8,156h1.45c.11.82.56,1.38,1.34,1.38a.89.89,0,0,0,1-.86c0-.54-.35-.89-1.06-1.07l-.74-.2a2.14,2.14,0,1,1,.65-4.23Z"/>
      <path class="cls-3" d="M483,151.16h1.87l1.87,7.25h-1.64l-.33-1.51H483l-.33,1.51h-1.6Zm.33,4.57h1.18l-.58-2.66Z"/>
      <path class="cls-3" d="M491.6,153.58c-.06-.93-.49-1.37-1.19-1.37s-1.28.76-1.28,2.57.44,2.58,1.28,2.58c.69,0,1.19-.56,1.19-1.48v-.17h-1.32v-1.18h2.83v3.88H492l0-.9a1.65,1.65,0,0,1-1.64,1c-1.76,0-2.73-1.41-2.73-3.76s1-3.75,2.92-3.75a2.5,2.5,0,0,1,2.62,2.55Z"/>
      <path class="cls-3" d="M494.65,151.16H499v1.29h-2.89v1.61h2.69v1.29h-2.69v1.77H499v1.29h-4.39Z"/>
    </g>
    <g>
      <path class="cls-2" d="M131.24,142.16h2.16v7.25h-1.47v-3.3l0-2.72h-.06l-.62,3.69h-1.06l-.61-3.69h-.07l0,2.72v3.3H128.1v-7.25h2.16l.49,3.07Z"/>
      <path class="cls-2" d="M135.05,142.16h4.39v1.29h-2.89v1.61h2.69v1.29h-2.69v1.77h2.89v1.29h-4.39Z"/>
      <path class="cls-2" d="M144.16,142.16h2.16v7.25h-1.47v-3.3l0-2.72h-.06l-.62,3.69h-1.06l-.61-3.69h-.07l0,2.72v3.3H141v-7.25h2.16l.49,3.07Z"/>
      <path class="cls-2" d="M150.13,142c2,0,2.84,1.5,2.84,3.75s-.88,3.76-2.84,3.76-2.84-1.51-2.84-3.76S148.17,142,150.13,142Zm0,6.33c.93,0,1.25-1.05,1.25-2.58s-.32-2.57-1.25-2.57-1.25,1-1.25,2.57S149.21,148.36,150.13,148.36Z"/>
      <path class="cls-2" d="M156.23,146.47h-.57v2.94h-1.5v-7.25h1.93c1.65,0,2.9.35,2.9,2.15a1.79,1.79,0,0,1-1.3,1.84l1.62,3.26h-1.65Zm-.57-3.09v1.91h.48c.71,0,1.26-.17,1.26-.95s-.55-1-1.26-1Z"/>
      <path class="cls-2" d="M164.34,142.16h1.71l-2.25,4.65v2.6h-1.5v-2.6l-2.25-4.65h1.71l1.29,3Z"/>
      <path class="cls-2" d="M175.92,142.16c1.66,0,2.81.54,2.81,2.23s-1.15,2.2-2.81,2.2h-.74v2.82h-1.5v-7.25Zm-.74,1.22v2h.7c.69,0,1.25-.23,1.25-1s-.56-1-1.25-1Z"/>
      <path class="cls-2" d="M182.07,146.47h-.57v2.94H180v-7.25h1.93c1.65,0,2.9.35,2.9,2.15a1.79,1.79,0,0,1-1.3,1.84l1.62,3.26H183.5Zm-.57-3.09v1.91H182c.71,0,1.26-.17,1.26-.95s-.55-1-1.26-1Z"/>
      <path class="cls-2" d="M186.73,142.16h4.39v1.29h-2.89v1.61h2.69v1.29h-2.69v1.77h2.89v1.29h-4.39Z"/>
      <path class="cls-2" d="M195.36,142a2.37,2.37,0,0,1,2.51,2.29h-1.44a1.14,1.14,0,0,0-1.15-1.14.84.84,0,0,0-.94.81c0,.46.26.8.91,1l.63.16c1,.24,2.14.71,2.14,2.18a2.25,2.25,0,0,1-2.47,2.25,2.66,2.66,0,0,1-2.83-2.53h1.45c.11.82.56,1.38,1.34,1.38a.89.89,0,0,0,1-.86c0-.54-.35-.89-1.06-1.07l-.74-.2a2.14,2.14,0,1,1,.65-4.23Z"/>
      <path class="cls-2" d="M201.82,142a2.37,2.37,0,0,1,2.51,2.29h-1.44a1.14,1.14,0,0,0-1.15-1.14.84.84,0,0,0-.94.81c0,.46.26.8.91,1l.63.16c1,.24,2.14.71,2.14,2.18a2.25,2.25,0,0,1-2.47,2.25,2.66,2.66,0,0,1-2.83-2.53h1.45c.11.82.56,1.38,1.34,1.38a.89.89,0,0,0,1-.86c0-.54-.35-.89-1.06-1.07l-.74-.2a2.14,2.14,0,1,1,.65-4.23Z"/>
      <path class="cls-2" d="M207.23,142.16v4.51c0,1.05.22,1.64,1.06,1.64s1-.68,1-1.75v-4.4h1.5v4.09c0,2.23-.53,3.29-2.52,3.29s-2.56-.84-2.56-3.23v-4.15Z"/>
      <path class="cls-2" d="M214.37,146.47h-.57v2.94h-1.5v-7.25h1.93c1.65,0,2.9.35,2.9,2.15a1.79,1.79,0,0,1-1.3,1.84l1.62,3.26H215.8Zm-.57-3.09v1.91h.48c.71,0,1.26-.17,1.26-.95s-.55-1-1.26-1Z"/>
      <path class="cls-2" d="M219,142.16h4.39v1.29h-2.89v1.61h2.69v1.29h-2.69v1.77h2.89v1.29H219Z"/>
    </g>
    <g>
      <path class="cls-2" d="M93.6,214.89c-.18,1.69-1,2.65-2.62,2.65-1.89,0-2.8-1.41-2.8-3.76S89.14,210,91,210c1.6,0,2.37,1.05,2.51,2.64H92.07c-.08-1-.38-1.46-1.1-1.46s-1.2.76-1.2,2.57.38,2.58,1.2,2.58c.65,0,1.07-.39,1.14-1.47Z"/>
      <path class="cls-2" d="M97.36,210c2,0,2.84,1.5,2.84,3.75s-.88,3.76-2.84,3.76-2.84-1.51-2.84-3.76S95.4,210,97.36,210Zm0,6.33c.93,0,1.25-1.05,1.25-2.58s-.32-2.57-1.25-2.57-1.25,1-1.25,2.57S96.44,216.36,97.36,216.36Z"/>
      <path class="cls-2" d="M104.42,217.41l-1.59-5v5h-1.5v-7.25h1.88l1.6,5v-5h1.5v7.25Z"/>
      <path class="cls-2" d="M110.88,217.41l-1.59-5v5h-1.5v-7.25h1.88l1.6,5v-5h1.5v7.25Z"/>
      <path class="cls-2" d="M114.58,210.16H119v1.29h-2.89v1.61h2.69v1.29h-2.69v1.77H119v1.29h-4.39Z"/>
      <path class="cls-2" d="M125.9,214.89c-.18,1.69-1,2.65-2.62,2.65-1.89,0-2.8-1.41-2.8-3.76s1-3.75,2.85-3.75c1.6,0,2.37,1.05,2.51,2.64h-1.47c-.08-1-.38-1.46-1.1-1.46s-1.2.76-1.2,2.57.38,2.58,1.2,2.58c.65,0,1.07-.39,1.14-1.47Z"/>
      <path class="cls-2" d="M128.91,211.45h-2v-1.29h5.6v1.29h-2.05v6h-1.5Z"/>
      <path class="cls-2" d="M133.65,210.16h4.94v1.29h-1.72v4.67h1.72v1.29h-4.94v-1.29h1.72v-4.67h-1.72Z"/>
      <path class="cls-2" d="M142.58,210c2,0,2.84,1.5,2.84,3.75s-.88,3.76-2.84,3.76-2.84-1.51-2.84-3.76S140.62,210,142.58,210Zm0,6.33c.93,0,1.25-1.05,1.25-2.58s-.32-2.57-1.25-2.57-1.25,1-1.25,2.57S141.66,216.36,142.58,216.36Z"/>
      <path class="cls-2" d="M149.64,217.41l-1.59-5v5h-1.5v-7.25h1.88l1.6,5v-5h1.5v7.25Z"/>
    </g>
    <g>
      <path class="cls-2" d="M53.6,270.16c2,0,3.5.85,3.5,3.62s-1.56,3.63-3.54,3.63H51.9v-7.25Zm-.07,1.22H53.4v4.8h.13c1.22,0,2-.49,2-2.4S54.75,271.38,53.53,271.38Z"/>
      <path class="cls-2" d="M60.82,270c2,0,2.84,1.5,2.84,3.75s-.88,3.76-2.84,3.76S58,276,58,273.78,58.86,270,60.82,270Zm0,6.33c.93,0,1.25-1.05,1.25-2.58s-.32-2.57-1.25-2.57-1.25,1-1.25,2.57S59.9,276.36,60.82,276.36Z"/>
      <path class="cls-2" d="M68.37,275.44l.25-5.28h1.57l-.45,7.25H67.9l-.63-3.69-.62,3.69H64.81l-.45-7.25h1.57l.24,5.28.54-3.35h1.12Z"/>
      <path class="cls-2" d="M74.34,277.41l-1.59-5v5h-1.5v-7.25h1.88l1.6,5v-5h1.5v7.25Z"/>
      <path class="cls-2" d="M79.52,276.12H82.9v1.29H78v-7.25h1.5Z"/>
      <path class="cls-2" d="M86.66,270c2,0,2.84,1.5,2.84,3.75s-.88,3.76-2.84,3.76-2.84-1.51-2.84-3.76S84.7,270,86.66,270Zm0,6.33c.93,0,1.25-1.05,1.25-2.58s-.32-2.57-1.25-2.57-1.25,1-1.25,2.57S85.74,276.36,86.66,276.36Z"/>
      <path class="cls-2" d="M92.18,270.16h1.87l1.87,7.25H94.28L94,275.9h-1.7l-.33,1.51h-1.6Zm.33,4.57h1.18l-.58-2.66Z"/>
      <path class="cls-2" d="M98.82,270.16c2,0,3.5.85,3.5,3.62s-1.56,3.63-3.54,3.63H97.12v-7.25Zm-.07,1.22h-.13v4.8h.13c1.22,0,2-.49,2-2.4S100,271.38,98.75,271.38Z"/>
    </g>
    <g>
      <path class="cls-2" d="M50.78,334.16v4.51c0,1.05.22,1.64,1.06,1.64s1-.68,1-1.75v-4.4h1.5v4.09c0,2.23-.53,3.29-2.52,3.29s-2.56-.84-2.56-3.23v-4.15Z"/>
      <path class="cls-2" d="M58.23,334.16c1.66,0,2.81.54,2.81,2.23s-1.15,2.2-2.81,2.2h-.74v2.82H56v-7.25Zm-.74,1.22v2h.7c.69,0,1.25-.23,1.25-1s-.56-1-1.25-1Z"/>
      <path class="cls-2" d="M64.06,340.12h3.38v1.29H62.56v-7.25h1.5Z"/>
      <path class="cls-2" d="M71.2,334c2,0,2.84,1.5,2.84,3.75s-.88,3.76-2.84,3.76-2.84-1.51-2.84-3.76S69.24,334,71.2,334Zm0,6.33c.93,0,1.25-1.05,1.25-2.58s-.32-2.57-1.25-2.57-1.25,1-1.25,2.57S70.28,340.36,71.2,340.36Z"/>
      <path class="cls-2" d="M76.72,334.16h1.87l1.87,7.25H78.82l-.33-1.51h-1.7l-.33,1.51h-1.6Zm.33,4.57h1.18l-.58-2.66Z"/>
      <path class="cls-2" d="M83.36,334.16c2,0,3.5.85,3.5,3.62s-1.56,3.63-3.54,3.63H81.66v-7.25Zm-.07,1.22h-.13v4.8h.13c1.22,0,2-.49,2-2.4S84.51,335.38,83.29,335.38Z"/>
    </g>
    <g>
      <path class="cls-2" d="M490.08,367.16c1.66,0,2.81.54,2.81,2.23s-1.15,2.2-2.81,2.2h-.74v2.82h-1.5v-7.25Zm-.74,1.22v2h.7c.69,0,1.25-.23,1.25-1s-.56-1-1.25-1Z"/>
      <path class="cls-2" d="M496.23,371.47h-.57v2.94h-1.5v-7.25h1.93c1.65,0,2.9.35,2.9,2.15a1.79,1.79,0,0,1-1.3,1.84l1.62,3.26h-1.65Zm-.57-3.09v1.91h.48c.71,0,1.26-.17,1.26-1s-.55-1-1.26-1Z"/>
      <path class="cls-2" d="M503.05,367c2,0,2.84,1.5,2.84,3.75s-.88,3.76-2.84,3.76-2.84-1.51-2.84-3.76S501.09,367,503.05,367Zm0,6.33c.93,0,1.25-1.05,1.25-2.58s-.32-2.57-1.25-2.57-1.25,1-1.25,2.57S502.13,373.36,503.05,373.36Z"/>
      <path class="cls-2" d="M512.21,371.89c-.18,1.69-1,2.65-2.62,2.65-1.89,0-2.8-1.41-2.8-3.76s1-3.75,2.85-3.75c1.6,0,2.37,1.05,2.51,2.64h-1.47c-.08-1-.38-1.46-1.1-1.46s-1.2.76-1.2,2.57.38,2.58,1.2,2.58c.65,0,1.07-.39,1.14-1.47Z"/>
      <path class="cls-2" d="M513.81,367.16h4.39v1.29h-2.89v1.61H518v1.29h-2.69v1.77h2.89v1.29h-4.39Z"/>
      <path class="cls-2" d="M522.44,367a2.37,2.37,0,0,1,2.51,2.29h-1.44a1.14,1.14,0,0,0-1.15-1.14.84.84,0,0,0-.94.81c0,.46.26.8.91,1l.63.16c1,.24,2.14.71,2.14,2.18a2.25,2.25,0,0,1-2.47,2.25A2.66,2.66,0,0,1,519.8,372h1.45c.11.82.56,1.38,1.34,1.38a.89.89,0,0,0,1-.86c0-.54-.35-.89-1.06-1.07l-.74-.2a2.14,2.14,0,1,1,.65-4.23Z"/>
      <path class="cls-2" d="M528.9,367a2.37,2.37,0,0,1,2.51,2.29H530a1.14,1.14,0,0,0-1.15-1.14.84.84,0,0,0-.94.81c0,.46.26.8.91,1l.63.16c1,.24,2.14.71,2.14,2.18a2.25,2.25,0,0,1-2.47,2.25,2.66,2.66,0,0,1-2.83-2.53h1.45c.11.82.56,1.38,1.34,1.38a.89.89,0,0,0,1-.86c0-.54-.35-.89-1.06-1.07l-.74-.2a2.14,2.14,0,1,1,.65-4.23Z"/>
      <path class="cls-2" d="M533.19,367.16h4.39v1.29h-2.89v1.61h2.69v1.29h-2.69v1.77h2.89v1.29h-4.39Z"/>
      <path class="cls-2" d="M541.82,367a2.37,2.37,0,0,1,2.51,2.29h-1.44a1.14,1.14,0,0,0-1.15-1.14.84.84,0,0,0-.94.81c0,.46.26.8.91,1l.63.16c1,.24,2.14.71,2.14,2.18a2.25,2.25,0,0,1-2.47,2.25,2.66,2.66,0,0,1-2.83-2.53h1.45c.11.82.56,1.38,1.34,1.38a.89.89,0,0,0,1-.86c0-.54-.35-.89-1.06-1.07l-.74-.2a2.14,2.14,0,1,1,.65-4.23Z"/>
    </g>
    <g>
      <path class="cls-2" d="M293.11,352.16H295l1.87,7.25h-1.64l-.33-1.51h-1.7l-.33,1.51h-1.6Zm.33,4.57h1.18l-.58-2.66Z"/>
      <path class="cls-2" d="M299.83,358.12h3.38v1.29h-4.88v-7.25h1.5Z"/>
      <path class="cls-2" d="M304.81,352.16h4.39v1.29h-2.89v1.61H309v1.29h-2.69v1.77h2.89v1.29h-4.39Z"/>
      <path class="cls-2" d="M313.07,356.47h-.57v2.94H311v-7.25h1.93c1.65,0,2.9.35,2.9,2.15a1.79,1.79,0,0,1-1.3,1.84l1.62,3.26H314.5Zm-.57-3.09v1.91H313c.71,0,1.26-.17,1.26-1s-.55-1-1.26-1Z"/>
      <path class="cls-2" d="M319.14,353.45h-2.05v-1.29h5.6v1.29h-2.05v6h-1.5Z"/>
    </g>
  </g>
  <g id="Exmple_from_2" data-name="Exmple from 2">
    <g>
      <circle class="cls-5" cx="308.5" cy="308.5" r="33"/>
      <path d="M308.5,342A33.5,33.5,0,1,1,342,308.5,33.54,33.54,0,0,1,308.5,342Zm0-66A32.5,32.5,0,1,0,341,308.5,32.54,32.54,0,0,0,308.5,276Z"/>
    </g>
    <g>
      <path class="cls-31" d="M291.11,321.74l9-23.2h4.1l-9,23.2Z"/>
      <path class="cls-31" d="M316.9,314.35l-1.57-9.47v-6.34h6v6.34l-1.57,9.47Zm-1.57,7.39V316h6v5.7Z"/>
    </g>
    <g>
      <rect class="cls-2" x="231" y="221.58" width="241" height="16.92"/>
      <path class="cls-2" d="M471.5,222.08V238h-240V222.08h240m1-1h-242V239h242V221.08Z"/>
    </g>
    <g>
      <rect class="cls-3" x="233" y="219.58" width="241" height="16.92"/>
      <path class="cls-2" d="M473.5,220.08V236h-240V220.08h240m1-1h-242V237h242V219.08Z"/>
    </g>
    <g>
      <rect class="cls-32" x="233" y="219.58" width="75.5" height="16.92"/>
      <path class="cls-2" d="M308,220.08V236H233.5V220.08H308m1-1H232.5V237H309V219.08Z"/>
    </g>
    <g>
      <rect class="cls-2" x="281" y="188.58" width="241" height="16.92"/>
      <path class="cls-2" d="M521.5,189.08V205h-240V189.08h240m1-1h-242V206h242V188.08Z"/>
    </g>
    <g>
      <rect class="cls-3" x="283" y="186.58" width="241" height="16.92"/>
      <path class="cls-2" d="M523.5,187.08V203h-240V187.08h240m1-1h-242V204h242V186.08Z"/>
    </g>
    <g>
      <rect class="cls-32" x="283" y="186.58" width="161.5" height="16.92"/>
      <path class="cls-2" d="M444,187.08V203H283.5V187.08H444m1-1H282.5V204H445V186.08Z"/>
    </g>
    <g>
      <path class="cls-2" d="M247.37,224a2.37,2.37,0,0,1,2.51,2.29h-1.44a1.14,1.14,0,0,0-1.15-1.14.84.84,0,0,0-.94.81c0,.46.26.8.91,1l.63.16c1,.24,2.14.71,2.14,2.18a2.25,2.25,0,0,1-2.47,2.25,2.66,2.66,0,0,1-2.83-2.53h1.45c.11.82.56,1.38,1.34,1.38a.89.89,0,0,0,1-.86c0-.54-.35-.89-1.06-1.07l-.74-.2a2.14,2.14,0,1,1,.65-4.23Z"/>
      <path class="cls-2" d="M253.83,224a2.37,2.37,0,0,1,2.51,2.29H254.9a1.14,1.14,0,0,0-1.15-1.14.84.84,0,0,0-.94.81c0,.46.26.8.91,1l.63.16c1,.24,2.14.71,2.14,2.18a2.25,2.25,0,0,1-2.47,2.25,2.66,2.66,0,0,1-2.83-2.53h1.45c.11.82.56,1.38,1.34,1.38a.89.89,0,0,0,1-.86c0-.54-.35-.89-1.06-1.07l-.74-.2a2.14,2.14,0,1,1,.65-4.23Z"/>
      <path class="cls-2" d="M259.52,224.16c2,0,3.5.85,3.5,3.62s-1.56,3.63-3.54,3.63h-1.66v-7.25Zm-.07,1.22h-.13v4.8h.13c1.22,0,2-.49,2-2.4S260.67,225.38,259.45,225.38Z"/>
      <path class="cls-2" d="M272.16,224.16v4.51c0,1.05.22,1.64,1.06,1.64s1-.68,1-1.75v-4.4h1.5v4.09c0,2.23-.53,3.29-2.52,3.29s-2.56-.84-2.56-3.23v-4.15Z"/>
      <path class="cls-2" d="M279.67,224a2.37,2.37,0,0,1,2.51,2.29h-1.44a1.14,1.14,0,0,0-1.15-1.14.84.84,0,0,0-.94.81c0,.46.26.8.91,1l.63.16c1,.24,2.14.71,2.14,2.18a2.25,2.25,0,0,1-2.47,2.25A2.66,2.66,0,0,1,277,229h1.45c.11.82.56,1.38,1.34,1.38a.89.89,0,0,0,1-.86c0-.54-.35-.89-1.06-1.07l-.74-.2a2.14,2.14,0,1,1,.65-4.23Z"/>
      <path class="cls-2" d="M284,224.16h4.39v1.29h-2.89v1.61h2.69v1.29h-2.69v1.77h2.89v1.29H284Z"/>
      <path class="cls-2" d="M291.82,224.16c2,0,3.5.85,3.5,3.62s-1.56,3.63-3.54,3.63h-1.66v-7.25Zm-.07,1.22h-.13v4.8h.13c1.22,0,2-.49,2-2.4S293,225.38,291.75,225.38Z"/>
    </g>
    <g>
      <path class="cls-2" d="M341.91,191.16v7.25h-1.5v-3.06h-2.1v3.06h-1.5v-7.25h1.5v2.9h2.1v-2.9Z"/>
      <path class="cls-2" d="M348.37,191.16v7.25h-1.5v-3.06h-2.1v3.06h-1.5v-7.25h1.5v2.9h2.1v-2.9Z"/>
      <path class="cls-2" d="M351.52,191.16c2,0,3.5.85,3.5,3.62s-1.56,3.63-3.54,3.63h-1.66v-7.25Zm-.07,1.22h-.13v4.8h.13c1.22,0,2-.49,2-2.4S352.67,192.38,351.45,192.38Z"/>
      <path class="cls-2" d="M364.16,191.16v4.51c0,1.05.22,1.64,1.06,1.64s1-.68,1-1.75v-4.4h1.5v4.09c0,2.23-.53,3.29-2.52,3.29s-2.56-.84-2.56-3.23v-4.15Z"/>
      <path class="cls-2" d="M371.67,191a2.37,2.37,0,0,1,2.51,2.29h-1.44a1.14,1.14,0,0,0-1.15-1.14.84.84,0,0,0-.94.81c0,.46.26.8.91,1l.63.16c1,.24,2.14.71,2.14,2.18a2.25,2.25,0,0,1-2.47,2.25A2.66,2.66,0,0,1,369,196h1.45c.11.82.56,1.38,1.34,1.38a.89.89,0,0,0,1-.86c0-.54-.35-.89-1.06-1.07l-.74-.2a2.14,2.14,0,1,1,.65-4.23Z"/>
      <path class="cls-2" d="M376,191.16h4.39v1.29h-2.89v1.61h2.69v1.29h-2.69v1.77h2.89v1.29H376Z"/>
      <path class="cls-2" d="M383.82,191.16c2,0,3.5.85,3.5,3.62s-1.56,3.63-3.54,3.63h-1.66v-7.25Zm-.07,1.22h-.13v4.8h.13c1.22,0,2-.49,2-2.4S385,192.38,383.75,192.38Z"/>
    </g>
  </g>
</svg>
