<svg xmlns="http://www.w3.org/2000/svg" xmlns:xlink="http://www.w3.org/1999/xlink" viewBox="0 0 640 420">
  <defs>
    <style>
      .cls-1, .cls-11 {
        fill: none;
      }

      .cls-2 {
        fill: #fff4ff;
      }

      .cls-3 {
        fill: #fff5ff;
      }

      .cls-4 {
        fill: #10162f;
      }

      .cls-5 {
        clip-path: url(#clip-path);
      }

      .cls-6 {
        clip-path: url(#clip-path-2);
      }

      .cls-7 {
        fill: #f966ff;
      }

      .cls-8 {
        fill: #fdf6fe;
      }

      .cls-9 {
        clip-path: url(#clip-path-3);
      }

      .cls-10 {
        clip-path: url(#clip-path-4);
      }

      .cls-11 {
        stroke: #10162f;
        stroke-miterlimit: 10;
      }

      .cls-12 {
        fill: #fff9e4;
      }
    </style>
    <clipPath id="clip-path">
      <rect class="cls-1" x="30" y="30" width="580" height="360"/>
    </clipPath>
    <clipPath id="clip-path-2">
      <circle class="cls-2" cx="320.5" cy="457.5" r="217.5"/>
    </clipPath>
    <clipPath id="clip-path-3">
      <rect class="cls-1" x="30" y="-478" width="580" height="360"/>
    </clipPath>
    <clipPath id="clip-path-4">
      <circle class="cls-2" cx="320.5" cy="-50.5" r="217.5"/>
    </clipPath>
  </defs>
  <g id="BG">
    <g>
      <rect class="cls-3" x="0.75" y="0.11" width="639" height="419"/>
      <path class="cls-4" d="M639.25.61v418H1.25V.61h638m1-1H.25v420h640V-.39Z"/>
    </g>
  </g>
  <g id="Layer_3" data-name="Layer 3">
    <path class="cls-4" d="M609,31V389H31V31H609m1-1H30V390H610V30Z"/>
  </g>
  <g id="Layer_2" data-name="Layer 2">
    <g class="cls-5">
      <g>
        <g>
          <circle class="cls-2" cx="320.5" cy="457.5" r="217.5"/>
          <g class="cls-6">
            <g>
              <path class="cls-4" d="M392.63,460.39a14.57,14.57,0,0,1-10.13-3.72c-6.87-6.38-5.39-18.2-.37-26.59l.72-1.17c1.69-2.75,3.44-5.59,3.3-8.85s-2.26-6.1-4.31-8.73c-.59-.77-1.21-1.56-1.76-2.35-6.36-9.13-5.16-23,2.67-30.91A51.17,51.17,0,0,1,389,373c2.93-2.12,6-4.32,8.19-7.26A13.63,13.63,0,0,0,399.3,354a7.29,7.29,0,0,0-4.85-5,13.44,13.44,0,0,0-3.93-.4,17,17,0,0,1-3-.19,8,8,0,0,1-5.92-5.33,13.69,13.69,0,0,1,1.64-12.59c4.38-5.77,11.76-8.09,18.9-10.33l.81-.25c7.42-2.34,15.47-5.67,19-12.65a31.48,31.48,0,0,0,2.21-6.94,41,41,0,0,1,1.51-5.33c4.91-12.58,18.71-16.64,32.06-20.57,5.91-1.74,11.49-3.38,16.12-5.72a29,29,0,0,0,6.61-5.12c.89-.84,1.81-1.71,2.76-2.5A28.15,28.15,0,0,1,501,254.44a23.38,23.38,0,0,1,6.4.88c8.55,2.46,15,10.27,15.23,18.59,0,1.08,0,2.22-.07,3.32-.15,2.86-.3,5.83,1.11,8.39,1.66,3,4.86,4.44,8,5.81a32.22,32.22,0,0,1,4.58,2.32c4.62,3.05,9.24,10.92,7,23.08A48.57,48.57,0,0,1,514.87,352c-1.08.45-2.18.87-3.29,1.28a39.12,39.12,0,0,0-8.16,3.83c-5.17,3.5-8.23,9.12-11.18,14.56-.9,1.64-1.82,3.34-2.79,4.95a61,61,0,0,1-35.07,26.91c-1.35.39-2.75.74-4.1,1.08a47.89,47.89,0,0,0-10.47,3.49c-8.67,4.48-13.78,13.73-17.62,22.18-.45,1-.89,2-1.33,3-3.42,7.66-7,15.58-13.15,21.18a23.16,23.16,0,0,1-15.08,6Z"/>
              <path class="cls-2" d="M501,254.94a22.8,22.8,0,0,1,6.26.86c8.35,2.4,14.61,10,14.87,18.12,0,1.07,0,2.19-.07,3.28-.15,2.94-.3,6,1.18,8.66,1.74,3.17,5,4.62,8.19,6a31.62,31.62,0,0,1,4.5,2.28,16.2,16.2,0,0,1,6.52,9.79,30.53,30.53,0,0,1,.27,12.78,48,48,0,0,1-28,34.79c-1.07.45-2.19.87-3.27,1.28a39.32,39.32,0,0,0-8.26,3.88c-5.28,3.57-8.37,9.25-11.35,14.74-.9,1.64-1.82,3.33-2.78,4.93a60.59,60.59,0,0,1-34.77,26.69c-1.35.38-2.75.73-4.1,1.07a48.32,48.32,0,0,0-10.57,3.54c-8.81,4.54-14,13.88-17.85,22.42-.44,1-.88,2-1.32,2.95-3.41,7.61-6.92,15.48-13,21a22.65,22.65,0,0,1-14.75,5.85,14.08,14.08,0,0,1-9.79-3.58c-6.68-6.2-5.19-17.76-.28-26,.23-.39.47-.77.71-1.16,1.73-2.82,3.52-5.73,3.38-9.14s-2.32-6.32-4.42-9c-.59-.76-1.2-1.55-1.74-2.32-6.23-8.95-5.05-22.53,2.62-30.27a49.35,49.35,0,0,1,6.2-5c3-2.15,6-4.36,8.3-7.37a14.12,14.12,0,0,0,2.17-12.22,7.78,7.78,0,0,0-5.19-5.3,13.79,13.79,0,0,0-4.06-.42,15.89,15.89,0,0,1-2.89-.19,7.45,7.45,0,0,1-5.54-5,13.15,13.15,0,0,1,1.57-12.11c4.28-5.64,11.58-7.93,18.64-10.15l.82-.26c7.52-2.36,15.69-5.74,19.28-12.9a31.77,31.77,0,0,0,2.25-7.05,39,39,0,0,1,1.49-5.26c4.82-12.35,18.5-16.38,31.73-20.27,5.93-1.75,11.53-3.39,16.21-5.75a29.36,29.36,0,0,0,6.72-5.21c.89-.83,1.81-1.7,2.74-2.48A27.63,27.63,0,0,1,501,254.94m0-1a28.62,28.62,0,0,0-18.07,6.74c-3.07,2.57-5.7,5.77-9.27,7.57-15,7.58-41.23,8.11-48.42,26.54-1.55,4-1.79,8.42-3.71,12.23-3.44,6.87-11.35,10.09-18.68,12.4s-15.31,4.63-20,10.75-3,17.29,4.59,18.72c2.26.42,4.65-.08,6.85.57,6.07,1.81,6.33,10.92,2.5,16s-10,7.79-14.41,12.29c-8.06,8.14-9.27,22.15-2.73,31.55,2.39,3.43,5.8,6.63,6,10.81.15,3.56-2.12,6.69-3.95,9.75-5,8.43-6.74,20.52.46,27.21a15.07,15.07,0,0,0,10.47,3.85,23.77,23.77,0,0,0,15.42-6.11c7.06-6.39,10.65-15.62,14.59-24.29s8.94-17.58,17.4-21.95c4.51-2.32,9.61-3.13,14.48-4.53a61.58,61.58,0,0,0,35.36-27.14C494,370,497.07,362,503.71,357.52c3.44-2.33,7.52-3.46,11.36-5.06a48.83,48.83,0,0,0,28.61-35.54c1.58-8.57.07-18.79-7.22-23.58-4.16-2.74-10-3.59-12.37-8-1.87-3.41-.85-7.6-1-11.49-.28-8.77-7.16-16.63-15.6-19a23.71,23.71,0,0,0-6.53-.9Z"/>
            </g>
            <g>
              <path class="cls-4" d="M126.31,448.42l-.64,0c-3.15-.3-6.16-1.62-9.08-2.89a34.05,34.05,0,0,0-8.66-2.88c-.81-.12-1.64-.18-2.44-.24a14.26,14.26,0,0,1-5.08-1,6.94,6.94,0,0,1-3.81-4.31c-1.59-4.89.83-12,3.63-17,2.9-5.22,5-12.72,3.09-17.73a7.6,7.6,0,0,0-4.76-4.66,10.66,10.66,0,0,0-3.61-.53c-.74,0-1.49,0-2.24.08s-1.47.09-2.2.09a12.45,12.45,0,0,1-1.7-.1,10.48,10.48,0,0,1-7.35-4.76,19.45,19.45,0,0,1-2.53-15c1.21-5,3.81-9.58,6.33-14A86.3,86.3,0,0,0,90,354.43c2.82-6.66,3.93-13.93,5-21,.4-2.61.81-5.3,1.3-7.92,2.3-12.18,6.51-20.5,12.87-25.45a20.57,20.57,0,0,1,12.4-4.12c5.66,0,10.39,2.32,13,6.37.38.6.73,1.25,1.06,1.89a16.72,16.72,0,0,0,2.13,3.32,8.58,8.58,0,0,0,6.59,2.8,15.34,15.34,0,0,0,11.46-5.87c2.56-3.32,4.06-7.31,5.5-11.15a67.45,67.45,0,0,1,3-7.08c6.11-11.95,17.91-18.26,30.41-24.94,9.88-5.28,20.09-10.74,27.21-19.26a85,85,0,0,0,7.4-11,73.49,73.49,0,0,1,8.41-12.15c4.41-4.84,10.87-8,16.46-8a12.78,12.78,0,0,1,7.86,2.52c4.94,3.73,5.49,9.49,5.08,13.67a32.85,32.85,0,0,1-6.22,15.54c-1.69,2.3-3.61,4.56-5.46,6.76-5.38,6.37-10.95,13-12.16,21.23a45,45,0,0,0-.35,5.29,43.84,43.84,0,0,1-.32,5c-1.6,11.6-11.06,18.88-21.08,26.59-8.89,6.85-18.09,13.93-21.36,24.34-1.81,5.77-1.54,11.91-1.28,17.86.13,3,.27,6,.14,9-.82,19.63-12.85,35.85-22.79,46-6,6.14-12.88,11.39-19.52,16.46-4.35,3.32-8.84,6.76-13.08,10.43a37.61,37.61,0,0,0-5.47,6.77c-3.44,4.95-7,10.06-11.76,10.06Z"/>
              <path class="cls-2" d="M254.09,211.42a12.25,12.25,0,0,1,7.56,2.42c4.75,3.59,5.28,9.17,4.88,13.22a32.33,32.33,0,0,1-6.12,15.3c-1.69,2.27-3.6,4.54-5.44,6.72-5.43,6.43-11,13.07-12.27,21.49a44.24,44.24,0,0,0-.36,5.35,45.33,45.33,0,0,1-.31,4.94c-1.58,11.39-11,18.61-20.89,26.25-9,6.9-18.22,14-21.54,24.59-1.84,5.86-1.56,12-1.3,18,.13,2.95.27,6,.14,8.95-.45,10.74-4.75,27.39-22.64,45.67-6,6.12-12.85,11.35-19.47,16.41-4.36,3.33-8.86,6.77-13.11,10.45a38.21,38.21,0,0,0-5.55,6.87c-3.37,4.84-6.86,9.84-11.36,9.84l-.59,0c-3.07-.29-5.92-1.53-8.93-2.85a35,35,0,0,0-8.78-2.92c-.83-.12-1.67-.18-2.49-.24a14.05,14.05,0,0,1-4.9-.93,6.37,6.37,0,0,1-3.54-4c-1.54-4.74,1-11.92,3.58-16.63,3-5.32,5.08-13,3.12-18.15a8.06,8.06,0,0,0-5-4.95,11.15,11.15,0,0,0-3.78-.56c-.76,0-1.53,0-2.27.09s-1.46.08-2.17.08a11.64,11.64,0,0,1-1.64-.1,10,10,0,0,1-7-4.54,19,19,0,0,1-2.45-14.56c1.19-4.92,3.66-9.27,6.28-13.88a88.15,88.15,0,0,0,4.71-9.12c2.84-6.72,4-14,5-21.08.4-2.61.81-5.3,1.31-7.91,2.27-12.05,6.42-20.28,12.68-25.14a20,20,0,0,1,12.09-4c5.49,0,10.06,2.24,12.54,6.14.37.58.7,1.2,1,1.85a17.05,17.05,0,0,0,2.2,3.43,9.07,9.07,0,0,0,7,3,15.84,15.84,0,0,0,11.86-6.07c2.61-3.38,4.11-7.39,5.57-11.28a67.52,67.52,0,0,1,2.94-7c6.05-11.81,17.78-18.09,30.21-24.73,9.92-5.3,20.17-10.79,27.35-19.37a86.07,86.07,0,0,0,7.45-11.1A73.37,73.37,0,0,1,238,219.21c4.32-4.73,10.64-7.79,16.09-7.79m0-1c-6.07,0-12.56,3.44-16.83,8.12-6.32,6.92-9.82,16-15.83,23.2C205.68,260.6,175,264.15,163.75,286c-3.05,6-4.33,12.86-8.41,18.15a14.81,14.81,0,0,1-11.07,5.68,8.06,8.06,0,0,1-6.21-2.63c-1.35-1.5-2.07-3.45-3.15-5.15-2.87-4.51-8-6.6-13.38-6.6a21.05,21.05,0,0,0-12.7,4.23c-7.77,6-11.23,16.07-13.06,25.74s-2.45,19.72-6.28,28.79c-3.34,7.9-9,14.82-11,23.16s1.8,19.22,10.3,20.33a14.72,14.72,0,0,0,1.76.1c1.48,0,3-.17,4.44-.17a10.34,10.34,0,0,1,3.45.5c7.82,2.76,5.42,14.43,1.39,21.68s-7.11,18.53.41,22c2.36,1.09,5.09.88,7.66,1.25,6.19.89,11.54,5.18,17.76,5.78l.69,0c7.66,0,12.26-12.36,17.56-16.95,10.71-9.27,22.66-16.73,32.64-26.92,12.33-12.59,22.19-28.71,22.93-46.33.38-9-1.57-18.18,1.11-26.72,6.8-21.62,39.36-28.55,42.47-51,.47-3.4.17-6.87.66-10.27,1.61-11,10.94-18.86,17.53-27.77s9.89-23.23,1-29.9a13.26,13.26,0,0,0-8.16-2.63Z"/>
            </g>
            <g>
              <path class="cls-4" d="M304.31,373.16A21.33,21.33,0,0,1,292,369.35a21.74,21.74,0,0,1-8.06-23,43,43,0,0,1,4.42-9.41,61.62,61.62,0,0,0,3.52-6.75c2.34-5.6,2.59-13.38-2.42-17.25a18.35,18.35,0,0,0-4-2.15A19.62,19.62,0,0,1,282,309a9.71,9.71,0,0,1-4-6.94c-.67-4.82,1.24-10.82,4.86-15.28a79.55,79.55,0,0,1,6.2-6.53c4-3.92,8.17-8,10.33-13.26,1.78-4.38,2-9.17,2.22-13.8a71.7,71.7,0,0,1,.7-8.14c2-12.16,18.42-20.22,27.82-23.06a13.24,13.24,0,0,1,3.78-.55c3.82,0,7.06,1.59,8.65,4.27a17.21,17.21,0,0,1,1.74,6.21c.43,2.81.87,5.73,2.93,7.8a7.93,7.93,0,0,0,5.77,2.19,12.17,12.17,0,0,0,5.63-1.44,30.74,30.74,0,0,0,6.85-5.52c.69-.68,1.39-1.36,2.11-2,6-5.48,13.19-8.63,19.78-8.63a20.3,20.3,0,0,1,3.23.25c9.72,1.52,15.48,10.33,14.57,17.28-.72,5.5-4.52,9.59-8.53,13.91a47,47,0,0,0-7.08,9c-3.15,5.79-3.5,12.54-3.84,19.06-.08,1.54-.16,3.07-.28,4.59-.78,10.3-4,17.18-9.57,20.46-4.2,2.47-9.07,2.55-14.23,2.63-4.05.06-8.23.12-12.07,1.45-11.52,4-16.14,17.43-18.61,27.18l-.38,1.5c-2.7,10.72-5.49,21.8-14.19,27.86a21.29,21.29,0,0,1-12.07,3.67Z"/>
              <path class="cls-2" d="M333.9,222c3.65,0,6.72,1.5,8.22,4a16.73,16.73,0,0,1,1.68,6c.44,2.9.89,5.9,3.06,8.08a8.44,8.44,0,0,0,6.13,2.34,12.71,12.71,0,0,0,5.87-1.5,31.29,31.29,0,0,0,7-5.6c.68-.67,1.39-1.36,2.09-2,5.89-5.4,13-8.5,19.45-8.5a20.72,20.72,0,0,1,3.16.24A18,18,0,0,1,401,231a13.72,13.72,0,0,1,3.64,10.82c-.7,5.34-4.44,9.38-8.4,13.64a46.92,46.92,0,0,0-7.15,9.12c-3.21,5.88-3.56,12.69-3.9,19.27-.08,1.51-.16,3.06-.27,4.57-.77,10.13-3.91,16.88-9.33,20.07-4.09,2.4-8.9,2.48-14,2.56-4.08.06-8.31.13-12.22,1.48C337.65,316.55,333,330.14,330.47,340l-.38,1.5c-2.68,10.63-5.45,21.62-14,27.57a21.21,21.21,0,0,1-23.79-.14,21.23,21.23,0,0,1-7.87-22.44,41.57,41.57,0,0,1,4.38-9.3,62.58,62.58,0,0,0,3.54-6.81c3.47-8.27,1.2-14.92-2.58-17.84a18.67,18.67,0,0,0-4.09-2.21,18.85,18.85,0,0,1-3.38-1.74,9.27,9.27,0,0,1-3.83-6.59c-.64-4.63,1.27-10.62,4.75-14.9a80.3,80.3,0,0,1,6.17-6.49c4.05-4,8.24-8.05,10.44-13.43,1.82-4.46,2-9.29,2.26-14a72.77,72.77,0,0,1,.69-8.08c.83-5.06,4.42-10,10.38-14.35a59.57,59.57,0,0,1,17.09-8.31,12.67,12.67,0,0,1,3.64-.53m0-1a13.64,13.64,0,0,0-3.93.57C319.2,224.78,303.77,233,301.8,245c-1.19,7.27-.1,15-2.89,21.83-3.25,8-11,13-16.45,19.67s-7.76,18-.73,22.94c2.3,1.61,5.22,2.2,7.44,3.92,4.78,3.69,4.6,11.1,2.26,16.67s-6.31,10.41-8,16.22a22.24,22.24,0,0,0,8.26,23.53,22.22,22.22,0,0,0,24.94.14c9.27-6.46,12-18.69,14.76-29.65s7.62-23.13,18.3-26.82c8.49-2.94,18.64.43,26.38-4.13,6.9-4.05,9.22-12.88,9.82-20.85S386.16,272,390,265c4.51-8.28,14.44-13.75,15.66-23.1,1.12-8.52-6.48-16.5-15-17.83a20.51,20.51,0,0,0-3.31-.26c-7.38,0-14.61,3.71-20.12,8.76-2.86,2.62-5.43,5.65-8.85,7.47a11.71,11.71,0,0,1-5.4,1.38,7.47,7.47,0,0,1-5.42-2c-3.49-3.51-2.06-9.65-4.59-13.91-1.83-3.07-5.44-4.51-9.08-4.51Z"/>
            </g>
            <g>
              <path class="cls-4" d="M231.53,529.62c-3.49,0-7.12-1.63-11.09-5-15.29-12.84-6.32-41.87-1.76-53.75.35-.92.71-1.84,1.08-2.77,3.07-7.81,6.25-15.88,4.32-24a39.76,39.76,0,0,0-2-5.66,34.85,34.85,0,0,1-2.06-6.19c-1.86-9.51,4.52-18.67,10.65-26.5,2.8-3.57,6-7.62,10.29-9.76a13,13,0,0,1,5.65-1.32,8.88,8.88,0,0,1,7.08,3c2.44,3,2.52,7.41,2.59,11.71.09,5.24.19,10.65,4.94,12.72a7.06,7.06,0,0,0,2.85.59c4,0,7.65-3.09,9.47-4.93,2.05-2.07,3.92-4.36,5.73-6.57,2.89-3.53,5.87-7.17,9.55-9.9a20,20,0,0,1,11.5-4,11.41,11.41,0,0,1,8.48,3.32c3.55,3.7,3.79,9,4,14.67s.5,11.38,4.34,15.34c3.37,3.49,8.33,4.31,13.12,5.1,1.08.18,2.16.35,3.21.56,5.82,1.15,11.65,4.67,11.57,10-.07,5-5.71,8.42-10.9,8.73-.44,0-.88,0-1.33,0a49.37,49.37,0,0,1-7-.66,51.22,51.22,0,0,0-7.14-.67h-.58c-11.76.28-22.34,10.43-23.1,22.17-.09,1.3-.06,2.63,0,3.91a23,23,0,0,1-.65,7.33c-2.24,7.15-10.79,10.23-17.57,11.56l-2.5.47c-6.82,1.26-13.87,2.58-18.54,7.62a79.88,79.88,0,0,0-6.09,7.85C244.47,522,239,529.62,231.53,529.62Z"/>
              <path class="cls-2" d="M246.66,395.22h0a8.45,8.45,0,0,1,6.7,2.81c2.32,2.84,2.4,7.19,2.47,11.41.1,5.39.19,11,5.24,13.17a7.54,7.54,0,0,0,3.05.63c4.18,0,7.95-3.18,9.83-5.08,2.06-2.08,3.94-4.38,5.76-6.61,2.86-3.5,5.82-7.12,9.45-9.81a19.52,19.52,0,0,1,11.21-3.86,11,11,0,0,1,8.12,3.17c3.42,3.56,3.65,8.8,3.9,14.35s.51,11.56,4.48,15.66c3.49,3.61,8.53,4.44,13.4,5.24,1.06.18,2.15.36,3.19.56,5.62,1.11,11.25,4.46,11.17,9.47-.07,4.7-5.47,7.93-10.43,8.23-.41,0-.85,0-1.3,0a50.17,50.17,0,0,1-6.9-.65,51.94,51.94,0,0,0-7.21-.68h-.59c-12,.28-22.81,10.65-23.59,22.64-.09,1.32-.06,2.65,0,3.95a22.51,22.51,0,0,1-.63,7.17c-2.17,6.91-10.54,9.91-17.19,11.21-.82.17-1.65.32-2.49.48-6.9,1.28-14,2.6-18.82,7.76a82,82,0,0,0-6.12,7.91c-5.18,7.24-10.54,14.73-17.79,14.73-3.36,0-6.89-1.59-10.77-4.85-6.22-5.23-9-13.79-8.24-25.46.71-11,4.46-22.08,6.62-27.73l1.08-2.76c3.1-7.89,6.31-16,4.35-24.29a39.77,39.77,0,0,0-2-5.72,34.73,34.73,0,0,1-2-6.11c-1.82-9.3,4.5-18.34,10.55-26.09,2.77-3.53,5.9-7.54,10.12-9.63a12.57,12.57,0,0,1,5.43-1.26m0-1a13.35,13.35,0,0,0-5.87,1.37c-4.35,2.15-7.48,6.09-10.46,9.9-6.15,7.86-12.66,17.11-10.75,26.9.81,4.11,3,7.8,4,11.87,2.11,8.91-2.11,17.91-5.39,26.46-5.64,14.7-12.82,41.94,1.91,54.31,4.3,3.62,8.06,5.09,11.41,5.09,10.8,0,17.44-15.19,24.65-23,5.13-5.53,13.35-6.48,20.76-7.93s15.7-4.7,18-11.9c1.14-3.63.46-7.56.71-11.36.74-11.44,11.15-21.43,22.61-21.7h.57c4.73,0,9.4,1.33,14.11,1.33.46,0,.91,0,1.36,0,5.37-.32,11.29-3.85,11.37-9.22.09-5.77-6.31-9.34-12-10.46s-12.06-1.37-16.07-5.52c-7.4-7.65-1-22.33-8.38-30a12,12,0,0,0-8.84-3.47,20.46,20.46,0,0,0-11.8,4.06c-6.05,4.49-10,11.16-15.34,16.52-2.45,2.48-5.81,4.78-9.11,4.78a6.56,6.56,0,0,1-2.65-.55c-8.14-3.54-1.71-17.43-7.34-24.29a9.46,9.46,0,0,0-7.47-3.18Z"/>
            </g>
          </g>
        </g>
        <path class="cls-4" d="M320.5,241a215.8,215.8,0,1,1-84.27,17,215.11,215.11,0,0,1,84.27-17m0-1C200.38,240,103,337.38,103,457.5S200.38,675,320.5,675,538,577.62,538,457.5,440.62,240,320.5,240Z"/>
        <g>
          <g>
            <rect class="cls-7" x="420.5" y="375.5" width="11" height="26"/>
            <path class="cls-4" d="M432,402H420V375h12Zm-11-1h10V376H421Z"/>
          </g>
          <g>
            <rect class="cls-7" x="420.5" y="370.5" width="11" height="5"/>
            <path class="cls-4" d="M432,376H420v-6h12Zm-11-1h10v-4H421Z"/>
          </g>
          <g>
            <rect class="cls-7" x="422.5" y="378.5" width="2" height="2"/>
            <path class="cls-4" d="M425,381h-3v-3h3Zm-2-1h1v-1h-1Z"/>
          </g>
          <g>
            <rect class="cls-7" x="427.5" y="378.5" width="2" height="2"/>
            <path class="cls-4" d="M430,381h-3v-3h3Zm-2-1h1v-1h-1Z"/>
          </g>
          <g>
            <rect class="cls-7" x="422.5" y="382.5" width="2" height="2"/>
            <path class="cls-4" d="M425,385h-3v-3h3Zm-2-1h1v-1h-1Z"/>
          </g>
          <g>
            <rect class="cls-7" x="427.5" y="382.5" width="2" height="2"/>
            <path class="cls-4" d="M430,385h-3v-3h3Zm-2-1h1v-1h-1Z"/>
          </g>
          <g>
            <rect class="cls-7" x="422.5" y="386.5" width="2" height="2"/>
            <path class="cls-4" d="M425,389h-3v-3h3Zm-2-1h1v-1h-1Z"/>
          </g>
          <g>
            <rect class="cls-7" x="427.5" y="386.5" width="2" height="2"/>
            <path class="cls-4" d="M430,389h-3v-3h3Zm-2-1h1v-1h-1Z"/>
          </g>
          <g>
            <rect class="cls-7" x="422.5" y="390.5" width="2" height="2"/>
            <path class="cls-4" d="M425,393h-3v-3h3Zm-2-1h1v-1h-1Z"/>
          </g>
          <g>
            <rect class="cls-7" x="427.5" y="390.5" width="2" height="2"/>
            <path class="cls-4" d="M430,393h-3v-3h3Zm-2-1h1v-1h-1Z"/>
          </g>
          <g>
            <rect class="cls-7" x="422.5" y="394.5" width="2" height="2"/>
            <path class="cls-4" d="M425,397h-3v-3h3Zm-2-1h1v-1h-1Z"/>
          </g>
          <g>
            <rect class="cls-7" x="427.5" y="394.5" width="2" height="2"/>
            <path class="cls-4" d="M430,397h-3v-3h3Zm-2-1h1v-1h-1Z"/>
          </g>
        </g>
      </g>
    </g>
    <g>
      <g>
        <rect class="cls-3" x="424.5" y="102.5" width="66.54" height="40.81" rx="0.74"/>
        <path class="cls-4" d="M490.29,103a.25.25,0,0,1,.25.24v39.33a.25.25,0,0,1-.25.24H425.24a.24.24,0,0,1-.24-.24V103.24a.24.24,0,0,1,.24-.24h65.05m0-1H425.24a1.25,1.25,0,0,0-1.24,1.24v39.33a1.25,1.25,0,0,0,1.24,1.24h65.05a1.25,1.25,0,0,0,1.25-1.24V103.24a1.25,1.25,0,0,0-1.25-1.24Z"/>
      </g>
      <g>
        <path class="cls-4" d="M507.27,161.09H445a6.87,6.87,0,0,1-4.48-1.65l-15.35-13.62c-.49-.42-1.61-.81-.81-2.41l67.14,1.2,16.58,14.17A1.31,1.31,0,0,1,507.27,161.09Z"/>
        <path class="cls-4" d="M507.27,161.59H445a7.44,7.44,0,0,1-4.81-1.77l-15.36-13.63-.22-.16a2,2,0,0,1-.69-2.85l.14-.28,67.62,1.21,16.73,14.29a1.81,1.81,0,0,1-1.18,3.19Zm-82.55-17.68c-.28.74,0,1,.51,1.3.11.08.21.15.3.23l15.36,13.63a6.39,6.39,0,0,0,4.15,1.52h62.23a.81.81,0,0,0,.53-1.43l-16.45-14Z"/>
      </g>
      <g>
        <path class="cls-3" d="M445.84,159a6.38,6.38,0,0,1-4.15-1.54L425.36,143.5h66l16.45,14.05a.82.82,0,0,1-.53,1.44Z"/>
        <path class="cls-4" d="M491.17,144l16.3,13.93a.31.31,0,0,1,.1.35.32.32,0,0,1-.3.21H445.84a5.93,5.93,0,0,1-3.83-1.42L426.71,144h64.46m.37-1H424l17.36,14.83a6.89,6.89,0,0,0,4.48,1.66h61.43a1.32,1.32,0,0,0,.85-2.32L491.54,143Z"/>
      </g>
      <g>
        <rect class="cls-3" x="428.17" y="105.5" width="59.19" height="34.81"/>
        <path class="cls-4" d="M486.86,106v33.81H428.67V106h58.19m1-1H427.67v35.81h60.19V105Z"/>
      </g>
      <g>
        <path class="cls-3" d="M439.91,149.5a5.61,5.61,0,0,1-2.37-.72l-4-3h55.83l3.71,3.43Z"/>
        <path class="cls-4" d="M489.14,146.32l2.64,2.43-51.87.25a5.26,5.26,0,0,1-2.14-.67l-2.74-2h54.11m.16-1H433c-.58,0-.78.41-.28.57l4.5,3.31a7.26,7.26,0,0,0,2.66.8l53.12-.25c.9,0,1.31-.41.63-.62l-4.08-3.77a1.26,1.26,0,0,0-.28,0Z"/>
      </g>
      <g>
        <path class="cls-3" d="M465,156.5a2.73,2.73,0,0,1-1.87-.75l-2.52-2.31a1.06,1.06,0,0,1-.32-1.08.77.77,0,0,1,.79-.41h17a1.35,1.35,0,0,1,.92.37l2.64,2.42a1.07,1.07,0,0,1,.25,1.17.9.9,0,0,1-.81.59Z"/>
        <path class="cls-4" d="M478.1,152.45a.89.89,0,0,1,.59.23l2.63,2.43a.58.58,0,0,1,.12.62.38.38,0,0,1-.34.27H465a2.28,2.28,0,0,1-1.53-.61L461,153.1a.63.63,0,0,1-.23-.55c0-.08.2-.1.33-.1h17m0-1h-17c-1.39,0-1.77,1.39-.8,2.35l2.51,2.32A3.26,3.26,0,0,0,465,157h16.1a1.52,1.52,0,0,0,.9-2.63L479.36,152a1.83,1.83,0,0,0-1.26-.5Z"/>
      </g>
    </g>
    <g>
      <g>
        <g>
          <rect class="cls-3" x="551.8" y="254.5" width="28.4" height="41" rx="2.26"/>
          <path class="cls-4" d="M577.94,255a1.76,1.76,0,0,1,1.76,1.76v36.48a1.76,1.76,0,0,1-1.76,1.76H554.06a1.76,1.76,0,0,1-1.76-1.76V256.76a1.76,1.76,0,0,1,1.76-1.76h23.88m0-1H554.06a2.75,2.75,0,0,0-2.76,2.76v36.48a2.75,2.75,0,0,0,2.76,2.76h23.88a2.75,2.75,0,0,0,2.76-2.76V256.76a2.75,2.75,0,0,0-2.76-2.76Z"/>
        </g>
        <g>
          <rect class="cls-3" x="554" y="257" width="24" height="36" rx="0.98"/>
          <path class="cls-4" d="M577,257.5a.47.47,0,0,1,.48.48v34a.47.47,0,0,1-.48.48H555a.47.47,0,0,1-.48-.48V258a.47.47,0,0,1,.48-.48h22m0-1H555A1.48,1.48,0,0,0,553.5,258v34A1.48,1.48,0,0,0,555,293.5h22A1.48,1.48,0,0,0,578.5,292V258A1.48,1.48,0,0,0,577,256.5Z"/>
        </g>
      </g>
      <g>
        <path class="cls-4" d="M563,257.5h6a0,0,0,0,1,0,0v.62a.88.88,0,0,1-.88.88h-4.24a.88.88,0,0,1-.88-.88v-.62A0,0,0,0,1,563,257.5Z"/>
        <path class="cls-4" d="M568.12,259.5h-4.24a1.38,1.38,0,0,1-1.38-1.38V257h7v1.12A1.38,1.38,0,0,1,568.12,259.5ZM563.5,258v.12a.38.38,0,0,0,.38.38h4.24a.38.38,0,0,0,.38-.38V258Z"/>
      </g>
    </g>
    <g>
      <path class="cls-7" d="M103.61,252.66a.49.49,0,0,1-.41-.22l-1.12-1.66a.5.5,0,0,1,.84-.56l1.11,1.66a.51.51,0,0,1-.14.7A.54.54,0,0,1,103.61,252.66Z"/>
      <path class="cls-7" d="M162.14,340a.52.52,0,0,1-.42-.22l-2.25-3.36a.5.5,0,0,1,.14-.69.49.49,0,0,1,.69.13l2.25,3.36a.5.5,0,0,1-.14.69A.46.46,0,0,1,162.14,340Zm-4.51-6.72a.49.49,0,0,1-.41-.22L155,329.68a.5.5,0,0,1,.13-.69.5.5,0,0,1,.7.14l2.25,3.35a.51.51,0,0,1-.14.7A.46.46,0,0,1,157.63,333.26Zm-4.5-6.71a.48.48,0,0,1-.41-.23L150.47,323a.5.5,0,0,1,.13-.7.51.51,0,0,1,.7.14l2.25,3.36a.5.5,0,0,1-.14.69A.47.47,0,0,1,153.13,326.55Zm-4.5-6.72a.52.52,0,0,1-.42-.22L146,316.25a.5.5,0,0,1,.84-.56l2.25,3.36a.5.5,0,0,1-.14.69A.49.49,0,0,1,148.63,319.83Zm-4.5-6.72a.52.52,0,0,1-.42-.22l-2.25-3.36a.5.5,0,0,1,.14-.69.49.49,0,0,1,.69.14l2.25,3.35a.5.5,0,0,1-.13.7A.57.57,0,0,1,144.13,313.11Zm-4.5-6.71a.51.51,0,0,1-.42-.23L137,302.82a.51.51,0,0,1,.14-.7.5.5,0,0,1,.69.14l2.25,3.36a.5.5,0,0,1-.13.69A.51.51,0,0,1,139.63,306.4Zm-4.5-6.72a.51.51,0,0,1-.42-.22l-2.25-3.36a.5.5,0,0,1,.14-.69.49.49,0,0,1,.69.13l2.25,3.36a.5.5,0,0,1-.14.69A.46.46,0,0,1,135.13,299.68ZM130.62,293a.49.49,0,0,1-.41-.22L128,289.38a.5.5,0,0,1,.13-.69.5.5,0,0,1,.7.14l2.25,3.35a.51.51,0,0,1-.14.7A.54.54,0,0,1,130.62,293Zm-4.5-6.71a.48.48,0,0,1-.41-.23l-2.25-3.35a.5.5,0,0,1,.13-.7.51.51,0,0,1,.7.14l2.25,3.36a.5.5,0,0,1-.14.69A.49.49,0,0,1,126.12,286.25Zm-4.5-6.72a.52.52,0,0,1-.42-.22L119,276a.5.5,0,0,1,.84-.56l2.25,3.36a.5.5,0,0,1-.14.69A.49.49,0,0,1,121.62,279.53Zm-4.5-6.72a.52.52,0,0,1-.42-.22l-2.25-3.36a.5.5,0,0,1,.83-.56l2.25,3.36a.5.5,0,0,1-.13.7A.6.6,0,0,1,117.12,272.81Zm-4.5-6.72a.5.5,0,0,1-.42-.22L110,262.51a.5.5,0,1,1,.83-.55l2.25,3.36a.49.49,0,0,1-.41.77Zm-4.5-6.71a.51.51,0,0,1-.42-.22l-2.25-3.36a.51.51,0,0,1,.14-.7.5.5,0,0,1,.69.14l2.25,3.36a.5.5,0,0,1-.14.69A.46.46,0,0,1,108.12,259.38Z"/>
      <path class="cls-7" d="M165.5,345a.52.52,0,0,1-.42-.22L164,343.12a.51.51,0,0,1,.14-.7.5.5,0,0,1,.69.14l1.12,1.66a.51.51,0,0,1-.14.7A.57.57,0,0,1,165.5,345Z"/>
    </g>
    <g>
      <path class="cls-7" d="M314.46,120.38h-.09l-2-.38a.5.5,0,1,1,.2-1l2,.38a.49.49,0,0,1,.39.59A.49.49,0,0,1,314.46,120.38Z"/>
      <path class="cls-7" d="M414.68,139.87h-.09l-3.86-.75a.5.5,0,0,1,.19-1l3.86.75a.48.48,0,0,1,.39.58A.49.49,0,0,1,414.68,139.87Zm-7.71-1.5h-.09l-3.86-.75a.49.49,0,0,1-.39-.59.5.5,0,0,1,.58-.39l3.86.75a.48.48,0,0,1,.39.58A.49.49,0,0,1,407,138.37Zm-7.71-1.5h-.09l-3.86-.75a.5.5,0,0,1,.19-1l3.86.75a.5.5,0,0,1-.1,1Zm-7.7-1.5h-.1l-3.86-.75a.49.49,0,0,1-.39-.58.5.5,0,0,1,.59-.4l3.85.75a.51.51,0,0,1,.4.59A.5.5,0,0,1,391.56,135.37Zm-7.71-1.5h-.1l-3.85-.75a.49.49,0,0,1-.4-.58.51.51,0,0,1,.59-.4l3.85.75a.51.51,0,0,1,.4.59A.5.5,0,0,1,383.85,133.87Zm-7.71-1.5H376l-3.85-.74a.51.51,0,0,1-.4-.59.51.51,0,0,1,.59-.4l3.85.75a.51.51,0,0,1,.4.59A.5.5,0,0,1,376.14,132.37Zm-7.71-1.5h-.1l-3.85-.75a.51.51,0,0,1-.4-.59.51.51,0,0,1,.59-.4l3.85.75a.51.51,0,0,1,.4.59A.5.5,0,0,1,368.43,130.87Zm-7.71-1.49h-.1l-3.85-.75a.5.5,0,1,1,.19-1l3.85.75a.5.5,0,0,1-.09,1Zm-7.71-1.5h-.1l-3.85-.75a.5.5,0,1,1,.19-1l3.85.74a.5.5,0,0,1-.09,1Zm-7.71-1.5h-.1l-3.85-.75a.5.5,0,1,1,.19-1l3.86.75a.49.49,0,0,1,.39.58A.5.5,0,0,1,345.3,126.38Zm-7.71-1.5h-.09l-3.86-.75a.5.5,0,0,1,.19-1l3.86.75a.5.5,0,0,1-.1,1Zm-7.71-1.5h-.09l-3.86-.75a.5.5,0,0,1,.19-1l3.86.75a.48.48,0,0,1,.39.58A.49.49,0,0,1,329.88,123.38Zm-7.71-1.5h-.09l-3.86-.75a.48.48,0,0,1-.39-.58.49.49,0,0,1,.58-.4l3.86.75a.5.5,0,0,1-.1,1Z"/>
      <path class="cls-7" d="M420.5,141h-.1l-2-.38a.5.5,0,0,1,.19-1l2,.38a.5.5,0,0,1,.39.59A.5.5,0,0,1,420.5,141Z"/>
    </g>
    <g>
      <path class="cls-7" d="M268.67,130.82a.54.54,0,0,1-.21,0,.5.5,0,0,1-.25-.66l.84-1.82a.5.5,0,0,1,.9.42l-.83,1.82A.49.49,0,0,1,268.67,130.82Z"/>
      <path class="cls-7" d="M173,339.58a.52.52,0,0,1-.21,0,.49.49,0,0,1-.24-.66l1.65-3.6a.49.49,0,0,1,.66-.25.5.5,0,0,1,.25.66l-1.65,3.6A.52.52,0,0,1,173,339.58Zm3.3-7.2a.52.52,0,0,1-.21,0,.49.49,0,0,1-.24-.66l1.65-3.6a.5.5,0,1,1,.91.41l-1.65,3.6A.5.5,0,0,1,176.28,332.38Zm3.3-7.19a.54.54,0,0,1-.21-.05.49.49,0,0,1-.24-.66l1.65-3.6a.5.5,0,1,1,.91.41l-1.65,3.6A.51.51,0,0,1,179.58,325.19Zm3.3-7.2a.54.54,0,0,1-.21-.05.49.49,0,0,1-.24-.66l1.65-3.6a.5.5,0,0,1,.91.41l-1.65,3.6A.51.51,0,0,1,182.88,318Zm3.3-7.2a.54.54,0,0,1-.21-.05.49.49,0,0,1-.24-.66l1.65-3.6a.5.5,0,1,1,.9.42l-1.64,3.6A.52.52,0,0,1,186.18,310.79Zm3.3-7.2a.54.54,0,0,1-.21,0,.49.49,0,0,1-.24-.66l1.65-3.6a.5.5,0,0,1,.9.42l-1.65,3.6A.49.49,0,0,1,189.48,303.59Zm3.3-7.2a.41.41,0,0,1-.21-.05.5.5,0,0,1-.25-.66l1.65-3.6a.5.5,0,0,1,.67-.24.49.49,0,0,1,.24.66l-1.65,3.6A.49.49,0,0,1,192.78,296.39Zm3.3-7.2a.49.49,0,0,1-.46-.71l1.65-3.6a.5.5,0,0,1,.67-.24.49.49,0,0,1,.24.66l-1.65,3.6A.49.49,0,0,1,196.08,289.19Zm3.3-7.2a.52.52,0,0,1-.21,0,.51.51,0,0,1-.25-.67l1.65-3.59a.5.5,0,0,1,.67-.25.49.49,0,0,1,.24.66l-1.65,3.6A.49.49,0,0,1,199.38,282Zm3.3-7.2a.52.52,0,0,1-.21,0,.51.51,0,0,1-.25-.66l1.65-3.6a.51.51,0,0,1,.67-.25.49.49,0,0,1,.24.66l-1.65,3.6A.48.48,0,0,1,202.68,274.79Zm3.3-7.2a.52.52,0,0,1-.21,0,.51.51,0,0,1-.25-.66l1.65-3.6a.51.51,0,0,1,.67-.25.49.49,0,0,1,.24.66l-1.65,3.6A.48.48,0,0,1,206,267.59Zm3.3-7.19a.54.54,0,0,1-.21,0,.5.5,0,0,1-.25-.66l1.65-3.6a.51.51,0,0,1,.66-.25.49.49,0,0,1,.25.66l-1.65,3.6A.49.49,0,0,1,209.28,260.4Zm3.3-7.2a.54.54,0,0,1-.21,0,.5.5,0,0,1-.25-.66l1.65-3.6a.51.51,0,0,1,.66-.25.5.5,0,0,1,.25.67l-1.65,3.6A.49.49,0,0,1,212.58,253.2Zm3.3-7.2a.51.51,0,0,1-.46-.71l1.65-3.6a.5.5,0,0,1,.91.42l-1.65,3.6A.5.5,0,0,1,215.88,246Zm3.29-7.2a.37.37,0,0,1-.2-.05.5.5,0,0,1-.25-.66l1.65-3.6a.49.49,0,0,1,.66-.24.5.5,0,0,1,.25.66l-1.65,3.6A.51.51,0,0,1,219.17,238.8Zm3.3-7.2a.45.45,0,0,1-.2,0,.51.51,0,0,1-.25-.67l1.65-3.6a.49.49,0,0,1,.66-.24.5.5,0,0,1,.25.66l-1.65,3.6A.51.51,0,0,1,222.47,231.6Zm3.3-7.2a.45.45,0,0,1-.2,0,.5.5,0,0,1-.25-.67l1.65-3.6a.49.49,0,0,1,.66-.24.5.5,0,0,1,.25.66l-1.65,3.6A.52.52,0,0,1,225.77,224.4Zm3.3-7.2a.52.52,0,0,1-.21,0,.49.49,0,0,1-.24-.66l1.65-3.6a.5.5,0,0,1,.91.41l-1.65,3.6A.5.5,0,0,1,229.07,217.2Zm3.3-7.2a.52.52,0,0,1-.21,0,.49.49,0,0,1-.24-.66l1.65-3.6a.5.5,0,1,1,.91.41l-1.65,3.6A.5.5,0,0,1,232.37,210Zm3.3-7.19a.54.54,0,0,1-.21-.05.49.49,0,0,1-.24-.66l1.65-3.6a.5.5,0,0,1,.66-.25.51.51,0,0,1,.25.67l-1.65,3.59A.51.51,0,0,1,235.67,202.81Zm3.3-7.2a.54.54,0,0,1-.21-.05.49.49,0,0,1-.24-.66l1.65-3.6a.5.5,0,0,1,.66-.25.51.51,0,0,1,.25.67l-1.65,3.6A.52.52,0,0,1,239,195.61Zm3.3-7.2a.54.54,0,0,1-.21,0,.49.49,0,0,1-.24-.66l1.65-3.6a.49.49,0,0,1,.66-.24.5.5,0,0,1,.25.66l-1.65,3.6A.52.52,0,0,1,242.27,188.41Zm3.3-7.2a.41.41,0,0,1-.21-.05.49.49,0,0,1-.24-.66l1.65-3.6a.5.5,0,0,1,.9.42l-1.64,3.6A.52.52,0,0,1,245.57,181.21Zm3.3-7.2a.41.41,0,0,1-.21,0,.49.49,0,0,1-.24-.66l1.65-3.6a.5.5,0,0,1,.9.42l-1.65,3.6A.49.49,0,0,1,248.87,174Zm3.3-7.2a.52.52,0,0,1-.21,0,.51.51,0,0,1-.25-.67l1.65-3.6a.5.5,0,0,1,.67-.24.49.49,0,0,1,.24.66l-1.65,3.6A.49.49,0,0,1,252.17,166.81Zm3.3-7.2a.52.52,0,0,1-.21,0,.51.51,0,0,1-.25-.66l1.65-3.6a.51.51,0,0,1,.67-.25.49.49,0,0,1,.24.66l-1.65,3.6A.49.49,0,0,1,255.47,159.61Zm3.3-7.19a.54.54,0,0,1-.21,0,.51.51,0,0,1-.25-.66l1.65-3.6a.51.51,0,0,1,.67-.25.49.49,0,0,1,.24.66l-1.65,3.6A.49.49,0,0,1,258.77,152.42Zm3.3-7.2a.54.54,0,0,1-.21-.05.5.5,0,0,1-.25-.66l1.65-3.6a.51.51,0,0,1,.67-.25.5.5,0,0,1,.24.67l-1.65,3.59A.49.49,0,0,1,262.07,145.22Zm3.3-7.2a.54.54,0,0,1-.21-.05.5.5,0,0,1-.25-.66l1.65-3.6a.51.51,0,0,1,.67-.25.5.5,0,0,1,.24.67l-1.65,3.6A.49.49,0,0,1,265.37,138Z"/>
      <path class="cls-7" d="M170.5,345a.41.41,0,0,1-.21-.05.49.49,0,0,1-.24-.66l.83-1.82a.49.49,0,0,1,.66-.24.5.5,0,0,1,.25.66l-.84,1.82A.49.49,0,0,1,170.5,345Z"/>
    </g>
    <g>
      <path class="cls-7" d="M239.49,280.16h0l-2-.16a.5.5,0,1,1,.08-1l2,.16a.5.5,0,0,1,0,1Z"/>
      <path class="cls-7" d="M344.47,288.52h0l-4-.32a.52.52,0,0,1-.46-.54.51.51,0,0,1,.54-.46l4,.32a.5.5,0,0,1,0,1Zm-8.08-.64h0l-4-.33a.5.5,0,1,1,.08-1l4,.32a.5.5,0,0,1,0,1Zm-8.07-.65h0l-4-.32a.5.5,0,0,1-.46-.54.52.52,0,0,1,.54-.46l4,.33a.5.5,0,0,1,.46.53A.49.49,0,0,1,328.32,287.23Zm-8.08-.64h0l-4-.32a.5.5,0,0,1-.46-.54.5.5,0,0,1,.54-.46l4,.32a.5.5,0,0,1,0,1Zm-8.07-.64h0l-4-.33a.5.5,0,0,1-.46-.53.51.51,0,0,1,.54-.46l4,.32a.5.5,0,0,1,0,1Zm-8.08-.65h0l-4-.32a.5.5,0,0,1-.46-.54.52.52,0,0,1,.54-.46l4,.33a.5.5,0,0,1,0,1Zm-8.07-.64h0l-4-.32a.5.5,0,0,1,.08-1l4,.32a.51.51,0,0,1,.46.54A.5.5,0,0,1,296,284.66Zm-8.08-.64h0l-4-.33a.49.49,0,0,1-.46-.53.5.5,0,0,1,.54-.46l4,.32a.5.5,0,0,1,0,1Zm-8.07-.64h0l-4-.32a.5.5,0,0,1-.46-.54.52.52,0,0,1,.54-.46l4,.33a.5.5,0,0,1,0,1Zm-8.08-.65h0l-4-.32a.5.5,0,0,1-.46-.54.5.5,0,0,1,.54-.46l4,.32a.5.5,0,0,1,0,1Zm-8.07-.64h0l-4-.33a.5.5,0,1,1,.08-1l4,.32a.5.5,0,0,1,0,1Zm-8.08-.64h0l-4-.32a.5.5,0,0,1-.46-.54.5.5,0,0,1,.54-.45l4,.32a.5.5,0,0,1,0,1Zm-8.07-.65h0l-4-.32a.5.5,0,0,1-.46-.54.51.51,0,0,1,.54-.46l4,.32a.52.52,0,0,1,.46.54A.5.5,0,0,1,247.57,280.8Z"/>
      <path class="cls-7" d="M350.5,289h0l-2-.16a.5.5,0,0,1-.46-.54.51.51,0,0,1,.54-.46l2,.16a.5.5,0,0,1,0,1Z"/>
    </g>
    <g>
      <path class="cls-7" d="M150,213.37a.5.5,0,0,1-.34-.13l-1.45-1.38a.5.5,0,0,1,.68-.72l1.46,1.37a.5.5,0,0,1,0,.71A.51.51,0,0,1,150,213.37Z"/>
      <path class="cls-7" d="M216,275.79a.51.51,0,0,1-.34-.14l-3-2.83a.5.5,0,1,1,.69-.73l3,2.84a.49.49,0,0,1,0,.7A.5.5,0,0,1,216,275.79Zm-6-5.67a.51.51,0,0,1-.34-.14l-3-2.84a.5.5,0,0,1,0-.71.49.49,0,0,1,.7,0l3,2.83a.5.5,0,0,1,0,.71A.52.52,0,0,1,210,270.12Zm-6-5.68a.47.47,0,0,1-.35-.14l-3-2.83a.5.5,0,1,1,.69-.73l3,2.84a.49.49,0,0,1,0,.7A.48.48,0,0,1,204,264.44Zm-6-5.67a.54.54,0,0,1-.35-.14l-3-2.84a.49.49,0,0,1,0-.7.5.5,0,0,1,.71,0l3,2.83a.5.5,0,0,1,0,.71A.52.52,0,0,1,198,258.77Zm-6-5.68a.48.48,0,0,1-.34-.13l-3-2.84a.5.5,0,0,1,.69-.73l3,2.84a.5.5,0,0,1-.34.86Zm-6-5.67a.51.51,0,0,1-.34-.14l-3-2.84a.49.49,0,0,1,0-.7.5.5,0,0,1,.71,0l3,2.83a.5.5,0,0,1-.35.87Zm-6-5.68a.5.5,0,0,1-.34-.13l-3-2.84a.5.5,0,0,1,0-.71.49.49,0,0,1,.7,0l3,2.84a.5.5,0,0,1,0,.71A.51.51,0,0,1,180,241.74Zm-6-5.67a.52.52,0,0,1-.35-.14l-3-2.83a.5.5,0,1,1,.69-.73l3,2.84a.49.49,0,0,1,0,.7A.48.48,0,0,1,174,236.07Zm-6-5.67a.52.52,0,0,1-.35-.14l-3-2.84a.5.5,0,1,1,.69-.72l3,2.83a.5.5,0,0,1,0,.71A.52.52,0,0,1,168,230.4Zm-6-5.68a.45.45,0,0,1-.34-.14l-3-2.83a.5.5,0,0,1,.69-.73l3,2.84a.5.5,0,0,1,0,.71A.49.49,0,0,1,162,224.72Zm-6-5.67a.51.51,0,0,1-.34-.14l-3-2.84a.49.49,0,0,1,0-.7.5.5,0,0,1,.71,0l3,2.83a.5.5,0,0,1,0,.71A.54.54,0,0,1,156,219.05Z"/>
      <path class="cls-7" d="M220.5,280a.45.45,0,0,1-.34-.14l-1.46-1.37a.5.5,0,0,1,.69-.73l1.45,1.38a.49.49,0,0,1,0,.7A.46.46,0,0,1,220.5,280Z"/>
    </g>
    <g>
      <path class="cls-7" d="M353.63,292.71a.51.51,0,0,1-.47-.32.52.52,0,0,1,.29-.65l1.87-.71a.51.51,0,0,1,.65.29.5.5,0,0,1-.29.65l-1.87.71Z"/>
      <path class="cls-7" d="M182.1,357.87a.51.51,0,0,1-.47-.32.49.49,0,0,1,.29-.64l3.73-1.42a.5.5,0,0,1,.35.93l-3.72,1.42A.57.57,0,0,1,182.1,357.87Zm7.46-2.83a.49.49,0,0,1-.47-.32.5.5,0,0,1,.29-.65l3.73-1.41a.5.5,0,0,1,.35.93L189.73,355A.47.47,0,0,1,189.56,355Zm7.45-2.83a.5.5,0,0,1-.17-1l3.73-1.42a.5.5,0,0,1,.35.94l-3.73,1.41A.39.39,0,0,1,197,352.21Zm7.46-2.84a.5.5,0,0,1-.18-1L208,347a.51.51,0,0,1,.65.29.49.49,0,0,1-.29.64l-3.73,1.42A.57.57,0,0,1,204.47,349.37Zm7.46-2.83a.5.5,0,0,1-.18-1l3.73-1.41a.5.5,0,0,1,.65.29.51.51,0,0,1-.29.64l-3.73,1.42Zm7.46-2.83a.52.52,0,0,1-.47-.33.5.5,0,0,1,.29-.64l3.73-1.42a.5.5,0,0,1,.64.29.5.5,0,0,1-.29.65l-3.72,1.41A.39.39,0,0,1,219.39,343.71Zm7.46-2.84a.5.5,0,0,1-.18-1l3.73-1.42a.5.5,0,0,1,.35.93L227,340.84ZM234.3,338a.48.48,0,0,1-.46-.32.5.5,0,0,1,.29-.65l3.72-1.41a.5.5,0,0,1,.65.29.5.5,0,0,1-.29.64L234.48,338Zm7.46-2.83a.5.5,0,0,1-.18-1l3.73-1.42a.52.52,0,0,1,.65.29.5.5,0,0,1-.29.65l-3.73,1.42Zm7.46-2.84a.51.51,0,0,1-.47-.32.49.49,0,0,1,.29-.64l3.73-1.42a.51.51,0,0,1,.65.29.52.52,0,0,1-.29.65l-3.73,1.41A.57.57,0,0,1,249.22,332.37Zm7.46-2.83a.5.5,0,0,1-.18-1l3.73-1.41a.5.5,0,0,1,.35.93l-3.73,1.42A.47.47,0,0,1,256.68,329.54Zm7.46-2.83a.5.5,0,0,1-.18-1l3.73-1.42a.51.51,0,0,1,.64.29.5.5,0,0,1-.29.65l-3.73,1.42Zm7.45-2.83a.5.5,0,0,1-.17-1l3.72-1.42a.51.51,0,0,1,.65.29.5.5,0,0,1-.29.65l-3.73,1.41A.58.58,0,0,1,271.59,323.88Zm7.46-2.84a.51.51,0,0,1-.47-.32.52.52,0,0,1,.29-.65l3.73-1.41a.5.5,0,0,1,.65.29.49.49,0,0,1-.29.64L279.23,321Zm7.46-2.83a.5.5,0,0,1-.18-1l3.73-1.42a.5.5,0,1,1,.36.94l-3.73,1.42Zm7.46-2.83a.52.52,0,0,1-.47-.33.5.5,0,0,1,.29-.64l3.73-1.42a.5.5,0,0,1,.64.29.5.5,0,0,1-.29.65l-3.73,1.41A.33.33,0,0,1,294,315.38Zm7.45-2.84a.48.48,0,0,1-.46-.32.5.5,0,0,1,.29-.65l3.73-1.41a.5.5,0,0,1,.35.93l-3.73,1.42Zm7.46-2.83a.48.48,0,0,1-.46-.32.5.5,0,0,1,.29-.65l3.72-1.41a.5.5,0,0,1,.65.29.5.5,0,0,1-.29.64l-3.73,1.42Zm7.46-2.83a.52.52,0,0,1-.47-.33.51.51,0,0,1,.29-.64l3.73-1.42a.51.51,0,0,1,.65.29.5.5,0,0,1-.29.65l-3.73,1.41A.39.39,0,0,1,316.34,306.88ZM323.8,304a.51.51,0,0,1-.47-.32.49.49,0,0,1,.29-.64l3.73-1.42a.5.5,0,1,1,.36.93L324,304Zm7.46-2.83a.5.5,0,0,1-.18-1l3.73-1.41a.5.5,0,0,1,.35.93l-3.73,1.42A.47.47,0,0,1,331.26,301.21Zm7.45-2.83a.5.5,0,0,1-.17-1l3.73-1.42a.5.5,0,0,1,.35.94l-3.73,1.41A.39.39,0,0,1,338.71,298.38Zm7.46-2.84a.5.5,0,0,1-.17-1l3.72-1.42a.51.51,0,0,1,.65.29.49.49,0,0,1-.29.64l-3.73,1.42Z"/>
      <path class="cls-7" d="M176.5,360a.5.5,0,0,1-.18-1l1.87-.71a.51.51,0,0,1,.65.29.5.5,0,0,1-.29.65l-1.87.71Z"/>
    </g>
    <g>
      <path class="cls-7" d="M437.3,167.6a.49.49,0,0,1-.3-.1.51.51,0,0,1-.1-.7l1.2-1.6a.5.5,0,0,1,.8.6l-1.2,1.6A.48.48,0,0,1,437.3,167.6Z"/>
      <path class="cls-7" d="M365.1,264.18a.49.49,0,0,1-.3-.1.51.51,0,0,1-.1-.7l2.41-3.22a.5.5,0,1,1,.8.6L365.5,264A.48.48,0,0,1,365.1,264.18Zm4.82-6.44a.47.47,0,0,1-.3-.1.5.5,0,0,1-.1-.7l2.4-3.22a.51.51,0,0,1,.7-.1.5.5,0,0,1,.1.7l-2.4,3.22A.51.51,0,0,1,369.92,257.74Zm4.81-6.44a.47.47,0,0,1-.3-.1.5.5,0,0,1-.1-.7l2.41-3.22a.5.5,0,0,1,.8.6l-2.41,3.22A.51.51,0,0,1,374.73,251.3Zm4.81-6.44a.49.49,0,0,1-.3-.1.5.5,0,0,1-.1-.7l2.41-3.22a.51.51,0,0,1,.7-.1.5.5,0,0,1,.1.7l-2.41,3.22A.51.51,0,0,1,379.54,244.86Zm4.82-6.44a.53.53,0,0,1-.3-.09.51.51,0,0,1-.1-.71l2.4-3.21a.5.5,0,0,1,.8.6l-2.4,3.21A.48.48,0,0,1,384.36,238.42Zm4.81-6.43a.57.57,0,0,1-.3-.1.5.5,0,0,1-.1-.7l2.41-3.22a.5.5,0,0,1,.7-.1.51.51,0,0,1,.1.7l-2.41,3.22A.51.51,0,0,1,389.17,232Zm4.81-6.44a.49.49,0,0,1-.3-.1.51.51,0,0,1-.1-.7l2.41-3.22a.5.5,0,0,1,.8.6l-2.41,3.22A.51.51,0,0,1,394,225.55Zm4.82-6.44a.47.47,0,0,1-.3-.1.5.5,0,0,1-.1-.7l2.4-3.22a.51.51,0,0,1,.7-.1.5.5,0,0,1,.1.7l-2.4,3.22A.51.51,0,0,1,398.8,219.11Zm4.81-6.44a.47.47,0,0,1-.3-.1.5.5,0,0,1-.1-.7l2.41-3.22a.5.5,0,0,1,.8.6L404,212.47A.51.51,0,0,1,403.61,212.67Zm4.81-6.44a.49.49,0,0,1-.3-.1.51.51,0,0,1-.1-.7l2.41-3.22a.5.5,0,0,1,.8.6L408.82,206A.48.48,0,0,1,408.42,206.23Zm4.82-6.44a.47.47,0,0,1-.3-.1.5.5,0,0,1-.1-.7l2.4-3.21a.5.5,0,1,1,.8.6l-2.4,3.21A.51.51,0,0,1,413.24,199.79Zm4.81-6.43a.54.54,0,0,1-.3-.1.5.5,0,0,1-.1-.7l2.41-3.22a.5.5,0,0,1,.7-.1.5.5,0,0,1,.1.7l-2.41,3.22A.51.51,0,0,1,418.05,193.36Zm4.81-6.44a.57.57,0,0,1-.3-.1.51.51,0,0,1-.1-.7l2.41-3.22a.5.5,0,0,1,.7-.1.51.51,0,0,1,.1.7l-2.41,3.22A.49.49,0,0,1,422.86,186.92Zm4.82-6.44a.47.47,0,0,1-.3-.1.5.5,0,0,1-.1-.7l2.4-3.22a.5.5,0,0,1,.8.6l-2.4,3.22A.51.51,0,0,1,427.68,180.48Zm4.81-6.44a.47.47,0,0,1-.3-.1.5.5,0,0,1-.1-.7L434.5,170a.5.5,0,1,1,.8.6l-2.41,3.22A.51.51,0,0,1,432.49,174Z"/>
      <path class="cls-7" d="M361.5,269a.5.5,0,0,1-.4-.8l1.2-1.6a.5.5,0,0,1,.7-.1.51.51,0,0,1,.1.7l-1.2,1.6A.51.51,0,0,1,361.5,269Z"/>
    </g>
    <g>
      <path class="cls-7" d="M237,117.33a.52.52,0,0,1-.38-.17.5.5,0,0,1,0-.7l1.5-1.33a.5.5,0,1,1,.66.74l-1.49,1.33A.5.5,0,0,1,237,117.33Z"/>
      <path class="cls-7" d="M153,192a.51.51,0,0,1-.38-.16.51.51,0,0,1,0-.71l3-2.67a.5.5,0,0,1,.67.75l-3,2.67A.54.54,0,0,1,153,192Zm6-5.33a.52.52,0,0,1-.38-.17.5.5,0,0,1,0-.7l3-2.67a.5.5,0,0,1,.71,0,.51.51,0,0,1,0,.71l-3,2.66A.5.5,0,0,1,159,186.67Zm6-5.33a.5.5,0,0,1-.34-.88l3-2.66a.48.48,0,0,1,.7,0,.49.49,0,0,1,0,.7l-3,2.67A.55.55,0,0,1,165,181.34Zm6-5.34a.48.48,0,0,1-.38-.17.49.49,0,0,1,0-.7l3-2.67a.5.5,0,0,1,.66.75l-3,2.67A.52.52,0,0,1,171,176Zm6-5.33a.52.52,0,0,1-.38-.17.51.51,0,0,1,0-.71l3-2.66a.5.5,0,0,1,.66.75l-3,2.66A.48.48,0,0,1,177,170.67Zm6-5.34a.49.49,0,0,1-.33-.87l3-2.67a.49.49,0,0,1,.7.05.48.48,0,0,1,0,.7l-3,2.67A.5.5,0,0,1,183,165.33Zm6-5.33a.5.5,0,0,1-.33-.87l3-2.67a.5.5,0,0,1,.66.75l-3,2.67A.5.5,0,0,1,189,160Zm6-5.33a.5.5,0,0,1-.33-.88l3-2.66a.5.5,0,0,1,.66.74l-3,2.67A.51.51,0,0,1,195,154.67Zm6-5.34a.49.49,0,0,1-.37-.16.5.5,0,0,1,0-.71l3-2.67a.51.51,0,0,1,.71,0,.51.51,0,0,1,0,.71l-3,2.67A.5.5,0,0,1,201,149.33Zm6-5.33a.5.5,0,0,1-.33-.88l3-2.66a.5.5,0,1,1,.66.75l-3,2.66A.46.46,0,0,1,207,144Zm6-5.33a.5.5,0,0,1-.37-.17.5.5,0,0,1,0-.71l3-2.67a.51.51,0,0,1,.71,0,.49.49,0,0,1,0,.7l-3,2.67A.51.51,0,0,1,213,138.67Zm6-5.34a.51.51,0,0,1-.37-.17.49.49,0,0,1,0-.7l3-2.67a.5.5,0,0,1,.71,0,.51.51,0,0,1,0,.71l-3,2.67A.5.5,0,0,1,219,133.33Zm6-5.33a.5.5,0,0,1-.33-.88l3-2.66a.5.5,0,0,1,.71,0,.5.5,0,0,1,0,.7l-3,2.67A.5.5,0,0,1,225,128Zm6-5.34a.5.5,0,0,1-.37-.16.51.51,0,0,1,0-.71l3-2.67a.5.5,0,0,1,.67.75l-3,2.67A.54.54,0,0,1,231,122.66Z"/>
      <path class="cls-7" d="M148.5,196a.5.5,0,0,1-.37-.17.48.48,0,0,1,0-.7l1.49-1.33a.5.5,0,0,1,.71,0,.5.5,0,0,1,0,.7l-1.5,1.33A.46.46,0,0,1,148.5,196Z"/>
    </g>
    <g>
      <path class="cls-7" d="M546.62,289.67a.48.48,0,0,1-.47-.33.49.49,0,0,1,.3-.64l1.88-.67a.5.5,0,0,1,.34.94l-1.89.67A.45.45,0,0,1,546.62,289.67Z"/>
      <path class="cls-7" d="M470.2,317a.5.5,0,0,1-.16-1l3.82-1.36a.5.5,0,1,1,.33.94l-3.82,1.36A.47.47,0,0,1,470.2,317Zm7.65-2.73a.48.48,0,0,1-.47-.33.5.5,0,0,1,.3-.64l3.82-1.36a.5.5,0,1,1,.33.94L478,314.21Zm7.64-2.73a.48.48,0,0,1-.47-.33.5.5,0,0,1,.3-.64l3.82-1.36a.5.5,0,0,1,.34.94l-3.83,1.37A.44.44,0,0,1,485.49,311.5Zm7.64-2.72a.49.49,0,0,1-.47-.34.48.48,0,0,1,.3-.63l3.82-1.37a.5.5,0,0,1,.34.94l-3.82,1.37Zm7.64-2.73a.5.5,0,0,1-.17-1l3.82-1.37a.5.5,0,0,1,.34.94L500.94,306A.51.51,0,0,1,500.77,306.05Zm7.64-2.73a.5.5,0,0,1-.17-1l3.82-1.37a.5.5,0,0,1,.34.94l-3.82,1.37A.51.51,0,0,1,508.41,303.32Zm7.64-2.73a.5.5,0,0,1-.17-1l3.82-1.37a.51.51,0,0,1,.64.31.5.5,0,0,1-.3.64l-3.82,1.36A.51.51,0,0,1,516.05,300.59Zm7.64-2.73a.5.5,0,0,1-.17-1l3.83-1.37a.5.5,0,0,1,.33,1l-3.82,1.36A.51.51,0,0,1,523.69,297.86Zm7.64-2.73a.52.52,0,0,1-.47-.33.51.51,0,0,1,.31-.64L535,292.8a.49.49,0,0,1,.63.3.5.5,0,0,1-.3.64l-3.82,1.36A.47.47,0,0,1,531.33,295.13ZM539,292.4a.52.52,0,0,1-.48-.33.51.51,0,0,1,.31-.64l3.82-1.36a.5.5,0,0,1,.64.3.51.51,0,0,1-.31.64l-3.82,1.36A.45.45,0,0,1,539,292.4Z"/>
      <path class="cls-7" d="M464.5,319a.5.5,0,0,1-.17-1l1.89-.67a.5.5,0,0,1,.33.94l-1.88.67A.51.51,0,0,1,464.5,319Z"/>
    </g>
    <g>
      <path class="cls-7" d="M472.73,167.58a.53.53,0,0,1-.4-.19l-1.23-1.58a.53.53,0,0,1,.09-.71.52.52,0,0,1,.71.09l1.22,1.58a.51.51,0,0,1-.09.71A.49.49,0,0,1,472.73,167.58Z"/>
      <path class="cls-7" d="M543.9,259.36a.51.51,0,0,1-.39-.19l-2.38-3.06a.5.5,0,0,1,.09-.7.5.5,0,0,1,.7.08l2.38,3.06a.51.51,0,0,1-.09.71A.5.5,0,0,1,543.9,259.36Zm-4.74-6.12a.5.5,0,0,1-.4-.19L536.39,250a.5.5,0,0,1,.79-.61l2.37,3.06a.5.5,0,0,1-.09.7A.49.49,0,0,1,539.16,253.24Zm-4.75-6.12a.48.48,0,0,1-.39-.19l-2.38-3.06a.5.5,0,0,1,.79-.61l2.38,3.06a.49.49,0,0,1-.4.8ZM529.67,241a.5.5,0,0,1-.4-.19l-2.37-3.06a.5.5,0,0,1,.79-.61l2.37,3.06a.49.49,0,0,1-.39.8Zm-4.75-6.11a.47.47,0,0,1-.39-.2l-2.38-3.06a.5.5,0,1,1,.79-.61l2.38,3.06a.5.5,0,0,1-.09.7A.51.51,0,0,1,524.92,234.89Zm-4.74-6.12a.51.51,0,0,1-.4-.2l-2.37-3.06a.5.5,0,1,1,.79-.61l2.37,3.06a.5.5,0,0,1-.09.7A.5.5,0,0,1,520.18,228.77Zm-4.75-6.12a.49.49,0,0,1-.39-.19l-2.38-3.06a.5.5,0,1,1,.79-.62l2.38,3.06a.5.5,0,0,1-.09.7A.51.51,0,0,1,515.43,222.65Zm-4.74-6.12a.53.53,0,0,1-.4-.19l-2.37-3.06a.5.5,0,0,1,.79-.62l2.37,3.06a.5.5,0,0,1-.09.7A.45.45,0,0,1,510.69,216.53Zm-4.75-6.12a.49.49,0,0,1-.39-.19l-2.38-3.06a.5.5,0,0,1,.09-.7.5.5,0,0,1,.7.08l2.38,3.06a.51.51,0,0,1-.09.71A.5.5,0,0,1,505.94,210.41Zm-4.74-6.12a.5.5,0,0,1-.4-.19L498.43,201a.5.5,0,0,1,.79-.61l2.37,3.06a.5.5,0,0,1-.09.7A.49.49,0,0,1,501.2,204.29Zm-4.75-6.12a.47.47,0,0,1-.39-.19l-2.38-3.06a.5.5,0,0,1,.79-.61l2.38,3.06a.49.49,0,0,1-.4.8Zm-4.74-6.12a.5.5,0,0,1-.4-.19l-2.37-3.06a.5.5,0,0,1,.79-.61l2.37,3.06a.49.49,0,0,1-.39.8ZM487,185.94a.47.47,0,0,1-.39-.2l-2.38-3.06a.5.5,0,0,1,.79-.61l2.38,3.06a.5.5,0,0,1-.09.7A.51.51,0,0,1,487,185.94Zm-4.74-6.12a.51.51,0,0,1-.4-.2l-2.37-3.05a.5.5,0,1,1,.79-.62l2.37,3.06a.5.5,0,0,1-.09.7A.5.5,0,0,1,482.22,179.82Zm-4.75-6.12a.49.49,0,0,1-.39-.19l-2.38-3.06a.5.5,0,1,1,.79-.62l2.38,3.06a.5.5,0,0,1-.09.7A.45.45,0,0,1,477.47,173.7Z"/>
      <path class="cls-7" d="M547.5,264a.53.53,0,0,1-.4-.19l-1.22-1.58a.5.5,0,1,1,.79-.62l1.23,1.58a.53.53,0,0,1-.09.71A.52.52,0,0,1,547.5,264Z"/>
    </g>
    <g>
      <g>
        <g>
          <path class="cls-7" d="M471.84,367.5c-4.82,0-9.27-.46-11.34-1.18-.6-.11-.93-.26-.93-.4v-5.13h24.54v5.07c0,.17-.26.33-.84.43C481.13,367,476.67,367.5,471.84,367.5Z"/>
          <path class="cls-4" d="M483.61,361.29v4.4a3.15,3.15,0,0,1-.43.11h-.08l-.07,0c-2,.7-6.41,1.16-11.19,1.16s-9.15-.45-11.18-1.15l-.07,0h-.08a2.68,2.68,0,0,1-.44-.11h0v-4.41h23.54m1-1H459.07v5.63c0,.46.45.73,1.27.87,2.06.72,6.44,1.21,11.5,1.21s9.46-.5,11.52-1.22c.8-.14,1.25-.4,1.25-.86v-5.63Z"/>
        </g>
        <g>
          <path class="cls-7" d="M471.84,361.92c-7.61,0-12-1.08-12.28-1.68.3-.52,4.67-1.6,12.28-1.6s12,1.08,12.28,1.69C483.81,360.84,479.45,361.92,471.84,361.92Z"/>
          <path class="cls-4" d="M471.84,359.14c5.87,0,9.63.63,11.16,1.14-1.53.52-5.29,1.14-11.16,1.14s-9.63-.62-11.16-1.14c1.53-.51,5.29-1.14,11.16-1.14m0-1c-7,0-12.77,1-12.77,2.14s5.72,2.14,12.77,2.14,12.77-1,12.77-2.14-5.72-2.14-12.77-2.14Z"/>
        </g>
      </g>
      <g>
        <g>
          <path class="cls-7" d="M471.84,361.93c-4.82,0-9.27-.47-11.34-1.18-.6-.11-.93-.26-.93-.4v-5.13h24.54v5.07c0,.17-.26.33-.84.43C481.13,361.46,476.67,361.93,471.84,361.93Z"/>
          <path class="cls-4" d="M483.61,355.72v4.4a3.15,3.15,0,0,1-.43.11h-.08l-.07,0c-2,.7-6.41,1.16-11.19,1.16s-9.15-.45-11.18-1.16l-.07,0-.08,0a1.5,1.5,0,0,1-.44-.11h0v-4.4h23.54m1-1H459.07v5.63c0,.46.45.73,1.27.87,2.06.72,6.44,1.21,11.5,1.21s9.46-.5,11.52-1.22c.8-.14,1.25-.41,1.25-.86v-5.63Z"/>
        </g>
        <g>
          <path class="cls-7" d="M471.84,356.35c-7.61,0-12-1.08-12.28-1.68.3-.52,4.67-1.6,12.28-1.6s12,1.08,12.28,1.68C483.81,355.27,479.45,356.35,471.84,356.35Z"/>
          <path class="cls-4" d="M471.84,353.57c5.87,0,9.63.63,11.16,1.14-1.53.52-5.29,1.14-11.16,1.14s-9.63-.62-11.16-1.14c1.53-.51,5.29-1.14,11.16-1.14m0-1c-7,0-12.77,1-12.77,2.14s5.72,2.14,12.77,2.14,12.77-1,12.77-2.14-5.72-2.14-12.77-2.14Z"/>
        </g>
      </g>
      <g>
        <g>
          <path class="cls-7" d="M471.84,356.36c-4.82,0-9.27-.47-11.34-1.18-.6-.12-.93-.26-.93-.4l0-.15v-.08l0-4.9h24.54v5.07c0,.17-.26.32-.84.43C481.13,355.89,476.67,356.36,471.84,356.36Z"/>
          <path class="cls-4" d="M483.61,350.15v4.4a3.15,3.15,0,0,1-.43.11h-.08l-.07,0c-2,.7-6.41,1.16-11.19,1.16s-9.15-.46-11.18-1.16l-.07,0-.08,0a2.24,2.24,0,0,1-.4-.09v0l0-4.4h23.53m1-1H459.07l0,5.4,0,.2v0c0,.46.45.73,1.27.87,2.06.71,6.44,1.21,11.5,1.21s9.46-.5,11.52-1.22c.8-.14,1.25-.41,1.25-.86v-5.63Z"/>
        </g>
        <g>
          <path class="cls-7" d="M471.84,350.78c-7.61,0-12-1.08-12.28-1.68.3-.52,4.67-1.6,12.28-1.6s12,1.08,12.28,1.68C483.81,349.7,479.45,350.78,471.84,350.78Z"/>
          <path class="cls-4" d="M471.84,348c5.87,0,9.63.62,11.16,1.14-1.53.51-5.29,1.14-11.16,1.14s-9.63-.63-11.16-1.14c1.53-.52,5.29-1.14,11.16-1.14m0-1c-7,0-12.77,1-12.77,2.14s5.72,2.14,12.77,2.14,12.77-1,12.77-2.14S478.89,347,471.84,347Z"/>
        </g>
      </g>
    </g>
    <g>
      <g>
        <rect class="cls-7" x="352.5" y="263.5" width="11" height="26"/>
        <path class="cls-4" d="M364,290H352V263h12Zm-11-1h10V264H353Z"/>
      </g>
      <g>
        <rect class="cls-7" x="352.5" y="258.5" width="11" height="5"/>
        <path class="cls-4" d="M364,264H352v-6h12Zm-11-1h10v-4H353Z"/>
      </g>
      <g>
        <rect class="cls-7" x="354.5" y="266.5" width="2" height="2"/>
        <path class="cls-4" d="M357,269h-3v-3h3Zm-2-1h1v-1h-1Z"/>
      </g>
      <g>
        <rect class="cls-7" x="359.5" y="266.5" width="2" height="2"/>
        <path class="cls-4" d="M362,269h-3v-3h3Zm-2-1h1v-1h-1Z"/>
      </g>
      <g>
        <rect class="cls-7" x="354.5" y="270.5" width="2" height="2"/>
        <path class="cls-4" d="M357,273h-3v-3h3Zm-2-1h1v-1h-1Z"/>
      </g>
      <g>
        <rect class="cls-7" x="359.5" y="270.5" width="2" height="2"/>
        <path class="cls-4" d="M362,273h-3v-3h3Zm-2-1h1v-1h-1Z"/>
      </g>
      <g>
        <rect class="cls-7" x="354.5" y="274.5" width="2" height="2"/>
        <path class="cls-4" d="M357,277h-3v-3h3Zm-2-1h1v-1h-1Z"/>
      </g>
      <g>
        <rect class="cls-7" x="359.5" y="274.5" width="2" height="2"/>
        <path class="cls-4" d="M362,277h-3v-3h3Zm-2-1h1v-1h-1Z"/>
      </g>
      <g>
        <rect class="cls-7" x="354.5" y="278.5" width="2" height="2"/>
        <path class="cls-4" d="M357,281h-3v-3h3Zm-2-1h1v-1h-1Z"/>
      </g>
      <g>
        <rect class="cls-7" x="359.5" y="278.5" width="2" height="2"/>
        <path class="cls-4" d="M362,281h-3v-3h3Zm-2-1h1v-1h-1Z"/>
      </g>
      <g>
        <rect class="cls-7" x="354.5" y="282.5" width="2" height="2"/>
        <path class="cls-4" d="M357,285h-3v-3h3Zm-2-1h1v-1h-1Z"/>
      </g>
      <g>
        <rect class="cls-7" x="359.5" y="282.5" width="2" height="2"/>
        <path class="cls-4" d="M362,285h-3v-3h3Zm-2-1h1v-1h-1Z"/>
      </g>
    </g>
    <g>
      <g>
        <rect class="cls-7" x="224.5" y="259.5" width="11" height="26"/>
        <path class="cls-4" d="M236,286H224V259h12Zm-11-1h10V260H225Z"/>
      </g>
      <g>
        <rect class="cls-7" x="224.5" y="254.5" width="11" height="5"/>
        <path class="cls-4" d="M236,260H224v-6h12Zm-11-1h10v-4H225Z"/>
      </g>
      <g>
        <rect class="cls-7" x="226.5" y="262.5" width="2" height="2"/>
        <path class="cls-4" d="M229,265h-3v-3h3Zm-2-1h1v-1h-1Z"/>
      </g>
      <g>
        <rect class="cls-7" x="231.5" y="262.5" width="2" height="2"/>
        <path class="cls-4" d="M234,265h-3v-3h3Zm-2-1h1v-1h-1Z"/>
      </g>
      <g>
        <rect class="cls-7" x="226.5" y="266.5" width="2" height="2"/>
        <path class="cls-4" d="M229,269h-3v-3h3Zm-2-1h1v-1h-1Z"/>
      </g>
      <g>
        <rect class="cls-7" x="231.5" y="266.5" width="2" height="2"/>
        <path class="cls-4" d="M234,269h-3v-3h3Zm-2-1h1v-1h-1Z"/>
      </g>
      <g>
        <rect class="cls-7" x="226.5" y="270.5" width="2" height="2"/>
        <path class="cls-4" d="M229,273h-3v-3h3Zm-2-1h1v-1h-1Z"/>
      </g>
      <g>
        <rect class="cls-7" x="231.5" y="270.5" width="2" height="2"/>
        <path class="cls-4" d="M234,273h-3v-3h3Zm-2-1h1v-1h-1Z"/>
      </g>
      <g>
        <rect class="cls-7" x="226.5" y="274.5" width="2" height="2"/>
        <path class="cls-4" d="M229,277h-3v-3h3Zm-2-1h1v-1h-1Z"/>
      </g>
      <g>
        <rect class="cls-7" x="231.5" y="274.5" width="2" height="2"/>
        <path class="cls-4" d="M234,277h-3v-3h3Zm-2-1h1v-1h-1Z"/>
      </g>
      <g>
        <rect class="cls-7" x="226.5" y="278.5" width="2" height="2"/>
        <path class="cls-4" d="M229,281h-3v-3h3Zm-2-1h1v-1h-1Z"/>
      </g>
      <g>
        <rect class="cls-7" x="231.5" y="278.5" width="2" height="2"/>
        <path class="cls-4" d="M234,281h-3v-3h3Zm-2-1h1v-1h-1Z"/>
      </g>
    </g>
    <g>
      <g>
        <rect class="cls-7" x="152.5" y="356.55" width="26.5" height="10.05" rx="2.39"/>
        <path class="cls-4" d="M176.6,367.1H154.9a2.9,2.9,0,0,1-2.9-2.89V359a2.9,2.9,0,0,1,2.9-2.9h21.7a2.9,2.9,0,0,1,2.9,2.9v5.26A2.9,2.9,0,0,1,176.6,367.1Zm-21.7-10.05A1.9,1.9,0,0,0,153,359v5.26a1.9,1.9,0,0,0,1.9,1.89h21.7a1.9,1.9,0,0,0,1.9-1.89V359a1.9,1.9,0,0,0-1.9-1.9Z"/>
      </g>
      <g>
        <circle class="cls-4" cx="173.97" cy="361.58" r="1.37"/>
        <path class="cls-4" d="M174,363.45a1.87,1.87,0,1,1,1.87-1.87A1.87,1.87,0,0,1,174,363.45Zm0-2.74a.87.87,0,1,0,.87.87A.87.87,0,0,0,174,360.71Z"/>
      </g>
      <g>
        <circle class="cls-4" cx="168.49" cy="361.58" r="1.37"/>
        <path class="cls-4" d="M168.49,363.45a1.87,1.87,0,1,1,1.87-1.87A1.87,1.87,0,0,1,168.49,363.45Zm0-2.74a.87.87,0,1,0,.87.87A.87.87,0,0,0,168.49,360.71Z"/>
      </g>
      <g>
        <rect class="cls-7" x="152.5" y="346.5" width="26.5" height="10.05" rx="2.39"/>
        <path class="cls-4" d="M176.6,357.05H154.9a2.9,2.9,0,0,1-2.9-2.89v-5.27a2.9,2.9,0,0,1,2.9-2.89h21.7a2.9,2.9,0,0,1,2.9,2.89v5.27A2.9,2.9,0,0,1,176.6,357.05ZM154.9,347a1.9,1.9,0,0,0-1.9,1.89v5.27a1.9,1.9,0,0,0,1.9,1.89h21.7a1.9,1.9,0,0,0,1.9-1.89v-5.27a1.9,1.9,0,0,0-1.9-1.89Z"/>
      </g>
      <g>
        <circle class="cls-4" cx="173.97" cy="351.53" r="1.37"/>
        <path class="cls-4" d="M174,353.4a1.87,1.87,0,1,1,1.87-1.87A1.87,1.87,0,0,1,174,353.4Zm0-2.74a.87.87,0,1,0,.87.87A.87.87,0,0,0,174,350.66Z"/>
      </g>
      <g>
        <circle class="cls-4" cx="168.49" cy="351.53" r="1.37"/>
        <path class="cls-4" d="M168.49,353.4a1.87,1.87,0,1,1,1.87-1.87A1.87,1.87,0,0,1,168.49,353.4Zm0-2.74a.87.87,0,1,0,.87.87A.87.87,0,0,0,168.49,350.66Z"/>
      </g>
    </g>
    <g>
      <g>
        <rect class="cls-7" x="435.5" y="313.55" width="26.5" height="10.05" rx="2.39"/>
        <path class="cls-4" d="M459.61,324.1H437.89a2.9,2.9,0,0,1-2.89-2.89V316a2.9,2.9,0,0,1,2.89-2.9h21.72a2.9,2.9,0,0,1,2.89,2.9v5.26A2.9,2.9,0,0,1,459.61,324.1Zm-21.72-10.05A1.9,1.9,0,0,0,436,316v5.26a1.89,1.89,0,0,0,1.89,1.89h21.72a1.89,1.89,0,0,0,1.89-1.89V316a1.9,1.9,0,0,0-1.89-1.9Z"/>
      </g>
      <g>
        <circle class="cls-4" cx="456.97" cy="318.58" r="1.37"/>
        <path class="cls-4" d="M457,320.45a1.87,1.87,0,1,1,1.87-1.87A1.87,1.87,0,0,1,457,320.45Zm0-2.74a.87.87,0,1,0,.87.87A.87.87,0,0,0,457,317.71Z"/>
      </g>
      <g>
        <circle class="cls-4" cx="451.49" cy="318.58" r="1.37"/>
        <path class="cls-4" d="M451.49,320.45a1.87,1.87,0,1,1,1.87-1.87A1.87,1.87,0,0,1,451.49,320.45Zm0-2.74a.87.87,0,1,0,.87.87A.87.87,0,0,0,451.49,317.71Z"/>
      </g>
      <g>
        <rect class="cls-7" x="435.5" y="303.5" width="26.5" height="10.05" rx="2.39"/>
        <path class="cls-4" d="M459.61,314.05H437.89a2.9,2.9,0,0,1-2.89-2.89v-5.27a2.9,2.9,0,0,1,2.89-2.89h21.72a2.9,2.9,0,0,1,2.89,2.89v5.27A2.9,2.9,0,0,1,459.61,314.05ZM437.89,304a1.89,1.89,0,0,0-1.89,1.89v5.27a1.89,1.89,0,0,0,1.89,1.89h21.72a1.89,1.89,0,0,0,1.89-1.89v-5.27a1.89,1.89,0,0,0-1.89-1.89Z"/>
      </g>
      <g>
        <circle class="cls-4" cx="456.97" cy="308.53" r="1.37"/>
        <path class="cls-4" d="M457,310.4a1.87,1.87,0,1,1,1.87-1.87A1.87,1.87,0,0,1,457,310.4Zm0-2.74a.87.87,0,1,0,.87.87A.87.87,0,0,0,457,307.66Z"/>
      </g>
      <g>
        <circle class="cls-4" cx="451.49" cy="308.53" r="1.37"/>
        <path class="cls-4" d="M451.49,310.4a1.87,1.87,0,1,1,1.87-1.87A1.87,1.87,0,0,1,451.49,310.4Zm0-2.74a.87.87,0,1,0,.87.87A.87.87,0,0,0,451.49,307.66Z"/>
      </g>
    </g>
    <g>
      <path class="cls-7" d="M367.44,291.5h-.13l-1.94-.51a.5.5,0,0,1-.35-.61.49.49,0,0,1,.61-.35l1.93.5a.5.5,0,0,1-.12,1Z"/>
      <path class="cls-7" d="M432.5,308.44l-.13,0-4.06-1.06a.5.5,0,0,1-.36-.61.49.49,0,0,1,.61-.35l4.06,1.05a.5.5,0,0,1-.12,1Zm-8.13-2.12a.27.27,0,0,1-.13,0l-4.07-1.05a.5.5,0,0,1-.35-.61.48.48,0,0,1,.6-.36l4.07,1.06a.5.5,0,0,1-.12,1Zm-8.14-2.12h-.12L412,303.13a.5.5,0,0,1,.25-1l4.07,1.06a.5.5,0,0,1,.36.61A.5.5,0,0,1,416.23,304.2Zm-8.13-2.11-.13,0L403.91,301a.5.5,0,0,1-.36-.61.49.49,0,0,1,.61-.35l4.07,1.05a.5.5,0,0,1,.35.61A.49.49,0,0,1,408.1,302.09ZM400,300a.3.3,0,0,1-.13,0l-4.07-1.05a.5.5,0,0,1-.35-.61.49.49,0,0,1,.61-.36l4.06,1.06a.5.5,0,0,1-.12,1Zm-8.14-2.12h-.12l-4.07-1.06a.5.5,0,0,1,.25-1l4.07,1.06a.5.5,0,0,1-.13,1Zm-8.13-2.11-.12,0-4.07-1.06a.5.5,0,0,1-.36-.61.49.49,0,0,1,.61-.35l4.07,1.05a.5.5,0,0,1,.35.61A.49.49,0,0,1,383.7,295.74Zm-8.13-2.12a.3.3,0,0,1-.13,0l-4.06-1.05a.5.5,0,0,1-.36-.61.49.49,0,0,1,.61-.36l4.06,1.06a.5.5,0,0,1-.12,1Z"/>
      <path class="cls-7" d="M438.5,310a.32.32,0,0,1-.13,0l-1.93-.5a.5.5,0,0,1,.25-1l1.94.51a.5.5,0,0,1,.35.61A.49.49,0,0,1,438.5,310Z"/>
    </g>
    <g>
      <path class="cls-7" d="M362.21,293A.48.48,0,0,1,362,293l-1.71-1a.5.5,0,1,1,.52-.86l1.71,1a.5.5,0,0,1,.17.69A.52.52,0,0,1,362.21,293Z"/>
      <path class="cls-7" d="M457.39,350.89a.48.48,0,0,1-.26-.07l-3.4-2.06a.51.51,0,0,1-.17-.69.51.51,0,0,1,.69-.17l3.4,2.07a.5.5,0,0,1-.26.92Zm-6.8-4.13a.48.48,0,0,1-.26-.07l-3.4-2.07a.5.5,0,0,1,.52-.85l3.4,2.06a.51.51,0,0,1,.17.69A.49.49,0,0,1,450.59,346.76Zm-6.8-4.13a.54.54,0,0,1-.26-.07l-3.4-2.07a.5.5,0,0,1-.16-.69.49.49,0,0,1,.68-.16l3.4,2.06a.5.5,0,0,1-.26.93ZM437,338.5a.5.5,0,0,1-.26-.08l-3.4-2.06a.5.5,0,1,1,.52-.86l3.39,2.07a.49.49,0,0,1,.17.69A.5.5,0,0,1,437,338.5Zm-6.8-4.14a.48.48,0,0,1-.26-.07l-3.4-2.06a.5.5,0,1,1,.52-.86l3.4,2.07a.49.49,0,0,1,.16.68A.48.48,0,0,1,430.2,334.36Zm-6.8-4.13a.48.48,0,0,1-.26-.07l-3.4-2.07a.49.49,0,0,1-.17-.68.5.5,0,0,1,.69-.17l3.4,2.06a.52.52,0,0,1,.17.69A.5.5,0,0,1,423.4,330.23Zm-6.8-4.13a.48.48,0,0,1-.26-.07l-3.4-2.07a.5.5,0,1,1,.52-.85l3.4,2.06a.5.5,0,0,1,.17.69A.52.52,0,0,1,416.6,326.1ZM409.8,322a.5.5,0,0,1-.26-.08l-3.4-2.06a.51.51,0,0,1-.17-.69.51.51,0,0,1,.69-.17l3.4,2.07a.5.5,0,0,1,.17.69A.52.52,0,0,1,409.8,322Zm-6.8-4.14a.48.48,0,0,1-.26-.07l-3.4-2.06a.51.51,0,0,1-.17-.69.51.51,0,0,1,.69-.17l3.4,2.07a.5.5,0,0,1-.26.92Zm-6.8-4.13a.48.48,0,0,1-.26-.07l-3.4-2.07a.5.5,0,0,1,.52-.85l3.4,2.06a.51.51,0,0,1,.17.69A.49.49,0,0,1,396.2,313.7Zm-6.8-4.13a.54.54,0,0,1-.26-.07l-3.39-2.07a.5.5,0,1,1,.51-.85l3.4,2.06a.5.5,0,0,1-.26.93Zm-6.79-4.13a.5.5,0,0,1-.26-.08L379,303.3a.5.5,0,1,1,.52-.86l3.4,2.07a.5.5,0,0,1-.26.93Zm-6.8-4.14a.48.48,0,0,1-.26-.07l-3.4-2.06a.5.5,0,1,1,.52-.86l3.4,2.07a.49.49,0,0,1,.16.68A.48.48,0,0,1,375.81,301.3Zm-6.8-4.13a.48.48,0,0,1-.26-.07l-3.4-2.07a.49.49,0,0,1-.17-.68.5.5,0,0,1,.69-.17l3.4,2.06a.52.52,0,0,1,.17.69A.5.5,0,0,1,369,297.17Z"/>
      <path class="cls-7" d="M462.5,354a.48.48,0,0,1-.26-.07l-1.71-1a.5.5,0,0,1-.17-.69.52.52,0,0,1,.69-.17l1.71,1a.5.5,0,0,1,.17.69A.52.52,0,0,1,462.5,354Z"/>
    </g>
    <g>
      <path class="cls-7" d="M236.27,288.94a.53.53,0,0,1-.24-.06l-1.76-.94a.5.5,0,0,1,.46-.88l1.77.94a.49.49,0,0,1,.21.67A.5.5,0,0,1,236.27,288.94Z"/>
      <path class="cls-7" d="M412.21,382.2a.46.46,0,0,1-.23-.06l-3.52-1.87a.5.5,0,1,1,.47-.88l3.52,1.87a.5.5,0,0,1-.24.94Zm-7-3.73a.53.53,0,0,1-.23-.06l-3.52-1.87a.5.5,0,0,1-.21-.67.5.5,0,0,1,.68-.21l3.52,1.87a.5.5,0,0,1,.21.67A.51.51,0,0,1,405.17,378.47Zm-7-3.73a.53.53,0,0,1-.24-.06l-3.52-1.87a.49.49,0,0,1-.2-.67.49.49,0,0,1,.67-.21l3.52,1.87a.49.49,0,0,1,.21.67A.5.5,0,0,1,398.14,374.74Zm-7-3.73a.46.46,0,0,1-.23-.06l-3.52-1.87a.49.49,0,0,1-.21-.67.5.5,0,0,1,.68-.21l3.51,1.87a.49.49,0,0,1,.21.67A.5.5,0,0,1,391.1,371Zm-7-3.73a.46.46,0,0,1-.23-.06l-3.52-1.87a.49.49,0,0,1-.21-.67.5.5,0,0,1,.68-.21l3.52,1.86a.51.51,0,0,1,.2.68A.5.5,0,0,1,384.06,367.28Zm-7-3.73a.46.46,0,0,1-.23-.06l-3.52-1.87a.5.5,0,1,1,.47-.88l3.52,1.86a.51.51,0,0,1,.2.68A.49.49,0,0,1,377,363.55Zm-7-3.73a.53.53,0,0,1-.24-.06l-3.52-1.87a.49.49,0,0,1-.2-.67.49.49,0,0,1,.67-.21l3.52,1.86a.51.51,0,0,1,.21.68A.5.5,0,0,1,370,359.82Zm-7-3.74a.52.52,0,0,1-.24-.05l-3.51-1.87a.5.5,0,0,1,.46-.88l3.52,1.86a.5.5,0,0,1,.21.68A.49.49,0,0,1,363,356.08Zm-7-3.73a.46.46,0,0,1-.23-.05l-3.52-1.87a.5.5,0,0,1-.21-.68.5.5,0,0,1,.68-.2l3.51,1.86a.5.5,0,0,1,.21.68A.49.49,0,0,1,355.91,352.35Zm-7-3.73a.46.46,0,0,1-.23-.05l-3.52-1.87a.5.5,0,1,1,.47-.88l3.52,1.86a.5.5,0,0,1,.2.68A.49.49,0,0,1,348.87,348.62Zm-7-3.73a.42.42,0,0,1-.23-.06L338.08,343a.5.5,0,1,1,.47-.88l3.52,1.86a.5.5,0,0,1-.24.94Zm-7-3.73a.53.53,0,0,1-.24-.06L331,339.24a.5.5,0,0,1-.2-.68.49.49,0,0,1,.67-.2l3.52,1.86a.5.5,0,0,1,.21.68A.49.49,0,0,1,334.8,341.16Zm-7-3.73a.53.53,0,0,1-.24-.06L324,335.51a.5.5,0,1,1,.46-.88l3.52,1.86a.5.5,0,0,1,.21.68A.49.49,0,0,1,327.76,337.43Zm-7-3.73a.46.46,0,0,1-.23-.06L317,331.78a.5.5,0,1,1,.47-.88l3.52,1.86a.5.5,0,0,1,.2.68A.49.49,0,0,1,320.72,333.7Zm-7-3.73a.46.46,0,0,1-.23-.06l-3.52-1.86a.51.51,0,0,1-.21-.68.5.5,0,0,1,.68-.2l3.52,1.86a.52.52,0,0,1,.21.68A.5.5,0,0,1,313.68,330Zm-7-3.73a.53.53,0,0,1-.24-.06l-3.52-1.86a.52.52,0,0,1-.21-.68.51.51,0,0,1,.68-.21l3.52,1.87a.51.51,0,0,1,.21.68A.52.52,0,0,1,306.65,326.24Zm-7-3.73a.53.53,0,0,1-.24-.06l-3.52-1.86a.5.5,0,0,1-.2-.68.5.5,0,0,1,.67-.21l3.52,1.87a.5.5,0,0,1,.21.68A.51.51,0,0,1,299.61,322.51Zm-7-3.73a.46.46,0,0,1-.23-.06l-3.52-1.86a.5.5,0,0,1-.21-.68.51.51,0,0,1,.68-.21l3.51,1.87a.49.49,0,0,1,.21.67A.5.5,0,0,1,292.57,318.78Zm-7-3.73a.46.46,0,0,1-.23-.06l-3.52-1.86a.5.5,0,0,1,.47-.89l3.52,1.87a.5.5,0,0,1-.24.94Zm-7-3.73a.46.46,0,0,1-.23-.06l-3.52-1.86a.5.5,0,0,1,.47-.89l3.52,1.87a.5.5,0,0,1,.21.67A.51.51,0,0,1,278.49,311.32Zm-7-3.73a.53.53,0,0,1-.24-.06l-3.52-1.86a.51.51,0,0,1-.2-.68.5.5,0,0,1,.67-.21l3.52,1.87a.5.5,0,0,1-.23.94Zm-7-3.73a.53.53,0,0,1-.24-.06l-3.51-1.87a.5.5,0,1,1,.46-.88l3.52,1.87a.49.49,0,0,1,.21.67A.5.5,0,0,1,264.42,303.86Zm-7-3.73a.46.46,0,0,1-.23-.06l-3.52-1.87a.49.49,0,0,1-.21-.67.5.5,0,0,1,.68-.21l3.52,1.87a.5.5,0,0,1-.24.94Zm-7-3.73a.46.46,0,0,1-.23-.06l-3.52-1.87a.5.5,0,1,1,.47-.88l3.52,1.87a.49.49,0,0,1,.2.67A.5.5,0,0,1,250.34,296.4Zm-7-3.73a.53.53,0,0,1-.23-.06l-3.52-1.87a.5.5,0,1,1,.47-.88l3.52,1.87a.5.5,0,0,1,.21.67A.51.51,0,0,1,243.3,292.67Z"/>
      <path class="cls-7" d="M417.5,385a.53.53,0,0,1-.24-.06L415.5,384a.49.49,0,0,1-.21-.67.5.5,0,0,1,.68-.21l1.76.94a.49.49,0,0,1,.21.67A.5.5,0,0,1,417.5,385Z"/>
    </g>
    <g>
      <path class="cls-7" d="M184.5,362h0l-2,0a.5.5,0,0,1-.49-.5.54.54,0,0,1,.51-.5l2,0a.5.5,0,0,1,0,1Z"/>
      <path class="cls-7" d="M456.5,364.94h0l-4-.05a.5.5,0,0,1,0-1h0l4,.05a.5.5,0,0,1,.5.5A.51.51,0,0,1,456.5,364.94Zm-8-.09h0l-4,0a.51.51,0,0,1-.5-.51.5.5,0,0,1,.5-.49h0l4,0a.5.5,0,0,1,0,1Zm-8-.09h0l-4,0a.5.5,0,0,1,0-1h0l4,0a.51.51,0,0,1,.5.51A.5.5,0,0,1,440.5,364.76Zm-8-.08h0l-4,0a.51.51,0,0,1-.5-.51.5.5,0,0,1,.5-.49h0l4,0a.5.5,0,0,1,0,1Zm-8-.09h0l-4,0a.5.5,0,1,1,0-1h0l4,0a.51.51,0,0,1,.5.51A.5.5,0,0,1,424.5,364.59Zm-8-.08h0l-4-.05a.5.5,0,0,1,0-1h0l4,.05a.5.5,0,0,1,0,1Zm-8-.09h0l-4,0a.5.5,0,1,1,0-1h0l4,0a.5.5,0,1,1,0,1Zm-8-.08h0l-4,0a.5.5,0,0,1,0-1h0l4,0a.5.5,0,0,1,0,1Zm-8-.09h0l-4,0a.51.51,0,0,1-.5-.51.5.5,0,0,1,.5-.49h0l4,0a.5.5,0,0,1,0,1Zm-8-.09h0l-4,0a.5.5,0,0,1,0-1h0l4,0a.51.51,0,0,1,.5.51A.5.5,0,0,1,384.5,364.16Zm-8-.08h0l-4,0a.51.51,0,0,1-.5-.51.5.5,0,0,1,.5-.49h0l4,0a.5.5,0,0,1,0,1Zm-8-.09h0l-4,0a.5.5,0,0,1,0-1h0l4,0a.51.51,0,0,1,.5.51A.5.5,0,0,1,368.5,364Zm-8-.08h0l-4-.05a.5.5,0,0,1,0-1h0l4,.05a.5.5,0,0,1,0,1Zm-8-.09h0l-4,0a.5.5,0,1,1,0-1h0l4,0a.5.5,0,1,1,0,1Zm-8-.08h0l-4-.05a.5.5,0,0,1,0-1h0l4,.05a.5.5,0,0,1,.5.5A.51.51,0,0,1,344.5,363.74Zm-8-.09h0l-4,0a.51.51,0,0,1-.5-.51.5.5,0,0,1,.5-.49h0l4,0a.5.5,0,1,1,0,1Zm-8-.09h0l-4,0a.5.5,0,0,1,0-1h0l4,0a.51.51,0,0,1,.5.51A.5.5,0,0,1,328.5,363.56Zm-8-.08h0l-4,0a.51.51,0,0,1-.49-.51.49.49,0,0,1,.51-.49l4,0a.5.5,0,0,1,0,1Zm-8-.09h0l-4,0a.5.5,0,0,1,0-1h0l4,0a.51.51,0,0,1,.49.51A.5.5,0,0,1,312.5,363.39Zm-8-.08h0l-4-.05a.49.49,0,0,1-.49-.5.52.52,0,0,1,.51-.5l4,.05a.5.5,0,0,1,0,1Zm-8-.09h0l-4,0a.5.5,0,0,1-.49-.51.49.49,0,0,1,.51-.49l4,0a.5.5,0,0,1,0,1Zm-8-.08h0l-4-.05a.5.5,0,0,1,0-1h0l4,.05a.5.5,0,0,1,0,1Zm-8-.09h0l-4,0a.5.5,0,1,1,0-1l4,0a.5.5,0,0,1,0,1Zm-8-.09h0l-4,0a.5.5,0,0,1-.49-.5.48.48,0,0,1,.51-.5l4,0a.51.51,0,0,1,.49.51A.5.5,0,0,1,272.5,363Zm-8-.08h0l-4,0a.51.51,0,0,1-.49-.51.52.52,0,0,1,.51-.49l4,0a.5.5,0,0,1,0,1Zm-8-.09h0l-4,0a.5.5,0,0,1,0-1l4,0a.51.51,0,0,1,.49.51A.5.5,0,0,1,256.5,362.79Zm-8-.08h0l-4,0a.5.5,0,0,1,0-1h0l4,0a.5.5,0,0,1,0,1Zm-8-.09h0l-4,0a.5.5,0,0,1,0-1h0l4,0a.5.5,0,0,1,0,1Zm-8-.08h0l-4-.05a.5.5,0,0,1-.49-.5.49.49,0,0,1,.51-.5l4,.05a.5.5,0,0,1,0,1Zm-8-.09h0l-4,0a.51.51,0,0,1-.49-.51.5.5,0,0,1,.5-.49h0l4,0a.5.5,0,0,1,0,1Zm-8-.09h0l-4,0a.5.5,0,0,1-.49-.5.51.51,0,0,1,.51-.5l4,0a.51.51,0,0,1,.49.51A.5.5,0,0,1,216.5,362.36Zm-8-.08h0l-4,0a.51.51,0,0,1-.49-.51.5.5,0,0,1,.5-.49h0l4,0a.5.5,0,0,1,0,1Zm-8-.09h0l-4,0a.5.5,0,0,1-.49-.5.53.53,0,0,1,.51-.5l4,0a.51.51,0,0,1,.49.51A.5.5,0,0,1,200.5,362.19Zm-8-.08h0l-4-.05a.5.5,0,0,1,0-1l4,.05a.5.5,0,0,1,0,1Z"/>
      <path class="cls-7" d="M462.5,365h0l-2,0a.5.5,0,1,1,0-1h0l2,0a.5.5,0,0,1,0,1Z"/>
    </g>
    <g>
      <path class="cls-8" d="M312.26,64.8a25.62,25.62,0,0,0-13.7,4A25.74,25.74,0,0,0,249.16,70h-2.7a21,21,0,0,0-21,21h0a21,21,0,0,0,21,21h11.4a25.56,25.56,0,0,0,44.22,2.32A25.74,25.74,0,1,0,312.26,64.8Z"/>
      <path class="cls-4" d="M280.65,126.33a26.12,26.12,0,0,1-23.09-14h-11.1a21.46,21.46,0,1,1,0-42.91h2.32a26.23,26.23,0,0,1,50-1.44,26.22,26.22,0,1,1,3.44,46.79A26.1,26.1,0,0,1,280.65,126.33ZM246.46,70.45a20.46,20.46,0,1,0,0,40.91h11.71l.14.27a25,25,0,0,0,43.35,2.27l.23-.35.39.17a25.24,25.24,0,1,0-3.46-44.53l-.54.34-.2-.62a25.24,25.24,0,0,0-48.44,1.17l-.1.37Z"/>
    </g>
    <g>
      <g>
        <rect class="cls-8" x="51.04" y="172.51" width="99.29" height="66.15"/>
        <path class="cls-4" d="M150.84,239.16H50.54V172h100.3Zm-99.3-1h98.3V173H51.54Z"/>
      </g>
      <g>
        <rect class="cls-8" x="93.26" y="219.49" width="14.85" height="36.39"/>
        <path class="cls-4" d="M108.62,256.38H92.76V219h15.86Zm-14.86-1h13.86V220H93.76Z"/>
      </g>
      <g>
        <path class="cls-8" d="M70.94,252.78h59.52a4.44,4.44,0,0,1,4.44,4.45V259H66.49v-1.77A4.45,4.45,0,0,1,70.94,252.78Z"/>
        <path class="cls-4" d="M135.4,259.5H66v-2.27a5,5,0,0,1,5-5h59.52a5,5,0,0,1,4.94,5ZM67,258.5H134.4v-1.27a4,4,0,0,0-3.94-4H70.94a4,4,0,0,0-4,4Z"/>
      </g>
      <g>
        <circle class="cls-8" cx="100.69" cy="214.88" r="15.57"/>
        <path class="cls-4" d="M100.69,231a16.08,16.08,0,1,1,16.07-16.07A16.09,16.09,0,0,1,100.69,231Zm0-31.15a15.08,15.08,0,1,0,15.07,15.08A15.1,15.1,0,0,0,100.69,199.8Z"/>
      </g>
    </g>
    <g>
      <path class="cls-7" d="M548.5,273a.47.47,0,0,1-.25-.07l-1.73-1a.51.51,0,0,1-.19-.69.5.5,0,0,1,.68-.18l1.74,1a.5.5,0,0,1-.25.93Z"/>
      <path class="cls-7" d="M543.33,270a.47.47,0,0,1-.25-.07l-3.43-2a.49.49,0,0,1-.18-.68.51.51,0,0,1,.68-.19l3.43,2a.49.49,0,0,1,.19.68A.51.51,0,0,1,543.33,270Zm-6.86-3.95a.54.54,0,0,1-.25-.06l-3.43-2a.52.52,0,0,1-.19-.69.51.51,0,0,1,.69-.18l3.43,2a.49.49,0,0,1,.18.68A.48.48,0,0,1,536.47,266.08Zm-6.86-3.94a.45.45,0,0,1-.25-.07l-3.44-2a.5.5,0,0,1-.18-.68.51.51,0,0,1,.68-.19l3.44,2a.5.5,0,0,1-.25.93Zm-6.87-3.95a.57.57,0,0,1-.25-.06l-3.43-2a.51.51,0,0,1-.18-.69.49.49,0,0,1,.68-.18l3.43,2a.51.51,0,0,1,.19.68A.51.51,0,0,1,522.74,258.19Zm-6.86-3.94a.45.45,0,0,1-.25-.07l-3.43-2a.51.51,0,0,1-.19-.68.52.52,0,0,1,.69-.19l3.43,2a.5.5,0,0,1-.25.93ZM509,250.3a.5.5,0,0,1-.24-.06l-3.44-2a.5.5,0,1,1,.5-.86l3.43,2a.5.5,0,0,1-.25.93Zm-6.86-3.94a.47.47,0,0,1-.25-.07l-3.43-2a.49.49,0,0,1-.18-.68.5.5,0,0,1,.68-.19l3.43,2a.51.51,0,0,1,.18.69A.5.5,0,0,1,502.15,246.36Zm-6.86-4a.54.54,0,0,1-.25-.06l-3.43-2a.49.49,0,1,1,.49-.86l3.44,2a.5.5,0,0,1-.25.93Zm-6.87-3.94a.47.47,0,0,1-.25-.07l-3.43-2a.5.5,0,0,1-.18-.68.49.49,0,0,1,.68-.19l3.43,2a.52.52,0,0,1,.19.69A.51.51,0,0,1,488.42,238.47Zm-6.86-3.95a.54.54,0,0,1-.25-.06l-3.43-2a.5.5,0,1,1,.5-.86l3.43,2a.5.5,0,0,1-.25.93Zm-6.86-3.94a.52.52,0,0,1-.25-.07l-3.44-2a.51.51,0,0,1-.18-.69.49.49,0,0,1,.68-.18l3.43,2a.51.51,0,0,1,.19.69A.5.5,0,0,1,474.7,230.58Zm-6.87-4a.47.47,0,0,1-.25-.07l-3.43-2a.49.49,0,0,1-.18-.68.5.5,0,0,1,.68-.19l3.43,2a.5.5,0,0,1-.25.93ZM461,222.69a.55.55,0,0,1-.25-.07l-3.43-2a.51.51,0,0,1-.19-.69.5.5,0,0,1,.68-.18l3.44,2a.5.5,0,0,1,.18.68A.49.49,0,0,1,461,222.69Zm-6.87-3.95a.47.47,0,0,1-.25-.07l-3.43-2a.49.49,0,0,1-.18-.68.51.51,0,0,1,.68-.19l3.43,2a.5.5,0,0,1,.19.68A.51.51,0,0,1,454.1,218.74Zm-6.86-4a.54.54,0,0,1-.25-.06l-3.43-2a.52.52,0,0,1-.19-.69.51.51,0,0,1,.69-.18l3.43,2a.49.49,0,0,1,.18.68A.48.48,0,0,1,447.24,214.79Zm-6.86-3.94a.43.43,0,0,1-.25-.07l-3.44-2a.5.5,0,0,1,.5-.87l3.43,2a.5.5,0,0,1-.24.93Zm-6.87-3.95a.57.57,0,0,1-.25-.06l-3.43-2a.51.51,0,0,1-.18-.69.49.49,0,0,1,.68-.18l3.43,2a.51.51,0,0,1,.19.68A.52.52,0,0,1,433.51,206.9ZM426.65,203a.45.45,0,0,1-.25-.07l-3.43-2a.5.5,0,0,1-.19-.68.51.51,0,0,1,.68-.19l3.44,2a.5.5,0,0,1-.25.93Zm-6.87-4a.5.5,0,0,1-.24-.06l-3.44-2a.5.5,0,0,1,.5-.86l3.43,2a.5.5,0,0,1,.19.68A.51.51,0,0,1,419.78,199Zm-6.86-3.94a.45.45,0,0,1-.25-.07l-3.43-2a.51.51,0,0,1-.19-.68.52.52,0,0,1,.69-.19l3.43,2a.51.51,0,0,1,.18.69A.5.5,0,0,1,412.92,195.07Zm-6.86-3.95a.51.51,0,0,1-.25-.06l-3.43-2a.49.49,0,1,1,.49-.86l3.43,2a.5.5,0,0,1-.24.93Zm-6.87-3.94a.47.47,0,0,1-.25-.07l-3.43-2a.5.5,0,0,1,.5-.87l3.43,2a.52.52,0,0,1,.19.69A.51.51,0,0,1,399.19,187.18Zm-6.86-4a.54.54,0,0,1-.25-.06l-3.43-2a.5.5,0,1,1,.5-.86l3.43,2a.5.5,0,0,1-.25.93Zm-6.87-3.94a.47.47,0,0,1-.25-.07l-3.43-2a.5.5,0,0,1,.5-.87l3.43,2a.5.5,0,0,1-.25.94Zm-6.86-3.95a.57.57,0,0,1-.25-.06l-3.43-2a.5.5,0,1,1,.5-.86l3.43,2a.5.5,0,0,1-.25.93Zm-6.86-3.94a.55.55,0,0,1-.25-.07l-3.43-2a.51.51,0,0,1-.19-.69.5.5,0,0,1,.68-.18l3.44,2a.5.5,0,0,1,.18.68A.49.49,0,0,1,371.74,171.4Zm-6.87-4a.47.47,0,0,1-.25-.07l-3.43-2a.49.49,0,0,1-.18-.68.51.51,0,0,1,.68-.19l3.43,2a.5.5,0,0,1,.19.68A.52.52,0,0,1,364.87,167.45ZM358,163.5a.54.54,0,0,1-.25-.06l-3.43-2a.5.5,0,1,1,.5-.87l3.43,2a.49.49,0,0,1,.18.68A.48.48,0,0,1,358,163.5Zm-6.87-3.94a.42.42,0,0,1-.24-.07l-3.44-2a.49.49,0,0,1-.18-.68.51.51,0,0,1,.68-.19l3.43,2a.49.49,0,0,1,.19.68A.5.5,0,0,1,351.14,159.56Zm-6.86-3.95a.57.57,0,0,1-.25-.06l-3.43-2a.51.51,0,0,1-.18-.69.49.49,0,0,1,.68-.18l3.43,2a.5.5,0,0,1-.25.93Zm-6.86-3.94a.45.45,0,0,1-.25-.07l-3.43-2a.5.5,0,0,1,.49-.87l3.44,2a.5.5,0,0,1-.25.93Zm-6.87-3.95a.57.57,0,0,1-.25-.06l-3.43-2a.5.5,0,0,1,.5-.86l3.43,2a.51.51,0,0,1,.19.68A.51.51,0,0,1,330.55,147.72Zm-6.86-3.94a.45.45,0,0,1-.25-.07l-3.43-2a.5.5,0,1,1,.5-.87l3.43,2a.51.51,0,0,1,.18.69A.5.5,0,0,1,323.69,143.78Zm-6.87-3.95a.5.5,0,0,1-.24-.06l-3.44-2a.5.5,0,0,1,.5-.86l3.43,2a.5.5,0,0,1-.25.93ZM310,135.89a.47.47,0,0,1-.25-.07l-3.43-2a.5.5,0,0,1,.5-.87l3.43,2a.52.52,0,0,1,.19.69A.52.52,0,0,1,310,135.89Zm-6.86-3.95a.54.54,0,0,1-.25-.06l-3.43-2a.49.49,0,1,1,.49-.86l3.44,2a.5.5,0,0,1-.25.93Z"/>
      <path class="cls-7" d="M296.23,128a.47.47,0,0,1-.25-.07l-1.73-1a.5.5,0,1,1,.5-.86l1.73,1a.5.5,0,0,1-.25.94Z"/>
    </g>
    <g>
      <path class="cls-7" d="M547.5,281h0l-2,0a.5.5,0,0,1-.49-.51.51.51,0,0,1,.51-.49l2,0a.5.5,0,0,1,0,1Z"/>
      <path class="cls-7" d="M541.54,280.87h0l-3.95-.09a.49.49,0,0,1-.49-.51.53.53,0,0,1,.51-.49l4,.09a.5.5,0,0,1,0,1Zm-7.91-.17h0l-4-.09a.5.5,0,0,1-.49-.51.54.54,0,0,1,.51-.49l3.95.09a.5.5,0,0,1,0,1Zm-7.91-.18h0l-4-.09a.49.49,0,0,1-.49-.51.52.52,0,0,1,.51-.49l4,.09a.5.5,0,0,1,0,1Zm-7.91-.17h0l-4-.09a.49.49,0,0,1-.48-.51.54.54,0,0,1,.51-.49l4,.09a.49.49,0,0,1,.49.51A.5.5,0,0,1,517.81,280.35Zm-7.91-.18h0l-4-.08a.5.5,0,1,1,0-1l4,.08a.5.5,0,0,1,0,1ZM502,280h0l-4-.09a.5.5,0,0,1-.49-.51.55.55,0,0,1,.51-.49l4,.09a.5.5,0,0,1,0,1Zm-7.91-.17h0l-4-.09a.51.51,0,0,1-.49-.51.52.52,0,0,1,.51-.49l4,.09a.5.5,0,0,1,.49.51A.51.51,0,0,1,494.08,279.83Zm-7.91-.18h0l-4-.08a.51.51,0,0,1-.49-.52.48.48,0,0,1,.51-.48l4,.08a.52.52,0,0,1,.49.51A.5.5,0,0,1,486.17,279.65Zm-7.91-.17h0l-4-.09a.49.49,0,0,1-.49-.51.5.5,0,0,1,.51-.49l4,.09a.5.5,0,0,1,0,1Zm-7.92-.18h0l-3.95-.08a.5.5,0,0,1-.49-.51.47.47,0,0,1,.51-.49l4,.08a.5.5,0,0,1,.48.52A.48.48,0,0,1,470.34,279.3Zm-7.91-.17h0l-3.95-.09a.49.49,0,0,1-.49-.51.5.5,0,0,1,.51-.49l3.95.09a.5.5,0,0,1,.49.51A.49.49,0,0,1,462.43,279.13Zm-7.91-.17h0l-3.95-.09a.5.5,0,0,1-.49-.51.51.51,0,0,1,.51-.49l3.95.09a.49.49,0,0,1,.49.51A.5.5,0,0,1,454.52,279Zm-7.91-.18h0l-4-.08a.5.5,0,0,1-.48-.51.52.52,0,0,1,.51-.49l3.95.08a.5.5,0,0,1,.49.51A.49.49,0,0,1,446.61,278.78Zm-7.91-.17h0l-4-.09a.5.5,0,0,1-.49-.51.52.52,0,0,1,.51-.49l4,.09a.5.5,0,0,1,.49.51A.51.51,0,0,1,438.7,278.61Zm-7.91-.17h0l-4-.09a.52.52,0,0,1-.49-.51.54.54,0,0,1,.51-.49l4,.09a.5.5,0,0,1,.49.51A.51.51,0,0,1,430.79,278.44Zm-7.91-.18h0l-4-.09a.5.5,0,0,1-.49-.51.51.51,0,0,1,.51-.49l4,.09a.5.5,0,0,1,0,1Zm-7.91-.17h0l-4-.09a.49.49,0,0,1-.49-.51A.53.53,0,0,1,411,277l4,.09a.5.5,0,0,1,0,1Zm-7.91-.18h0l-4-.08a.5.5,0,0,1-.49-.51.5.5,0,0,1,.51-.49l4,.08a.52.52,0,0,1,.49.51A.5.5,0,0,1,407.06,277.91Zm-7.92-.17h0l-3.95-.09a.49.49,0,0,1-.49-.51.52.52,0,0,1,.51-.49l4,.09a.5.5,0,0,1,.48.51A.49.49,0,0,1,399.14,277.74Zm-7.91-.17h0l-4-.09a.5.5,0,0,1,0-1l3.95.09a.49.49,0,0,1,.49.51A.5.5,0,0,1,391.23,277.57Zm-7.91-.18h0l-3.95-.08a.5.5,0,0,1-.49-.52.53.53,0,0,1,.51-.48l3.95.08a.5.5,0,0,1,.49.51A.49.49,0,0,1,383.32,277.39Zm-7.91-.17h0l-4-.09a.49.49,0,0,1-.48-.51.5.5,0,0,1,.51-.49l3.95.09a.49.49,0,0,1,.49.51A.5.5,0,0,1,375.41,277.22Z"/>
      <path class="cls-7" d="M367.5,277h0l-2,0a.5.5,0,1,1,0-1l2,0a.5.5,0,0,1,0,1Z"/>
    </g>
    <g class="cls-9">
      <g>
        <g>
          <circle class="cls-2" cx="320.5" cy="-50.5" r="217.5"/>
          <g class="cls-10">
            <g>
              <path class="cls-2" d="M109.92,157.07c-6.81,0-10.55-4.55-10.82-13.17-.2-6.21.74-12.2,1.64-18,1.39-9,2.83-18.22.07-28.39a116.68,116.68,0,0,0-5.26-14.31c-3.41-8.13-6.93-16.54-6.64-25.36.34-10.58,5.81-19.55,11.59-29,4.32-7.09,8.79-14.42,10.87-22.44,1.73-6.68,1.81-13.83,1.89-20.74.11-10.23.22-19.9,5.19-28.27a15.69,15.69,0,0,1,5.66-5.93,10.11,10.11,0,0,1,5-1.29c7.28,0,15,7.77,16.14,16.3.93,6.78-.68,13.67-2.23,20.33-.8,3.44-1.63,7-2.11,10.53s-.94,11.77,4.86,15a9,9,0,0,0,4.45,1.12c3.12,0,6.39-1.37,9.55-2.69,1.48-.62,3-1.26,4.48-1.73a17.25,17.25,0,0,1,5.38-.83,22.72,22.72,0,0,1,17,8.33c3.55,4.31,5,9.36,4,14.21-.17.87-.41,1.77-.65,2.64a16,16,0,0,0-.84,6.55c.91,6.21,8.25,9.27,15.13,9.56,1,0,2.08.06,3.14.07,5.27.09,10.71.18,14.58,3.43,4.16,3.48,4.86,9,5.59,14.77.58,4.58,1.18,9.31,3.59,13.15a29.58,29.58,0,0,0,5.32,5.84c1,.92,2,1.87,3,2.87,7.3,7.79,9.69,20.12,6.07,31.39-3.19,9.94-10.71,18.93-21.18,25.3A64,64,0,0,1,163,148.51c-1-.5-1.93-1-2.9-1.55-4.07-2.22-8.28-4.51-13-4.8-.33,0-.67,0-1,0-6.53,0-12.33,3.72-18.18,7.87C121.6,154.49,115,157.07,109.92,157.07Z"/>
              <path class="cls-4" d="M129.08-50.36v1c7,0,14.5,7.56,15.63,15.87.92,6.69-.6,13.23-2.22,20.14-.8,3.46-1.63,7-2.12,10.58s-1,12.13,5.12,15.5a9.35,9.35,0,0,0,4.69,1.19c3.22,0,6.54-1.39,9.74-2.73,1.47-.61,3-1.25,4.44-1.72a17.23,17.23,0,0,1,5.23-.81,22.26,22.26,0,0,1,16.64,8.15c3.45,4.2,4.84,9.1,3.91,13.8-.17.86-.41,1.75-.64,2.61a16.53,16.53,0,0,0-.86,6.75c.69,4.68,5.78,9.58,15.61,10,1,0,2.11.06,3.15.07,5.18.09,10.54.18,14.27,3.31,4,3.36,4.69,8.75,5.42,14.46.58,4.63,1.19,9.42,3.66,13.35a29.73,29.73,0,0,0,5.4,5.94c1,.91,2,1.86,2.94,2.84,7.18,7.66,9.52,19.79,5.95,30.9-3.15,9.82-10.6,18.71-21,25a63.49,63.49,0,0,1-60.86,2.21c-1-.49-1.94-1-2.89-1.54-4.12-2.25-8.38-4.57-13.18-4.86-.34,0-.69,0-1,0-6.68,0-12.55,3.77-18.47,8-6.26,4.44-12.72,7-17.73,7-6.59,0-10.06-4.27-10.32-12.68a96.19,96.19,0,0,1,1.63-17.9c1.4-9,2.85-18.32.07-28.59A118.14,118.14,0,0,0,96,83c-3.54-8.46-6.89-16.45-6.6-25.16.34-10.45,5.77-19.36,11.52-28.8,4.34-7.12,8.82-14.48,10.92-22.58,1.75-6.74,1.83-13.91,1.91-20.86.11-10.16.21-19.76,5.12-28a15.23,15.23,0,0,1,5.47-5.75,9.64,9.64,0,0,1,4.72-1.23v-1m0,0a10.68,10.68,0,0,0-5.2,1.35A16.23,16.23,0,0,0,118-42.89c-8.54,14.36-2.94,33-7.13,49.13C106.13,24.57,89,38.92,88.41,57.84,88,71.78,96.68,84.2,100.33,97.66c4.5,16.59-2.23,30.33-1.73,46.26.31,9.93,5.06,13.65,11.32,13.65,5.61,0,12.42-3,18.31-7.16,5.4-3.82,11.35-7.78,17.89-7.78.32,0,.65,0,1,0,5.67.34,10.62,3.7,15.68,6.29a64.5,64.5,0,0,0,61.83-2.24c9.7-5.91,17.92-14.77,21.39-25.58s1.59-23.6-6.17-31.89c-2.73-2.9-6.11-5.25-8.22-8.62-5.34-8.51-1.59-21.6-9.29-28.05-4.79-4-11.77-3.36-18-3.61S190.54,46,189.63,39.83c-.44-3,.9-6,1.49-9,2.36-11.95-9.58-23.14-21.53-23.14a18.08,18.08,0,0,0-5.53.86c-4.57,1.48-9.4,4.4-13.88,4.4a8.49,8.49,0,0,1-4.2-1.06c-4.72-2.62-5.35-9.14-4.62-14.49,1.42-10.39,5.76-20.61,4.34-31-1.16-8.48-8.85-16.73-16.63-16.73Z"/>
            </g>
            <g>
              <path class="cls-2" d="M411.07,193.06c-4.26,0-8.62-1.64-13-4.87a66.16,66.16,0,0,1-8.27-7.73c-3.71-3.9-7.55-7.94-13.37-10.82a123.53,123.53,0,0,0-16.78-6.34c-6.94-2.23-14.11-4.54-20.51-8.39-4.31-2.59-11.64-8.14-12.25-16.2a28.61,28.61,0,0,1,.4-6c.18-1.28.36-2.61.43-3.94.26-5.29-1.27-23.44-32.3-34.84-2.22-.82-4.49-1.61-6.77-2.4-13.88-4.84-28.23-9.84-35.77-21.92-3.79-6.08-5-15.19.33-20.1,2.29-2.13,5.42-3.21,9.3-3.21A30,30,0,0,1,271.82,48a61.94,61.94,0,0,1,29.91,21.78c1,1.39,2,2.86,3,4.28,2.5,3.69,5.08,7.52,8.56,10.44a18.1,18.1,0,0,0,11.19,4.33,11.16,11.16,0,0,0,6.58-2c6.88-4.87,5.57-15.85.74-24.19-.7-1.2-1.44-2.41-2.18-3.62-3.86-6.3-7.86-12.81-6.57-19.76,1.25-6.76,8.38-10.8,14.56-10.8A12.29,12.29,0,0,1,346,31.54c2.8,2.57,4.36,6,6,9.66,1.41,3.11,2.87,6.34,5.17,8.92,5.36,6,13.79,7.32,21.95,8.55,8.49,1.29,16.52,2.51,21.53,8.58a32.25,32.25,0,0,1,4.46,8.33,35,35,0,0,0,4.27,8.15c5.36,7,14.31,8.5,23,10,6.88,1.19,14,2.43,19.47,6.29s8.57,10.65,8.39,18.23-3.65,14.24-9.26,17.8a53.59,53.59,0,0,1-6.64,3.36c-5.33,2.39-10.83,4.87-12.53,10.41-.88,2.87-.43,5.89,0,8.81l.21,1.45c1.31,9.52-1.47,19.56-7.26,26.2C420.89,190.72,416.16,193.06,411.07,193.06Z"/>
              <path class="cls-4" d="M337.58,29a11.76,11.76,0,0,1,8.1,2.95c2.73,2.5,4.27,5.9,5.9,9.5,1.42,3.15,2.89,6.4,5.24,9.05,5.49,6.17,14,7.46,22.25,8.71,8.4,1.27,16.34,2.48,21.23,8.4a31.51,31.51,0,0,1,4.38,8.2A35.89,35.89,0,0,0,409,84c5.48,7.1,14.53,8.67,23.28,10.18,6.82,1.19,13.87,2.41,19.27,6.21s8.35,10.39,8.17,17.81-3.56,13.92-9,17.39a51.89,51.89,0,0,1-6.58,3.32c-5.42,2.44-11,5-12.8,10.72-.91,3-.45,6.06,0,9q.12.72.21,1.44c1.3,9.38-1.44,19.27-7.13,25.8-3.77,4.33-8.38,6.61-13.32,6.61-4.15,0-8.41-1.6-12.66-4.77a66.54,66.54,0,0,1-8.21-7.67c-3.74-3.94-7.61-8-13.51-10.93a122.4,122.4,0,0,0-16.85-6.36c-6.91-2.23-14-4.53-20.4-8.35-4.23-2.54-11.42-8-12-15.81a27.4,27.4,0,0,1,.4-5.87c.17-1.29.36-2.63.43-4,.4-8-3-15.4-10.08-22.07-5.6-5.27-13.61-10-22.55-13.27-2.23-.82-4.54-1.62-6.78-2.4-13.79-4.81-28.06-9.78-35.5-21.72A21.07,21.07,0,0,1,250.15,59a11.83,11.83,0,0,1,3.44-9.14c2.19-2,5.21-3.07,9-3.07a29.34,29.34,0,0,1,9.11,1.65,61.42,61.42,0,0,1,29.67,21.6c1,1.38,2,2.84,3,4.26,2.51,3.72,5.11,7.57,8.65,10.54a18.57,18.57,0,0,0,11.51,4.45,11.68,11.68,0,0,0,6.87-2.08c3.49-2.47,5.22-6.52,5-11.7a30.17,30.17,0,0,0-4.11-13.16c-.7-1.2-1.46-2.43-2.19-3.63-3.81-6.21-7.75-12.64-6.5-19.4C324.45,34.24,330,29,337.58,29m0-1c-6.76,0-13.8,4.42-15.05,11.21-1.57,8.5,4.47,16.24,8.8,23.72s6.46,18.54-.59,23.53a10.76,10.76,0,0,1-6.29,1.9,17.57,17.57,0,0,1-10.87-4.21c-4.76-4-7.76-9.64-11.45-14.64A62.34,62.34,0,0,0,272,47.52a30.2,30.2,0,0,0-9.42-1.7,13.73,13.73,0,0,0-9.64,3.34c-5.5,5.11-4.38,14.37-.41,20.73,8.88,14.24,27,18.74,42.79,24.53s32.81,17.59,32,34.35c-.17,3.34-1.08,6.64-.83,10,.54,7.17,6.32,12.89,12.49,16.59,11.62,7,25.29,8.79,37.33,14.75,9.61,4.76,13.56,12.52,21.56,18.5,4.66,3.47,9.14,5,13.26,5,14,0,23.68-17.3,21.44-33.55-.46-3.35-1.22-6.81-.23-10,2.34-7.64,12.21-9.21,19-13.49,12.25-7.78,12.75-28.51.89-36.87-12.59-8.87-32.92-4-42.33-16.18-3.81-5-4.75-11.68-8.73-16.5-10.17-12.3-32.9-5.21-43.5-17.14-4.84-5.45-5.83-13.7-11.21-18.62A12.87,12.87,0,0,0,337.58,28Z"/>
            </g>
            <g>
              <path class="cls-4" d="M231.53,21.62c-3.49,0-7.12-1.63-11.09-5-15.29-12.84-6.32-41.87-1.76-53.75.35-.92.71-1.84,1.08-2.77,3.07-7.81,6.25-15.88,4.32-24a39.76,39.76,0,0,0-2-5.66,34.85,34.85,0,0,1-2.06-6.19c-1.86-9.51,4.52-18.67,10.65-26.5,2.8-3.57,6-7.62,10.29-9.76a13,13,0,0,1,5.65-1.32,8.88,8.88,0,0,1,7.08,3c2.44,3,2.52,7.41,2.59,11.71.09,5.24.19,10.65,4.94,12.72a7.06,7.06,0,0,0,2.85.59c4,0,7.65-3.09,9.47-4.93,2.05-2.07,3.92-4.36,5.73-6.57,2.89-3.53,5.87-7.17,9.55-9.9a20,20,0,0,1,11.5-4,11.41,11.41,0,0,1,8.48,3.32c3.55,3.7,3.79,9,4,14.67s.5,11.38,4.34,15.34c3.37,3.49,8.33,4.31,13.12,5.1,1.08.18,2.16.35,3.21.56,5.82,1.15,11.65,4.67,11.57,10-.07,5-5.71,8.42-10.9,8.73-.44,0-.88,0-1.33,0a49.37,49.37,0,0,1-7-.66,51.22,51.22,0,0,0-7.14-.67h-.58c-11.76.28-22.34,10.43-23.1,22.17-.09,1.3-.06,2.63,0,3.91a23,23,0,0,1-.65,7.33c-2.24,7.15-10.79,10.23-17.57,11.56l-2.5.47c-6.82,1.26-13.87,2.58-18.54,7.62a79.88,79.88,0,0,0-6.09,7.85C244.47,14,239,21.62,231.53,21.62Z"/>
              <path class="cls-2" d="M246.66-112.78h0a8.45,8.45,0,0,1,6.7,2.81c2.32,2.84,2.4,7.19,2.47,11.41.1,5.39.19,11,5.24,13.17a7.54,7.54,0,0,0,3.05.63c4.18,0,7.95-3.18,9.83-5.08,2.06-2.08,3.94-4.38,5.76-6.61,2.86-3.5,5.82-7.12,9.45-9.81a19.52,19.52,0,0,1,11.21-3.86,11,11,0,0,1,8.12,3.17c3.42,3.56,3.65,8.8,3.9,14.35s.51,11.56,4.48,15.66c3.49,3.61,8.53,4.44,13.4,5.24,1.06.18,2.15.36,3.19.56,5.62,1.11,11.25,4.46,11.17,9.47-.07,4.7-5.47,7.93-10.43,8.23-.41,0-.85,0-1.3,0a50.17,50.17,0,0,1-6.9-.65,51.94,51.94,0,0,0-7.21-.68h-.59c-12,.28-22.81,10.65-23.59,22.64-.09,1.32-.06,2.65,0,4a22.51,22.51,0,0,1-.63,7.17c-2.17,6.91-10.54,9.91-17.19,11.21-.82.17-1.65.32-2.49.48-6.9,1.28-14,2.6-18.82,7.76a82,82,0,0,0-6.12,7.91c-5.18,7.24-10.54,14.73-17.79,14.73-3.36,0-6.89-1.59-10.77-4.85-6.22-5.23-9-13.79-8.24-25.46.71-11,4.46-22.08,6.62-27.73l1.08-2.76c3.1-7.89,6.31-16,4.35-24.29a39.77,39.77,0,0,0-2-5.72,34.73,34.73,0,0,1-2-6.11c-1.82-9.3,4.5-18.34,10.55-26.09,2.77-3.53,5.9-7.54,10.12-9.63a12.57,12.57,0,0,1,5.43-1.26m0-1a13.35,13.35,0,0,0-5.87,1.37c-4.35,2.15-7.48,6.09-10.46,9.9-6.15,7.86-12.66,17.11-10.75,26.9.81,4.11,3,7.8,4,11.87,2.11,8.91-2.11,17.91-5.39,26.46-5.64,14.7-12.82,41.94,1.91,54.31,4.3,3.62,8.06,5.09,11.41,5.09,10.8,0,17.44-15.19,24.65-23,5.13-5.53,13.35-6.48,20.76-7.93s15.7-4.7,18-11.9c1.14-3.63.46-7.56.71-11.36.74-11.44,11.15-21.43,22.61-21.7h.57c4.73,0,9.4,1.33,14.11,1.33.46,0,.91,0,1.36,0,5.37-.32,11.29-3.85,11.37-9.22.09-5.77-6.31-9.34-12-10.46s-12.06-1.37-16.07-5.52c-7.4-7.65-1-22.33-8.38-30a12,12,0,0,0-8.84-3.47,20.46,20.46,0,0,0-11.8,4.06c-6.05,4.49-10,11.16-15.34,16.52-2.45,2.48-5.81,4.78-9.11,4.78a6.56,6.56,0,0,1-2.65-.55c-8.14-3.54-1.71-17.43-7.34-24.29a9.46,9.46,0,0,0-7.47-3.18Z"/>
            </g>
            <path class="cls-11" d="M419.31-17c-4.8,6.19-5.44,16.24.63,21.19,4.8,3.92,12.52,3.91,15.88,9.11,5.39,8.33-6.07,17.63-7.65,27.43C426.88,48.71,434,57,442.08,57c5.69,0,11.15-3.38,16.78-2.59,7.1,1,11.45,8,16.38,13.19,10.09,10.67,25.57,15.19,40.23,14.15s28.55-7.13,40.94-15c5.91-3.75,11.72-8.14,15.1-14.27s3.72-14.4-.86-19.7c-2.95-3.43-7.73-5.51-9.14-9.81-2-6,4-11.7,9.78-14.26S584,4.38,587.11-1.14c4.19-7.37-1.47-17.12-9.19-20.65s-16.58-2.78-25.06-2.65-17.74-.74-23.92-6.54c-2.51-2.36-4.32-5.37-6.85-7.71-13.78-12.77-36.76,1.42-54.64-4.34-6.07-1.95-11.24-6.15-17.37-7.88-12.57-3.54-19.72,3.84-15.26,13,2.14,4.4,2.89,7.5-2.23,10.92C428.49-24.23,422.67-21.38,419.31-17Z"/>
          </g>
        </g>
        <path class="cls-4" d="M320.5-267a215.11,215.11,0,0,1,84.27,17,215.91,215.91,0,0,1,68.82,46.4A215.91,215.91,0,0,1,520-134.77,215.11,215.11,0,0,1,537-50.5a215.11,215.11,0,0,1-17,84.27,215.91,215.91,0,0,1-46.4,68.82A215.91,215.91,0,0,1,404.77,149a215.11,215.11,0,0,1-84.27,17,215.11,215.11,0,0,1-84.27-17,215.91,215.91,0,0,1-68.82-46.4A215.91,215.91,0,0,1,121,33.77,215.11,215.11,0,0,1,104-50.5a215.11,215.11,0,0,1,17-84.27,215.91,215.91,0,0,1,46.4-68.82A215.91,215.91,0,0,1,236.23-250a215.11,215.11,0,0,1,84.27-17m0-1C200.38-268,103-170.62,103-50.5S200.38,167,320.5,167,538,69.62,538-50.5,440.62-268,320.5-268Z"/>
      </g>
    </g>
  </g>
  <g id="Layer_4" data-name="Layer 4">
    <circle class="cls-4" cx="159.5" cy="94.5" r="2.5"/>
    <circle class="cls-4" cx="48.5" cy="140.5" r="2.5"/>
    <circle class="cls-4" cx="373.5" cy="104.5" r="2.5"/>
    <circle class="cls-4" cx="417.5" cy="227.5" r="2.5"/>
    <circle class="cls-4" cx="569.5" cy="56.5" r="2.5"/>
    <circle class="cls-4" cx="548.5" cy="144.5" r="2.5"/>
    <circle class="cls-4" cx="66.5" cy="346.5" r="2.5"/>
    <circle class="cls-4" cx="465.5" cy="64.5" r="2.5"/>
    <circle class="cls-4" cx="580.5" cy="346.5" r="2.5"/>
    <circle class="cls-4" cx="63.5" cy="48.5" r="2.5"/>
    <circle class="cls-4" cx="104.5" cy="302.5" r="2.5"/>
    <circle class="cls-4" cx="206.5" cy="195.5" r="2.5"/>
    <circle class="cls-4" cx="211.5" cy="51.5" r="2.5"/>
  </g>
  <g id="Layer_5" data-name="Layer 5">
    <path class="cls-4" d="M609,31V389H31V31H609m1-1H30V390H610V30Z"/>
  </g>
  <g id="Label_type_1" data-name="Label type 1">
    <g>
      <g>
        <path class="cls-12" d="M270.07,375.5a4.58,4.58,0,0,1-4.57-4.57V343.07a4.58,4.58,0,0,1,4.57-4.57h98.86a5.58,5.58,0,0,1,5.57,5.57v26.86a4.58,4.58,0,0,1-4.57,4.57Z"/>
        <path class="cls-4" d="M368.93,339a5.07,5.07,0,0,1,5.07,5.07v26.86a4.08,4.08,0,0,1-4.07,4.07H270.07a4.08,4.08,0,0,1-4.07-4.07V343.07a4.08,4.08,0,0,1,4.07-4.07h98.86m0-1H270.07a5.07,5.07,0,0,0-5.07,5.07v27.86a5.07,5.07,0,0,0,5.07,5.07h99.86a5.07,5.07,0,0,0,5.07-5.07V344.07a6.09,6.09,0,0,0-6.07-6.07Z"/>
      </g>
      <g>
        <path class="cls-4" d="M284.62,354.93h3.69v.72h-1.46V360h1.46v.72h-3.69V360h1.47v-4.35h-1.47Z"/>
        <path class="cls-4" d="M290.7,357a1.36,1.36,0,0,1,1.27-.68c1,0,1.35.69,1.35,1.64v2.73h-.74v-2.48c0-.69-.05-1.27-.85-1.27s-1,.5-1,1.42v2.33H290v-4.3h.73Z"/>
        <path class="cls-4" d="M296,356.11c0-.9.22-1.18,1.15-1.18h1.51v.62h-1.5c-.36,0-.42.11-.42.56v.31h1.92v.63h-1.92v3.67H296v-3.67h-1.14v-.63H296Z"/>
        <path class="cls-4" d="M302,356.42v.77a1.22,1.22,0,0,1,1.15-.77h.74v.67h-.73c-.82,0-1.14.55-1.14,1.49v1.51h1.47v.63h-3.42v-.63h1.21v-3h-1.22v-.63Z"/>
        <path class="cls-4" d="M305.31,359.6c0-1,1.09-1.33,2.85-1.52v-.19a.85.85,0,0,0-1-1,.89.89,0,0,0-1,.86h-.76a1.66,1.66,0,0,1,1.79-1.45c1.19,0,1.7.53,1.68,1.72v1.05c0,.72,0,1.33.05,1.62h-.7v-.63a1.57,1.57,0,0,1-1.51.74A1.26,1.26,0,0,1,305.31,359.6Zm2.9-.94c-1.31.13-2.11.31-2.11.93,0,.41.3.65.82.65s1.29-.32,1.29-1.46Z"/>
        <path class="cls-4" d="M313.2,357.6c-.1-.48-.47-.64-1-.64s-.87.16-.87.55.23.49.65.57l.48.1c.75.14,1.54.42,1.54,1.29s-.78,1.36-1.71,1.36a1.63,1.63,0,0,1-1.76-1.39h.77a.9.9,0,0,0,1,.78c.46,0,1-.16,1-.66s-.36-.6-.9-.7l-.54-.1c-.68-.14-1.21-.48-1.21-1.22s.9-1.19,1.62-1.19A1.58,1.58,0,0,1,314,357.6Z"/>
        <path class="cls-4" d="M316.47,355.34h.74v1.08H319v.63h-1.75v2.49c0,.44,0,.55.43.55H319v.63h-1.48c-.79,0-1-.18-1-1.08v-2.59h-1.22v-.63h1.22Z"/>
        <path class="cls-4" d="M322.69,356.42v.77a1.22,1.22,0,0,1,1.15-.77h.74v.67h-.73c-.82,0-1.14.55-1.14,1.49v1.51h1.47v.63h-3.42v-.63H322v-3h-1.22v-.63Z"/>
        <path class="cls-4" d="M328.74,360.17a1.33,1.33,0,0,1-1.26.66c-1,0-1.34-.69-1.34-1.64v-2.77h.74v2.51c0,.7,0,1.27.84,1.27s1-.49,1-1.41v-2.37h.74v4.3h-.74Z"/>
        <path class="cls-4" d="M334.79,357.85H334a1,1,0,0,0-1-.89c-.64,0-1.17.55-1.17,1.63s.53,1.64,1.17,1.64a1.08,1.08,0,0,0,1.05-.89h.76a1.79,1.79,0,0,1-1.85,1.49c-1.19,0-1.9-.93-1.9-2.24a2,2,0,0,1,2-2.24A1.69,1.69,0,0,1,334.79,357.85Z"/>
        <path class="cls-4" d="M337.14,355.34h.74v1.08h1.76v.63h-1.76v2.49c0,.44,0,.55.43.55h1.33v.63h-1.49c-.78,0-1-.18-1-1.08v-2.59h-1.22v-.63h1.22Z"/>
        <path class="cls-4" d="M344.25,360.17a1.36,1.36,0,0,1-1.27.66c-1,0-1.33-.69-1.33-1.64v-2.77h.73v2.51c0,.7,0,1.27.84,1.27s1-.49,1-1.41v-2.37H345v4.3h-.73Z"/>
        <path class="cls-4" d="M348.53,356.42v.77a1.22,1.22,0,0,1,1.15-.77h.74v.67h-.73c-.82,0-1.14.55-1.14,1.49v1.51H350v.63H346.6v-.63h1.21v-3h-1.22v-.63Z"/>
        <path class="cls-4" d="M351.73,358.59a2,2,0,0,1,1.95-2.25c1.25,0,2,.92,1.92,2.46h-3.1c0,.86.48,1.43,1.16,1.43a1,1,0,0,0,1.11-.79h.76a1.76,1.76,0,0,1-1.85,1.39C352.37,360.83,351.73,359.86,351.73,358.59Zm.78-.4h2.3a1.1,1.1,0,0,0-1.13-1.24C353,357,352.54,357.36,352.51,358.19Z"/>
      </g>
    </g>
    <g>
      <g>
        <path class="cls-12" d="M285.07,191.5a4.58,4.58,0,0,1-4.57-4.57V159.07a4.58,4.58,0,0,1,4.57-4.57h68.86a5.58,5.58,0,0,1,5.57,5.57v26.86a4.58,4.58,0,0,1-4.57,4.57Z"/>
        <path class="cls-4" d="M353.93,155a5.07,5.07,0,0,1,5.07,5.07v26.86a4.08,4.08,0,0,1-4.07,4.07H285.07a4.08,4.08,0,0,1-4.07-4.07V159.07a4.08,4.08,0,0,1,4.07-4.07h68.86m0-1H285.07a5.07,5.07,0,0,0-5.07,5.07v27.86a5.07,5.07,0,0,0,5.07,5.07h69.86a5.07,5.07,0,0,0,5.07-5.07V160.07a6.09,6.09,0,0,0-6.07-6.07Z"/>
      </g>
      <g>
        <path class="cls-4" d="M306.6,174.92a2,2,0,0,1-2,1.91c-1.41,0-2.08-1.26-2.08-3s.75-3,2.14-3a2.06,2.06,0,0,1,1.94,1.95h-.77c-.1-.66-.46-1.23-1.2-1.23s-1.32.8-1.32,2.28.45,2.31,1.34,2.31,1.1-.5,1.21-1.2Z"/>
        <path class="cls-4" d="M310.12,170.93v5.16h1.22v.63h-3.17v-.63h1.21v-4.54h-1.21v-.62Z"/>
        <path class="cls-4" d="M315.33,172.42v3.67h1.23v.63h-3.18v-.63h1.22v-3h-1.22v-.63Zm0-1.49v.87h-.73v-.87Z"/>
        <path class="cls-4" d="M318.13,174.59a2,2,0,0,1,2-2.25c1.25,0,2,.92,1.91,2.46h-3.09c0,.86.48,1.43,1.16,1.43a1,1,0,0,0,1.11-.79h.76a1.78,1.78,0,0,1-1.85,1.39C318.78,176.83,318.13,175.86,318.13,174.59Zm.79-.4h2.3a1.1,1.1,0,0,0-1.13-1.24C319.39,173,319,173.36,318.92,174.19Z"/>
        <path class="cls-4" d="M324.29,173a1.36,1.36,0,0,1,1.27-.68c1,0,1.35.69,1.35,1.64v2.73h-.74v-2.48c0-.69-.05-1.27-.85-1.27s-1,.5-1,1.42v2.33h-.73v-4.3h.73Z"/>
        <path class="cls-4" d="M329.39,171.34h.74v1.08h1.75v.63h-1.75v2.49c0,.44,0,.55.43.55h1.32v.63H330.4c-.79,0-1-.18-1-1.08v-2.59h-1.22v-.63h1.22Z"/>
        <path class="cls-4" d="M336.45,173.6c-.09-.48-.47-.64-1-.64s-.86.16-.86.55.22.49.65.57l.48.1c.74.14,1.54.42,1.54,1.29s-.78,1.36-1.72,1.36a1.63,1.63,0,0,1-1.76-1.39h.78a.9.9,0,0,0,1,.78c.45,0,1-.16,1-.66s-.36-.6-.91-.7l-.53-.1c-.68-.14-1.22-.48-1.22-1.22s.91-1.19,1.63-1.19a1.58,1.58,0,0,1,1.69,1.25Z"/>
      </g>
    </g>
  </g>
</svg>
