<svg xmlns="http://www.w3.org/2000/svg" viewBox="0 0 1200 800">
  <defs>
    <style>
      .cls-1 {
        fill: #ffd300;
      }

      .cls-2 {
        fill: #aee938;
      }

      .cls-3 {
        fill: #fff;
      }

      .cls-4 {
        fill: #66c4ff;
      }

      .cls-5 {
        fill: #3a10e5;
      }

      .cls-6 {
        fill: #ff8c00;
      }

      .cls-7 {
        fill: #008a27;
      }

      .cls-8 {
        fill: #f966ff;
      }
    </style>
  </defs>
  <g id="Layer_4" data-name="Layer 4">
    <path class="cls-1" d="M879.39,374.54a1.5,1.5,0,0,1-1.48-1.3c-.09-.65-8.68-66.14,31.21-112,25.9-29.76,66.12-44.85,119.53-44.85a1.5,1.5,0,0,1,0,3c-52.49,0-91.94,14.73-117.25,43.8-39,44.78-30.61,109-30.52,109.61a1.49,1.49,0,0,1-1.28,1.69Z"/>
    <path class="cls-2" d="M879.33,564.28c-39.25,0-72.76-8.23-99.58-24.46a142.33,142.33,0,0,1-51.33-53.88c-21.34-38.67-21.63-77.89-21.63-78.28a1.5,1.5,0,0,1,1.5-1.5h0a1.5,1.5,0,0,1,1.5,1.5c0,.38.31,38.93,21.32,76.94a139.4,139.4,0,0,0,50.25,52.7c26.34,15.91,59.31,24,98,24a1.5,1.5,0,1,1,0,3Z"/>
    <g>
      <path class="cls-3" d="M822.76,597.5h8.92v1.8h-7v4.32h6.64v1.8h-6.64V612h-1.9Z"/>
      <path class="cls-3" d="M835.32,597.5H844v1.8h-6.74v4.32h6.34v1.8h-6.34v4.78H844V612h-8.64Z"/>
      <path class="cls-3" d="M858.24,612h-2l-1-3.1h-5.54l-1,3.1h-2l4.76-14.5h2Zm-8-4.88h4.42l-2.2-7.08Z"/>
      <path class="cls-3" d="M864.42,599.3h-4.36v-1.8h10.62v1.8h-4.36V612h-1.9Z"/>
      <path class="cls-3" d="M875.32,597.5v8.82c0,2.84.5,4.18,3,4.18s3-1.54,3-4.4v-8.6h1.9v8.44c0,4.24-1.12,6.32-4.9,6.32-3.62,0-4.86-1.64-4.86-6.16v-8.6Z"/>
      <path class="cls-3" d="M891.54,605.88c-.34,0-.7,0-1.06,0h-1.64V612h-1.9V597.5h3.54c3.16,0,5.6.68,5.6,4.14,0,2.26-1,3.38-2.62,3.88l3.08,6.48h-2.16Zm-2.7-6.58v4.8h1.86c1.92,0,3.42-.18,3.42-2.42s-1.5-2.38-3.42-2.38Z"/>
      <path class="cls-3" d="M899.92,597.5h8.64v1.8h-6.74v4.32h6.34v1.8h-6.34v4.78h6.74V612h-8.64Z"/>
      <path class="cls-3" d="M935.48,608.42h-2.42V612h-1.84v-3.58h-6.84V606.7l6.82-9.2h1.86v9.2h2.42Zm-9.18-1.72h4.92V600Z"/>
    </g>
    <g>
      <path class="cls-3" d="M1017,164.54h8.92v1.8h-7v4.32h6.64v1.8h-6.64V179H1017Z"/>
      <path class="cls-3" d="M1029.12,164.54h9.22v1.8h-3.66v10.9h3.66V179h-9.22v-1.8h3.66v-10.9h-3.66Z"/>
      <path class="cls-3" d="M1045.6,171.4l-4.2-6.86h2.2l3.1,5.08,3.16-5.08h2.08l-4.2,6.78,4.72,7.72h-2.18l-3.64-5.94L1043,179h-2.1Z"/>
    </g>
    <g>
      <circle class="cls-4" cx="1033.32" cy="219.18" r="23.15"/>
      <path d="M1033.32,243.83A24.65,24.65,0,1,1,1058,219.18,24.67,24.67,0,0,1,1033.32,243.83Zm0-46.29A21.65,21.65,0,1,0,1055,219.18,21.67,21.67,0,0,0,1033.32,197.54Z"/>
    </g>
    <path class="cls-5" d="M1116,387.56H119.62a1.5,1.5,0,0,1,0-3H1116a1.5,1.5,0,0,1,0,3Z"/>
    <path class="cls-6" d="M124.38,381.62a1.51,1.51,0,0,1-1.49-1.36c-.06-.66-5.8-66.54,34.55-112.41C182,240,218.17,225.06,265.08,223.5c192.09-6.38,336.37-4.84,405.7-4.11,15.24.16,27.27.29,35.48.29a1.5,1.5,0,0,1,0,3c-8.22,0-20.26-.13-35.51-.29-69.31-.73-213.55-2.27-405.57,4.11-46.05,1.53-81.54,16.11-105.49,43.34-39.5,44.89-33.87,109.49-33.81,110.14a1.49,1.49,0,0,1-1.35,1.63Z"/>
    <path class="cls-1" d="M535.38,564.28c-41.28,0-76.85-8.22-105.71-24.43A154.49,154.49,0,0,1,373.54,486c-24-38.67-25.88-77.9-25.9-78.29a1.5,1.5,0,1,1,3-.12c0,.38,1.88,38.93,25.52,76.94a151.38,151.38,0,0,0,55,52.73c28.4,15.93,63.44,24,104.17,24a1.5,1.5,0,0,1,0,3Z"/>
    <path class="cls-5" d="M348.52,351.11h0a1.5,1.5,0,0,1-1.5-1.5l0-12a1.5,1.5,0,0,1,1.5-1.5h0a1.51,1.51,0,0,1,1.5,1.51l0,12A1.5,1.5,0,0,1,348.52,351.11Zm0-24h0a1.5,1.5,0,0,1-1.5-1.5l0-12a1.5,1.5,0,0,1,1.5-1.5h0a1.51,1.51,0,0,1,1.5,1.51l0,12A1.5,1.5,0,0,1,348.55,327.11Zm0-24h0a1.5,1.5,0,0,1-1.5-1.5l0-12a1.5,1.5,0,0,1,1.5-1.5h0a1.51,1.51,0,0,1,1.5,1.51l0,12A1.5,1.5,0,0,1,348.58,303.11Zm0-24h0a1.5,1.5,0,0,1-1.5-1.5l0-12a1.5,1.5,0,0,1,1.5-1.5h0a1.51,1.51,0,0,1,1.5,1.51l0,12A1.5,1.5,0,0,1,348.61,279.11Zm0-24h0a1.5,1.5,0,0,1-1.49-1.5v-12a1.5,1.5,0,0,1,1.5-1.5h0a1.51,1.51,0,0,1,1.5,1.51v12A1.5,1.5,0,0,1,348.65,255.11Zm0-24h0a1.5,1.5,0,0,1-1.5-1.5v-12a1.51,1.51,0,0,1,1.5-1.5h0a1.5,1.5,0,0,1,1.49,1.51v12A1.5,1.5,0,0,1,348.68,231.11Zm0-24h0a1.5,1.5,0,0,1-1.5-1.5l0-12a1.5,1.5,0,0,1,1.5-1.5h0a1.51,1.51,0,0,1,1.5,1.51l0,12A1.5,1.5,0,0,1,348.71,207.11Zm0-24h0a1.5,1.5,0,0,1-1.5-1.5l0-12a1.5,1.5,0,0,1,1.5-1.5h0a1.51,1.51,0,0,1,1.5,1.51l0,12A1.5,1.5,0,0,1,348.74,183.11Z"/>
    <path class="cls-5" d="M708.65,353.54a1.5,1.5,0,0,1-1.5-1.5l0-12a1.5,1.5,0,0,1,1.5-1.5h0a1.5,1.5,0,0,1,1.5,1.49l0,12a1.5,1.5,0,0,1-1.49,1.51Zm-.07-24a1.5,1.5,0,0,1-1.5-1.5l0-12a1.5,1.5,0,0,1,1.5-1.5h0A1.5,1.5,0,0,1,710,316l0,12a1.51,1.51,0,0,1-1.5,1.51Zm-.07-24A1.5,1.5,0,0,1,707,304l0-12a1.5,1.5,0,0,1,1.5-1.5h0A1.5,1.5,0,0,1,710,292l0,12a1.51,1.51,0,0,1-1.5,1.51Zm-.08-24a1.51,1.51,0,0,1-1.5-1.5l0-12a1.5,1.5,0,0,1,1.49-1.5h0a1.5,1.5,0,0,1,1.5,1.49l0,12a1.49,1.49,0,0,1-1.49,1.51Zm-.07-24a1.51,1.51,0,0,1-1.5-1.5l0-12a1.48,1.48,0,0,1,1.49-1.5h0a1.51,1.51,0,0,1,1.5,1.49l0,12a1.49,1.49,0,0,1-1.49,1.51Z"/>
    <g>
      <path class="cls-3" d="M89.39,434.58a6.17,6.17,0,0,1,6.53,6H92.18c-.24-1.85-1.3-3-3-3a2.18,2.18,0,0,0-2.45,2.11c0,1.2.68,2.08,2.37,2.49l1.64.42c2.49.62,5.56,1.85,5.56,5.67,0,4.11-3.28,5.85-6.42,5.85-4.22,0-7-2.55-7.36-6.58H86.3c.28,2.13,1.45,3.59,3.48,3.59a2.3,2.3,0,0,0,2.6-2.24c0-1.4-.91-2.31-2.75-2.78l-1.93-.52c-2.52-.65-4.86-2.44-4.86-5.54C82.84,436.3,86.19,434.58,89.39,434.58Z"/>
      <path class="cls-3" d="M104.21,438.28H98.88v-3.36h14.56v3.36h-5.33v15.49h-3.9Z"/>
      <path class="cls-3" d="M120.51,434.92h4.87l4.86,18.85H126l-.86-3.92H120.7l-.86,3.92h-4.16Zm.86,11.88h3.07l-1.51-6.91Z"/>
      <path class="cls-3" d="M138.82,446.13h-1.48v7.64h-3.9V434.92h5c4.3,0,7.55.91,7.55,5.59a4.65,4.65,0,0,1-3.39,4.78l4.22,8.48h-4.29Zm-1.48-8v5h1.24c1.85,0,3.28-.44,3.28-2.47s-1.43-2.5-3.28-2.5Z"/>
      <path class="cls-3" d="M154.6,438.28h-5.33v-3.36h14.56v3.36H158.5v15.49h-3.9Z"/>
    </g>
    <g>
      <path class="cls-3" d="M299.13,84.5h8.92v1.8h-7v4.32h6.64v1.8H301V99h-1.9Z"/>
      <path class="cls-3" d="M311.69,84.5h8.64v1.8h-6.74v4.32h6.34v1.8h-6.34V97.2h6.74V99h-8.64Z"/>
      <path class="cls-3" d="M334.61,99h-2l-1-3.1h-5.54l-1,3.1h-2l4.76-14.5h2Zm-8-4.88H331L328.83,87Z"/>
      <path class="cls-3" d="M340.79,86.3h-4.36V84.5h10.62v1.8h-4.36V99h-1.9Z"/>
      <path class="cls-3" d="M351.69,84.5v8.82c0,2.84.5,4.18,3,4.18s3-1.54,3-4.4V84.5h1.9v8.44c0,4.24-1.12,6.32-4.9,6.32-3.62,0-4.86-1.64-4.86-6.16V84.5Z"/>
      <path class="cls-3" d="M367.91,92.88c-.34,0-.7,0-1.06,0h-1.64V99h-1.9V84.5h3.54c3.16,0,5.6.68,5.6,4.14,0,2.26-1,3.38-2.62,3.88L372.91,99h-2.16Zm-2.7-6.58v4.8h1.86c1.92,0,3.42-.18,3.42-2.42s-1.5-2.38-3.42-2.38Z"/>
      <path class="cls-3" d="M376.29,84.5h8.64v1.8h-6.74v4.32h6.34v1.8h-6.34V97.2h6.74V99h-8.64Z"/>
      <path class="cls-3" d="M407.63,84.5V97.42h3V99h-8.59V97.42h3.71V87.66h-3.71V86.4c2.43-.06,3.61-.32,4.35-1.9Z"/>
    </g>
    <g>
      <path class="cls-3" d="M333.44,305.68l-7.64,2.12h12.64v1.9h-14.5v-3l7.42-2-7.42-2v-3h14.5v1.9H325.8l7.64,2.12Z"/>
      <path class="cls-3" d="M323.94,296v-8.64h1.8v6.74h4.32v-6.34h1.8v6.34h4.78v-6.74h1.8V296Z"/>
      <path class="cls-3" d="M332.32,278.56c0,.34,0,.7,0,1.06v1.64h6.1v1.9h-14.5v-3.54c0-3.16.68-5.6,4.14-5.6,2.26,0,3.38,1,3.88,2.62l6.48-3.08v2.16Zm-6.58,2.7h4.8V279.4c0-1.92-.18-3.42-2.42-3.42s-2.38,1.5-2.38,3.42Z"/>
      <path class="cls-3" d="M331.16,269.42c3.58,0,5.78-1.08,5.78-3.5,0-1.74-.76-3.38-3.76-3.38h-.46v3.34h-1.8V260.8h7.52v1.44l-1.82.08A3.78,3.78,0,0,1,338.7,266c0,3.74-3.14,5.38-7.54,5.38s-7.48-1.88-7.48-5.56c0-2.7,1.8-4.52,4.74-5v2c-1.68.24-3,1-3,3.12C325.44,268.22,327.46,269.42,331.16,269.42Z"/>
      <path class="cls-3" d="M323.94,257.26v-8.64h1.8v6.74h4.32V249h1.8v6.34h4.78v-6.74h1.8v8.64Z"/>
    </g>
    <g>
      <path class="cls-3" d="M517.57,597.5h8.92v1.8h-7v4.32h6.64v1.8h-6.64V612h-1.9Z"/>
      <path class="cls-3" d="M529.73,597.5H539v1.8h-3.66v10.9H539V612h-9.22v-1.8h3.66V599.3h-3.66Z"/>
      <path class="cls-3" d="M546.21,604.36,542,597.5h2.2l3.1,5.08,3.16-5.08h2.08l-4.2,6.78,4.72,7.72h-2.18l-3.64-5.94L543.57,612h-2.1Z"/>
    </g>
    <g>
      <path class="cls-3" d="M657.72,696.5h8.92v1.8h-7v4.32h6.64v1.8h-6.64V711h-1.9Z"/>
      <path class="cls-3" d="M670.28,696.5h8.64v1.8h-6.74v4.32h6.34v1.8h-6.34v4.78h6.74V711h-8.64Z"/>
      <path class="cls-3" d="M693.2,711h-2l-1-3.1h-5.54l-1,3.1h-2l4.76-14.5h2Zm-8-4.88h4.42l-2.2-7.08Z"/>
      <path class="cls-3" d="M699.38,698.3H695v-1.8h10.62v1.8h-4.36V711h-1.9Z"/>
      <path class="cls-3" d="M710.28,696.5v8.82c0,2.84.5,4.18,3,4.18s3-1.54,3-4.4v-8.6h1.9v8.44c0,4.24-1.12,6.32-4.9,6.32-3.62,0-4.86-1.64-4.86-6.16v-8.6Z"/>
      <path class="cls-3" d="M726.5,704.88c-.34,0-.7,0-1.06,0H723.8V711h-1.9V696.5h3.54c3.16,0,5.6.68,5.6,4.14,0,2.26-1,3.38-2.62,3.88L731.5,711h-2.16Zm-2.7-6.58v4.8h1.86c1.92,0,3.42-.18,3.42-2.42s-1.5-2.38-3.42-2.38Z"/>
      <path class="cls-3" d="M734.88,696.5h8.64v1.8h-6.74v4.32h6.34v1.8h-6.34v4.78h6.74V711h-8.64Z"/>
      <path class="cls-3" d="M768,706.94c0-2-1.74-2.78-4-2.78h-.28v-1.62H764c2.38,0,3.66-.78,3.66-2.46,0-1.46-1.2-2.28-2.68-2.28a2.82,2.82,0,0,0-3,2.8h-1.88a4.61,4.61,0,0,1,4.92-4.36c2.34,0,4.58,1,4.58,3.66a3.53,3.53,0,0,1-2.26,3.36,3.57,3.57,0,0,1,2.62,3.66c0,2.88-2.52,4.34-5.08,4.34a4.72,4.72,0,0,1-5-4.58h1.86a3,3,0,0,0,3.14,3C766.72,709.68,768,708.66,768,706.94Z"/>
    </g>
    <g>
      <path class="cls-3" d="M692.22,304.85,684.58,307h12.64v1.9h-14.5v-3l7.42-2-7.42-2v-3h14.5v1.9H684.58l7.64,2.12Z"/>
      <path class="cls-3" d="M682.72,295.19v-8.64h1.8v6.74h4.32V287h1.8v6.34h4.78v-6.74h1.8v8.64Z"/>
      <path class="cls-3" d="M691.1,277.73c0,.34,0,.7,0,1.06v1.64h6.1v1.9h-14.5v-3.54c0-3.16.68-5.6,4.14-5.6,2.26,0,3.38,1,3.88,2.62l6.48-3.08v2.16Zm-6.58,2.7h4.8v-1.86c0-1.92-.18-3.42-2.42-3.42s-2.38,1.5-2.38,3.42Z"/>
      <path class="cls-3" d="M689.94,268.59c3.58,0,5.78-1.08,5.78-3.5,0-1.74-.76-3.38-3.76-3.38h-.46v3.34h-1.8V260h7.52v1.44l-1.82.08a3.78,3.78,0,0,1,2.08,3.68c0,3.74-3.14,5.38-7.54,5.38s-7.48-1.88-7.48-5.56c0-2.7,1.8-4.52,4.74-5v2c-1.68.24-3,1-3,3.12C684.22,267.39,686.24,268.59,689.94,268.59Z"/>
      <path class="cls-3" d="M682.72,256.43v-8.64h1.8v6.74h4.32v-6.34h1.8v6.34h4.78v-6.74h1.8v8.64Z"/>
    </g>
    <g>
      <path class="cls-3" d="M653.46,164h8.92v1.8h-7v4.32H662v1.8h-6.64v6.58h-1.9Z"/>
      <path class="cls-3" d="M666,164h8.64v1.8h-6.74v4.32h6.34v1.8h-6.34v4.78h6.74v1.8H666Z"/>
      <path class="cls-3" d="M688.94,178.5h-2l-1-3.1h-5.54l-1,3.1h-2l4.76-14.5h2Zm-8-4.88h4.42l-2.2-7.08Z"/>
      <path class="cls-3" d="M695.12,165.8h-4.36V164h10.62v1.8H697v12.7h-1.9Z"/>
      <path class="cls-3" d="M706,164v8.82c0,2.84.5,4.18,3,4.18s3-1.54,3-4.4V164h1.9v8.44c0,4.24-1.12,6.32-4.9,6.32-3.62,0-4.86-1.64-4.86-6.16V164Z"/>
      <path class="cls-3" d="M722.24,172.38c-.34,0-.7,0-1.06,0h-1.64v6.1h-1.9V164h3.54c3.16,0,5.6.68,5.6,4.14,0,2.26-1,3.38-2.62,3.88l3.08,6.48h-2.16Zm-2.7-6.58v4.8h1.86c1.92,0,3.42-.18,3.42-2.42s-1.5-2.38-3.42-2.38Z"/>
      <path class="cls-3" d="M730.62,164h8.64v1.8h-6.74v4.32h6.34v1.8h-6.34v4.78h6.74v1.8h-8.64Z"/>
      <path class="cls-3" d="M765.34,167.64c0,3.36-3.24,6.32-6.94,9.28h7.2v1.58h-9.78v-1.58c4.86-3.78,7.56-6.5,7.56-9a2.35,2.35,0,0,0-2.5-2.58c-1.5,0-2.88.92-2.92,3.3h-1.88a4.61,4.61,0,0,1,4.82-4.86C763.44,163.74,765.34,165.18,765.34,167.64Z"/>
    </g>
    <g>
      <circle class="cls-4" cx="707.77" cy="221.18" r="23.15"/>
      <path d="M707.77,245.83a24.65,24.65,0,1,1,24.65-24.65A24.68,24.68,0,0,1,707.77,245.83Zm0-46.3a21.65,21.65,0,1,0,21.65,21.65A21.67,21.67,0,0,0,707.77,199.53Z"/>
    </g>
    <g>
      <path class="cls-5" d="M539.54,415.26a29.2,29.2,0,1,1,29.2-29.2A29.23,29.23,0,0,1,539.54,415.26Z"/>
      <path d="M539.54,358.36a27.71,27.71,0,1,1-27.7,27.7,27.73,27.73,0,0,1,27.7-27.7m0-3a30.71,30.71,0,1,0,30.7,30.7,30.69,30.69,0,0,0-30.7-30.7Z"/>
    </g>
    <g>
      <path class="cls-5" d="M708.28,415.26a29.2,29.2,0,1,1,29.21-29.2A29.23,29.23,0,0,1,708.28,415.26Z"/>
      <path d="M708.28,358.36a27.71,27.71,0,1,1-27.7,27.7,27.74,27.74,0,0,1,27.7-27.7m0-3A30.71,30.71,0,1,0,739,386.06a30.7,30.7,0,0,0-30.71-30.7Z"/>
    </g>
    <g>
      <path class="cls-5" d="M877.86,415.26a29.2,29.2,0,1,1,29.2-29.2A29.23,29.23,0,0,1,877.86,415.26Z"/>
      <path d="M877.86,358.36a27.71,27.71,0,1,1-27.71,27.7,27.74,27.74,0,0,1,27.71-27.7m0-3a30.71,30.71,0,1,0,30.7,30.7,30.7,30.7,0,0,0-30.7-30.7Z"/>
    </g>
    <g>
      <path class="cls-5" d="M1034.82,415.26a29.2,29.2,0,1,1,29.21-29.2A29.23,29.23,0,0,1,1034.82,415.26Z"/>
      <path d="M1034.82,358.36a27.71,27.71,0,1,1-27.7,27.7,27.74,27.74,0,0,1,27.7-27.7m0-3a30.71,30.71,0,1,0,30.71,30.7,30.7,30.7,0,0,0-30.71-30.7Z"/>
    </g>
    <path class="cls-5" d="M348.56,353.54a1.54,1.54,0,0,1-1-.41l-17.66-16.77a1.5,1.5,0,0,1,2.07-2.17l16.57,15.73,15.73-16.58a1.5,1.5,0,0,1,2.18,2.07l-16.76,17.66A1.53,1.53,0,0,1,348.56,353.54Z"/>
    <path class="cls-5" d="M708.65,353.54a1.51,1.51,0,0,1-1-.41L690,336.36a1.5,1.5,0,1,1,2.06-2.17l16.57,15.73,15.74-16.58a1.5,1.5,0,1,1,2.17,2.07l-16.76,17.66A1.51,1.51,0,0,1,708.65,353.54Z"/>
    <path class="cls-5" d="M1033.92,353.54a1.5,1.5,0,0,1-1.5-1.5l0-12a1.5,1.5,0,0,1,1.5-1.5h0a1.5,1.5,0,0,1,1.5,1.49l0,12a1.5,1.5,0,0,1-1.49,1.51Zm-.07-24a1.5,1.5,0,0,1-1.5-1.5l0-12a1.5,1.5,0,0,1,1.5-1.5h0a1.5,1.5,0,0,1,1.5,1.49l0,12a1.51,1.51,0,0,1-1.5,1.51Zm-.07-24a1.5,1.5,0,0,1-1.5-1.5l0-12a1.5,1.5,0,0,1,1.5-1.5h0a1.5,1.5,0,0,1,1.5,1.49l0,12a1.51,1.51,0,0,1-1.5,1.51Zm-.07-24a1.5,1.5,0,0,1-1.5-1.5l0-12a1.5,1.5,0,0,1,1.49-1.5h0a1.5,1.5,0,0,1,1.5,1.49l0,12a1.51,1.51,0,0,1-1.5,1.51Zm-.08-24a1.51,1.51,0,0,1-1.5-1.5l0-12a1.48,1.48,0,0,1,1.49-1.5h0a1.51,1.51,0,0,1,1.5,1.49l0,12a1.49,1.49,0,0,1-1.49,1.51Z"/>
    <g>
      <path class="cls-3" d="M1017.49,304.85l-7.64,2.12h12.64v1.9H1008v-3l7.42-2-7.42-2v-3h14.5v1.9h-12.64l7.64,2.12Z"/>
      <path class="cls-3" d="M1008,295.19v-8.64h1.8v6.74h4.32V287h1.8v6.34h4.78v-6.74h1.8v8.64Z"/>
      <path class="cls-3" d="M1016.37,277.73c0,.34,0,.7,0,1.06v1.64h6.1v1.9H1008v-3.54c0-3.16.68-5.6,4.14-5.6,2.26,0,3.38,1,3.88,2.62l6.48-3.08v2.16Zm-6.58,2.7h4.8v-1.86c0-1.92-.18-3.42-2.42-3.42s-2.38,1.5-2.38,3.42Z"/>
      <path class="cls-3" d="M1015.21,268.59c3.58,0,5.78-1.08,5.78-3.5,0-1.74-.76-3.38-3.76-3.38h-.46v3.34H1015V260h7.52v1.44l-1.82.08a3.78,3.78,0,0,1,2.08,3.68c0,3.74-3.14,5.38-7.54,5.38s-7.48-1.88-7.48-5.56c0-2.7,1.8-4.52,4.74-5v2c-1.68.24-3,1-3,3.12C1009.49,267.39,1011.51,268.59,1015.21,268.59Z"/>
      <path class="cls-3" d="M1008,256.43v-8.64h1.8v6.74h4.32v-6.34h1.8v6.34h4.78v-6.74h1.8v8.64Z"/>
    </g>
    <path class="cls-5" d="M1033.92,353.54a1.51,1.51,0,0,1-1-.41l-17.66-16.77a1.5,1.5,0,1,1,2.06-2.17l16.58,15.73,15.73-16.58a1.5,1.5,0,1,1,2.17,2.07L1035,353.07A1.51,1.51,0,0,1,1033.92,353.54Z"/>
    <g>
      <path class="cls-5" d="M877.81,554a1.5,1.5,0,0,1-1.5-1.5V540.57a1.5,1.5,0,1,1,3,0v11.94A1.5,1.5,0,0,1,877.81,554Zm0-23.94a1.5,1.5,0,0,1-1.5-1.5v-12a1.5,1.5,0,1,1,3,0v12A1.5,1.5,0,0,1,877.8,530.07Zm0-24a1.5,1.5,0,0,1-1.5-1.5v-12a1.5,1.5,0,1,1,3,0v12A1.5,1.5,0,0,1,877.8,506.07Zm0-24a1.5,1.5,0,0,1-1.5-1.5v-12a1.5,1.5,0,1,1,3,0v12A1.5,1.5,0,0,1,877.79,482.07Zm0-24a1.5,1.5,0,0,1-1.5-1.5v-12a1.5,1.5,0,1,1,3,0v12A1.5,1.5,0,0,1,877.79,458.07Zm0-24a1.5,1.5,0,0,1-1.5-1.5v-12a1.5,1.5,0,1,1,3,0v12A1.5,1.5,0,0,1,877.78,434.07Z"/>
      <g>
        <path class="cls-3" d="M898.17,522.23l-8.34,2.31h13.79v2.07H887.81v-3.25l8.09-2.18L887.81,519v-3.25h15.81v2.07H889.83l8.34,2.31Z"/>
        <path class="cls-3" d="M887.81,511.69v-9.43h2v7.35h4.71V502.7h2v6.91h5.21v-7.35h2v9.43Z"/>
        <path class="cls-3" d="M897,492.63c0,.37,0,.77,0,1.16v1.79h6.65v2.07H887.81v-3.86c0-3.45.74-6.11,4.51-6.11,2.47,0,3.69,1.13,4.24,2.86l7.06-3.36v2.36Zm-7.18,2.95H895v-2c0-2.09-.2-3.73-2.64-3.73s-2.6,1.64-2.6,3.73Z"/>
        <path class="cls-3" d="M895.68,482.66c3.91,0,6.31-1.18,6.31-3.82,0-1.9-.83-3.69-4.1-3.69h-.51v3.65h-2v-5.55h8.2v1.58l-2,.08a4.14,4.14,0,0,1,2.27,4c0,4.08-3.43,5.87-8.23,5.87s-8.16-2.05-8.16-6.07c0-2.94,2-4.93,5.17-5.43v2.14c-1.83.26-3.25,1.13-3.25,3.4C889.44,481.35,891.65,482.66,895.68,482.66Z"/>
        <path class="cls-3" d="M887.81,469.39V460h2v7.36h4.71V460.4h2v6.92h5.21V460h2v9.43Z"/>
      </g>
      <path class="cls-5" d="M861,439.73a1.51,1.51,0,0,1-1-.41,1.49,1.49,0,0,1-.06-2.12l16.76-17.67a1.56,1.56,0,0,1,1-.46,1.41,1.41,0,0,1,1.07.41l17.67,16.76a1.5,1.5,0,0,1-2.07,2.18l-16.57-15.73-15.73,16.57A1.51,1.51,0,0,1,861,439.73Z"/>
    </g>
    <g>
      <path class="cls-5" d="M539,554a1.5,1.5,0,0,1-1.5-1.5V540.57a1.5,1.5,0,0,1,3,0v11.94A1.5,1.5,0,0,1,539,554Zm0-23.94a1.5,1.5,0,0,1-1.5-1.5v-12a1.5,1.5,0,0,1,3,0v12A1.5,1.5,0,0,1,539,530.07Zm0-24a1.51,1.51,0,0,1-1.51-1.5v-12a1.5,1.5,0,1,1,3,0v12A1.5,1.5,0,0,1,539,506.07Zm0-24a1.5,1.5,0,0,1-1.5-1.5v-12a1.5,1.5,0,1,1,3,0v12A1.5,1.5,0,0,1,539,482.07Zm0-24a1.5,1.5,0,0,1-1.5-1.5v-12a1.5,1.5,0,1,1,3,0v12A1.51,1.51,0,0,1,539,458.07Zm0-24a1.5,1.5,0,0,1-1.5-1.5v-12a1.5,1.5,0,1,1,3,0v12A1.5,1.5,0,0,1,539,434.07Z"/>
      <g>
        <path class="cls-3" d="M559.35,522.23,551,524.54H564.8v2.07H549v-3.25l8.1-2.18L549,519v-3.25H564.8v2.07H551l8.34,2.31Z"/>
        <path class="cls-3" d="M549,511.69v-9.43h2v7.35h4.71V502.7h2v6.91h5.22v-7.35h2v9.43Z"/>
        <path class="cls-3" d="M558.13,492.63c0,.37,0,.77,0,1.16v1.79h6.65v2.07H549v-3.86c0-3.45.74-6.11,4.52-6.11,2.47,0,3.69,1.13,4.23,2.86l7.07-3.36v2.36ZM551,495.58h5.23v-2c0-2.09-.19-3.73-2.64-3.73s-2.59,1.64-2.59,3.73Z"/>
        <path class="cls-3" d="M556.86,482.66c3.91,0,6.31-1.18,6.31-3.82,0-1.9-.83-3.69-4.11-3.69h-.5v3.65h-2v-5.55h8.2v1.58l-2,.08a4.14,4.14,0,0,1,2.27,4c0,4.08-3.43,5.87-8.23,5.87s-8.16-2.05-8.16-6.07c0-2.94,2-4.93,5.17-5.43v2.14c-1.83.26-3.25,1.13-3.25,3.4C550.62,481.35,552.82,482.66,556.86,482.66Z"/>
        <path class="cls-3" d="M549,469.39V460h2v7.36h4.71V460.4h2v6.92h5.22V460h2v9.43Z"/>
      </g>
      <path class="cls-5" d="M522.2,439.73a1.52,1.52,0,0,1-1-.41,1.5,1.5,0,0,1,0-2.12l16.76-17.67a1.54,1.54,0,0,1,1-.46,1.43,1.43,0,0,1,1.07.41l17.66,16.76a1.5,1.5,0,1,1-2.06,2.18L539,422.69l-15.73,16.57A1.49,1.49,0,0,1,522.2,439.73Z"/>
    </g>
    <path class="cls-5" d="M708.29,646.81a1.5,1.5,0,0,1-1.5-1.5V635.6a1.5,1.5,0,1,1,3,0v9.71A1.5,1.5,0,0,1,708.29,646.81Zm0-21.71a1.5,1.5,0,0,1-1.5-1.5v-12a1.5,1.5,0,1,1,3,0v12A1.5,1.5,0,0,1,708.29,625.1Zm0-24a1.5,1.5,0,0,1-1.5-1.5v-12a1.5,1.5,0,1,1,3,0v12A1.5,1.5,0,0,1,708.29,601.1Zm0-24a1.5,1.5,0,0,1-1.5-1.5v-12a1.5,1.5,0,0,1,3,0v12A1.5,1.5,0,0,1,708.28,577.1Zm0-24a1.5,1.5,0,0,1-1.5-1.5v-12a1.5,1.5,0,0,1,3,0v12A1.5,1.5,0,0,1,708.28,553.1Zm0-24a1.5,1.5,0,0,1-1.5-1.5v-12a1.5,1.5,0,0,1,3,0v12A1.5,1.5,0,0,1,708.28,529.1Zm0-24a1.5,1.5,0,0,1-1.5-1.5v-12a1.5,1.5,0,0,1,3,0v12A1.5,1.5,0,0,1,708.28,505.1Zm0-24a1.5,1.5,0,0,1-1.5-1.5v-12a1.5,1.5,0,0,1,3,0v12A1.5,1.5,0,0,1,708.28,481.1Zm0-24a1.5,1.5,0,0,1-1.5-1.5v-12a1.5,1.5,0,0,1,3,0v12A1.5,1.5,0,0,1,708.28,457.1Zm0-24a1.5,1.5,0,0,1-1.5-1.5v-12a1.5,1.5,0,1,1,3,0v12A1.5,1.5,0,0,1,708.27,433.1Z"/>
    <g>
      <path class="cls-3" d="M728.43,603.21l-8.34,2.32h13.79v2.07H718.06v-3.25l8.1-2.18-8.1-2.18v-3.26h15.82v2.08H720.09l8.34,2.31Z"/>
      <path class="cls-3" d="M718.06,592.67v-9.42h2v7.35h4.71v-6.92h2v6.92h5.22v-7.35h2v9.42Z"/>
      <path class="cls-3" d="M727.2,573.62c0,.37,0,.76,0,1.16v1.79h6.65v2.07H718.06v-3.86c0-3.45.74-6.11,4.52-6.11,2.46,0,3.69,1.13,4.23,2.86l7.07-3.36v2.35Zm-7.17,3h5.23v-2c0-2.1-.19-3.73-2.64-3.73s-2.59,1.63-2.59,3.73Z"/>
      <path class="cls-3" d="M725.94,563.65c3.9,0,6.3-1.18,6.3-3.82,0-1.9-.82-3.69-4.1-3.69h-.5v3.65h-2v-5.55h8.2v1.57l-2,.09a4.13,4.13,0,0,1,2.26,4c0,4.08-3.42,5.87-8.22,5.87s-8.16-2.06-8.16-6.07c0-3,2-4.93,5.17-5.43v2.13c-1.83.27-3.25,1.14-3.25,3.41C719.7,562.34,721.9,563.65,725.94,563.65Z"/>
      <path class="cls-3" d="M718.06,550.38V541h2v7.35h4.71v-6.91h2v6.91h5.22V541h2v9.43Z"/>
    </g>
    <path class="cls-5" d="M691.27,438.55a1.47,1.47,0,0,1-1-.41,1.5,1.5,0,0,1,0-2.12L707,418.36a1.49,1.49,0,0,1,2.12-.06l17.66,16.77a1.5,1.5,0,1,1-2.06,2.17l-16.58-15.73-15.73,16.57A1.45,1.45,0,0,1,691.27,438.55Z"/>
    <path class="cls-5" d="M1097.88,405.7a1.53,1.53,0,0,1-1.06-.44,1.51,1.51,0,0,1,0-2.12l17.06-17.06L1096.82,369a1.51,1.51,0,0,1,0-2.12,1.49,1.49,0,0,1,2.12,0L1117.06,385a1.49,1.49,0,0,1,0,2.12l-18.12,18.12A1.49,1.49,0,0,1,1097.88,405.7Z"/>
    <g>
      <circle class="cls-4" cx="539.86" cy="561.65" r="23.15"/>
      <path d="M539.86,586.3a24.65,24.65,0,1,1,24.65-24.65A24.68,24.68,0,0,1,539.86,586.3Zm0-46.3a21.65,21.65,0,1,0,21.65,21.65A21.68,21.68,0,0,0,539.86,540Z"/>
    </g>
    <g>
      <rect class="cls-5" x="193.51" y="367.1" width="80" height="36" rx="17.89"/>
      <path class="cls-5" d="M255.62,404.6H211.4A19.42,19.42,0,0,1,192,385.2V385A19.41,19.41,0,0,1,211.4,365.6h44.22A19.41,19.41,0,0,1,275,385v.21A19.42,19.42,0,0,1,255.62,404.6Zm-44.22-36A16.41,16.41,0,0,0,195,385v.21a16.41,16.41,0,0,0,16.39,16.4h44.22A16.42,16.42,0,0,0,272,385.2V385a16.41,16.41,0,0,0-16.39-16.39Z"/>
    </g>
    <g>
      <path class="cls-3" d="M212.45,380.34h-3.9v-2.4H219v2.4h-3.9v11.6h-2.6Z"/>
      <path class="cls-3" d="M221.31,381.86v1.64a3.91,3.91,0,0,1,1.32-1.33,3.1,3.1,0,0,1,1.66-.47,4,4,0,0,1,1.22.2l-.46,2.3a1.93,1.93,0,0,0-1-.28,2.28,2.28,0,0,0-1.94,1.07,5.85,5.85,0,0,0-.76,3.37v3.58h-2.48V381.86Z"/>
      <path class="cls-3" d="M227.86,391.32a2.91,2.91,0,0,1-.85-2.26v-7.2h2.48v6.46a1.76,1.76,0,0,0,.39,1.26,1.42,1.42,0,0,0,1.05.4,1.66,1.66,0,0,0,1.14-.48,3.31,3.31,0,0,0,.84-1.41,6.92,6.92,0,0,0,.32-2.21v-4h2.48v10.08h-2.48v-1.62a4.72,4.72,0,0,1-1.38,1.3,3.3,3.3,0,0,1-1.74.48A3.21,3.21,0,0,1,227.86,391.32Z"/>
      <path class="cls-3" d="M241,381.86v1.62a4.6,4.6,0,0,1,1.38-1.3,3.3,3.3,0,0,1,1.74-.48,3.21,3.21,0,0,1,2.25.78,2.9,2.9,0,0,1,.85,2.26v7.2h-2.48v-6.46a1.73,1.73,0,0,0-.39-1.26,1.39,1.39,0,0,0-1.05-.4,1.66,1.66,0,0,0-1.14.48,3.31,3.31,0,0,0-.84,1.41,6.87,6.87,0,0,0-.32,2.21v4h-2.48V381.86Z"/>
      <path class="cls-3" d="M250,377.78h2.48v8l3.28-4h3.06l-4,4.64,4.3,5.44h-3l-3.56-4.76v4.76H250Z"/>
    </g>
    <path class="cls-7" d="M124.39,362.68h-.07a1.5,1.5,0,0,1-1.43-1.56c0-.57,2.64-57.45,31.86-113.56,17.18-33,40.07-59.31,68-78.19,34.92-23.59,77.87-35.55,127.63-35.55a1.5,1.5,0,0,1,0,3c-49.13,0-91.49,11.78-125.91,35-27.52,18.58-50.08,44.5-67,77-28.93,55.52-31.54,111.82-31.57,112.38A1.49,1.49,0,0,1,124.39,362.68Z"/>
    <g>
      <circle class="cls-4" cx="348.95" cy="135.32" r="23.15"/>
      <path d="M349,160a24.65,24.65,0,1,1,24.65-24.65A24.67,24.67,0,0,1,349,160Zm0-46.29a21.65,21.65,0,1,0,21.65,21.64A21.67,21.67,0,0,0,349,113.68Z"/>
    </g>
    <g>
      <path class="cls-5" d="M124,415.26a29.2,29.2,0,1,1,29.21-29.2A29.23,29.23,0,0,1,124,415.26Z"/>
      <path d="M124,358.36a27.71,27.71,0,1,1-27.7,27.7,27.74,27.74,0,0,1,27.7-27.7m0-3a30.71,30.71,0,1,0,30.71,30.7A30.69,30.69,0,0,0,124,355.36Z"/>
    </g>
    <path class="cls-8" d="M714.64,665.16c-74.39,0-139.06-10.09-192.22-30-44.57-16.68-81.56-40.42-109.95-70.55a240.81,240.81,0,0,1-58.71-109.35c-7.36-31.07-6.13-53.4-6.12-53.62a1.5,1.5,0,0,1,3,.18c0,.21-1.21,22.2,6.07,52.88a237.74,237.74,0,0,0,58,107.89c28.07,29.79,64.68,53.27,108.81,69.78,52.82,19.76,117.12,29.78,191.13,29.78a1.5,1.5,0,0,1,0,3Z"/>
    <g>
      <path class="cls-5" d="M350,415.26a29.2,29.2,0,1,1,29.2-29.2A29.23,29.23,0,0,1,350,415.26Z"/>
      <path d="M350,358.36a27.71,27.71,0,1,1-27.7,27.7,27.74,27.74,0,0,1,27.7-27.7m0-3a30.71,30.71,0,1,0,30.7,30.7,30.69,30.69,0,0,0-30.7-30.7Z"/>
    </g>
    <g>
      <circle class="cls-4" cx="707.77" cy="660.85" r="23.15"/>
      <path d="M707.77,685.5a24.65,24.65,0,1,1,24.65-24.65A24.68,24.68,0,0,1,707.77,685.5Zm0-46.29a21.65,21.65,0,1,0,21.65,21.64A21.67,21.67,0,0,0,707.77,639.21Z"/>
    </g>
    <g>
      <circle class="cls-4" cx="877.88" cy="561.65" r="23.15"/>
      <path d="M877.88,586.3a24.65,24.65,0,1,1,24.64-24.65A24.68,24.68,0,0,1,877.88,586.3Zm0-46.3a21.65,21.65,0,1,0,21.64,21.65A21.68,21.68,0,0,0,877.88,540Z"/>
    </g>
  </g>
</svg>
