<svg id="Layer_1" data-name="Layer 1" xmlns="http://www.w3.org/2000/svg" xmlns:xlink="http://www.w3.org/1999/xlink" viewBox="0 0 640 400">
  <defs>
    <style>
      .cls-1 {
        fill: none;
      }

      .cls-2 {
        fill: #fff5ff;
      }

      .cls-3 {
        fill: #10162f;
      }

      .cls-4 {
        fill: #a8775b;
      }

      .cls-5 {
        fill: #ff8c00;
      }

      .cls-6 {
        fill: #fff0e6;
      }

      .cls-7 {
        fill: #fff;
      }

      .cls-8 {
        clip-path: url(#clip-path);
      }

      .cls-9 {
        clip-path: url(#clip-path-2);
      }

      .cls-10 {
        fill: #fdf6fe;
      }

      .cls-11 {
        clip-path: url(#clip-path-3);
      }

      .cls-12 {
        clip-path: url(#clip-path-4);
      }

      .cls-13 {
        fill: #66c4ff;
      }

      .cls-14 {
        fill: #f6fde4;
      }

      .cls-15 {
        fill: #ffd300;
      }

      .cls-16 {
        fill: #fefae7;
      }

      .cls-17 {
        fill: #221f20;
      }

      .cls-18 {
        fill: #c49a6c;
      }

      .cls-19 {
        clip-path: url(#clip-path-5);
      }

      .cls-20 {
        clip-path: url(#clip-path-6);
      }

      .cls-21 {
        clip-path: url(#clip-path-7);
      }

      .cls-22 {
        clip-path: url(#clip-path-8);
      }

      .cls-23 {
        isolation: isolate;
      }

      .cls-24 {
        fill: #11162d;
      }
    </style>
    <clipPath id="clip-path">
      <path class="cls-1" d="M246.35,175.24c-.87-.39-2.07-1.71-3.33-2a12.52,12.52,0,0,0-2.59-.28,19.35,19.35,0,0,0-3.21.52c-1.27.26-1.84,1.34-2.72,1.73a7.61,7.61,0,0,0,5.93,3.75C244.66,179.39,246.35,175.24,246.35,175.24Z"/>
    </clipPath>
    <clipPath id="clip-path-2">
      <path class="cls-1" d="M264.76,175.24c-.88-.39-2.07-1.71-3.34-2a12.52,12.52,0,0,0-2.59-.28,19.35,19.35,0,0,0-3.21.52c-1.26.26-1.83,1.34-2.71,1.73a7.58,7.58,0,0,0,5.92,3.75C263.07,179.39,264.76,175.24,264.76,175.24Z"/>
    </clipPath>
    <clipPath id="clip-path-3">
      <path class="cls-1" d="M417.39,175.24a16.34,16.34,0,0,0-3.26-1.06,13,13,0,0,0-5.34,0,16,16,0,0,0-3.25,1.06,7.58,7.58,0,0,0,5.92,3.75C415.69,179.39,417.39,175.24,417.39,175.24Z"/>
    </clipPath>
    <clipPath id="clip-path-4">
      <path class="cls-1" d="M398.44,175.24a16.34,16.34,0,0,0-3.26-1.06,13,13,0,0,0-5.34,0,16,16,0,0,0-3.25,1.06,7.58,7.58,0,0,0,5.92,3.75C396.74,179.39,398.44,175.24,398.44,175.24Z"/>
    </clipPath>
    <clipPath id="clip-path-5">
      <path class="cls-1" d="M110.05,175.24a16.34,16.34,0,0,0-3.26-1.06,12.94,12.94,0,0,0-5.33,0,16.34,16.34,0,0,0-3.26,1.06,7.58,7.58,0,0,0,5.92,3.75C108.36,179.39,110.05,175.24,110.05,175.24Z"/>
    </clipPath>
    <clipPath id="clip-path-6">
      <path class="cls-1" d="M91.1,175.24a16.34,16.34,0,0,0-3.26-1.06,12.94,12.94,0,0,0-5.33,0,16.34,16.34,0,0,0-3.26,1.06A7.59,7.59,0,0,0,85.17,179C89.41,179.39,91.1,175.24,91.1,175.24Z"/>
    </clipPath>
    <clipPath id="clip-path-7">
      <path class="cls-1" d="M555,176.13c-.88-.39-2.07-1.7-3.33-2a12.52,12.52,0,0,0-2.59-.28,19.47,19.47,0,0,0-3.22.52c-1.26.26-1.83,1.34-2.71,1.73a7.61,7.61,0,0,0,5.93,3.75C553.26,180.28,555,176.13,555,176.13Z"/>
    </clipPath>
    <clipPath id="clip-path-8">
      <path class="cls-1" d="M573.36,176.13c-.88-.39-2.07-1.7-3.34-2a12.52,12.52,0,0,0-2.59-.28,19.35,19.35,0,0,0-3.21.52c-1.27.26-1.84,1.34-2.71,1.73a7.58,7.58,0,0,0,5.92,3.75C571.66,180.28,573.36,176.13,573.36,176.13Z"/>
    </clipPath>
  </defs>
  <rect class="cls-2" width="640" height="400"/>
  <rect class="cls-3" x="221.28" y="134.48" width="1" height="69.9" transform="translate(-35.96 276.49) rotate(-59.94)"/>
  <rect class="cls-3" x="226.84" y="127.25" width="1" height="69.9" transform="translate(-48.15 208.04) rotate(-44.95)"/>
  <rect class="cls-3" x="234.07" y="121.72" width="1" height="69.9" transform="translate(-46.9 138.14) rotate(-29.97)"/>
  <rect class="cls-3" x="242.49" y="118.23" width="1" height="69.9" transform="matrix(0.97, -0.26, 0.26, 0.97, -31.35, 68.06)"/>
  <rect class="cls-3" x="251.53" y="117.04" width="1" height="69.9"/>
  <rect class="cls-3" x="226.12" y="152.68" width="69.9" height="1" transform="translate(45.54 365.7) rotate(-75)"/>
  <rect class="cls-3" x="234.54" y="156.17" width="69.89" height="1" transform="translate(-0.79 311.97) rotate(-60.05)"/>
  <rect class="cls-3" x="241.77" y="161.71" width="69.9" height="1" transform="translate(-33.53 243.61) rotate(-45.08)"/>
  <rect class="cls-3" x="247.33" y="168.93" width="69.9" height="1" transform="translate(-46.9 164.25) rotate(-30.07)"/>
  <circle class="cls-2" cx="252.03" cy="175.81" r="50.78"/>
  <g>
    <path class="cls-4" d="M352.19,119.86c-.34-3.37,1.81-7,2.95-10s1.93-7.59.88-10.69c-.46-1.36-1.56-2.53-2.83-2.47a2.83,2.83,0,0,0-2,1.1c-1.44,1.84-3.85,15.79-3.85,15.79,0-.26-.69,0-.66-.34.47-4.41,1.21-15.26-.3-18.42-.71-1.48-2-2.61-3.24-2.26-.73.2-1.24,1-1.76,1.72-2.82,3.87-1.33,15.28-1.55,19.08l-1.39.24c-.85-3.36.27-11.87-1.6-17.09-.42-1.14-1.79-2.56-3.14-1.81-2.16,1.21-2.48,4.2-2.58,6.41a25.28,25.28,0,0,0,1.1,8.86c.52,1.66,1.11,2.79,1,4.57l-.74.2c-.49-2.68-1.4-7.12-2.68-9.52-.57-1.06-1.33-2.25-2.53-2.3a2.31,2.31,0,0,0-2.06,1.41,5.63,5.63,0,0,0-.35,2.6c.21,3.63,2.41,9,4,14.07,2.06,6.44,1.76,12.22,5.74,13l-.19,7.55H352v-6.94s3.73-1.12,5.18-4.34a14,14,0,0,0,.64-3.58,13.14,13.14,0,0,1,2-5.18c.57-.87,1.27-1.66,1.8-2.55a6.34,6.34,0,0,0,.91-4.53,4,4,0,0,0-3.14-3.14c-2.23-.33-4.11,1.6-5.34,3.48a13.73,13.73,0,0,0-1.44,3.86,8.68,8.68,0,0,1-2.2,3.62,7.65,7.65,0,0,1-1.51,1.39"/>
    <path class="cls-3" d="M352.5,142.06H333.9l.19-7.66c-2.79-.81-3.49-4-4.35-7.92-.36-1.62-.76-3.46-1.36-5.32-.42-1.35-.88-2.72-1.35-4.07-1.29-3.8-2.51-7.39-2.67-10.12a6.17,6.17,0,0,1,.38-2.81,2.81,2.81,0,0,1,2.52-1.73c1.45.06,2.32,1.33,3,2.56a15.25,15.25,0,0,1,.65,1.43,25,25,0,0,1-.27-5.33c.07-1.6.24-5.36,2.84-6.82a2.12,2.12,0,0,1,1.79-.13,3.87,3.87,0,0,1,2.06,2.21c1.15,3.21,1.2,7.49,1.24,11.27a36.55,36.55,0,0,0,.28,5.42l.52-.09c0-1,0-2.29-.09-3.81C339.06,104,338.79,97,341,94l.14-.21a3.87,3.87,0,0,1,1.89-1.7c1.58-.45,3.06.94,3.82,2.52,1.35,2.83,1,11.06.62,15.6.82-4.33,2.28-11.35,3.35-12.72a3.38,3.38,0,0,1,2.35-1.29c1.6-.08,2.87,1.4,3.34,2.81,1.08,3.18.33,7.83-.88,11-.28.71-.6,1.46-.94,2.24-.27.61-.55,1.24-.8,1.88,1.27-1.82,3.19-3.71,5.59-3.35a4.48,4.48,0,0,1,3.56,3.53,6.86,6.86,0,0,1-1,4.9,16.72,16.72,0,0,1-1,1.47c-.27.35-.54.71-.78,1.08a12.86,12.86,0,0,0-1.93,5,14.16,14.16,0,0,1-.65,3.65A9.33,9.33,0,0,1,352.5,135Zm-17.58-1H351.5v-6.81l.36-.11s3.53-1.1,4.86-4.07a13.45,13.45,0,0,0,.6-3.39,13.6,13.6,0,0,1,2.08-5.43c.26-.39.54-.77.82-1.14a15.3,15.3,0,0,0,1-1.4,5.83,5.83,0,0,0,.85-4.18,3.51,3.51,0,0,0-2.75-2.74c-2.13-.31-3.94,1.91-4.82,3.26a13.21,13.21,0,0,0-1.37,3.69,9.23,9.23,0,0,1-2.34,3.88,8.05,8.05,0,0,1-1.57,1.44l-.58-.82a7,7,0,0,0,1.42-1.3,8.63,8.63,0,0,0,1.64-2.28c-.17-2.63,1-5.36,2.08-7.78.33-.76.66-1.5.92-2.2,1.12-2.93,1.87-7.42.88-10.35-.36-1.06-1.2-2.16-2.34-2.13a2.34,2.34,0,0,0-1.62.9c-1,1.29-2.8,10-3.76,15.57l-1-.08a.39.39,0,0,0,.27.37H347a.89.89,0,0,1-.68-.25.72.72,0,0,1-.15-.49c.62-5.8,1.06-15.41-.25-18.16-.56-1.17-1.63-2.29-2.65-2-.5.14-.93.74-1.35,1.33l-.14.2c-2,2.73-1.71,9.83-1.53,14.52.07,1.76.13,3.29.07,4.3l0,.4-2.24.38-.11-.45a30.33,30.33,0,0,1-.41-6.1c0-3.7-.09-7.89-1.18-10.94a2.9,2.9,0,0,0-1.47-1.61,1.08,1.08,0,0,0-1,.07c-1.85,1-2.21,3.61-2.32,6a24.58,24.58,0,0,0,1.08,8.69q.17.53.33,1a8.91,8.91,0,0,1,.69,3.76l0,.36-1.61.43-.1-.53c-.82-4.49-1.71-7.64-2.63-9.37-.56-1-1.2-2-2.11-2a1.8,1.8,0,0,0-1.58,1.1,5,5,0,0,0-.31,2.36c.15,2.62,1.35,6.14,2.62,9.88.46,1.36.93,2.73,1.36,4.09.6,1.9,1,3.76,1.37,5.4.87,3.93,1.49,6.77,4,7.26l.41.08Z"/>
  </g>
  <g>
    <path class="cls-4" d="M477.09,104.36A2.31,2.31,0,0,0,475,103c-1.19,0-2,1.24-2.52,2.3-1.28,2.4-2.2,6.84-2.68,9.52l-.74-.2c-.11-1.78.48-2.91,1-4.57a25.37,25.37,0,0,0,1.1-8.87c-.1-2.2-.42-5.19-2.58-6.4-1.35-.75-2.73.67-3.14,1.81-1.87,5.22-.75,13.73-1.6,17.09l-1.39-.24c-.23-3.8,1.26-15.21-1.56-19.08-.51-.71-1-1.52-1.75-1.73-1.23-.34-2.54.79-3.25,2.27-1.5,3.16-.76,14-.3,18.42,0,.33-.69.08-.65.34,0,0-2.41-14-3.86-15.79a2.83,2.83,0,0,0-2-1.1c-1.26-.06-2.36,1.11-2.82,2.47-1,3.1-.28,7.72.88,10.69s3.38,6.78,3,10.15a7.53,7.53,0,0,1-.56-1.38,14,14,0,0,0-1.44-3.86c-1.23-1.88-3.11-3.8-5.34-3.48a4,4,0,0,0-3.14,3.14,6.28,6.28,0,0,0,.9,4.53c.54.89,1.23,1.68,1.81,2.55a13.45,13.45,0,0,1,2,5.18,14.1,14.1,0,0,0,.64,3.59c1.44,3.21,5.18,4.33,5.18,4.33v6.94h17.62l-.19-7.55c4-.77,3.68-6.55,5.74-13,1.6-5,3.8-10.43,4-14A5.44,5.44,0,0,0,477.09,104.36Zm-23,19c-.67-.43-3.45-2.55-3.87-3.36"/>
    <path class="cls-3" d="M468.32,142.12H449.69V135a9.29,9.29,0,0,1-5.14-4.49,15,15,0,0,1-.68-3.77,12.78,12.78,0,0,0-1.92-4.93c-.24-.36-.5-.71-.77-1.06a18.2,18.2,0,0,1-1.05-1.5,6.75,6.75,0,0,1-1-4.88,4.49,4.49,0,0,1,3.53-3.54c2.61-.37,4.62,1.8,5.86,3.7l0,.08c-.32-.83-.68-1.64-1-2.42s-.64-1.45-.9-2.12c-1.17-3-1.95-7.73-.89-11,.48-1.42,1.73-2.9,3.32-2.82a3.36,3.36,0,0,1,2.38,1.3c1.06,1.31,2.51,8.27,3.34,12.61-.34-4.54-.72-12.68.62-15.49.89-1.88,2.47-2.92,3.83-2.54a3.71,3.71,0,0,1,1.85,1.67l.18.25c2.18,3,1.91,10,1.71,15.1-.05,1.53-.1,2.88-.08,3.85l.52.09a36.55,36.55,0,0,0,.28-5.42c0-3.78.09-8.06,1.24-11.27a3.8,3.8,0,0,1,2-2.2,2.07,2.07,0,0,1,1.8.12c2.59,1.45,2.77,5.21,2.84,6.82a25.08,25.08,0,0,1-.27,5.34,14,14,0,0,1,.65-1.44c.3-.62,1.26-2.56,3-2.56a2.79,2.79,0,0,1,2.55,1.66v0a6,6,0,0,1,.29,3c-.14,2.7-1.41,6.39-2.75,10.29-.43,1.27-.87,2.54-1.26,3.78a54.89,54.89,0,0,0-1.35,5.33c-.87,4-1.56,7.1-4.36,7.91Zm-17.63-1H467.3l-.19-7.46.42-.08c2.5-.48,3.12-3.32,4-7.24.36-1.65.76-3.52,1.37-5.42.4-1.25.84-2.53,1.28-3.8,1.31-3.84,2.55-7.47,2.7-10.08a5.08,5.08,0,0,0-.23-2.49,1.8,1.8,0,0,0-1.63-1c-.72,0-1.41.68-2.07,2-.94,1.77-1.85,5-2.64,9.39l-.09.53-1.62-.43,0-.36a8.84,8.84,0,0,1,.69-3.75c.11-.32.22-.65.33-1a24.58,24.58,0,0,0,1.08-8.69c-.11-2.38-.47-4.95-2.32-6a1.14,1.14,0,0,0-1-.07,2.84,2.84,0,0,0-1.46,1.61c-1.09,3-1.14,7.24-1.18,10.94a30.33,30.33,0,0,1-.41,6.1l-.11.45-2.24-.38,0-.4c-.06-1,0-2.56.07-4.34.17-4.68.44-11.76-1.53-14.48l-.19-.25c-.39-.57-.8-1.15-1.3-1.29-1-.27-2.08.8-2.66,2-1.39,2.92-.77,13.15-.25,18.15,0,.34-.15.7-.84.75a.49.49,0,0,0,.18-.44l-1,.17c-1-5.58-2.75-14.33-3.76-15.56a2.33,2.33,0,0,0-1.65-.92c-1,0-1.94,1-2.31,2.13-.94,2.91-.27,7.41.88,10.35.25.65.56,1.35.88,2.07,1.1,2.49,2.34,5.31,2.18,8a20.21,20.21,0,0,0,3.69,3.16l-.54.84a29.48,29.48,0,0,1-3.3-2.65l-.07.63-.75-1.45a7.82,7.82,0,0,1-.6-1.47,13.6,13.6,0,0,0-1.4-3.76c-.86-1.32-2.67-3.54-4.83-3.23a3.51,3.51,0,0,0-2.72,2.75,5.76,5.76,0,0,0,.83,4.16,16.75,16.75,0,0,0,1,1.43q.42.54.81,1.11a13.93,13.93,0,0,1,2.07,5.38,14,14,0,0,0,.63,3.52c1.31,2.91,4.81,4,4.84,4l.36.11Z"/>
  </g>
  <g>
    <path class="cls-5" d="M281.59,159.69c0-3.66,1.21-7.82-.83-10.9-1.89-2.85-6.31-3.59-9.53-5.64-2.9-1.84-5.23-5.63-8.9-6.6-3.34-.89-7.28,1.15-11,1.15s-7.7-2-11-1.15c-3.66,1-6,4.75-8.89,6.6-3.23,2-7.64,2.79-9.53,5.64-2,3.08-.83,7.24-.83,10.9,0,2-3.89,7.18-2.34,11.93a7.13,7.13,0,0,0,3.34,3.65,23.55,23.55,0,0,0,1,12.14l8.52,8.3-.28-17.58c.13.07,1.15.42,1.28.48,2.75,1.41,1.19,4.8,5.94,5.49,3.3.48,7.32-1.8,11.8-1.8s8.71,2.29,12.13,1.81a14.93,14.93,0,0,0,6.29-2.64c0,.09-.09.17-.13.26a10.94,10.94,0,0,0,5.22,14.58,10.7,10.7,0,0,0,1.89.69,18.39,18.39,0,0,0,6.19-14.95l-.56-7.68a5.84,5.84,0,0,0,1.92-2.37C285.26,167.19,281.59,161.81,281.59,159.69Z"/>
    <path class="cls-3" d="M275.87,197.55l-.26-.07a11.73,11.73,0,0,1-2-.72,11.47,11.47,0,0,1-6-14,15.54,15.54,0,0,1-5.12,1.83,16.61,16.61,0,0,1-6.14-.8,25.17,25.17,0,0,0-6.07-1,23.77,23.77,0,0,0-6,1,15.29,15.29,0,0,1-5.86.78,4.83,4.83,0,0,1-4.39-3.38,3.8,3.8,0,0,0-1.71-2.16l-.46-.16-.08,0,.29,18-9.47-9.22,0-.11a24.06,24.06,0,0,1-1.08-12,7.63,7.63,0,0,1-3.25-3.73c-1.12-3.41.35-6.9,1.42-9.45a9.76,9.76,0,0,0,.88-2.67c0-1-.08-2-.17-3-.23-2.85-.48-5.79,1.08-8.19,1.31-2,3.72-3,6-4a27.28,27.28,0,0,0,3.64-1.78,21.79,21.79,0,0,0,3-2.58c1.75-1.68,3.56-3.42,6-4.07,2-.53,4.31,0,6.5.45a22.82,22.82,0,0,0,4.63.68,21.7,21.7,0,0,0,4.59-.69c2.2-.49,4.47-1,6.54-.44,2.41.63,4.22,2.37,6,4.05a20,20,0,0,0,3.07,2.61,27.06,27.06,0,0,0,3.74,1.84c2.28,1,4.65,2,5.94,3.94,1.58,2.4,1.33,5.34,1.08,8.18-.08,1-.17,2-.17,3a10.12,10.12,0,0,0,.76,2.66c1,2.68,2.33,6.36.9,9.84a6.32,6.32,0,0,1-1.86,2.41l.54,7.41a18.8,18.8,0,0,1-6.36,15.37Zm-6.61-17.06v1a.73.73,0,0,1-.16.44,10.47,10.47,0,0,0,5,14,12.06,12.06,0,0,0,1.55.59,17.76,17.76,0,0,0,5.82-14.37l-.58-8,.23-.17a5.34,5.34,0,0,0,1.75-2.16c1.28-3.11,0-6.58-.92-9.1a10.31,10.31,0,0,1-.82-3c0-1,.09-2.06.18-3.08.23-2.68.47-5.44-.93-7.54-1.12-1.69-3.25-2.61-5.5-3.58a28,28,0,0,1-3.88-1.92,21.09,21.09,0,0,1-3.23-2.73c-1.65-1.59-3.37-3.24-5.53-3.81-1.83-.49-3.89,0-6.06.46a22.63,22.63,0,0,1-4.81.71,22.91,22.91,0,0,1-4.84-.71c-2.18-.47-4.23-.92-6-.46-2.15.59-3.87,2.24-5.53,3.83a22,22,0,0,1-3.21,2.71,29.25,29.25,0,0,1-3.77,1.85c-2.3,1-4.47,1.93-5.61,3.65-1.37,2.1-1.14,4.88-.92,7.56.08,1,.17,2.06.17,3.06a9.41,9.41,0,0,1-1,3.05c-1,2.41-2.39,5.71-1.4,8.72a6.59,6.59,0,0,0,3.09,3.37l.33.17-.07.36a23.09,23.09,0,0,0,.94,11.77l7.57,7.38-.27-17.23.75.41.69.26.56.21a4.71,4.71,0,0,1,2.18,2.65,3.91,3.91,0,0,0,3.62,2.8,15,15,0,0,0,5.47-.77,25.06,25.06,0,0,1,6.26-1,25.85,25.85,0,0,1,6.32,1,15.81,15.81,0,0,0,5.74.78,14.48,14.48,0,0,0,6.07-2.54Z"/>
  </g>
  <g>
    <path class="cls-6" d="M228,181.77c.44-.06,2.4.19,2.59-.34,0,0,.58-5.79,1.35-6.75-.73-.65-3.4-4.28-4.38-4.28C222,170.43,224.18,182.29,228,181.77Z"/>
    <path class="cls-3" d="M227.76,182.29a3.13,3.13,0,0,1-2.46-1.53c-1.5-2.12-2.22-6.37-.93-8.87a3.46,3.46,0,0,1,3.19-2c.85,0,2.07,1.35,3.69,3.25.43.51.83,1,1,1.16l.36.31-.3.37c-.47.59-1,4.15-1.24,6.49l0,.12c-.26.73-1.43.69-2.45.67a3.12,3.12,0,0,0-.54,0h0Zm-.21-11.39a2.46,2.46,0,0,0-2.29,1.44c-1.11,2.17-.45,6,.85,7.84a2.07,2.07,0,0,0,1.82,1.09c.14,0,.39,0,.7,0a6.57,6.57,0,0,0,1.48-.07,30.45,30.45,0,0,1,1.21-6.43l-.84-1C229.76,173,228.07,171,227.55,170.9Z"/>
  </g>
  <g>
    <polyline class="cls-7" points="272.38 193.26 273.14 220.23 236.59 224.71 240.43 203.94"/>
    <polygon class="cls-3" points="235.97 225.29 239.94 203.85 240.92 204.03 237.21 224.13 272.63 219.79 271.88 193.27 272.88 193.25 273.65 220.67 235.97 225.29"/>
  </g>
  <g>
    <path class="cls-6" d="M268.43,191.11a11.18,11.18,0,0,1,0-9.43c.32-.68.71-1.33,1.08-2a16.81,16.81,0,0,0,1.36-2.59c1-2.59.57-5.47.11-8-.3-1.6-.72-3.39-2-4.4-1.57-1.19-3.81-.79-5-.44-.58.17-1.16.37-1.72.58a15,15,0,0,1-3.42.92,9.23,9.23,0,0,1-7.38-3,14.37,14.37,0,0,1-2.86-3.93,5.82,5.82,0,0,1-.24,1,5.39,5.39,0,0,1-3,3.4c-2.33,1-5,.21-7.51-.74h-.07a10.07,10.07,0,0,0-1.87-.56c-3.18-.47-6,2.62-6.82,5.88a27.84,27.84,0,0,0-.67,5.06c-.07,1.12.43,11.76.81,15.94a71.58,71.58,0,0,0,3.16,8.61c5.21,12,8.81,14.52,19.4,14.52,11.15,0,15.41-2.94,20.41-15.09.1-.26.27-.65.49-1.14A11.09,11.09,0,0,1,268.43,191.11Z"/>
    <path class="cls-3" d="M251.79,212.43c-10.91,0-14.63-2.77-19.86-14.82a71.94,71.94,0,0,1-3.18-8.67c-.39-4.16-.91-14.89-.83-16.11a28.85,28.85,0,0,1,.68-5.14c.88-3.49,3.88-6.79,7.38-6.26a10.44,10.44,0,0,1,1.9.55l.15,0c2.28.87,4.9,1.71,7.13.75a4.87,4.87,0,0,0,2.72-3.08,6.14,6.14,0,0,0,.23-.94l.24-1.56.7,1.42a13.57,13.57,0,0,0,2.76,3.79,8.69,8.69,0,0,0,7,2.86,14.73,14.73,0,0,0,3.26-.88c.65-.25,1.23-.44,1.77-.6,1.28-.38,3.69-.81,5.44.52,1.42,1.12,1.87,3,2.19,4.71.5,2.72.89,5.61-.13,8.27a18,18,0,0,1-1.41,2.68l-.28.51c-.27.47-.54.95-.77,1.43A10.27,10.27,0,0,0,273,195.27l.38.23-.18.41c-.22.47-.39.86-.48,1.11C267.63,209.26,263.34,212.43,251.79,212.43Zm-16.53-50.06c-2.66,0-5,2.76-5.69,5.55a28.42,28.42,0,0,0-.65,5c-.07,1.07.43,11.68.81,15.87a71.43,71.43,0,0,0,3.12,8.46c5.08,11.7,8.44,14.22,18.94,14.22,11.14,0,15.06-2.9,20-14.78.07-.18.18-.44.32-.76a11.44,11.44,0,0,1-4.08-4.56h0a11.62,11.62,0,0,1,0-9.85c.24-.51.52-1,.8-1.5l.29-.53a17.19,17.19,0,0,0,1.34-2.54c.93-2.41.55-5.14.08-7.72-.28-1.51-.68-3.2-1.82-4.1-1.45-1.1-3.66-.61-4.55-.35-.52.15-1.07.34-1.68.57a15.88,15.88,0,0,1-3.53.95,9.75,9.75,0,0,1-7.82-3.16,14.61,14.61,0,0,1-2.32-2.92,5.86,5.86,0,0,1-3.21,3.51c-2.43,1-5.18.29-7.8-.7l-.17,0a9.86,9.86,0,0,0-1.78-.53A3.39,3.39,0,0,0,235.26,162.37Z"/>
  </g>
  <g>
    <path class="cls-6" d="M229.2,189.08v-.17a1,1,0,0,0-.07-.23Z"/>
    <path class="cls-3" d="M228.71,189.17l-.07-.4,1-.21a.81.81,0,0,1,.09.35v.17Z"/>
  </g>
  <path class="cls-6" d="M248.37,158.51c.06.15.12.29.19.43a1.8,1.8,0,0,1,.05-.52h0Z"/>
  <path class="cls-3" d="M251.75,191.77a4.41,4.41,0,0,1-1.47-.25,4.51,4.51,0,0,1-2.76-5.74c1.66-5.22-.66-10.89-3.06-12.65l.6-.8c2.63,1.93,5.21,8.11,3.41,13.77a3.51,3.51,0,0,0,2.14,4.48,3.44,3.44,0,0,0,1.27.19h1.57v1h-1.7Z"/>
  <path class="cls-3" d="M246,175.46c-2.14-2.12-5.15-2.09-6.75-1.88-2.18.28-3.94,1.14-4.32,1.78l-.86-.5c.6-1,2.72-2,5.05-2.28,1.78-.23,5.14-.25,7.58,2.17Z"/>
  <g class="cls-8">
    <circle class="cls-3" cx="240.43" cy="175.74" r="2.58"/>
  </g>
  <path class="cls-3" d="M264.41,175.47c-2.15-2.13-5.16-2.1-6.76-1.89-2.18.28-3.93,1.14-4.31,1.78l-.86-.5c.6-1,2.72-2,5-2.28,1.78-.23,5.14-.25,7.59,2.17Z"/>
  <g class="cls-9">
    <circle class="cls-3" cx="258.83" cy="175.74" r="2.58" transform="translate(43.9 403.08) rotate(-80.78)"/>
  </g>
  <path class="cls-3" d="M250.54,200.33a12.44,12.44,0,0,1-1.37-.07l.1-1a11.57,11.57,0,0,0,4-.25l.24,1A12.78,12.78,0,0,1,250.54,200.33Z"/>
  <g>
    <path class="cls-6" d="M275.68,183.1a3,3,0,0,1-.81-1.21h0l-.12-.42v-.17c-.42-2.41,1.63-2.76,1.22-5.16-.3-1.75-1.47-2-2.24-3,.73-.65,1.44-1.41,2.42-1.4C281.73,171.75,279.12,181.25,275.68,183.1Z"/>
    <path class="cls-3" d="M275.61,183.71l-.27-.24a3.47,3.47,0,0,1-.94-1.41l-.15-.76a3.77,3.77,0,0,1,.68-2.84,2.92,2.92,0,0,0,.55-2.24,2.84,2.84,0,0,0-1.23-1.88,5.88,5.88,0,0,1-.92-.89l-.28-.37.59-.53a3.6,3.6,0,0,1,2.52-1.31,3.41,3.41,0,0,1,3.56,2.75c.77,3.09-1.25,8.18-3.8,9.55Zm-.36-2.32.1.36a2.43,2.43,0,0,0,.41.71c2-1.42,3.63-5.68,3-8.23a2.43,2.43,0,0,0-2.6-2,2.76,2.76,0,0,0-1.71.94l.45.4a3.74,3.74,0,0,1,1.57,2.48,3.82,3.82,0,0,1-.67,2.91,2.87,2.87,0,0,0-.55,2.24Z"/>
  </g>
  <g>
    <path class="cls-5" d="M277.21,214.64l20.68,11a21.27,21.27,0,0,1,7.51,6.69c4.29,6.21,7.45,22.54,9.47,31a2.44,2.44,0,0,1-.34,1.54H195c2-7.62,5.21-25.76,9.85-32.49a21.27,21.27,0,0,1,7.51-6.69l26.16-11"/>
    <path class="cls-3" d="M314.81,265.37H194.35l.17-.63c.45-1.72,1-3.95,1.54-6.54,2-8.79,4.74-20.82,8.38-26.1a21.87,21.87,0,0,1,7.68-6.85l26.21-11,.38.92-26.16,11a20.87,20.87,0,0,0-7.29,6.51c-3.53,5.13-6.24,17.05-8.22,25.76-.52,2.3-1,4.31-1.39,5.95H314.23a1.94,1.94,0,0,0,.14-1c-.31-1.28-.66-2.82-1-4.49-2-8.92-4.8-21.14-8.35-26.29a20.9,20.9,0,0,0-7.33-6.53l-20.68-11,.46-.88,20.68,11a21.82,21.82,0,0,1,7.69,6.85c3.67,5.3,6.46,17.63,8.5,26.63.38,1.66.73,3.2,1.05,4.53a3,3,0,0,1-.4,1.92Z"/>
  </g>
  <g>
    <path class="cls-6" d="M273.26,203.88a25.66,25.66,0,0,0,2.66-6.46,2.74,2.74,0,0,1,5.44.64c0,.1,0,.2-.05.3-.84,4.82-6.38,14.51-11.39,19.93a2.74,2.74,0,0,1-3.87.15"/>
    <path class="cls-3" d="M267.91,219.67a3.25,3.25,0,0,1-2.2-.86l.68-.74a2.23,2.23,0,0,0,3.16-.12c5-5.37,10.44-14.93,11.27-19.68,0-.11,0-.19.05-.27a2.25,2.25,0,0,0-2-2.49,2.28,2.28,0,0,0-1.65.47,2.21,2.21,0,0,0-.83,1.5,26.3,26.3,0,0,1-2.73,6.65l-.86-.5a25.3,25.3,0,0,0,2.61-6.34,3.09,3.09,0,0,1,1.19-2.09,3.22,3.22,0,0,1,2.39-.68,3.19,3.19,0,0,1,2.16,1.21,3.22,3.22,0,0,1,.68,2.39c0,.12,0,.24-.06.35-.85,4.87-6.45,14.68-11.51,20.16A3.24,3.24,0,0,1,267.91,219.67Z"/>
  </g>
  <g>
    <path class="cls-6" d="M265.34,216.81a2.59,2.59,0,0,1-1.13.25,2.74,2.74,0,0,1-1.13-5.23c2.07-.94,3.6-3.21,4.56-4.83a39,39,0,0,0,5.12-14.87,2.74,2.74,0,0,1,5.43.69,43,43,0,0,1-1.49,7"/>
    <path class="cls-3" d="M264.22,217.56h0a3.24,3.24,0,0,1-1.34-6.18c2-.89,3.41-3.07,4.34-4.63a38.26,38.26,0,0,0,5.05-14.68,3.24,3.24,0,0,1,6.43.79,44.82,44.82,0,0,1-1.51,7.1l-1-.28a42.2,42.2,0,0,0,1.47-6.92,2.22,2.22,0,0,0-1.84-2.36,2.25,2.25,0,0,0-2.6,1.82,39,39,0,0,1-5.18,15c-1,1.68-2.57,4-4.78,5a2.23,2.23,0,0,0-.66,3.61,2.22,2.22,0,0,0,1.58.66h0a2.19,2.19,0,0,0,.91-.2l.42.9A3,3,0,0,1,264.22,217.56Z"/>
  </g>
  <g>
    <path class="cls-6" d="M275.37,195.66a2.73,2.73,0,1,0-5.46.3h0a4.15,4.15,0,0,1-.39,2.5,7.22,7.22,0,0,1-2.33,1.14,19.67,19.67,0,0,0-7.72,4.71c-2,2.05-4.07,5.6-2.38,10.95a30.73,30.73,0,0,0,4.44,8c.46.65.86,1.22,1.1,1.63a2.75,2.75,0,0,0,2.35,1.32,2.67,2.67,0,0,0,2.41-1.48l8-8.52"/>
    <path class="cls-3" d="M265,226.71h0a3.28,3.28,0,0,1-2.78-1.56c-.23-.4-.62-1-1.08-1.6a31.15,31.15,0,0,1-4.5-8.12c-1.76-5.57.38-9.31,2.49-11.47a20.24,20.24,0,0,1,7.93-4.84,6.44,6.44,0,0,0,2.08-1,3.59,3.59,0,0,0,.3-2.09,3.19,3.19,0,0,1,.81-2.39,3.25,3.25,0,0,1,2.23-1.07,3.21,3.21,0,0,1,2.34.82,3.25,3.25,0,0,1,1.07,2.23l-1,.06a2.16,2.16,0,0,0-.74-1.54,2.21,2.21,0,0,0-1.61-.57,2.24,2.24,0,0,0-2.11,2.35,4.64,4.64,0,0,1-.44,2.75l-.06.11-.09.07a7.6,7.6,0,0,1-2.49,1.22,19.15,19.15,0,0,0-7.51,4.59,9.83,9.83,0,0,0-2.25,10.44,30,30,0,0,0,4.36,7.85c.48.67.88,1.25,1.13,1.68a2.33,2.33,0,0,0,1.93,1.07,2.16,2.16,0,0,0,1.14-.32,2.11,2.11,0,0,0,.81-.89l.09-.11,8-8.52.72.68L267.8,225a3.14,3.14,0,0,1-2.8,1.69Z"/>
  </g>
  <g>
    <path class="cls-5" d="M302.26,239.43l-26.88-26.91-16.95,15.06,34.21,36.87a5.6,5.6,0,0,0,3,1.89l12.24,2.54a5.65,5.65,0,0,0,6.8-4.17,6.15,6.15,0,0,0,.15-1.48"/>
    <path class="cls-3" d="M309.19,269.54a6.42,6.42,0,0,1-1.43-.17l-12.22-2.54a6.25,6.25,0,0,1-3.29-2.06l-34.53-37.22,17.68-15.72,27.21,27.25-.7.7-26.55-26.57-16.22,14.4L293,264.11a5.12,5.12,0,0,0,2.75,1.74L308,268.39a5.15,5.15,0,0,0,6.21-3.8,5,5,0,0,0,.14-1.34l1,0a5.73,5.73,0,0,1-.17,1.6A6.14,6.14,0,0,1,309.19,269.54Z"/>
  </g>
  <g>
    <rect class="cls-10" x="167.23" y="185.3" width="91.25" height="60.79"/>
    <path class="cls-3" d="M259,246.59H166.73V184.8H259Zm-91.25-1H258V185.8H167.73Z"/>
  </g>
  <g>
    <rect class="cls-10" x="206.58" y="226.42" width="12.56" height="36.17"/>
    <path class="cls-3" d="M219.64,263.09H206.08V225.92h13.56Zm-12.56-1h11.56V226.92H207.08Z"/>
  </g>
  <g>
    <path class="cls-10" d="M187.69,259.51H238a3.76,3.76,0,0,1,3.76,3.76h0v1.5H183.93v-1.5a3.76,3.76,0,0,1,3.76-3.76Z"/>
    <path class="cls-3" d="M242.26,265.27H183.43v-2a4.26,4.26,0,0,1,4.26-4.26H238a4.26,4.26,0,0,1,4.26,4.26Zm-57.83-1h56.83v-1A3.26,3.26,0,0,0,238,260H187.69a3.26,3.26,0,0,0-3.26,3.26Z"/>
  </g>
  <g>
    <circle class="cls-10" cx="212.86" cy="222.52" r="13.17"/>
    <path class="cls-3" d="M212.86,236.19a13.67,13.67,0,1,1,13.67-13.67A13.68,13.68,0,0,1,212.86,236.19Zm0-26.34a12.67,12.67,0,1,0,12.67,12.67A12.68,12.68,0,0,0,212.86,209.85Z"/>
  </g>
  <path class="cls-3" d="M439,173.49c0-5,1.89-10.39.08-14.77-1.88-4.53-7.09-7-10.5-10.38s-5.86-8.62-10.39-10.5c-4.37-1.82-9.74.08-14.77.08s-10.4-1.9-14.77-.08c-4.53,1.88-7,7.08-10.38,10.5s-8.62,5.85-10.5,10.38c-1.82,4.38.08,9.75.08,14.77,0,2.82-4.25,9.25-3.32,15.86.67,4.79,5,8.48,9.28,12.53,3.13,3,6.19,8,12.47,9.52,4.29,1,9.78-1.34,15.93-1.34s11.87,2.4,16.3,1.39c6.42-1.47,9.75-6.46,13.09-9.35,4.65-4,9.25-7.52,10.18-12.31C443.06,183.1,439,176.46,439,173.49Z"/>
  <path class="cls-3" d="M416.09,212.2a36.47,36.47,0,0,1-6.21-.76,44.45,44.45,0,0,0-7.67-.88,43.1,43.1,0,0,0-7.6.87c-3.05.53-5.94,1-8.44.46-5-1.21-8-4.49-10.57-7.38-.74-.82-1.44-1.6-2.14-2.27l-1-1c-4-3.73-7.74-7.26-8.37-11.83-.62-4.37,1-8.7,2.14-11.86a14.9,14.9,0,0,0,1.17-4.07,42.59,42.59,0,0,0-.43-5.13c-.43-3.36-.86-6.82.39-9.83s4.07-5.25,6.76-7.31a37.13,37.13,0,0,0,3.84-3.23,40.06,40.06,0,0,0,3.13-3.75c2.09-2.73,4.26-5.55,7.42-6.86,3-1.25,6.46-.82,9.82-.4a30.24,30.24,0,0,0,10.28,0c3.35-.42,6.82-.85,9.82.4s5.27,4.08,7.34,6.78a37.8,37.8,0,0,0,3.21,3.82,40.29,40.29,0,0,0,3.76,3.14c2.72,2.09,5.54,4.26,6.85,7.41s.81,6.48.39,9.84a42.6,42.6,0,0,0-.43,5.12,16.32,16.32,0,0,0,1.05,4.1c1.09,3.29,2.58,7.8,1.72,12.29s-4.87,7.93-9.09,11.53l-1.25,1.07c-.79.68-1.58,1.49-2.42,2.34-2.75,2.8-5.87,6-10.89,7.12A11.61,11.61,0,0,1,416.09,212.2Zm-13.88-2.64a44.87,44.87,0,0,1,7.84.9c3.06.54,5.95,1,8.35.5,4.73-1.08,7.74-4.14,10.39-6.84.86-.87,1.66-1.69,2.48-2.4l1.26-1.07c4.09-3.48,8-6.77,8.76-11s-.58-8.42-1.69-11.78a16.1,16.1,0,0,1-1.1-4.42,41.92,41.92,0,0,1,.44-5.24c.42-3.38.82-6.57-.32-9.34s-3.92-5-6.54-7a39.06,39.06,0,0,1-3.85-3.22,38.18,38.18,0,0,1-3.3-3.92c-2-2.59-4.06-5.28-6.93-6.47s-5.94-.75-9.31-.32a31.78,31.78,0,0,1-10.54,0c-3.37-.43-6.55-.83-9.31.32s-5,3.93-7,6.55a40,40,0,0,1-3.21,3.84,38.6,38.6,0,0,1-3.94,3.32c-2.59,2-5.26,4-6.45,6.9s-.75,6-.32,9.32a44.24,44.24,0,0,1,.44,5.26,15,15,0,0,1-1.23,4.42c-1.19,3.23-2.68,7.25-2.09,11.37s4.22,7.63,8.06,11.24l1.06,1c.73.69,1.44,1.48,2.2,2.32,2.51,2.78,5.35,5.94,10,7.07,2.3.54,5,.07,8-.47A44.49,44.49,0,0,1,402.21,209.56Z"/>
  <g>
    <polyline class="cls-4" points="424.46 193.26 425.22 220.23 388.67 224.71 392.51 203.94"/>
    <polygon class="cls-3" points="388.06 225.29 392.02 203.85 393 204.03 389.29 224.13 424.71 219.79 423.96 193.27 424.96 193.25 425.73 220.67 388.06 225.29"/>
  </g>
  <g>
    <path class="cls-4" d="M420.51,191.11a11.18,11.18,0,0,1,0-9.43,21.47,21.47,0,0,1,1.09-2,17.68,17.68,0,0,0,1.35-2.59c1-2.59.57-5.47.11-8-.29-1.6-.72-3.39-2-4.4-1.56-1.19-3.81-.79-5-.44-.58.17-1.16.37-1.72.58a15,15,0,0,1-3.41.92,9.22,9.22,0,0,1-7.39-3,14.37,14.37,0,0,1-2.86-3.93,5.82,5.82,0,0,1-.24,1,5.39,5.39,0,0,1-3,3.4c-2.33,1-5,.21-7.5-.74h-.08a10.07,10.07,0,0,0-1.87-.56c-3.18-.47-6,2.62-6.82,5.88a27.84,27.84,0,0,0-.67,5.06c-.07,1.12-.15,2.26-.32,3.39q.57,6.27,1.13,12.55a73.39,73.39,0,0,0,3.17,8.61c5.21,12,8.81,14.52,19.4,14.52,11.14,0,15.4-2.94,20.4-15.09.11-.26.27-.65.49-1.14A11.28,11.28,0,0,1,420.51,191.11Z"/>
    <path class="cls-3" d="M403.88,212.43c-10.91,0-14.63-2.77-19.86-14.82a75.57,75.57,0,0,1-3.19-8.67l0-.1q-.56-6.27-1.13-12.54v-.12c.16-1.12.24-2.27.31-3.35a28.85,28.85,0,0,1,.68-5.14c.88-3.49,3.88-6.79,7.38-6.26a10.68,10.68,0,0,1,1.9.55l.16,0c2.27.87,4.89,1.71,7.12.75a4.87,4.87,0,0,0,2.72-3.08,6.77,6.77,0,0,0,.23-.94l.24-1.57.7,1.43a13.57,13.57,0,0,0,2.76,3.79,8.71,8.71,0,0,0,7,2.86,14.65,14.65,0,0,0,3.25-.88c.65-.25,1.23-.44,1.77-.6,1.28-.38,3.7-.81,5.44.52,1.37,1.08,1.86,2.9,2.19,4.71.5,2.73.89,5.61-.13,8.27A18.42,18.42,0,0,1,422,180a21.27,21.27,0,0,0-1.06,1.94A10.27,10.27,0,0,0,425,195.27l.38.23-.18.4c-.18.4-.32.74-.43,1l-.06.14C419.71,209.26,415.42,212.43,403.88,212.43ZM381.8,188.71a74.06,74.06,0,0,0,3.14,8.5c5.08,11.7,8.44,14.22,18.94,14.22,11.14,0,15.05-2.9,19.94-14.78l.06-.15.26-.61a11.73,11.73,0,0,1-4.08-4.56h0a11.62,11.62,0,0,1,0-9.85,20.12,20.12,0,0,1,1.11-2.05,17.27,17.27,0,0,0,1.32-2.52c.93-2.41.55-5.14.08-7.72-.28-1.5-.66-3.18-1.82-4.1-1.44-1.1-3.66-.61-4.55-.35-.57.17-1.14.36-1.68.57a15.25,15.25,0,0,1-3.52.94,9.75,9.75,0,0,1-7.83-3.15,14.55,14.55,0,0,1-2.32-2.91,5.84,5.84,0,0,1-3.21,3.5c-2.43,1-5.18.29-7.79-.7l-.18,0a9.86,9.86,0,0,0-1.78-.53c-2.86-.42-5.48,2.53-6.23,5.51a27.51,27.51,0,0,0-.66,5c-.07,1.1-.15,2.25-.32,3.38Q381.25,182.49,381.8,188.71Z"/>
  </g>
  <g>
    <path class="cls-4" d="M381.28,189.08v-.17a2,2,0,0,0-.07-.23Z"/>
    <path class="cls-3" d="M380.79,189.17l-.07-.4,1-.27.09.29v.29Z"/>
  </g>
  <g>
    <path class="cls-4" d="M400.45,158.51c.06.15.12.29.19.43a1.8,1.8,0,0,1,.05-.52h0Z"/>
    <path class="cls-3" d="M401.14,161.08l-.95-1.92a5.11,5.11,0,0,1-.2-.47l-.19-.47,1.66-.62-.29,1a1.43,1.43,0,0,0,0,.38Z"/>
  </g>
  <path class="cls-3" d="M380.28,184.08c-1.31-2.51-2.53-5.1-3.63-7.72a8.5,8.5,0,0,1-.8-2.74,4.88,4.88,0,0,1,3.41-4.87l.3,1a3.84,3.84,0,0,0-2.71,3.83,7.25,7.25,0,0,0,.71,2.41c1.1,2.61,2.31,5.19,3.6,7.67Z"/>
  <path class="cls-3" d="M403.83,191.77a4.41,4.41,0,0,1-1.47-.25,4.51,4.51,0,0,1-2.76-5.74c1.66-5.22-.66-10.89-3.06-12.65l.6-.8c2.63,1.93,5.21,8.11,3.41,13.77a3.51,3.51,0,0,0,2.14,4.48,3.63,3.63,0,0,0,1.27.19h1.58v1h-1.71Z"/>
  <path class="cls-3" d="M417.19,175.57a16.08,16.08,0,0,0-3.17-1,12.32,12.32,0,0,0-5.13,0,16.12,16.12,0,0,0-3.15,1l-.4-.92a17.87,17.87,0,0,1,3.34-1.09,13.31,13.31,0,0,1,5.55,0,18.06,18.06,0,0,1,3.36,1.09Z"/>
  <g class="cls-11">
    <circle class="cls-3" cx="411.46" cy="175.74" r="2.58"/>
  </g>
  <path class="cls-3" d="M398.24,175.57a16.08,16.08,0,0,0-3.17-1,12.32,12.32,0,0,0-5.13,0,16.12,16.12,0,0,0-3.15,1l-.4-.92a17.87,17.87,0,0,1,3.34-1.09,13.31,13.31,0,0,1,5.55,0,17.82,17.82,0,0,1,3.36,1.09Z"/>
  <g class="cls-12">
    <circle class="cls-3" cx="392.51" cy="175.74" r="2.58"/>
  </g>
  <g>
    <path class="cls-3" d="M379.71,177.85c.8-3.26.43-6.72,1.28-10s3.65-6.47,7-6a9.2,9.2,0,0,1,2,.59c2.38.9,5.06,1.71,7.42.74a5.58,5.58,0,0,0,2.68-7.42c0-.11-.11-.21-.16-.31l.7,3a13.64,13.64,0,0,0,3,4.32,9.19,9.19,0,0,0,7.28,2.93,29.1,29.1,0,0,0,5.11-1.5c1.71-.49,3.71-.61,5.12.47s1.78,2.82,2.09,4.48c.49,2.66.84,5.49-.12,8-.61,1.61-1.71,3-2.44,4.55a11,11,0,0,0,5.19,14.59,10.69,10.69,0,0,0,2,.71l6.76-6-1.89-29.89-29.4-14.7-25.5,12.49-5.05,21.95L377.79,195Z"/>
    <path class="cls-3" d="M428,197.55l-.25-.07a11.13,11.13,0,0,1-2.05-.74,11.43,11.43,0,0,1-5.43-15.25,19,19,0,0,1,1.1-2,15.77,15.77,0,0,0,1.32-2.54c.95-2.47.55-5.29.1-7.73-.33-1.73-.69-3.25-1.9-4.17-1.43-1.1-3.55-.71-4.68-.39a29.4,29.4,0,0,1-5.15,1.51,9.67,9.67,0,0,1-7.75-3.08,13.75,13.75,0,0,1-2.43-3.14,6.06,6.06,0,0,1-3.21,3.66c-2.48,1-5.22.26-7.81-.72a9.31,9.31,0,0,0-1.91-.57c-3-.42-5.62,2.54-6.43,5.64a28.17,28.17,0,0,0-.65,5,28.88,28.88,0,0,1-.62,4.95l-2.15,19.27-5.83-16.33,0-.14,5.11-22.18,25.93-12.71,29.88,14.94,1.92,30.42Zm-9.55-34.21a4.9,4.9,0,0,1,3,.93c1.62,1.24,2,3.21,2.28,4.79.51,2.77.85,5.68-.14,8.27a17.59,17.59,0,0,1-1.41,2.69c-.37.62-.75,1.25-1.05,1.89a10.47,10.47,0,0,0,5,13.93,11.12,11.12,0,0,0,1.61.61l6.38-5.66-1.86-29.36L403.29,147l-25.07,12.27-5,21.58,4.27,12,1.69-15.06a27.65,27.65,0,0,0,.61-4.8,27.36,27.36,0,0,1,.68-5.21c.9-3.47,3.84-6.89,7.55-6.37a10.61,10.61,0,0,1,2.12.63c2.39.9,4.9,1.62,7,.74a5.06,5.06,0,0,0,2.89-4.33l-1.48-6.3,1.74,3.12.17.33a6.09,6.09,0,0,1,.57,2.78v0a12.82,12.82,0,0,0,2.86,4.07,8.69,8.69,0,0,0,6.9,2.79,29.19,29.19,0,0,0,5-1.46A9.4,9.4,0,0,1,418.4,163.34Z"/>
  </g>
  <path class="cls-3" d="M402.62,200.33a12.44,12.44,0,0,1-1.37-.07l.1-1a11.57,11.57,0,0,0,4-.25l.24,1A12.78,12.78,0,0,1,402.62,200.33Z"/>
  <g>
    <path class="cls-4" d="M425.87,174.15c1.18-.55,2-2.12,3.43-2.11,5.85,0,2.77,10.32-.87,11.54"/>
    <path class="cls-3" d="M428.59,184.05l-.32-.94c2.16-.73,4.21-5.25,3.73-8.21a2.5,2.5,0,0,0-2.7-2.36h0a3,3,0,0,0-1.82,1,5.4,5.4,0,0,1-1.39,1l-.42-.9a5.08,5.08,0,0,0,1.14-.87,3.93,3.93,0,0,1,2.5-1.29,3.48,3.48,0,0,1,3.69,3.2C433.55,178.21,431.21,183.18,428.59,184.05Z"/>
  </g>
  <g>
    <path class="cls-3" d="M429.55,191.21c-.41-2.41,1.63-2.76,1.22-5.16s-2.46-2.05-2.87-4.46,1.64-2.75,1.23-5.15-2.47-2.06-2.88-4.46,1.64-2.75,1.23-5.16l-2.26.31.66,6.54-.18,7.86,1.06,6.77Z"/>
    <path class="cls-3" d="M430.32,192.73l-4-4.2-1.08-6.92.17-8-.71-7,3.22-.44.08.48a3.83,3.83,0,0,1-.68,2.92,2.89,2.89,0,0,0,.72,4.17,3.77,3.77,0,0,1,1.61,2.53,3.85,3.85,0,0,1-.67,2.91,2.87,2.87,0,0,0,.71,4.17,3.85,3.85,0,0,1,1.6,2.53,3.81,3.81,0,0,1-.67,2.91,2.92,2.92,0,0,0-.55,2.25Zm-3.09-4.66,1.82,1.9a4.69,4.69,0,0,1,.68-1.6,2.91,2.91,0,0,0,.55-2.24,2.94,2.94,0,0,0-1.26-1.92,3.88,3.88,0,0,1-.93-5.46,2.89,2.89,0,0,0,.55-2.23,2.94,2.94,0,0,0-1.27-1.93,5.45,5.45,0,0,1-1-1v0l-.18,7.92Zm-1.46-20.51.24,2.38a7.33,7.33,0,0,1,.42-.79,3,3,0,0,0,.6-1.76Z"/>
  </g>
  <g>
    <path class="cls-13" d="M352.59,264.77c2-7.62,5.21-25.76,9.85-32.49a21.12,21.12,0,0,1,7.52-6.69l20.68-11"/>
    <path class="cls-3" d="M353.07,264.9l-1-.26c.45-1.72,1-3.95,1.54-6.54,2-8.79,4.74-20.82,8.38-26.1a21.67,21.67,0,0,1,7.7-6.85l20.68-11,.46.88-20.68,11a20.85,20.85,0,0,0-7.34,6.53c-3.53,5.13-6.24,17.05-8.22,25.76C354,260.92,353.53,263.16,353.07,264.9Z"/>
  </g>
  <g>
    <path class="cls-14" d="M357.54,264.15,336.1,215.68a45.2,45.2,0,0,1-3.9-18l-.52-58.44H356.9L359,189.39a26.25,26.25,0,0,0,19.77,24.15l23.05,8,23.08-8a26.25,26.25,0,0,0,19.73-24.14l2.08-50.18H472l-.51,58.44a45.42,45.42,0,0,1-3.91,18L446,264.15Z"/>
    <path class="cls-3" d="M471.45,139.7l-.5,57.93a44.9,44.9,0,0,1-3.86,17.83l-21.37,48.19H357.87l-21.32-48.18a44.72,44.72,0,0,1-3.85-17.83l-.51-57.93h24.23l2.06,49.71a26.77,26.77,0,0,0,20.1,24.6l22.89,7.92.33.12.33-.12L425,214a26.77,26.77,0,0,0,20.1-24.61l2.06-49.7h24.28m1-1H446.21l-2.1,50.66a25.6,25.6,0,0,1-19.39,23.69L401.8,221l-22.93-7.94a25.6,25.6,0,0,1-19.39-23.69l-2.1-50.66h-26.2l.52,58.94a46,46,0,0,0,3.94,18.23l21.58,48.77h89.15L468,215.87A46.17,46.17,0,0,0,472,197.64l.51-58.94Z"/>
  </g>
  <path class="cls-15" d="M603,195.63c0-7.43,4.15-15.18,2.5-21.79-1.83-7.29-9.26-12-12.71-17.8-3.9-6.53-5-15.34-10.49-19.2-6-4.25-14.26-2-21.43-2s-15.43-2.27-21.44,2c-5.45,3.86-6.59,12.67-10.49,19.2-3.45,5.78-10.88,10.51-12.7,17.79-1.66,6.62,2.5,14.37,2.5,21.8,0,4.26-6.33,13.25-5.81,23.09.39,7.36,6.58,14,10.1,20.93,3.24,6.42,5,15.52,12.88,19.12,5.83,2.65,14.24-.69,23.5-.69s17.87,3.43,23.89.86c8.2-3.49,10.39-12.57,14-18.85,4-7,10.42-13.43,11-20.88C609.13,209.3,603,200.1,603,195.63Z"/>
  <path class="cls-3" d="M577.83,260.39a58.16,58.16,0,0,1-8.18-.83,54.37,54.37,0,0,0-20.29-.05c-5.32.76-9.92,1.42-13.66-.29-6.2-2.83-8.75-9-11-14.51-.71-1.72-1.37-3.34-2.13-4.83-1.09-2.15-2.47-4.32-3.81-6.42-3-4.68-6.06-9.53-6.34-14.71-.33-6.19,2-11.95,3.81-16.57,1.07-2.69,2-5,2-6.55a42.55,42.55,0,0,0-1.47-9.39c-1-4.42-2-8.6-1-12.53,1.16-4.62,4.46-8.18,7.64-11.63a39.34,39.34,0,0,0,5.12-6.3,51.9,51.9,0,0,0,3.51-7.72c1.83-4.68,3.56-9.11,7.12-11.63,4.62-3.28,10.46-2.83,16.11-2.39,1.87.15,3.81.3,5.62.3s3.74-.15,5.61-.29c5.65-.44,11.49-.89,16.11,2.38,3.59,2.53,5.31,6.95,7.13,11.64a51.75,51.75,0,0,0,3.5,7.71,39.24,39.24,0,0,0,5.14,6.33c3.18,3.44,6.47,7,7.63,11.61,1,3.92,0,8.09-1,12.51a42.64,42.64,0,0,0-1.47,9.4c0,1.6.87,4,1.89,6.7,1.75,4.74,3.93,10.64,3.41,16.92-.42,5.34-3.79,10.21-7,14.92-1.39,2-2.82,4.08-4,6.17-.85,1.49-1.62,3.13-2.44,4.86-2.53,5.38-5.39,11.47-11.79,14.2A14.34,14.34,0,0,1,577.83,260.39Zm-18.42-2.81a71.92,71.92,0,0,1,10.38,1c5.23.77,9.74,1.43,13.31-.09,6.06-2.58,8.72-8.23,11.29-13.7.82-1.76,1.6-3.41,2.48-4.94,1.21-2.12,2.66-4.21,4.06-6.24,3.33-4.81,6.48-9.35,6.87-14.43.51-6.06-1.63-11.85-3.35-16.5-1.05-2.82-2-5.26-2-7A43.55,43.55,0,0,1,604,186c1-4.29,2-8.35,1-12-1.09-4.36-4.29-7.82-7.39-11.17a40.48,40.48,0,0,1-5.26-6.49,52.68,52.68,0,0,1-3.57-7.87c-1.77-4.54-3.43-8.83-6.78-11.18-4.32-3.06-10-2.63-15.46-2.21-1.88.15-3.83.3-5.68.3s-3.8-.15-5.69-.3c-5.48-.43-11.13-.87-15.46,2.21-3.32,2.35-5,6.64-6.77,11.18a53.19,53.19,0,0,1-3.58,7.87,40.69,40.69,0,0,1-5.24,6.46c-3.11,3.36-6.31,6.82-7.4,11.19-.93,3.7,0,7.76,1,12.06a43.37,43.37,0,0,1,1.49,9.62c0,1.72-.91,4-2.07,6.92-1.81,4.53-4.06,10.17-3.74,16.14.26,4.93,3.27,9.66,6.19,14.23,1.35,2.12,2.74,4.31,3.86,6.5.77,1.53,1.44,3.17,2.15,4.91,2.28,5.56,4.64,11.31,10.49,14,3.47,1.58,7.93.95,13.1.21A72,72,0,0,1,559.41,257.58Z"/>
  <g>
    <polyline class="cls-7" points="581.5 193.26 582.26 220.23 545.71 224.71 549.55 203.94"/>
    <polygon class="cls-3" points="545.1 225.29 549.06 203.85 550.04 204.03 546.33 224.13 581.75 219.79 581 193.27 582 193.25 582.77 220.67 545.1 225.29"/>
  </g>
  <g>
    <path class="cls-7" d="M577.61,191.09a10.93,10.93,0,0,1-.58-7.79c.82-2.6,2.6-4.83,3.27-7.47a15.36,15.36,0,0,0-.45-7.64,6.24,6.24,0,0,0-1.66-3.28c-1.33-1.15-3.34-1.1-5-.61a33.55,33.55,0,0,1-5,1.53A8.88,8.88,0,0,1,562,164a15.59,15.59,0,0,1-4.24-5,5.19,5.19,0,0,1-3.8,4.52,9.1,9.1,0,0,1-6.14-.6,2,2,0,0,1-.93-.64,2.26,2.26,0,0,1-.27-1c-.31-2.56-4.39-3.71-4.92-2.63a32.72,32.72,0,0,0-2.56,6,48.08,48.08,0,0,0-1.61,14.38v.73a53.28,53.28,0,0,0,5.25,20.87c1.93,4,4.58,7.81,8.52,9.76a20.8,20.8,0,0,0,9.08,1.7c4.43,0,9.08-.45,12.75-2.93,4.48-3,6.69-8.37,8.67-13.4A10.72,10.72,0,0,1,577.61,191.09Z"/>
    <path class="cls-3" d="M559.56,212.67a21.63,21.63,0,0,1-8.5-1.75c-3.49-1.73-6.36-5-8.77-10a53.56,53.56,0,0,1-5.3-21.07v-.75a48.41,48.41,0,0,1,1.63-14.51,33,33,0,0,1,2.6-6.11c.27-.55,1-.78,2-.61,1.69.29,3.6,1.58,3.83,3.42a1.73,1.73,0,0,0,.21.77,1.62,1.62,0,0,0,.65.41,8.81,8.81,0,0,0,5.86.59,4.71,4.71,0,0,0,3.42-4.09l.16-1.65.78,1.46a15,15,0,0,0,4.11,4.84,8.29,8.29,0,0,0,5.88,1.71,33.09,33.09,0,0,0,4.86-1.5c1.08-.32,3.7-.86,5.51.7a6.8,6.8,0,0,1,1.82,3.57,15.83,15.83,0,0,1,.45,7.83,19.23,19.23,0,0,1-1.76,4.13,21.42,21.42,0,0,0-1.52,3.39,10.43,10.43,0,0,0,.55,7.43h0A10.23,10.23,0,0,0,582,195.4l.36.22-.16.39c-1.83,4.66-4.11,10.46-8.85,13.64-4,2.67-9,3-13,3Zm-16.92-53.85c-.35,0-.51.08-.53.12a31.58,31.58,0,0,0-2.53,5.93A47.56,47.56,0,0,0,538,179.08v.75a52.44,52.44,0,0,0,5.2,20.65c2.31,4.8,5,7.92,8.29,9.53a20.35,20.35,0,0,0,8.84,1.65c3.87,0,8.76-.32,12.49-2.84,4.36-2.92,6.58-8.33,8.33-12.79a11.23,11.23,0,0,1-4-4.73,11.4,11.4,0,0,1-.61-8.14,22.45,22.45,0,0,1,1.6-3.56,18.78,18.78,0,0,0,1.67-3.89,14.88,14.88,0,0,0-.45-7.37,5.83,5.83,0,0,0-1.54-3.08c-1.4-1.21-3.61-.74-4.5-.48a34.53,34.53,0,0,1-5,1.54,9.44,9.44,0,0,1-6.64-1.9,15.91,15.91,0,0,1-3.72-4,5.72,5.72,0,0,1-3.89,3.65,9.59,9.59,0,0,1-6.48-.63,2.49,2.49,0,0,1-1.11-.77,2.81,2.81,0,0,1-.38-1.24c-.17-1.41-1.85-2.33-3-2.52A2.55,2.55,0,0,0,542.64,158.82Z"/>
  </g>
  <g>
    <path class="cls-16" d="M538.32,189.08v-.17l-.06-.23Z"/>
    <polygon class="cls-3" points="537.83 189.16 537.77 188.75 538.74 188.55 538.82 189.08 537.83 189.16"/>
  </g>
  <path class="cls-17" d="M557.49,158.51c.06.15.13.29.19.43a4.57,4.57,0,0,0,.05-.52h0Z"/>
  <path class="cls-3" d="M560.88,191.77a4.41,4.41,0,0,1-1.47-.25,4.51,4.51,0,0,1-2.76-5.74c1.65-5.22-.67-10.89-3.07-12.65l.6-.8c2.63,1.93,5.21,8.11,3.42,13.77a3.48,3.48,0,0,0,.14,2.69,3.52,3.52,0,0,0,2,1.79,3.39,3.39,0,0,0,1.26.19h1.58v1h-1.7Z"/>
  <path class="cls-3" d="M559.66,200.33a12.7,12.7,0,0,1-1.37-.07l.1-1a11.63,11.63,0,0,0,4-.25l.24,1A12.87,12.87,0,0,1,559.66,200.33Z"/>
  <g>
    <path class="cls-7" d="M585.9,183.4a3.07,3.07,0,0,1-1-1.81c-.41-2.4,1.64-2.75,1.23-5.15-.3-1.76-1.48-2-2.25-3,.74-.64,1.44-1.4,2.42-1.4C592,172.06,589.34,181.56,585.9,183.4Z"/>
    <path class="cls-3" d="M585.83,184l-.26-.22a3.59,3.59,0,0,1-1.16-2.11,3.81,3.81,0,0,1,.68-2.91,3,3,0,0,0,.55-2.24,2.82,2.82,0,0,0-1.23-1.88,5.15,5.15,0,0,1-.93-.89l-.28-.38.64-.56a3.77,3.77,0,0,1,2.46-1.27,3.49,3.49,0,0,1,3.65,2.79c.78,3.15-1.21,8.12-3.81,9.51Zm-1.24-10.52c.14.14.3.26.45.4a3.69,3.69,0,0,1,1.58,2.48,3.81,3.81,0,0,1-.68,2.91,3,3,0,0,0-.55,2.24,2.62,2.62,0,0,0,.59,1.26c2-1.41,3.63-5.65,3-8.19a2.5,2.5,0,0,0-2.68-2A2.79,2.79,0,0,0,584.59,173.48Z"/>
  </g>
  <g>
    <path class="cls-13" d="M586.33,214.64l20.68,11a21.39,21.39,0,0,1,7.52,6.69c4.28,6.21,7.45,22.54,9.46,31,.17.7-1.07.25-.92.84h-.87l-112.57.7c2-7.62,5.21-25.76,9.85-32.49a21.39,21.39,0,0,1,7.52-6.69l20.68-11"/>
    <path class="cls-3" d="M509,265.37l.17-.63c.45-1.72,1-3.95,1.54-6.54,2-8.78,4.74-20.82,8.38-26.1a21.85,21.85,0,0,1,7.7-6.85l20.68-11,.46.88-20.68,11a20.93,20.93,0,0,0-7.34,6.53c-3.53,5.13-6.24,17.06-8.22,25.76-.52,2.3-1,4.31-1.39,5.95l112.4-.7a1,1,0,0,1,.74-.36h.05c-.3-1.28-.63-2.72-1-4.27-2-9-4.81-21.24-8.37-26.42a20.85,20.85,0,0,0-7.34-6.53l-20.68-11,.46-.88,20.68,11a21.76,21.76,0,0,1,7.7,6.85c3.68,5.33,6.48,17.71,8.52,26.76.37,1.61.71,3.1,1,4.4a.83.83,0,0,1-.1.67,1.12,1.12,0,0,1-.77.41l.1.38H622.2Z"/>
  </g>
  <g>
    <path class="cls-7" d="M556.48,250.67c-2.3.08-4.83-.28-7.13-.2-2.08.08-4.29.19-6,1.37a11,11,0,0,0-2.89,3.46c-1.9,3.11-3.73,6.27-5.46,9.47h21.5Z"/>
    <path class="cls-3" d="M557,265.27H534.16l.4-.74c1.67-3.09,3.52-6.29,5.47-9.49a11.28,11.28,0,0,1,3-3.59c1.89-1.31,4.33-1.4,6.29-1.48,1.18,0,2.42,0,3.61.1s2.4.14,3.52.1l.52,0Zm-21.16-1H556l0-13.09c-1,0-2.07-.05-3.09-.11-1.18-.07-2.4-.14-3.52-.1-1.93.07-4.11.16-5.74,1.28a10.33,10.33,0,0,0-2.73,3.28C539.09,258.49,537.4,261.42,535.84,264.27Z"/>
  </g>
  <g>
    <path class="cls-13" d="M621.58,264.77l-65.1-.13V240.48h52.39a18,18,0,0,1,17.6,14.22l.92,4.28A5.8,5.8,0,0,1,621.58,264.77Z"/>
    <path class="cls-3" d="M621.59,265.27h0l-65.6-.13V240h52.89A18.61,18.61,0,0,1,627,254.6l.93,4.38a6.3,6.3,0,0,1-6.3,6.29Zm0-1h0a5.31,5.31,0,0,0,5.3-5.24l-.91-4.22A17.58,17.58,0,0,0,608.87,241H557v23.16Z"/>
  </g>
  <path class="cls-3" d="M132.4,173.49c0-1.22,1.45-2.51,1.33-3.7s-1.78-2.2-2-3.39.93-2.74.58-3.89-2.18-1.81-2.64-2.92.37-2.87-.2-3.93-2.49-1.34-3.16-2.35-.2-2.88-1-3.82-2.7-.83-3.56-1.68-.74-2.79-1.68-3.56-2.81-.29-3.82-1-1.27-2.59-2.35-3.17-2.8.27-3.93-.2-1.75-2.28-2.92-2.64-2.69.82-3.89.58-2.17-1.9-3.38-2-2.49,1.33-3.71,1.33-2.52-1.44-3.71-1.33-2.2,1.78-3.38,2-2.74-.93-3.9-.58-1.8,2.18-2.92,2.64-2.87-.37-3.93.2-1.34,2.49-2.35,3.17-2.88.19-3.82,1-.82,2.7-1.68,3.56-2.79.75-3.56,1.68-.29,2.81-1,3.82-2.59,1.27-3.16,2.35.26,2.8-.2,3.93-2.29,1.75-2.65,2.92.82,2.7.58,3.89-1.9,2.17-2,3.39,1.33,2.48,1.33,3.7c0,1-1.65,2.23-1.8,3.84-.11,1.17,1.27,2.6,1.2,4-.06,1.24-1.6,2.54-1.55,3.9s1.63,2.46,1.82,3.78-1,2.87-.67,4.15,2.21,1.94,2.78,3.14-.09,3,.7,4.14,2.72,1,3.71,2,1,2.85,2.12,3.61,2.91,0,4.15.64,1.75,2.43,3.06,2.88,2.85-.67,4.19-.35,2.19,2,3.55,2.24,2.72-1.13,4.08-1,2.45,1.71,3.81,1.77,2.61-1.42,4-1.42,2.75,1.48,4,1.42,2.62-1.65,3.9-1.77,2.91,1.2,4.17,1,2.42-1.94,3.67-2.23,3.06.78,4.28.39,2-2.32,3.21-2.84,3.17.12,4.25-.55,1.39-2.74,2.36-3.57,3.06-.83,3.87-1.83.37-3,1-4.16,2.57-1.82,3-3.06-.66-3-.41-4.26,1.91-2.49,2-3.79-1.38-2.78-1.4-4c0-1.45,1.4-2.87,1.31-4.08C134,175.8,132.4,174.49,132.4,173.49Z"/>
  <path class="cls-3" d="M91,212.73h-.1a4.41,4.41,0,0,1-2.21-1A3.75,3.75,0,0,0,87,211a3.79,3.79,0,0,0-1.72.47,4.21,4.21,0,0,1-2.4.52,4.36,4.36,0,0,1-2.07-1.25,3.86,3.86,0,0,0-1.51-1,3.88,3.88,0,0,0-1.77.19,4.14,4.14,0,0,1-2.46.14,4.24,4.24,0,0,1-1.88-1.65A4.17,4.17,0,0,0,72,207.13a4,4,0,0,0-1.79-.22,3.93,3.93,0,0,1-2.41-.45,4.13,4.13,0,0,1-1.36-2.11,4.39,4.39,0,0,0-.84-1.56,4,4,0,0,0-1.62-.8,4,4,0,0,1-2.13-1.26,4,4,0,0,1-.53-2.5,4.5,4.5,0,0,0-.22-1.72,4.29,4.29,0,0,0-1.21-1.25,4,4,0,0,1-1.6-2,4.37,4.37,0,0,1,.32-2.43,4.38,4.38,0,0,0,.34-1.77,4.14,4.14,0,0,0-.82-1.56,4.41,4.41,0,0,1-1-2.27,4.56,4.56,0,0,1,.87-2.39,3.85,3.85,0,0,0,.68-1.55,4.4,4.4,0,0,0-.59-1.9,4.4,4.4,0,0,1-.61-2.13,5.64,5.64,0,0,1,1.15-2.54,3.11,3.11,0,0,0,.65-1.25,3.57,3.57,0,0,0-.6-1.54,4,4,0,0,1-.73-2.2A4,4,0,0,1,59,167.68a2.25,2.25,0,0,0,.59-3,2.9,2.9,0,0,1,1.24-4.1A3.66,3.66,0,0,0,62,159.4a3.74,3.74,0,0,0,0-1.65,4,4,0,0,1,.19-2.32A3.86,3.86,0,0,1,64.05,154a3.84,3.84,0,0,0,1.36-.95,3.45,3.45,0,0,0,.38-1.64,4,4,0,0,1,.64-2.21,4,4,0,0,1,2.07-1,3.87,3.87,0,0,0,1.53-.66,3.78,3.78,0,0,0,.66-1.51,4.07,4.07,0,0,1,1-2.08,4,4,0,0,1,2.28-.68,3.53,3.53,0,0,0,1.59-.35,4,4,0,0,0,1-1.37,2.9,2.9,0,0,1,3.75-2,3.79,3.79,0,0,0,1.66,0,3.65,3.65,0,0,0,1.19-1.15,3.93,3.93,0,0,1,1.78-1.51,4,4,0,0,1,2.33.28,3.92,3.92,0,0,0,1.62.29,3.63,3.63,0,0,0,1.4-.89,3.93,3.93,0,0,1,2-1.12,4,4,0,0,1,2.2.72,3.76,3.76,0,0,0,1.56.61,3.64,3.64,0,0,0,1.56-.61,4.14,4.14,0,0,1,2.19-.72,3.92,3.92,0,0,1,2.05,1.13,3.69,3.69,0,0,0,1.39.88,3.69,3.69,0,0,0,1.62-.29,3.91,3.91,0,0,1,2.32-.28,4,4,0,0,1,1.77,1.51,3.66,3.66,0,0,0,1.19,1.15,3.74,3.74,0,0,0,1.65,0,3.91,3.91,0,0,1,2.33.19,4,4,0,0,1,1.45,1.84,3.84,3.84,0,0,0,1,1.36,3.45,3.45,0,0,0,1.64.38,4,4,0,0,1,2.21.64,3.94,3.94,0,0,1,1,2.08,2.26,2.26,0,0,0,2.17,2.17,3,3,0,0,1,2.76,3.33,3.52,3.52,0,0,0,.36,1.59,3.77,3.77,0,0,0,1.36,1,4,4,0,0,1,1.82,1.43,4,4,0,0,1,.19,2.33,2.26,2.26,0,0,0,1.18,2.84,4.06,4.06,0,0,1,1.51,1.77,4,4,0,0,1-.27,2.32,3.81,3.81,0,0,0-.3,1.63,3.59,3.59,0,0,0,.89,1.41,4,4,0,0,1,1.12,2,3.9,3.9,0,0,1-.72,2.2,3.72,3.72,0,0,0-.61,1.55,3.23,3.23,0,0,0,.6,1.26,5.68,5.68,0,0,1,1.08,2.71,4.51,4.51,0,0,1-.66,2.17,4.75,4.75,0,0,0-.65,1.93,4.37,4.37,0,0,0,.63,1.63,4.75,4.75,0,0,1,.77,2.4,4.69,4.69,0,0,1-1.12,2.29,4.69,4.69,0,0,0-.89,1.57,4.51,4.51,0,0,0,.23,1.76,4.52,4.52,0,0,1,.16,2.56,4.44,4.44,0,0,1-1.73,1.9,4.71,4.71,0,0,0-1.3,1.24,4.94,4.94,0,0,0-.36,1.76,4.49,4.49,0,0,1-.69,2.47,4.56,4.56,0,0,1-2.31,1.21A4.68,4.68,0,0,0,125,203a4.84,4.84,0,0,0-1,1.53,3.28,3.28,0,0,1-4,2.49,4.75,4.75,0,0,0-1.83.18,4.22,4.22,0,0,0-1.36,1.27,4.63,4.63,0,0,1-1.9,1.59,4.83,4.83,0,0,1-2.48-.17,4.44,4.44,0,0,0-1.84-.21,4.51,4.51,0,0,0-1.57,1A4.83,4.83,0,0,1,107,212a4.65,4.65,0,0,1-2.4-.52,4.38,4.38,0,0,0-1.8-.47,4.54,4.54,0,0,0-1.71.81,4.94,4.94,0,0,1-2.22,1A4.28,4.28,0,0,1,96.7,212a4.26,4.26,0,0,0-1.83-.68,4,4,0,0,0-1.74.65A4.62,4.62,0,0,1,91,212.73ZM86.87,210h.24a4.65,4.65,0,0,1,2.1,1,3.54,3.54,0,0,0,1.68.8,4,4,0,0,0,1.75-.64,4.78,4.78,0,0,1,2.23-.78,5,5,0,0,1,2.3.8,4,4,0,0,0,1.68.62,4.24,4.24,0,0,0,1.72-.8,3.63,3.63,0,0,1,4.42-.43,4.15,4.15,0,0,0,1.87.47,4.32,4.32,0,0,0,1.66-1,5.3,5.3,0,0,1,2-1.21,5.21,5.21,0,0,1,2.29.22,4.16,4.16,0,0,0,1.95.18,3.85,3.85,0,0,0,1.43-1.27,5.08,5.08,0,0,1,1.73-1.55,5.36,5.36,0,0,1,2.24-.26,4.12,4.12,0,0,0,2-.25,4.11,4.11,0,0,0,1.1-1.66,5.4,5.4,0,0,1,1.19-1.87,5.56,5.56,0,0,1,2-.89,3.92,3.92,0,0,0,1.82-.87,4,4,0,0,0,.48-1.94,5.45,5.45,0,0,1,.47-2.15,5.34,5.34,0,0,1,1.58-1.56,3.72,3.72,0,0,0,1.39-1.42,4,4,0,0,0-.19-2,5.15,5.15,0,0,1-.24-2.21,5.38,5.38,0,0,1,1.06-2,2.49,2.49,0,0,0,.27-3.64,4.93,4.93,0,0,1-.74-2.08,5.55,5.55,0,0,1,.75-2.38,3.69,3.69,0,0,0,.56-1.67,4.88,4.88,0,0,0-.93-2.24,3.75,3.75,0,0,1-.75-1.79,4.29,4.29,0,0,1,.74-2,3.16,3.16,0,0,0,.59-1.61,3.28,3.28,0,0,0-.89-1.48,4.28,4.28,0,0,1-1.1-1.87,4.47,4.47,0,0,1,.32-2.11,3.23,3.23,0,0,0,.27-1.72,3.34,3.34,0,0,0-1.18-1.29,4.45,4.45,0,0,1-1.44-1.59,4.39,4.39,0,0,1-.11-2.14,3.29,3.29,0,0,0-.07-1.74,3.16,3.16,0,0,0-1.4-1,3.19,3.19,0,0,1-2.26-3.35,3.23,3.23,0,0,0-.44-1.72,3.41,3.41,0,0,0-1.6-.74,4.42,4.42,0,0,1-1.93-.9,4.3,4.3,0,0,1-.92-1.95,3.15,3.15,0,0,0-.73-1.58,3.19,3.19,0,0,0-1.66-.42,4.36,4.36,0,0,1-2.13-.56,4.66,4.66,0,0,1-1.26-1.72,3.24,3.24,0,0,0-1-1.42,3.15,3.15,0,0,0-1.73-.07,4.32,4.32,0,0,1-2.15-.11,4.23,4.23,0,0,1-1.59-1.45,3.3,3.3,0,0,0-1.29-1.17,3.19,3.19,0,0,0-1.71.27,3.19,3.19,0,0,1-4-.78,3.16,3.16,0,0,0-1.48-.89,3.31,3.31,0,0,0-1.63.6,3.21,3.21,0,0,1-4.09,0,3.26,3.26,0,0,0-1.61-.59,3.28,3.28,0,0,0-1.48.89,4.3,4.3,0,0,1-1.86,1.1A4.45,4.45,0,0,1,87,138a3.4,3.4,0,0,0-1.75-.27,3.3,3.3,0,0,0-1.28,1.18,4.37,4.37,0,0,1-1.59,1.44,4.43,4.43,0,0,1-2.15.11,3.24,3.24,0,0,0-1.73.07,3.31,3.31,0,0,0-1,1.4,4.37,4.37,0,0,1-1.28,1.74,4.24,4.24,0,0,1-2.06.53,3.16,3.16,0,0,0-1.71.44,3.32,3.32,0,0,0-.74,1.59,3.19,3.19,0,0,1-2.87,2.86,3.24,3.24,0,0,0-1.57.73,3.19,3.19,0,0,0-.42,1.66,4.36,4.36,0,0,1-.56,2.13,4.45,4.45,0,0,1-1.72,1.25,3.36,3.36,0,0,0-1.41,1,3.33,3.33,0,0,0-.07,1.75,4.4,4.4,0,0,1-.11,2.14,4.26,4.26,0,0,1-1.45,1.6,3.17,3.17,0,0,0-1.18,1.28,3.22,3.22,0,0,0,.27,1.72,3.16,3.16,0,0,1-.77,3.94,2,2,0,0,0-.3,3.14,4.31,4.31,0,0,1,.73,2,3.5,3.5,0,0,1-.83,1.82,4.68,4.68,0,0,0-1,2.07,3.71,3.71,0,0,0,.51,1.6,5.17,5.17,0,0,1,.69,2.37,4.55,4.55,0,0,1-.82,2,3.81,3.81,0,0,0-.73,1.83,3.67,3.67,0,0,0,.83,1.73,4.88,4.88,0,0,1,1,2,5.08,5.08,0,0,1-.38,2.22A3.71,3.71,0,0,0,59.2,193a3.36,3.36,0,0,0,1.27,1.44A4.93,4.93,0,0,1,62,196.09a5.07,5.07,0,0,1,.32,2.13,3.44,3.44,0,0,0,.33,1.93,3.38,3.38,0,0,0,1.65.89,4.9,4.9,0,0,1,2,1.05,5.56,5.56,0,0,1,1.06,1.9,3.47,3.47,0,0,0,1,1.65,3.26,3.26,0,0,0,1.83.27,4.64,4.64,0,0,1,2.27.34A5,5,0,0,1,74,207.79a3.52,3.52,0,0,0,1.4,1.31,3.61,3.61,0,0,0,1.89-.16,4.7,4.7,0,0,1,2.26-.21A4.8,4.8,0,0,1,81.49,210a3.56,3.56,0,0,0,1.58,1,3.46,3.46,0,0,0,1.82-.46A5.16,5.16,0,0,1,86.87,210Z"/>
  <g>
    <polyline class="cls-18" points="117.12 193.26 117.88 220.23 81.34 224.71 85.17 203.94"/>
    <polygon class="cls-3" points="80.72 225.29 84.68 203.85 85.66 204.03 81.95 224.13 117.37 219.79 116.62 193.27 117.62 193.25 118.39 220.67 80.72 225.29"/>
  </g>
  <g>
    <path class="cls-18" d="M113.18,191.11a11.18,11.18,0,0,1,0-9.43,18.31,18.31,0,0,1,1.08-2,15.93,15.93,0,0,0,1.35-2.59c1-2.59.57-5.47.11-8-.29-1.6-.71-3.39-2-4.4-1.57-1.19-3.81-.79-5-.44-.57.17-1.15.37-1.71.58a15,15,0,0,1-3.42.92,9.23,9.23,0,0,1-7.38-3,14.05,14.05,0,0,1-2.87-3.93,5.81,5.81,0,0,1-3.24,4.42c-2.34,1-5,.21-7.51-.74h-.08a10,10,0,0,0-1.86-.56c-3.18-.47-6,2.62-6.83,5.88a27,27,0,0,0-.66,5.06c-.08,1.12-.16,2.26-.33,3.39L74,188.82a71.58,71.58,0,0,0,3.16,8.61c5.21,12,8.81,14.52,19.4,14.52,11.14,0,15.4-2.94,20.4-15.09.11-.26.28-.65.5-1.14A11.18,11.18,0,0,1,113.18,191.11Z"/>
    <path class="cls-3" d="M96.53,212.45c-10.91,0-14.63-2.77-19.86-14.82A71.94,71.94,0,0,1,73.49,189l-1.16-12.7v-.06c.16-1.1.24-2.22.32-3.3a27.92,27.92,0,0,1,.67-5.19c.89-3.49,3.89-6.78,7.39-6.26a10.57,10.57,0,0,1,1.89.55l.16,0c2.28.87,4.9,1.71,7.13.75a5.25,5.25,0,0,0,2.94-4l.23-1.6.72,1.45a13.6,13.6,0,0,0,2.77,3.79,8.72,8.72,0,0,0,7,2.86,14.73,14.73,0,0,0,3.26-.88c.58-.22,1.18-.43,1.76-.6,1.28-.38,3.69-.81,5.44.52,1.44,1.13,1.89,3,2.19,4.71.5,2.72.89,5.61-.13,8.27a17,17,0,0,1-1.4,2.68,19,19,0,0,0-1.05,1.94,10.32,10.32,0,0,0,4.06,13.4l.38.23-.18.41c-.22.48-.39.87-.5,1.12C112.36,209.28,108.07,212.45,96.53,212.45Zm-23.2-36.17,1.14,12.49a71.43,71.43,0,0,0,3.12,8.46c5.08,11.7,8.44,14.22,18.94,14.22,11.14,0,15-2.9,19.94-14.78.08-.19.19-.45.33-.76a11.61,11.61,0,0,1-4.07-4.58h0a11.62,11.62,0,0,1,0-9.85,16.84,16.84,0,0,1,1.11-2.05,16.29,16.29,0,0,0,1.31-2.52c.93-2.41.55-5.14.08-7.72-.27-1.51-.66-3.19-1.82-4.1-1.45-1.1-3.66-.61-4.55-.35-.56.17-1.13.36-1.67.57a15.33,15.33,0,0,1-3.53.94,9.68,9.68,0,0,1-7.82-3.15,14.73,14.73,0,0,1-2.33-2.92,6.26,6.26,0,0,1-3.19,3.52c-2.57,1.1-5.38.23-7.82-.69l-.18,0a9.76,9.76,0,0,0-1.77-.53c-2.86-.43-5.49,2.53-6.25,5.51a27.49,27.49,0,0,0-.64,5C73.58,174.05,73.5,175.17,73.33,176.28Z"/>
  </g>
  <g>
    <path class="cls-18" d="M73.94,189.08v-.17a2,2,0,0,1-.07-.23Z"/>
    <path class="cls-3" d="M73.45,189.17l-.07-.4,1-.21a1.21,1.21,0,0,0,0,.18l0,.17v.17Z"/>
  </g>
  <g>
    <path class="cls-18" d="M93.11,158.51c.06.15.13.29.19.43a4.6,4.6,0,0,0,.06-.52h0Z"/>
    <path class="cls-3" d="M93.51,160.7,92.77,159c0-.09-.09-.18-.12-.27l-.2-.49,1.46-.52,0,.76a3.7,3.7,0,0,1-.07.57Z"/>
  </g>
  <path class="cls-3" d="M96.5,191.77a4.41,4.41,0,0,1-1.47-.25,4.51,4.51,0,0,1-2.76-5.74c1.65-5.22-.67-10.89-3.07-12.65l.6-.8c2.63,1.93,5.21,8.11,3.42,13.77a3.48,3.48,0,0,0,.14,2.69,3.52,3.52,0,0,0,2,1.79,3.39,3.39,0,0,0,1.26.19H98.2v1H96.5Z"/>
  <g>
    <rect class="cls-10" x="476.36" y="185.44" width="91.25" height="60.79"/>
    <path class="cls-3" d="M568.11,246.73H475.86V184.94h92.25Zm-91.25-1h90.25V185.94H476.86Z"/>
  </g>
  <g>
    <rect class="cls-10" x="515.7" y="226.55" width="12.56" height="36.17"/>
    <path class="cls-3" d="M528.76,263.22H515.2V226.05h13.56Zm-12.56-1h11.56V227.05H516.2Z"/>
  </g>
  <g>
    <path class="cls-10" d="M496.82,259.51h50.33a3.76,3.76,0,0,1,3.76,3.76h0v1.5H493.05v-1.5a3.76,3.76,0,0,1,3.76-3.76Z"/>
    <path class="cls-3" d="M551.41,265.27H492.55v-2a4.26,4.26,0,0,1,4.26-4.26h50.34a4.26,4.26,0,0,1,4.26,4.26Zm-57.86-1h56.86v-1a3.26,3.26,0,0,0-3.26-3.26H496.81a3.26,3.26,0,0,0-3.26,3.26Z"/>
  </g>
  <g>
    <circle class="cls-10" cx="521.98" cy="222.65" r="13.17" transform="translate(116.53 619.69) rotate(-67.5)"/>
    <path class="cls-3" d="M522,236.32a13.67,13.67,0,1,1,13.67-13.67A13.68,13.68,0,0,1,522,236.32ZM522,210a12.67,12.67,0,1,0,12.67,12.67A12.68,12.68,0,0,0,522,210Z"/>
  </g>
  <path class="cls-3" d="M109.85,175.57a16.21,16.21,0,0,0-3.16-1,12.32,12.32,0,0,0-5.13,0,16.21,16.21,0,0,0-3.16,1l-.4-.92a17.73,17.73,0,0,1,3.35-1.09,13.26,13.26,0,0,1,5.54,0,17.59,17.59,0,0,1,3.36,1.09Z"/>
  <g class="cls-19">
    <circle class="cls-3" cx="104.12" cy="175.74" r="2.58"/>
  </g>
  <path class="cls-3" d="M90.9,175.57a16.08,16.08,0,0,0-3.17-1,12.27,12.27,0,0,0-5.12,0,16.21,16.21,0,0,0-3.16,1l-.4-.92a17,17,0,0,1,3.35-1.09,13.26,13.26,0,0,1,5.54,0,16.92,16.92,0,0,1,3.36,1.09Z"/>
  <g class="cls-20">
    <circle class="cls-3" cx="85.17" cy="175.74" r="2.58"/>
  </g>
  <g>
    <path class="cls-3" d="M72.37,177.85c.8-3.26.44-6.72,1.29-10s3.65-6.47,7-6a9.79,9.79,0,0,1,2,.59c2.38.9,5.06,1.71,7.41.74a5.58,5.58,0,0,0,2.68-7.42c0-.11-.11-.21-.16-.31l.7,3a13.64,13.64,0,0,0,3,4.32,9.19,9.19,0,0,0,7.28,2.93,29.1,29.1,0,0,0,5.11-1.5c1.7-.49,3.7-.61,5.11.47s1.79,2.82,2.09,4.48c.49,2.66.84,5.49-.12,8-.61,1.61-1.7,3-2.44,4.55a11,11,0,0,0,5.2,14.59,10.43,10.43,0,0,0,2,.71l6.76-6-1.88-29.89L96,146.45,70.5,158.94l-5,21.95,5,14.08Z"/>
    <path class="cls-3" d="M120.61,197.55l-.26-.07a11.68,11.68,0,0,1-2-.74,11.46,11.46,0,0,1-5.43-15.25c.32-.68.71-1.33,1.08-2a15.39,15.39,0,0,0,1.34-2.57c.95-2.47.55-5.29.1-7.73-.31-1.73-.67-3.23-1.9-4.17-1.43-1.1-3.54-.71-4.67-.39a29.4,29.4,0,0,1-5.15,1.51,9.65,9.65,0,0,1-7.75-3.08A14.09,14.09,0,0,1,93.49,160a6,6,0,0,1-3.21,3.67c-2.47,1-5.21.26-7.8-.72a9.31,9.31,0,0,0-1.91-.57c-3-.42-5.62,2.54-6.43,5.64a27.27,27.27,0,0,0-.65,5,28.92,28.92,0,0,1-.63,4.94l-2.1,19.26L65,180.92l5.09-22.32L96,145.89l29.84,14.9,1.91,30.42ZM111,163.35a5,5,0,0,1,3.06.92c1.52,1.16,2,2.93,2.28,4.79.51,2.77.85,5.68-.14,8.27a17.1,17.1,0,0,1-1.42,2.72c-.36.61-.74,1.23-1,1.87a10.46,10.46,0,0,0,5,13.92,11.24,11.24,0,0,0,1.62.61l6.38-5.66-1.85-29.36L96,147,70.93,159.28,66,180.86l4.22,11.88,1.64-15a27.65,27.65,0,0,0,.61-4.8,28.2,28.2,0,0,1,.69-5.21c.9-3.47,3.85-6.88,7.55-6.37a10.61,10.61,0,0,1,2.12.63c2.39.9,4.9,1.62,7,.74a5.06,5.06,0,0,0,2.89-4.34L91.28,152,93,155.21l.17.33a6.09,6.09,0,0,1,.57,2.78v0a13.14,13.14,0,0,0,2.86,4.07,8.63,8.63,0,0,0,6.9,2.79,29.19,29.19,0,0,0,5-1.46A8.82,8.82,0,0,1,111,163.35Z"/>
  </g>
  <path class="cls-3" d="M95.32,200.33a12.44,12.44,0,0,1-1.37-.07l.1-1a11.64,11.64,0,0,0,4-.25l.22,1A12.63,12.63,0,0,1,95.32,200.33Z"/>
  <g>
    <path class="cls-4" d="M118.53,174.15c1.18-.55,2-2.12,3.44-2.11,5.85,0,2.76,10.32-.87,11.54"/>
    <path class="cls-3" d="M121.26,184.05l-.32-.94c2.16-.73,4.21-5.26,3.73-8.21a2.5,2.5,0,0,0-2.7-2.36,2.84,2.84,0,0,0-1.84,1,5.79,5.79,0,0,1-1.39,1l-.42-.9a5,5,0,0,0,1.14-.86,3.78,3.78,0,0,1,2.5-1.3,3.45,3.45,0,0,1,3.69,3.19C126.22,178.21,123.88,183.17,121.26,184.05Z"/>
  </g>
  <g>
    <path class="cls-3" d="M122.21,191.21c-.41-2.41,1.64-2.76,1.23-5.16s-2.46-2.05-2.88-4.46,1.64-2.75,1.23-5.15-2.46-2.06-2.87-4.46,1.63-2.75,1.22-5.16l-2.26.31.66,6.54-.17,7.86,1,6.77Z"/>
    <path class="cls-3" d="M123,192.71l-4.07-4.18-1-6.93.16-7.94-.71-7,3.22-.44.08.48a3.83,3.83,0,0,1-.67,2.92,2.89,2.89,0,0,0,.72,4.17,3.86,3.86,0,0,1,.92,5.43,2.88,2.88,0,0,0-.55,2.24,3,3,0,0,0,1.27,1.94,3.8,3.8,0,0,1,1.61,2.53,3.85,3.85,0,0,1-.67,2.91,2.94,2.94,0,0,0-.56,2.25Zm-3.13-4.64,1.87,1.91a4.56,4.56,0,0,1,.69-1.61,2.87,2.87,0,0,0-.72-4.16,3.9,3.9,0,0,1-1.61-2.53,3.81,3.81,0,0,1,.68-2.93,2.88,2.88,0,0,0-.72-4.16,5.32,5.32,0,0,1-1-1v0l-.17,7.92Zm-1.41-20.51.24,2.39a7.53,7.53,0,0,1,.43-.8,3.07,3.07,0,0,0,.59-1.76Z"/>
  </g>
  <g>
    <path class="cls-13" d="M83.3,214.64l-20.68,11a21.39,21.39,0,0,0-7.52,6.69c-4.64,6.73-7.85,24.87-9.85,32.49h114a2.43,2.43,0,0,0,.33-1.54c-2-8.41-5.18-24.74-9.46-31a21.39,21.39,0,0,0-7.52-6.69l-24.75-11Z"/>
    <path class="cls-3" d="M159.53,265.32H44.6l.17-.63c.45-1.72,1-3.95,1.54-6.54,2-8.79,4.74-20.82,8.38-26.1a21.76,21.76,0,0,1,7.7-6.85l20.78-11.06h34.88l24.75,11a21.85,21.85,0,0,1,7.73,6.87c3.68,5.37,6.48,17.75,8.53,26.79.36,1.6.7,3.08,1,4.38a3,3,0,0,1-.39,1.91Zm-113.63-1h113a1.94,1.94,0,0,0,.14-1c-.29-1.24-.63-2.72-1-4.32-2-9-4.81-21.24-8.38-26.46a20.85,20.85,0,0,0-7.34-6.53l-24.63-10.94-34.32,0L62.85,226.08a20.85,20.85,0,0,0-7.34,6.53c-3.53,5.13-6.24,17.06-8.22,25.76C46.77,260.67,46.31,262.68,45.9,264.32Z"/>
  </g>
  <g>
    <rect class="cls-10" x="15.94" y="185.3" width="91.25" height="60.79"/>
    <path class="cls-3" d="M107.69,246.59H15.44V184.8h92.25Zm-91.25-1h90.25V185.8H16.44Z"/>
  </g>
  <g>
    <rect class="cls-10" x="54.74" y="228.47" width="13.65" height="33.44"/>
    <path class="cls-3" d="M68.89,262.41H54.24V228H68.89Zm-13.65-1H67.89V229H55.24Z"/>
  </g>
  <g>
    <path class="cls-13" d="M108.68,257.05l-5.62-1.64,6.11-21.35a2.93,2.93,0,0,1,3.63-2h0a2.93,2.93,0,0,1,2,3.63h0Z"/>
    <path class="cls-3" d="M109,257.67l-6.58-1.92,6.25-21.83a3.43,3.43,0,0,1,4.25-2.34,3.43,3.43,0,0,1,2.36,4.18v.05l0,.1Zm-5.34-2.6,4.66,1.36,6-20.88a2.43,2.43,0,0,0-4.67-1.35Z"/>
  </g>
  <path class="cls-3" d="M116.65,239.69l-1-.28.82-2.78a.71.71,0,0,0-.48-.88.69.69,0,0,0-.87.47l-1-.26a1.69,1.69,0,0,1,2.08-1.18,1.73,1.73,0,0,1,1.19,2.13Z"/>
  <rect class="cls-3" x="111.28" y="232.64" width="1" height="5.85" transform="translate(-145.67 276.89) rotate(-73.73)"/>
  <g>
    <path class="cls-10" d="M34.22,259.06h54.7A4.1,4.1,0,0,1,93,263.15v1.63H30.13v-1.63A4.09,4.09,0,0,1,34.22,259.06Z"/>
    <path class="cls-3" d="M93.5,265.28H29.63v-2.13a4.6,4.6,0,0,1,4.59-4.59h54.7a4.6,4.6,0,0,1,4.58,4.59Zm-62.87-1H92.5v-1.13a3.6,3.6,0,0,0-3.58-3.59H34.22a3.59,3.59,0,0,0-3.59,3.59Z"/>
  </g>
  <g>
    <circle class="cls-13" cx="390.81" cy="179.02" r="8.56"/>
    <path class="cls-3" d="M390.81,188.08a9.06,9.06,0,1,1,9.06-9.06A9.06,9.06,0,0,1,390.81,188.08Zm0-17.12a8.06,8.06,0,1,0,8.06,8.06A8.07,8.07,0,0,0,390.81,171Z"/>
  </g>
  <g>
    <circle class="cls-13" cx="411.02" cy="179.02" r="8.56"/>
    <path class="cls-3" d="M411,188.08a9.06,9.06,0,1,1,9.06-9.06A9.06,9.06,0,0,1,411,188.08ZM411,171a8.06,8.06,0,1,0,8.06,8.06A8.07,8.07,0,0,0,411,171Z"/>
  </g>
  <g>
    <circle class="cls-10" cx="61.56" cy="224.23" r="14.31"/>
    <path class="cls-3" d="M61.56,239a14.81,14.81,0,1,1,14.81-14.81A14.82,14.82,0,0,1,61.56,239Zm0-28.62a13.81,13.81,0,1,0,13.81,13.81A13.83,13.83,0,0,0,61.56,210.42Z"/>
  </g>
  <rect class="cls-3" x="572.94" y="214.25" width="1" height="22.88"/>
  <g>
    <path class="cls-10" d="M574.67,203.9h-2l-2.62-12.75a3.67,3.67,0,0,1,1.47-3.79,3.71,3.71,0,0,1,2.07-.63h0a3.63,3.63,0,0,1,3.63,3.61,3.84,3.84,0,0,1-.08.76Z"/>
    <path class="cls-3" d="M575.08,204.4h-2.82l-2.7-13.15a4.15,4.15,0,0,1,1.67-4.3,4.25,4.25,0,0,1,2.36-.72h0a4.11,4.11,0,0,1,4,5Zm-2-1h1.18L576.65,191a3.12,3.12,0,0,0-3-3.78h0a3.18,3.18,0,0,0-1.79.55,3.14,3.14,0,0,0-1.26,3.26Z"/>
  </g>
  <g>
    <path class="cls-10" d="M575,204.54l-1.69-1,4.13-12.33a3.61,3.61,0,0,1,4.51-2.39,3.54,3.54,0,0,1,.77.34h0a3.59,3.59,0,0,1,1.35,4.91,3.7,3.7,0,0,1-.47.65Z"/>
    <path class="cls-3" d="M575.1,205.18l-2.39-1.42L577,191.05a4.06,4.06,0,0,1,2-2.41,4.11,4.11,0,0,1,3.13-.3,4.27,4.27,0,0,1,.87.39,4.12,4.12,0,0,1,1.93,2.47,4.07,4.07,0,0,1-.39,3.11,4,4,0,0,1-.54.75Zm-1.19-1.86,1,.58,8.32-9.51a2.79,2.79,0,0,0,.42-.57,3.1,3.1,0,0,0-1.17-4.22,2.8,2.8,0,0,0-.66-.3,3.14,3.14,0,0,0-2.37.22,3.06,3.06,0,0,0-1.52,1.84Z"/>
  </g>
  <g>
    <path class="cls-10" d="M574.92,205.24l-1-1.7,9.76-8.59a3.61,3.61,0,0,1,5.59.87h0a3.6,3.6,0,0,1-1.27,4.93,3.2,3.2,0,0,1-.73.33Z"/>
    <path class="cls-3" d="M574.69,205.84l-1.41-2.4,10.07-8.87a4.09,4.09,0,0,1,6.35,1,4.1,4.1,0,0,1-1.44,5.61,4.52,4.52,0,0,1-.84.38Zm-.13-2.2.59,1,12-4a3.38,3.38,0,0,0,.64-.29,3,3,0,0,0,1.42-1.9,3.08,3.08,0,0,0-.33-2.35,3.59,3.59,0,0,0-.42-.58,3.11,3.11,0,0,0-4.4-.17Z"/>
  </g>
  <g>
    <path class="cls-10" d="M574.51,205.83v-2l12.75-2.54a3.6,3.6,0,0,1,4.31,2.71,4.12,4.12,0,0,1,.09.86h0a3.6,3.6,0,0,1-3.59,3.61,3.57,3.57,0,0,1-.8-.09Z"/>
    <path class="cls-3" d="M588.05,209a4.58,4.58,0,0,1-.89-.1L574,206.24v-2.82l13.15-2.62a4.11,4.11,0,0,1,4.9,3.09,4.13,4.13,0,0,1-4,5.08Zm-13-3.55,12.36,2.47a4.42,4.42,0,0,0,.7.08,3.09,3.09,0,0,0,3.09-3.11,3.09,3.09,0,0,0-3.79-3.08L575,204.24Z"/>
  </g>
  <g>
    <path class="cls-10" d="M573.87,206.13l1-1.69,12.3,4.21a3.67,3.67,0,0,1,2.52,3.2,3.73,3.73,0,0,1-.5,2.09h0a3.6,3.6,0,0,1-4.93,1.32,3.3,3.3,0,0,1-.64-.47Z"/>
    <path class="cls-3" d="M586.06,216.24a4,4,0,0,1-2-.55,4.25,4.25,0,0,1-.73-.53l-10-8.93,1.42-2.39,12.68,4.34a4.1,4.1,0,0,1,2.29,6A4.09,4.09,0,0,1,586.06,216.24ZM574.51,206l9.44,8.39a3.22,3.22,0,0,0,.56.41,3.13,3.13,0,0,0,4.25-1.14,3.12,3.12,0,0,0-1.75-4.57L575.09,205Z"/>
  </g>
  <g>
    <path class="cls-10" d="M573.17,206.07l1.7-1,8.53,9.82a3.58,3.58,0,0,1-.91,5.56h0a3.61,3.61,0,0,1-4.92-1.32,3.76,3.76,0,0,1-.32-.74Z"/>
    <path class="cls-3" d="M580.7,221.43a4.09,4.09,0,0,1-3.56-2.05,3.91,3.91,0,0,1-.37-.84l-4.2-12.7,2.4-1.41,8.81,10.13a4.14,4.14,0,0,1,.65,4.54,4.2,4.2,0,0,1-3.73,2.33Zm-6.93-15.13,4,11.93a3.47,3.47,0,0,0,.29.65,3.15,3.15,0,0,0,5.52-.21,3.17,3.17,0,0,0-.5-3.45l-8.26-9.51Z"/>
  </g>
  <g>
    <path class="cls-10" d="M572.58,205.66h2l2.42,12.8a3.61,3.61,0,0,1-2.76,4.3,3.83,3.83,0,0,1-.83.08h0a3.62,3.62,0,0,1-3.59-3.65,3.31,3.31,0,0,1,.09-.77Z"/>
    <path class="cls-3" d="M573.47,223.34h-.07a4.12,4.12,0,0,1-4.08-4.15,4.32,4.32,0,0,1,.1-.88l2.75-13.15H575l2.5,13.21a4.12,4.12,0,0,1-3.14,4.88A4.31,4.31,0,0,1,573.47,223.34ZM573,206.16l-2.59,12.36a3.12,3.12,0,0,0,3,3.82,4.51,4.51,0,0,0,.73-.07,3.11,3.11,0,0,0,2.37-3.7l-2.34-12.41Z"/>
  </g>
  <g>
    <path class="cls-10" d="M572.29,205l1.68,1-4.29,12.28a3.61,3.61,0,0,1-4.53,2.35,3.21,3.21,0,0,1-.78-.35h0a3.61,3.61,0,0,1-1.28-4.94,3.23,3.23,0,0,1,.47-.63Z"/>
    <path class="cls-3" d="M566.24,221.3a4.11,4.11,0,0,1-1.24-.19,4.18,4.18,0,0,1-.89-.4,4.12,4.12,0,0,1-1.45-5.63,4.52,4.52,0,0,1,.53-.71l9-10,2.39,1.42-4.43,12.67a4.1,4.1,0,0,1-3.91,2.85Zm6.15-15.66-8.46,9.4a4.13,4.13,0,0,0-.41.55,3.12,3.12,0,0,0,1.1,4.26,3.76,3.76,0,0,0,.68.31,3.12,3.12,0,0,0,3.9-2l4.16-11.91Z"/>
  </g>
  <g>
    <path class="cls-10" d="M572.35,204.31l.95,1.71-9.87,8.47a3.67,3.67,0,0,1-4,.55,3.56,3.56,0,0,1-1.55-1.5h0a3.6,3.6,0,0,1,1.36-4.91,3.9,3.9,0,0,1,.73-.31Z"/>
    <path class="cls-3" d="M561,215.9a4.11,4.11,0,0,1-1.8-.41,4.06,4.06,0,0,1-1.77-1.71A4.11,4.11,0,0,1,559,208.2a3.94,3.94,0,0,1,.84-.36l12.76-4.13,1.34,2.42-10.18,8.74A4.13,4.13,0,0,1,561,215.9Zm11.1-11-12,3.89a3,3,0,0,0-.63.27,3.09,3.09,0,0,0-1.17,4.22,3,3,0,0,0,1.33,1.3,3.15,3.15,0,0,0,3.45-.48l9.57-8.2Z"/>
  </g>
  <g>
    <path class="cls-10" d="M572.76,203.73v2L560,208.1a3.66,3.66,0,0,1-3.76-1.55,3.8,3.8,0,0,1-.59-2.07h0a3.69,3.69,0,0,1,1.14-2.59A3.63,3.63,0,0,1,560,201Z"/>
    <path class="cls-3" d="M559.24,208.67a4.16,4.16,0,0,1-3.45-1.84,4.29,4.29,0,0,1-.67-2.36,4.15,4.15,0,0,1,1.3-2.94,4.1,4.1,0,0,1,3.69-1l13.15,2.82v2.82l-13.2,2.44A3.8,3.8,0,0,1,559.24,208.67Zm0-7.25a3.1,3.1,0,0,0-2.13.84,3.21,3.21,0,0,0-1,2.23,3.26,3.26,0,0,0,.51,1.79,3.15,3.15,0,0,0,3.24,1.33l12.39-2.3v-1.18l-12.36-2.64A3.11,3.11,0,0,0,559.23,201.42Z"/>
  </g>
  <g>
    <path class="cls-10" d="M573.41,203.44l-1,1.67-12.25-4.37a3.65,3.65,0,0,1-2.47-3.23,3.54,3.54,0,0,1,.53-2.08h0a3.6,3.6,0,0,1,4.93-1.26,3.82,3.82,0,0,1,.64.48Z"/>
    <path class="cls-3" d="M572.63,205.72,560,201.21a4.14,4.14,0,0,1-2.8-3.67,4,4,0,0,1,.6-2.37,4.11,4.11,0,0,1,5.62-1.43,3.82,3.82,0,0,1,.72.55l9.92,9.06Zm-11.31-11.55a3.09,3.09,0,0,0-2.67,1.52,3,3,0,0,0-.46,1.79,3.16,3.16,0,0,0,2.13,2.79l11.87,4.23.58-1L563.45,195a3.64,3.64,0,0,0-.55-.42A3.13,3.13,0,0,0,561.32,194.17Z"/>
  </g>
  <g>
    <path class="cls-10" d="M574.11,203.51l-1.71.94-8.4-9.93a3.68,3.68,0,0,1-.52-4A3.73,3.73,0,0,1,565,189h0a3.76,3.76,0,0,1,2.81-.3,3.68,3.68,0,0,1,2.4,2.44Z"/>
    <path class="cls-3" d="M572.28,205.09l-8.66-10.25a4.17,4.17,0,0,1-.59-4.54,4.19,4.19,0,0,1,4.91-2.1,4.19,4.19,0,0,1,2.74,2.78l4,12.77ZM566.76,189a3.19,3.19,0,0,0-1.53.39,3.29,3.29,0,0,0-1.31,1.33,3.17,3.17,0,0,0,.46,3.44l8.14,9.62,1-.54-3.79-12a3.13,3.13,0,0,0-2.07-2.11A3,3,0,0,0,566.76,189Z"/>
  </g>
  <g>
    <circle class="cls-10" cx="573.63" cy="204.79" r="3.65"/>
    <path class="cls-3" d="M573.63,208.94a4.15,4.15,0,1,1,4.15-4.15A4.15,4.15,0,0,1,573.63,208.94Zm0-7.3a3.15,3.15,0,1,0,3.15,3.15A3.15,3.15,0,0,0,573.63,201.64Z"/>
  </g>
  <g>
    <rect class="cls-10" x="561.57" y="234.46" width="24.13" height="30.31"/>
    <path class="cls-3" d="M586.2,265.27H561.07V234H586.2Zm-24.13-1H585.2V235H562.07Z"/>
  </g>
  <g>
    <rect class="cls-10" x="589.25" y="252.24" width="2.52" height="9.77"/>
    <path class="cls-3" d="M592.27,262.51h-3.52V251.74h3.52Zm-2.52-1h1.52v-8.77h-1.52Z"/>
  </g>
  <g>
    <path class="cls-18" d="M98.31,257.35h0a12.8,12.8,0,0,1,11-3.26l6.57,1.17a13,13,0,0,1,4.76,1.89l.71.47a3.89,3.89,0,0,1-2.13,7.15h-18a4.29,4.29,0,0,1-2.91-7.42Z"/>
    <path class="cls-3" d="M119.23,265.27h-18a4.8,4.8,0,0,1-4.77-4.82A4.82,4.82,0,0,1,98,257h0a13.38,13.38,0,0,1,11.43-3.38l6.57,1.17a13.41,13.41,0,0,1,4.94,2l.72.47a4.36,4.36,0,0,1,1.89,2.77,4.31,4.31,0,0,1-.61,3.3A4.39,4.39,0,0,1,119.23,265.27Zm-20.58-7.56h0a3.86,3.86,0,0,0-1.2,2.75,3.81,3.81,0,0,0,3.77,3.81h18a3.38,3.38,0,0,0,3.31-4.09,3.31,3.31,0,0,0-1.46-2.14l-.72-.47a12.36,12.36,0,0,0-4.57-1.82l-6.57-1.17A12.41,12.41,0,0,0,98.65,257.71Z"/>
  </g>
  <g>
    <path class="cls-10" d="M583.9,259.38h13.2a3.76,3.76,0,0,1,3.76,3.76h0v1.5H580.14v-1.5a3.76,3.76,0,0,1,3.76-3.76Z"/>
    <path class="cls-3" d="M601.36,265.14H579.64v-2a4.26,4.26,0,0,1,4.26-4.26h13.2a4.26,4.26,0,0,1,4.26,4.26Zm-20.72-1h19.72v-1a3.26,3.26,0,0,0-3.26-3.26H583.9a3.26,3.26,0,0,0-3.26,3.26Z"/>
  </g>
  <g>
    <rect class="cls-10" x="575.88" y="239.7" width="29.26" height="15.07"/>
    <path class="cls-3" d="M605.64,255.27H575.38V239.2h30.26Zm-29.26-1h28.26V240.2H576.38Z"/>
  </g>
  <g>
    <rect class="cls-10" x="128.88" y="252.24" width="2.52" height="9.77"/>
    <path class="cls-3" d="M131.9,262.51h-3.52V251.74h3.52Zm-2.52-1h1.52v-8.77h-1.52Z"/>
  </g>
  <g>
    <path class="cls-10" d="M123.53,259.38h13.2a3.76,3.76,0,0,1,3.76,3.76h0v1.5H119.77v-1.5a3.76,3.76,0,0,1,3.76-3.76Z"/>
    <path class="cls-3" d="M141,265.14H119.27v-2a4.26,4.26,0,0,1,4.26-4.26h13.2a4.26,4.26,0,0,1,4.26,4.26Zm-20.72-1H140v-1a3.26,3.26,0,0,0-3.26-3.26h-13.2a3.26,3.26,0,0,0-3.26,3.26Z"/>
  </g>
  <g>
    <rect class="cls-10" x="115.51" y="239.7" width="29.26" height="15.07"/>
    <path class="cls-3" d="M145.27,255.27H115V239.2h30.26Zm-29.26-1h28.26V240.2H116Z"/>
  </g>
  <g>
    <rect class="cls-10" x="434.75" y="252.24" width="2.52" height="9.77"/>
    <path class="cls-3" d="M437.77,262.51h-3.52V251.74h3.52Zm-2.52-1h1.52v-8.77h-1.52Z"/>
  </g>
  <g>
    <path class="cls-10" d="M429.4,259.38h13.2a3.76,3.76,0,0,1,3.76,3.76h0v1.5H425.64v-1.5A3.76,3.76,0,0,1,429.4,259.38Z"/>
    <path class="cls-3" d="M446.86,265.14H425.14v-2a4.26,4.26,0,0,1,4.26-4.26h13.2a4.26,4.26,0,0,1,4.26,4.26Zm-20.72-1h19.72v-1a3.26,3.26,0,0,0-3.26-3.26H429.4a3.26,3.26,0,0,0-3.26,3.26Z"/>
  </g>
  <g>
    <rect class="cls-10" x="272.65" y="252.24" width="2.52" height="9.77"/>
    <path class="cls-3" d="M275.67,262.51h-3.52V251.74h3.52Zm-2.52-1h1.52v-8.77h-1.52Z"/>
  </g>
  <g>
    <path class="cls-10" d="M267.31,259.38h13.2a3.76,3.76,0,0,1,3.76,3.76h0v1.5H263.55v-1.5a3.76,3.76,0,0,1,3.76-3.76Z"/>
    <path class="cls-3" d="M284.77,265.14H263.05v-2a4.26,4.26,0,0,1,4.26-4.26h13.2a4.26,4.26,0,0,1,4.26,4.26Zm-20.72-1h19.72v-1a3.26,3.26,0,0,0-3.26-3.26h-13.2a3.26,3.26,0,0,0-3.26,3.26Z"/>
  </g>
  <g>
    <rect class="cls-10" x="258.79" y="239.7" width="30.57" height="15.07"/>
    <path class="cls-3" d="M289.86,255.27H258.29V239.2h31.57Zm-30.57-1h29.57V240.2H259.29Z"/>
  </g>
  <g>
    <rect class="cls-10" x="319.31" y="185.3" width="91.25" height="60.79"/>
    <path class="cls-3" d="M411.06,246.59H318.81V184.8h92.25Zm-91.25-1h90.25V185.8H319.81Z"/>
  </g>
  <g>
    <rect class="cls-10" x="358.66" y="226.42" width="12.56" height="36.17"/>
    <path class="cls-3" d="M371.72,263.09H358.16V225.92h13.56Zm-12.56-1h11.56V226.92H359.16Z"/>
  </g>
  <g>
    <path class="cls-10" d="M339.78,259.38h50.33a3.76,3.76,0,0,1,3.76,3.76h0v1.5H336v-1.5a3.76,3.76,0,0,1,3.76-3.76Z"/>
    <path class="cls-3" d="M394.37,265.14H335.5v-2a4.26,4.26,0,0,1,4.26-4.26h50.35a4.26,4.26,0,0,1,4.26,4.26Zm-57.87-1h56.87v-1a3.26,3.26,0,0,0-3.26-3.26H339.76a3.26,3.26,0,0,0-3.26,3.26Z"/>
  </g>
  <g>
    <circle class="cls-10" cx="364.94" cy="222.52" r="13.17"/>
    <path class="cls-3" d="M364.94,236.19a13.67,13.67,0,1,1,13.67-13.67A13.68,13.68,0,0,1,364.94,236.19Zm0-26.34a12.67,12.67,0,1,0,12.67,12.67A12.68,12.68,0,0,0,364.94,209.85Z"/>
  </g>
  <g>
    <path class="cls-15" d="M584.9,168.88c-11.62,4.43-47.68,3.53-46.66-12.56"/>
    <path class="cls-3" d="M568.12,171.63c-9.35,0-19.7-1.64-25.61-6-3.4-2.5-5-5.64-4.77-9.34l1,.06c-.21,3.34,1.26,6.19,4.36,8.48,10.06,7.4,33.33,6.74,41.62,3.58l.36.94C581.47,170.72,575.07,171.63,568.12,171.63Z"/>
  </g>
  <ellipse class="cls-15" cx="569.63" cy="161.4" rx="15.75" ry="8.07"/>
  <g>
    <path class="cls-10" d="M193.87,247.67a3.8,3.8,0,1,1-3.8,3.8,3.8,3.8,0,0,1,3.8-3.8h0m0-4.42a8.22,8.22,0,1,0,8.22,8.22,8.22,8.22,0,0,0-8.22-8.22Z"/>
    <path class="cls-3" d="M193.87,260.19a8.72,8.72,0,1,1,8.72-8.72A8.73,8.73,0,0,1,193.87,260.19Zm0-16.44a7.72,7.72,0,1,0,7.72,7.72A7.72,7.72,0,0,0,193.87,243.75Zm0,12a4.3,4.3,0,1,1,4.3-4.3A4.31,4.31,0,0,1,193.87,255.77Zm0-7.6a3.3,3.3,0,1,0,3.3,3.3A3.3,3.3,0,0,0,193.87,248.17Z"/>
  </g>
  <g>
    <rect class="cls-10" x="167.23" y="239.5" width="21.32" height="25.27"/>
    <path class="cls-3" d="M189.05,265.27H166.73V239h22.32Zm-21.32-1h20.32V240H167.73Z"/>
  </g>
  <path class="cls-3" d="M554.65,176.35c-2.14-2.12-5.15-2.09-6.76-1.88-2.17.28-3.93,1.14-4.31,1.78l-.86-.5c.6-1,2.72-2,5-2.28,1.78-.23,5.14-.25,7.58,2.18Z"/>
  <g class="cls-21">
    <circle class="cls-3" cx="549.03" cy="176.63" r="2.58"/>
  </g>
  <path class="cls-3" d="M573,176.36c-2.15-2.13-5.16-2.1-6.76-1.89-2.18.28-3.93,1.14-4.31,1.78l-.86-.5c.6-1,2.72-2,5-2.28,1.78-.23,5.14-.25,7.59,2.17Z"/>
  <g class="cls-22">
    <circle class="cls-3" cx="567.43" cy="176.63" r="2.58"/>
  </g>
  <path class="cls-3" d="M639,1V399H1V1H639m1-1H0V400H640Z"/>
  <g class="cls-23">
    <g class="cls-23">
      <path class="cls-24" d="M514.85,305.44a4.5,4.5,0,0,1,2.09.49,3.77,3.77,0,0,1,1.55,1.52,5.76,5.76,0,0,1,0,5.08,3.77,3.77,0,0,1-1.55,1.52,4.5,4.5,0,0,1-2.09.49H512v-9.1Zm1.64,6.87a3.5,3.5,0,0,0,0-4.64,3.45,3.45,0,0,0-2.18-.67h-.62v6h.62A3.45,3.45,0,0,0,516.49,312.31Z"/>
    </g>
    <g class="cls-23">
      <path class="cls-24" d="M526.43,311.78H521.9a1.76,1.76,0,0,0,.52,1.11,1.48,1.48,0,0,0,1,.38,1.66,1.66,0,0,0,.92-.25,2.24,2.24,0,0,0,.67-.77l1.3.48a3,3,0,0,1-3,1.91,2.94,2.94,0,0,1-1.77-.5,2.85,2.85,0,0,1-1-1.27,4.07,4.07,0,0,1-.33-1.61,4,4,0,0,1,.33-1.6,2.93,2.93,0,0,1,1-1.28,3,3,0,0,1,1.77-.5,2.94,2.94,0,0,1,1.72.49,3,3,0,0,1,1,1.23,3.68,3.68,0,0,1,.33,1.52Zm-1.65-1.27a1.86,1.86,0,0,0-.47-.9,1.27,1.27,0,0,0-.94-.35,1.4,1.4,0,0,0-.9.32,1.76,1.76,0,0,0-.53.93Z"/>
    </g>
    <g class="cls-23">
      <path class="cls-24" d="M527.09,308h1.62l1.33,4.56,1.33-4.56H533l-2.22,6.55h-1.46Z"/>
    </g>
    <g class="cls-23">
      <path class="cls-24" d="M539.76,311.78h-4.53a1.76,1.76,0,0,0,.52,1.11,1.48,1.48,0,0,0,1,.38,1.66,1.66,0,0,0,.92-.25,2.24,2.24,0,0,0,.67-.77l1.3.48a3,3,0,0,1-3,1.91,2.9,2.9,0,0,1-2.81-1.77,4.07,4.07,0,0,1-.33-1.61,4,4,0,0,1,.33-1.6,2.89,2.89,0,0,1,2.81-1.78,2.94,2.94,0,0,1,1.72.49,3,3,0,0,1,1,1.23,3.68,3.68,0,0,1,.33,1.52Zm-1.65-1.27a1.86,1.86,0,0,0-.47-.9,1.25,1.25,0,0,0-.94-.35,1.4,1.4,0,0,0-.9.32,1.76,1.76,0,0,0-.53.93Z"/>
      <path class="cls-24" d="M541.21,305.34h1.62v9.2h-1.62Z"/>
      <path class="cls-24" d="M545.83,314.2a2.91,2.91,0,0,1-1.15-1.21,3.92,3.92,0,0,1,0-3.45,2.86,2.86,0,0,1,1.15-1.21,3.75,3.75,0,0,1,3.56,0,2.86,2.86,0,0,1,1.15,1.21,3.92,3.92,0,0,1,0,3.45,2.91,2.91,0,0,1-1.15,1.21,3.82,3.82,0,0,1-3.56,0Zm3-1.51a2.48,2.48,0,0,0,0-2.85,1.43,1.43,0,0,0-1.19-.58,1.46,1.46,0,0,0-1.2.58,2.53,2.53,0,0,0,0,2.85,1.46,1.46,0,0,0,1.2.58A1.43,1.43,0,0,0,548.8,312.69Z"/>
      <path class="cls-24" d="M554,308v.67a1.6,1.6,0,0,1,.6-.53,2,2,0,0,1,1-.25,2.76,2.76,0,0,1,2.22.92,4.33,4.33,0,0,1,0,4.93,2.75,2.75,0,0,1-2.22.91,2.24,2.24,0,0,1-.92-.2,1.81,1.81,0,0,1-.67-.5v3.25h-1.61V308Zm2.46,4.74a2.73,2.73,0,0,0,0-2.94,1.34,1.34,0,0,0-1.09-.53,1.36,1.36,0,0,0-1.09.53,2.8,2.8,0,0,0,0,2.95,1.36,1.36,0,0,0,1.09.53A1.33,1.33,0,0,0,556.46,312.73Z"/>
      <path class="cls-24" d="M565.87,311.78h-4.52a1.81,1.81,0,0,0,.51,1.11,1.52,1.52,0,0,0,1,.38,1.68,1.68,0,0,0,.92-.25,2.35,2.35,0,0,0,.67-.77l1.3.48a3.24,3.24,0,0,1-1.13,1.42,3.2,3.2,0,0,1-1.85.49,2.9,2.9,0,0,1-2.82-1.77,4.07,4.07,0,0,1-.33-1.61,4,4,0,0,1,.33-1.6,2.89,2.89,0,0,1,2.82-1.78,3,3,0,0,1,1.72.49,3.08,3.08,0,0,1,1,1.23,3.67,3.67,0,0,1,.32,1.52Zm-1.65-1.27a1.84,1.84,0,0,0-.46-.9,1.27,1.27,0,0,0-.94-.35,1.36,1.36,0,0,0-.9.32,1.7,1.7,0,0,0-.53.93Z"/>
      <path class="cls-24" d="M568.94,308v1.06a2.62,2.62,0,0,1,.86-.86,2.11,2.11,0,0,1,1.08-.31,3,3,0,0,1,.79.13l-.3,1.5a1.27,1.27,0,0,0-.67-.18,1.48,1.48,0,0,0-1.26.69,3.85,3.85,0,0,0-.5,2.19v2.33h-1.61V308Z"/>
    </g>
  </g>
  <g class="cls-23">
    <g class="cls-23">
      <path class="cls-24" d="M64.06,305.44a4.5,4.5,0,0,1,2.09.49,3.77,3.77,0,0,1,1.55,1.52,5.76,5.76,0,0,1,0,5.08,3.77,3.77,0,0,1-1.55,1.52,4.5,4.5,0,0,1-2.09.49H61.21v-9.1Zm1.64,6.87a3.5,3.5,0,0,0,0-4.64,3.45,3.45,0,0,0-2.18-.67H62.9v6h.62A3.45,3.45,0,0,0,65.7,312.31Z"/>
    </g>
    <g class="cls-23">
      <path class="cls-24" d="M75.64,311.78H71.11a1.76,1.76,0,0,0,.52,1.11,1.48,1.48,0,0,0,1,.38,1.66,1.66,0,0,0,.92-.25,2.24,2.24,0,0,0,.67-.77l1.3.48a3,3,0,0,1-3,1.91,2.94,2.94,0,0,1-1.77-.5,2.85,2.85,0,0,1-1-1.27,4.07,4.07,0,0,1-.33-1.61,4,4,0,0,1,.33-1.6,2.93,2.93,0,0,1,1-1.28,3,3,0,0,1,1.77-.5,2.83,2.83,0,0,1,2.73,1.72,3.68,3.68,0,0,1,.33,1.52ZM74,310.51a1.86,1.86,0,0,0-.47-.9,1.27,1.27,0,0,0-.94-.35,1.35,1.35,0,0,0-.89.32,1.71,1.71,0,0,0-.54.93Z"/>
    </g>
    <g class="cls-23">
      <path class="cls-24" d="M76.3,308h1.62l1.33,4.56L80.58,308H82.2L80,314.54H78.52Z"/>
    </g>
    <g class="cls-23">
      <path class="cls-24" d="M89,311.78H84.44a1.76,1.76,0,0,0,.52,1.11,1.48,1.48,0,0,0,1,.38,1.66,1.66,0,0,0,.92-.25,2.24,2.24,0,0,0,.67-.77l1.3.48a3,3,0,0,1-3,1.91,2.9,2.9,0,0,1-2.81-1.77,4.07,4.07,0,0,1-.33-1.61,4,4,0,0,1,.33-1.6,2.89,2.89,0,0,1,2.81-1.78,2.83,2.83,0,0,1,2.73,1.72,3.68,3.68,0,0,1,.33,1.52Zm-1.65-1.27a1.86,1.86,0,0,0-.47-.9,1.27,1.27,0,0,0-.94-.35,1.35,1.35,0,0,0-.89.32,1.71,1.71,0,0,0-.54.93Z"/>
      <path class="cls-24" d="M90.42,305.34H92v9.2H90.42Z"/>
      <path class="cls-24" d="M95,314.2A2.91,2.91,0,0,1,93.89,313a3.92,3.92,0,0,1,0-3.45A2.86,2.86,0,0,1,95,308.33a3.75,3.75,0,0,1,3.56,0,2.86,2.86,0,0,1,1.15,1.21,3.92,3.92,0,0,1,0,3.45,2.91,2.91,0,0,1-1.15,1.21,3.82,3.82,0,0,1-3.56,0Zm3-1.51a2.48,2.48,0,0,0,0-2.85,1.43,1.43,0,0,0-1.19-.58,1.46,1.46,0,0,0-1.2.58,2.53,2.53,0,0,0,0,2.85,1.46,1.46,0,0,0,1.2.58A1.43,1.43,0,0,0,98,312.69Z"/>
      <path class="cls-24" d="M103.21,308v.67a1.6,1.6,0,0,1,.6-.53,2,2,0,0,1,1-.25,2.76,2.76,0,0,1,2.22.92,4.33,4.33,0,0,1,0,4.93,2.75,2.75,0,0,1-2.22.91,2.24,2.24,0,0,1-.92-.2,1.81,1.81,0,0,1-.67-.5v3.25H101.6V308Zm2.46,4.74a2.73,2.73,0,0,0,0-2.94,1.34,1.34,0,0,0-1.09-.53,1.36,1.36,0,0,0-1.09.53,2.8,2.8,0,0,0,0,2.95,1.36,1.36,0,0,0,1.09.53A1.33,1.33,0,0,0,105.67,312.73Z"/>
      <path class="cls-24" d="M115.08,311.78h-4.52a1.81,1.81,0,0,0,.51,1.11,1.52,1.52,0,0,0,1.05.38A1.68,1.68,0,0,0,113,313a2.35,2.35,0,0,0,.67-.77l1.3.48a3.24,3.24,0,0,1-1.13,1.42,3.2,3.2,0,0,1-1.85.49,2.9,2.9,0,0,1-2.82-1.77,4.07,4.07,0,0,1-.33-1.61,4,4,0,0,1,.33-1.6,2.89,2.89,0,0,1,2.82-1.78,3,3,0,0,1,1.72.49,3.08,3.08,0,0,1,1,1.23,3.67,3.67,0,0,1,.32,1.52Zm-1.65-1.27a1.84,1.84,0,0,0-.46-.9,1.27,1.27,0,0,0-.94-.35,1.36,1.36,0,0,0-.9.32,1.7,1.7,0,0,0-.53.93Z"/>
      <path class="cls-24" d="M118.15,308v1.06a2.62,2.62,0,0,1,.86-.86,2.11,2.11,0,0,1,1.08-.31,3,3,0,0,1,.79.13l-.3,1.5a1.27,1.27,0,0,0-.67-.18,1.49,1.49,0,0,0-1.26.69,3.85,3.85,0,0,0-.5,2.19v2.33h-1.61V308Z"/>
    </g>
  </g>
  <g class="cls-23">
    <path class="cls-24" d="M122.24,243.48c2,0,3.5.85,3.5,3.62s-1.56,3.63-3.54,3.63h-1.66v-7.25Zm-.07,1.22H122v4.8h.13c1.22,0,2-.49,2-2.4S123.39,244.7,122.17,244.7Z"/>
    <path class="cls-24" d="M127.3,243.48h4.39v1.29H128.8v1.61h2.69v1.29H128.8v1.77h2.89v1.29H127.3Z"/>
    <path class="cls-24" d="M136.85,250.73H135l-1.87-7.25h1.63l1.18,5.33,1.19-5.33h1.6Z"/>
  </g>
  <g class="cls-23">
    <path class="cls-24" d="M267.62,243.35c2,0,2.84,1.5,2.84,3.75s-.88,3.76-2.84,3.76-2.84-1.51-2.84-3.76S265.66,243.35,267.62,243.35Zm0,6.33c.93,0,1.25-1.05,1.25-2.58s-.32-2.57-1.25-2.57-1.25,1-1.25,2.57S266.7,249.68,267.62,249.68Z"/>
    <path class="cls-24" d="M274,243.48c1.66,0,2.81.54,2.81,2.23s-1.15,2.2-2.81,2.2h-.74v2.82h-1.5v-7.25Zm-.74,1.22v2h.7c.69,0,1.25-.23,1.25-1s-.56-1-1.25-1Z"/>
    <path class="cls-24" d="M280.55,243.35a2.37,2.37,0,0,1,2.51,2.29h-1.44a1.14,1.14,0,0,0-1.15-1.14.84.84,0,0,0-.94.81c0,.46.26.8.91,1l.63.16c1,.24,2.14.71,2.14,2.18a2.25,2.25,0,0,1-2.47,2.25,2.66,2.66,0,0,1-2.83-2.53h1.45c.11.82.56,1.38,1.34,1.38a.89.89,0,0,0,1-.86c0-.54-.35-.89-1.06-1.07l-.74-.2a2.14,2.14,0,1,1,.65-4.23Z"/>
  </g>
  <g class="cls-23">
    <g class="cls-23">
      <path class="cls-24" d="M371.19,314.31a3.2,3.2,0,0,1-1.1-.93,3.14,3.14,0,0,1-.57-1.28l1.36-.86a3.18,3.18,0,0,0,.66,1.34,1.45,1.45,0,0,0,1.15.5,1.32,1.32,0,0,0,.86-.26,1,1,0,0,0,.32-.82.87.87,0,0,0-.22-.59,2.07,2.07,0,0,0-.55-.46c-.22-.13-.54-.29-.94-.49l-.38-.18a3.57,3.57,0,0,1-1.25-1,2.35,2.35,0,0,1-.47-1.51,2.5,2.5,0,0,1,.32-1.25,2.31,2.31,0,0,1,.9-.88,2.68,2.68,0,0,1,1.32-.31,2.55,2.55,0,0,1,2.57,1.65l-1.36.87a1.24,1.24,0,0,0-1.21-1,1,1,0,0,0-.65.24.73.73,0,0,0-.28.59.91.91,0,0,0,.24.62,2.48,2.48,0,0,0,.59.45c.23.13.56.29,1,.49a6.59,6.59,0,0,1,1.08.61,2.53,2.53,0,0,1,.71.81,2.42,2.42,0,0,1,.28,1.22,2.7,2.7,0,0,1-.37,1.43,2.42,2.42,0,0,1-1,.95,3.38,3.38,0,0,1-1.51.33A3.17,3.17,0,0,1,371.19,314.31Z"/>
      <path class="cls-24" d="M382.75,311.78h-4.52a1.75,1.75,0,0,0,.51,1.11,1.49,1.49,0,0,0,1.05.38,1.63,1.63,0,0,0,.91-.25,2.24,2.24,0,0,0,.67-.77l1.3.48a2.94,2.94,0,0,1-3,1.91,2.9,2.9,0,0,1-2.81-1.77,4.07,4.07,0,0,1-.33-1.61,4,4,0,0,1,.33-1.6,2.89,2.89,0,0,1,2.81-1.78,2.83,2.83,0,0,1,2.73,1.72,3.68,3.68,0,0,1,.33,1.52Zm-1.65-1.27a1.84,1.84,0,0,0-.46-.9,1.29,1.29,0,0,0-.95-.35,1.35,1.35,0,0,0-.89.32,1.77,1.77,0,0,0-.54.93Z"/>
    </g>
    <g class="cls-23">
      <path class="cls-24" d="M385.3,314.2a2.79,2.79,0,0,1-1.09-1.22,4.27,4.27,0,0,1,0-3.43,2.79,2.79,0,0,1,1.09-1.22,3.22,3.22,0,0,1,1.74-.45,3.43,3.43,0,0,1,1.86.48,2.77,2.77,0,0,1,1.12,1.4l-1.44.58a2.29,2.29,0,0,0-.63-.8,1.45,1.45,0,0,0-.91-.28,1.29,1.29,0,0,0-1.12.55,2.48,2.48,0,0,0-.38,1.45,2.44,2.44,0,0,0,.38,1.45,1.27,1.27,0,0,0,1.12.56A1.51,1.51,0,0,0,388,313a2.29,2.29,0,0,0,.63-.8l1.44.58a2.82,2.82,0,0,1-1.12,1.4,3.43,3.43,0,0,1-1.86.47A3.31,3.31,0,0,1,385.3,314.2Z"/>
    </g>
    <g class="cls-23">
      <path class="cls-24" d="M391.81,314.14a1.89,1.89,0,0,1-.55-1.47V308h1.61v4.2a1.2,1.2,0,0,0,.25.82.94.94,0,0,0,.69.26,1.08,1.08,0,0,0,.74-.32,2.1,2.1,0,0,0,.54-.91,4.42,4.42,0,0,0,.21-1.44V308h1.62v6.55H395.3v-1.05a3.08,3.08,0,0,1-.89.84,2.17,2.17,0,0,1-1.14.31A2.12,2.12,0,0,1,391.81,314.14Z"/>
      <path class="cls-24" d="M400.35,308v1.06a2.53,2.53,0,0,1,.86-.86,2,2,0,0,1,1.07-.31,3,3,0,0,1,.8.13l-.3,1.5a1.3,1.3,0,0,0-.68-.18,1.49,1.49,0,0,0-1.26.69,3.86,3.86,0,0,0-.49,2.19v2.33h-1.61V308Z"/>
      <path class="cls-24" d="M404.22,306.84a1,1,0,0,1-.3-.74,1,1,0,0,1,1-1,1,1,0,0,1,.74.3,1,1,0,0,1,.3.74,1,1,0,0,1-1,1A1,1,0,0,1,404.22,306.84Zm-.06,1.15h1.61v6.55h-1.61Z"/>
    </g>
    <g class="cls-23">
      <path class="cls-24" d="M408.45,314a2.35,2.35,0,0,1-.64-1.8v-2.86h-1V308h1v-1.64l1.61-1V308h1.73v1.38h-1.73v2.83a1.21,1.21,0,0,0,.22.83.82.82,0,0,0,.64.24,1.4,1.4,0,0,0,.63-.16l.37,1.3a2.75,2.75,0,0,1-2.83-.38Z"/>
    </g>
    <g class="cls-23">
      <path class="cls-24" d="M416.33,308h1.61l-3.38,9.2H413l1.12-3.09L411.75,308h1.63l1.49,4Z"/>
    </g>
  </g>
  <g class="cls-23">
    <g class="cls-23">
      <path class="cls-24" d="M212.73,314.12a3.76,3.76,0,0,1-1.55-1.56,6,6,0,0,1,0-5.14,3.7,3.7,0,0,1,1.55-1.56,4.75,4.75,0,0,1,4.32,0,3.76,3.76,0,0,1,1.55,1.56,6,6,0,0,1,0,5.14,3.82,3.82,0,0,1-1.55,1.56,4.75,4.75,0,0,1-4.32,0Zm3.45-1.37a2.32,2.32,0,0,0,.93-1,4.5,4.5,0,0,0,0-3.48,2.32,2.32,0,0,0-.93-1,2.55,2.55,0,0,0-1.29-.33,2.59,2.59,0,0,0-1.3.33,2.36,2.36,0,0,0-.92,1,4.39,4.39,0,0,0,0,3.48,2.36,2.36,0,0,0,.92,1,2.59,2.59,0,0,0,1.3.33A2.55,2.55,0,0,0,216.18,312.75Z"/>
      <path class="cls-24" d="M222.3,308v.67a1.48,1.48,0,0,1,.59-.53,2,2,0,0,1,1-.25,2.75,2.75,0,0,1,2.22.92,4.33,4.33,0,0,1,0,4.93,2.74,2.74,0,0,1-2.22.91,2.28,2.28,0,0,1-.92-.2,1.85,1.85,0,0,1-.66-.5v3.25h-1.61V308Zm2.45,4.74a2.73,2.73,0,0,0,0-2.94,1.34,1.34,0,0,0-1.09-.53,1.33,1.33,0,0,0-1.08.53,2.74,2.74,0,0,0,0,2.95,1.37,1.37,0,0,0,2.17,0Z"/>
      <path class="cls-24" d="M234.17,311.78h-4.53a1.76,1.76,0,0,0,.52,1.11,1.48,1.48,0,0,0,1,.38,1.66,1.66,0,0,0,.92-.25,2.24,2.24,0,0,0,.67-.77l1.3.48a3,3,0,0,1-3,1.91,2.94,2.94,0,0,1-1.77-.5,2.85,2.85,0,0,1-1-1.27,4.07,4.07,0,0,1-.33-1.61,4,4,0,0,1,.33-1.6,2.93,2.93,0,0,1,1-1.28,3,3,0,0,1,1.77-.5,2.94,2.94,0,0,1,1.72.49,3,3,0,0,1,1,1.23,3.68,3.68,0,0,1,.33,1.52Zm-1.65-1.27a1.86,1.86,0,0,0-.47-.9,1.27,1.27,0,0,0-.94-.35,1.4,1.4,0,0,0-.9.32,1.76,1.76,0,0,0-.53.93Z"/>
    </g>
    <g class="cls-23">
      <path class="cls-24" d="M237.23,308v1.06a2.62,2.62,0,0,1,.86-.86,2.11,2.11,0,0,1,1.08-.31,3,3,0,0,1,.79.13l-.3,1.5a1.27,1.27,0,0,0-.67-.18,1.49,1.49,0,0,0-1.26.69,3.85,3.85,0,0,0-.5,2.19v2.33h-1.61V308Z"/>
    </g>
    <g class="cls-23">
      <path class="cls-24" d="M240.91,314.12a1.89,1.89,0,0,1-.56-1.46,1.92,1.92,0,0,1,.74-1.57,3.21,3.21,0,0,1,2-.58h1.15v-.29a.83.83,0,0,0-.33-.72,1.33,1.33,0,0,0-.82-.24A1.1,1.1,0,0,0,242,310l-1.36-.32a2.06,2.06,0,0,1,.84-1.32,2.72,2.72,0,0,1,1.65-.5,2.83,2.83,0,0,1,2,.7,2.72,2.72,0,0,1,.72,2.05v3.91h-1.33l-.16-.83a2.51,2.51,0,0,1-2,.93A2,2,0,0,1,240.91,314.12Zm2.89-1.22a1.25,1.25,0,0,0,.44-1v-.13h-1.08a1.41,1.41,0,0,0-.83.21.74.74,0,0,0-.29.64.6.6,0,0,0,.2.46.77.77,0,0,0,.53.18A1.61,1.61,0,0,0,243.8,312.9Z"/>
      <path class="cls-24" d="M248.4,314a2.35,2.35,0,0,1-.64-1.8v-2.86h-1V308h1v-1.64l1.61-1V308h1.73v1.38h-1.73v2.83a1.27,1.27,0,0,0,.22.83.82.82,0,0,0,.64.24,1.4,1.4,0,0,0,.63-.16l.37,1.3a2.75,2.75,0,0,1-2.83-.38Z"/>
    </g>
    <g class="cls-23">
      <path class="cls-24" d="M252.42,306.84a1,1,0,0,1-.3-.74,1,1,0,0,1,.3-.74,1,1,0,0,1,.74-.3,1,1,0,0,1,1,1,1,1,0,0,1-.3.74,1,1,0,0,1-.74.3A1,1,0,0,1,252.42,306.84Zm-.07,1.15H254v6.55h-1.61Z"/>
    </g>
    <g class="cls-23">
      <path class="cls-24" d="M256.94,314.2a3,3,0,0,1-1.15-1.21,4,4,0,0,1,0-3.45,2.92,2.92,0,0,1,1.15-1.21,3.44,3.44,0,0,1,1.78-.45,3.39,3.39,0,0,1,1.78.45,2.88,2.88,0,0,1,1.16,1.21,4,4,0,0,1,0,3.45,2.94,2.94,0,0,1-1.16,1.21,3.38,3.38,0,0,1-1.78.44A3.43,3.43,0,0,1,256.94,314.2Zm3-1.51a2.53,2.53,0,0,0,0-2.85,1.52,1.52,0,0,0-2.39,0,2.53,2.53,0,0,0,0,2.85,1.52,1.52,0,0,0,2.39,0Z"/>
    </g>
    <g class="cls-23">
      <path class="cls-24" d="M265.12,308V309a2.87,2.87,0,0,1,.9-.84,2.15,2.15,0,0,1,1.13-.32,2.06,2.06,0,0,1,1.46.51,1.9,1.9,0,0,1,.56,1.47v4.68h-1.62v-4.2a1.15,1.15,0,0,0-.25-.82.93.93,0,0,0-.68-.26,1.09,1.09,0,0,0-.74.31,2.21,2.21,0,0,0-.55.92,4.38,4.38,0,0,0-.21,1.44v2.61h-1.61V308Z"/>
    </g>
    <g class="cls-23">
      <path class="cls-24" d="M271.32,314.12a2.43,2.43,0,0,1-.91-1.24l1.29-.69a1.81,1.81,0,0,0,.51.79,1.18,1.18,0,0,0,.79.29.86.86,0,0,0,.53-.17.52.52,0,0,0,.22-.47.6.6,0,0,0-.33-.51,5.51,5.51,0,0,0-1-.48,3.1,3.1,0,0,1-1.15-.75,1.72,1.72,0,0,1-.41-1.17,1.68,1.68,0,0,1,.27-.93,2,2,0,0,1,.73-.66,2.31,2.31,0,0,1,1.07-.25,2.73,2.73,0,0,1,1.21.28,2.07,2.07,0,0,1,.84.79l-1,.88a1.21,1.21,0,0,0-1.05-.57.73.73,0,0,0-.45.14.41.41,0,0,0-.19.36.55.55,0,0,0,.27.43,4.61,4.61,0,0,0,1.07.49,3,3,0,0,1,1.18.71,1.61,1.61,0,0,1,.42,1.14,2,2,0,0,1-.63,1.54,2.28,2.28,0,0,1-1.61.57A2.68,2.68,0,0,1,271.32,314.12Z"/>
    </g>
  </g>
  <g>
    <path class="cls-5" d="M312.14,260.07a15.22,15.22,0,0,1,.65,4.29"/>
    <path class="cls-3" d="M312.29,264.37a15,15,0,0,0-.63-4.16l1-.28a15.8,15.8,0,0,1,.67,4.43Z"/>
  </g>
  <g>
    <rect class="cls-10" x="404.37" y="239.7" width="60.04" height="15.07"/>
    <path class="cls-3" d="M464.91,255.27h-61V239.2h61Zm-60-1h59V240.2h-59Z"/>
  </g>
  <g class="cls-23">
    <path class="cls-24" d="M411.71,243.35a2.37,2.37,0,0,1,2.51,2.29h-1.44a1.14,1.14,0,0,0-1.15-1.14.84.84,0,0,0-.94.81c0,.46.26.8.91,1l.63.16c1,.24,2.14.71,2.14,2.18a2.25,2.25,0,0,1-2.47,2.25,2.66,2.66,0,0,1-2.83-2.53h1.45c.11.82.56,1.38,1.34,1.38a.89.89,0,0,0,1-.86c0-.54-.35-.89-1.06-1.07l-.74-.2a2.14,2.14,0,1,1,.65-4.23Z"/>
    <path class="cls-24" d="M416,243.48h4.39v1.29H417.5v1.61h2.69v1.29H417.5v1.77h2.89v1.29H416Z"/>
    <path class="cls-24" d="M427.32,248.21c-.18,1.69-1,2.65-2.62,2.65-1.89,0-2.8-1.41-2.8-3.76s1-3.75,2.85-3.75c1.6,0,2.37,1.05,2.51,2.64h-1.47c-.08-1-.38-1.46-1.1-1.46s-1.2.76-1.2,2.57.38,2.58,1.2,2.58c.65,0,1.07-.39,1.14-1.47Z"/>
    <path class="cls-24" d="M430,243.48V248c0,1,.22,1.64,1.06,1.64s1-.68,1-1.75v-4.4h1.5v4.09c0,2.23-.53,3.29-2.52,3.29s-2.56-.84-2.56-3.23v-4.15Z"/>
    <path class="cls-24" d="M437.18,247.79h-.57v2.94h-1.5v-7.25H437c1.65,0,2.9.35,2.9,2.15a1.79,1.79,0,0,1-1.3,1.84l1.62,3.26h-1.65Zm-.57-3.09v1.91h.48c.71,0,1.26-.17,1.26-1s-.55-1-1.26-1Z"/>
    <path class="cls-24" d="M441.53,243.48h4.94v1.29h-1.72v4.67h1.72v1.29h-4.94v-1.29h1.72v-4.67h-1.72Z"/>
    <path class="cls-24" d="M449.71,244.77h-2v-1.29h5.6v1.29h-2.05v6h-1.5Z"/>
    <path class="cls-24" d="M458.21,243.48h1.71l-2.25,4.65v2.6h-1.5v-2.6l-2.25-4.65h1.71l1.29,3Z"/>
  </g>
  <g class="cls-23">
    <path class="cls-24" d="M583.57,243.48c2,0,3.5.85,3.5,3.62s-1.56,3.63-3.54,3.63h-1.66v-7.25Zm-.07,1.22h-.13v4.8h.13c1.22,0,2-.49,2-2.4S584.72,244.7,583.5,244.7Z"/>
    <path class="cls-24" d="M588.63,243.48H593v1.29h-2.89v1.61h2.69v1.29h-2.69v1.77H593v1.29h-4.39Z"/>
    <path class="cls-24" d="M598.18,250.73h-1.87l-1.87-7.25h1.63l1.18,5.33,1.19-5.33H600Z"/>
  </g>
</svg>
