<svg xmlns="http://www.w3.org/2000/svg" xmlns:xlink="http://www.w3.org/1999/xlink" viewBox="0 0 640 420">
  <defs>
    <style>
      .cls-1 {
        fill: none;
      }

      .cls-2 {
        fill: #fff5ff;
      }

      .cls-3 {
        fill: #10162f;
      }

      .cls-4 {
        fill: #ff8c00;
      }

      .cls-5 {
        fill: #a8775b;
      }

      .cls-6 {
        fill: #c49a6c;
      }

      .cls-7 {
        clip-path: url(#clip-path);
      }

      .cls-8 {
        clip-path: url(#clip-path-2);
      }

      .cls-9 {
        fill: #66c4ff;
      }

      .cls-10 {
        fill: #fdf6fe;
      }

      .cls-11 {
        isolation: isolate;
      }

      .cls-12 {
        fill: #11162d;
      }

      .cls-13 {
        fill: #fff0e6;
      }

      .cls-14 {
        fill: #fff;
      }

      .cls-15 {
        clip-path: url(#clip-path-3);
      }

      .cls-16 {
        clip-path: url(#clip-path-4);
      }

      .cls-17 {
        clip-path: url(#clip-path-5);
      }

      .cls-18 {
        clip-path: url(#clip-path-6);
      }

      .cls-19 {
        fill: #ffd300;
      }

      .cls-20 {
        fill: #fefae7;
      }

      .cls-21 {
        fill: #221f20;
      }

      .cls-22 {
        clip-path: url(#clip-path-7);
      }

      .cls-23 {
        clip-path: url(#clip-path-8);
      }

      .cls-24 {
        fill: #fff4ff;
      }
    </style>
    <clipPath id="clip-path">
      <path class="cls-1" d="M233.94,169.77a14.33,14.33,0,0,0-2.93-1,11.76,11.76,0,0,0-4.8,0,14.33,14.33,0,0,0-2.93,1,6.83,6.83,0,0,0,5.32,3.38C232.42,173.51,233.94,169.77,233.94,169.77Z"/>
    </clipPath>
    <clipPath id="clip-path-2">
      <path class="cls-1" d="M216.89,169.77a14.33,14.33,0,0,0-2.93-1,11.71,11.71,0,0,0-4.79,0,14.42,14.42,0,0,0-2.94,1,6.87,6.87,0,0,0,5.33,3.39C215.37,173.51,216.89,169.77,216.89,169.77Z"/>
    </clipPath>
    <clipPath id="clip-path-3">
      <path class="cls-1" d="M433.9,168.56c-.77-.34-1.82-1.5-2.93-1.75a10.91,10.91,0,0,0-2.28-.25,16,16,0,0,0-2.82.46c-1.11.23-1.61,1.17-2.39,1.52a6.69,6.69,0,0,0,5.21,3.29C432.41,172.21,433.9,168.56,433.9,168.56Z"/>
    </clipPath>
    <clipPath id="clip-path-4">
      <path class="cls-1" d="M450.07,168.56c-.77-.34-1.82-1.5-2.93-1.75a10.91,10.91,0,0,0-2.28-.25A16.92,16.92,0,0,0,442,167c-1.11.23-1.61,1.17-2.38,1.52a6.64,6.64,0,0,0,5.2,3.29C448.59,172.21,450.07,168.56,450.07,168.56Z"/>
    </clipPath>
    <clipPath id="clip-path-5">
      <path class="cls-1" d="M586.41,164.91a13.78,13.78,0,0,0-2.87-.94,11.58,11.58,0,0,0-4.69,0,13.88,13.88,0,0,0-2.86.94,6.7,6.7,0,0,0,5.21,3.29C584.91,168.55,586.41,164.91,586.41,164.91Z"/>
    </clipPath>
    <clipPath id="clip-path-6">
      <path class="cls-1" d="M570.35,164.91a13.78,13.78,0,0,0-2.87-.94,11.58,11.58,0,0,0-4.69,0,13.88,13.88,0,0,0-2.86.94,6.7,6.7,0,0,0,5.21,3.29C568.85,168.55,570.35,164.91,570.35,164.91Z"/>
    </clipPath>
    <clipPath id="clip-path-7">
      <path class="cls-1" d="M86.32,177c-.72-.32-1.69-1.4-2.73-1.64a10.12,10.12,0,0,0-2.12-.23,15.73,15.73,0,0,0-2.65.42c-1,.22-1.5,1.1-2.22,1.42a6.27,6.27,0,0,0,4.87,3.08C84.9,180.43,86.32,177,86.32,177Z"/>
    </clipPath>
    <clipPath id="clip-path-8">
      <path class="cls-1" d="M101.39,177c-.72-.32-1.7-1.4-2.74-1.64a10.14,10.14,0,0,0-2.13-.23,15.5,15.5,0,0,0-2.63.42c-1,.22-1.51,1.1-2.23,1.42a6.24,6.24,0,0,0,4.86,3.08C100,180.43,101.39,177,101.39,177Z"/>
    </clipPath>
  </defs>
  <g id="Layer_2" data-name="Layer 2">
    <rect class="cls-2" width="640" height="420"/>
    <path class="cls-3" d="M639,1.05V419H1V1.05H639m1-1H0V420H640Z"/>
  </g>
  <g id="Layer_1" data-name="Layer 1">
    <g>
      <path class="cls-4" d="M593.89,204.59l16.42,8.73a17,17,0,0,1,6,5.31c3.39,4.93,5.91,17.89,7.51,24.61.13.56-1.43.67-1.43.67l-95-.45c1.59-6.05,9.82-19.45,13.51-24.79a16.9,16.9,0,0,1,6-5.31l16.42-8.73"/>
      <path class="cls-3" d="M622.4,244.41,526.68,244l.16-.62c1.58-6,9.62-19.2,13.57-24.94a17.56,17.56,0,0,1,6.15-5.47L563,204.19l.47.88L547,213.8a16.5,16.5,0,0,0-5.79,5.16c-3.79,5.49-11.35,17.87-13.25,24l94.38.45a3.47,3.47,0,0,0,.89-.2l-.77-3.36c-1.6-7.11-3.81-16.85-6.63-20.93a16.41,16.41,0,0,0-5.79-5.16L593.66,205l.46-.88,16.42,8.73a17.48,17.48,0,0,1,6.15,5.47c2.93,4.25,5.15,14.09,6.78,21.27.29,1.29.56,2.47.8,3.5a.74.74,0,0,1-.13.64C623.78,244.26,622.8,244.38,622.4,244.41Zm.9-1Z"/>
    </g>
    <g>
      <path class="cls-5" d="M570.92,233.1c1.51.05,3.17-.18,4.67-.13a7.22,7.22,0,0,1,3.93.9,15.19,15.19,0,0,1,2.89,3.26c1.25,2,1.44,4.11,2.58,6.2H570.91Z"/>
      <path class="cls-3" d="M585.83,243.83H570.41V232.58l.52,0c.73,0,1.53,0,2.29-.06s1.6-.09,2.38-.07a7.69,7.69,0,0,1,4.19,1,15.24,15.24,0,0,1,3.05,3.44,15.42,15.42,0,0,1,1.43,3.36,18.08,18.08,0,0,0,1.15,2.83Zm-14.42-1h12.77a22.46,22.46,0,0,1-.85-2.26,14.64,14.64,0,0,0-1.34-3.18,15.1,15.1,0,0,0-2.78-3.13,7,7,0,0,0-3.64-.79c-.72,0-1.51,0-2.28.06s-1.25.08-1.87.08Z"/>
    </g>
    <g>
      <path class="cls-4" d="M528.31,243.33l42.61-.08V227.43H536.63a11.79,11.79,0,0,0-11.53,9.31l-.6,2.8A3.8,3.8,0,0,0,528.31,243.33Z"/>
      <path class="cls-3" d="M528.3,243.83a4.3,4.3,0,0,1-4.3-4.29v-.1l.61-2.81a12.33,12.33,0,0,1,12-9.7h34.79v16.82l-43.11.08Zm-3.3-4.24a3.3,3.3,0,0,0,3.3,3.24h0l42.12-.08V227.93H536.63a11.35,11.35,0,0,0-11,8.91Z"/>
    </g>
    <g>
      <path class="cls-3" d="M254,168.2c0-1.1,1.31-2.26,1.2-3.33s-1.6-2-1.8-3.05.84-2.46.52-3.5-2-1.62-2.37-2.62.33-2.59-.18-3.54-2.24-1.2-2.84-2.11-.18-2.59-.9-3.44-2.43-.75-3.21-1.51-.66-2.51-1.51-3.2-2.53-.26-3.43-.9-1.15-2.33-2.12-2.85-2.52.24-3.53-.18-1.58-2.05-2.63-2.38-2.42.74-3.5.52-2-1.71-3-1.8-2.24,1.2-3.34,1.2-2.26-1.29-3.33-1.2-2,1.61-3,1.8-2.47-.83-3.51-.52-1.62,2-2.63,2.38-2.58-.34-3.53.18-1.21,2.24-2.12,2.85-2.59.17-3.44.9-.73,2.43-1.51,3.2-2.51.67-3.2,1.51-.26,2.53-.9,3.44-2.33,1.14-2.84,2.11.23,2.52-.18,3.54-2.06,1.57-2.38,2.62.73,2.43.52,3.5-1.71,2-1.8,3.05,1.19,2.23,1.19,3.33c0,.9-1.48,2-1.61,3.45-.1,1.06,1.14,2.34,1.07,3.6s-1.43,2.29-1.39,3.51,1.47,2.21,1.64,3.4-.9,2.58-.61,3.73,2,1.75,2.51,2.83-.09,2.74.63,3.72,2.44.9,3.33,1.8.9,2.57,1.91,3.25,2.62,0,3.73.58,1.58,2.18,2.76,2.59,2.56-.61,3.76-.32,2,1.8,3.2,2,2.44-1,3.67-.9,2.2,1.54,3.43,1.59,2.34-1.28,3.59-1.28,2.48,1.33,3.6,1.28,2.36-1.49,3.51-1.59,2.62,1.08,3.75.9,2.18-1.75,3.3-2,2.76.7,3.85.35,1.8-2.09,2.89-2.55,2.85.1,3.82-.5,1.25-2.46,2.13-3.21,2.75-.75,3.48-1.65.33-2.69.9-3.74,2.31-1.64,2.7-2.75-.6-2.7-.37-3.83,1.72-2.24,1.8-3.41-1.25-2.5-1.26-3.6c0-1.3,1.26-2.58,1.18-3.67C255.48,170.28,254,169.1,254,168.2Z"/>
      <path class="cls-3" d="M216.76,203.55h-.1a4.06,4.06,0,0,1-2-.88,3.51,3.51,0,0,0-1.45-.72,3.64,3.64,0,0,0-1.52.42,3.82,3.82,0,0,1-2.19.48,3.93,3.93,0,0,1-1.89-1.14,3.5,3.5,0,0,0-1.33-.88,3.42,3.42,0,0,0-1.57.18,3,3,0,0,1-4-1.38,3.7,3.7,0,0,0-1.11-1.12,3.28,3.28,0,0,0-1.58-.19,3.64,3.64,0,0,1-2.2-.42,3.76,3.76,0,0,1-1.24-1.92,4.16,4.16,0,0,0-.74-1.39,3.74,3.74,0,0,0-1.44-.71,3.66,3.66,0,0,1-1.95-1.14,3.75,3.75,0,0,1-.48-2.29,3.92,3.92,0,0,0-.2-1.52,3.69,3.69,0,0,0-1.07-1.11,3.66,3.66,0,0,1-1.46-1.8,4,4,0,0,1,.29-2.22,3.71,3.71,0,0,0,.3-1.57,3.54,3.54,0,0,0-.72-1.38,4,4,0,0,1-.92-2.07,4.12,4.12,0,0,1,.79-2.17,3.4,3.4,0,0,0,.6-1.38,3.83,3.83,0,0,0-.52-1.68,3.94,3.94,0,0,1-.55-1.94,5,5,0,0,1,1-2.31,2.81,2.81,0,0,0,.57-1.1,3.26,3.26,0,0,0-.53-1.36,3.68,3.68,0,0,1-.66-2,3.55,3.55,0,0,1,1-1.89,3.27,3.27,0,0,0,.78-1.22,3.33,3.33,0,0,0-.26-1.42,2.66,2.66,0,0,1,1.13-3.74,2,2,0,0,0,1-2.51,2.71,2.71,0,0,1,1.85-3.46,3.37,3.37,0,0,0,1.2-.83,3.16,3.16,0,0,0,.34-1.45,3.5,3.5,0,0,1,.59-2,3.57,3.57,0,0,1,1.88-1,3.31,3.31,0,0,0,1.35-.58,3.21,3.21,0,0,0,.58-1.34,3.68,3.68,0,0,1,1-1.89,3.46,3.46,0,0,1,2.07-.62,3.19,3.19,0,0,0,1.41-.32,3.31,3.31,0,0,0,.84-1.21,2.68,2.68,0,0,1,3.44-1.84,3.35,3.35,0,0,0,1.46,0,3.29,3.29,0,0,0,1.05-1,2.67,2.67,0,0,1,3.75-1.13,3.51,3.51,0,0,0,1.43.26,3.25,3.25,0,0,0,1.24-.78,3.53,3.53,0,0,1,1.85-1,3.58,3.58,0,0,1,2,.65,3.45,3.45,0,0,0,1.38.54,3.27,3.27,0,0,0,1.38-.54,3.61,3.61,0,0,1,2-.65,3.51,3.51,0,0,1,1.87,1,3.3,3.3,0,0,0,1.23.78,3.07,3.07,0,0,0,1.43-.26,3.56,3.56,0,0,1,2.12-.25,3.71,3.71,0,0,1,1.62,1.38,3.19,3.19,0,0,0,1.05,1,3.06,3.06,0,0,0,1.46,0,3.54,3.54,0,0,1,2.12.18,3.63,3.63,0,0,1,1.33,1.67,2,2,0,0,0,2.28,1.55,2.66,2.66,0,0,1,3,2.48,3.09,3.09,0,0,0,.58,1.33,3.16,3.16,0,0,0,1.33.58,3.68,3.68,0,0,1,1.9,1,3.58,3.58,0,0,1,.62,2.07,3.35,3.35,0,0,0,.31,1.41,3.31,3.31,0,0,0,1.21.84,2.66,2.66,0,0,1,1.83,3.44,2,2,0,0,0,1,2.51,2.68,2.68,0,0,1,1.13,3.73,3.39,3.39,0,0,0-.27,1.44,3.45,3.45,0,0,0,.79,1.25,2.65,2.65,0,0,1,.37,3.85,3.31,3.31,0,0,0-.55,1.37,2.9,2.9,0,0,0,.54,1.11,5.17,5.17,0,0,1,1,2.46,4.06,4.06,0,0,1-.6,2,4.27,4.27,0,0,0-.57,1.71,3.84,3.84,0,0,0,.55,1.44,4.3,4.3,0,0,1,.71,2.19,4.36,4.36,0,0,1-1,2.09,4,4,0,0,0-.79,1.38,4,4,0,0,0,.2,1.57,4.16,4.16,0,0,1,.15,2.33,4,4,0,0,1-1.58,1.73,2.67,2.67,0,0,0-1.47,2.67,4,4,0,0,1-.63,2.25,4.2,4.2,0,0,1-2.11,1.1,4.28,4.28,0,0,0-1.44.61,4.46,4.46,0,0,0-.83,1.36,3,3,0,0,1-3.62,2.27,4.29,4.29,0,0,0-1.62.16,3.91,3.91,0,0,0-1.21,1.12,4.17,4.17,0,0,1-1.72,1.45,4.39,4.39,0,0,1-2.26-.15,4.13,4.13,0,0,0-1.63-.19,4.22,4.22,0,0,0-1.4.89,3.12,3.12,0,0,1-4.13.65,3.89,3.89,0,0,0-1.59-.42,4,4,0,0,0-1.52.72,4.46,4.46,0,0,1-2,.87,4.08,4.08,0,0,1-2-.67,3.78,3.78,0,0,0-1.62-.61,3.64,3.64,0,0,0-1.54.58A4.11,4.11,0,0,1,216.76,203.55Zm3.52-2.28a4.49,4.49,0,0,1,2.1.73,3.31,3.31,0,0,0,1.48.55,3.74,3.74,0,0,0,1.52-.71,3.33,3.33,0,0,1,4-.39,3.66,3.66,0,0,0,1.65.41,3.77,3.77,0,0,0,1.47-.9,3.33,3.33,0,0,1,3.89-.9,3.85,3.85,0,0,0,1.72.17,3.54,3.54,0,0,0,1.26-1.14,4.65,4.65,0,0,1,1.58-1.4,5.1,5.1,0,0,1,2-.24,3.59,3.59,0,0,0,1.72-.22,3.63,3.63,0,0,0,1-1.48,5.08,5.08,0,0,1,1.09-1.69,5,5,0,0,1,1.8-.81,3.55,3.55,0,0,0,1.62-.77,3.35,3.35,0,0,0,.41-1.71,5.11,5.11,0,0,1,.44-2,4.84,4.84,0,0,1,1.43-1.42,3.22,3.22,0,0,0,1.23-1.25,3.49,3.49,0,0,0-.17-1.76,3.43,3.43,0,0,1,.75-3.79,3.76,3.76,0,0,0,.83-1.57,3.84,3.84,0,0,0-.59-1.66,4.36,4.36,0,0,1-.67-1.89,5,5,0,0,1,.68-2.17,3.41,3.41,0,0,0,.5-1.47,4.44,4.44,0,0,0-.83-2,3.4,3.4,0,0,1-.69-1.64,4,4,0,0,1,.67-1.86,2.91,2.91,0,0,0,.53-1.42,3,3,0,0,0-.79-1.3,4,4,0,0,1-1-1.71,4,4,0,0,1,.29-1.92,3,3,0,0,0,.24-1.52,2.85,2.85,0,0,0-1-1.13,3.94,3.94,0,0,1-1.31-1.45,4,4,0,0,1-.1-1.95,3.08,3.08,0,0,0-.06-1.54,3,3,0,0,0-1.24-.9,2.93,2.93,0,0,1-2.06-3.05,1.82,1.82,0,0,0-1.8-2.17,4,4,0,0,1-1.76-.82,4,4,0,0,1-.84-1.78,2.94,2.94,0,0,0-.63-1.4,3.09,3.09,0,0,0-1.48-.36,3.94,3.94,0,0,1-1.93-.51,4.13,4.13,0,0,1-1.15-1.57,1.78,1.78,0,0,0-2.45-1.32,3.88,3.88,0,0,1-1.95-.09,4,4,0,0,1-1.46-1.32,1.76,1.76,0,0,0-2.64-.8,2.9,2.9,0,0,1-3.61-.71,2.92,2.92,0,0,0-1.31-.79,2.87,2.87,0,0,0-1.44.54,4.06,4.06,0,0,1-1.86.66,4,4,0,0,1-1.86-.67,1.75,1.75,0,0,0-2.73.26,3.79,3.79,0,0,1-1.69,1,4,4,0,0,1-1.92-.29,3,3,0,0,0-1.54-.24,3.08,3.08,0,0,0-1.13,1,3.81,3.81,0,0,1-1.45,1.32,3.92,3.92,0,0,1-2,.09,1.77,1.77,0,0,0-2.43,1.31,2.91,2.91,0,0,1-3.05,2.06,2.86,2.86,0,0,0-1.51.39,3,3,0,0,0-.65,1.41,2.9,2.9,0,0,1-2.61,2.6,3,3,0,0,0-1.39.64,2.91,2.91,0,0,0-.37,1.47,3.84,3.84,0,0,1-.51,1.93,4,4,0,0,1-1.56,1.15,2.87,2.87,0,0,0-1.25.92,2.92,2.92,0,0,0-.06,1.53,4,4,0,0,1-.1,2,3.91,3.91,0,0,1-1.32,1.46,1.74,1.74,0,0,0-.8,2.64,2.89,2.89,0,0,1-.71,3.6,2.81,2.81,0,0,0-.79,1.32,2.88,2.88,0,0,0,.53,1.44,3.91,3.91,0,0,1,.66,1.85,3.13,3.13,0,0,1-.75,1.66,4.32,4.32,0,0,0-.87,1.84,3.41,3.41,0,0,0,.46,1.42,4.62,4.62,0,0,1,.62,2.16,4.16,4.16,0,0,1-.74,1.84,3.36,3.36,0,0,0-.65,1.62,3.23,3.23,0,0,0,.74,1.53,3.33,3.33,0,0,1,.55,3.84,3.28,3.28,0,0,0-.27,1.66,3,3,0,0,0,1.12,1.28,4.66,4.66,0,0,1,1.35,1.45,4.75,4.75,0,0,1,.29,1.95,3,3,0,0,0,.29,1.7,2.86,2.86,0,0,0,1.46.78,4.48,4.48,0,0,1,1.83,1,4.77,4.77,0,0,1,1,1.73,3.14,3.14,0,0,0,.87,1.46,3,3,0,0,0,1.62.24,4.15,4.15,0,0,1,2.06.3,4.51,4.51,0,0,1,1.45,1.4,2.08,2.08,0,0,0,2.91,1,4.31,4.31,0,0,1,2-.19,4.18,4.18,0,0,1,1.77,1.12,3.24,3.24,0,0,0,1.39.89,3,3,0,0,0,1.62-.4,4.06,4.06,0,0,1,2-.5,4.18,4.18,0,0,1,1.91.88,3.27,3.27,0,0,0,1.49.71,3.08,3.08,0,0,0,1.55-.57A4.24,4.24,0,0,1,220.28,201.27Z"/>
      <g>
        <polyline class="cls-6" points="240.3 185.99 240.98 210.25 208.11 214.28 211.56 195.59"/>
        <polygon class="cls-3" points="207.5 214.85 211.07 195.5 212.05 195.68 208.73 213.7 240.47 209.81 239.8 186 240.8 185.97 241.5 210.69 207.5 214.85"/>
      </g>
      <g>
        <path class="cls-6" d="M236.75,184.05a10.06,10.06,0,0,1,0-8.48,17.39,17.39,0,0,1,1-1.8,14.71,14.71,0,0,0,1.21-2.33c.9-2.33.51-4.92.1-7.2-.26-1.44-.64-3.05-1.8-4-1.41-1.07-3.43-.71-4.5-.39-.51.15-1,.33-1.54.52a13,13,0,0,1-3.07.83,8.3,8.3,0,0,1-6.64-2.7,12.68,12.68,0,0,1-2.58-3.54,5.23,5.23,0,0,1-2.92,4c-2.1.9-4.49.19-6.75-.67h-.07a9,9,0,0,0-1.68-.5c-2.86-.42-5.4,2.36-6.14,5.29a25,25,0,0,0-.6,4.55c-.07,1-.14,2-.29,3l1,11.29a63.11,63.11,0,0,0,2.85,7.75c4.68,10.79,7.92,13.06,17.45,13.06,10,0,13.85-2.65,18.35-13.58.1-.23.25-.58.45-1A10.08,10.08,0,0,1,236.75,184.05Z"/>
        <path class="cls-3" d="M221.78,203.3c-9.85,0-13.2-2.5-17.91-13.36a65.15,65.15,0,0,1-2.87-7.81L200,170.69v-.06c.15-1,.22-2,.29-3a25,25,0,0,1,.61-4.66c.81-3.16,3.53-6.14,6.71-5.67a8.77,8.77,0,0,1,1.7.5l.14,0c2.05.77,4.39,1.52,6.39.67a4.68,4.68,0,0,0,2.61-3.59l.23-1.6.72,1.45a12,12,0,0,0,2.48,3.4,7.78,7.78,0,0,0,6.26,2.56A12.92,12.92,0,0,0,231,160c.52-.2,1.06-.38,1.58-.54,1.16-.34,3.35-.73,4.94.48,1.31,1,1.71,2.73,2,4.26.45,2.46.81,5.06-.12,7.47a15,15,0,0,1-1.26,2.42,15.29,15.29,0,0,0-.94,1.74,9.26,9.26,0,0,0,3.62,12l.39.23-.19.4-.44,1C236.05,200.44,232.18,203.3,221.78,203.3ZM201,170.72,202,182a66.15,66.15,0,0,0,2.8,7.58c4.56,10.5,7.58,12.77,17,12.77,10,0,13.5-2.61,17.89-13.27.06-.16.16-.38.27-.64a10.54,10.54,0,0,1-3.63-4.12h0a10.57,10.57,0,0,1,0-8.9,18.46,18.46,0,0,1,1-1.86,13.78,13.78,0,0,0,1.18-2.25c.83-2.16.49-4.6.07-6.92-.25-1.35-.59-2.85-1.62-3.65-1.28-1-3.26-.54-4.05-.31-.5.15-1,.32-1.5.51a13.82,13.82,0,0,1-3.18.85,8.72,8.72,0,0,1-7.08-2.85,13.58,13.58,0,0,1-2.05-2.54,5.69,5.69,0,0,1-2.86,3.09c-2.33,1-4.86.21-7.06-.62l-.17,0a9,9,0,0,0-1.58-.48c-2.56-.38-4.89,2.26-5.57,4.92a24.53,24.53,0,0,0-.58,4.45C201.18,168.7,201.11,169.71,201,170.72Z"/>
      </g>
      <g>
        <path class="cls-6" d="M201.46,182.22v-.15a1.72,1.72,0,0,1-.07-.21Z"/>
        <path class="cls-3" d="M201,182.31l-.06-.36,1-.2a.88.88,0,0,0,.05.15l0,.17v.15Z"/>
      </g>
      <g>
        <path class="cls-6" d="M211.41,154.73l.17.38a3.55,3.55,0,0,0,.06-.47h0Z"/>
        <path class="cls-3" d="M211.79,156.87l-.73-1.71a1.89,1.89,0,0,1-.11-.25l-.2-.48,1.43-.51,0,.76c0,.17,0,.34-.07.52Z"/>
      </g>
      <path class="cls-3" d="M221.75,184.7a4.1,4.1,0,0,1-3.85-5.46c1.48-4.67-.6-9.75-2.74-11.32l.59-.81c2.33,1.72,4.78,7.13,3.09,12.45a3.1,3.1,0,0,0,1.9,4,3.05,3.05,0,0,0,1.12.17h1.42v1h-1.53Z"/>
      <path class="cls-3" d="M233.74,170.11a14.72,14.72,0,0,0-2.84-.92,11,11,0,0,0-4.58,0,14.72,14.72,0,0,0-2.84.92l-.4-.91a15.31,15.31,0,0,1,3-1,11.87,11.87,0,0,1,5,0,16,16,0,0,1,3,1Z"/>
      <g class="cls-7">
        <circle class="cls-3" cx="228.6" cy="170.22" r="2.32"/>
      </g>
      <path class="cls-3" d="M216.69,170.11a14.72,14.72,0,0,0-2.84-.92,11,11,0,0,0-4.58,0,14.63,14.63,0,0,0-2.83.92l-.41-.91a15.31,15.31,0,0,1,3-1,11.87,11.87,0,0,1,5,0,16.36,16.36,0,0,1,3,1Z"/>
      <g class="cls-8">
        <circle class="cls-3" cx="211.56" cy="170.22" r="2.32"/>
      </g>
      <g>
        <path class="cls-3" d="M200,172.12c.72-2.93.4-6,1.16-9s3.29-5.82,6.3-5.4a8.65,8.65,0,0,1,1.8.53c2.14.81,4.55,1.54,6.67.67a5,5,0,0,0,2.4-6.68,2.44,2.44,0,0,0-.14-.28l.63,2.7a12.36,12.36,0,0,0,2.7,3.89,8.25,8.25,0,0,0,6.55,2.63,26.36,26.36,0,0,0,4.6-1.35,5.19,5.19,0,0,1,4.59.43c1.27,1,1.61,2.53,1.88,4,.44,2.39.76,4.93-.1,7.19-.55,1.45-1.53,2.7-2.2,4.1a9.85,9.85,0,0,0,4.67,13.12,10.11,10.11,0,0,0,1.77.64l6.08-5.4-1.69-26.89L221.3,143.88l-22.94,11.23-4.5,19.75,4.5,12.66Z"/>
        <path class="cls-3" d="M243.45,189.9l-.25-.07a10.06,10.06,0,0,1-1.86-.67,10.35,10.35,0,0,1-4.91-13.79c.29-.61.64-1.19,1-1.75a14.54,14.54,0,0,0,1.21-2.3c.84-2.22.49-4.74.08-6.93-.28-1.55-.6-2.89-1.69-3.73-1.27-1-3.15-.63-4.15-.34a25.82,25.82,0,0,1-4.64,1.36,8.77,8.77,0,0,1-7-2.78,13,13,0,0,1-2.14-2.74,5.47,5.47,0,0,1-2.87,3.22c-2.24.93-4.72.23-7.06-.65a8.82,8.82,0,0,0-1.71-.51c-2.66-.37-5,2.27-5.72,5a24.44,24.44,0,0,0-.59,4.51,27.21,27.21,0,0,1-.56,4.45l-1.92,17.54-5.28-14.86,4.59-20.12,23.37-11.45,26.89,13.43,1.73,27.41ZM234.82,159a4.5,4.5,0,0,1,2.79.85c1.37,1,1.76,2.65,2.07,4.34.45,2.49.76,5.12-.14,7.46a15.08,15.08,0,0,1-1.28,2.46c-.32.54-.66,1.11-.93,1.67a9.35,9.35,0,0,0,4.44,12.46,11.54,11.54,0,0,0,1.42.54l5.7-5.06-1.66-26.36L221.3,144.43l-22.5,11-4.42,19.37,3.72,10.47,1.46-13.3a25.92,25.92,0,0,0,.54-4.31,26.12,26.12,0,0,1,.62-4.69c.82-3.15,3.5-6.23,6.85-5.77a10.14,10.14,0,0,1,1.92.57c2.14.8,4.39,1.45,6.28.66a4.45,4.45,0,0,0,2.31-2.54,4.94,4.94,0,0,0,.27-1.3l-1.44-6.11,1.76,3.22a3,3,0,0,1,.16.31,5.58,5.58,0,0,1,.52,2.51h0a11.87,11.87,0,0,0,2.56,3.64,7.73,7.73,0,0,0,6.17,2.49,26.1,26.1,0,0,0,4.44-1.31A8.23,8.23,0,0,1,234.82,159Z"/>
      </g>
      <path class="cls-3" d="M220.69,192.4c-.42,0-.83,0-1.24-.07l.1-1a10.45,10.45,0,0,0,3.57-.22l.23,1A11.45,11.45,0,0,1,220.69,192.4Z"/>
      <g>
        <path class="cls-5" d="M241.57,168.79c1.06-.49,1.8-1.9,3.09-1.89,5.26,0,2.48,9.28-.78,10.38"/>
        <path class="cls-3" d="M244,177.75l-.32-.95c1.92-.64,3.75-4.68,3.32-7.33a2.2,2.2,0,0,0-2.38-2.07h0a2.54,2.54,0,0,0-1.61.92,5.79,5.79,0,0,1-1.26.93l-.42-.91a4.68,4.68,0,0,0,1-.76,3.42,3.42,0,0,1,2.28-1.18,3.18,3.18,0,0,1,3.37,2.91C248.54,172.46,246.42,177,244,177.75Z"/>
      </g>
      <g>
        <path class="cls-3" d="M244.88,184.14c-.37-2.17,1.47-2.48,1.1-4.64s-2.21-1.85-2.59-4,1.48-2.48,1.11-4.64-2.21-1.85-2.58-4,1.46-2.47,1.1-4.64l-2,.28.6,5.88-.16,7.07.9,6.09Z"/>
        <path class="cls-3" d="M245.64,185.64l-3.79-3.88-.92-6.25.15-7.16-.64-6.3,3-.41.08.48a3.58,3.58,0,0,1-.61,2.66,2.54,2.54,0,0,0-.49,2,2.51,2.51,0,0,0,1.12,1.7,3.52,3.52,0,0,1,1.46,2.31,3.42,3.42,0,0,1-.62,2.65,2.5,2.5,0,0,0-.48,2,2.55,2.55,0,0,0,1.12,1.71,3.52,3.52,0,0,1,.85,5,2.57,2.57,0,0,0-.49,2Zm-2.85-4.35,1.61,1.64a4.3,4.3,0,0,1,.6-1.37,2.54,2.54,0,0,0-.63-3.68,3.54,3.54,0,0,1-1.47-2.31,3.43,3.43,0,0,1,.62-2.66,2.53,2.53,0,0,0,.49-2,2.56,2.56,0,0,0-1.12-1.71,5.06,5.06,0,0,1-.82-.79l-.15,7Zm-1.26-18.38.19,1.92c.1-.2.21-.38.32-.56a2.92,2.92,0,0,0,.53-1.5Z"/>
      </g>
      <g>
        <path class="cls-9" d="M209.88,205.22l-18.61,9.89a19.17,19.17,0,0,0-6.76,6c-4.18,6.05-7.06,22.37-8.86,29.23H278.2a2.19,2.19,0,0,0,.29-1.39c-1.8-7.56-4.66-22.25-8.51-27.88a19.08,19.08,0,0,0-6.76-6L241,205.17Z"/>
        <path class="cls-3" d="M278.48,250.86H175l.16-.63c.41-1.55.87-3.56,1.4-5.88,1.79-7.91,4.25-18.74,7.54-23.5a19.72,19.72,0,0,1,6.94-6.18l18.71-9.95h31.41l22.26,9.89a19.72,19.72,0,0,1,7,6.19c3.31,4.85,5.83,16,7.68,24.13.32,1.44.62,2.77.9,3.93a2.73,2.73,0,0,1-.35,1.75Zm-102.19-1h101.6A1.8,1.8,0,0,0,278,249c-.27-1.11-.57-2.44-.9-3.88-1.82-8.06-4.32-19.1-7.53-23.78a18.66,18.66,0,0,0-6.59-5.86l-22.13-9.84-30.85.05-18.49,9.83a18.84,18.84,0,0,0-6.59,5.86c-3.17,4.61-5.61,15.33-7.39,23.16C177.07,246.6,176.66,248.4,176.29,249.86Z"/>
      </g>
      <g>
        <rect class="cls-10" x="149.28" y="178.82" width="82.08" height="54.68"/>
        <path class="cls-3" d="M231.87,234H148.78V178.32h83.09Zm-82.09-1h81.09V179.32H149.78Z"/>
      </g>
      <g>
        <rect class="cls-10" x="184.18" y="217.66" width="12.28" height="30.08"/>
        <path class="cls-3" d="M197,248.24H183.68V217.16H197Zm-12.28-1H196V218.16H184.68Z"/>
      </g>
      <g>
        <path class="cls-9" d="M232.71,243.37l-5.06-1.48,5.5-19.2a2.62,2.62,0,0,1,3.26-1.8h0a2.62,2.62,0,0,1,1.8,3.26h0Z"/>
        <path class="cls-3" d="M233.05,244l-6-1.76,5.64-19.68a3.13,3.13,0,1,1,6,1.74Zm-4.78-2.44,4.09,1.2L237.73,224a2.08,2.08,0,0,0-.18-1.62,2.11,2.11,0,0,0-1.28-1,2.09,2.09,0,0,0-1.62.18,2.11,2.11,0,0,0-1,1.28Z"/>
      </g>
      <path class="cls-3" d="M239.92,227.77l-1-.29.74-2.5a.6.6,0,0,0-.4-.73.57.57,0,0,0-.71.4l-1-.27a1.57,1.57,0,0,1,1.94-1.09,1.59,1.59,0,0,1,1.1,2Z"/>
      <rect class="cls-3" x="234.99" y="221.41" width="1" height="5.27" transform="translate(-45.53 387.39) rotate(-73.74)"/>
      <g>
        <path class="cls-10" d="M165.73,245.18h49.2a3.67,3.67,0,0,1,3.67,3.67v1.47H162.05v-1.47A3.67,3.67,0,0,1,165.73,245.18Z"/>
        <path class="cls-3" d="M219.1,250.82H161.55v-2a4.18,4.18,0,0,1,4.18-4.18h49.2a4.2,4.2,0,0,1,4.17,4.18Zm-56.55-1H218.1v-1a3.19,3.19,0,0,0-3.17-3.18h-49.2a3.18,3.18,0,0,0-3.18,3.18Z"/>
      </g>
      <g>
        <circle class="cls-10" cx="190.32" cy="213.84" r="12.87"/>
        <path class="cls-3" d="M190.32,227.22a13.38,13.38,0,1,1,13.37-13.38A13.39,13.39,0,0,1,190.32,227.22Zm0-25.75a12.38,12.38,0,1,0,12.37,12.37A12.39,12.39,0,0,0,190.32,201.47Z"/>
      </g>
      <g>
        <path class="cls-6" d="M223.38,243.64h0a11.52,11.52,0,0,1,9.89-2.94l5.91,1.06a11.56,11.56,0,0,1,4.29,1.7l.63.42a3.5,3.5,0,0,1-1.91,6.43H226a3.86,3.86,0,0,1-2.62-6.67Z"/>
        <path class="cls-3" d="M242.2,250.81H226a4.35,4.35,0,0,1-4.34-4.38,4.41,4.41,0,0,1,1.38-3.16h0a12.06,12.06,0,0,1,10.32-3.06l5.91,1a12.3,12.3,0,0,1,4.47,1.78l.64.42a4,4,0,0,1-2.18,7.35ZM223.72,244h0a3.36,3.36,0,0,0-1.06,2.43,3.36,3.36,0,0,0,3.34,3.38h16.2a3,3,0,0,0,1.63-5.51l-.64-.43a11.22,11.22,0,0,0-4.1-1.62l-5.9-1.05A11.07,11.07,0,0,0,223.72,244Z"/>
      </g>
      <g>
        <rect class="cls-10" x="250.88" y="239.04" width="2.27" height="8.79"/>
        <path class="cls-3" d="M253.64,248.33h-3.26v-9.79h3.26Zm-2.26-1h1.26v-7.79h-1.26Z"/>
      </g>
      <g>
        <path class="cls-10" d="M246.06,245.46h11.88a3.38,3.38,0,0,1,3.38,3.39h0v1.34H242.68v-1.34a3.39,3.39,0,0,1,3.38-3.39Z"/>
        <path class="cls-3" d="M261.82,250.69H242.18v-1.84a3.89,3.89,0,0,1,3.88-3.89h11.88a3.89,3.89,0,0,1,3.88,3.89Zm-18.64-1h17.64v-.84a2.89,2.89,0,0,0-2.88-2.89H246.06a2.9,2.9,0,0,0-2.88,2.89Z"/>
      </g>
      <g>
        <rect class="cls-10" x="238.85" y="227.76" width="26.32" height="13.56"/>
        <path class="cls-3" d="M265.67,241.82H238.35V227.26h27.32Zm-26.32-1h25.32V228.26H239.35Z"/>
      </g>
      <g class="cls-11">
        <path class="cls-12" d="M244.91,231.16c1.77,0,3.15.76,3.15,3.26s-1.41,3.26-3.19,3.26h-1.49v-6.52Zm-.07,1.09h-.11v4.33h.11c1.1,0,1.79-.45,1.79-2.16S245.94,232.25,244.84,232.25Z"/>
        <path class="cls-12" d="M249.46,231.16h3.95v1.16h-2.6v1.45h2.42v1.16h-2.42v1.59h2.6v1.16h-3.95Z"/>
        <path class="cls-12" d="M258.05,237.68h-1.68l-1.69-6.52h1.47l1.06,4.79,1.07-4.79h1.44Z"/>
      </g>
    </g>
    <g>
      <g class="cls-11">
        <g class="cls-11">
          <path class="cls-12" d="M409.3,176.12a4,4,0,0,1,1.84.43,3.28,3.28,0,0,1,1.36,1.33,5.06,5.06,0,0,1,0,4.47,3.34,3.34,0,0,1-1.36,1.33,4,4,0,0,1-1.84.43h-2.5v-8Zm1.45,6a2.42,2.42,0,0,0,.77-2,2.45,2.45,0,0,0-.77-2,3.11,3.11,0,0,0-1.92-.58h-.55v5.25h.55A3.11,3.11,0,0,0,410.75,182.15Z"/>
        </g>
        <g class="cls-11">
          <path class="cls-12" d="M419.47,181.69h-4a1.55,1.55,0,0,0,.45,1,1.31,1.31,0,0,0,.92.33,1.4,1.4,0,0,0,.81-.22,1.86,1.86,0,0,0,.58-.67l1.15.42a2.91,2.91,0,0,1-1,1.25,2.82,2.82,0,0,1-1.63.43,2.61,2.61,0,0,1-1.56-.44,2.55,2.55,0,0,1-.91-1.12,3.42,3.42,0,0,1-.29-1.41,3.49,3.49,0,0,1,.29-1.41,2.54,2.54,0,0,1,2.47-1.56,2.61,2.61,0,0,1,1.51.43,2.65,2.65,0,0,1,.89,1.08,3.29,3.29,0,0,1,.28,1.34ZM418,180.57a1.53,1.53,0,0,0-.4-.79,1.13,1.13,0,0,0-.83-.31,1.23,1.23,0,0,0-.79.28,1.61,1.61,0,0,0-.47.82Z"/>
        </g>
        <g class="cls-11">
          <path class="cls-12" d="M420.06,178.35h1.42l1.17,4,1.16-4h1.43l-1.95,5.76H422Z"/>
        </g>
        <g class="cls-11">
          <path class="cls-12" d="M431.19,181.69h-4a1.55,1.55,0,0,0,.45,1,1.31,1.31,0,0,0,.92.33,1.4,1.4,0,0,0,.81-.22,1.88,1.88,0,0,0,.59-.67l1.14.42a2.91,2.91,0,0,1-1,1.25,2.8,2.8,0,0,1-1.63.43,2.61,2.61,0,0,1-1.56-.44,2.55,2.55,0,0,1-.91-1.12,3.59,3.59,0,0,1-.29-1.41,3.67,3.67,0,0,1,.29-1.41,2.54,2.54,0,0,1,2.47-1.56,2.5,2.5,0,0,1,2.4,1.51,3.3,3.3,0,0,1,.29,1.34Zm-1.45-1.12a1.62,1.62,0,0,0-.41-.79,1.13,1.13,0,0,0-.83-.31,1.2,1.2,0,0,0-.78.28,1.54,1.54,0,0,0-.47.82Z"/>
          <path class="cls-12" d="M432.47,176h1.41v8.09h-1.41Z"/>
          <path class="cls-12" d="M436.52,183.81a2.52,2.52,0,0,1-1-1.06,3.48,3.48,0,0,1,0-3,2.58,2.58,0,0,1,1-1.06,3,3,0,0,1,1.57-.39,3,3,0,0,1,1.56.39,2.58,2.58,0,0,1,1,1.06,3.48,3.48,0,0,1,0,3,2.52,2.52,0,0,1-1,1.06,3,3,0,0,1-1.56.39A3,3,0,0,1,436.52,183.81Zm2.62-1.33a2,2,0,0,0,.39-1.25,2,2,0,0,0-.39-1.25,1.34,1.34,0,0,0-2.1,0,2,2,0,0,0-.39,1.25,2,2,0,0,0,.39,1.25,1.34,1.34,0,0,0,2.1,0Z"/>
          <path class="cls-12" d="M443.71,178.35v.6a1.21,1.21,0,0,1,.52-.47,1.75,1.75,0,0,1,.87-.22,2.41,2.41,0,0,1,1.95.81,3.79,3.79,0,0,1,0,4.33,2.43,2.43,0,0,1-1.95.8,1.91,1.91,0,0,1-.81-.18,1.6,1.6,0,0,1-.58-.43v2.85h-1.42v-8.09Zm2.16,4.17a2.43,2.43,0,0,0,0-2.58,1.2,1.2,0,0,0-1-.47,1.18,1.18,0,0,0-1,.47,2,2,0,0,0-.37,1.29,2.07,2.07,0,0,0,.37,1.3,1.22,1.22,0,0,0,1.92,0Z"/>
          <path class="cls-12" d="M454.14,181.69h-4a1.55,1.55,0,0,0,.45,1,1.31,1.31,0,0,0,.92.33,1.4,1.4,0,0,0,.81-.22,2,2,0,0,0,.59-.67l1.14.42a2.91,2.91,0,0,1-1,1.25,2.82,2.82,0,0,1-1.63.43,2.61,2.61,0,0,1-1.56-.44,2.55,2.55,0,0,1-.91-1.12,3.59,3.59,0,0,1-.29-1.41,3.67,3.67,0,0,1,.29-1.41,2.54,2.54,0,0,1,2.47-1.56,2.59,2.59,0,0,1,1.51.43,2.65,2.65,0,0,1,.89,1.08,3.3,3.3,0,0,1,.29,1.34Zm-1.45-1.12a1.62,1.62,0,0,0-.41-.79,1.13,1.13,0,0,0-.83-.31,1.23,1.23,0,0,0-.79.28,1.53,1.53,0,0,0-.46.82Z"/>
          <path class="cls-12" d="M456.83,178.35v.94a2.3,2.3,0,0,1,.76-.76,1.77,1.77,0,0,1,.94-.27,2.29,2.29,0,0,1,.7.12l-.26,1.31a1.12,1.12,0,0,0-.6-.16,1.29,1.29,0,0,0-1.1.61,3.37,3.37,0,0,0-.44,1.93v2h-1.41v-5.76Z"/>
        </g>
      </g>
      <g>
        <rect class="cls-3" x="411.81" y="132.75" width="1" height="61.42" transform="translate(64.29 438.41) rotate(-59.94)"/>
        <rect class="cls-3" x="416.69" y="126.4" width="1" height="61.42" transform="translate(10.95 340.68) rotate(-44.95)"/>
        <rect class="cls-3" x="423.04" y="121.53" width="1" height="61.42" transform="translate(-19.42 231.96) rotate(-29.97)"/>
        <rect class="cls-3" x="430.44" y="118.47" width="1" height="61.42" transform="translate(-23.92 116.54) rotate(-14.99)"/>
        <rect class="cls-3" x="438.39" y="117.43" width="1" height="61.42"/>
        <rect class="cls-3" x="416.12" y="148.68" width="61.42" height="1" transform="translate(187.18 542.24) rotate(-75.01)"/>
        <rect class="cls-3" x="423.52" y="151.74" width="61.41" height="1" transform="translate(95.72 470) rotate(-60.08)"/>
        <rect class="cls-3" x="429.87" y="156.61" width="61.42" height="1" transform="translate(23.96 372) rotate(-45.04)"/>
        <rect class="cls-3" x="434.75" y="162.96" width="61.41" height="1" transform="translate(-19.18 255.64) rotate(-30.12)"/>
        <circle class="cls-2" cx="438.89" cy="169.06" r="44.62"/>
        <g>
          <path class="cls-4" d="M464.86,154.9c0-3.22,1.06-6.87-.73-9.58-1.66-2.5-5.54-3.15-8.37-4.95-2.55-1.62-4.6-5-7.82-5.8-2.94-.78-6.4,1-9.67,1s-6.76-1.76-9.66-1c-3.22.88-5.28,4.17-7.81,5.8-2.84,1.75-6.72,2.45-8.38,4.95-1.76,2.71-.73,6.36-.73,9.58,0,1.76-3.42,6.31-2.05,10.48a6.25,6.25,0,0,0,2.93,3.21,20.72,20.72,0,0,0,.88,10.67l7.49,7.29-.25-15.45c.11.06,1,.37,1.12.42,2.42,1.24,1.05,4.22,5.22,4.83,2.9.42,6.44-1.58,10.37-1.58s7.66,2,10.66,1.59a13.16,13.16,0,0,0,5.53-2.32c0,.08-.08.15-.12.23a9.6,9.6,0,0,0,6.25,13.41,16.15,16.15,0,0,0,5.44-13.13l-.49-6.75a5.09,5.09,0,0,0,1.68-2.08C468.08,161.49,464.86,156.76,464.86,154.9Z"/>
          <path class="cls-3" d="M459.85,188.23l-.26-.06a10.77,10.77,0,0,1-1.75-.64,10.13,10.13,0,0,1-5.32-12.22,13.54,13.54,0,0,1-4.38,1.54,14.93,14.93,0,0,1-5.42-.7,21.6,21.6,0,0,0-5.32-.88,21.2,21.2,0,0,0-5.26.88,13.42,13.42,0,0,1-5.18.69,4.29,4.29,0,0,1-3.9-3,3.29,3.29,0,0,0-1.47-1.87l-.39-.14.26,15.92L413,179.53l0-.1a21.24,21.24,0,0,1-1-10.57,6.88,6.88,0,0,1-2.85-3.29c-1-3,.31-6.1,1.25-8.35a8.45,8.45,0,0,0,.77-2.32c0-.84-.07-1.7-.14-2.61-.21-2.52-.43-5.12.95-7.24,1.16-1.75,3.29-2.66,5.34-3.55a24.83,24.83,0,0,0,3.19-1.56,18.54,18.54,0,0,0,2.67-2.26c1.55-1.48,3.15-3,5.27-3.59,1.81-.47,3.81,0,5.75.39a19.83,19.83,0,0,0,4,.6,19.45,19.45,0,0,0,4-.6c1.94-.44,3.95-.88,5.78-.39,2.13.56,3.72,2.09,5.27,3.57A17.81,17.81,0,0,0,456,140a23.1,23.1,0,0,0,3.27,1.61c2,.87,4.11,1.77,5.25,3.49,1.4,2.12,1.18,4.71,1,7.22-.08.92-.15,1.78-.15,2.63a8.9,8.9,0,0,0,.67,2.32c.86,2.36,2.05,5.6.79,8.69a5.67,5.67,0,0,1-1.63,2.12l.47,6.48a16.58,16.58,0,0,1-5.61,13.55Zm-5.76-15.17v1a.76.76,0,0,1-.15.42,9.1,9.1,0,0,0,4.33,12.16,8.17,8.17,0,0,0,1.32.51,15.56,15.56,0,0,0,5.07-12.55l-.51-7,.22-.17a4.59,4.59,0,0,0,1.53-1.88c1.11-2.71,0-5.74-.81-7.95a9,9,0,0,1-.73-2.66c0-.89.08-1.82.16-2.71.21-2.45.41-4.76-.81-6.59-1-1.47-2.83-2.27-4.8-3.12a23.62,23.62,0,0,1-3.42-1.69,19.93,19.93,0,0,1-2.85-2.4c-1.45-1.4-2.95-2.84-4.83-3.34a11.68,11.68,0,0,0-5.3.4,19.75,19.75,0,0,1-4.24.63,20.76,20.76,0,0,1-4.27-.62,11.87,11.87,0,0,0-5.27-.41c-1.87.51-3.38,2-4.84,3.35a20.19,20.19,0,0,1-2.82,2.39,27,27,0,0,1-3.33,1.63c-2,.86-3.91,1.68-4.9,3.18-1.19,1.83-1,4.26-.8,6.61.08.89.15,1.81.15,2.69a8.26,8.26,0,0,1-.85,2.71c-.88,2.1-2.09,5-1.23,7.62a5.79,5.79,0,0,0,2.69,2.92l.33.17-.07.36a20.27,20.27,0,0,0,.82,10.3l6.54,6.37-.24-15.09.75.4c.07,0,.35.14.6.23l.49.18a4.17,4.17,0,0,1,2,2.36,3.37,3.37,0,0,0,3.14,2.42,12.89,12.89,0,0,0,4.78-.67,22,22,0,0,1,5.51-.91,22.6,22.6,0,0,1,5.57.91,13.92,13.92,0,0,0,5,.68,12.58,12.58,0,0,0,5.3-2.23Z"/>
        </g>
        <g>
          <path class="cls-13" d="M417.77,174.3c.39-.05,2.11.17,2.28-.3,0,0,.51-5.08,1.18-5.93-.64-.57-3-3.76-3.84-3.76C412.5,164.34,414.42,174.76,417.77,174.3Z"/>
          <path class="cls-3" d="M417.56,174.82a2.8,2.8,0,0,1-2.21-1.37c-1.33-1.88-2-5.57-.82-7.86a3.08,3.08,0,0,1,2.85-1.78c.72,0,1.6.89,3.29,2.88.38.44.73.86.9,1l.35.31-.3.37c-.36.46-.83,3.24-1.07,5.67l0,.12c-.24.68-1.29.66-2.22.63a3.42,3.42,0,0,0-.46,0h0Zm-.19-10a2.1,2.1,0,0,0-1.95,1.24c-1,1.88-.39,5.21.74,6.82a1.79,1.79,0,0,0,1.55.94h0a3.83,3.83,0,0,1,.62,0,5.73,5.73,0,0,0,1.24-.05,27.12,27.12,0,0,1,1.05-5.59l-.71-.82C419.29,166.61,417.83,164.89,417.37,164.81Z"/>
        </g>
        <g>
          <polyline class="cls-14" points="456.77 184.4 457.44 208.09 425.32 212.03 428.69 193.78"/>
          <polygon class="cls-3" points="424.7 212.61 428.2 193.69 429.19 193.87 425.94 211.45 456.92 207.65 456.27 184.41 457.27 184.38 457.95 208.54 424.7 212.61"/>
        </g>
        <g>
          <path class="cls-13" d="M453.3,182.51a9.85,9.85,0,0,1,0-8.29c.28-.6.62-1.17.95-1.75a15.44,15.44,0,0,0,1.19-2.28c.88-2.28.5-4.81.1-7-.27-1.41-.63-3-1.76-3.87-1.38-1-3.35-.69-4.39-.38-.51.15-1,.32-1.51.51a13.14,13.14,0,0,1-3,.81,8.14,8.14,0,0,1-6.48-2.64,12.76,12.76,0,0,1-2.52-3.45,4.41,4.41,0,0,1-.21.87,4.72,4.72,0,0,1-2.63,3c-2,.88-4.4.19-6.6-.65h-.06a9.23,9.23,0,0,0-1.65-.49c-2.79-.41-5.27,2.3-6,5.17a24.67,24.67,0,0,0-.59,4.44c-.06,1,.38,10.34.71,14a63.35,63.35,0,0,0,2.78,7.56c4.58,10.55,7.74,12.76,17.05,12.76,9.79,0,13.54-2.58,17.93-13.26.09-.23.24-.57.43-1A9.75,9.75,0,0,1,453.3,182.51Z"/>
          <path class="cls-3" d="M438.68,201.3c-9.63,0-12.9-2.44-17.51-13.06a64.34,64.34,0,0,1-2.8-7.62c-.34-3.67-.79-13.1-.73-14.18a25.57,25.57,0,0,1,.6-4.52c.78-3.1,3.45-6,6.56-5.55a9.18,9.18,0,0,1,1.67.48l.13,0c2,.76,4.29,1.5,6.23.66a4.19,4.19,0,0,0,2.35-2.67,4.79,4.79,0,0,0,.2-.81l.24-1.57.7,1.43a12.08,12.08,0,0,0,2.41,3.31,7.64,7.64,0,0,0,6.11,2.5,12.33,12.33,0,0,0,2.85-.78c.51-.19,1-.37,1.56-.52,1.13-.34,3.27-.72,4.83.47,1.26,1,1.67,2.67,1.95,4.17.44,2.4.79,5-.12,7.3a16.66,16.66,0,0,1-1.24,2.37l-.25.43c-.23.42-.47.84-.67,1.27a9,9,0,0,0,3.55,11.67l.38.23-.18.41c-.19.42-.34.75-.42,1C452.64,198.51,448.85,201.3,438.68,201.3Zm-14.53-44c-2.31,0-4.32,2.4-4.93,4.83a23.47,23.47,0,0,0-.58,4.34c-.06.94.38,10.26.71,13.94a63.91,63.91,0,0,0,2.74,7.41c4.45,10.25,7.39,12.46,16.59,12.46,9.75,0,13.18-2.54,17.47-13,.06-.15.14-.36.26-.62a10.18,10.18,0,0,1-3.56-4h0a10.36,10.36,0,0,1,0-8.71c.22-.45.46-.89.71-1.33l.26-.46A14.76,14.76,0,0,0,455,170c.81-2.1.48-4.49.07-6.75-.25-1.32-.6-2.79-1.58-3.56-1.25-.95-3.17-.53-3.94-.3-.5.14-1,.32-1.48.5a13.72,13.72,0,0,1-3.11.83,8.58,8.58,0,0,1-6.92-2.79,12.72,12.72,0,0,1-2-2.46,5.23,5.23,0,0,1-2.81,3c-2.15.92-4.58.26-6.89-.61l-.16,0a9.21,9.21,0,0,0-1.55-.46Z"/>
        </g>
        <g>
          <path class="cls-13" d="M418.83,180.72v-.14c0-.08-.05-.14-.06-.21Z"/>
          <path class="cls-3" d="M418.33,180.81l-.06-.35,1-.21a.79.79,0,0,1,.08.33v.14Z"/>
        </g>
        <path class="cls-13" d="M435.67,153.86a3.34,3.34,0,0,0,.17.38,1.75,1.75,0,0,1,0-.46h0Z"/>
        <path class="cls-3" d="M438.64,183.15a4,4,0,0,1-1.31-.22,4,4,0,0,1-2.46-5.12c1.45-4.56-.58-9.51-2.67-11.05l.59-.8c2.29,1.67,4.68,7,3,12.17a3,3,0,0,0,1.85,3.85,3.11,3.11,0,0,0,1.09.17h1.38v1h-1.49Z"/>
        <path class="cls-3" d="M433.54,168.8a7.07,7.07,0,0,0-5.88-1.64c-2,.26-3.46,1.06-3.74,1.54l-.87-.5c.54-.91,2.43-1.77,4.49-2a8,8,0,0,1,6.71,1.92Z"/>
        <g class="cls-15">
          <circle class="cls-3" cx="428.69" cy="169" r="2.27"/>
        </g>
        <path class="cls-3" d="M449.72,168.81a7,7,0,0,0-5.89-1.65c-2,.26-3.46,1.06-3.74,1.54l-.86-.5c.54-.91,2.42-1.76,4.47-2a8,8,0,0,1,6.72,1.92Z"/>
        <g class="cls-16">
          <circle class="cls-3" cx="444.86" cy="169" r="2.27" transform="translate(206.78 581.05) rotate(-80.78)"/>
        </g>
        <path class="cls-3" d="M437.58,190.67c-.41,0-.81,0-1.22-.06l.11-1a10.18,10.18,0,0,0,3.48-.22l.23,1A11.46,11.46,0,0,1,437.58,190.67Z"/>
        <g>
          <path class="cls-13" d="M459.67,175.47a2.61,2.61,0,0,1-.71-1.06h0l-.11-.37v-.15c-.37-2.12,1.43-2.43,1.07-4.54-.26-1.53-1.29-1.75-2-2.63.65-.57,1.27-1.24,2.13-1.23C465,165.5,462.69,173.84,459.67,175.47Z"/>
          <path class="cls-3" d="M459.59,176.08l-.26-.24a3.14,3.14,0,0,1-.84-1.26l-.14-.69a3.3,3.3,0,0,1,.61-2.53,2.49,2.49,0,0,0,.47-1.92,2.44,2.44,0,0,0-1.06-1.62,5.08,5.08,0,0,1-.81-.8l-.29-.37.56-.5a3.41,3.41,0,0,1,2.23-1.16h0a3,3,0,0,1,3.19,2.46c.71,2.79-1.06,7.22-3.37,8.46Zm-.24-2.12.09.31a2.08,2.08,0,0,0,.31.56,8.16,8.16,0,0,0,2.55-7.14,2,2,0,0,0-2.22-1.7h0a2.29,2.29,0,0,0-1.41.76c.11.11.23.2.35.31a3.34,3.34,0,0,1,1.41,2.21,3.48,3.48,0,0,1-.6,2.6,2.47,2.47,0,0,0-.48,1.93Z"/>
        </g>
        <g>
          <path class="cls-4" d="M461,203.18l18.17,9.67a18.65,18.65,0,0,1,6.6,5.88c3.77,5.45,6.55,19.8,8.32,27.24a2.08,2.08,0,0,1-.3,1.35h-105c1.75-6.7,4.57-22.64,8.65-28.55a18.75,18.75,0,0,1,6.6-5.88l23-9.66"/>
          <path class="cls-3" d="M494.08,247.82H388.13l.16-.63c.4-1.51.85-3.47,1.36-5.74,1.76-7.73,4.16-18.31,7.37-23a19.29,19.29,0,0,1,6.78-6l23-9.68.39.92-23,9.66a18.34,18.34,0,0,0-6.38,5.7c-3.09,4.5-5.47,15-7.21,22.62-.45,2-.85,3.72-1.21,5.15H493.5a1.68,1.68,0,0,0,.11-.8c-.28-1.12-.58-2.47-.91-3.94-1.78-7.83-4.21-18.56-7.33-23.07a18.37,18.37,0,0,0-6.42-5.72l-18.17-9.67.47-.88,18.17,9.67a19.23,19.23,0,0,1,6.77,6c3.23,4.67,5.69,15.51,7.48,23.42.33,1.46.64,2.81.92,4a2.74,2.74,0,0,1-.36,1.73Z"/>
        </g>
        <g>
          <path class="cls-13" d="M457.54,193.73a22.91,22.91,0,0,0,2.34-5.68,2.41,2.41,0,0,1,4.78.56,2.56,2.56,0,0,1-.05.27c-.73,4.23-5.6,12.75-10,17.51a2.41,2.41,0,0,1-3.4.13"/>
          <path class="cls-3" d="M452.84,207.66a2.9,2.9,0,0,1-2-.77l.68-.74a1.9,1.9,0,0,0,2.69-.1c4.35-4.71,9.16-13.1,9.88-17.26,0-.1,0-.17.05-.24a1.91,1.91,0,0,0-3.79-.44A23.32,23.32,0,0,1,458,194l-.86-.5a22,22,0,0,0,2.28-5.55,2.91,2.91,0,0,1,5.77.74,3,3,0,0,1-.06.32c-.74,4.28-5.67,12.92-10.13,17.74A2.88,2.88,0,0,1,452.84,207.66Z"/>
        </g>
        <g>
          <path class="cls-13" d="M450.58,205.09a2.27,2.27,0,0,1-1,.22,2.41,2.41,0,0,1-1-4.6c1.82-.82,3.16-2.82,4-4.24a34,34,0,0,0,4.5-13.07,2.41,2.41,0,0,1,4.77.61,37,37,0,0,1-1.31,6.15"/>
          <path class="cls-3" d="M449.6,205.81h0a2.86,2.86,0,0,1-2-.86,2.9,2.9,0,0,1,.85-4.69c1.7-.77,3-2.68,3.78-4a33.4,33.4,0,0,0,4.44-12.88,2.9,2.9,0,0,1,5.76.71,39.16,39.16,0,0,1-1.33,6.26l-1-.29a37.29,37.29,0,0,0,1.3-6.07,1.91,1.91,0,0,0-3.79-.46A34.3,34.3,0,0,1,453,196.73c-.87,1.48-2.27,3.55-4.23,4.44a1.92,1.92,0,0,0-1.11,1.72,1.9,1.9,0,0,0,.56,1.35,1.83,1.83,0,0,0,1.34.57,2.19,2.19,0,0,0,.78-.17l.42.9A2.73,2.73,0,0,1,449.6,205.81Z"/>
        </g>
        <g>
          <path class="cls-13" d="M459.4,186.51a2.4,2.4,0,1,0-4.8.26h0a3.72,3.72,0,0,1-.35,2.2,6.46,6.46,0,0,1-2,1,17.26,17.26,0,0,0-6.79,4.14,9.08,9.08,0,0,0-2.09,9.62,27.5,27.5,0,0,0,3.9,7c.41.57.76,1.07,1,1.43a2.42,2.42,0,0,0,3.3.82,2.46,2.46,0,0,0,.88-1l7-7.49"/>
          <path class="cls-3" d="M450.28,213.85h0a3,3,0,0,1-2.49-1.4c-.2-.35-.55-.84-.94-1.4a27.64,27.64,0,0,1-4-7.15,9.56,9.56,0,0,1,2.21-10.14,17.94,17.94,0,0,1,7-4.27,5.79,5.79,0,0,0,1.81-.85,3.15,3.15,0,0,0,.24-1.79,3,3,0,0,1,.73-2.15,2.87,2.87,0,0,1,2-1,2.91,2.91,0,0,1,3.05,2.74l-1,.05a1.94,1.94,0,0,0-.63-1.31,1.9,1.9,0,0,0-3.17,1.52,4.06,4.06,0,0,1-.4,2.45l-.05.11-.1.07a6.79,6.79,0,0,1-2.21,1.08,16.88,16.88,0,0,0-6.56,4,8.6,8.6,0,0,0-2,9.12,26.78,26.78,0,0,0,3.82,6.87c.44.62.78,1.11,1,1.49a1.93,1.93,0,0,0,1.64.91,1.72,1.72,0,0,0,1-.27,2,2,0,0,0,.69-.76l.08-.11,7-7.49.73.68-7,7.44a2.89,2.89,0,0,1-1,1.09A2.82,2.82,0,0,1,450.28,213.85Z"/>
        </g>
        <g>
          <path class="cls-4" d="M483,225,459.4,201.32l-14.89,13.23L474.57,247a5,5,0,0,0,2.64,1.66L488,250.84a5,5,0,0,0,6-3.66,5.23,5.23,0,0,0,.14-1.3"/>
          <path class="cls-3" d="M489.11,251.48a5.57,5.57,0,0,1-1.27-.15L477.1,249.1a5.5,5.5,0,0,1-2.92-1.83L443.8,214.52l15.62-13.89,24,24-.71.71L459.38,202l-14.16,12.58,29.72,32a4.4,4.4,0,0,0,2.39,1.51l10.73,2.23a4.47,4.47,0,0,0,5.39-3.29,4.56,4.56,0,0,0,.12-1.17l1,0a5.7,5.7,0,0,1-.15,1.43A5.47,5.47,0,0,1,489.11,251.48Z"/>
        </g>
        <g>
          <rect class="cls-10" x="364.38" y="177.4" width="80.18" height="53.41"/>
          <path class="cls-3" d="M445.05,231.32H363.88V176.9h81.17Zm-80.17-1h79.17V177.9H364.88Z"/>
        </g>
        <g>
          <rect class="cls-10" x="398.95" y="213.53" width="11.04" height="31.78"/>
          <path class="cls-3" d="M410.49,245.81h-12V213h12Zm-11-1h10V214h-10Z"/>
        </g>
        <g>
          <path class="cls-10" d="M382.35,242.61h44.21a3.3,3.3,0,0,1,3.3,3.3h0v1.32H379.05v-1.32a3.3,3.3,0,0,1,3.3-3.3Z"/>
          <path class="cls-3" d="M430.36,247.73H378.55v-1.82a3.8,3.8,0,0,1,3.8-3.8h44.21a3.8,3.8,0,0,1,3.8,3.8Zm-50.81-1h49.81v-.82a2.8,2.8,0,0,0-2.8-2.8H382.35a2.81,2.81,0,0,0-2.8,2.8Z"/>
        </g>
        <g>
          <circle class="cls-10" cx="404.47" cy="210.11" r="11.57"/>
          <path class="cls-3" d="M404.47,222.18a12.07,12.07,0,1,1,12.07-12.07A12.08,12.08,0,0,1,404.47,222.18Zm0-23.14a11.07,11.07,0,1,0,11.07,11.07A11.08,11.08,0,0,0,404.47,199Z"/>
        </g>
        <g>
          <rect class="cls-10" x="457.01" y="236.22" width="2.21" height="8.58"/>
          <path class="cls-3" d="M459.72,245.31H456.5v-9.59h3.22Zm-2.22-1h1.22v-7.59H457.5Z"/>
        </g>
        <g>
          <path class="cls-10" d="M452.31,242.49h11.6a3.31,3.31,0,0,1,3.31,3.31h0v1.32H449V245.8a3.31,3.31,0,0,1,3.3-3.31Z"/>
          <path class="cls-3" d="M467.71,247.62h-19.2V245.8a3.81,3.81,0,0,1,3.8-3.81h11.6a3.81,3.81,0,0,1,3.8,3.81Zm-18.2-1h17.2v-.82a2.8,2.8,0,0,0-2.8-2.81h-11.6a2.81,2.81,0,0,0-2.8,2.81Z"/>
        </g>
        <g>
          <rect class="cls-10" x="444.83" y="225.2" width="26.86" height="13.24"/>
          <path class="cls-3" d="M472.19,238.94H444.33V224.7h27.86Zm-26.86-1h25.86V225.7H445.33Z"/>
        </g>
        <g>
          <path class="cls-10" d="M387.78,232.21a3.34,3.34,0,1,1-3.33,3.33,3.33,3.33,0,0,1,3.33-3.33h0m0-3.89a7.23,7.23,0,1,0,7.23,7.22,7.23,7.23,0,0,0-7.23-7.22Z"/>
          <path class="cls-3" d="M387.78,243.27a7.73,7.73,0,1,1,7.73-7.73A7.74,7.74,0,0,1,387.78,243.27Zm0-14.45a6.73,6.73,0,1,0,6.73,6.72A6.73,6.73,0,0,0,387.78,228.82Zm0,10.56a3.84,3.84,0,1,1,3.84-3.84A3.84,3.84,0,0,1,387.78,239.38Zm0-6.67a2.84,2.84,0,1,0,2.84,2.83A2.83,2.83,0,0,0,387.78,232.71Z"/>
        </g>
        <g>
          <rect class="cls-10" x="364.38" y="225.03" width="18.73" height="22.2"/>
          <path class="cls-3" d="M383.61,247.73H363.88v-23.2h19.73Zm-18.73-1h17.73v-21.2H364.88Z"/>
        </g>
        <g class="cls-11">
          <path class="cls-12" d="M452.59,228.41c1.72,0,2.49,1.32,2.49,3.29s-.77,3.31-2.49,3.31-2.5-1.33-2.5-3.31S450.86,228.41,452.59,228.41Zm0,5.56c.81,0,1.1-.92,1.1-2.27s-.29-2.26-1.1-2.26-1.1.92-1.1,2.26S451.78,234,452.59,234Z"/>
          <path class="cls-12" d="M458.22,228.52c1.46,0,2.47.48,2.47,2s-1,1.94-2.47,1.94h-.65v2.47h-1.32v-6.37Zm-.65,1.07v1.77h.61c.61,0,1.1-.2,1.1-.88s-.49-.89-1.1-.89Z"/>
          <path class="cls-12" d="M464,228.41a2.07,2.07,0,0,1,2.2,2h-1.26a1,1,0,0,0-1-1,.74.74,0,0,0-.83.71c0,.4.23.7.8.84l.55.14c.85.22,1.89.63,1.89,1.92a2,2,0,0,1-2.18,2,2.33,2.33,0,0,1-2.48-2.23h1.27c.1.72.49,1.22,1.18,1.22a.78.78,0,0,0,.88-.76c0-.47-.31-.78-.93-.94l-.65-.18a2,2,0,0,1-1.65-1.87A2,2,0,0,1,464,228.41Z"/>
        </g>
      </g>
      <g>
        <path class="cls-4" d="M491.7,243.1a13.35,13.35,0,0,1,.57,3.77"/>
        <path class="cls-3" d="M491.77,246.88a12.79,12.79,0,0,0-.55-3.64l1-.28a14,14,0,0,1,.59,3.91Z"/>
      </g>
    </g>
    <g>
      <path class="cls-3" d="M604.79,163.37c0-4.4,1.67-9.13.08-13s-6.23-6.15-9.23-9.12-5.15-7.57-9.13-9.23-8.56.07-13,.07-9.14-1.67-13-.07-6.15,6.22-9.12,9.23-7.57,5.14-9.22,9.12.07,8.57.07,13c0,2.48-3.74,8.13-2.92,13.93.59,4.21,4.39,7.45,8.15,11,2.76,2.64,5.44,7,11,8.37,3.77.88,8.6-1.18,14-1.18s10.43,2.11,14.32,1.22c5.64-1.29,8.57-5.67,11.5-8.21,4.09-3.52,8.13-6.61,9-10.82C608.36,171.81,604.79,166,604.79,163.37Z"/>
      <path class="cls-3" d="M584.67,197.44a33.59,33.59,0,0,1-5.48-.66,37.66,37.66,0,0,0-6.72-.78,38.55,38.55,0,0,0-6.67.76c-2.69.47-5.23.92-7.44.4-4.42-1.06-7-3.95-9.32-6.5-.65-.72-1.26-1.4-1.87-2l-.93-.87c-3.5-3.28-6.81-6.39-7.37-10.43-.55-3.85.86-7.66,1.89-10.44a13.69,13.69,0,0,0,1-3.56,38.64,38.64,0,0,0-.38-4.51c-.38-3-.76-6,.35-8.66s3.59-4.63,6-6.45a33.32,33.32,0,0,0,3.37-2.83,35.63,35.63,0,0,0,2.74-3.29c1.84-2.4,3.76-4.89,6.54-6s5.71-.72,8.66-.35a27,27,0,0,0,9,0c3-.37,6-.75,8.66.35s4.65,3.6,6.48,6a31.85,31.85,0,0,0,2.81,3.35,34.17,34.17,0,0,0,3.29,2.75c2.41,1.85,4.89,3.75,6.05,6.54s.71,5.72.34,8.68a38.13,38.13,0,0,0-.38,4.49,14.39,14.39,0,0,0,.92,3.58c1,2.9,2.28,6.87,1.52,10.83s-4.29,7-8,10.16l-1.11.94c-.69.6-1.39,1.31-2.13,2.06-2.42,2.46-5.16,5.26-9.59,6.27A10.16,10.16,0,0,1,584.67,197.44ZM572.47,195a39.26,39.26,0,0,1,6.9.79c2.68.47,5.22.92,7.31.44,4.14-.94,6.78-3.63,9.1-6,.75-.77,1.46-1.49,2.19-2.11l1.11-.95c3.58-3.05,7-5.93,7.67-9.59s-.51-7.37-1.49-10.32a14.44,14.44,0,0,1-1-3.9,37.72,37.72,0,0,1,.39-4.62c.37-3,.72-5.75-.28-8.17s-3.43-4.36-5.73-6.13a34.43,34.43,0,0,1-3.38-2.83,34.88,34.88,0,0,1-2.91-3.45c-1.75-2.27-3.55-4.62-6.06-5.66s-5.2-.66-8.15-.29a27.8,27.8,0,0,1-9.28,0c-2.95-.37-5.74-.72-8.14.28s-4.37,3.44-6.14,5.74a37.12,37.12,0,0,1-2.82,3.38,34,34,0,0,1-3.48,2.92c-2.26,1.74-4.6,3.54-5.64,6s-.65,5.21-.28,8.16a37.71,37.71,0,0,1,.39,4.63,13.36,13.36,0,0,1-1.08,3.9c-1.05,2.83-2.35,6.36-1.84,10s3.7,6.68,7.07,9.84l.93.88c.64.61,1.26,1.31,1.93,2,2.2,2.44,4.69,5.21,8.8,6.2,2,.47,4.34.06,7-.41A38.05,38.05,0,0,1,572.47,195Z"/>
      <g>
        <polyline class="cls-5" points="592.02 180.74 592.69 204.44 560.57 208.37 563.95 190.12"/>
        <polygon class="cls-3" points="559.96 208.95 563.45 190.03 564.44 190.21 561.19 207.79 592.17 204 591.52 180.75 592.52 180.72 593.2 204.88 559.96 208.95"/>
      </g>
      <g>
        <path class="cls-5" d="M588.55,178.85a9.85,9.85,0,0,1,0-8.29,14.88,14.88,0,0,1,1-1.75,16.4,16.4,0,0,0,1.18-2.28c.88-2.28.5-4.81.1-7-.26-1.4-.63-3-1.76-3.86-1.37-1-3.35-.7-4.39-.39-.51.15-1,.32-1.51.51a13.06,13.06,0,0,1-3,.81,8.13,8.13,0,0,1-6.49-2.64,12.76,12.76,0,0,1-2.52-3.45,4.51,4.51,0,0,1-.21.88,4.72,4.72,0,0,1-2.63,3c-2,.88-4.4.19-6.59-.65h-.07a9.23,9.23,0,0,0-1.65-.49c-2.79-.41-5.27,2.3-6,5.17a24.67,24.67,0,0,0-.59,4.44c-.06,1-.13,2-.28,3q.51,5.52,1,11a64.2,64.2,0,0,0,2.79,7.57c4.58,10.54,7.74,12.75,17.05,12.75,9.78,0,13.53-2.58,17.92-13.26.1-.22.24-.57.43-1A9.88,9.88,0,0,1,588.55,178.85Z"/>
        <path class="cls-3" d="M573.94,197.64c-9.63,0-12.9-2.44-17.51-13.06a64.87,64.87,0,0,1-2.81-7.62v-.1q-.5-5.51-1-11v-.12c.14-1,.21-2,.27-2.94a25.69,25.69,0,0,1,.6-4.52c.78-3.1,3.45-6,6.56-5.55a8.46,8.46,0,0,1,1.67.49l.15,0c2.46.93,4.46,1.4,6.21.65a4.19,4.19,0,0,0,2.35-2.67,4.79,4.79,0,0,0,.2-.81l.24-1.57.7,1.43a12,12,0,0,0,2.42,3.31,7.58,7.58,0,0,0,6.11,2.5,12.12,12.12,0,0,0,2.84-.78c.52-.19,1-.37,1.56-.52,1.14-.34,3.28-.72,4.83.47,1.23,1,1.66,2.57,1.95,4.17.44,2.4.79,5-.12,7.3a16,16,0,0,1-1.23,2.36,17.6,17.6,0,0,0-.93,1.71,9,9,0,0,0,3.55,11.67l.38.23-.18.41c-.17.36-.29.66-.38.88l0,.11C587.89,194.85,584.11,197.64,573.94,197.64ZM554.6,176.73a63.31,63.31,0,0,0,2.75,7.45c4.45,10.25,7.39,12.46,16.59,12.46,9.75,0,13.18-2.54,17.46-12.95l0-.1c.06-.14.13-.32.22-.51a10.43,10.43,0,0,1-3.56-4h0a10.36,10.36,0,0,1,0-8.71,19.76,19.76,0,0,1,1-1.81,15.34,15.34,0,0,0,1.15-2.2c.81-2.1.48-4.49.07-6.75-.24-1.31-.58-2.77-1.58-3.56-1.24-.95-3.17-.53-3.94-.3-.5.14-1,.32-1.48.5a13.5,13.5,0,0,1-3.1.83,8.6,8.6,0,0,1-6.93-2.79,12.72,12.72,0,0,1-2-2.46,5.23,5.23,0,0,1-2.81,3c-2.15.92-4.58.26-6.88-.61l-.17,0a8.4,8.4,0,0,0-1.55-.47c-2.5-.37-4.76,2.21-5.41,4.8a24.35,24.35,0,0,0-.58,4.34c-.06,1-.13,2-.27,3C554,169.44,554.27,173.08,554.6,176.73Z"/>
      </g>
      <g>
        <path class="cls-5" d="M554.08,177.07v-.15l-.06-.21Z"/>
        <path class="cls-3" d="M553.59,177.15l-.07-.35,1-.26a2,2,0,0,1,.07.26l0,.27Z"/>
      </g>
      <g>
        <path class="cls-5" d="M570.92,150.21c.06.13.11.25.17.37a1.68,1.68,0,0,1,0-.45h0Z"/>
        <path class="cls-3" d="M571.59,152.7l-1-1.89a3.79,3.79,0,0,1-.18-.42l-.19-.47,1.63-.62-.29,1a1.37,1.37,0,0,0,0,.31Z"/>
      </g>
      <path class="cls-3" d="M553.14,172.7c-1.15-2.21-2.22-4.49-3.19-6.78a7.73,7.73,0,0,1-.7-2.43,4.33,4.33,0,0,1,3-4.34l.29.95a3.34,3.34,0,0,0-2.33,3.31,6.66,6.66,0,0,0,.61,2.09c1,2.3,2,4.56,3.17,6.74Z"/>
      <path class="cls-3" d="M573.89,179.49a4,4,0,0,1-1.31-.22,4,4,0,0,1-2.29-2.05,4,4,0,0,1-.17-3.07c1.45-4.56-.57-9.51-2.67-11.05l.6-.8c2.28,1.67,4.67,7,3,12.17a3,3,0,0,0,2.94,4h1.38v1h-1.5Z"/>
      <path class="cls-3" d="M585.6,165.25a13.7,13.7,0,0,0-2.76-.9,10.62,10.62,0,0,0-4.49,0,13.41,13.41,0,0,0-2.75.9l-.41-.92a15.41,15.41,0,0,1,2.95-1,12,12,0,0,1,4.91,0,15.5,15.5,0,0,1,3,1Z"/>
      <g class="cls-17">
        <circle class="cls-3" cx="581.2" cy="165.34" r="2.27"/>
      </g>
      <path class="cls-3" d="M569,165.25a14.36,14.36,0,0,0-2.76-.9,10.62,10.62,0,0,0-4.49,0,13.41,13.41,0,0,0-2.75.9l-.41-.92a15.41,15.41,0,0,1,3-1,12,12,0,0,1,4.91,0,15.5,15.5,0,0,1,3,1Z"/>
      <g class="cls-18">
        <circle class="cls-3" cx="565.14" cy="165.34" r="2.27"/>
      </g>
      <g>
        <path class="cls-3" d="M552.7,167.2c.7-2.87.38-5.91,1.12-8.79s3.21-5.68,6.15-5.27a8.11,8.11,0,0,1,1.76.52c2.09.79,4.45,1.5,6.52.65a4.9,4.9,0,0,0,2.35-6.52c0-.1-.09-.19-.13-.27l.61,2.63a11.81,11.81,0,0,0,2.64,3.8,8.06,8.06,0,0,0,6.39,2.57,24.89,24.89,0,0,0,4.49-1.32,5.13,5.13,0,0,1,4.5.42c1.24.95,1.57,2.48,1.84,3.93.43,2.34.74,4.83-.11,7-.53,1.42-1.5,2.64-2.14,4A9.6,9.6,0,0,0,595,184l5.94-5.27-1.66-26.26-25.83-12.92-22.41,11-4.44,19.28L551,182.27Z"/>
        <path class="cls-3" d="M595.1,184.58l-.25-.07a9.81,9.81,0,0,1-1.81-.66,10.12,10.12,0,0,1-4.8-13.48,19.57,19.57,0,0,1,1-1.75,13.85,13.85,0,0,0,1.17-2.21c.82-2.16.47-4.63.08-6.76-.29-1.52-.6-2.83-1.65-3.64-1.24-.94-3.07-.61-4.06-.32a26,26,0,0,1-4.53,1.32,8.55,8.55,0,0,1-6.86-2.72,12.23,12.23,0,0,1-2.08-2.66,5.36,5.36,0,0,1-2.81,3.13c-2.2.91-4.62.23-6.91-.63a7.72,7.72,0,0,0-1.66-.5c-2.6-.36-4.88,2.21-5.58,4.91a24,24,0,0,0-.57,4.4,26,26,0,0,1-.55,4.35l-1.92,17.18-5.22-14.61,0-.14,4.49-19.52L573.42,139l26.31,13.15,1.7,26.79Zm-8.4-30.19a4.36,4.36,0,0,1,2.71.83c1.43,1.1,1.77,2.92,2,4.24.45,2.44.74,5-.13,7.3a14.89,14.89,0,0,1-1.24,2.38c-.34.56-.65,1.09-.92,1.65A9.13,9.13,0,0,0,593.47,183a8.39,8.39,0,0,0,1.37.52l5.56-4.93-1.63-25.73-25.35-12.68-22,10.76-4.36,18.91,3.67,10.26,1.45-13a24,24,0,0,0,.53-4.21,24.79,24.79,0,0,1,.6-4.58c.8-3.08,3.43-6.11,6.7-5.64a8.33,8.33,0,0,1,1.88.55c2.08.78,4.28,1.41,6.14.65a4.39,4.39,0,0,0,2.5-3.75L569.13,144l1.78,3.27c.05.1.1.19.14.29a5.4,5.4,0,0,1,.52,2.46h0a11.44,11.44,0,0,0,2.49,3.55,7.56,7.56,0,0,0,6,2.43,24.94,24.94,0,0,0,4.34-1.28A8.19,8.19,0,0,1,586.7,154.39Z"/>
      </g>
      <path class="cls-3" d="M572.83,187a12.1,12.1,0,0,1-1.21-.06l.1-1a9.94,9.94,0,0,0,3.48-.22l.23,1A11.46,11.46,0,0,1,572.83,187Z"/>
      <g>
        <path class="cls-5" d="M593.26,164c1-.49,1.76-1.87,3-1.86,5.14,0,2.44,9.07-.76,10.14"/>
        <path class="cls-3" d="M595.67,172.71l-.32-1c1.87-.63,3.65-4.57,3.23-7.14a2.13,2.13,0,0,0-2.31-2h0a2.5,2.5,0,0,0-1.55.9,5.29,5.29,0,0,1-1.24.91l-.42-.91a4.21,4.21,0,0,0,1-.74,3.38,3.38,0,0,1,2.23-1.16,3.15,3.15,0,0,1,3.31,2.87C600.07,167.53,598,171.93,595.67,172.71Z"/>
      </g>
      <g>
        <path class="cls-3" d="M596.49,178.94c-.36-2.12,1.43-2.43,1.07-4.54s-2.16-1.8-2.52-3.92,1.44-2.41,1.08-4.52-2.17-1.81-2.53-3.92,1.44-2.42,1.08-4.53l-2,.27.58,5.75-.16,6.9.93,5.95Z"/>
        <path class="cls-3" d="M597.26,180.46l-3.69-3.85-1-6.1.16-7-.63-6.16,2.94-.4.09.47a3.45,3.45,0,0,1-.61,2.61,2.51,2.51,0,0,0-.48,1.93,2.48,2.48,0,0,0,1.1,1.66,3.48,3.48,0,0,1,1.44,2.26,3.41,3.41,0,0,1-.61,2.59,2.51,2.51,0,0,0,.61,3.6,3.36,3.36,0,0,1,1.44,2.25,3.44,3.44,0,0,1-.6,2.6,2.47,2.47,0,0,0-.48,1.93Zm-2.75-4.31,1.51,1.57a4.37,4.37,0,0,1,.58-1.31,2.48,2.48,0,0,0-.62-3.58,3.48,3.48,0,0,1-.83-4.87,2.44,2.44,0,0,0,.48-1.92,2.51,2.51,0,0,0-1.09-1.66,4.88,4.88,0,0,1-.78-.74l-.15,6.8Zm-1.28-17.94.19,1.82c.09-.18.19-.35.28-.51a2.66,2.66,0,0,0,.52-1.45Z"/>
      </g>
      <g>
        <rect class="cls-10" x="601.06" y="232.56" width="2.21" height="8.58"/>
        <path class="cls-3" d="M603.77,241.65h-3.21v-9.59h3.21Zm-2.21-1h1.21v-7.59h-1.21Z"/>
      </g>
      <g>
        <path class="cls-10" d="M596.36,238.84H608a3.3,3.3,0,0,1,3.3,3.3h0v1.32h-18.2v-1.32A3.29,3.29,0,0,1,596.36,238.84Z"/>
        <path class="cls-3" d="M611.76,244h-19.2v-1.82a3.8,3.8,0,0,1,3.8-3.8H608a3.8,3.8,0,0,1,3.8,3.8Zm-18.2-1h17.2v-.82a2.8,2.8,0,0,0-2.8-2.8h-11.6a2.8,2.8,0,0,0-2.8,2.8Z"/>
      </g>
      <g>
        <rect class="cls-10" x="589.3" y="221.54" width="25.11" height="13.24"/>
        <path class="cls-3" d="M614.91,235.29H588.8V221h26.11Zm-25.11-1h24.11V222H589.8Z"/>
      </g>
      <g class="cls-11">
        <path class="cls-12" d="M595.75,224.75c1.72,0,2.49,1.32,2.49,3.29s-.77,3.31-2.49,3.31-2.5-1.33-2.5-3.31S594,224.75,595.75,224.75Zm0,5.56c.81,0,1.09-.92,1.09-2.27s-.28-2.25-1.09-2.25-1.1.91-1.1,2.25S594.94,230.31,595.75,230.31Z"/>
        <path class="cls-12" d="M601.38,224.86c1.46,0,2.47.48,2.47,2s-1,1.94-2.47,1.94h-.65v2.48h-1.32v-6.38Zm-.65,1.08v1.76h.61c.61,0,1.1-.2,1.1-.88s-.49-.88-1.1-.88Z"/>
        <path class="cls-12" d="M607.11,224.75a2.08,2.08,0,0,1,2.2,2h-1.26a1,1,0,0,0-1-1,.74.74,0,0,0-.83.71c0,.41.23.7.8.85l.55.14c.85.21,1.88.62,1.88,1.91a2,2,0,0,1-2.17,2,2.33,2.33,0,0,1-2.48-2.22h1.27c.1.72.49,1.21,1.18,1.21a.78.78,0,0,0,.88-.76c0-.47-.31-.78-.93-.94l-.65-.17a1.88,1.88,0,1,1,.57-3.72Z"/>
      </g>
      <g>
        <rect class="cls-10" x="499.63" y="173.74" width="80.18" height="53.41"/>
        <path class="cls-3" d="M580.31,227.66H499.13V173.24h81.18Zm-80.18-1h79.18V174.24H500.13Z"/>
      </g>
      <g>
        <rect class="cls-10" x="534.2" y="209.88" width="11.04" height="31.78"/>
        <path class="cls-3" d="M545.74,242.16h-12V209.38h12Zm-11-1h10V210.38h-10Z"/>
      </g>
      <g>
        <path class="cls-10" d="M517.61,238.84h44.23a3.3,3.3,0,0,1,3.3,3.3h0v1.32H514.29v-1.32a3.3,3.3,0,0,1,3.31-3.3Z"/>
        <path class="cls-3" d="M565.64,244H513.79v-1.82a3.81,3.81,0,0,1,3.81-3.8h44.24a3.8,3.8,0,0,1,3.8,3.8Zm-50.85-1h49.85v-.82a2.8,2.8,0,0,0-2.8-2.8H517.6a2.8,2.8,0,0,0-2.81,2.8Z"/>
      </g>
      <g>
        <circle class="cls-10" cx="539.72" cy="206.45" r="11.57"/>
        <path class="cls-3" d="M539.72,218.52a12.07,12.07,0,1,1,12.07-12.07A12.08,12.08,0,0,1,539.72,218.52Zm0-23.14a11.07,11.07,0,1,0,11.07,11.07A11.08,11.08,0,0,0,539.72,195.38Z"/>
      </g>
    </g>
    <g>
      <path class="cls-19" d="M125.71,193c0-6.1,3.4-12.46,2.05-17.88-1.5-6-7.6-9.85-10.43-14.61-3.2-5.35-4.1-12.58-8.61-15.75-4.92-3.49-11.7-1.64-17.58-1.64s-12.66-1.86-17.59,1.64c-4.47,3.17-5.41,10.4-8.61,15.75-2.83,4.75-8.93,8.63-10.42,14.6-1.36,5.43,2,11.79,2,17.89,0,3.49-5.19,10.87-4.76,18.94.32,6,5.39,11.49,8.28,17.18,2.66,5.26,4.1,12.73,10.57,15.68,4.78,2.18,11.68-.56,19.28-.56s14.66,2.81,19.6.7c6.73-2.86,8.53-10.31,11.49-15.46,3.28-5.75,8.55-11,9-17.14C130.74,204.24,125.71,196.69,125.71,193Z"/>
      <path class="cls-3" d="M105.06,246.25a47.08,47.08,0,0,1-6.73-.68,58.34,58.34,0,0,0-8.39-.8,58.64,58.64,0,0,0-8.23.76c-4.38.63-8.16,1.17-11.26-.24-5.12-2.34-7.22-7.45-9.06-12-.58-1.41-1.13-2.74-1.74-4-.9-1.76-2-3.54-3.13-5.26-2.45-3.85-5-7.83-5.21-12.11-.27-5.1,1.61-9.83,3.13-13.63.87-2.2,1.63-4.1,1.63-5.34a34.84,34.84,0,0,0-1.2-7.69C54,181.7,53.22,178.27,54,175c1-3.81,3.66-6.74,6.28-9.58a33,33,0,0,0,4.19-5.15A42.19,42.19,0,0,0,67.38,154c1.51-3.85,2.94-7.49,5.88-9.58,3.82-2.71,8.63-2.34,13.28-2,1.53.11,3.12.24,4.6.24s3.06-.12,4.59-.24c4.65-.36,9.47-.73,13.28,2,3,2.09,4.39,5.73,5.89,9.59a42.49,42.49,0,0,0,2.86,6.32,33.27,33.27,0,0,0,4.2,5.18c2.62,2.83,5.33,5.75,6.28,9.56.81,3.24,0,6.67-.83,10.3a34.92,34.92,0,0,0-1.2,7.7,19.49,19.49,0,0,0,1.54,5.46c1.44,3.9,3.24,8.75,2.8,13.93-.34,4.4-3.11,8.41-5.79,12.28-1.14,1.65-2.32,3.35-3.3,5.05-.7,1.23-1.33,2.57-2,4-2.08,4.43-4.44,9.44-9.72,11.69A11.71,11.71,0,0,1,105.06,246.25Zm-15.12-2.48a58.2,58.2,0,0,1,8.53.81c4.28.63,8,1.17,10.88-.07,4.93-2.1,7.11-6.72,9.21-11.19.67-1.44,1.31-2.81,2-4.06,1-1.75,2.18-3.47,3.33-5.13,2.73-3.94,5.31-7.65,5.63-11.8.41-5-1.34-9.69-2.75-13.49a19.92,19.92,0,0,1-1.6-5.81,35.1,35.1,0,0,1,1.23-7.92c.81-3.52,1.58-6.83.83-9.84-.89-3.56-3.51-6.39-6-9.12a34.21,34.21,0,0,1-4.33-5.35,42.85,42.85,0,0,1-2.93-6.47c-1.45-3.71-2.81-7.22-5.53-9.13-3.53-2.5-8.16-2.14-12.63-1.79-1.55.11-3.15.24-4.67.24s-3.13-.13-4.68-.25c-4.47-.35-9.1-.71-12.62,1.8-2.7,1.91-4.07,5.42-5.52,9.13a44,44,0,0,1-2.95,6.47,33.87,33.87,0,0,1-4.31,5.32c-2.54,2.74-5.16,5.58-6.05,9.14-.76,3,0,6.34.83,9.85A35.28,35.28,0,0,1,57.07,193c0,1.43-.75,3.32-1.7,5.71-1.48,3.71-3.32,8.33-3.07,13.21.22,4,2.68,7.88,5.07,11.63,1.11,1.74,2.25,3.54,3.17,5.34.63,1.26,1.19,2.61,1.77,4,1.87,4.55,3.79,9.25,8.56,11.43,2.82,1.28,6.47.76,10.7.16A58.6,58.6,0,0,1,89.94,243.77Z"/>
      <g>
        <polyline class="cls-14" points="108.07 191.08 108.69 213.21 78.7 216.89 81.85 199.84"/>
        <polygon class="cls-3" points="78.08 217.47 81.36 199.75 82.34 199.94 79.32 216.31 108.18 212.77 107.57 191.1 108.57 191.07 109.2 213.65 78.08 217.47"/>
      </g>
      <g>
        <path class="cls-14" d="M104.87,189.3a8.93,8.93,0,0,1-.47-6.39c.67-2.13,2.13-4,2.68-6.13a12.58,12.58,0,0,0-.37-6.27,5.13,5.13,0,0,0-1.36-2.69,4.43,4.43,0,0,0-4.1-.5,29.41,29.41,0,0,1-4.1,1.26A7.36,7.36,0,0,1,92,167.09a12.81,12.81,0,0,1-3.47-4.1,4.28,4.28,0,0,1-3.12,3.71,7.49,7.49,0,0,1-5-.5,1.68,1.68,0,0,1-.76-.52,1.81,1.81,0,0,1-.23-.78c-.25-2.1-3.6-3-4-2.16a26.1,26.1,0,0,0-2.1,4.93A39.42,39.42,0,0,0,72,179.46v.6a43.75,43.75,0,0,0,4.3,17.13c1.59,3.28,3.76,6.4,7,8a17,17,0,0,0,7.45,1.4c3.64,0,7.46-.37,10.47-2.4,3.67-2.47,5.49-6.87,7.11-11A8.88,8.88,0,0,1,104.87,189.3Z"/>
        <path class="cls-3" d="M90.06,207.1a17.59,17.59,0,0,1-7-1.45c-2.89-1.43-5.26-4.12-7.25-8.25a43.9,43.9,0,0,1-4.35-17.32v-.62a40,40,0,0,1,1.33-11.92,27.1,27.1,0,0,1,2.15-5c.24-.49.88-.69,1.76-.54,1.17.2,3,1.13,3.21,2.88a1.4,1.4,0,0,0,.16.6,1.37,1.37,0,0,0,.49.29,7.06,7.06,0,0,0,4.75.48,3.78,3.78,0,0,0,2.75-3.27l.15-1.65.79,1.46a12.2,12.2,0,0,0,3.34,3.94,6.81,6.81,0,0,0,4.76,1.39,27.82,27.82,0,0,0,4-1.23,4.87,4.87,0,0,1,4.61.59,5.7,5.7,0,0,1,1.53,3,13.13,13.13,0,0,1,.36,6.45,15.49,15.49,0,0,1-1.45,3.41,18.26,18.26,0,0,0-1.24,2.77,8.44,8.44,0,0,0,.45,6h0a8.28,8.28,0,0,0,3.21,3.67l.36.22-.15.38c-1.51,3.84-3.39,8.61-7.31,11.23-3.26,2.21-7.45,2.49-10.73,2.49ZM76.17,162.91a.56.56,0,0,0-.35.07,26.72,26.72,0,0,0-2.07,4.83,38.92,38.92,0,0,0-1.29,11.63v.62A42.91,42.91,0,0,0,76.71,197c1.89,3.92,4.11,6.46,6.77,7.78a16.89,16.89,0,0,0,7.21,1.34c3.16,0,7.16-.26,10.2-2.32,3.53-2.36,5.34-6.75,6.78-10.38a9.3,9.3,0,0,1-3.25-3.88,9.46,9.46,0,0,1-.5-6.74,17.78,17.78,0,0,1,1.32-2.94,15.08,15.08,0,0,0,1.36-3.17,12.23,12.23,0,0,0-.36-6,4.73,4.73,0,0,0-1.25-2.49c-1.11-1-2.89-.58-3.6-.37a26.84,26.84,0,0,1-4.14,1.26,7.78,7.78,0,0,1-5.52-1.57,13.47,13.47,0,0,1-3-3.19,4.77,4.77,0,0,1-3.18,2.88,8,8,0,0,1-5.38-.52,2.13,2.13,0,0,1-.94-.66,2.24,2.24,0,0,1-.33-1.07,2.59,2.59,0,0,0-1.8-1.83A2.91,2.91,0,0,0,76.17,162.91Z"/>
      </g>
      <g>
        <path class="cls-20" d="M72.64,187.65v-.14l0-.19Z"/>
        <polygon class="cls-3" points="72.14 187.73 72.09 187.4 73.07 187.2 73.14 187.65 72.14 187.73"/>
      </g>
      <path class="cls-21" d="M88.37,162.57l.15.35a3,3,0,0,0,0-.42h0Z"/>
      <path class="cls-3" d="M91.15,190a3.78,3.78,0,0,1-3.56-5c1.35-4.25-.54-8.85-2.48-10.28l.59-.81c2.14,1.57,4.38,6.54,2.84,11.41a2.78,2.78,0,0,0,1.7,3.55,2.85,2.85,0,0,0,1,.16h1.29v1H91.15Z"/>
      <path class="cls-3" d="M90.15,197a10.88,10.88,0,0,1-1.14-.06l.11-1a9.53,9.53,0,0,0,3.24-.2l.23,1A10.56,10.56,0,0,1,90.15,197Z"/>
      <g>
        <path class="cls-14" d="M111.68,183a2.47,2.47,0,0,1-.82-1.48c-.34-2,1.34-2.26,1-4.23-.25-1.44-1.22-1.64-1.85-2.46.61-.53,1.18-1.15,2-1.15C116.68,173.69,114.5,181.48,111.68,183Z"/>
        <path class="cls-3" d="M111.61,183.6l-.26-.23a3,3,0,0,1-1-1.78,3.21,3.21,0,0,1,.57-2.45,2.27,2.27,0,0,0,.44-1.77,2.16,2.16,0,0,0-1-1.49,4.59,4.59,0,0,1-.77-.76l-.28-.37.59-.52a3.21,3.21,0,0,1,2.07-1.06,3,3,0,0,1,3.09,2.36c.65,2.61-1,6.75-3.18,7.9Zm-.87-8.75.29.26a3.15,3.15,0,0,1,1.33,2.09,3.22,3.22,0,0,1-.57,2.45,2.27,2.27,0,0,0-.44,1.77,2,2,0,0,0,.41.93,7.59,7.59,0,0,0,2.36-6.58,2,2,0,0,0-2.12-1.6A2.06,2.06,0,0,0,110.74,174.85Z"/>
      </g>
      <g>
        <path class="cls-9" d="M112,208.62l17,9a17.5,17.5,0,0,1,6.17,5.49c3.51,5.09,6.11,18.49,7.76,25.43.14.58-.88.21-.76.69h-.71l-92.36.58c1.64-6.25,4.27-21.14,8.08-26.66a17.41,17.41,0,0,1,6.17-5.49l17-9"/>
        <path class="cls-3" d="M48.45,250.34l.16-.63c.37-1.41.79-3.24,1.27-5.36,1.64-7.22,3.89-17.1,6.89-21.45a18,18,0,0,1,6.34-5.65l17-9,.47.89-17,9a17.14,17.14,0,0,0-6,5.33c-2.89,4.19-5.11,14-6.73,21.11-.42,1.83-.78,3.44-1.12,4.76l92.07-.57a1,1,0,0,1,.58-.29c-.24-1-.5-2.17-.78-3.41-1.66-7.35-3.94-17.41-6.85-21.64a17.08,17.08,0,0,0-6-5.33l-17-9,.47-.89,17,9a18,18,0,0,1,6.35,5.64c3,4.39,5.32,14.56,7,22,.3,1.32.58,2.55.84,3.62a.74.74,0,0,1-.09.61.88.88,0,0,1-.6.36l.09.33h-1.36Z"/>
      </g>
      <g>
        <path class="cls-14" d="M87.54,238.19c-1.89.06-4-.23-5.85-.17a9.21,9.21,0,0,0-4.93,1.13A9,9,0,0,0,74.39,242q-2.34,3.82-4.48,7.77H87.55Z"/>
        <path class="cls-3" d="M88.05,250.26h-19l.4-.74c1.37-2.53,2.88-5.15,4.5-7.79a9.13,9.13,0,0,1,2.49-3c1.57-1.09,3.59-1.16,5.21-1.23,1,0,2,0,3,.09s2,.11,2.88.08l.52,0Zm-17.3-1h16.3V238.7c-.8,0-1.64,0-2.46-.1s-2-.11-2.88-.08c-1.56.06-3.34.13-4.65,1a8.16,8.16,0,0,0-2.21,2.66C73.37,244.61,72,247,70.75,249.26Z"/>
      </g>
      <g>
        <path class="cls-9" d="M141,249.76l-53.41-.11V229.83h43A14.76,14.76,0,0,1,145,241.49l.76,3.52A4.77,4.77,0,0,1,141,249.76Z"/>
        <path class="cls-3" d="M141,250.26h0L87,250.15V229.33h43.49a15.34,15.34,0,0,1,14.92,12.06l.77,3.62a5.28,5.28,0,0,1-5.26,5.25Zm0-1h0a4.21,4.21,0,0,0,3-1.25,4.26,4.26,0,0,0,1.25-2.95l-.74-3.46a14.35,14.35,0,0,0-13.95-11.27H88v18.82Z"/>
      </g>
      <g>
        <rect class="cls-10" x="21.8" y="184.67" width="74.87" height="49.88"/>
        <path class="cls-3" d="M97.17,235H21.3V184.17H97.17ZM22.3,234H96.17V185.17H22.3Z"/>
      </g>
      <g>
        <rect class="cls-10" x="54.08" y="218.4" width="10.31" height="29.68"/>
        <path class="cls-3" d="M64.88,248.57H53.58V217.9h11.3Zm-10.3-1h9.3V218.9h-9.3Z"/>
      </g>
      <g>
        <path class="cls-10" d="M38.59,245.44H79.88A3.09,3.09,0,0,1,83,248.53h0v1.23H35.49v-1.23a3.09,3.09,0,0,1,3.09-3.09Z"/>
        <path class="cls-3" d="M83.47,250.26H35v-1.73a3.59,3.59,0,0,1,3.59-3.59h41.3a3.59,3.59,0,0,1,3.59,3.59Zm-47.48-1H82.47v-.73a2.59,2.59,0,0,0-2.59-2.59H38.58A2.59,2.59,0,0,0,36,248.53Z"/>
      </g>
      <g>
        <circle class="cls-10" cx="59.23" cy="215.2" r="10.81" transform="translate(-162.25 187.57) rotate(-67.5)"/>
        <path class="cls-3" d="M59.23,226.5a11.31,11.31,0,1,1,11.31-11.3A11.32,11.32,0,0,1,59.23,226.5Zm0-21.61A10.31,10.31,0,1,0,69.54,215.2,10.32,10.32,0,0,0,59.23,204.89Z"/>
      </g>
      <rect class="cls-3" x="100.95" y="208.3" width="1" height="18.77"/>
      <g>
        <path class="cls-10" d="M102.46,199.81h-1.64l-2.15-10.46a3,3,0,0,1,1.21-3.11,3.18,3.18,0,0,1,1.7-.52h0a3,3,0,0,1,3,3,3.18,3.18,0,0,1-.06.62Z"/>
        <path class="cls-3" d="M102.88,200.31h-2.47l-2.23-10.86a3.51,3.51,0,0,1,1.41-3.62,3.64,3.64,0,0,1,2-.61,3.71,3.71,0,0,1,2.45,1,3.53,3.53,0,0,1,1,3.18Zm-1.65-1h.82l2-10.09a2.44,2.44,0,0,0,0-.53,2.46,2.46,0,0,0-2.47-2.47h0a2.64,2.64,0,0,0-1.42.44,2.49,2.49,0,0,0-1,2.58Z"/>
      </g>
      <g>
        <path class="cls-10" d="M102.73,200.34l-1.38-.82,3.39-10.12a3,3,0,0,1,4.33-1.68h0a3,3,0,0,1,1.11,4,2.66,2.66,0,0,1-.39.54Z"/>
        <path class="cls-3" d="M102.84,201l-2.1-1.24,3.52-10.5a3.47,3.47,0,0,1,4.32-2.28,3.28,3.28,0,0,1,.74.33,3.45,3.45,0,0,1,1.29,4.7,3.14,3.14,0,0,1-.45.63Zm-.89-1.69.68.41,6.78-7.75a2.36,2.36,0,0,0,.33-.45,2.46,2.46,0,0,0-.92-3.35,2.24,2.24,0,0,0-.53-.23,2.47,2.47,0,0,0-3.08,1.63Z"/>
      </g>
      <g>
        <path class="cls-10" d="M102.67,200.91l-.82-1.39,8-7.05a3,3,0,0,1,4.18.16,2.67,2.67,0,0,1,.4.55h0a3,3,0,0,1-1,4,3.24,3.24,0,0,1-.6.27Z"/>
        <path class="cls-3" d="M102.44,201.52l-1.23-2.11,8.31-7.32a3.49,3.49,0,0,1,4.89.2,3.37,3.37,0,0,1,.47.65,3.47,3.47,0,0,1-1.22,4.72,3,3,0,0,1-.71.31Zm0-1.9.4.69,9.75-3.29a2.31,2.31,0,0,0,.51-.22,2.51,2.51,0,0,0,1.13-1.5,2.42,2.42,0,0,0-.27-1.86,2.36,2.36,0,0,0-.34-.47,2.45,2.45,0,0,0-3.48-.13Z"/>
      </g>
      <g>
        <path class="cls-10" d="M102.33,201.4v-1.65l10.46-2.08a3,3,0,0,1,3.54,2.22,2.85,2.85,0,0,1,.07.71h0a3,3,0,0,1-3.6,2.89Z"/>
        <path class="cls-3" d="M113.45,204.06a3.84,3.84,0,0,1-.76-.08l-10.86-2.17v-2.47l10.87-2.16a3.39,3.39,0,0,1,2.59.45,3.44,3.44,0,0,1,1.53,2.15,3.29,3.29,0,0,1,.08.83,3.45,3.45,0,0,1-3.44,3.45ZM102.83,201l10.07,2a1.78,1.78,0,0,0,.55.06,2.45,2.45,0,0,0,2.45-2.46,2,2,0,0,0-.06-.6,2.44,2.44,0,0,0-2.94-1.84l-10.07,2Z"/>
      </g>
      <g>
        <path class="cls-10" d="M101.81,201.64l.82-1.38,10.09,3.45a3,3,0,0,1,2.07,2.63,3.12,3.12,0,0,1-.41,1.71h0a3,3,0,0,1-4,1.08,3.31,3.31,0,0,1-.52-.38Z"/>
        <path class="cls-3" d="M111.81,210a3.48,3.48,0,0,1-1.73-.46,3.43,3.43,0,0,1-.61-.45l-8.3-7.38,1.23-2.09,10.48,3.59a3.52,3.52,0,0,1,2.41,3,3.57,3.57,0,0,1-.48,2A3.46,3.46,0,0,1,111.81,210Zm-9.36-8.49,7.69,6.83a2.3,2.3,0,0,0,.44.33,2.46,2.46,0,0,0,3.36-.9,2.45,2.45,0,0,0-1.38-3.62l-9.71-3.32Z"/>
      </g>
      <g>
        <path class="cls-10" d="M101.23,201.59l1.4-.82,7,8.06a3,3,0,0,1,.47,3.28,3,3,0,0,1-1.22,1.28h0a3,3,0,0,1-4-1.08,2.73,2.73,0,0,1-.26-.61Z"/>
        <path class="cls-3" d="M107.41,214.29a3.48,3.48,0,0,1-.9-.12,3.44,3.44,0,0,1-2.1-1.61,4,4,0,0,1-.31-.71l-3.47-10.48,2.1-1.24L110,208.5a3.48,3.48,0,0,1,.55,3.83,3.4,3.4,0,0,1-1.43,1.5A3.45,3.45,0,0,1,107.41,214.29Zm-5.58-12.47,3.22,9.72a2.73,2.73,0,0,0,.23.52,2.39,2.39,0,0,0,1.49,1.14,2.42,2.42,0,0,0,1.86-.24,2.45,2.45,0,0,0,1-1.07,2.49,2.49,0,0,0-.4-2.73l-6.73-7.75Z"/>
      </g>
      <g>
        <path class="cls-10" d="M100.75,201.26h1.64l2,10.5a3,3,0,0,1-2.26,3.52,2.58,2.58,0,0,1-.68.07h0a3,3,0,0,1-3-3,3.19,3.19,0,0,1,.08-.63Z"/>
        <path class="cls-3" d="M101.48,215.85h-.06a3.45,3.45,0,0,1-2.44-1,3.51,3.51,0,0,1-1-2.47,3.64,3.64,0,0,1,.09-.73l2.27-10.86h2.46l2.07,10.91a3.46,3.46,0,0,1-2.65,4.1A3.05,3.05,0,0,1,101.48,215.85Zm-.33-14.09-2.1,10.07a2.4,2.4,0,0,0,.64,2.28,2.45,2.45,0,0,0,1.74.74,2.78,2.78,0,0,0,.58,0,2.47,2.47,0,0,0,1.88-2.93L102,201.76Z"/>
      </g>
      <g>
        <path class="cls-10" d="M100.51,200.71l1.38.83-3.52,10.07a3,3,0,0,1-3.72,1.93,3.07,3.07,0,0,1-.64-.29h0A3,3,0,0,1,93,209.2a2.83,2.83,0,0,1,.39-.52Z"/>
        <path class="cls-3" d="M95.54,214.18a3.46,3.46,0,0,1-1-.16,3.91,3.91,0,0,1-.75-.34,3.46,3.46,0,0,1-1.22-4.74,3.76,3.76,0,0,1,.45-.6l7.43-8.26,2.09,1.23-3.66,10.47A3.46,3.46,0,0,1,95.54,214.18Zm5.07-12.83L93.72,209a2.24,2.24,0,0,0-.33.43,2.47,2.47,0,0,0,.88,3.37,2.57,2.57,0,0,0,.53.25,2.47,2.47,0,0,0,3.09-1.61l3.39-9.7Z"/>
      </g>
      <g>
        <path class="cls-10" d="M100.56,200.15l.78,1.4-8.1,6.95A3,3,0,0,1,90,209a3,3,0,0,1-1.27-1.23h0a2.94,2.94,0,0,1,1.11-4,2.66,2.66,0,0,1,.6-.26Z"/>
        <path class="cls-3" d="M91.26,209.75a3.42,3.42,0,0,1-1.52-.35A3.45,3.45,0,0,1,88.25,208a3.46,3.46,0,0,1,1.3-4.7,3.15,3.15,0,0,1,.71-.3l10.54-3.41,1.17,2.12-8.4,7.21A3.53,3.53,0,0,1,91.26,209.75Zm9.06-9-9.76,3.16a2.61,2.61,0,0,0-.51.22,2.46,2.46,0,0,0-1.16,1.48,2.47,2.47,0,0,0,4,2.52l7.79-6.69Z"/>
      </g>
      <g>
        <path class="cls-10" d="M100.9,199.67v1.64l-10.5,1.95A3,3,0,0,1,87.32,202a3,3,0,0,1-.49-1.7h0a3,3,0,0,1,3.6-2.86Z"/>
        <path class="cls-3" d="M89.8,203.82a3.5,3.5,0,0,1-2.9-1.55,3.62,3.62,0,0,1-.57-2,3.57,3.57,0,0,1,1.09-2.48,3.49,3.49,0,0,1,3.11-.86l10.87,2.33v2.46l-10.91,2A3.23,3.23,0,0,1,89.8,203.82Zm0-6a2.46,2.46,0,0,0-1.68.67,2.56,2.56,0,0,0-.78,1.77,2.66,2.66,0,0,0,.41,1.42,2.5,2.5,0,0,0,2.56,1.05l10.1-1.87v-.82l-10.08-2.16A2.33,2.33,0,0,0,89.79,197.86Z"/>
      </g>
      <g>
        <path class="cls-10" d="M101.43,199.43l-.82,1.38-10-3.59a3,3,0,0,1-2-2.65,2.94,2.94,0,0,1,.44-1.71h0a3,3,0,0,1,4-1,2.9,2.9,0,0,1,.53.39Z"/>
        <path class="cls-3" d="M100.83,201.41l-10.44-3.72A3.48,3.48,0,0,1,88,194.6a3.48,3.48,0,0,1,5.24-3.2,3.37,3.37,0,0,1,.61.46l8.19,7.48Zm-9.32-9.5a2.55,2.55,0,0,0-.61.08A2.55,2.55,0,0,0,89,194.54a2.5,2.5,0,0,0,1.69,2.21l9.67,3.45.4-.67-7.59-6.94a2.66,2.66,0,0,0-.44-.33A2.43,2.43,0,0,0,91.51,191.91Z"/>
      </g>
      <g>
        <path class="cls-10" d="M102,199.49l-1.4.77-6.89-8.14a2.93,2.93,0,0,1,.81-4.55h0a3.09,3.09,0,0,1,2.31-.25,3,3,0,0,1,2,2Z"/>
        <path class="cls-3" d="M100.48,200.9l-7.15-8.46a3.51,3.51,0,0,1-.5-3.82A3.53,3.53,0,0,1,97,186.84a3.51,3.51,0,0,1,2.31,2.34l3.33,10.55ZM96,187.7a2.62,2.62,0,0,0-1.21.31,2.59,2.59,0,0,0-1,1.06,2.5,2.5,0,0,0,.37,2.72l6.63,7.84.68-.38-3.08-9.77a2.52,2.52,0,0,0-1.65-1.68A2.32,2.32,0,0,0,96,187.7Z"/>
      </g>
      <g>
        <circle class="cls-10" cx="101.61" cy="200.54" r="2.99"/>
        <path class="cls-3" d="M101.61,204a3.5,3.5,0,1,1,3.49-3.5A3.5,3.5,0,0,1,101.61,204Zm0-6a2.5,2.5,0,1,0,2.49,2.49A2.5,2.5,0,0,0,101.61,198.05Z"/>
      </g>
      <g>
        <rect class="cls-10" x="91.71" y="224.89" width="19.8" height="24.87"/>
        <path class="cls-3" d="M112,250.26H91.21V224.39H112Zm-19.8-1H111V225.39H92.21Z"/>
      </g>
      <g>
        <rect class="cls-10" x="114.49" y="238.43" width="2.28" height="8.83"/>
        <path class="cls-3" d="M117.27,247.75H114v-9.82h3.28Zm-2.28-1h1.28v-7.82H115Z"/>
      </g>
      <g>
        <path class="cls-10" d="M110,245.33h10.83a3.08,3.08,0,0,1,3.08,3.09h0v1.23H107v-1.23a3.09,3.09,0,0,1,3.09-3.09Z"/>
        <path class="cls-3" d="M124.45,250.15h-18v-1.73a3.59,3.59,0,0,1,3.59-3.59h10.83a3.59,3.59,0,0,1,3.58,3.59Zm-17-1h16v-.73a2.59,2.59,0,0,0-2.58-2.59H110a2.59,2.59,0,0,0-2.59,2.59Z"/>
      </g>
      <g>
        <rect class="cls-10" x="103.46" y="229.19" width="24.01" height="12.36"/>
        <path class="cls-3" d="M128,242.05H103V228.69h25Zm-24-1h23V229.69H104Z"/>
      </g>
      <g>
        <path class="cls-19" d="M110.86,171.08c-9.54,3.63-39.12,2.89-38.29-10.31"/>
        <path class="cls-3" d="M97.1,173.42c-7.7,0-16.21-1.35-21.08-4.93-2.81-2.08-4.14-4.68-4-7.75l1,.06c-.17,2.71,1,5,3.55,6.88,8.22,6.06,27.27,5.52,34.06,2.93l.35.94C108.07,172.68,102.81,173.42,97.1,173.42Z"/>
      </g>
      <ellipse class="cls-19" cx="98.33" cy="164.94" rx="12.92" ry="6.62"/>
      <path class="cls-3" d="M86,177.28a6.53,6.53,0,0,0-5.46-1.53A5.67,5.67,0,0,0,77,177.17l-.86-.5c.51-.86,2.28-1.66,4.21-1.91a7.53,7.53,0,0,1,6.3,1.81Z"/>
      <g class="cls-22">
        <circle class="cls-3" cx="81.43" cy="177.44" r="2.12"/>
      </g>
      <path class="cls-3" d="M101,177.28a6.57,6.57,0,0,0-5.48-1.53,5.62,5.62,0,0,0-3.46,1.42l-.87-.5c.51-.86,2.27-1.66,4.2-1.91a7.57,7.57,0,0,1,6.31,1.8Z"/>
      <g class="cls-23">
        <circle class="cls-3" cx="96.52" cy="177.44" r="2.12"/>
      </g>
      <g class="cls-11">
        <path class="cls-12" d="M109.77,232.29c1.61,0,2.87.69,2.87,3s-1.28,3-2.91,3h-1.36v-6Zm-.06,1h-.11v3.94h.11c1,0,1.62-.4,1.62-2S110.71,233.29,109.71,233.29Z"/>
        <path class="cls-12" d="M113.92,232.29h3.6v1.05h-2.37v1.33h2.21v1.05h-2.21v1.46h2.37v1.06h-3.6Z"/>
        <path class="cls-12" d="M121.75,238.24h-1.53l-1.54-6H120l1,4.37,1-4.37h1.31Z"/>
      </g>
    </g>
    <g>
      <path class="cls-4" d="M318.41,377c-58.16,0-115.75-22.34-173.61-67a1.5,1.5,0,1,1,1.84-2.38c114.48,88.43,228,88.43,346.94,0a1.5,1.5,0,0,1,1.79,2.41C435.28,354.69,376.56,377,318.41,377Z"/>
      <path class="cls-4" d="M145.68,323.63a1.51,1.51,0,0,1-1.49-1.32l-2-16.29,16.26-2.12a1.5,1.5,0,1,1,.39,3l-13.32,1.73L147.17,322a1.5,1.5,0,0,1-1.31,1.67Z"/>
    </g>
    <g>
      <path class="cls-9" d="M496.69,114a1.52,1.52,0,0,1-.92-.31c-114.48-88.43-228-88.42-346.94,0a1.5,1.5,0,0,1-1.79-2.41c120.2-89.34,234.87-89.34,350.57,0a1.5,1.5,0,0,1-.92,2.69Z"/>
      <path class="cls-9" d="M484.31,117.42a1.5,1.5,0,0,1-.2-3l13.32-1.74-1.62-13.34a1.5,1.5,0,1,1,3-.36l2,16.29-16.27,2.12Z"/>
    </g>
    <g>
      <g>
        <rect class="cls-24" x="274.28" y="26.99" width="99" height="47"/>
        <path class="cls-3" d="M372.78,27.49v46h-98v-46h98m1-1h-100v48h100v-48Z"/>
      </g>
      <g>
        <path class="cls-3" d="M293,51.05c-.12-.6-.59-.8-1.2-.8s-1.08.21-1.08.69.28.61.81.72l.6.12c.93.18,1.93.53,1.93,1.61s-1,1.7-2.15,1.7a2,2,0,0,1-2.2-1.74h1a1.12,1.12,0,0,0,1.25,1c.57,0,1.2-.2,1.2-.83s-.45-.75-1.13-.87l-.67-.13c-.85-.17-1.52-.59-1.52-1.52s1.13-1.49,2-1.49A2,2,0,0,1,294,51.05Z"/>
        <path class="cls-3" d="M299.91,50.22a3.31,3.31,0,0,1,.58,2,3.15,3.15,0,0,1-.63,2,2.08,2.08,0,0,1-1.71.78,2.25,2.25,0,0,1-1-.22,2.05,2.05,0,0,1-.73-.6,3.43,3.43,0,0,1-.56-2,3.1,3.1,0,0,1,.62-2,2.11,2.11,0,0,1,1.74-.77A2,2,0,0,1,299.91,50.22Zm-1.76,4.18a1.26,1.26,0,0,0,1.27-.93,3,3,0,0,0,.18-1,5.83,5.83,0,0,0,0-.82,2.14,2.14,0,0,0-.42-1.09,1.18,1.18,0,0,0-1-.42,1.25,1.25,0,0,0-1.24,1,3.47,3.47,0,0,0-.17,1.07,3.81,3.81,0,0,0,.3,1.62A1.13,1.13,0,0,0,298.15,54.4Z"/>
        <path class="cls-3" d="M305.55,54.27a1.68,1.68,0,0,1-1.58.82c-1.3,0-1.67-.86-1.67-2.05V49.58h.92v3.14c0,.87,0,1.58,1,1.58.83,0,1.28-.61,1.28-1.76v-3h.92V55h-.92Z"/>
        <path class="cls-3" d="M310.91,49.58v1a1.52,1.52,0,0,1,1.44-1h.92v.84h-.91c-1,0-1.43.68-1.43,1.86v1.89h1.84V55H308.5v-.79H310v-3.8h-1.53v-.79Z"/>
        <path class="cls-3" d="M319.57,51.37h-.93a1.28,1.28,0,0,0-1.27-1.12c-.8,0-1.46.69-1.46,2s.66,2.05,1.46,2.05a1.33,1.33,0,0,0,1.31-1.11h.95a2.24,2.24,0,0,1-2.31,1.86c-1.49,0-2.38-1.16-2.38-2.8a2.51,2.51,0,0,1,2.47-2.8A2.1,2.1,0,0,1,319.57,51.37Z"/>
        <path class="cls-3" d="M321.37,52.29c0-1.73,1-2.81,2.43-2.81s2.47,1.15,2.4,3.07h-3.87c0,1.08.6,1.79,1.45,1.79a1.3,1.3,0,0,0,1.39-1h.95a2.21,2.21,0,0,1-2.32,1.74C322.17,55.09,321.37,53.88,321.37,52.29Zm1-.5h2.88a1.38,1.38,0,0,0-1.42-1.55C322.93,50.24,322.38,50.75,322.34,51.79Z"/>
        <path class="cls-3" d="M339,51.37H338a1.28,1.28,0,0,0-1.27-1.12c-.8,0-1.46.69-1.46,2s.66,2.05,1.46,2.05a1.33,1.33,0,0,0,1.31-1.11H339a2.24,2.24,0,0,1-2.31,1.86c-1.49,0-2.37-1.16-2.37-2.8a2.51,2.51,0,0,1,2.46-2.8A2.1,2.1,0,0,1,339,51.37Z"/>
        <path class="cls-3" d="M344.67,50.22a3.31,3.31,0,0,1,.58,2,3.15,3.15,0,0,1-.63,2,2.08,2.08,0,0,1-1.71.78,2.25,2.25,0,0,1-1-.22,2.05,2.05,0,0,1-.73-.6,3.43,3.43,0,0,1-.56-2,3.16,3.16,0,0,1,.62-2,2.11,2.11,0,0,1,1.74-.77A2,2,0,0,1,344.67,50.22Zm-1.76,4.18a1.25,1.25,0,0,0,1.27-.93,3,3,0,0,0,.18-1c0-.35,0-.63,0-.82a2.14,2.14,0,0,0-.43-1.09,1.18,1.18,0,0,0-1-.42,1.25,1.25,0,0,0-1.24,1,3.47,3.47,0,0,0-.17,1.07,3.66,3.66,0,0,0,.31,1.62A1.1,1.1,0,0,0,342.91,54.4Z"/>
        <path class="cls-3" d="M350.36,47.71h.92V55h-.91V54.2a1.71,1.71,0,0,1-1.58.89c-1.24,0-2.17-1-2.17-2.8s.93-2.8,2.17-2.8a1.7,1.7,0,0,1,1.58.9ZM349,50.26c-.92,0-1.38.75-1.38,2s.46,2,1.38,2,1.44-.63,1.44-2S349.73,50.26,349,50.26Z"/>
        <path class="cls-3" d="M353.21,52.29c0-1.73,1-2.81,2.43-2.81,1.57,0,2.47,1.15,2.4,3.07h-3.86c0,1.08.6,1.79,1.44,1.79a1.3,1.3,0,0,0,1.39-1H358a2.21,2.21,0,0,1-2.32,1.74C354,55.09,353.21,53.88,353.21,52.29Zm1-.5h2.87a1.38,1.38,0,0,0-1.42-1.55C354.78,50.24,354.23,50.75,354.19,51.79Z"/>
      </g>
    </g>
    <g>
      <g>
        <rect class="cls-24" x="264.28" y="344.66" width="119" height="47"/>
        <path class="cls-3" d="M382.78,345.16v46h-118v-46h118m1-1h-120v48h120v-48Z"/>
      </g>
      <g>
        <path class="cls-3" d="M283.8,368.06a1.73,1.73,0,0,1,1.6-.9c1.23,0,2.16,1,2.16,2.8s-.93,2.8-2.16,2.8a1.74,1.74,0,0,1-1.6-.89v.76h-.9v-7.25h.91Zm1.4,3.94c.93,0,1.39-.76,1.39-2s-.46-2-1.39-2c-.76,0-1.44.61-1.44,2S284.44,372,285.2,372Z"/>
        <path class="cls-3" d="M292.63,371.94a1.68,1.68,0,0,1-1.58.82c-1.3,0-1.67-.86-1.67-2.05v-3.46h.92v3.14c0,.87.05,1.58,1.05,1.58.83,0,1.28-.61,1.28-1.76v-3h.92v5.38h-.92Z"/>
        <path class="cls-3" d="M299.16,367.25h.92V372c0,1.1-.14,1.55-.43,1.89a2.52,2.52,0,0,1-1.88.71,1.93,1.93,0,0,1-2.15-1.62h1c.13.49.41.82,1.2.82a1.45,1.45,0,0,0,1.1-.4c.18-.21.28-.46.28-1.19v-.52a1.7,1.7,0,0,1-1.59.89c-1.24,0-2.16-.91-2.16-2.69s.92-2.69,2.16-2.69a1.71,1.71,0,0,1,1.59.9Zm-1.4.68c-.92,0-1.39.64-1.39,1.92s.47,1.93,1.39,1.93c.77,0,1.44-.52,1.44-1.93S298.53,367.93,297.76,367.93Z"/>
        <path class="cls-3" d="M305.5,368.72c-.12-.6-.59-.8-1.2-.8s-1.08.21-1.08.69.28.61.81.72l.6.12c.93.18,1.93.53,1.93,1.61s-1,1.7-2.15,1.7a2,2,0,0,1-2.2-1.74h1a1.12,1.12,0,0,0,1.25,1c.57,0,1.2-.2,1.2-.83s-.45-.75-1.13-.87l-.67-.13c-.85-.17-1.52-.59-1.52-1.52s1.13-1.49,2-1.49a2,2,0,0,1,2.12,1.56Z"/>
        <path class="cls-3" d="M314.39,370.62a2.29,2.29,0,0,1,1.5-2.11,3.1,3.1,0,0,1-.58-1.64,1.67,1.67,0,0,1,1.76-1.62,1.57,1.57,0,0,1,1.75,1.56,2.22,2.22,0,0,1-1.54,1.93l1.17,1.46a5.56,5.56,0,0,0,.14-1.48h.85a5.66,5.66,0,0,1-.37,2.25l1.34,1.66H319.2l-.63-.78a2.46,2.46,0,0,1-2,.91A2.08,2.08,0,0,1,314.39,370.62Zm3.65.57-1.68-2.09a1.66,1.66,0,0,0-1,1.5,1.3,1.3,0,0,0,1.31,1.36A1.63,1.63,0,0,0,318,371.19Zm-1.25-3.05c.65-.29,1.16-.73,1.16-1.29a.86.86,0,0,0-1.71,0A2,2,0,0,0,316.79,368.14Z"/>
        <path class="cls-3" d="M330.78,367.25v4.59h1.53v.79h-4v-.79h1.52V368h-1.52v-.79Zm0-1.87v1.09h-.92v-1.09Z"/>
        <path class="cls-3" d="M337.8,368.72c-.12-.6-.59-.8-1.2-.8s-1.08.21-1.08.69.28.61.81.72l.6.12c.93.18,1.93.53,1.93,1.61s-1,1.7-2.15,1.7a2,2,0,0,1-2.2-1.74h1a1.12,1.12,0,0,0,1.25,1c.57,0,1.2-.2,1.2-.83s-.45-.75-1.13-.87l-.67-.13c-.85-.17-1.51-.59-1.51-1.52s1.12-1.49,2-1.49a2,2,0,0,1,2.12,1.56Z"/>
        <path class="cls-3" d="M344.26,368.72c-.12-.6-.59-.8-1.2-.8s-1.08.21-1.08.69.28.61.81.72l.6.12c.93.18,1.93.53,1.93,1.61s-1,1.7-2.15,1.7A2,2,0,0,1,341,371h1a1.12,1.12,0,0,0,1.25,1c.57,0,1.2-.2,1.2-.83s-.45-.75-1.13-.87l-.67-.13c-.85-.17-1.51-.59-1.51-1.52s1.12-1.49,2-1.49a2,2,0,0,1,2.12,1.56Z"/>
        <path class="cls-3" d="M350.77,371.94a1.68,1.68,0,0,1-1.58.82c-1.3,0-1.67-.86-1.67-2.05v-3.46h.92v3.14c0,.87.05,1.58,1.05,1.58.83,0,1.28-.61,1.28-1.76v-3h.92v5.38h-.92Z"/>
        <path class="cls-3" d="M353.67,370c0-1.73,1-2.81,2.43-2.81s2.47,1.15,2.4,3.07h-3.87c0,1.08.6,1.79,1.45,1.79a1.3,1.3,0,0,0,1.39-1h.95a2.21,2.21,0,0,1-2.32,1.74C354.47,372.76,353.67,371.55,353.67,370Zm1-.5h2.88a1.38,1.38,0,0,0-1.42-1.55C355.23,367.91,354.68,368.42,354.64,369.46Z"/>
        <path class="cls-3" d="M363.64,368.72c-.12-.6-.59-.8-1.2-.8s-1.08.21-1.08.69.28.61.81.72l.6.12c.93.18,1.93.53,1.93,1.61s-1,1.7-2.15,1.7a2,2,0,0,1-2.2-1.74h1a1.12,1.12,0,0,0,1.25,1c.57,0,1.2-.2,1.2-.83s-.45-.75-1.13-.87l-.67-.13c-.85-.17-1.51-.59-1.51-1.52s1.12-1.49,2-1.49a2,2,0,0,1,2.12,1.56Z"/>
      </g>
    </g>
    <g>
      <path class="cls-12" d="M474.77,283a3.84,3.84,0,0,1-1.55-1.57,6,6,0,0,1,0-5.13,3.84,3.84,0,0,1,1.55-1.57,4.75,4.75,0,0,1,4.32,0,3.78,3.78,0,0,1,1.55,1.57,6,6,0,0,1,0,5.13,3.78,3.78,0,0,1-1.55,1.57,4.75,4.75,0,0,1-4.32,0Zm3.46-1.37a2.53,2.53,0,0,0,.93-1,4.48,4.48,0,0,0,0-3.47,2.41,2.41,0,0,0-.93-1,2.59,2.59,0,0,0-1.3-.33,2.55,2.55,0,0,0-1.29.33,2.29,2.29,0,0,0-.93,1,4.48,4.48,0,0,0,0,3.47,2.4,2.4,0,0,0,.93,1,2.55,2.55,0,0,0,1.29.33A2.59,2.59,0,0,0,478.23,281.61Z"/>
      <path class="cls-12" d="M484.34,276.84v.68a1.57,1.57,0,0,1,.59-.54,2.05,2.05,0,0,1,1-.24,2.75,2.75,0,0,1,2.22.91,4.33,4.33,0,0,1,0,4.93,2.76,2.76,0,0,1-2.22.92,2.1,2.1,0,0,1-.92-.21,1.79,1.79,0,0,1-.67-.49v3.25h-1.61v-9.21Zm2.46,4.75a2.74,2.74,0,0,0,0-2.95,1.4,1.4,0,0,0-2.18,0,2.33,2.33,0,0,0-.42,1.48,2.3,2.3,0,0,0,.42,1.47,1.34,1.34,0,0,0,1.09.53A1.36,1.36,0,0,0,486.8,281.59Z"/>
      <path class="cls-12" d="M496.21,280.64h-4.52a1.8,1.8,0,0,0,.51,1.1,1.49,1.49,0,0,0,1.05.38,1.55,1.55,0,0,0,.91-.25,2.2,2.2,0,0,0,.67-.76l1.3.48a3,3,0,0,1-3,1.91,3,3,0,0,1-1.78-.5,3,3,0,0,1-1-1.28,4,4,0,0,1-.33-1.6,4.07,4.07,0,0,1,.33-1.61,2.9,2.9,0,0,1,2.82-1.77,2.92,2.92,0,0,1,1.71.48,3,3,0,0,1,1,1.23,3.88,3.88,0,0,1,.32,1.52Zm-1.65-1.28a1.77,1.77,0,0,0-.46-.89,1.24,1.24,0,0,0-.94-.35,1.35,1.35,0,0,0-.9.31,1.78,1.78,0,0,0-.53.93Z"/>
      <path class="cls-12" d="M499.28,276.84v1.07a2.65,2.65,0,0,1,.86-.87,2.07,2.07,0,0,1,1.08-.3,2.65,2.65,0,0,1,.79.13l-.3,1.49a1.28,1.28,0,0,0-.68-.18,1.48,1.48,0,0,0-1.26.7,3.81,3.81,0,0,0-.49,2.19v2.32h-1.61v-6.55Z"/>
      <path class="cls-12" d="M503,283a1.93,1.93,0,0,1-.56-1.47,1.9,1.9,0,0,1,.74-1.56,3.13,3.13,0,0,1,2-.59h1.15v-.28a.83.83,0,0,0-.33-.72,1.33,1.33,0,0,0-.82-.24,1.1,1.1,0,0,0-1.13.75l-1.36-.31a2,2,0,0,1,.84-1.32,2.65,2.65,0,0,1,1.65-.5,2.83,2.83,0,0,1,2,.69,2.74,2.74,0,0,1,.72,2.05v3.91h-1.33l-.17-.83a2.46,2.46,0,0,1-2,.94A2,2,0,0,1,503,283Zm2.88-1.23a1.22,1.22,0,0,0,.45-1v-.13h-1.08a1.41,1.41,0,0,0-.83.21.72.72,0,0,0-.29.63.58.58,0,0,0,.2.46.76.76,0,0,0,.53.18A1.51,1.51,0,0,0,505.84,281.75Z"/>
      <path class="cls-12" d="M510.45,282.89a2.38,2.38,0,0,1-.64-1.81v-2.86h-1v-1.38h1V275.2l1.61-1v2.65h1.73v1.38h-1.73v2.83a1.21,1.21,0,0,0,.22.83.8.8,0,0,0,.64.24,1.25,1.25,0,0,0,.62-.16l.38,1.3a2.71,2.71,0,0,1-2.83-.37Z"/>
      <path class="cls-12" d="M514.46,275.7a1,1,0,0,1-.3-.74,1,1,0,0,1,.3-.74,1.08,1.08,0,0,1,1.49,0,1,1,0,0,1,.29.74,1,1,0,0,1-.29.74,1.08,1.08,0,0,1-1.49,0Zm-.06,1.14H516v6.55H514.4Z"/>
      <path class="cls-12" d="M519,283.06a2.91,2.91,0,0,1-1.15-1.21,3.94,3.94,0,0,1,0-3.46,2.85,2.85,0,0,1,1.15-1.21,3.82,3.82,0,0,1,3.56,0,2.91,2.91,0,0,1,1.15,1.21,3.94,3.94,0,0,1,0,3.46,3,3,0,0,1-1.15,1.21,3.82,3.82,0,0,1-3.56,0Zm3-1.52a2.23,2.23,0,0,0,.45-1.42,2.26,2.26,0,0,0-.45-1.43,1.42,1.42,0,0,0-1.19-.57,1.45,1.45,0,0,0-1.2.57,2.32,2.32,0,0,0-.44,1.43,2.29,2.29,0,0,0,.44,1.42,1.43,1.43,0,0,0,1.2.58A1.4,1.4,0,0,0,522,281.54Z"/>
      <path class="cls-12" d="M527.16,276.84v1.05a3.11,3.11,0,0,1,.9-.84,2.16,2.16,0,0,1,1.13-.31,2.13,2.13,0,0,1,1.47.5,1.93,1.93,0,0,1,.55,1.47v4.68H529.6v-4.2a1.11,1.11,0,0,0-.26-.81.88.88,0,0,0-.68-.26,1,1,0,0,0-.74.31,2.17,2.17,0,0,0-.55.91,4.46,4.46,0,0,0-.21,1.44v2.61h-1.61v-6.55Z"/>
      <path class="cls-12" d="M533.36,283a2.42,2.42,0,0,1-.9-1.25l1.28-.69a1.74,1.74,0,0,0,.52.79,1.16,1.16,0,0,0,.78.29.89.89,0,0,0,.54-.16.58.58,0,0,0,.22-.48.62.62,0,0,0-.34-.51,7.23,7.23,0,0,0-1-.48,3.19,3.19,0,0,1-1.15-.75,1.69,1.69,0,0,1-.41-1.17,1.63,1.63,0,0,1,.27-.92,2,2,0,0,1,.73-.67,2.34,2.34,0,0,1,1.07-.24,2.57,2.57,0,0,1,1.21.28,2,2,0,0,1,.84.78l-1,.89a1.21,1.21,0,0,0-1-.57.77.77,0,0,0-.45.13.44.44,0,0,0-.19.36.53.53,0,0,0,.28.43,4.29,4.29,0,0,0,1.06.49,2.93,2.93,0,0,1,1.19.72,1.6,1.6,0,0,1,.41,1.13,2,2,0,0,1-.62,1.54,2.33,2.33,0,0,1-1.62.58A2.74,2.74,0,0,1,533.36,283Z"/>
    </g>
    <g>
      <path class="cls-12" d="M110.84,274.29a4.51,4.51,0,0,1,2.09.5,3.75,3.75,0,0,1,1.55,1.51,5,5,0,0,1,.6,2.54,4.9,4.9,0,0,1-.6,2.54,3.71,3.71,0,0,1-1.55,1.52,4.5,4.5,0,0,1-2.09.49H108v-9.1Zm1.64,6.87a3.5,3.5,0,0,0,0-4.64,3.51,3.51,0,0,0-2.17-.67h-.63v6h.63A3.44,3.44,0,0,0,112.48,281.16Z"/>
      <path class="cls-12" d="M122.42,280.64H117.9a1.8,1.8,0,0,0,.51,1.1,1.49,1.49,0,0,0,1,.38,1.55,1.55,0,0,0,.91-.25,2.2,2.2,0,0,0,.67-.76l1.3.48a3.25,3.25,0,0,1-1.12,1.41,3.21,3.21,0,0,1-1.85.5,3,3,0,0,1-1.78-.5,3,3,0,0,1-1-1.28,4,4,0,0,1-.33-1.6,4.07,4.07,0,0,1,.33-1.61,2.9,2.9,0,0,1,2.82-1.77,2.92,2.92,0,0,1,1.71.48,3,3,0,0,1,1,1.23,3.88,3.88,0,0,1,.32,1.52Zm-1.65-1.28a1.77,1.77,0,0,0-.46-.89,1.24,1.24,0,0,0-.94-.35,1.35,1.35,0,0,0-.9.31,1.78,1.78,0,0,0-.53.93Z"/>
      <path class="cls-12" d="M123.08,276.84h1.63L126,281.4l1.32-4.56H129l-2.23,6.55h-1.45Z"/>
      <path class="cls-12" d="M135.75,280.64h-4.53a1.76,1.76,0,0,0,.52,1.1,1.48,1.48,0,0,0,1,.38,1.58,1.58,0,0,0,.92-.25,2.2,2.2,0,0,0,.67-.76l1.3.48a3.27,3.27,0,0,1-1.13,1.41,3.21,3.21,0,0,1-1.85.5,3,3,0,0,1-1.77-.5,2.93,2.93,0,0,1-1-1.28,4,4,0,0,1-.34-1.6,4.08,4.08,0,0,1,.34-1.61,2.91,2.91,0,0,1,1-1.27,3.35,3.35,0,0,1,3.49,0,3,3,0,0,1,1,1.23,3.72,3.72,0,0,1,.33,1.52Zm-1.65-1.28a1.78,1.78,0,0,0-.47-.89,1.23,1.23,0,0,0-.94-.35,1.37,1.37,0,0,0-.9.31,1.85,1.85,0,0,0-.53.93Z"/>
      <path class="cls-12" d="M137.2,274.19h1.61v9.2H137.2Z"/>
      <path class="cls-12" d="M141.82,283.06a2.91,2.91,0,0,1-1.15-1.21,3.94,3.94,0,0,1,0-3.46,2.85,2.85,0,0,1,1.15-1.21,3.82,3.82,0,0,1,3.56,0,3,3,0,0,1,1.15,1.21,3.94,3.94,0,0,1,0,3.46,3,3,0,0,1-1.15,1.21,3.82,3.82,0,0,1-3.56,0Zm3-1.52a2.23,2.23,0,0,0,.45-1.42,2.26,2.26,0,0,0-.45-1.43,1.42,1.42,0,0,0-1.19-.57,1.44,1.44,0,0,0-1.2.57,2.32,2.32,0,0,0-.44,1.43,2.29,2.29,0,0,0,.44,1.42,1.42,1.42,0,0,0,1.2.58A1.4,1.4,0,0,0,144.79,281.54Z"/>
      <path class="cls-12" d="M150,276.84v.68a1.57,1.57,0,0,1,.59-.54,2.08,2.08,0,0,1,1-.24,2.75,2.75,0,0,1,2.22.91,4.33,4.33,0,0,1,0,4.93,2.76,2.76,0,0,1-2.22.92,2.1,2.1,0,0,1-.92-.21,1.79,1.79,0,0,1-.67-.49v3.25h-1.61v-9.21Zm2.46,4.75a2.74,2.74,0,0,0,0-2.95,1.4,1.4,0,0,0-2.18,0,2.33,2.33,0,0,0-.42,1.48,2.3,2.3,0,0,0,.42,1.47,1.34,1.34,0,0,0,1.09.53A1.36,1.36,0,0,0,152.45,281.59Z"/>
      <path class="cls-12" d="M157.64,276.84v1.05a2.83,2.83,0,0,1,.82-.86,1.88,1.88,0,0,1,1.06-.29,1.91,1.91,0,0,1,1.13.34,1.82,1.82,0,0,1,.71,1,2.84,2.84,0,0,1,.87-1,2,2,0,0,1,1.13-.35,1.94,1.94,0,0,1,1.43.53,2.07,2.07,0,0,1,.52,1.48v4.64H163.7V279c0-.61-.27-.91-.81-.91a1.15,1.15,0,0,0-1,.7,4.12,4.12,0,0,0-.4,2v2.54h-1.61V279c0-.61-.27-.91-.81-.91a1.17,1.17,0,0,0-1,.73,4.67,4.67,0,0,0-.39,2.14v2.4H156v-6.55Z"/>
      <path class="cls-12" d="M173,280.64h-4.52a1.8,1.8,0,0,0,.51,1.1,1.52,1.52,0,0,0,1.05.38,1.6,1.6,0,0,0,.92-.25,2.31,2.31,0,0,0,.67-.76l1.3.48a3.27,3.27,0,0,1-1.13,1.41,3.21,3.21,0,0,1-1.85.5,2.89,2.89,0,0,1-2.82-1.78,4,4,0,0,1-.33-1.6,4.07,4.07,0,0,1,.33-1.61,3.05,3.05,0,0,1,1-1.27,3,3,0,0,1,1.78-.5,3,3,0,0,1,1.72.48,3.08,3.08,0,0,1,1,1.23A3.71,3.71,0,0,1,173,280Zm-1.65-1.28a1.69,1.69,0,0,0-.46-.89,1.23,1.23,0,0,0-.94-.35,1.35,1.35,0,0,0-.9.31,1.78,1.78,0,0,0-.53.93Z"/>
      <path class="cls-12" d="M176,276.84v1.05a3,3,0,0,1,.9-.84,2.14,2.14,0,0,1,1.13-.31,2.1,2.1,0,0,1,1.46.5,1.9,1.9,0,0,1,.56,1.47v4.68h-1.62v-4.2a1.11,1.11,0,0,0-.25-.81.89.89,0,0,0-.68-.26,1,1,0,0,0-.74.31,2.17,2.17,0,0,0-.55.91,4.46,4.46,0,0,0-.21,1.44v2.61h-1.61v-6.55Z"/>
      <path class="cls-12" d="M182.64,282.89a2.38,2.38,0,0,1-.64-1.81v-2.86h-1v-1.38h1V275.2l1.61-1v2.65h1.73v1.38h-1.73v2.83a1.21,1.21,0,0,0,.22.83.8.8,0,0,0,.64.24,1.25,1.25,0,0,0,.62-.16l.38,1.3a2.71,2.71,0,0,1-2.83-.37Z"/>
    </g>
  </g>
</svg>
