<?xml version="1.0" encoding="UTF-8"?>
<svg width="640px" height="270px" viewBox="0 0 640 270" version="1.1" xmlns="http://www.w3.org/2000/svg" xmlns:xlink="http://www.w3.org/1999/xlink">
    <title>Intro to OOP and UML 2</title>
    <g id="Intro-to-OOP-and-UML-2" stroke="none" stroke-width="1" fill="none" fill-rule="evenodd">
        <path d="M375,113 L265,113 C263.343146,113 262,114.343146 262,116 L262,152 C262,153.656854 263.343146,155 265,155 L375,155 C376.656854,155 378,153.656854 378,152 L378,116 C378,114.343146 376.656854,113 375,113 Z M265,115 L375,115 C375.552285,115 376,115.447715 376,116 L376,152 C376,152.552285 375.552285,153 375,153 L265,153 C264.447715,153 264,152.552285 264,152 L264,116 C264,115.447715 264.447715,115 265,115 Z" id="Rectangle" fill="#10162F" fill-rule="nonzero"></path>
        <path d="M159,113 L49,113 C47.3431458,113 46,114.343146 46,116 L46,152 C46,153.656854 47.3431458,155 49,155 L159,155 C160.656854,155 162,153.656854 162,152 L162,116 C162,114.343146 160.656854,113 159,113 Z M49,115 L159,115 C159.552285,115 160,115.447715 160,116 L160,152 C160,152.552285 159.552285,153 159,153 L49,153 C48.4477153,153 48,152.552285 48,152 L48,116 C48,115.447715 48.4477153,115 49,115 Z" id="Rectangle-Copy" fill="#10162F" fill-rule="nonzero"></path>
        <path d="M591,113 L481,113 C479.343146,113 478,114.343146 478,116 L478,152 C478,153.656854 479.343146,155 481,155 L591,155 C592.656854,155 594,153.656854 594,152 L594,116 C594,114.343146 592.656854,113 591,113 Z M481,115 L591,115 C591.552285,115 592,115.447715 592,116 L592,152 C592,152.552285 591.552285,153 591,153 L481,153 C480.447715,153 480,152.552285 480,152 L480,116 C480,115.447715 480.447715,115 481,115 Z" id="Rectangle-Copy-2" fill="#10162F" fill-rule="nonzero"></path>
        <path d="M294.598,140.144 C295.546,140.144 296.374,139.997 297.082,139.703 C297.79,139.409 298.333,138.992 298.711,138.452 C299.089,137.912 299.278,137.282 299.278,136.562 C299.278,135.818 299.071,135.224 298.657,134.78 C298.243,134.336 297.724,134.003 297.1,133.781 C296.476,133.559 295.618,133.316 294.526,133.052 C293.53,132.824 292.786,132.548 292.294,132.224 C291.802,131.9 291.556,131.42 291.556,130.784 C291.556,130.04 291.835,129.461 292.393,129.047 C292.951,128.633 293.722,128.426 294.706,128.426 C295.426,128.426 296.095,128.543 296.713,128.777 C297.331,129.011 297.94,129.386 298.54,129.902 L298.54,129.902 L299.098,128.768 C298.57,128.252 297.925,127.856 297.163,127.58 C296.401,127.304 295.582,127.166 294.706,127.166 C293.782,127.166 292.969,127.319 292.267,127.625 C291.565,127.931 291.025,128.363 290.647,128.921 C290.269,129.479 290.08,130.118 290.08,130.838 C290.08,131.594 290.275,132.206 290.665,132.674 C291.055,133.142 291.565,133.502 292.195,133.754 C292.825,134.006 293.632,134.246 294.616,134.474 C295.348,134.642 295.93,134.804 296.362,134.96 C296.794,135.116 297.142,135.326 297.406,135.59 C297.67,135.854 297.802,136.196 297.802,136.616 C297.802,137.336 297.526,137.894 296.974,138.29 C296.422,138.686 295.636,138.884 294.616,138.884 C293.752,138.884 292.993,138.77 292.339,138.542 C291.685,138.314 291.046,137.936 290.422,137.408 L290.422,137.408 L289.846,138.542 C291.034,139.61 292.618,140.144 294.598,140.144 Z M305.344,140.126 C305.968,140.126 306.58,140.021 307.18,139.811 C307.78,139.601 308.272,139.316 308.656,138.956 L308.656,138.956 L308.17,137.894 C307.318,138.59 306.382,138.938 305.362,138.938 C304.438,138.938 303.724,138.677 303.22,138.155 C302.716,137.633 302.44,136.862 302.392,135.842 L302.392,135.842 L308.8,135.842 L308.8,135.302 C308.8,133.97 308.47,132.923 307.81,132.161 C307.15,131.399 306.238,131.018 305.074,131.018 C304.27,131.018 303.553,131.21 302.923,131.594 C302.293,131.978 301.804,132.515 301.456,133.205 C301.108,133.895 300.934,134.69 300.934,135.59 C300.934,137.006 301.327,138.116 302.113,138.92 C302.899,139.724 303.976,140.126 305.344,140.126 Z M307.522,134.906 L302.428,134.906 C302.512,134.03 302.785,133.352 303.247,132.872 C303.709,132.392 304.324,132.152 305.092,132.152 C305.848,132.152 306.436,132.389 306.856,132.863 C307.276,133.337 307.498,134.018 307.522,134.906 L307.522,134.906 Z M312.4,140 L312.4,134.996 C312.4,134.288 312.601,133.694 313.003,133.214 C313.405,132.734 314.056,132.452 314.956,132.368 L314.956,132.368 L315.91,132.278 L315.784,131.018 L315.262,131.054 C313.822,131.174 312.856,131.744 312.364,132.764 L312.364,132.764 L312.364,131.234 L310.942,131.234 L310.942,140 L312.4,140 Z M321.256,140 L325.036,131.252 L323.578,131.252 L320.608,138.416 L317.674,131.252 L316.126,131.252 L319.888,140 L321.256,140 Z M330.436,140.126 C331.06,140.126 331.672,140.021 332.272,139.811 C332.872,139.601 333.364,139.316 333.748,138.956 L333.748,138.956 L333.262,137.894 C332.41,138.59 331.474,138.938 330.454,138.938 C329.53,138.938 328.816,138.677 328.312,138.155 C327.808,137.633 327.532,136.862 327.484,135.842 L327.484,135.842 L333.892,135.842 L333.892,135.302 C333.892,133.97 333.562,132.923 332.902,132.161 C332.242,131.399 331.33,131.018 330.166,131.018 C329.362,131.018 328.645,131.21 328.015,131.594 C327.385,131.978 326.896,132.515 326.548,133.205 C326.2,133.895 326.026,134.69 326.026,135.59 C326.026,137.006 326.419,138.116 327.205,138.92 C327.991,139.724 329.068,140.126 330.436,140.126 Z M332.614,134.906 L327.52,134.906 C327.604,134.03 327.877,133.352 328.339,132.872 C328.801,132.392 329.416,132.152 330.184,132.152 C330.94,132.152 331.528,132.389 331.948,132.863 C332.368,133.337 332.59,134.018 332.614,134.906 L332.614,134.906 Z M337.492,140 L337.492,134.996 C337.492,134.288 337.693,133.694 338.095,133.214 C338.497,132.734 339.148,132.452 340.048,132.368 L340.048,132.368 L341.002,132.278 L340.876,131.018 L340.354,131.054 C338.914,131.174 337.948,131.744 337.456,132.764 L337.456,132.764 L337.456,131.234 L336.034,131.234 L336.034,140 L337.492,140 Z M345.358,140.126 C346.426,140.126 347.269,139.898 347.887,139.442 C348.505,138.986 348.814,138.374 348.814,137.606 C348.814,136.982 348.616,136.475 348.22,136.085 C347.824,135.695 347.218,135.404 346.402,135.212 L346.402,135.212 L344.908,134.852 C344.44,134.744 344.101,134.585 343.891,134.375 C343.681,134.165 343.576,133.886 343.576,133.538 C343.576,133.118 343.747,132.791 344.089,132.557 C344.431,132.323 344.908,132.206 345.52,132.206 C346.48,132.206 347.362,132.548 348.166,133.232 L348.166,133.232 L348.652,132.17 C348.28,131.798 347.818,131.513 347.266,131.315 C346.714,131.117 346.132,131.018 345.52,131.018 C344.5,131.018 343.684,131.258 343.072,131.738 C342.46,132.218 342.154,132.848 342.154,133.628 C342.154,134.228 342.352,134.732 342.748,135.14 C343.144,135.548 343.714,135.836 344.458,136.004 L344.458,136.004 L345.934,136.346 C346.462,136.466 346.84,136.628 347.068,136.832 C347.296,137.036 347.41,137.312 347.41,137.66 C347.41,138.08 347.239,138.401 346.897,138.623 C346.555,138.845 346.06,138.956 345.412,138.956 C344.8,138.956 344.251,138.875 343.765,138.713 C343.279,138.551 342.802,138.284 342.334,137.912 L342.334,137.912 L341.848,138.992 C342.712,139.748 343.882,140.126 345.358,140.126 Z" id="Servers" fill="#10162F" fill-rule="nonzero"></path>
        <path d="M71.832,140 C73.86,140 75.429,139.448 76.539,138.344 C77.649,137.24 78.204,135.674 78.204,133.646 C78.204,131.618 77.649,130.055 76.539,128.957 C75.429,127.859 73.86,127.31 71.832,127.31 L71.832,127.31 L67.566,127.31 L67.566,140 L71.832,140 Z M71.742,138.74 L69.042,138.74 L69.042,128.57 L71.742,128.57 C75.03,128.57 76.674,130.262 76.674,133.646 C76.674,137.042 75.03,138.74 71.742,138.74 L71.742,138.74 Z M83.442,140.126 C84.054,140.126 84.594,139.985 85.062,139.703 C85.53,139.421 85.878,139.022 86.106,138.506 L86.106,138.506 L86.106,140 L87.528,140 L87.528,134.474 C87.528,133.31 87.255,132.443 86.709,131.873 C86.163,131.303 85.332,131.018 84.216,131.018 C83.616,131.018 82.995,131.117 82.353,131.315 C81.711,131.513 81.162,131.774 80.706,132.098 L80.706,132.098 L81.192,133.16 C82.188,132.536 83.19,132.224 84.198,132.224 C84.87,132.224 85.356,132.389 85.656,132.719 C85.956,133.049 86.106,133.58 86.106,134.312 L86.106,134.312 L86.106,134.906 L85.71,134.906 C84.342,134.906 83.274,134.987 82.506,135.149 C81.738,135.311 81.186,135.575 80.85,135.941 C80.514,136.307 80.346,136.82 80.346,137.48 C80.346,137.972 80.484,138.422 80.76,138.83 C81.036,139.238 81.411,139.556 81.885,139.784 C82.359,140.012 82.878,140.126 83.442,140.126 Z M83.64,138.974 C83.124,138.974 82.695,138.821 82.353,138.515 C82.011,138.209 81.84,137.822 81.84,137.354 C81.84,136.946 81.957,136.637 82.191,136.427 C82.425,136.217 82.818,136.067 83.37,135.977 C83.922,135.887 84.726,135.842 85.782,135.842 L85.782,135.842 L86.106,135.842 L86.106,136.364 C86.106,137.132 85.875,137.759 85.413,138.245 C84.951,138.731 84.36,138.974 83.64,138.974 Z M93.864,140.126 C94.188,140.126 94.488,140.102 94.764,140.054 L94.764,140.054 L94.836,138.902 C94.572,138.938 94.308,138.956 94.044,138.956 C92.772,138.956 92.136,138.266 92.136,136.886 L92.136,136.886 L92.136,132.386 L94.62,132.386 L94.62,131.234 L92.136,131.234 L92.136,128.57 L90.678,128.57 L90.678,131.234 L88.968,131.234 L88.968,132.386 L90.678,132.386 L90.678,136.994 C90.678,137.978 90.945,138.746 91.479,139.298 C92.013,139.85 92.808,140.126 93.864,140.126 Z M99.102,140.126 C99.714,140.126 100.254,139.985 100.722,139.703 C101.19,139.421 101.538,139.022 101.766,138.506 L101.766,138.506 L101.766,140 L103.188,140 L103.188,134.474 C103.188,133.31 102.915,132.443 102.369,131.873 C101.823,131.303 100.992,131.018 99.876,131.018 C99.276,131.018 98.655,131.117 98.013,131.315 C97.371,131.513 96.822,131.774 96.366,132.098 L96.366,132.098 L96.852,133.16 C97.848,132.536 98.85,132.224 99.858,132.224 C100.53,132.224 101.016,132.389 101.316,132.719 C101.616,133.049 101.766,133.58 101.766,134.312 L101.766,134.312 L101.766,134.906 L101.37,134.906 C100.002,134.906 98.934,134.987 98.166,135.149 C97.398,135.311 96.846,135.575 96.51,135.941 C96.174,136.307 96.006,136.82 96.006,137.48 C96.006,137.972 96.144,138.422 96.42,138.83 C96.696,139.238 97.071,139.556 97.545,139.784 C98.019,140.012 98.538,140.126 99.102,140.126 Z M99.3,138.974 C98.784,138.974 98.355,138.821 98.013,138.515 C97.671,138.209 97.5,137.822 97.5,137.354 C97.5,136.946 97.617,136.637 97.851,136.427 C98.085,136.217 98.478,136.067 99.03,135.977 C99.582,135.887 100.386,135.842 101.442,135.842 L101.442,135.842 L101.766,135.842 L101.766,136.364 C101.766,137.132 101.535,137.759 101.073,138.245 C100.611,138.731 100.02,138.974 99.3,138.974 Z M110.262,140.126 C111.03,140.126 111.708,139.934 112.296,139.55 C112.884,139.166 113.34,138.629 113.664,137.939 C113.988,137.249 114.15,136.448 114.15,135.536 C114.15,134.636 113.988,133.844 113.664,133.16 C113.34,132.476 112.884,131.948 112.296,131.576 C111.708,131.204 111.03,131.018 110.262,131.018 C109.578,131.018 108.981,131.168 108.471,131.468 C107.961,131.768 107.574,132.194 107.31,132.746 L107.31,132.746 L107.31,127.31 L105.852,127.31 L105.852,140 L107.31,140 L107.31,138.398 C107.574,138.95 107.961,139.376 108.471,139.676 C108.981,139.976 109.578,140.126 110.262,140.126 Z M109.974,138.92 C109.122,138.92 108.465,138.629 108.003,138.047 C107.541,137.465 107.31,136.64 107.31,135.572 C107.31,134.504 107.541,133.682 108.003,133.106 C108.465,132.53 109.122,132.242 109.974,132.242 C110.826,132.242 111.486,132.53 111.954,133.106 C112.422,133.682 112.656,134.492 112.656,135.536 C112.656,136.604 112.422,137.435 111.954,138.029 C111.486,138.623 110.826,138.92 109.974,138.92 Z M119.118,140.126 C119.73,140.126 120.27,139.985 120.738,139.703 C121.206,139.421 121.554,139.022 121.782,138.506 L121.782,138.506 L121.782,140 L123.204,140 L123.204,134.474 C123.204,133.31 122.931,132.443 122.385,131.873 C121.839,131.303 121.008,131.018 119.892,131.018 C119.292,131.018 118.671,131.117 118.029,131.315 C117.387,131.513 116.838,131.774 116.382,132.098 L116.382,132.098 L116.868,133.16 C117.864,132.536 118.866,132.224 119.874,132.224 C120.546,132.224 121.032,132.389 121.332,132.719 C121.632,133.049 121.782,133.58 121.782,134.312 L121.782,134.312 L121.782,134.906 L121.386,134.906 C120.018,134.906 118.95,134.987 118.182,135.149 C117.414,135.311 116.862,135.575 116.526,135.941 C116.19,136.307 116.022,136.82 116.022,137.48 C116.022,137.972 116.16,138.422 116.436,138.83 C116.712,139.238 117.087,139.556 117.561,139.784 C118.035,140.012 118.554,140.126 119.118,140.126 Z M119.316,138.974 C118.8,138.974 118.371,138.821 118.029,138.515 C117.687,138.209 117.516,137.822 117.516,137.354 C117.516,136.946 117.633,136.637 117.867,136.427 C118.101,136.217 118.494,136.067 119.046,135.977 C119.598,135.887 120.402,135.842 121.458,135.842 L121.458,135.842 L121.782,135.842 L121.782,136.364 C121.782,137.132 121.551,137.759 121.089,138.245 C120.627,138.731 120.036,138.974 119.316,138.974 Z M128.838,140.126 C129.906,140.126 130.749,139.898 131.367,139.442 C131.985,138.986 132.294,138.374 132.294,137.606 C132.294,136.982 132.096,136.475 131.7,136.085 C131.304,135.695 130.698,135.404 129.882,135.212 L129.882,135.212 L128.388,134.852 C127.92,134.744 127.581,134.585 127.371,134.375 C127.161,134.165 127.056,133.886 127.056,133.538 C127.056,133.118 127.227,132.791 127.569,132.557 C127.911,132.323 128.388,132.206 129,132.206 C129.96,132.206 130.842,132.548 131.646,133.232 L131.646,133.232 L132.132,132.17 C131.76,131.798 131.298,131.513 130.746,131.315 C130.194,131.117 129.612,131.018 129,131.018 C127.98,131.018 127.164,131.258 126.552,131.738 C125.94,132.218 125.634,132.848 125.634,133.628 C125.634,134.228 125.832,134.732 126.228,135.14 C126.624,135.548 127.194,135.836 127.938,136.004 L127.938,136.004 L129.414,136.346 C129.942,136.466 130.32,136.628 130.548,136.832 C130.776,137.036 130.89,137.312 130.89,137.66 C130.89,138.08 130.719,138.401 130.377,138.623 C130.035,138.845 129.54,138.956 128.892,138.956 C128.28,138.956 127.731,138.875 127.245,138.713 C126.759,138.551 126.282,138.284 125.814,137.912 L125.814,137.912 L125.328,138.992 C126.192,139.748 127.362,140.126 128.838,140.126 Z M138.396,140.126 C139.02,140.126 139.632,140.021 140.232,139.811 C140.832,139.601 141.324,139.316 141.708,138.956 L141.708,138.956 L141.222,137.894 C140.37,138.59 139.434,138.938 138.414,138.938 C137.49,138.938 136.776,138.677 136.272,138.155 C135.768,137.633 135.492,136.862 135.444,135.842 L135.444,135.842 L141.852,135.842 L141.852,135.302 C141.852,133.97 141.522,132.923 140.862,132.161 C140.202,131.399 139.29,131.018 138.126,131.018 C137.322,131.018 136.605,131.21 135.975,131.594 C135.345,131.978 134.856,132.515 134.508,133.205 C134.16,133.895 133.986,134.69 133.986,135.59 C133.986,137.006 134.379,138.116 135.165,138.92 C135.951,139.724 137.028,140.126 138.396,140.126 Z M140.574,134.906 L135.48,134.906 C135.564,134.03 135.837,133.352 136.299,132.872 C136.761,132.392 137.376,132.152 138.144,132.152 C138.9,132.152 139.488,132.389 139.908,132.863 C140.328,133.337 140.55,134.018 140.574,134.906 L140.574,134.906 Z" id="Database" fill="#000000" fill-rule="nonzero"></path>
        <path d="M507.282,140 L510.9,129.614 L514.518,140 L515.778,140 L520.206,127.31 L518.766,127.31 L515.13,137.93 L511.494,127.328 L510.378,127.31 L506.688,137.912 L503.088,127.31 L501.594,127.31 L506.04,140 L507.282,140 Z M526.056,140.126 C526.68,140.126 527.292,140.021 527.892,139.811 C528.492,139.601 528.984,139.316 529.368,138.956 L529.368,138.956 L528.882,137.894 C528.03,138.59 527.094,138.938 526.074,138.938 C525.15,138.938 524.436,138.677 523.932,138.155 C523.428,137.633 523.152,136.862 523.104,135.842 L523.104,135.842 L529.512,135.842 L529.512,135.302 C529.512,133.97 529.182,132.923 528.522,132.161 C527.862,131.399 526.95,131.018 525.786,131.018 C524.982,131.018 524.265,131.21 523.635,131.594 C523.005,131.978 522.516,132.515 522.168,133.205 C521.82,133.895 521.646,134.69 521.646,135.59 C521.646,137.006 522.039,138.116 522.825,138.92 C523.611,139.724 524.688,140.126 526.056,140.126 Z M528.234,134.906 L523.14,134.906 C523.224,134.03 523.497,133.352 523.959,132.872 C524.421,132.392 525.036,132.152 525.804,132.152 C526.56,132.152 527.148,132.389 527.568,132.863 C527.988,133.337 528.21,134.018 528.234,134.906 L528.234,134.906 Z M536.064,140.126 C536.832,140.126 537.51,139.934 538.098,139.55 C538.686,139.166 539.142,138.629 539.466,137.939 C539.79,137.249 539.952,136.448 539.952,135.536 C539.952,134.636 539.79,133.844 539.466,133.16 C539.142,132.476 538.686,131.948 538.098,131.576 C537.51,131.204 536.832,131.018 536.064,131.018 C535.38,131.018 534.783,131.168 534.273,131.468 C533.763,131.768 533.376,132.194 533.112,132.746 L533.112,132.746 L533.112,127.31 L531.654,127.31 L531.654,140 L533.112,140 L533.112,138.398 C533.376,138.95 533.763,139.376 534.273,139.676 C534.783,139.976 535.38,140.126 536.064,140.126 Z M535.776,138.92 C534.924,138.92 534.267,138.629 533.805,138.047 C533.343,137.465 533.112,136.64 533.112,135.572 C533.112,134.504 533.343,133.682 533.805,133.106 C534.267,132.53 534.924,132.242 535.776,132.242 C536.628,132.242 537.288,132.53 537.756,133.106 C538.224,133.682 538.458,134.492 538.458,135.536 C538.458,136.604 538.224,137.435 537.756,138.029 C537.288,138.623 536.628,138.92 535.776,138.92 Z M545.1,140.126 C546.168,140.126 547.011,139.898 547.629,139.442 C548.247,138.986 548.556,138.374 548.556,137.606 C548.556,136.982 548.358,136.475 547.962,136.085 C547.566,135.695 546.96,135.404 546.144,135.212 L546.144,135.212 L544.65,134.852 C544.182,134.744 543.843,134.585 543.633,134.375 C543.423,134.165 543.318,133.886 543.318,133.538 C543.318,133.118 543.489,132.791 543.831,132.557 C544.173,132.323 544.65,132.206 545.262,132.206 C546.222,132.206 547.104,132.548 547.908,133.232 L547.908,133.232 L548.394,132.17 C548.022,131.798 547.56,131.513 547.008,131.315 C546.456,131.117 545.874,131.018 545.262,131.018 C544.242,131.018 543.426,131.258 542.814,131.738 C542.202,132.218 541.896,132.848 541.896,133.628 C541.896,134.228 542.094,134.732 542.49,135.14 C542.886,135.548 543.456,135.836 544.2,136.004 L544.2,136.004 L545.676,136.346 C546.204,136.466 546.582,136.628 546.81,136.832 C547.038,137.036 547.152,137.312 547.152,137.66 C547.152,138.08 546.981,138.401 546.639,138.623 C546.297,138.845 545.802,138.956 545.154,138.956 C544.542,138.956 543.993,138.875 543.507,138.713 C543.021,138.551 542.544,138.284 542.076,137.912 L542.076,137.912 L541.59,138.992 C542.454,139.748 543.624,140.126 545.1,140.126 Z M552.39,129.074 L552.39,127.436 L550.626,127.436 L550.626,129.074 L552.39,129.074 Z M552.228,140 L552.228,131.234 L550.77,131.234 L550.77,140 L552.228,140 Z M558.618,140.126 C558.942,140.126 559.242,140.102 559.518,140.054 L559.518,140.054 L559.59,138.902 C559.326,138.938 559.062,138.956 558.798,138.956 C557.526,138.956 556.89,138.266 556.89,136.886 L556.89,136.886 L556.89,132.386 L559.374,132.386 L559.374,131.234 L556.89,131.234 L556.89,128.57 L555.432,128.57 L555.432,131.234 L553.722,131.234 L553.722,132.386 L555.432,132.386 L555.432,136.994 C555.432,137.978 555.699,138.746 556.233,139.298 C556.767,139.85 557.562,140.126 558.618,140.126 Z M564.954,140.126 C565.578,140.126 566.19,140.021 566.79,139.811 C567.39,139.601 567.882,139.316 568.266,138.956 L568.266,138.956 L567.78,137.894 C566.928,138.59 565.992,138.938 564.972,138.938 C564.048,138.938 563.334,138.677 562.83,138.155 C562.326,137.633 562.05,136.862 562.002,135.842 L562.002,135.842 L568.41,135.842 L568.41,135.302 C568.41,133.97 568.08,132.923 567.42,132.161 C566.76,131.399 565.848,131.018 564.684,131.018 C563.88,131.018 563.163,131.21 562.533,131.594 C561.903,131.978 561.414,132.515 561.066,133.205 C560.718,133.895 560.544,134.69 560.544,135.59 C560.544,137.006 560.937,138.116 561.723,138.92 C562.509,139.724 563.586,140.126 564.954,140.126 Z M567.132,134.906 L562.038,134.906 C562.122,134.03 562.395,133.352 562.857,132.872 C563.319,132.392 563.934,132.152 564.702,132.152 C565.458,132.152 566.046,132.389 566.466,132.863 C566.886,133.337 567.108,134.018 567.132,134.906 L567.132,134.906 Z" id="Website" fill="#10162F" fill-rule="nonzero"></path>
        <path d="M425.208,68.128 C425.986667,68.128 426.701333,68.008 427.352,67.768 C428.002667,67.528 428.568,67.1733333 429.048,66.704 L429.048,66.704 L428.552,65.696 C428.008,66.1546667 427.474667,66.4853333 426.952,66.688 C426.429333,66.8906667 425.853333,66.992 425.224,66.992 C423.986667,66.992 423.029333,66.5893333 422.352,65.784 C421.674667,64.9786667 421.336,63.8346667 421.336,62.352 C421.336,60.88 421.674667,59.7413333 422.352,58.936 C423.029333,58.1306667 423.986667,57.728 425.224,57.728 C425.853333,57.728 426.429333,57.8293333 426.952,58.032 C427.474667,58.2346667 428.008,58.5653333 428.552,59.024 L428.552,59.024 L429.048,58.016 C428.568,57.5466667 428.002667,57.192 427.352,56.952 C426.701333,56.712 425.986667,56.592 425.208,56.592 C424.141333,56.592 423.213333,56.824 422.424,57.288 C421.634667,57.752 421.029333,58.416 420.608,59.28 C420.186667,60.144 419.976,61.168 419.976,62.352 C419.976,63.536 420.186667,64.5626667 420.608,65.432 C421.029333,66.3013333 421.634667,66.968 422.424,67.432 C423.213333,67.896 424.141333,68.128 425.208,68.128 Z M434.264,68.112 C435,68.112 435.650667,67.9466667 436.216,67.616 C436.781333,67.2853333 437.216,66.8133333 437.52,66.2 C437.824,65.5866667 437.976,64.8746667 437.976,64.064 C437.976,63.2533333 437.824,62.5413333 437.52,61.928 C437.216,61.3146667 436.781333,60.8426667 436.216,60.512 C435.650667,60.1813333 435,60.016 434.264,60.016 C433.528,60.016 432.88,60.1813333 432.32,60.512 C431.76,60.8426667 431.328,61.3146667 431.024,61.928 C430.72,62.5413333 430.568,63.2533333 430.568,64.064 C430.568,64.8746667 430.72,65.5866667 431.024,66.2 C431.328,66.8133333 431.76,67.2853333 432.32,67.616 C432.88,67.9466667 433.528,68.112 434.264,68.112 Z M434.264,67.04 C433.496,67.04 432.906667,66.784 432.496,66.272 C432.085333,65.76 431.88,65.024 431.88,64.064 C431.88,63.1146667 432.088,62.3813333 432.504,61.864 C432.92,61.3466667 433.506667,61.088 434.264,61.088 C435.021333,61.088 435.608,61.3466667 436.024,61.864 C436.44,62.3813333 436.648,63.1146667 436.648,64.064 C436.648,65.0346667 436.442667,65.7733333 436.032,66.28 C435.621333,66.7866667 435.032,67.04 434.264,67.04 Z M441.208,68 L441.208,63.536 C441.208,62.7893333 441.421333,62.1973333 441.848,61.76 C442.274667,61.3226667 442.845333,61.104 443.56,61.104 C444.178667,61.104 444.629333,61.2693333 444.912,61.6 C445.194667,61.9306667 445.336,62.4586667 445.336,63.184 L445.336,63.184 L445.336,68 L446.632,68 L446.632,63.104 C446.632,61.0453333 445.698667,60.016 443.832,60.016 C443.245333,60.016 442.722667,60.1413333 442.264,60.392 C441.805333,60.6426667 441.448,61.008 441.192,61.488 L441.192,61.488 L441.192,60.208 L439.912,60.208 L439.912,68 L441.208,68 Z M452.264,68.112 C452.552,68.112 452.818667,68.0906667 453.064,68.048 L453.064,68.048 L453.128,67.024 C452.893333,67.056 452.658667,67.072 452.424,67.072 C451.293333,67.072 450.728,66.4586667 450.728,65.232 L450.728,65.232 L450.728,61.232 L452.936,61.232 L452.936,60.208 L450.728,60.208 L450.728,57.84 L449.432,57.84 L449.432,60.208 L447.912,60.208 L447.912,61.232 L449.432,61.232 L449.432,65.328 C449.432,66.2026667 449.669333,66.8853333 450.144,67.376 C450.618667,67.8666667 451.325333,68.112 452.264,68.112 Z M457.896,68.112 C458.450667,68.112 458.994667,68.0186667 459.528,67.832 C460.061333,67.6453333 460.498667,67.392 460.84,67.072 L460.84,67.072 L460.408,66.128 C459.650667,66.7466667 458.818667,67.056 457.912,67.056 C457.090667,67.056 456.456,66.824 456.008,66.36 C455.56,65.896 455.314667,65.2106667 455.272,64.304 L455.272,64.304 L460.968,64.304 L460.968,63.824 C460.968,62.64 460.674667,61.7093333 460.088,61.032 C459.501333,60.3546667 458.690667,60.016 457.656,60.016 C456.941333,60.016 456.304,60.1866667 455.744,60.528 C455.184,60.8693333 454.749333,61.3466667 454.44,61.96 C454.130667,62.5733333 453.976,63.28 453.976,64.08 C453.976,65.3386667 454.325333,66.3253333 455.024,67.04 C455.722667,67.7546667 456.68,68.112 457.896,68.112 Z M459.832,63.472 L455.304,63.472 C455.378667,62.6933333 455.621333,62.0906667 456.032,61.664 C456.442667,61.2373333 456.989333,61.024 457.672,61.024 C458.344,61.024 458.866667,61.2346667 459.24,61.656 C459.613333,62.0773333 459.810667,62.6826667 459.832,63.472 L459.832,63.472 Z M464.168,68 L464.168,63.536 C464.168,62.7893333 464.381333,62.1973333 464.808,61.76 C465.234667,61.3226667 465.805333,61.104 466.52,61.104 C467.138667,61.104 467.589333,61.2693333 467.872,61.6 C468.154667,61.9306667 468.296,62.4586667 468.296,63.184 L468.296,63.184 L468.296,68 L469.592,68 L469.592,63.104 C469.592,61.0453333 468.658667,60.016 466.792,60.016 C466.205333,60.016 465.682667,60.1413333 465.224,60.392 C464.765333,60.6426667 464.408,61.008 464.152,61.488 L464.152,61.488 L464.152,60.208 L462.872,60.208 L462.872,68 L464.168,68 Z M475.224,68.112 C475.512,68.112 475.778667,68.0906667 476.024,68.048 L476.024,68.048 L476.088,67.024 C475.853333,67.056 475.618667,67.072 475.384,67.072 C474.253333,67.072 473.688,66.4586667 473.688,65.232 L473.688,65.232 L473.688,61.232 L475.896,61.232 L475.896,60.208 L473.688,60.208 L473.688,57.84 L472.392,57.84 L472.392,60.208 L470.872,60.208 L470.872,61.232 L472.392,61.232 L472.392,65.328 C472.392,66.2026667 472.629333,66.8853333 473.104,67.376 C473.578667,67.8666667 474.285333,68.112 475.224,68.112 Z" id="Content" fill="#10162F" fill-rule="nonzero"></path>
        <path d="M174.232,71.2 L175.336,70.624 L174.264,68.896 C174.072,68.5866667 173.885333,68.344 173.704,68.168 C173.522667,67.992 173.314667,67.8666667 173.08,67.792 C174.093333,67.4186667 174.874667,66.76 175.424,65.816 C175.973333,64.872 176.248,63.7173333 176.248,62.352 C176.248,61.1786667 176.04,60.1573333 175.624,59.288 C175.208,58.4186667 174.613333,57.752 173.84,57.288 C173.066667,56.824 172.157333,56.592 171.112,56.592 C170.056,56.592 169.141333,56.824 168.368,57.288 C167.594667,57.752 167.002667,58.4186667 166.592,59.288 C166.181333,60.1573333 165.976,61.184 165.976,62.368 C165.976,63.5413333 166.184,64.56 166.6,65.424 C167.016,66.288 167.610667,66.9546667 168.384,67.424 C169.157333,67.8933333 170.066667,68.128 171.112,68.128 C171.933333,68.128 172.530667,68.432 172.904,69.04 L172.904,69.04 L174.232,71.2 Z M171.112,67.008 C169.917333,67.008 168.986667,66.6026667 168.32,65.792 C167.653333,64.9813333 167.32,63.8346667 167.32,62.352 C167.32,60.8693333 167.653333,59.7253333 168.32,58.92 C168.986667,58.1146667 169.917333,57.712 171.112,57.712 C172.317333,57.712 173.250667,58.112 173.912,58.912 C174.573333,59.712 174.904,60.8586667 174.904,62.352 C174.904,63.8453333 174.570667,64.9946667 173.904,65.8 C173.237333,66.6053333 172.306667,67.008 171.112,67.008 Z M181.192,68.112 C181.746667,68.112 182.245333,67.9893333 182.688,67.744 C183.130667,67.4986667 183.474667,67.1413333 183.72,66.672 L183.72,66.672 L183.72,68 L184.984,68 L184.984,60.208 L183.688,60.208 L183.688,64.608 C183.688,65.3333333 183.48,65.9173333 183.064,66.36 C182.648,66.8026667 182.098667,67.024 181.416,67.024 C180.818667,67.024 180.381333,66.8613333 180.104,66.536 C179.826667,66.2106667 179.688,65.7013333 179.688,65.008 L179.688,65.008 L179.688,60.208 L178.392,60.208 L178.392,65.04 C178.392,66.0533333 178.626667,66.8186667 179.096,67.336 C179.565333,67.8533333 180.264,68.112 181.192,68.112 Z M190.856,68.112 C191.410667,68.112 191.954667,68.0186667 192.488,67.832 C193.021333,67.6453333 193.458667,67.392 193.8,67.072 L193.8,67.072 L193.368,66.128 C192.610667,66.7466667 191.778667,67.056 190.872,67.056 C190.050667,67.056 189.416,66.824 188.968,66.36 C188.52,65.896 188.274667,65.2106667 188.232,64.304 L188.232,64.304 L193.928,64.304 L193.928,63.824 C193.928,62.64 193.634667,61.7093333 193.048,61.032 C192.461333,60.3546667 191.650667,60.016 190.616,60.016 C189.901333,60.016 189.264,60.1866667 188.704,60.528 C188.144,60.8693333 187.709333,61.3466667 187.4,61.96 C187.090667,62.5733333 186.936,63.28 186.936,64.08 C186.936,65.3386667 187.285333,66.3253333 187.984,67.04 C188.682667,67.7546667 189.64,68.112 190.856,68.112 Z M192.792,63.472 L188.264,63.472 C188.338667,62.6933333 188.581333,62.0906667 188.992,61.664 C189.402667,61.2373333 189.949333,61.024 190.632,61.024 C191.304,61.024 191.826667,61.2346667 192.2,61.656 C192.573333,62.0773333 192.770667,62.6826667 192.792,63.472 L192.792,63.472 Z M197.128,68 L197.128,63.552 C197.128,62.9226667 197.306667,62.3946667 197.664,61.968 C198.021333,61.5413333 198.6,61.2906667 199.4,61.216 L199.4,61.216 L200.248,61.136 L200.136,60.016 L199.672,60.048 C198.392,60.1546667 197.533333,60.6613333 197.096,61.568 L197.096,61.568 L197.096,60.208 L195.832,60.208 L195.832,68 L197.128,68 Z M202.92,58.288 L202.92,56.832 L201.352,56.832 L201.352,58.288 L202.92,58.288 Z M202.776,68 L202.776,60.208 L201.48,60.208 L201.48,68 L202.776,68 Z M208.648,68.112 C209.202667,68.112 209.746667,68.0186667 210.28,67.832 C210.813333,67.6453333 211.250667,67.392 211.592,67.072 L211.592,67.072 L211.16,66.128 C210.402667,66.7466667 209.570667,67.056 208.664,67.056 C207.842667,67.056 207.208,66.824 206.76,66.36 C206.312,65.896 206.066667,65.2106667 206.024,64.304 L206.024,64.304 L211.72,64.304 L211.72,63.824 C211.72,62.64 211.426667,61.7093333 210.84,61.032 C210.253333,60.3546667 209.442667,60.016 208.408,60.016 C207.693333,60.016 207.056,60.1866667 206.496,60.528 C205.936,60.8693333 205.501333,61.3466667 205.192,61.96 C204.882667,62.5733333 204.728,63.28 204.728,64.08 C204.728,65.3386667 205.077333,66.3253333 205.776,67.04 C206.474667,67.7546667 207.432,68.112 208.648,68.112 Z M210.584,63.472 L206.056,63.472 C206.130667,62.6933333 206.373333,62.0906667 206.784,61.664 C207.194667,61.2373333 207.741333,61.024 208.424,61.024 C209.096,61.024 209.618667,61.2346667 209.992,61.656 C210.365333,62.0773333 210.562667,62.6826667 210.584,63.472 L210.584,63.472 Z M216.264,68.112 C217.213333,68.112 217.962667,67.9093333 218.512,67.504 C219.061333,67.0986667 219.336,66.5546667 219.336,65.872 C219.336,65.3173333 219.16,64.8666667 218.808,64.52 C218.456,64.1733333 217.917333,63.9146667 217.192,63.744 L217.192,63.744 L215.864,63.424 C215.448,63.328 215.146667,63.1866667 214.96,63 C214.773333,62.8133333 214.68,62.5653333 214.68,62.256 C214.68,61.8826667 214.832,61.592 215.136,61.384 C215.44,61.176 215.864,61.072 216.408,61.072 C217.261333,61.072 218.045333,61.376 218.76,61.984 L218.76,61.984 L219.192,61.04 C218.861333,60.7093333 218.450667,60.456 217.96,60.28 C217.469333,60.104 216.952,60.016 216.408,60.016 C215.501333,60.016 214.776,60.2293333 214.232,60.656 C213.688,61.0826667 213.416,61.6426667 213.416,62.336 C213.416,62.8693333 213.592,63.3173333 213.944,63.68 C214.296,64.0426667 214.802667,64.2986667 215.464,64.448 L215.464,64.448 L216.776,64.752 C217.245333,64.8586667 217.581333,65.0026667 217.784,65.184 C217.986667,65.3653333 218.088,65.6106667 218.088,65.92 C218.088,66.2933333 217.936,66.5786667 217.632,66.776 C217.328,66.9733333 216.888,67.072 216.312,67.072 C215.768,67.072 215.28,67 214.848,66.856 C214.416,66.712 213.992,66.4746667 213.576,66.144 L213.576,66.144 L213.144,67.104 C213.912,67.776 214.952,68.112 216.264,68.112 Z" id="Queries" fill="#10162F" fill-rule="nonzero"></path>
        <path d="M416.688,212 L416.688,207.232 L418.8,207.232 C419.344,207.232 419.773333,207.314667 420.088,207.48 C420.402667,207.645333 420.677333,207.946667 420.912,208.384 L420.912,208.384 L422.832,212 L424.272,212 L422.304,208.32 C422.122667,207.978667 421.922667,207.706667 421.704,207.504 C421.485333,207.301333 421.232,207.157333 420.944,207.072 C421.861333,206.933333 422.568,206.594667 423.064,206.056 C423.56,205.517333 423.808,204.810667 423.808,203.936 C423.808,202.88 423.485333,202.08 422.84,201.536 C422.194667,200.992 421.258667,200.72 420.032,200.72 L420.032,200.72 L415.392,200.72 L415.392,212 L416.688,212 Z M419.92,206.144 L416.688,206.144 L416.688,201.808 L419.92,201.808 C420.805333,201.808 421.461333,201.984 421.888,202.336 C422.314667,202.688 422.528,203.226667 422.528,203.952 C422.528,204.688 422.312,205.237333 421.88,205.6 C421.448,205.962667 420.794667,206.144 419.92,206.144 L419.92,206.144 Z M429.632,212.112 C430.186667,212.112 430.730667,212.018667 431.264,211.832 C431.797333,211.645333 432.234667,211.392 432.576,211.072 L432.576,211.072 L432.144,210.128 C431.386667,210.746667 430.554667,211.056 429.648,211.056 C428.826667,211.056 428.192,210.824 427.744,210.36 C427.296,209.896 427.050667,209.210667 427.008,208.304 L427.008,208.304 L432.704,208.304 L432.704,207.824 C432.704,206.64 432.410667,205.709333 431.824,205.032 C431.237333,204.354667 430.426667,204.016 429.392,204.016 C428.677333,204.016 428.04,204.186667 427.48,204.528 C426.92,204.869333 426.485333,205.346667 426.176,205.96 C425.866667,206.573333 425.712,207.28 425.712,208.08 C425.712,209.338667 426.061333,210.325333 426.76,211.04 C427.458667,211.754667 428.416,212.112 429.632,212.112 Z M431.568,207.472 L427.04,207.472 C427.114667,206.693333 427.357333,206.090667 427.768,205.664 C428.178667,205.237333 428.725333,205.024 429.408,205.024 C430.08,205.024 430.602667,205.234667 430.976,205.656 C431.349333,206.077333 431.546667,206.682667 431.568,207.472 L431.568,207.472 Z M441.52,214.88 L441.52,204.208 L440.224,204.208 L440.224,205.552 C439.989333,205.061333 439.645333,204.682667 439.192,204.416 C438.738667,204.149333 438.208,204.016 437.6,204.016 C436.917333,204.016 436.314667,204.186667 435.792,204.528 C435.269333,204.869333 434.864,205.346667 434.576,205.96 C434.288,206.573333 434.144,207.285333 434.144,208.096 C434.144,208.906667 434.288,209.613333 434.576,210.216 C434.864,210.818667 435.266667,211.285333 435.784,211.616 C436.301333,211.946667 436.906667,212.112 437.6,212.112 C438.208,212.112 438.738667,211.978667 439.192,211.712 C439.645333,211.445333 439.989333,211.066667 440.224,210.576 L440.224,210.576 L440.224,214.88 L441.52,214.88 Z M437.856,211.04 C437.098667,211.04 436.509333,210.784 436.088,210.272 C435.666667,209.76 435.456,209.034667 435.456,208.096 C435.456,207.157333 435.666667,206.424 436.088,205.896 C436.509333,205.368 437.098667,205.104 437.856,205.104 C438.613333,205.104 439.197333,205.36 439.608,205.872 C440.018667,206.384 440.224,207.114667 440.224,208.064 C440.224,209.013333 440.018667,209.746667 439.608,210.264 C439.197333,210.781333 438.613333,211.04 437.856,211.04 Z M446.688,212.112 C447.242667,212.112 447.741333,211.989333 448.184,211.744 C448.626667,211.498667 448.970667,211.141333 449.216,210.672 L449.216,210.672 L449.216,212 L450.48,212 L450.48,204.208 L449.184,204.208 L449.184,208.608 C449.184,209.333333 448.976,209.917333 448.56,210.36 C448.144,210.802667 447.594667,211.024 446.912,211.024 C446.314667,211.024 445.877333,210.861333 445.6,210.536 C445.322667,210.210667 445.184,209.701333 445.184,209.008 L445.184,209.008 L445.184,204.208 L443.888,204.208 L443.888,209.04 C443.888,210.053333 444.122667,210.818667 444.592,211.336 C445.061333,211.853333 445.76,212.112 446.688,212.112 Z M456.352,212.112 C456.906667,212.112 457.450667,212.018667 457.984,211.832 C458.517333,211.645333 458.954667,211.392 459.296,211.072 L459.296,211.072 L458.864,210.128 C458.106667,210.746667 457.274667,211.056 456.368,211.056 C455.546667,211.056 454.912,210.824 454.464,210.36 C454.016,209.896 453.770667,209.210667 453.728,208.304 L453.728,208.304 L459.424,208.304 L459.424,207.824 C459.424,206.64 459.130667,205.709333 458.544,205.032 C457.957333,204.354667 457.146667,204.016 456.112,204.016 C455.397333,204.016 454.76,204.186667 454.2,204.528 C453.64,204.869333 453.205333,205.346667 452.896,205.96 C452.586667,206.573333 452.432,207.28 452.432,208.08 C452.432,209.338667 452.781333,210.325333 453.48,211.04 C454.178667,211.754667 455.136,212.112 456.352,212.112 Z M458.288,207.472 L453.76,207.472 C453.834667,206.693333 454.077333,206.090667 454.488,205.664 C454.898667,205.237333 455.445333,205.024 456.128,205.024 C456.8,205.024 457.322667,205.234667 457.696,205.656 C458.069333,206.077333 458.266667,206.682667 458.288,207.472 L458.288,207.472 Z M463.968,212.112 C464.917333,212.112 465.666667,211.909333 466.216,211.504 C466.765333,211.098667 467.04,210.554667 467.04,209.872 C467.04,209.317333 466.864,208.866667 466.512,208.52 C466.16,208.173333 465.621333,207.914667 464.896,207.744 L464.896,207.744 L463.568,207.424 C463.152,207.328 462.850667,207.186667 462.664,207 C462.477333,206.813333 462.384,206.565333 462.384,206.256 C462.384,205.882667 462.536,205.592 462.84,205.384 C463.144,205.176 463.568,205.072 464.112,205.072 C464.965333,205.072 465.749333,205.376 466.464,205.984 L466.464,205.984 L466.896,205.04 C466.565333,204.709333 466.154667,204.456 465.664,204.28 C465.173333,204.104 464.656,204.016 464.112,204.016 C463.205333,204.016 462.48,204.229333 461.936,204.656 C461.392,205.082667 461.12,205.642667 461.12,206.336 C461.12,206.869333 461.296,207.317333 461.648,207.68 C462,208.042667 462.506667,208.298667 463.168,208.448 L463.168,208.448 L464.48,208.752 C464.949333,208.858667 465.285333,209.002667 465.488,209.184 C465.690667,209.365333 465.792,209.610667 465.792,209.92 C465.792,210.293333 465.64,210.578667 465.336,210.776 C465.032,210.973333 464.592,211.072 464.016,211.072 C463.472,211.072 462.984,211 462.552,210.856 C462.12,210.712 461.696,210.474667 461.28,210.144 L461.28,210.144 L460.848,211.104 C461.616,211.776 462.656,212.112 463.968,212.112 Z M472.272,212.112 C472.56,212.112 472.826667,212.090667 473.072,212.048 L473.072,212.048 L473.136,211.024 C472.901333,211.056 472.666667,211.072 472.432,211.072 C471.301333,211.072 470.736,210.458667 470.736,209.232 L470.736,209.232 L470.736,205.232 L472.944,205.232 L472.944,204.208 L470.736,204.208 L470.736,201.84 L469.44,201.84 L469.44,204.208 L467.92,204.208 L467.92,205.232 L469.44,205.232 L469.44,209.328 C469.44,210.202667 469.677333,210.885333 470.152,211.376 C470.626667,211.866667 471.333333,212.112 472.272,212.112 Z M477.088,212.112 C478.037333,212.112 478.786667,211.909333 479.336,211.504 C479.885333,211.098667 480.16,210.554667 480.16,209.872 C480.16,209.317333 479.984,208.866667 479.632,208.52 C479.28,208.173333 478.741333,207.914667 478.016,207.744 L478.016,207.744 L476.688,207.424 C476.272,207.328 475.970667,207.186667 475.784,207 C475.597333,206.813333 475.504,206.565333 475.504,206.256 C475.504,205.882667 475.656,205.592 475.96,205.384 C476.264,205.176 476.688,205.072 477.232,205.072 C478.085333,205.072 478.869333,205.376 479.584,205.984 L479.584,205.984 L480.016,205.04 C479.685333,204.709333 479.274667,204.456 478.784,204.28 C478.293333,204.104 477.776,204.016 477.232,204.016 C476.325333,204.016 475.6,204.229333 475.056,204.656 C474.512,205.082667 474.24,205.642667 474.24,206.336 C474.24,206.869333 474.416,207.317333 474.768,207.68 C475.12,208.042667 475.626667,208.298667 476.288,208.448 L476.288,208.448 L477.6,208.752 C478.069333,208.858667 478.405333,209.002667 478.608,209.184 C478.810667,209.365333 478.912,209.610667 478.912,209.92 C478.912,210.293333 478.76,210.578667 478.456,210.776 C478.152,210.973333 477.712,211.072 477.136,211.072 C476.592,211.072 476.104,211 475.672,210.856 C475.24,210.712 474.816,210.474667 474.4,210.144 L474.4,210.144 L473.968,211.104 C474.736,211.776 475.776,212.112 477.088,212.112 Z" id="Requests" fill="#10162F" fill-rule="nonzero"></path>
        <path d="M175.096,212 L180.024,200.72 L178.68,200.72 L174.536,210.352 L170.408,200.72 L169.032,200.72 L173.96,212 L175.096,212 Z M183.736,212.112 C184.28,212.112 184.76,211.986667 185.176,211.736 C185.592,211.485333 185.901333,211.130667 186.104,210.672 L186.104,210.672 L186.104,212 L187.368,212 L187.368,207.088 C187.368,206.053333 187.125333,205.282667 186.64,204.776 C186.154667,204.269333 185.416,204.016 184.424,204.016 C183.890667,204.016 183.338667,204.104 182.768,204.28 C182.197333,204.456 181.709333,204.688 181.304,204.976 L181.304,204.976 L181.736,205.92 C182.621333,205.365333 183.512,205.088 184.408,205.088 C185.005333,205.088 185.437333,205.234667 185.704,205.528 C185.970667,205.821333 186.104,206.293333 186.104,206.944 L186.104,206.944 L186.104,207.472 L185.752,207.472 C184.536,207.472 183.586667,207.544 182.904,207.688 C182.221333,207.832 181.730667,208.066667 181.432,208.392 C181.133333,208.717333 180.984,209.173333 180.984,209.76 C180.984,210.197333 181.106667,210.597333 181.352,210.96 C181.597333,211.322667 181.930667,211.605333 182.352,211.808 C182.773333,212.010667 183.234667,212.112 183.736,212.112 Z M183.912,211.088 C183.453333,211.088 183.072,210.952 182.768,210.68 C182.464,210.408 182.312,210.064 182.312,209.648 C182.312,209.285333 182.416,209.010667 182.624,208.824 C182.832,208.637333 183.181333,208.504 183.672,208.424 C184.162667,208.344 184.877333,208.304 185.816,208.304 L185.816,208.304 L186.104,208.304 L186.104,208.768 C186.104,209.450667 185.898667,210.008 185.488,210.44 C185.077333,210.872 184.552,211.088 183.912,211.088 Z M191.032,212 L191.032,200.72 L189.736,200.72 L189.736,212 L191.032,212 Z M196.216,212.112 C196.770667,212.112 197.269333,211.989333 197.712,211.744 C198.154667,211.498667 198.498667,211.141333 198.744,210.672 L198.744,210.672 L198.744,212 L200.008,212 L200.008,204.208 L198.712,204.208 L198.712,208.608 C198.712,209.333333 198.504,209.917333 198.088,210.36 C197.672,210.802667 197.122667,211.024 196.44,211.024 C195.842667,211.024 195.405333,210.861333 195.128,210.536 C194.850667,210.210667 194.712,209.701333 194.712,209.008 L194.712,209.008 L194.712,204.208 L193.416,204.208 L193.416,209.04 C193.416,210.053333 193.650667,210.818667 194.12,211.336 C194.589333,211.853333 195.288,212.112 196.216,212.112 Z M205.88,212.112 C206.434667,212.112 206.978667,212.018667 207.512,211.832 C208.045333,211.645333 208.482667,211.392 208.824,211.072 L208.824,211.072 L208.392,210.128 C207.634667,210.746667 206.802667,211.056 205.896,211.056 C205.074667,211.056 204.44,210.824 203.992,210.36 C203.544,209.896 203.298667,209.210667 203.256,208.304 L203.256,208.304 L208.952,208.304 L208.952,207.824 C208.952,206.64 208.658667,205.709333 208.072,205.032 C207.485333,204.354667 206.674667,204.016 205.64,204.016 C204.925333,204.016 204.288,204.186667 203.728,204.528 C203.168,204.869333 202.733333,205.346667 202.424,205.96 C202.114667,206.573333 201.96,207.28 201.96,208.08 C201.96,209.338667 202.309333,210.325333 203.008,211.04 C203.706667,211.754667 204.664,212.112 205.88,212.112 Z M207.816,207.472 L203.288,207.472 C203.362667,206.693333 203.605333,206.090667 204.016,205.664 C204.426667,205.237333 204.973333,205.024 205.656,205.024 C206.328,205.024 206.850667,205.234667 207.224,205.656 C207.597333,206.077333 207.794667,206.682667 207.816,207.472 L207.816,207.472 Z M213.496,212.112 C214.445333,212.112 215.194667,211.909333 215.744,211.504 C216.293333,211.098667 216.568,210.554667 216.568,209.872 C216.568,209.317333 216.392,208.866667 216.04,208.52 C215.688,208.173333 215.149333,207.914667 214.424,207.744 L214.424,207.744 L213.096,207.424 C212.68,207.328 212.378667,207.186667 212.192,207 C212.005333,206.813333 211.912,206.565333 211.912,206.256 C211.912,205.882667 212.064,205.592 212.368,205.384 C212.672,205.176 213.096,205.072 213.64,205.072 C214.493333,205.072 215.277333,205.376 215.992,205.984 L215.992,205.984 L216.424,205.04 C216.093333,204.709333 215.682667,204.456 215.192,204.28 C214.701333,204.104 214.184,204.016 213.64,204.016 C212.733333,204.016 212.008,204.229333 211.464,204.656 C210.92,205.082667 210.648,205.642667 210.648,206.336 C210.648,206.869333 210.824,207.317333 211.176,207.68 C211.528,208.042667 212.034667,208.298667 212.696,208.448 L212.696,208.448 L214.008,208.752 C214.477333,208.858667 214.813333,209.002667 215.016,209.184 C215.218667,209.365333 215.32,209.610667 215.32,209.92 C215.32,210.293333 215.168,210.578667 214.864,210.776 C214.56,210.973333 214.12,211.072 213.544,211.072 C213,211.072 212.512,211 212.08,210.856 C211.648,210.712 211.224,210.474667 210.808,210.144 L210.808,210.144 L210.376,211.104 C211.144,211.776 212.184,212.112 213.496,212.112 Z" id="Values" fill="#10162F" fill-rule="nonzero"></path>
        <path d="M526,76.7860718 C531.978702,76.7860718 536.843365,81.5558354 536.996293,87.4976643 L537,87.7860718 L537,98.999 L543,99 L536,113 L529,99 L535,98.999 L535,87.7860718 C535,82.9042691 531.113186,78.9302804 526.265362,78.7899089 L526,78.7860718 L369.5,78.7860718 C364.618197,78.7860718 360.644209,82.6728855 360.503837,87.5207095 L360.5,87.7860718 L360.5,113.5 L358.5,113.5 L358.5,87.7860718 C358.5,81.8073702 363.269764,76.9427066 369.211593,76.7897792 L369.5,76.7860718 L526,76.7860718 Z" id="Line-Copy-2" fill="#3388FF" fill-rule="nonzero"></path>
        <path d="M271,76.7860718 C276.978702,76.7860718 281.843365,81.5558354 281.996293,87.4976643 L282,87.7860718 L282,114 L280,114 L280,87.7860718 C280,82.9042691 276.113186,78.9302804 271.265362,78.7899089 L271,78.7860718 L114.5,78.7860718 C109.618197,78.7860718 105.644209,82.6728855 105.503837,87.5207095 L105.5,87.7860718 L105.5,98.5 L111.5,98.5 L104.5,112.5 L97.5,98.5 L103.5,98.5 L103.5,87.7860718 C103.5,81.8073702 108.269764,76.9427066 114.211593,76.7897792 L114.5,76.7860718 L271,76.7860718 Z" id="Line-Copy-4" fill="#008A27" fill-rule="nonzero"></path>
        <path d="M526,153.786072 C531.978702,153.786072 536.843365,158.555835 536.996293,164.497664 L537,164.786072 L536.999,175.999 L543,176 L536,190 L529,176 L534.999,175.999 L535,164.786072 C535,159.904269 531.113186,155.93028 526.265362,155.789909 L526,155.786072 L369.5,155.786072 C364.618197,155.786072 360.644209,159.672885 360.503837,164.52071 L360.5,164.786072 L360.5,190.5 L358.5,190.5 L358.5,164.786072 C358.5,158.80737 363.269764,153.942707 369.211593,153.789779 L369.5,153.786072 L526,153.786072 Z" id="Line-Copy-3" fill="#3388FF" fill-rule="nonzero" transform="translate(450.750000, 172.143036) scale(-1, -1) translate(-450.750000, -172.143036) "></path>
        <path d="M271,153.786072 C276.978702,153.786072 281.843365,158.555835 281.996293,164.497664 L282,164.786072 L282,191 L280,191 L280,164.786072 C280,159.904269 276.113186,155.93028 271.265362,155.789909 L271,155.786072 L114.5,155.786072 C109.618197,155.786072 105.644209,159.672885 105.503837,164.52071 L105.5,164.786072 L105.499,175.5 L111.5,175.5 L104.5,189.5 L97.5,175.5 L103.499,175.5 L103.5,164.786072 C103.5,158.80737 108.269764,153.942707 114.211593,153.789779 L114.5,153.786072 L271,153.786072 Z" id="Line-Copy-5" fill="#008A27" fill-rule="nonzero" transform="translate(189.750000, 172.393036) scale(-1, -1) translate(-189.750000, -172.393036) "></path>
    </g>
</svg>