<svg id="Layer_3" data-name="Layer 3" xmlns="http://www.w3.org/2000/svg" viewBox="0 0 1200 800">
  <defs>
    <style>
      .cls-1 {
        fill: #fff;
      }

      .cls-2 {
        fill: #10162f;
      }

      .cls-3 {
        fill: #008a27;
      }

      .cls-4 {
        fill: #e91c11;
      }

      .cls-5 {
        fill: #66c4ff;
      }
    </style>
  </defs>
  <g>
    <path class="cls-1" d="M95.1,83.35H101L106,106l5.6-19.41h4.79L122,106l5-22.66h5.9l-7.82,30.8h-5.64L114,96l-5.42,18.13h-5.64Z"/>
    <path class="cls-1" d="M136.5,88.1a3.7,3.7,0,0,1,0-5,3.29,3.29,0,0,1,2.44-1,3.25,3.25,0,0,1,2.43,1,3.68,3.68,0,0,1,0,5,3.22,3.22,0,0,1-2.43,1A3.25,3.25,0,0,1,136.5,88.1ZM136.29,92h5.3v22.18h-5.3Z"/>
    <path class="cls-1" d="M150.39,112.43c-1.4-1.38-2.09-3.41-2.09-6.11V96.64H145V92h3.34V86.43L153.6,83v9h5.68v4.67H153.6v9.59a4.28,4.28,0,0,0,.7,2.79,2.67,2.67,0,0,0,2.12.82,4.32,4.32,0,0,0,2.05-.53l1.24,4.4a8.07,8.07,0,0,1-3.51.79A7.91,7.91,0,0,1,150.39,112.43Z"/>
    <path class="cls-1" d="M168.21,83V95.54a8.3,8.3,0,0,1,2.84-2.84,7.54,7.54,0,0,1,4-1.08A6.9,6.9,0,0,1,180,93.31a6.55,6.55,0,0,1,1.8,5v15.84h-5.3V100.24a4.73,4.73,0,0,0-.79-3,3,3,0,0,0-2.42-1,3.82,3.82,0,0,0-2.43.93,6.39,6.39,0,0,0-1.88,2.81,13.31,13.31,0,0,0-.73,4.76v9.37h-5.3V83Z"/>
    <path class="cls-1" d="M191.63,113a9.78,9.78,0,0,1-3.79-4.09,13.81,13.81,0,0,1,0-11.7,9.78,9.78,0,0,1,3.79-4.09,12.16,12.16,0,0,1,11.7,0,9.78,9.78,0,0,1,3.79,4.09,13.81,13.81,0,0,1,0,11.7,9.78,9.78,0,0,1-3.79,4.09,12.16,12.16,0,0,1-11.7,0Zm9.78-5.12a8.69,8.69,0,0,0,0-9.64,4.92,4.92,0,0,0-7.86,0,8.74,8.74,0,0,0,0,9.64,4.92,4.92,0,0,0,7.86,0Z"/>
    <path class="cls-1" d="M215,112.78a6.51,6.51,0,0,1-1.81-5V92h5.29v14.21a3.92,3.92,0,0,0,.84,2.78,3,3,0,0,0,2.24.88,3.51,3.51,0,0,0,2.44-1.06,7.4,7.4,0,0,0,1.79-3.1,15.31,15.31,0,0,0,.69-4.86V92h5.29v22.18H226.5v-3.57a9.77,9.77,0,0,1-2.95,2.86,6.9,6.9,0,0,1-3.72,1.06A6.69,6.69,0,0,1,215,112.78Z"/>
    <path class="cls-1" d="M240.6,112.43c-1.4-1.38-2.1-3.41-2.1-6.11V96.64h-3.33V92h3.33V86.43L243.8,83v9h5.69v4.67H243.8v9.59a4.27,4.27,0,0,0,.71,2.79,2.65,2.65,0,0,0,2.11.82,4.29,4.29,0,0,0,2-.53l1.24,4.4a8,8,0,0,1-3.5.79A7.89,7.89,0,0,1,240.6,112.43Z"/>
    <path class="cls-1" d="M261.62,83.35h6.15l6.71,22.79,6.71-22.79h6.15l-10,30.8h-5.64Z"/>
    <path class="cls-1" d="M291,88.1a3.68,3.68,0,0,1,0-5,3.25,3.25,0,0,1,2.43-1,3.29,3.29,0,0,1,2.44,1,3.7,3.7,0,0,1,0,5,3.25,3.25,0,0,1-2.44,1A3.22,3.22,0,0,1,291,88.1ZM290.76,92h5.3v22.18h-5.3Z"/>
    <path class="cls-1" d="M307.17,92v3.61A8.72,8.72,0,0,1,310,92.65a6.71,6.71,0,0,1,3.55-1,8.91,8.91,0,0,1,2.61.44l-1,5.06a4.08,4.08,0,0,0-2.22-.62,4.86,4.86,0,0,0-4.14,2.36q-1.64,2.36-1.63,7.41v7.88h-5.3V92Z"/>
    <path class="cls-1" d="M323.79,112.43c-1.39-1.38-2.09-3.41-2.09-6.11V96.64h-3.33V92h3.33V86.43L327,83v9h5.68v4.67H327v9.59a4.22,4.22,0,0,0,.71,2.79,2.63,2.63,0,0,0,2.11.82,4.32,4.32,0,0,0,2.05-.53l1.24,4.4a8,8,0,0,1-3.5.79A7.93,7.93,0,0,1,323.79,112.43Z"/>
    <path class="cls-1" d="M337.75,112.78a6.51,6.51,0,0,1-1.82-5V92h5.3v14.21a4,4,0,0,0,.83,2.78,3,3,0,0,0,2.25.88,3.48,3.48,0,0,0,2.43-1.06,7.52,7.52,0,0,0,1.8-3.1,15.62,15.62,0,0,0,.68-4.86V92h5.3v22.18h-5.3v-3.57a9.77,9.77,0,0,1-3,2.86,6.9,6.9,0,0,1-3.72,1.06A6.68,6.68,0,0,1,337.75,112.78Z"/>
    <path class="cls-1" d="M361.23,112.74a6.53,6.53,0,0,1-1.84-5,6.45,6.45,0,0,1,2.44-5.28,10.11,10.11,0,0,1,6.58-2h3.76v-1a2.88,2.88,0,0,0-1.07-2.44,4.33,4.33,0,0,0-2.69-.82,3.63,3.63,0,0,0-3.72,2.56l-4.49-1.06A7,7,0,0,1,363,93.31a8.82,8.82,0,0,1,5.45-1.69A9.07,9.07,0,0,1,375.09,94c1.58,1.57,2.38,3.88,2.38,6.93v13.25h-4.36l-.56-2.82a8.06,8.06,0,0,1-6.62,3.17A6.52,6.52,0,0,1,361.23,112.74Zm9.48-4.16a4.16,4.16,0,0,0,1.46-3.32v-.44h-3.55a4.58,4.58,0,0,0-2.71.7,2.5,2.5,0,0,0-1,2.16,2,2,0,0,0,.66,1.56,2.48,2.48,0,0,0,1.73.6A5,5,0,0,0,370.71,108.58Z"/>
    <path class="cls-1" d="M383,83h5.3v31.15H383Z"/>
    <path class="cls-1" d="M394.52,88.1a3.68,3.68,0,0,1,0-5,3.25,3.25,0,0,1,2.43-1,3.29,3.29,0,0,1,2.44,1,3.7,3.7,0,0,1,0,5,3.25,3.25,0,0,1-2.44,1A3.22,3.22,0,0,1,394.52,88.1ZM394.3,92h5.3v22.18h-5.3Z"/>
    <path class="cls-1" d="M403.87,112l9.32-15.4h-8.63V92h15.21v2.11l-9.23,15.4h9.83v4.67h-16.5Z"/>
    <path class="cls-1" d="M425.28,112.74a6.57,6.57,0,0,1-1.84-5,6.47,6.47,0,0,1,2.44-5.28,10.13,10.13,0,0,1,6.58-2h3.76v-1a2.86,2.86,0,0,0-1.07-2.44,4.33,4.33,0,0,0-2.69-.82,3.64,3.64,0,0,0-3.72,2.56l-4.48-1.06A7,7,0,0,1,427,93.31a8.84,8.84,0,0,1,5.45-1.69A9.08,9.08,0,0,1,439.15,94q2.37,2.36,2.37,6.93v13.25h-4.36l-.55-2.82A8.08,8.08,0,0,1,430,114.5,6.54,6.54,0,0,1,425.28,112.74Zm9.49-4.16a4.15,4.15,0,0,0,1.45-3.32v-.44h-3.55a4.6,4.6,0,0,0-2.71.7,2.5,2.5,0,0,0-1,2.16,2,2,0,0,0,.66,1.56,2.48,2.48,0,0,0,1.73.6A5,5,0,0,0,434.77,108.58Z"/>
    <path class="cls-1" d="M449.89,112.43c-1.39-1.38-2.09-3.41-2.09-6.11V96.64h-3.33V92h3.33V86.43L453.1,83v9h5.68v4.67H453.1v9.59a4.28,4.28,0,0,0,.7,2.79,2.67,2.67,0,0,0,2.12.82,4.29,4.29,0,0,0,2.05-.53l1.24,4.4a8,8,0,0,1-3.5.79A7.93,7.93,0,0,1,449.89,112.43Z"/>
    <path class="cls-1" d="M463.1,88.1a3.7,3.7,0,0,1,0-5,3.44,3.44,0,0,1,4.87,0,3.7,3.7,0,0,1,0,5,3.44,3.44,0,0,1-4.87,0ZM462.88,92h5.3v22.18h-5.3Z"/>
    <path class="cls-1" d="M478,113a9.82,9.82,0,0,1-3.78-4.09,13.72,13.72,0,0,1,0-11.7A9.82,9.82,0,0,1,478,93.12a12.18,12.18,0,0,1,11.71,0,9.82,9.82,0,0,1,3.78,4.09,13.81,13.81,0,0,1,0,11.7,9.82,9.82,0,0,1-3.78,4.09A12.18,12.18,0,0,1,478,113Zm9.78-5.12a8.69,8.69,0,0,0,0-9.64,4.92,4.92,0,0,0-7.86,0,8.74,8.74,0,0,0,0,9.64,4.92,4.92,0,0,0,7.86,0Z"/>
    <path class="cls-1" d="M504.85,92v3.57a9.66,9.66,0,0,1,2.95-2.86,6.87,6.87,0,0,1,3.71-1.06,6.69,6.69,0,0,1,4.81,1.72,6.51,6.51,0,0,1,1.82,5v15.84h-5.3V99.94a3.93,3.93,0,0,0-.84-2.78,3,3,0,0,0-2.24-.88,3.48,3.48,0,0,0-2.43,1.06,7.47,7.47,0,0,0-1.8,3.1,15.64,15.64,0,0,0-.68,4.87v8.84h-5.3V92Z"/>
  </g>
  <g>
    <path class="cls-1" d="M703.19,83.35h5.89l5,22.66,5.6-19.41h4.79L730.06,106l5-22.66H741l-7.82,30.8H727.5L722.07,96l-5.42,18.13H711Z"/>
    <path class="cls-1" d="M744.59,88.1a3.7,3.7,0,0,1,0-5,3.29,3.29,0,0,1,2.44-1,3.25,3.25,0,0,1,2.43,1,3.68,3.68,0,0,1,0,5,3.22,3.22,0,0,1-2.43,1A3.25,3.25,0,0,1,744.59,88.1ZM744.38,92h5.3v22.18h-5.3Z"/>
    <path class="cls-1" d="M758.48,112.43c-1.4-1.38-2.09-3.41-2.09-6.11V96.64h-3.34V92h3.34V86.43L761.68,83v9h5.69v4.67h-5.69v9.59a4.27,4.27,0,0,0,.71,2.79,2.65,2.65,0,0,0,2.11.82,4.33,4.33,0,0,0,2.06-.53l1.23,4.4a8,8,0,0,1-3.5.79A7.91,7.91,0,0,1,758.48,112.43Z"/>
    <path class="cls-1" d="M776.3,83V95.54a8.3,8.3,0,0,1,2.84-2.84,7.54,7.54,0,0,1,4-1.08,6.9,6.9,0,0,1,4.91,1.69,6.55,6.55,0,0,1,1.8,5v15.84h-5.3V100.24a4.73,4.73,0,0,0-.79-3,3,3,0,0,0-2.42-1,3.82,3.82,0,0,0-2.43.93A6.39,6.39,0,0,0,777,100a13.31,13.31,0,0,0-.73,4.76v9.37H771V83Z"/>
    <path class="cls-1" d="M803.86,83.35H810l6.71,22.79,6.71-22.79h6.15l-10,30.8H813.9Z"/>
    <path class="cls-1" d="M833.22,88.1a3.68,3.68,0,0,1,0-5,3.25,3.25,0,0,1,2.43-1,3.29,3.29,0,0,1,2.44,1,3.7,3.7,0,0,1,0,5,3.25,3.25,0,0,1-2.44,1A3.22,3.22,0,0,1,833.22,88.1ZM833,92h5.3v22.18H833Z"/>
    <path class="cls-1" d="M849.41,92v3.61a8.72,8.72,0,0,1,2.82-2.93,6.71,6.71,0,0,1,3.55-1,8.91,8.91,0,0,1,2.61.44l-1,5.06a4.08,4.08,0,0,0-2.22-.62A4.86,4.86,0,0,0,851,98.86q-1.63,2.36-1.63,7.41v7.88h-5.3V92Z"/>
    <path class="cls-1" d="M866,112.43c-1.39-1.38-2.09-3.41-2.09-6.11V96.64h-3.33V92h3.33V86.43l5.3-3.43v9h5.68v4.67h-5.68v9.59a4.28,4.28,0,0,0,.7,2.79,2.67,2.67,0,0,0,2.12.82,4.29,4.29,0,0,0,2.05-.53l1.24,4.4a8,8,0,0,1-3.5.79A7.93,7.93,0,0,1,866,112.43Z"/>
    <path class="cls-1" d="M880,112.78a6.51,6.51,0,0,1-1.82-5V92h5.3v14.21a4,4,0,0,0,.83,2.78,3,3,0,0,0,2.25.88,3.48,3.48,0,0,0,2.43-1.06,7.52,7.52,0,0,0,1.8-3.1,15.62,15.62,0,0,0,.68-4.86V92h5.3v22.18h-5.3v-3.57a9.77,9.77,0,0,1-3,2.86,6.9,6.9,0,0,1-3.72,1.06A6.68,6.68,0,0,1,880,112.78Z"/>
    <path class="cls-1" d="M903.47,112.74a6.53,6.53,0,0,1-1.84-5,6.45,6.45,0,0,1,2.44-5.28,10.11,10.11,0,0,1,6.58-2h3.76v-1a2.88,2.88,0,0,0-1.07-2.44,4.33,4.33,0,0,0-2.69-.82,3.63,3.63,0,0,0-3.72,2.56l-4.49-1.06a7,7,0,0,1,2.76-4.47,8.82,8.82,0,0,1,5.45-1.69A9.07,9.07,0,0,1,917.33,94q2.38,2.36,2.38,6.93v13.25h-4.36l-.56-2.82a8.06,8.06,0,0,1-6.62,3.17A6.52,6.52,0,0,1,903.47,112.74Zm9.48-4.16a4.16,4.16,0,0,0,1.46-3.32v-.44h-3.55a4.58,4.58,0,0,0-2.71.7,2.5,2.5,0,0,0-1,2.16,2,2,0,0,0,.66,1.56,2.48,2.48,0,0,0,1.73.6A5,5,0,0,0,913,108.58Z"/>
    <path class="cls-1" d="M925.26,83h5.3v31.15h-5.3Z"/>
    <path class="cls-1" d="M936.76,88.1a3.68,3.68,0,0,1,0-5,3.25,3.25,0,0,1,2.43-1,3.29,3.29,0,0,1,2.44,1,3.7,3.7,0,0,1,0,5,3.25,3.25,0,0,1-2.44,1A3.22,3.22,0,0,1,936.76,88.1ZM936.54,92h5.3v22.18h-5.3Z"/>
    <path class="cls-1" d="M946.11,112l9.32-15.4H946.8V92H962v2.11l-9.23,15.4h9.83v4.67h-16.5Z"/>
    <path class="cls-1" d="M967.52,112.74a6.57,6.57,0,0,1-1.84-5,6.47,6.47,0,0,1,2.44-5.28,10.13,10.13,0,0,1,6.58-2h3.76v-1a2.86,2.86,0,0,0-1.07-2.44,4.33,4.33,0,0,0-2.69-.82A3.64,3.64,0,0,0,971,98.84l-4.48-1.06a7,7,0,0,1,2.75-4.47,8.84,8.84,0,0,1,5.45-1.69A9.08,9.08,0,0,1,981.39,94q2.37,2.36,2.37,6.93v13.25H979.4l-.55-2.82a8.07,8.07,0,0,1-6.63,3.17A6.54,6.54,0,0,1,967.52,112.74Zm9.49-4.16a4.15,4.15,0,0,0,1.45-3.32v-.44h-3.54a4.61,4.61,0,0,0-2.72.7,2.5,2.5,0,0,0-1,2.16,2,2,0,0,0,.66,1.56,2.48,2.48,0,0,0,1.73.6A5,5,0,0,0,977,108.58Z"/>
    <path class="cls-1" d="M992.14,112.43c-1.4-1.38-2.1-3.41-2.1-6.11V96.64h-3.33V92H990V86.43l5.3-3.43v9H1001v4.67h-5.68v9.59a4.27,4.27,0,0,0,.71,2.79,2.65,2.65,0,0,0,2.11.82,4.29,4.29,0,0,0,2.05-.53l1.24,4.4a8,8,0,0,1-3.5.79A7.89,7.89,0,0,1,992.14,112.43Z"/>
    <path class="cls-1" d="M1005.34,88.1a3.7,3.7,0,0,1,0-5,3.44,3.44,0,0,1,4.87,0,3.7,3.7,0,0,1,0,5,3.44,3.44,0,0,1-4.87,0Zm-.21,3.87h5.29v22.18h-5.29Z"/>
    <path class="cls-1" d="M1020.21,113a9.82,9.82,0,0,1-3.78-4.09,13.72,13.72,0,0,1,0-11.7,9.82,9.82,0,0,1,3.78-4.09,12.18,12.18,0,0,1,11.71,0,9.82,9.82,0,0,1,3.78,4.09,13.81,13.81,0,0,1,0,11.7,9.82,9.82,0,0,1-3.78,4.09,12.18,12.18,0,0,1-11.71,0Zm9.79-5.12a8.74,8.74,0,0,0,0-9.64,4.93,4.93,0,0,0-7.87,0,8.74,8.74,0,0,0,0,9.64,4.93,4.93,0,0,0,7.87,0Z"/>
    <path class="cls-1" d="M1047.09,92v3.57a9.66,9.66,0,0,1,3-2.86,6.89,6.89,0,0,1,3.71-1.06,6.69,6.69,0,0,1,4.81,1.72,6.51,6.51,0,0,1,1.82,5v15.84h-5.3V99.94a4,4,0,0,0-.83-2.78,3,3,0,0,0-2.25-.88,3.48,3.48,0,0,0-2.43,1.06,7.58,7.58,0,0,0-1.8,3.1,15.64,15.64,0,0,0-.68,4.87v8.84h-5.3V92Z"/>
  </g>
  <g>
    <g>
      <rect class="cls-2" x="158.73" y="159.25" width="240" height="100.65"/>
      <path class="cls-1" d="M399.23,260.41h-241V158.75h241Zm-240-1h239V159.75h-239Z"/>
    </g>
    <g>
      <path class="cls-1" d="M175.91,176.12c0-1.75,1.56-2.79,3.44-2.79a3.23,3.23,0,0,1,3.49,2.86h-1.36a2,2,0,0,0-2.2-1.63c-.95,0-1.95.46-1.95,1.51s.68,1.33,1.52,1.52l1,.22c1.69.37,3.17,1.08,3.17,3s-1.52,3-3.55,3a3.53,3.53,0,0,1-3.79-3.35h1.36a2.3,2.3,0,0,0,2.48,2.12c1,0,2.11-.54,2.11-1.7s-.82-1.53-2-1.78l-1.14-.26C177.18,178.58,175.91,177.73,175.91,176.12Z"/>
      <path class="cls-1" d="M190.43,182.7a2.46,2.46,0,0,1-2.29,1.15c-1.88,0-2.41-1.21-2.41-2.87v-4.85h1.33v4.4c0,1.22.07,2.21,1.52,2.21,1.2,0,1.85-.85,1.85-2.46v-4.15h1.33v7.54h-1.33Z"/>
      <path class="cls-1" d="M196.35,177.27a2.52,2.52,0,0,1,2.31-1.27c1.79,0,3.14,1.45,3.14,3.93s-1.35,3.92-3.14,3.92a2.53,2.53,0,0,1-2.31-1.25v3.52H195v-10h1.33Zm2,5.51c1.33,0,2-1.06,2-2.85s-.68-2.85-2-2.85c-1.11,0-2.08.86-2.08,2.85S197.27,182.78,198.38,182.78Z"/>
      <path class="cls-1" d="M205.71,177.27A2.49,2.49,0,0,1,208,176c1.8,0,3.14,1.45,3.14,3.93s-1.34,3.92-3.14,3.92a2.5,2.5,0,0,1-2.3-1.25v3.52h-1.33v-10h1.33Zm2,5.51c1.34,0,2-1.06,2-2.85s-.68-2.85-2-2.85c-1.11,0-2.08.86-2.08,2.85S206.62,182.78,207.73,182.78Z"/>
      <path class="cls-1" d="M216.81,176a3.94,3.94,0,1,1-3.6,3.93A3.57,3.57,0,0,1,216.81,176Zm0,6.77c1.19,0,2.2-.84,2.2-2.84s-1-2.85-2.2-2.85-2.2.84-2.2,2.85S215.63,182.77,216.81,182.77Z"/>
      <path class="cls-1" d="M226.25,176.13v1.34a2.21,2.21,0,0,1,2.09-1.34h1.33v1.18h-1.32c-1.49,0-2.07.95-2.07,2.6v2.65H229v1.11h-6.2v-1.11H225v-5.32h-2.21v-1.11Z"/>
      <path class="cls-1" d="M233.7,174.24H235v1.89h3.18v1.11H235v4.35c0,.77,0,1,.78,1h2.4v1.11h-2.69c-1.42,0-1.82-.33-1.82-1.89v-4.54h-2.22v-1.11h2.22Z"/>
      <path class="cls-1" d="M241.39,179.93c0-2.43,1.47-3.94,3.53-3.94,2.27,0,3.58,1.61,3.47,4.3h-5.6c0,1.51.87,2.51,2.1,2.51a1.86,1.86,0,0,0,2-1.39h1.38a3.19,3.19,0,0,1-3.36,2.44C242.56,183.85,241.39,182.15,241.39,179.93Zm1.41-.7H247a2,2,0,0,0-2.06-2.17A2,2,0,0,0,242.8,179.23Z"/>
      <path class="cls-1" d="M256,173.51h1.33v10.16H256l0-1.07a2.49,2.49,0,0,1-2.3,1.25c-1.8,0-3.14-1.43-3.14-3.92s1.34-3.93,3.14-3.93a2.48,2.48,0,0,1,2.3,1.27Zm-2,3.57c-1.34,0-2,1-2,2.85s.68,2.85,2,2.85c1.11,0,2.08-.88,2.08-2.85S255.07,177.08,254,177.08Z"/>
      <path class="cls-1" d="M272.59,173.51c2.3,0,4.07.6,4.07,3.12s-1.77,3.13-4.07,3.13h-1.2v3.91H270V173.51Zm-1.2,1.26v3.73h1.37c1.41,0,2.48-.21,2.48-1.87s-1.07-1.86-2.48-1.86Z"/>
      <path class="cls-1" d="M282.38,176.13v1.34a2.2,2.2,0,0,1,2.08-1.34h1.34v1.18h-1.32c-1.49,0-2.07.95-2.07,2.6v2.65h2.66v1.11h-6.2v-1.11h2.21v-5.32h-2.22v-1.11Z"/>
      <path class="cls-1" d="M291.65,176a3.94,3.94,0,1,1-3.61,3.93A3.56,3.56,0,0,1,291.65,176Zm0,6.77c1.18,0,2.2-.84,2.2-2.84s-1-2.85-2.2-2.85-2.21.84-2.21,2.85S290.46,182.77,291.65,182.77Z"/>
      <path class="cls-1" d="M304.27,178.64h-1.34a1.84,1.84,0,0,0-1.84-1.57c-1.16,0-2.12,1-2.12,2.86s1,2.87,2.12,2.87a1.9,1.9,0,0,0,1.89-1.56h1.38a3.23,3.23,0,0,1-3.35,2.61c-2.15,0-3.44-1.63-3.44-3.92s1.34-3.93,3.58-3.93A3,3,0,0,1,304.27,178.64Z"/>
      <path class="cls-1" d="M306.86,179.93c0-2.43,1.48-3.94,3.54-3.94,2.27,0,3.57,1.61,3.47,4.3h-5.6c0,1.51.87,2.51,2.1,2.51a1.86,1.86,0,0,0,2-1.39h1.38a3.19,3.19,0,0,1-3.36,2.44C308,183.85,306.86,182.15,306.86,179.93Zm1.42-.7h4.17a2,2,0,0,0-2.05-2.17A2,2,0,0,0,308.28,179.23Z"/>
      <path class="cls-1" d="M321.32,178.19c-.18-.84-.86-1.12-1.74-1.12s-1.57.29-1.57,1,.41.85,1.18,1l.87.17c1.34.25,2.79.74,2.79,2.26s-1.42,2.38-3.11,2.38a2.91,2.91,0,0,1-3.19-2.44H318a1.6,1.6,0,0,0,1.81,1.37c.82,0,1.73-.28,1.73-1.16,0-.7-.65-1.05-1.63-1.22l-1-.18c-1.23-.24-2.2-.83-2.2-2.13,0-1.46,1.63-2.09,2.94-2.09a2.87,2.87,0,0,1,3.07,2.19Z"/>
      <path class="cls-1" d="M330.67,178.19c-.17-.84-.86-1.12-1.74-1.12s-1.56.29-1.56,1,.4.85,1.17,1l.87.17c1.35.25,2.79.74,2.79,2.26s-1.41,2.38-3.11,2.38a2.9,2.9,0,0,1-3.18-2.44h1.4a1.6,1.6,0,0,0,1.81,1.37c.83,0,1.74-.28,1.74-1.16,0-.7-.65-1.05-1.64-1.22l-1-.18c-1.23-.24-2.2-.83-2.2-2.13,0-1.46,1.64-2.09,2.94-2.09a2.87,2.87,0,0,1,3.07,2.19Z"/>
      <path class="cls-1" d="M334.93,179.93c0-2.43,1.47-3.94,3.53-3.94,2.27,0,3.58,1.61,3.47,4.3h-5.6c0,1.51.87,2.51,2.1,2.51a1.86,1.86,0,0,0,2-1.39h1.38a3.19,3.19,0,0,1-3.36,2.44C336.1,183.85,334.93,182.15,334.93,179.93Zm1.42-.7h4.17a2.09,2.09,0,1,0-4.17,0Z"/>
      <path class="cls-1" d="M349.38,178.19c-.18-.84-.86-1.12-1.74-1.12s-1.56.29-1.56,1,.4.85,1.17,1l.87.17c1.34.25,2.79.74,2.79,2.26s-1.42,2.38-3.11,2.38a2.91,2.91,0,0,1-3.19-2.44H346a1.6,1.6,0,0,0,1.81,1.37c.82,0,1.74-.28,1.74-1.16,0-.7-.66-1.05-1.64-1.22l-1-.18c-1.23-.24-2.2-.83-2.2-2.13,0-1.46,1.63-2.09,2.94-2.09a2.87,2.87,0,0,1,3.07,2.19Z"/>
      <path class="cls-1" d="M356.28,177.74v-1.61H358v1.61Zm0,5.93v-1.61H358v1.61Z"/>
      <path class="cls-1" d="M376.76,173.51v9.05H379v1.11h-6.21v-1.11h2.68v-6.84h-2.68v-.88c1.75,0,2.6-.22,3.14-1.33Z"/>
    </g>
    <g>
      <path class="cls-1" d="M177.24,232.81V239c0,2,.36,2.93,2.14,2.93s2.18-1.08,2.18-3.08v-6h1.37v5.91c0,3-.81,4.42-3.55,4.42s-3.52-1.15-3.52-4.31v-6Z"/>
      <path class="cls-1" d="M190.36,237.48c-.17-.84-.86-1.12-1.74-1.12s-1.56.3-1.56,1,.4.85,1.17,1l.87.17c1.35.25,2.79.74,2.79,2.25s-1.42,2.38-3.11,2.38a2.91,2.91,0,0,1-3.19-2.43H187a1.61,1.61,0,0,0,1.81,1.37c.82,0,1.74-.28,1.74-1.16,0-.7-.65-1.06-1.64-1.22l-1-.19c-1.23-.23-2.2-.82-2.2-2.12,0-1.46,1.64-2.09,2.94-2.09a2.86,2.86,0,0,1,3.07,2.18Z"/>
      <path class="cls-1" d="M194.79,241c0-1.79,2-2.34,5.15-2.68V238c0-1.3-.73-1.69-1.75-1.69-1.2,0-1.76.57-1.85,1.5H195a3,3,0,0,1,3.23-2.54c2.15,0,3.08.92,3,3v1.84c0,1.26.06,2.34.1,2.84h-1.28v-1.11a2.88,2.88,0,0,1-2.74,1.29A2.25,2.25,0,0,1,194.79,241Zm5.26-1.65c-2.38.22-3.83.54-3.83,1.62,0,.72.54,1.14,1.48,1.14,1.19,0,2.35-.55,2.35-2.55Z"/>
      <path class="cls-1" d="M209.24,235.42h1.33V242c0,1.54-.2,2.17-.62,2.65a3.71,3.71,0,0,1-2.72,1c-1.7,0-2.9-.78-3.13-2.27h1.4c.19.69.6,1.15,1.74,1.15a2.09,2.09,0,0,0,1.59-.56c.27-.29.41-.64.41-1.66v-.73a2.46,2.46,0,0,1-2.3,1.24c-1.8,0-3.14-1.27-3.14-3.76s1.34-3.77,3.14-3.77a2.47,2.47,0,0,1,2.3,1.26Zm-2,1c-1.33,0-2,.89-2,2.69s.68,2.7,2,2.7c1.12,0,2.09-.73,2.09-2.7S208.33,236.38,207.21,236.38Z"/>
      <path class="cls-1" d="M213.32,239.22c0-2.42,1.48-3.94,3.54-3.94,2.27,0,3.57,1.61,3.47,4.3h-5.6c0,1.52.87,2.51,2.1,2.51a1.86,1.86,0,0,0,2-1.38h1.38a3.19,3.19,0,0,1-3.36,2.43C214.5,243.14,213.32,241.45,213.32,239.22Zm1.42-.7h4.17a2,2,0,0,0-2-2.17A2,2,0,0,0,214.74,238.52Z"/>
      <path class="cls-1" d="M225.33,237v-1.62H227V237Zm0,5.92v-1.61H227V243Z"/>
      <path class="cls-1" d="M248.86,240.45h-1.75V243h-1.34v-2.51h-5v-1.2l4.94-6.44h1.35v6.44h1.75Zm-6.65-1.2h3.56v-4.71Z"/>
      <path class="cls-1" d="M250.55,237.83c0-3.15,1-5.21,3.67-5.21s3.67,2.06,3.67,5.21-1,5.31-3.67,5.31S250.55,241,250.55,237.83Zm1.36.52,4.54-2c-.24-1.77-1-2.63-2.23-2.63-1.58,0-2.32,1.34-2.32,4.11C251.9,238,251.9,238.18,251.91,238.35Zm4.64-.52a3.24,3.24,0,0,0,0-.44l-4.53,2c.25,1.73,1,2.62,2.22,2.62C255.79,242,256.55,240.61,256.55,237.83Z"/>
      <path class="cls-1" d="M259.37,235.14c0-1.52.67-2.52,2-2.52s2,1,2,2.52-.67,2.53-2,2.53S259.37,236.64,259.37,235.14Zm0,7.82,7.24-10.15h1.16L260.54,243Zm3-7.82c0-1.1-.36-1.66-1-1.66s-1,.56-1,1.66.33,1.67,1,1.67S262.38,236.22,262.38,235.14Zm1.33,5.47c0-1.53.67-2.52,2-2.52s2,1,2,2.52-.66,2.53-2,2.53S263.71,242.12,263.71,240.61Zm3,0c0-1.1-.35-1.66-1-1.66s-1,.56-1,1.66.34,1.68,1,1.68S266.73,241.7,266.73,240.61Z"/>
    </g>
    <g>
      <path class="cls-1" d="M191.85,201.88h6.46v1.26h-5.08v3H198v1.26h-4.8V212h-1.38Z"/>
      <path class="cls-1" d="M204.09,204.5v1.34a2.19,2.19,0,0,1,2.08-1.34h1.33v1.18h-1.31c-1.5,0-2.08.95-2.08,2.6v2.65h2.67V212h-6.2v-1.11h2.2v-5.32h-2.21V204.5Z"/>
      <path class="cls-1" d="M213.35,204.37a3.94,3.94,0,1,1-3.6,3.93A3.57,3.57,0,0,1,213.35,204.37Zm0,6.77c1.19,0,2.2-.84,2.2-2.84s-1-2.85-2.2-2.85-2.2.84-2.2,2.85S212.17,211.14,213.35,211.14Z"/>
      <path class="cls-1" d="M221,205.56a2.47,2.47,0,0,1,2.29-1.19c1.88,0,2.45,1.21,2.45,2.87V212h-1.33v-4.35c0-1.22-.11-2.22-1.55-2.22-1.21,0-1.86.86-1.86,2.47V212h-1.33V204.5H221Z"/>
      <path class="cls-1" d="M230.24,202.61h1.33v1.89h3.18v1.11h-3.18V210c0,.77,0,1,.78,1h2.4V212h-2.69c-1.42,0-1.82-.33-1.82-1.9v-4.53H228V204.5h2.22Z"/>
      <path class="cls-1" d="M239.11,208.8v-1.2h4.61v1.2Z"/>
      <path class="cls-1" d="M247.71,201.88H254v1.26h-4.88v3h4.59v1.26h-4.59v3.34H254V212h-6.26Z"/>
      <path class="cls-1" d="M258.43,205.56a2.47,2.47,0,0,1,2.29-1.19c1.88,0,2.44,1.21,2.44,2.87V212h-1.33v-4.35c0-1.22-.1-2.22-1.55-2.22-1.2,0-1.85.86-1.85,2.47V212H257.1V204.5h1.33Z"/>
      <path class="cls-1" d="M271.23,201.88h1.33V212h-1.32V211a2.52,2.52,0,0,1-2.3,1.25c-1.8,0-3.15-1.43-3.15-3.92s1.35-3.93,3.15-3.93a2.5,2.5,0,0,1,2.3,1.26Zm-2,3.57c-1.33,0-2,1.05-2,2.85s.68,2.85,2,2.85c1.12,0,2.09-.88,2.09-2.85S270.32,205.45,269.2,205.45Z"/>
      <path class="cls-1" d="M292.37,212h-1.48l-.71-2.18h-4l-.69,2.18H284l3.45-10.16h1.47Zm-5.79-3.42h3.2l-1.6-5Z"/>
      <path class="cls-1" d="M295.79,205.63a2.5,2.5,0,0,1,2.3-1.26c1.8,0,3.14,1.45,3.14,3.93s-1.34,3.92-3.14,3.92a2.52,2.52,0,0,1-2.3-1.25v3.52h-1.34v-10h1.34Zm2,5.52c1.34,0,2-1.06,2-2.85s-.68-2.85-2-2.85c-1.11,0-2.08.86-2.08,2.85S296.7,211.15,297.81,211.15Z"/>
      <path class="cls-1" d="M305.14,205.63a2.5,2.5,0,0,1,2.3-1.26c1.8,0,3.15,1.45,3.15,3.93s-1.35,3.92-3.15,3.92a2.52,2.52,0,0,1-2.3-1.25v3.52h-1.33v-10h1.33Zm2,5.52c1.33,0,2-1.06,2-2.85s-.68-2.85-2-2.85c-1.12,0-2.09.86-2.09,2.85S306.05,211.15,307.17,211.15Z"/>
    </g>
  </g>
  <g>
    <g>
      <rect class="cls-2" x="158.73" y="469.84" width="240" height="100.65"/>
      <path class="cls-1" d="M399.23,571h-241V469.34h241Zm-240-1h239V470.34h-239Z"/>
    </g>
    <g>
      <path class="cls-1" d="M175.91,486.7c0-1.75,1.56-2.78,3.44-2.78a3.23,3.23,0,0,1,3.49,2.85h-1.36a2,2,0,0,0-2.2-1.62c-.95,0-1.95.46-1.95,1.51,0,.9.68,1.33,1.52,1.52l1,.22c1.69.36,3.17,1.08,3.17,3s-1.52,3-3.55,3a3.53,3.53,0,0,1-3.79-3.35h1.36a2.29,2.29,0,0,0,2.48,2.11c1,0,2.11-.53,2.11-1.69s-.82-1.53-2-1.78l-1.14-.27A2.91,2.91,0,0,1,175.91,486.7Z"/>
      <path class="cls-1" d="M190.43,493.29a2.46,2.46,0,0,1-2.29,1.15c-1.88,0-2.41-1.21-2.41-2.88v-4.84h1.33v4.4c0,1.22.07,2.21,1.52,2.21,1.2,0,1.85-.86,1.85-2.47v-4.14h1.33v7.53h-1.33Z"/>
      <path class="cls-1" d="M196.35,487.85a2.51,2.51,0,0,1,2.31-1.26c1.79,0,3.14,1.44,3.14,3.92s-1.35,3.93-3.14,3.93a2.54,2.54,0,0,1-2.31-1.25v3.52H195v-10h1.33Zm2,5.52c1.33,0,2-1.06,2-2.86s-.68-2.84-2-2.84c-1.11,0-2.08.85-2.08,2.84S197.27,493.37,198.38,493.37Z"/>
      <path class="cls-1" d="M205.71,487.85a2.49,2.49,0,0,1,2.3-1.26c1.8,0,3.14,1.44,3.14,3.92s-1.34,3.93-3.14,3.93a2.52,2.52,0,0,1-2.3-1.25v3.52h-1.33v-10h1.33Zm2,5.52c1.34,0,2-1.06,2-2.86s-.68-2.84-2-2.84c-1.11,0-2.08.85-2.08,2.84S206.62,493.37,207.73,493.37Z"/>
      <path class="cls-1" d="M216.81,486.59a3.94,3.94,0,1,1-3.6,3.92A3.56,3.56,0,0,1,216.81,486.59Zm0,6.77c1.19,0,2.2-.84,2.2-2.85s-1-2.84-2.2-2.84-2.2.84-2.2,2.84S215.63,493.36,216.81,493.36Z"/>
      <path class="cls-1" d="M226.25,486.72v1.34a2.21,2.21,0,0,1,2.09-1.34h1.33v1.17h-1.32c-1.49,0-2.07,1-2.07,2.61v2.65H229v1.1h-6.2v-1.1H225v-5.33h-2.21v-1.1Z"/>
      <path class="cls-1" d="M233.7,484.83H235v1.89h3.18v1.1H235v4.36c0,.77,0,1,.78,1h2.4v1.1h-2.69c-1.42,0-1.82-.32-1.82-1.89v-4.54h-2.22v-1.1h2.22Z"/>
      <path class="cls-1" d="M241.39,490.51c0-2.42,1.47-3.93,3.53-3.93,2.27,0,3.58,1.61,3.47,4.3h-5.6c0,1.51.87,2.51,2.1,2.51a1.87,1.87,0,0,0,2-1.39h1.38a3.19,3.19,0,0,1-3.36,2.44C242.56,494.44,241.39,492.74,241.39,490.51Zm1.41-.7H247a2,2,0,0,0-2.06-2.17A2,2,0,0,0,242.8,489.81Z"/>
      <path class="cls-1" d="M256,484.1h1.33v10.15H256l0-1.06a2.5,2.5,0,0,1-2.3,1.25c-1.8,0-3.14-1.43-3.14-3.93s1.34-3.92,3.14-3.92a2.47,2.47,0,0,1,2.3,1.26Zm-2,3.57c-1.34,0-2,1.05-2,2.84s.68,2.86,2,2.86c1.11,0,2.08-.88,2.08-2.86S255.07,487.67,254,487.67Z"/>
      <path class="cls-1" d="M272.59,484.1c2.3,0,4.07.6,4.07,3.12s-1.77,3.13-4.07,3.13h-1.2v3.9H270V484.1Zm-1.2,1.26v3.73h1.37c1.41,0,2.48-.21,2.48-1.87s-1.07-1.86-2.48-1.86Z"/>
      <path class="cls-1" d="M282.38,486.72v1.34a2.2,2.2,0,0,1,2.08-1.34h1.34v1.17h-1.32c-1.49,0-2.07,1-2.07,2.61v2.65h2.66v1.1h-6.2v-1.1h2.21v-5.33h-2.22v-1.1Z"/>
      <path class="cls-1" d="M291.65,486.59a3.94,3.94,0,1,1-3.61,3.92A3.56,3.56,0,0,1,291.65,486.59Zm0,6.77c1.18,0,2.2-.84,2.2-2.85s-1-2.84-2.2-2.84-2.21.84-2.21,2.84S290.46,493.36,291.65,493.36Z"/>
      <path class="cls-1" d="M304.27,489.23h-1.34a1.84,1.84,0,0,0-1.84-1.57c-1.16,0-2.12,1-2.12,2.85s1,2.88,2.12,2.88a1.91,1.91,0,0,0,1.89-1.56h1.38a3.23,3.23,0,0,1-3.35,2.61c-2.15,0-3.44-1.63-3.44-3.93s1.34-3.92,3.58-3.92A3,3,0,0,1,304.27,489.23Z"/>
      <path class="cls-1" d="M306.86,490.51c0-2.42,1.48-3.93,3.54-3.93,2.27,0,3.57,1.61,3.47,4.3h-5.6c0,1.51.87,2.51,2.1,2.51a1.87,1.87,0,0,0,2-1.39h1.38a3.19,3.19,0,0,1-3.36,2.44C308,494.44,306.86,492.74,306.86,490.51Zm1.42-.7h4.17a2,2,0,0,0-2.05-2.17A2,2,0,0,0,308.28,489.81Z"/>
      <path class="cls-1" d="M321.32,488.78c-.18-.84-.86-1.12-1.74-1.12s-1.57.29-1.57,1,.41.86,1.18,1l.87.17c1.34.25,2.79.74,2.79,2.26s-1.42,2.38-3.11,2.38a2.92,2.92,0,0,1-3.19-2.44H318a1.6,1.6,0,0,0,1.81,1.37c.82,0,1.73-.28,1.73-1.16,0-.7-.65-1-1.63-1.22l-1-.18c-1.23-.24-2.2-.83-2.2-2.13,0-1.46,1.63-2.09,2.94-2.09a2.86,2.86,0,0,1,3.07,2.19Z"/>
      <path class="cls-1" d="M330.67,488.78c-.17-.84-.86-1.12-1.74-1.12s-1.56.29-1.56,1,.4.86,1.17,1l.87.17c1.35.25,2.79.74,2.79,2.26s-1.41,2.38-3.11,2.38a2.9,2.9,0,0,1-3.18-2.44h1.4a1.6,1.6,0,0,0,1.81,1.37c.83,0,1.74-.28,1.74-1.16,0-.7-.65-1-1.64-1.22l-1-.18c-1.23-.24-2.2-.83-2.2-2.13,0-1.46,1.64-2.09,2.94-2.09a2.86,2.86,0,0,1,3.07,2.19Z"/>
      <path class="cls-1" d="M334.93,490.51c0-2.42,1.47-3.93,3.53-3.93,2.27,0,3.58,1.61,3.47,4.3h-5.6c0,1.51.87,2.51,2.1,2.51a1.87,1.87,0,0,0,2-1.39h1.38a3.19,3.19,0,0,1-3.36,2.44C336.1,494.44,334.93,492.74,334.93,490.51Zm1.42-.7h4.17a2.09,2.09,0,1,0-4.17,0Z"/>
      <path class="cls-1" d="M349.38,488.78c-.18-.84-.86-1.12-1.74-1.12s-1.56.29-1.56,1,.4.86,1.17,1l.87.17c1.34.25,2.79.74,2.79,2.26s-1.42,2.38-3.11,2.38a2.92,2.92,0,0,1-3.19-2.44H346a1.6,1.6,0,0,0,1.81,1.37c.82,0,1.74-.28,1.74-1.16,0-.7-.66-1-1.64-1.22l-1-.18c-1.23-.24-2.2-.83-2.2-2.13,0-1.46,1.63-2.09,2.94-2.09a2.86,2.86,0,0,1,3.07,2.19Z"/>
      <path class="cls-1" d="M356.28,488.33v-1.61H358v1.61Zm0,5.92v-1.61H358v1.61Z"/>
      <path class="cls-1" d="M376.76,484.1v9H379v1.1h-6.21v-1.1h2.68v-6.84h-2.68v-.88c1.75,0,2.6-.22,3.14-1.33Z"/>
    </g>
    <g>
      <path class="cls-1" d="M177.24,543.39v6.18c0,2,.36,2.93,2.14,2.93s2.18-1.08,2.18-3.08v-6h1.37v5.91c0,3-.81,4.43-3.55,4.43s-3.52-1.15-3.52-4.31v-6Z"/>
      <path class="cls-1" d="M190.36,548.07c-.17-.84-.86-1.12-1.74-1.12s-1.56.29-1.56,1,.4.85,1.17,1l.87.16c1.35.26,2.79.75,2.79,2.26s-1.42,2.38-3.11,2.38a2.91,2.91,0,0,1-3.19-2.44H187a1.61,1.61,0,0,0,1.81,1.38c.82,0,1.74-.28,1.74-1.17,0-.7-.65-1-1.64-1.22l-1-.18c-1.23-.24-2.2-.82-2.2-2.13s1.64-2.08,2.94-2.08a2.86,2.86,0,0,1,3.07,2.18Z"/>
      <path class="cls-1" d="M194.79,551.59c0-1.8,2-2.34,5.15-2.68v-.32c0-1.3-.73-1.7-1.75-1.7-1.2,0-1.76.58-1.85,1.5H195a3,3,0,0,1,3.23-2.53c2.15,0,3.08.92,3,3v1.83c0,1.27.06,2.34.1,2.85h-1.28v-1.11a2.88,2.88,0,0,1-2.74,1.29A2.25,2.25,0,0,1,194.79,551.59Zm5.26-1.66c-2.38.23-3.83.55-3.83,1.63,0,.71.54,1.13,1.48,1.13,1.19,0,2.35-.54,2.35-2.55Z"/>
      <path class="cls-1" d="M209.24,546h1.33v6.6c0,1.54-.2,2.17-.62,2.65a3.71,3.71,0,0,1-2.72,1c-1.7,0-2.9-.78-3.13-2.27h1.4c.19.69.6,1.15,1.74,1.15a2.13,2.13,0,0,0,1.59-.56c.27-.29.41-.64.41-1.67v-.72a2.48,2.48,0,0,1-2.3,1.24c-1.8,0-3.14-1.27-3.14-3.77s1.34-3.76,3.14-3.76a2.47,2.47,0,0,1,2.3,1.26Zm-2,1c-1.33,0-2,.9-2,2.69s.68,2.71,2,2.71c1.12,0,2.09-.73,2.09-2.71S208.33,547,207.21,547Z"/>
      <path class="cls-1" d="M213.32,549.81c0-2.42,1.48-3.94,3.54-3.94,2.27,0,3.57,1.61,3.47,4.3h-5.6c0,1.51.87,2.51,2.1,2.51a1.86,1.86,0,0,0,2-1.39h1.38a3.19,3.19,0,0,1-3.36,2.44C214.5,553.73,213.32,552,213.32,549.81Zm1.42-.7h4.17a2,2,0,0,0-2-2.17A2,2,0,0,0,214.74,549.11Z"/>
      <path class="cls-1" d="M225.33,547.62V546H227v1.61Zm0,5.93v-1.61H227v1.61Z"/>
      <path class="cls-1" d="M248.25,545.94c0,2.36-2.35,4.43-5,6.5h5.22v1.11h-7.08v-1.11c3.52-2.65,5.47-4.55,5.47-6.33A1.68,1.68,0,0,0,245,544.3a2.06,2.06,0,0,0-2.11,2.31h-1.37a3.29,3.29,0,0,1,3.49-3.4C246.87,543.21,248.25,544.22,248.25,545.94Z"/>
      <path class="cls-1" d="M250.55,548.42c0-3.15,1-5.21,3.67-5.21s3.67,2.06,3.67,5.21-1,5.31-3.67,5.31S250.55,551.57,250.55,548.42Zm1.36.52,4.54-2c-.24-1.77-1-2.64-2.23-2.64-1.58,0-2.32,1.35-2.32,4.12C251.9,548.6,251.9,548.77,251.91,548.94Zm4.64-.52a3.46,3.46,0,0,0,0-.45L252,550c.25,1.74,1,2.62,2.22,2.62C255.79,552.62,256.55,551.19,256.55,548.42Z"/>
      <path class="cls-1" d="M259.37,545.73c0-1.52.67-2.52,2-2.52s2,1,2,2.52-.67,2.52-2,2.52S259.37,547.23,259.37,545.73Zm0,7.82,7.24-10.16h1.16l-7.26,10.16Zm3-7.82c0-1.1-.36-1.67-1-1.67s-1,.57-1,1.67.33,1.67,1,1.67S262.38,546.81,262.38,545.73Zm1.33,5.46c0-1.52.67-2.52,2-2.52s2,1,2,2.52-.66,2.54-2,2.54S263.71,552.71,263.71,551.19Zm3,0c0-1.09-.35-1.65-1-1.65s-1,.56-1,1.65.34,1.69,1,1.69S266.73,552.29,266.73,551.19Z"/>
    </g>
    <g>
      <path class="cls-1" d="M191.42,512.47h3.09c1.76,0,3.45.49,3.45,2.5a2.55,2.55,0,0,1-1,2.23,2.39,2.39,0,0,1,1.43,2.41c0,2.16-1.63,3-3.52,3h-3.41Zm1.37,4.31h2c1.09,0,1.78-.42,1.78-1.61,0-1-.72-1.44-1.78-1.44h-2Zm0,4.58H195c1.32,0,2-.59,2-1.73s-.66-1.66-2.08-1.66h-2.06Z"/>
      <path class="cls-1" d="M200.68,520.66c0-1.79,2-2.34,5.16-2.67v-.33c0-1.3-.74-1.69-1.75-1.69-1.21,0-1.77.57-1.86,1.5h-1.36a3,3,0,0,1,3.23-2.54c2.16,0,3.09.93,3.06,3l0,1.84c0,1.26.06,2.34.1,2.84H206l0-1.1a2.87,2.87,0,0,1-2.73,1.29A2.26,2.26,0,0,1,200.68,520.66Zm5.26-1.65c-2.38.22-3.82.55-3.82,1.62,0,.72.53,1.14,1.47,1.14,1.19,0,2.35-.55,2.35-2.55Z"/>
      <path class="cls-1" d="M216.63,517.59h-1.35a1.83,1.83,0,0,0-1.84-1.56c-1.16,0-2.11,1-2.11,2.85s.95,2.87,2.11,2.87a1.91,1.91,0,0,0,1.9-1.55h1.37a3.23,3.23,0,0,1-3.34,2.61c-2.16,0-3.45-1.63-3.45-3.93s1.35-3.92,3.58-3.92A3,3,0,0,1,216.63,517.59Z"/>
      <path class="cls-1" d="M221.11,512.47v6l3.45-3.43h1.71L223.21,518l3.36,4.61h-1.52l-2.73-3.75L221.11,520v2.6h-1.33V512.47Z"/>
      <path class="cls-1" d="M229.76,519.39v-1.21h4.6v1.21Z"/>
      <path class="cls-1" d="M238.36,512.47h6.26v1.26h-4.89v3h4.6V518h-4.6v3.35h4.89v1.26h-6.26Z"/>
      <path class="cls-1" d="M249.07,516.15a2.48,2.48,0,0,1,2.29-1.19c1.88,0,2.45,1.21,2.45,2.87v4.79h-1.33v-4.34c0-1.22-.1-2.23-1.55-2.23-1.2,0-1.86.87-1.86,2.48v4.09h-1.33v-7.53h1.33Z"/>
      <path class="cls-1" d="M261.88,512.47h1.33v10.15h-1.32v-1.06a2.52,2.52,0,0,1-2.31,1.25c-1.79,0-3.14-1.43-3.14-3.93s1.35-3.92,3.14-3.92a2.49,2.49,0,0,1,2.31,1.26Zm-2,3.57c-1.33,0-2,1.05-2,2.84s.68,2.86,2,2.86c1.11,0,2.08-.88,2.08-2.86S261,516,259.85,516Z"/>
      <path class="cls-1" d="M283,522.62h-1.48l-.71-2.17h-4l-.7,2.17h-1.47l3.44-10.15h1.48Zm-5.8-3.41h3.2l-1.59-5Z"/>
      <path class="cls-1" d="M286.43,516.22a2.51,2.51,0,0,1,2.3-1.26c1.8,0,3.15,1.44,3.15,3.92s-1.35,3.93-3.15,3.93a2.54,2.54,0,0,1-2.3-1.25v3.51H285.1v-10h1.33Zm2,5.52c1.33,0,2-1.06,2-2.86s-.68-2.84-2-2.84c-1.12,0-2.09.85-2.09,2.84S287.34,521.74,288.46,521.74Z"/>
      <path class="cls-1" d="M295.79,516.22a2.49,2.49,0,0,1,2.3-1.26c1.8,0,3.14,1.44,3.14,3.92s-1.34,3.93-3.14,3.93a2.52,2.52,0,0,1-2.3-1.25v3.51h-1.34v-10h1.34Zm2,5.52c1.34,0,2-1.06,2-2.86s-.68-2.84-2-2.84c-1.11,0-2.08.85-2.08,2.84S296.7,521.74,297.81,521.74Z"/>
    </g>
    <g>
      <rect class="cls-2" x="158.73" y="457.81" width="240" height="12.03"/>
      <path class="cls-1" d="M399.23,470.34h-241v-13h241Zm-240-1h239v-11h-239Z"/>
    </g>
  </g>
  <g>
    <rect class="cls-2" x="768.9" y="289.93" width="240" height="126.09"/>
    <path class="cls-1" d="M1009.4,416.52h-241V289.43h241Zm-240-1h239V290.43h-239Z"/>
  </g>
  <g>
    <path class="cls-1" d="M784.66,311.08c0-1.75,1.56-2.79,3.45-2.79a3.24,3.24,0,0,1,3.49,2.86h-1.37a2,2,0,0,0-2.2-1.62c-.95,0-1.95.46-1.95,1.51,0,.89.68,1.33,1.52,1.51l1,.22c1.7.37,3.17,1.08,3.17,3s-1.52,3-3.55,3a3.54,3.54,0,0,1-3.79-3.35h1.36a2.3,2.3,0,0,0,2.48,2.12c1,0,2.11-.53,2.11-1.69s-.82-1.53-2-1.78l-1.14-.27A2.91,2.91,0,0,1,784.66,311.08Z"/>
    <path class="cls-1" d="M799.18,317.66a2.44,2.44,0,0,1-2.29,1.15c-1.88,0-2.41-1.2-2.41-2.87v-4.85h1.33v4.4c0,1.22.07,2.22,1.52,2.22,1.2,0,1.85-.86,1.85-2.47v-4.15h1.33v7.54h-1.33Z"/>
    <path class="cls-1" d="M805.11,312.23a2.49,2.49,0,0,1,2.3-1.26c1.79,0,3.14,1.44,3.14,3.92s-1.35,3.92-3.14,3.92a2.51,2.51,0,0,1-2.3-1.24v3.51h-1.34v-10h1.34Zm2,5.52c1.33,0,2-1.07,2-2.86s-.69-2.84-2-2.84c-1.11,0-2.08.85-2.08,2.84S806,317.75,807.13,317.75Z"/>
    <path class="cls-1" d="M814.46,312.23a2.49,2.49,0,0,1,2.3-1.26c1.8,0,3.14,1.44,3.14,3.92s-1.34,3.92-3.14,3.92a2.51,2.51,0,0,1-2.3-1.24v3.51h-1.33v-10h1.33Zm2,5.52c1.33,0,2-1.07,2-2.86s-.68-2.84-2-2.84c-1.12,0-2.09.85-2.09,2.84S815.37,317.75,816.49,317.75Z"/>
    <path class="cls-1" d="M825.57,311a3.93,3.93,0,1,1-3.61,3.92A3.56,3.56,0,0,1,825.57,311Zm0,6.76c1.18,0,2.2-.84,2.2-2.84s-1-2.84-2.2-2.84-2.21.84-2.21,2.84S824.38,317.73,825.57,317.73Z"/>
    <path class="cls-1" d="M835,311.09v1.35a2.2,2.2,0,0,1,2.08-1.35h1.33v1.18h-1.31c-1.5,0-2.07,1-2.07,2.61v2.64h2.66v1.11h-6.2v-1.11h2.2V312.2h-2.21v-1.11Z"/>
    <path class="cls-1" d="M842.45,309.2h1.33v1.89H847v1.11h-3.19v4.36c0,.77,0,1,.78,1H847v1.11h-2.7c-1.42,0-1.82-.32-1.82-1.89V312.2h-2.22v-1.11h2.22Z"/>
    <path class="cls-1" d="M850.14,314.89c0-2.42,1.47-3.94,3.53-3.94,2.27,0,3.58,1.61,3.48,4.3h-5.61c0,1.52.87,2.51,2.1,2.51a1.86,1.86,0,0,0,2-1.38H857a3.19,3.19,0,0,1-3.36,2.43C851.31,318.81,850.14,317.12,850.14,314.89Zm1.42-.7h4.17a2.09,2.09,0,1,0-4.17,0Z"/>
    <path class="cls-1" d="M864.73,308.47h1.34v10.16h-1.32l0-1.06a2.5,2.5,0,0,1-2.3,1.24c-1.79,0-3.14-1.43-3.14-3.92s1.35-3.92,3.14-3.92a2.47,2.47,0,0,1,2.3,1.26Zm-2,3.58c-1.34,0-2,1.05-2,2.84s.68,2.86,2,2.86c1.11,0,2.08-.88,2.08-2.86S863.82,312.05,862.71,312.05Z"/>
    <path class="cls-1" d="M881.34,308.47c2.3,0,4.07.61,4.07,3.13s-1.77,3.12-4.07,3.12h-1.2v3.91h-1.38V308.47Zm-1.2,1.27v3.72h1.38c1.4,0,2.47-.21,2.47-1.86s-1.07-1.86-2.47-1.86Z"/>
    <path class="cls-1" d="M891.13,311.09v1.35a2.21,2.21,0,0,1,2.09-1.35h1.33v1.18h-1.32c-1.49,0-2.07,1-2.07,2.61v2.64h2.66v1.11h-6.19v-1.11h2.2V312.2h-2.22v-1.11Z"/>
    <path class="cls-1" d="M900.4,311a3.93,3.93,0,1,1-3.61,3.92A3.56,3.56,0,0,1,900.4,311Zm0,6.76c1.18,0,2.2-.84,2.2-2.84s-1-2.84-2.2-2.84-2.2.84-2.2,2.84S899.21,317.73,900.4,317.73Z"/>
    <path class="cls-1" d="M913,313.6h-1.34a1.85,1.85,0,0,0-1.84-1.57c-1.16,0-2.12,1-2.12,2.86s1,2.87,2.12,2.87a1.91,1.91,0,0,0,1.9-1.55h1.37a3.22,3.22,0,0,1-3.34,2.6c-2.16,0-3.45-1.62-3.45-3.92s1.35-3.92,3.58-3.92A3,3,0,0,1,913,313.6Z"/>
    <path class="cls-1" d="M915.62,314.89c0-2.42,1.47-3.94,3.53-3.94,2.27,0,3.58,1.61,3.47,4.3H917c0,1.52.87,2.51,2.1,2.51a1.86,1.86,0,0,0,2-1.38h1.38a3.19,3.19,0,0,1-3.36,2.43C916.79,318.81,915.62,317.12,915.62,314.89Zm1.42-.7h4.17a2.09,2.09,0,1,0-4.17,0Z"/>
    <path class="cls-1" d="M930.07,313.15c-.18-.84-.86-1.12-1.74-1.12s-1.56.3-1.56,1,.4.85,1.17,1l.87.17c1.34.25,2.79.74,2.79,2.25s-1.42,2.38-3.11,2.38a2.91,2.91,0,0,1-3.19-2.43h1.41a1.61,1.61,0,0,0,1.81,1.37c.82,0,1.73-.28,1.73-1.16,0-.7-.65-1.06-1.63-1.22l-1-.19c-1.23-.23-2.2-.82-2.2-2.12,0-1.46,1.63-2.09,2.94-2.09a2.86,2.86,0,0,1,3.07,2.18Z"/>
    <path class="cls-1" d="M939.42,313.15c-.17-.84-.85-1.12-1.74-1.12s-1.56.3-1.56,1,.41.85,1.17,1l.87.17c1.35.25,2.8.74,2.8,2.25s-1.42,2.38-3.12,2.38a2.9,2.9,0,0,1-3.18-2.43h1.4a1.62,1.62,0,0,0,1.81,1.37c.83,0,1.74-.28,1.74-1.16,0-.7-.65-1.06-1.64-1.22l-1-.19c-1.23-.23-2.2-.82-2.2-2.12,0-1.46,1.64-2.09,2.94-2.09a2.86,2.86,0,0,1,3.07,2.18Z"/>
    <path class="cls-1" d="M943.68,314.89c0-2.42,1.48-3.94,3.53-3.94,2.27,0,3.58,1.61,3.48,4.3h-5.61c0,1.52.87,2.51,2.1,2.51a1.88,1.88,0,0,0,2-1.38h1.37a3.19,3.19,0,0,1-3.36,2.43C944.85,318.81,943.68,317.12,943.68,314.89Zm1.42-.7h4.17a2.09,2.09,0,1,0-4.17,0Z"/>
    <path class="cls-1" d="M958.13,313.15c-.17-.84-.86-1.12-1.74-1.12s-1.56.3-1.56,1,.4.85,1.17,1l.87.17c1.35.25,2.79.74,2.79,2.25s-1.41,2.38-3.11,2.38a2.9,2.9,0,0,1-3.18-2.43h1.4a1.61,1.61,0,0,0,1.81,1.37c.83,0,1.74-.28,1.74-1.16,0-.7-.65-1.06-1.64-1.22l-1-.19c-1.23-.23-2.2-.82-2.2-2.12,0-1.46,1.64-2.09,2.94-2.09a2.86,2.86,0,0,1,3.07,2.18Z"/>
    <path class="cls-1" d="M965,312.71v-1.62h1.66v1.62Zm0,5.92V317h1.66v1.61Z"/>
    <path class="cls-1" d="M988,311c0,2.36-2.35,4.43-5,6.5h5.22v1.11h-7.08v-1.11c3.51-2.64,5.47-4.55,5.47-6.33a1.67,1.67,0,0,0-1.81-1.8,2,2,0,0,0-2.11,2.31h-1.37a3.29,3.29,0,0,1,3.49-3.41C986.58,308.29,988,309.3,988,311Z"/>
  </g>
  <g>
    <path class="cls-1" d="M786,389v6.17c0,2,.36,2.93,2.14,2.93s2.18-1.08,2.18-3.08v-6h1.37v5.91c0,3-.81,4.42-3.55,4.42s-3.51-1.15-3.51-4.31v-6Z"/>
    <path class="cls-1" d="M799.11,393.62c-.17-.84-.85-1.12-1.74-1.12s-1.56.3-1.56,1,.4.85,1.17,1l.87.17c1.35.25,2.8.74,2.8,2.25s-1.42,2.38-3.12,2.38a2.9,2.9,0,0,1-3.18-2.43h1.4a1.61,1.61,0,0,0,1.81,1.37c.83,0,1.74-.28,1.74-1.16,0-.7-.65-1.05-1.64-1.22l-1-.19c-1.23-.23-2.2-.82-2.2-2.12,0-1.46,1.64-2.09,2.94-2.09a2.86,2.86,0,0,1,3.07,2.18Z"/>
    <path class="cls-1" d="M803.54,397.14c0-1.79,2-2.34,5.16-2.68v-.32c0-1.3-.74-1.69-1.76-1.69-1.2,0-1.76.57-1.85,1.5h-1.36a3,3,0,0,1,3.23-2.54c2.16,0,3.08.93,3,3v1.84c0,1.26.06,2.34.1,2.84h-1.27l0-1.11a2.87,2.87,0,0,1-2.73,1.29C804.67,399.28,803.54,398.5,803.54,397.14Zm5.26-1.65c-2.38.22-3.83.54-3.83,1.62,0,.72.54,1.14,1.48,1.14,1.19,0,2.35-.55,2.35-2.55Z"/>
    <path class="cls-1" d="M818,391.56h1.33v6.6c0,1.54-.2,2.17-.62,2.65a3.71,3.71,0,0,1-2.72,1c-1.69,0-2.9-.78-3.13-2.26h1.41c.18.68.59,1.14,1.73,1.14a2.13,2.13,0,0,0,1.6-.56c.26-.29.4-.64.4-1.66v-.73a2.46,2.46,0,0,1-2.3,1.24c-1.8,0-3.14-1.27-3.14-3.76s1.34-3.77,3.14-3.77a2.47,2.47,0,0,1,2.3,1.26Zm-2,1c-1.33,0-2,.89-2,2.69s.68,2.7,2,2.7c1.12,0,2.09-.73,2.09-2.7S817.08,392.52,816,392.52Z"/>
    <path class="cls-1" d="M822.08,395.36c0-2.42,1.47-3.93,3.53-3.93,2.27,0,3.58,1.61,3.47,4.29h-5.6c0,1.52.87,2.51,2.1,2.51a1.86,1.86,0,0,0,2-1.38H829a3.19,3.19,0,0,1-3.36,2.43C823.25,399.28,822.08,397.59,822.08,395.36Zm1.41-.7h4.18a2.09,2.09,0,1,0-4.18,0Z"/>
    <path class="cls-1" d="M834.08,393.18v-1.62h1.66v1.62Zm0,5.92v-1.61h1.66v1.61Z"/>
    <path class="cls-1" d="M851.35,393.74a2.86,2.86,0,0,1,2.64-1.39,3.28,3.28,0,0,1,3.29,3.45,3.48,3.48,0,0,1-3.59,3.48c-2.5,0-3.71-1.78-3.71-4.86,0-2.86,1.08-5.66,4-5.66a3,3,0,0,1,3.15,2.51h-1.43a1.67,1.67,0,0,0-1.8-1.41C852.27,389.86,851.41,391.43,851.35,393.74Zm2.32,4.44a2.35,2.35,0,1,0-2.17-2.33A2.12,2.12,0,0,0,853.67,398.18Z"/>
    <path class="cls-1" d="M859.3,394c0-3.15,1-5.21,3.67-5.21s3.68,2.06,3.68,5.21-1,5.31-3.68,5.31S859.3,397.13,859.3,394Zm1.37.52,4.53-2c-.23-1.77-1-2.63-2.23-2.63-1.58,0-2.32,1.34-2.32,4.11A4.35,4.35,0,0,0,860.67,394.49Zm4.63-.52a3.24,3.24,0,0,0,0-.44l-4.53,2c.25,1.73,1,2.62,2.22,2.62C864.55,398.18,865.3,396.75,865.3,394Z"/>
    <path class="cls-1" d="M868.12,391.28c0-1.52.67-2.52,2-2.52s2,1,2,2.52-.66,2.53-2,2.53S868.12,392.78,868.12,391.28Zm0,7.82L875.39,389h1.16l-7.26,10.15Zm3-7.82c0-1.1-.36-1.66-1-1.66s-1,.56-1,1.66.33,1.67,1,1.67S871.13,392.36,871.13,391.28Zm1.34,5.47c0-1.53.66-2.52,2-2.52s2,1,2,2.52-.67,2.53-2,2.53S872.47,398.26,872.47,396.75Zm3,0c0-1.1-.35-1.65-1-1.65s-1,.55-1,1.65.34,1.68,1,1.68S875.48,397.84,875.48,396.75Z"/>
  </g>
  <g>
    <path class="cls-1" d="M800.6,336.84h6.46v1.26H802v3h4.8v1.26H802V347H800.6Z"/>
    <path class="cls-1" d="M812.84,339.46v1.35a2.2,2.2,0,0,1,2.08-1.35h1.33v1.18h-1.31c-1.49,0-2.07.95-2.07,2.61v2.64h2.66V347h-6.2v-1.11h2.2v-5.32h-2.21v-1.11Z"/>
    <path class="cls-1" d="M822.1,339.34a3.93,3.93,0,1,1-3.6,3.92A3.56,3.56,0,0,1,822.1,339.34Zm0,6.76c1.19,0,2.2-.84,2.2-2.84s-1-2.84-2.2-2.84-2.2.84-2.2,2.84S820.92,346.1,822.1,346.1Z"/>
    <path class="cls-1" d="M829.76,340.53a2.46,2.46,0,0,1,2.29-1.19c1.88,0,2.45,1.2,2.45,2.87V347h-1.33v-4.34c0-1.22-.1-2.23-1.55-2.23-1.2,0-1.86.87-1.86,2.48V347h-1.33v-7.54h1.33Z"/>
    <path class="cls-1" d="M839,337.57h1.33v1.89h3.19v1.11h-3.19v4.36c0,.77,0,1,.78,1h2.41V347h-2.7c-1.42,0-1.82-.32-1.82-1.89v-4.54h-2.22v-1.11H839Z"/>
    <path class="cls-1" d="M847.86,343.76v-1.2h4.61v1.2Z"/>
    <path class="cls-1" d="M856.46,336.84h6.26v1.26h-4.88v3h4.59v1.26h-4.59v3.35h4.88V347h-6.26Z"/>
    <path class="cls-1" d="M867.18,340.53a2.45,2.45,0,0,1,2.29-1.19c1.88,0,2.45,1.2,2.45,2.87V347h-1.34v-4.34c0-1.22-.1-2.23-1.55-2.23-1.2,0-1.85.87-1.85,2.48V347h-1.33v-7.54h1.33Z"/>
    <path class="cls-1" d="M880,336.84h1.33V347H880l0-1.07a2.49,2.49,0,0,1-2.3,1.25c-1.8,0-3.14-1.43-3.14-3.92s1.34-3.92,3.14-3.92a2.47,2.47,0,0,1,2.3,1.26Zm-2,3.58c-1.33,0-2,1.05-2,2.84s.68,2.86,2,2.86c1.12,0,2.09-.89,2.09-2.86S879.07,340.42,878,340.42Z"/>
    <path class="cls-1" d="M901.12,347h-1.48l-.71-2.17h-4l-.69,2.17h-1.48l3.45-10.16h1.47Zm-5.79-3.42h3.2l-1.59-5Z"/>
    <path class="cls-1" d="M904.54,340.6a2.49,2.49,0,0,1,2.3-1.26c1.8,0,3.14,1.44,3.14,3.92s-1.34,3.92-3.14,3.92a2.5,2.5,0,0,1-2.3-1.25v3.52h-1.33v-10h1.33Zm2,5.52c1.33,0,2-1.07,2-2.86s-.68-2.84-2-2.84c-1.12,0-2.09.85-2.09,2.84S905.45,346.12,906.57,346.12Z"/>
    <path class="cls-1" d="M913.89,340.6a2.51,2.51,0,0,1,2.3-1.26c1.8,0,3.15,1.44,3.15,3.92s-1.35,3.92-3.15,3.92a2.52,2.52,0,0,1-2.3-1.25v3.52h-1.33v-10h1.33Zm2,5.52c1.33,0,2-1.07,2-2.86s-.68-2.84-2-2.84c-1.12,0-2.09.85-2.09,2.84S914.8,346.12,915.92,346.12Z"/>
    <path class="cls-1" d="M800.17,356.84h3.1c1.75,0,3.44.49,3.44,2.51a2.54,2.54,0,0,1-1,2.23A2.38,2.38,0,0,1,807.1,364c0,2.15-1.63,3-3.52,3h-3.41Zm1.37,4.32h2c1.08,0,1.78-.42,1.78-1.61s-.73-1.45-1.78-1.45h-2Zm0,4.58h2.16c1.32,0,2-.59,2-1.74s-.66-1.65-2.08-1.65h-2.06Z"/>
    <path class="cls-1" d="M809.43,365c0-1.79,2-2.34,5.16-2.68V362c0-1.3-.74-1.69-1.75-1.69-1.2,0-1.77.57-1.86,1.5h-1.36a3,3,0,0,1,3.23-2.54c2.16,0,3.09.92,3.06,3l0,1.84c0,1.26.06,2.34.1,2.84h-1.27v-1.11a2.88,2.88,0,0,1-2.74,1.29C810.56,367.18,809.43,366.4,809.43,365Zm5.26-1.65c-2.37.22-3.82.54-3.82,1.62,0,.71.53,1.13,1.47,1.13,1.19,0,2.35-.54,2.35-2.54Z"/>
    <path class="cls-1" d="M825.38,362H824a1.84,1.84,0,0,0-1.84-1.57c-1.16,0-2.11,1-2.11,2.86s.95,2.87,2.11,2.87a1.91,1.91,0,0,0,1.9-1.55h1.37a3.21,3.21,0,0,1-3.34,2.6c-2.16,0-3.45-1.62-3.45-3.92s1.35-3.92,3.58-3.92A3,3,0,0,1,825.38,362Z"/>
    <path class="cls-1" d="M829.87,356.84v6.05l3.44-3.43H835L832,362.39l3.37,4.61H833.8l-2.73-3.75-1.2,1.14V367h-1.34V356.84Z"/>
    <path class="cls-1" d="M838.51,363.76v-1.2h4.6v1.2Z"/>
    <path class="cls-1" d="M847.11,356.84h6.26v1.26h-4.88v3h4.59v1.26h-4.59v3.35h4.88V367h-6.26Z"/>
    <path class="cls-1" d="M857.83,360.53a2.43,2.43,0,0,1,2.28-1.19c1.89,0,2.45,1.2,2.45,2.87V367h-1.33v-4.34c0-1.22-.1-2.23-1.55-2.23-1.2,0-1.85.87-1.85,2.48V367h-1.34v-7.54h1.34Z"/>
    <path class="cls-1" d="M870.63,356.84H872V367h-1.32v-1.07a2.5,2.5,0,0,1-2.31,1.25c-1.79,0-3.14-1.43-3.14-3.92s1.35-3.92,3.14-3.92a2.49,2.49,0,0,1,2.31,1.26Zm-2,3.58c-1.33,0-2,1.05-2,2.84s.68,2.86,2,2.86c1.11,0,2.08-.89,2.08-2.86S869.71,360.42,868.6,360.42Z"/>
    <path class="cls-1" d="M891.77,367h-1.48l-.71-2.17h-4l-.69,2.17H883.4l3.44-10.16h1.48ZM886,363.58h3.2l-1.6-5Z"/>
    <path class="cls-1" d="M895.18,360.6a2.51,2.51,0,0,1,2.31-1.26c1.79,0,3.14,1.44,3.14,3.92s-1.35,3.92-3.14,3.92a2.53,2.53,0,0,1-2.31-1.25v3.52h-1.33v-10h1.33Zm2,5.52c1.33,0,2-1.07,2-2.86s-.68-2.84-2-2.84c-1.11,0-2.08.85-2.08,2.84S896.1,366.12,897.21,366.12Z"/>
    <path class="cls-1" d="M904.54,360.6a2.49,2.49,0,0,1,2.3-1.26c1.8,0,3.14,1.44,3.14,3.92s-1.34,3.92-3.14,3.92a2.5,2.5,0,0,1-2.3-1.25v3.52h-1.33v-10h1.33Zm2,5.52c1.33,0,2-1.07,2-2.86s-.68-2.84-2-2.84c-1.12,0-2.09.85-2.09,2.84S905.45,366.12,906.57,366.12Z"/>
  </g>
  <g>
    <g>
      <path class="cls-1" d="M283.26,399.34v6.18c0,2,.36,2.92,2.14,2.92s2.18-1.08,2.18-3.08v-6H289v5.91c0,3-.81,4.43-3.55,4.43s-3.51-1.15-3.51-4.32v-6Z"/>
      <path class="cls-1" d="M296.38,404c-.17-.84-.85-1.12-1.74-1.12s-1.56.29-1.56,1,.4.86,1.17,1l.87.17c1.35.25,2.79.74,2.79,2.25s-1.41,2.39-3.11,2.39a2.9,2.9,0,0,1-3.18-2.44H293a1.6,1.6,0,0,0,1.81,1.37c.83,0,1.74-.28,1.74-1.16,0-.7-.65-1.05-1.64-1.22l-1-.18c-1.23-.24-2.2-.83-2.2-2.13,0-1.46,1.64-2.09,2.94-2.09a2.86,2.86,0,0,1,3.07,2.19Z"/>
      <path class="cls-1" d="M300.81,407.53c0-1.79,2-2.34,5.16-2.67v-.32c0-1.31-.74-1.7-1.76-1.7-1.2,0-1.76.57-1.85,1.5H301a3,3,0,0,1,3.23-2.54c2.16,0,3.08.93,3,3v1.84c0,1.26.06,2.34.1,2.84H306.1l0-1.1a2.9,2.9,0,0,1-2.74,1.29A2.25,2.25,0,0,1,300.81,407.53Zm5.26-1.65c-2.38.22-3.83.55-3.83,1.62,0,.72.54,1.14,1.48,1.14,1.19,0,2.35-.55,2.35-2.55Z"/>
      <path class="cls-1" d="M315.26,402h1.33v6.6c0,1.54-.2,2.17-.62,2.64a3.71,3.71,0,0,1-2.72,1c-1.7,0-2.9-.79-3.13-2.27h1.41c.18.68.59,1.15,1.73,1.15a2.17,2.17,0,0,0,1.6-.56c.26-.3.4-.65.4-1.67v-.73a2.47,2.47,0,0,1-2.3,1.25c-1.8,0-3.14-1.28-3.14-3.77s1.34-3.77,3.14-3.77a2.47,2.47,0,0,1,2.3,1.26Zm-2,1c-1.33,0-2,.9-2,2.69s.68,2.7,2,2.7c1.12,0,2.09-.73,2.09-2.7S314.35,402.91,313.23,402.91Z"/>
      <path class="cls-1" d="M319.34,405.75c0-2.42,1.48-3.93,3.54-3.93,2.27,0,3.57,1.61,3.47,4.3h-5.6c0,1.51.87,2.51,2.1,2.51a1.87,1.87,0,0,0,2-1.39h1.38a3.19,3.19,0,0,1-3.36,2.44C320.52,409.68,319.34,408,319.34,405.75Zm1.42-.7h4.17a2,2,0,0,0-2.05-2.17A2,2,0,0,0,320.76,405.05Z"/>
      <path class="cls-1" d="M331.35,403.57V402H333v1.61Zm0,5.92v-1.61H333v1.61Z"/>
      <path class="cls-1" d="M354.88,407h-1.75v2.5h-1.34V407h-5v-1.21l4.94-6.44h1.35v6.44h1.75Zm-6.65-1.21h3.56v-4.7Z"/>
      <path class="cls-1" d="M356.57,404.37c0-3.15,1-5.21,3.67-5.21s3.67,2.06,3.67,5.21-1,5.31-3.67,5.31S356.57,407.52,356.57,404.37Zm1.36.52,4.54-2c-.24-1.76-1-2.63-2.23-2.63-1.58,0-2.32,1.34-2.32,4.12C357.92,404.55,357.92,404.72,357.93,404.89Zm4.64-.52a3.31,3.31,0,0,0,0-.45L358,406c.25,1.74,1,2.62,2.22,2.62C361.81,408.57,362.57,407.14,362.57,404.37Z"/>
      <path class="cls-1" d="M365.39,401.68c0-1.53.67-2.52,2-2.52s2,1,2,2.52-.67,2.52-2,2.52S365.39,403.18,365.39,401.68Zm0,7.81,7.24-10.15h1.16l-7.26,10.15Zm3-7.81c0-1.11-.36-1.67-1-1.67s-1,.56-1,1.67.33,1.66,1,1.66S368.4,402.76,368.4,401.68Zm1.33,5.46c0-1.53.67-2.52,2-2.52s2,1,2,2.52-.66,2.54-2,2.54S369.73,408.65,369.73,407.14Zm3,0c0-1.09-.35-1.65-1-1.65s-1,.56-1,1.65.34,1.68,1,1.68S372.75,408.23,372.75,407.14Z"/>
    </g>
    <g>
      <g>
        <rect class="cls-3" x="180.15" y="330.31" width="81.96" height="31.09" rx="2.84"/>
        <path class="cls-2" d="M259.26,361.9H183a3.35,3.35,0,0,1-3.34-3.34V333.15a3.35,3.35,0,0,1,3.34-3.34h76.27a3.34,3.34,0,0,1,3.34,3.34v25.41A3.34,3.34,0,0,1,259.26,361.9ZM183,330.81a2.34,2.34,0,0,0-2.34,2.34v25.41A2.34,2.34,0,0,0,183,360.9h76.27a2.34,2.34,0,0,0,2.34-2.34V333.15a2.34,2.34,0,0,0-2.34-2.34Z"/>
      </g>
      <g>
        <circle class="cls-2" cx="246.56" cy="345.85" r="4.24"/>
        <path class="cls-2" d="M246.56,350.59a4.74,4.74,0,1,1,4.74-4.74A4.74,4.74,0,0,1,246.56,350.59Zm0-8.47a3.74,3.74,0,1,0,3.74,3.73A3.74,3.74,0,0,0,246.56,342.12Z"/>
      </g>
      <g>
        <circle class="cls-2" cx="229.6" cy="345.85" r="4.24"/>
        <path class="cls-2" d="M229.6,350.59a4.74,4.74,0,1,1,4.74-4.74A4.74,4.74,0,0,1,229.6,350.59Zm0-8.47a3.74,3.74,0,1,0,3.74,3.73A3.74,3.74,0,0,0,229.6,342.12Z"/>
      </g>
      <g>
        <rect class="cls-3" x="180.15" y="299.22" width="81.96" height="31.09" rx="2.84"/>
        <path class="cls-2" d="M259.26,330.81H183a3.35,3.35,0,0,1-3.34-3.34V302.06a3.35,3.35,0,0,1,3.34-3.34h76.27a3.34,3.34,0,0,1,3.34,3.34v25.41A3.34,3.34,0,0,1,259.26,330.81ZM183,299.72a2.34,2.34,0,0,0-2.34,2.34v25.41a2.34,2.34,0,0,0,2.34,2.34h76.27a2.34,2.34,0,0,0,2.34-2.34V302.06a2.34,2.34,0,0,0-2.34-2.34Z"/>
      </g>
      <g>
        <circle class="cls-2" cx="246.56" cy="314.77" r="4.24"/>
        <path class="cls-2" d="M246.56,319.51a4.74,4.74,0,1,1,4.74-4.74A4.75,4.75,0,0,1,246.56,319.51Zm0-8.48a3.74,3.74,0,1,0,3.74,3.74A3.75,3.75,0,0,0,246.56,311Z"/>
      </g>
      <g>
        <circle class="cls-2" cx="229.6" cy="314.77" r="4.24"/>
        <path class="cls-2" d="M229.6,319.51a4.74,4.74,0,1,1,4.74-4.74A4.75,4.75,0,0,1,229.6,319.51Zm0-8.48a3.74,3.74,0,1,0,3.74,3.74A3.75,3.75,0,0,0,229.6,311Z"/>
      </g>
    </g>
    <g>
      <rect class="cls-2" x="318.86" y="278.34" width="25" height="100"/>
      <path class="cls-1" d="M344.36,378.84h-26v-101h26Zm-25-1h24v-99h-24Z"/>
    </g>
    <g>
      <rect class="cls-3" x="318.86" y="338.34" width="25" height="40"/>
      <path class="cls-1" d="M344.36,378.84h-26v-41h26Zm-25-1h24v-39h-24Z"/>
    </g>
  </g>
  <g>
    <g>
      <g>
        <rect class="cls-3" x="179.02" y="638.92" width="81.96" height="31.09" rx="2.84"/>
        <path class="cls-2" d="M258.14,670.51H181.86a3.35,3.35,0,0,1-3.34-3.34V641.76a3.35,3.35,0,0,1,3.34-3.34h76.28a3.34,3.34,0,0,1,3.33,3.34v25.41A3.34,3.34,0,0,1,258.14,670.51Zm-76.28-31.09a2.34,2.34,0,0,0-2.34,2.34v25.41a2.34,2.34,0,0,0,2.34,2.34h76.28a2.34,2.34,0,0,0,2.33-2.34V641.76a2.34,2.34,0,0,0-2.33-2.34Z"/>
      </g>
      <g>
        <circle class="cls-2" cx="245.43" cy="654.47" r="4.24"/>
        <path class="cls-2" d="M245.43,659.2a4.74,4.74,0,1,1,4.74-4.73A4.74,4.74,0,0,1,245.43,659.2Zm0-8.47a3.74,3.74,0,1,0,3.74,3.74A3.74,3.74,0,0,0,245.43,650.73Z"/>
      </g>
      <g>
        <circle class="cls-2" cx="228.47" cy="654.47" r="4.24"/>
        <path class="cls-2" d="M228.47,659.2a4.74,4.74,0,1,1,4.74-4.73A4.74,4.74,0,0,1,228.47,659.2Zm0-8.47a3.74,3.74,0,1,0,3.74,3.74A3.74,3.74,0,0,0,228.47,650.73Z"/>
      </g>
      <g>
        <rect class="cls-3" x="179.02" y="607.84" width="81.96" height="31.09" rx="2.84"/>
        <path class="cls-2" d="M258.14,639.42H181.86a3.34,3.34,0,0,1-3.34-3.34V610.67a3.34,3.34,0,0,1,3.34-3.33h76.28a3.33,3.33,0,0,1,3.33,3.33v25.41A3.33,3.33,0,0,1,258.14,639.42Zm-76.28-31.08a2.34,2.34,0,0,0-2.34,2.33v25.41a2.34,2.34,0,0,0,2.34,2.34h76.28a2.34,2.34,0,0,0,2.33-2.34V610.67a2.34,2.34,0,0,0-2.33-2.33Z"/>
      </g>
      <g>
        <circle class="cls-2" cx="245.43" cy="623.38" r="4.24"/>
        <path class="cls-2" d="M245.43,628.12a4.74,4.74,0,1,1,4.74-4.74A4.75,4.75,0,0,1,245.43,628.12Zm0-8.48a3.74,3.74,0,1,0,3.74,3.74A3.75,3.75,0,0,0,245.43,619.64Z"/>
      </g>
      <g>
        <circle class="cls-2" cx="228.47" cy="623.38" r="4.24"/>
        <path class="cls-2" d="M228.47,628.12a4.74,4.74,0,1,1,4.74-4.74A4.75,4.75,0,0,1,228.47,628.12Zm0-8.48a3.74,3.74,0,1,0,3.74,3.74A3.75,3.75,0,0,0,228.47,619.64Z"/>
      </g>
    </g>
    <g>
      <path class="cls-1" d="M282.13,709.93v6.17c0,2,.36,2.93,2.14,2.93s2.18-1.08,2.18-3.08v-6h1.37v5.91c0,3-.81,4.42-3.55,4.42s-3.51-1.15-3.51-4.31v-6Z"/>
      <path class="cls-1" d="M295.25,714.6c-.17-.84-.85-1.12-1.74-1.12s-1.56.3-1.56,1,.4.86,1.17,1l.87.17c1.35.25,2.8.74,2.8,2.25s-1.42,2.38-3.12,2.38a2.9,2.9,0,0,1-3.18-2.43h1.4a1.61,1.61,0,0,0,1.81,1.37c.83,0,1.74-.28,1.74-1.16,0-.7-.65-1-1.64-1.22l-1-.18c-1.23-.24-2.2-.83-2.2-2.13,0-1.46,1.64-2.09,2.94-2.09a2.86,2.86,0,0,1,3.07,2.18Z"/>
      <path class="cls-1" d="M299.68,718.12c0-1.79,2-2.34,5.16-2.68v-.32c0-1.3-.74-1.69-1.76-1.69-1.2,0-1.76.57-1.85,1.5h-1.36a3,3,0,0,1,3.23-2.54c2.16,0,3.08.93,3,3v1.84c0,1.26.06,2.34.1,2.84H305l0-1.11a2.87,2.87,0,0,1-2.73,1.29C300.81,720.26,299.68,719.48,299.68,718.12Zm5.26-1.65c-2.38.22-3.83.54-3.83,1.62,0,.72.54,1.14,1.48,1.14,1.19,0,2.35-.55,2.35-2.55Z"/>
      <path class="cls-1" d="M314.13,712.55h1.33v6.59c0,1.54-.2,2.17-.62,2.65a3.71,3.71,0,0,1-2.72,1c-1.69,0-2.9-.78-3.13-2.26h1.41c.18.68.59,1.14,1.73,1.14a2.13,2.13,0,0,0,1.6-.56c.26-.29.4-.64.4-1.66v-.73a2.47,2.47,0,0,1-2.3,1.25c-1.8,0-3.14-1.28-3.14-3.77s1.34-3.77,3.14-3.77a2.47,2.47,0,0,1,2.3,1.26Zm-2,1c-1.33,0-2,.89-2,2.69s.68,2.7,2,2.7c1.12,0,2.09-.73,2.09-2.7S313.22,713.5,312.1,713.5Z"/>
      <path class="cls-1" d="M318.22,716.34c0-2.42,1.47-3.94,3.53-3.94,2.27,0,3.58,1.62,3.47,4.31h-5.6a2.21,2.21,0,0,0,2.1,2.5,1.86,1.86,0,0,0,2-1.38h1.38a3.19,3.19,0,0,1-3.36,2.43C319.39,720.26,318.22,718.57,318.22,716.34Zm1.41-.7h4.17a2,2,0,0,0-2.05-2.17A2,2,0,0,0,319.63,715.64Z"/>
      <path class="cls-1" d="M330.22,714.16v-1.61h1.66v1.61Zm0,5.92v-1.61h1.66v1.61Z"/>
      <path class="cls-1" d="M353.14,712.47c0,2.36-2.35,4.43-5,6.5h5.21v1.11h-7.08V719c3.52-2.64,5.47-4.55,5.47-6.33a1.67,1.67,0,0,0-1.81-1.8,2.05,2.05,0,0,0-2.11,2.31h-1.36a3.28,3.28,0,0,1,3.49-3.41C351.77,709.74,353.14,710.75,353.14,712.47Z"/>
      <path class="cls-1" d="M355.44,715c0-3.15,1-5.21,3.67-5.21s3.68,2.06,3.68,5.21-1,5.31-3.68,5.31S355.44,718.11,355.44,715Zm1.36.52,4.54-2c-.23-1.77-1-2.63-2.23-2.63-1.58,0-2.32,1.34-2.32,4.11C356.79,715.14,356.79,715.31,356.8,715.47Zm4.64-.52a3.24,3.24,0,0,0,0-.44l-4.53,2c.25,1.73,1,2.62,2.22,2.62C360.69,719.16,361.44,717.73,361.44,715Z"/>
      <path class="cls-1" d="M364.26,712.27c0-1.53.67-2.53,2-2.53s2,1,2,2.53-.67,2.52-2,2.52S364.26,713.76,364.26,712.27Zm0,7.81,7.24-10.15h1.16l-7.26,10.15Zm3-7.81c0-1.11-.36-1.67-1-1.67s-1,.56-1,1.67.33,1.66,1,1.66S367.27,713.34,367.27,712.27Zm1.34,5.46c0-1.53.66-2.52,2-2.52s2,1,2,2.52-.67,2.53-2,2.53S368.61,719.24,368.61,717.73Zm3,0c0-1.09-.35-1.66-1-1.66s-1,.57-1,1.66.34,1.68,1,1.68S371.62,718.82,371.62,717.73Z"/>
    </g>
    <g>
      <rect class="cls-2" x="317.73" y="588.93" width="25" height="100"/>
      <path class="cls-1" d="M343.23,689.43h-26v-101h26Zm-25-1h24v-99h-24Z"/>
    </g>
    <g>
      <rect class="cls-3" x="317.73" y="668.93" width="25" height="20"/>
      <path class="cls-1" d="M343.23,689.43h-26v-21h26Zm-25-1h24v-19h-24Z"/>
    </g>
  </g>
  <g>
    <g>
      <g>
        <rect class="cls-4" x="787.41" y="493.5" width="81.96" height="31.09" rx="2.84"/>
        <path class="cls-2" d="M866.52,525.09H790.25a3.35,3.35,0,0,1-3.34-3.34V496.34a3.35,3.35,0,0,1,3.34-3.34h76.27a3.34,3.34,0,0,1,3.34,3.34v25.41A3.34,3.34,0,0,1,866.52,525.09ZM790.25,494a2.34,2.34,0,0,0-2.34,2.34v25.41a2.34,2.34,0,0,0,2.34,2.34h76.27a2.34,2.34,0,0,0,2.34-2.34V496.34a2.34,2.34,0,0,0-2.34-2.34Z"/>
      </g>
      <g>
        <circle class="cls-2" cx="853.82" cy="509.04" r="4.24"/>
        <path class="cls-2" d="M853.82,513.78a4.74,4.74,0,1,1,4.74-4.74A4.74,4.74,0,0,1,853.82,513.78Zm0-8.47a3.74,3.74,0,1,0,3.74,3.73A3.74,3.74,0,0,0,853.82,505.31Z"/>
      </g>
      <g>
        <circle class="cls-2" cx="836.86" cy="509.04" r="4.24"/>
        <path class="cls-2" d="M836.86,513.78A4.74,4.74,0,1,1,841.6,509,4.74,4.74,0,0,1,836.86,513.78Zm0-8.47A3.74,3.74,0,1,0,840.6,509,3.74,3.74,0,0,0,836.86,505.31Z"/>
      </g>
      <g>
        <rect class="cls-4" x="787.41" y="462.41" width="81.96" height="31.09" rx="2.84"/>
        <path class="cls-2" d="M866.52,494H790.25a3.35,3.35,0,0,1-3.34-3.34V465.25a3.35,3.35,0,0,1,3.34-3.34h76.27a3.34,3.34,0,0,1,3.34,3.34v25.41A3.34,3.34,0,0,1,866.52,494Zm-76.27-31.09a2.34,2.34,0,0,0-2.34,2.34v25.41a2.34,2.34,0,0,0,2.34,2.34h76.27a2.34,2.34,0,0,0,2.34-2.34V465.25a2.34,2.34,0,0,0-2.34-2.34Z"/>
      </g>
      <g>
        <circle class="cls-2" cx="853.82" cy="477.96" r="4.24"/>
        <path class="cls-2" d="M853.82,482.7a4.74,4.74,0,1,1,4.74-4.74A4.75,4.75,0,0,1,853.82,482.7Zm0-8.48a3.74,3.74,0,1,0,3.74,3.74A3.75,3.75,0,0,0,853.82,474.22Z"/>
      </g>
      <g>
        <circle class="cls-2" cx="836.86" cy="477.96" r="4.24"/>
        <path class="cls-2" d="M836.86,482.7A4.74,4.74,0,1,1,841.6,478,4.75,4.75,0,0,1,836.86,482.7Zm0-8.48A3.74,3.74,0,1,0,840.6,478,3.75,3.75,0,0,0,836.86,474.22Z"/>
      </g>
    </g>
    <g>
      <path class="cls-1" d="M893.87,563.25v6.18c0,2,.36,2.93,2.14,2.93s2.17-1.08,2.17-3.09v-6h1.38v5.91c0,3-.81,4.43-3.55,4.43s-3.52-1.15-3.52-4.32v-6Z"/>
      <path class="cls-1" d="M907,567.93c-.18-.84-.86-1.12-1.74-1.12s-1.57.29-1.57,1,.41.85,1.18,1l.87.17c1.34.26,2.79.75,2.79,2.26s-1.42,2.38-3.11,2.38a2.91,2.91,0,0,1-3.19-2.44h1.41a1.6,1.6,0,0,0,1.81,1.37c.82,0,1.73-.28,1.73-1.16,0-.7-.65-1.05-1.63-1.22l-1-.18c-1.23-.24-2.2-.82-2.2-2.13s1.63-2.08,2.94-2.08a2.86,2.86,0,0,1,3.07,2.18Z"/>
      <path class="cls-1" d="M911.42,571.45c0-1.8,2-2.34,5.15-2.68v-.32c0-1.3-.74-1.7-1.75-1.7-1.2,0-1.77.58-1.85,1.5H911.6a3,3,0,0,1,3.23-2.53c2.16,0,3.09.92,3.06,3l0,1.83c0,1.26.06,2.34.11,2.85H916.7V572.3a2.88,2.88,0,0,1-2.74,1.29A2.25,2.25,0,0,1,911.42,571.45Zm5.25-1.66c-2.37.23-3.82.55-3.82,1.63,0,.71.54,1.13,1.48,1.13,1.18,0,2.34-.54,2.34-2.55Z"/>
      <path class="cls-1" d="M925.87,565.87h1.33v6.6c0,1.54-.2,2.17-.62,2.65a3.71,3.71,0,0,1-2.73,1c-1.69,0-2.89-.78-3.12-2.27h1.4c.19.69.59,1.15,1.74,1.15a2.15,2.15,0,0,0,1.59-.56c.26-.29.41-.64.41-1.67V572a2.48,2.48,0,0,1-2.31,1.25c-1.79,0-3.14-1.27-3.14-3.77s1.35-3.76,3.14-3.76a2.49,2.49,0,0,1,2.31,1.26Zm-2,1c-1.33,0-2,.9-2,2.69s.68,2.71,2,2.71c1.12,0,2.08-.73,2.08-2.71S925,566.82,923.84,566.82Z"/>
      <path class="cls-1" d="M930,569.67c0-2.43,1.48-3.94,3.53-3.94,2.28,0,3.58,1.61,3.48,4.3h-5.61a2.22,2.22,0,0,0,2.11,2.51,1.88,1.88,0,0,0,2-1.39h1.37a3.18,3.18,0,0,1-3.36,2.44C931.12,573.59,930,571.89,930,569.67Zm1.42-.7h4.17a2.09,2.09,0,1,0-4.17,0Z"/>
      <path class="cls-1" d="M942,567.48v-1.61h1.67v1.61Zm0,5.93V571.8h1.67v1.61Z"/>
      <path class="cls-1" d="M959.23,568a2.85,2.85,0,0,1,2.63-1.38,3.27,3.27,0,0,1,3.29,3.44,3.48,3.48,0,0,1-3.59,3.49c-2.49,0-3.71-1.78-3.71-4.86,0-2.86,1.09-5.66,4-5.66a3,3,0,0,1,3.16,2.51h-1.44a1.68,1.68,0,0,0-1.79-1.42C960.14,564.16,959.29,565.73,959.23,568Zm2.32,4.44a2.16,2.16,0,0,0,2.18-2.32,2.19,2.19,0,1,0-4.36,0A2.13,2.13,0,0,0,961.55,572.48Z"/>
      <path class="cls-1" d="M967.18,568.28c0-3.15,1-5.21,3.66-5.21s3.68,2.06,3.68,5.21-1,5.31-3.68,5.31S967.18,571.43,967.18,568.28Zm1.36.52,4.53-2c-.23-1.77-1-2.64-2.23-2.64-1.58,0-2.31,1.35-2.31,4.12C968.53,568.46,968.53,568.63,968.54,568.8Zm4.63-.52c0-.15,0-.29,0-.45l-4.53,2c.24,1.74,1,2.62,2.21,2.62C972.42,572.48,973.17,571.05,973.17,568.28Z"/>
      <path class="cls-1" d="M976,565.59c0-1.53.66-2.52,2-2.52s2,1,2,2.52-.67,2.52-2,2.52S976,567.09,976,565.59Zm0,7.82,7.24-10.16h1.15l-7.25,10.16Zm3-7.82c0-1.11-.36-1.67-1-1.67s-1,.56-1,1.67.34,1.67,1,1.67S979,566.67,979,565.59Zm1.33,5.46c0-1.52.67-2.52,2-2.52s2,1,2,2.52-.67,2.54-2,2.54S980.34,572.57,980.34,571.05Zm3,0c0-1.09-.35-1.65-1-1.65s-1,.56-1,1.65.33,1.68,1,1.68S983.35,572.15,983.35,571.05Z"/>
    </g>
    <g>
      <rect class="cls-2" x="929.47" y="442.25" width="25" height="100"/>
      <path class="cls-1" d="M955,542.75H929v-101h26Zm-25-1h24v-99H930Z"/>
    </g>
    <g>
      <rect class="cls-4" x="929.47" y="482.94" width="25" height="60"/>
      <path class="cls-1" d="M955,543.44H929v-61h26Zm-25-1h24v-59H930Z"/>
    </g>
  </g>
  <g>
    <g>
      <path class="cls-5" d="M421.21,624.79l240.18-80"/>
      <path class="cls-1" d="M421.21,625.3a.5.5,0,0,1-.16-1l240.19-80a.51.51,0,0,1,.63.32.5.5,0,0,1-.32.63l-240.18,80Z"/>
    </g>
    <path class="cls-1" d="M654.61,558.13a.44.44,0,0,1-.24-.07.49.49,0,0,1-.19-.68l7-12.52-12.53-7a.51.51,0,0,1-.19-.68.5.5,0,0,1,.68-.2l13,7.25a.49.49,0,0,1,.19.68l-7.24,13A.49.49,0,0,1,654.61,558.13Z"/>
  </g>
  <g>
    <g>
      <path class="cls-5" d="M421.21,369.14l240.18,80"/>
      <path class="cls-1" d="M661.39,449.66l-.15,0-240.19-80a.5.5,0,0,1-.32-.63.52.52,0,0,1,.64-.32l240.18,80a.5.5,0,0,1,.32.63A.51.51,0,0,1,661.39,449.66Z"/>
    </g>
    <path class="cls-1" d="M648.9,457a.5.5,0,0,1-.25-.93l12.53-7-7-12.52a.5.5,0,0,1,.87-.49l7.24,13a.49.49,0,0,1-.19.68l-13,7.25A.53.53,0,0,1,648.9,457Z"/>
  </g>
  <g>
    <rect class="cls-2" x="158.73" y="147.23" width="240" height="12.03"/>
    <path class="cls-1" d="M399.23,159.75h-241v-13h241Zm-240-1h239v-11h-239Z"/>
  </g>
  <g>
    <circle class="cls-1" cx="165.8" cy="463.89" r="3"/>
    <path class="cls-2" d="M165.8,467.39a3.5,3.5,0,1,1,3.5-3.5A3.5,3.5,0,0,1,165.8,467.39Zm0-6a2.5,2.5,0,1,0,2.5,2.5A2.5,2.5,0,0,0,165.8,461.39Z"/>
  </g>
  <g>
    <circle class="cls-1" cx="173.56" cy="463.89" r="3"/>
    <path class="cls-2" d="M173.56,467.39a3.5,3.5,0,1,1,3.5-3.5A3.5,3.5,0,0,1,173.56,467.39Zm0-6a2.5,2.5,0,1,0,2.5,2.5A2.5,2.5,0,0,0,173.56,461.39Z"/>
  </g>
  <g>
    <circle class="cls-1" cx="181.33" cy="463.89" r="3"/>
    <path class="cls-2" d="M181.33,467.39a3.5,3.5,0,1,1,3.5-3.5A3.5,3.5,0,0,1,181.33,467.39Zm0-6a2.5,2.5,0,1,0,2.5,2.5A2.5,2.5,0,0,0,181.33,461.39Z"/>
  </g>
  <g>
    <circle class="cls-1" cx="165.8" cy="153.45" r="3"/>
    <path class="cls-2" d="M165.8,157a3.51,3.51,0,1,1,3.5-3.51A3.51,3.51,0,0,1,165.8,157Zm0-6a2.51,2.51,0,1,0,2.5,2.5A2.5,2.5,0,0,0,165.8,151Z"/>
  </g>
  <g>
    <circle class="cls-1" cx="173.56" cy="153.45" r="3"/>
    <path class="cls-2" d="M173.56,157a3.51,3.51,0,1,1,3.5-3.51A3.51,3.51,0,0,1,173.56,157Zm0-6a2.51,2.51,0,1,0,2.5,2.5A2.5,2.5,0,0,0,173.56,151Z"/>
  </g>
  <g>
    <circle class="cls-1" cx="181.33" cy="153.45" r="3"/>
    <path class="cls-2" d="M181.33,157a3.51,3.51,0,1,1,3.5-3.51A3.51,3.51,0,0,1,181.33,157Zm0-6a2.51,2.51,0,1,0,2.5,2.5A2.5,2.5,0,0,0,181.33,151Z"/>
  </g>
  <g>
    <rect class="cls-2" x="768.9" y="277.89" width="240" height="12.03"/>
    <path class="cls-1" d="M1009.4,290.42h-241v-13h241Zm-240-1h239v-11h-239Z"/>
  </g>
  <g>
    <circle class="cls-1" cx="775.96" cy="284.12" r="3"/>
    <path class="cls-2" d="M776,287.62a3.51,3.51,0,1,1,3.5-3.5A3.5,3.5,0,0,1,776,287.62Zm0-6a2.51,2.51,0,1,0,2.5,2.51A2.51,2.51,0,0,0,776,281.61Z"/>
  </g>
  <g>
    <circle class="cls-1" cx="783.73" cy="284.12" r="3"/>
    <path class="cls-2" d="M783.73,287.62a3.51,3.51,0,1,1,3.5-3.5A3.51,3.51,0,0,1,783.73,287.62Zm0-6a2.51,2.51,0,1,0,2.5,2.51A2.52,2.52,0,0,0,783.73,281.61Z"/>
  </g>
  <g>
    <circle class="cls-1" cx="791.49" cy="284.12" r="3"/>
    <path class="cls-2" d="M791.49,287.62a3.51,3.51,0,1,1,3.5-3.5A3.5,3.5,0,0,1,791.49,287.62Zm0-6a2.51,2.51,0,1,0,2.5,2.51A2.51,2.51,0,0,0,791.49,281.61Z"/>
  </g>
</svg>
